<svg id="Layer_1" data-name="Layer 1" xmlns="http://www.w3.org/2000/svg" xmlns:xlink="http://www.w3.org/1999/xlink" viewBox="0 0 1364 735"><defs><style>.cls-1{fill:#fff;}.cls-10,.cls-11,.cls-12,.cls-13,.cls-14,.cls-15,.cls-16,.cls-17,.cls-2,.cls-3,.cls-4,.cls-5,.cls-6,.cls-7,.cls-8,.cls-9{opacity:0.15;}.cls-2{fill:url(#White_Black);}.cls-3{fill:url(#White_Black-2);}.cls-4{fill:url(#White_Black-3);}.cls-5{fill:url(#White_Black-4);}.cls-6{fill:url(#White_Black-5);}.cls-7{fill:url(#White_Black-6);}.cls-8{fill:url(#White_Black-7);}.cls-9{fill:url(#White_Black-8);}.cls-10{fill:url(#White_Black-9);}.cls-11{fill:url(#White_Black-10);}.cls-12{fill:url(#White_Black-11);}.cls-13{fill:url(#White_Black-12);}.cls-14{fill:url(#White_Black-13);}.cls-15{fill:url(#White_Black-14);}.cls-16{fill:url(#White_Black-15);}.cls-17{fill:url(#White_Black-16);}</style><linearGradient id="White_Black" x1="750.58" y1="348.41" x2="748.33" y2="339.16" gradientUnits="userSpaceOnUse"><stop offset="0" stop-color="#fff"/><stop offset="1"/></linearGradient><linearGradient id="White_Black-2" x1="914.87" y1="251.5" x2="912.24" y2="240.7" gradientTransform="translate(205.74 1104) rotate(-60.59)" xlink:href="#White_Black"/><linearGradient id="White_Black-3" x1="1117.18" y1="233.24" x2="1114.03" y2="220.31" gradientTransform="translate(1186.81 1520.66) rotate(-114.65)" xlink:href="#White_Black"/><linearGradient id="White_Black-4" x1="1043.6" y1="206.08" x2="1041.35" y2="196.83" gradientTransform="translate(1754.42 529.5) rotate(180)" xlink:href="#White_Black"/><linearGradient id="White_Black-5" x1="1025.18" y1="111.22" x2="1023.39" y2="103.85" gradientTransform="translate(1754.42 529.5) rotate(180)" xlink:href="#White_Black"/><linearGradient id="White_Black-6" x1="682.25" y1="362.16" x2="680.05" y2="353.15" xlink:href="#White_Black"/><linearGradient id="White_Black-7" x1="993.28" y1="270.96" x2="991.09" y2="261.94" xlink:href="#White_Black"/><linearGradient id="White_Black-8" x1="312.3" y1="460.44" x2="310.91" y2="454.72" xlink:href="#White_Black"/><linearGradient id="White_Black-9" x1="1430.76" y1="99.68" x2="1428.76" y2="91.47" gradientTransform="translate(1754.42 529.5) rotate(180)" xlink:href="#White_Black"/><linearGradient id="White_Black-10" x1="407.04" y1="443.37" x2="404.73" y2="433.86" xlink:href="#White_Black"/><linearGradient id="White_Black-11" x1="1335.24" y1="120.58" x2="1333.24" y2="112.35" gradientTransform="translate(1754.42 529.5) rotate(180)" xlink:href="#White_Black"/><linearGradient id="White_Black-12" x1="393.72" y1="278.03" x2="391.6" y2="269.3" xlink:href="#White_Black"/><linearGradient id="White_Black-13" x1="616.73" y1="-203.41" x2="613.98" y2="-214.71" gradientTransform="translate(205.74 1104) rotate(-60.59)" xlink:href="#White_Black"/><linearGradient id="White_Black-14" x1="286.3" y1="473.77" x2="292.73" y2="476.5" xlink:href="#White_Black"/><linearGradient id="White_Black-15" x1="460.79" y1="413.33" x2="468.69" y2="416.69" xlink:href="#White_Black"/><linearGradient id="White_Black-16" x1="763.04" y1="425.49" x2="773.04" y2="422.92" xlink:href="#White_Black"/></defs><title>storeArtboard 1 copy 3white</title><path class="cls-1" d="M1013.53,410.21a8.14,8.14,0,0,1,1.9-5.19l-.25.05L959.25,424l-20.09,7.33-4.83-4.83,78.35-176.54c2.07-3.8,0-6.56-4.14-5.52l-43.15,9.32c-2.76,1-4.49,2.42-5.52,4.83l-2.07,4.14c-1.73,4.14.35,6.56,4.83,5.52l21.4-5.18L917.88,411.81l-52,12.2,64.65-145a6.14,6.14,0,0,0-1-7.25l-25.2-25.55a7,7,0,0,0-7.25-2.07l-47.64,11a8.84,8.84,0,0,0-5.52,4.49L773.71,415.92l-34.28,8.17,29.17-66c1.38-2.76.69-4.83-1.38-6.9L754.11,337.7l22.44-5.18a7.4,7.4,0,0,0,5.52-4.49l20.37-46.26c1.38-3.11,1-5.18-1-7.25l-28.31-28c-1.73-1.73-3.8-2.42-6.9-1.73L720.63,255.2a8.85,8.85,0,0,0-5.52,4.49L692,313.19c-1.38,2.76-1,4.83,1.38,6.9l14.12,14.11-53.64,10.64a7.43,7.43,0,0,1,2.57,12.86l16.39-3.39-29.15,64.85a7,7,0,0,0,1.38,7.59l21.4,24.51a6.62,6.62,0,0,0,6.9,2.07l50.92-12,0,0,52-12.06,18.88,21.63a6.62,6.62,0,0,0,6.9,2.07l5-1.21v.06l107.12-25.12a7,7,0,0,0,1.07,1.14l14.84,16.23a6.44,6.44,0,0,0,6.9,2.07l26.31-9,56.4-19A8.21,8.21,0,0,1,1013.53,410.21Zm-278.06-144,26.58-6.9,19,19-19.68,44.53-34.52,7.25L712.69,317Zm-21.74,164-2.3.55h0l-31.89,7.41-13.46-15.54,32.11-73.18,18.37-3.81,12.18-2.42,0-.1,6.07-1.26,12.43,12.77Zm94.36,7.35-13.24-15.62,69-156,28.66-6.9,16.22,16.57L840.15,430Z"/><path class="cls-1" d="M1060.93,394.26l-45.82,3.19,11.11,6.31-9.6,3.33a5.9,5.9,0,0,0,2.41,8.1l16.9-5.84,8.4-2.9-6.83-3.89Z"/><polygon class="cls-2" points="751.62 338.25 734.78 341.85 747.21 354.62 764.88 348.75 754.11 337.7 751.62 338.25"/><polygon class="cls-3" points="859.26 439.65 878.05 435.47 883.45 419.9 865.67 424.11 859.26 439.65"/><polygon class="cls-4" points="934.33 426.49 942.42 408.25 925.2 394.45 917.88 411.81 934.33 426.49"/><polygon class="cls-5" points="709.79 333.57 726.63 329.98 714.2 317.2 696.53 323.07 707.29 334.12 709.79 333.57"/><polygon class="cls-6" points="739.44 424.08 745.64 410.04 719.87 416.25 713.73 430.21 739.44 424.08"/><polygon class="cls-7" points="687.34 351.62 672.79 354.33 665.34 370.91 691.26 365.22 698.19 349.44 687.34 351.62"/><polygon class="cls-8" points="998.28 260.45 984.02 263.07 976.64 279.66 1001.93 274.12 1008.96 258.31 998.28 260.45"/><path class="cls-1" d="M654.68,352.88a6.57,6.57,0,0,1-5.09,6.4l-2.8-12.83a6.57,6.57,0,0,1,7.89,6.43Z"/><rect class="cls-1" x="625.56" y="350.1" width="2.42" height="14.51" transform="translate(-60.99 139.35) rotate(-12.1)"/><path class="cls-1" d="M627.61,342.3l-16.56,3.54,6.07,28.38,16.56-3.54.51,2.37,14.69-3.14a4.33,4.33,0,0,0,3.33-5.14l-5.27-24.65a4.33,4.33,0,0,0-5.14-3.33l-14.69,3.14Zm14.7-.67,1.49,6.86-4.52,2,1.82,8,4.94,0,1.34,6.88-9.46,2-.51-2.37-16.56,3.54-.84-3.92,4.74-1-.51-2.36-4.62,1-1.43-6.3,4.69-1-.52-2.43-4.73,1-.83-3.89L633.36,346l-.51-2.37Z"/><path class="cls-1" d="M656.08,352.49a6.57,6.57,0,0,0-7.84-6.48L651,358.86A6.56,6.56,0,0,0,656.08,352.49Z"/><path class="cls-1" d="M484.34,281.07a6.11,6.11,0,0,1,1,7.12L428.44,415.92l44.39-8.81c4.07-1,6.1,1.36,4.4,5.42l-1.36,3.39a6.29,6.29,0,0,1-5.42,4.07l-48.11,9.83-9.15,20.67a8.49,8.49,0,0,1-5.76,4.41l-125,27.68a5.5,5.5,0,0,1-6.44-2.71l-1-1.36c-1.35-2.37-1.35-4.4-.34-7.12l10.16-21a6.28,6.28,0,0,1,5.42-4.07L403.7,421l60.65-136.55L440.63,258l-31.17,7.12-.34.68-109,245.6c-1.69,3.73-4.74,4.07-7.12.68l-7.79-10.84a6.14,6.14,0,0,1-.34-6.78l99.14-223.91-22.36,5.08c-4.07,1.35-5.76-1.36-4.07-5.42l2.37-5.08c1-2.37,2.71-3.39,5.42-4.07l80-16.94c2.71-1,4.74,0,6.78,1.69Zm-190,177.1L289.23,469l104.65-24.3,4.07-9.83Z"/><path class="cls-1" d="M581.92,241.42a7.06,7.06,0,0,1,6.78,1.69l36.93,40.32c2,2,2.37,4.07,1.36,7.12l-10.5,22.36c-1,3-2.71,4.07-5.76,4.07H599.2c-4.07,0-5.76-2.37-4.07-6.1L608,282.08,582.94,254l-21.68,5.42L489.42,421l14.91,16.6,102-29.48c3.39-1.35,5.76.68,5.42,4.41l-.68,4.4a5.14,5.14,0,0,1-4.4,5.42L498.91,452.85a6.86,6.86,0,0,1-7.12-2l-22.7-25.41c-1.69-2.37-2.37-4.4-1.35-7.45l73.19-164.33a8.49,8.49,0,0,1,5.76-4.41Z"/><polygon class="cls-9" points="301.78 456.57 296.83 467.25 322.38 461.32 327.08 450.81 301.78 456.57"/><polygon class="cls-10" points="333.2 436.73 340.21 421 314.49 427.97 308.02 442.35 333.2 436.73"/><polygon class="cls-11" points="397.94 434.89 390.63 452.32 414.71 447.04 422.34 429.81 397.94 434.89"/><polygon class="cls-12" points="428.44 415.92 435.46 400.16 409.74 407.13 403.7 421 428.44 415.92"/><polygon class="cls-13" points="384.05 270.56 376.95 286.56 402.41 281.01 409.44 265.2 384.05 270.56"/><polygon class="cls-14" points="316.26 475.08 335.42 471.09 340.83 457.03 322.38 461.32 316.26 475.08"/><polygon class="cls-15" points="290.82 480.95 281.45 482.81 286.22 469.62 296.94 467.19 290.82 480.95"/><polygon class="cls-16" points="467.26 420.77 456.97 422.81 460.09 409.63 472.46 407.19 467.26 420.77"/><polygon class="cls-17" points="776.31 429.31 759.35 433.24 761.5 418.65 773.71 415.92 771 423 776.31 429.31"/></svg>