<svg id="Layer_1" data-name="Layer 1" xmlns="http://www.w3.org/2000/svg" viewBox="0 0 1364 735"><defs><style>.cls-1{fill:#fff;}</style></defs><title>storeArtboard 1 copy 2black</title><path d="M1013.53,410.21a8.14,8.14,0,0,1,1.9-5.19l-.25.05L959.25,424l-20.09,7.33-4.83-4.83,78.35-176.54c2.07-3.8,0-6.56-4.14-5.52l-43.15,9.32c-2.76,1-4.49,2.42-5.52,4.83l-2.07,4.14c-1.73,4.14.35,6.56,4.83,5.52l21.4-5.18L917.88,411.81l-52,12.2,64.65-145a6.14,6.14,0,0,0-1-7.25l-25.2-25.55a7,7,0,0,0-7.25-2.07l-47.64,11a8.84,8.84,0,0,0-5.52,4.49L773.71,415.92l-34.28,8.17,29.17-66c1.38-2.76.69-4.83-1.38-6.9L754.11,337.7l22.44-5.18a7.4,7.4,0,0,0,5.52-4.49l20.37-46.26c1.38-3.11,1-5.18-1-7.25l-28.31-28c-1.73-1.73-3.8-2.42-6.9-1.73L720.63,255.2a8.85,8.85,0,0,0-5.52,4.49L692,313.19c-1.38,2.76-1,4.83,1.38,6.9l14.12,14.11-53.64,10.64a7.43,7.43,0,0,1,2.57,12.86l16.39-3.39-29.15,64.85a7,7,0,0,0,1.38,7.59l21.4,24.51a6.62,6.62,0,0,0,6.9,2.07l50.92-12,0,0,52-12.06,18.88,21.63a6.62,6.62,0,0,0,6.9,2.07l5-1.21v.06l107.12-25.12a7,7,0,0,0,1.07,1.14l14.84,16.23a6.44,6.44,0,0,0,6.9,2.07l26.31-9,56.4-19A8.21,8.21,0,0,1,1013.53,410.21Zm-278.06-144,26.58-6.9,19,19-19.68,44.53-34.52,7.25L712.69,317Zm-21.74,164-2.3.55h0l-31.89,7.41-13.46-15.54,32.11-73.18,18.37-3.81,12.18-2.42,0-.1,6.07-1.26,12.43,12.77Zm94.36,7.35-13.24-15.62,69-156,28.66-6.9,16.22,16.57L840.15,430Z"/><path d="M1060.93,394.26l-45.82,3.19,11.11,6.31-9.6,3.33a5.9,5.9,0,0,0,2.41,8.1l16.9-5.84,8.4-2.9-6.83-3.89Z"/><path class="cls-1" d="M654.68,352.88a6.57,6.57,0,0,1-5.09,6.4l-2.8-12.83a6.57,6.57,0,0,1,7.89,6.43Z"/><rect x="625.56" y="350.1" width="2.42" height="14.51" transform="translate(-60.99 139.35) rotate(-12.1)"/><path d="M627.61,342.3l-16.56,3.54,6.07,28.38,16.56-3.54.51,2.37,14.69-3.14a4.33,4.33,0,0,0,3.33-5.14l-5.27-24.65a4.33,4.33,0,0,0-5.14-3.33l-14.69,3.14Zm14.7-.67,1.49,6.86-4.52,2,1.82,8,4.94,0,1.34,6.88-9.46,2-.51-2.37-16.56,3.54-.84-3.92,4.74-1-.51-2.36-4.62,1-1.43-6.3,4.69-1-.52-2.43-4.73,1-.83-3.89L633.36,346l-.51-2.37Z"/><path d="M656.08,352.49a6.57,6.57,0,0,0-7.84-6.48L651,358.86A6.56,6.56,0,0,0,656.08,352.49Z"/><path d="M484.34,281.07a6.11,6.11,0,0,1,1,7.12L428.44,415.92l44.39-8.81c4.07-1,6.1,1.36,4.4,5.42l-1.36,3.39a6.29,6.29,0,0,1-5.42,4.07l-48.11,9.83-9.15,20.67a8.49,8.49,0,0,1-5.76,4.41l-125,27.68a5.5,5.5,0,0,1-6.44-2.71l-1-1.36c-1.35-2.37-1.35-4.4-.34-7.12l10.16-21a6.28,6.28,0,0,1,5.42-4.07L403.7,421l60.65-136.55L440.63,258l-31.17,7.12-.34.68-109,245.6c-1.69,3.73-4.74,4.07-7.12.68l-7.79-10.84a6.14,6.14,0,0,1-.34-6.78l99.14-223.91-22.36,5.08c-4.07,1.35-5.76-1.36-4.07-5.42l2.37-5.08c1-2.37,2.71-3.39,5.42-4.07l80-16.94c2.71-1,4.74,0,6.78,1.69Zm-190,177.1L289.23,469l104.65-24.3,4.07-9.83Z"/><path d="M581.92,241.42a7.06,7.06,0,0,1,6.78,1.69l36.93,40.32c2,2,2.37,4.07,1.36,7.12l-10.5,22.36c-1,3-2.71,4.07-5.76,4.07H599.2c-4.07,0-5.76-2.37-4.07-6.1L608,282.08,582.94,254l-21.68,5.42L489.42,421l14.91,16.6,102-29.48c3.39-1.35,5.76.68,5.42,4.41l-.68,4.4a5.14,5.14,0,0,1-4.4,5.42L498.91,452.85a6.86,6.86,0,0,1-7.12-2l-22.7-25.41c-1.69-2.37-2.37-4.4-1.35-7.45l73.19-164.33a8.49,8.49,0,0,1,5.76-4.41Z"/></svg>