  0
SECTION
  2
HEADER
  9
$ANGBASE
  50
0.0
  9
$ANGDIR
  70
1
  9
$MEASUREMENT
  70
0
  0
ENDSEC
  0
SECTION
  2
TABLES
  0
TABLE
  2
LTYPE
  70
4
  0
LTYPE
  5
40F
  2
CONTINUOUS
  70
0
  3
Solid line
  72
65
  73
0
  40
0.0
  0
LTYPE
  5
410
  2
DASHDOT
 70
0
  3
Dash Dot ____ _ ____ _
 72
65
 73
4
 40
2.0
 49
1.25
 49
-0.25
 49
0.25
 49
-0.25
  0
LTYPE
  5
411
  2
DASHED
 70
0
  3
Dashed __ __ __ __ __
 72
65
 73
2
 40
0.75
 49
0.5
 49
-0.25
  0
LTYPE
  5
43B
  2
DOTTED
 70
0
  3
Dotted .  .  .  .
 72
65
 73
2
 40
0.2
 49
0.0
 49
-0.2
  0
ENDTAB
  0
TABLE
  2
STYLE
  70
4
  0
STYLE
  2
KICAD
  70
0
  40
0
  41
1
  42
1
  50
0
  71
0
  3
isocp.shx
  0
STYLE
  2
KICADB
  70
0
  40
0
  41
1
  42
1
  50
0
  71
0
  3
isocp.shx
  0
STYLE
  2
KICADI
  70
0
  40
0
  41
1
  42
1
  50
15
  71
0
  3
isocp.shx
  0
STYLE
  2
KICADBI
  70
0
  40
0
  41
1
  42
1
  50
15
  71
0
  3
isocp.shx
  0
ENDTAB
  0
TABLE
  2
LAYER
  70
1
  0
LAYER
  2
BLACK
  70
0
  62
7
  6
CONTINUOUS
  0
ENDTAB
  0
ENDSEC
  0
SECTION
  2
ENTITIES
0
LINE
8
BLACK
6
CONTINUOUS
10
5.5610236220472435
20
-1.1791338976377952
11
5.5617769291338579
21
-1.1792837401574803
0
LINE
8
BLACK
6
CONTINUOUS
10
5.5617769291338579
20
-1.1792837401574803
11
5.5628422834645672
21
-1.1803490944881889
0
LINE
8
BLACK
6
CONTINUOUS
10
5.5628422834645672
20
-1.1803490944881889
11
5.5628422834645672
21
-1.1818557086614172
0
LINE
8
BLACK
6
CONTINUOUS
10
5.5628422834645672
20
-1.1818557086614172
11
5.5617769291338579
21
-1.1829210629921258
0
LINE
8
BLACK
6
CONTINUOUS
10
5.5617769291338579
20
-1.1829210629921258
11
5.5610236220472435
21
-1.1830709055118109
0
LINE
8
BLACK
6
CONTINUOUS
10
5.5610236220472435
20
-1.1830709055118109
11
4.9606298818897638
21
-1.1830708267716534
0
LINE
8
BLACK
6
CONTINUOUS
10
4.9606298818897638
20
-1.1830708267716534
11
4.9514261023622046
21
-1.1830708267716534
0
LINE
8
BLACK
6
CONTINUOUS
10
4.9514261023622046
20
-1.1830708267716534
11
4.9330752755905509
21
-1.1845150787401575
0
LINE
8
BLACK
6
CONTINUOUS
10
4.9330752755905509
20
-1.1845150787401575
11
4.9148943307086617
21
-1.1873946456692912
0
LINE
8
BLACK
6
CONTINUOUS
10
4.9148943307086617
20
-1.1873946456692912
11
4.8969953543307083
21
-1.1916918110236221
0
LINE
8
BLACK
6
CONTINUOUS
10
4.8969953543307083
20
-1.1916918110236221
11
4.8794887401574805
21
-1.1973800787401574
0
LINE
8
BLACK
6
CONTINUOUS
10
4.8794887401574805
20
-1.1973800787401574
11
4.862482362204724
21
-1.2044243307086613
0
LINE
8
BLACK
6
CONTINUOUS
10
4.862482362204724
20
-1.2044243307086613
11
4.8460811023622048
21
-1.2127811811023621
0
LINE
8
BLACK
6
CONTINUOUS
10
4.8460811023622048
20
-1.2127811811023621
11
4.830386062992126
21
-1.2223991338582676
0
LINE
8
BLACK
6
CONTINUOUS
10
4.830386062992126
20
-1.2223991338582676
11
4.8154940157480315
21
-1.2332188188976378
0
LINE
8
BLACK
6
CONTINUOUS
10
4.8154940157480315
20
-1.2332188188976378
11
4.801496771653543
21
-1.2451735826771653
0
LINE
8
BLACK
6
CONTINUOUS
10
4.801496771653543
20
-1.2451735826771653
11
4.7884806692913386
21
-1.2581896850393701
0
LINE
8
BLACK
6
CONTINUOUS
10
4.7884806692913386
20
-1.2581896850393701
11
4.7765259055118108
21
-1.2721869291338583
0
LINE
8
BLACK
6
CONTINUOUS
10
4.7765259055118108
20
-1.2721869291338583
11
4.765706220472441
21
-1.2870789763779527
0
LINE
8
BLACK
6
CONTINUOUS
10
4.765706220472441
20
-1.2870789763779527
11
4.7560882677165353
21
-1.3027740157480314
0
LINE
8
BLACK
6
CONTINUOUS
10
4.7560882677165353
20
-1.3027740157480314
11
4.7477314173228349
21
-1.3191752755905513
0
LINE
8
BLACK
6
CONTINUOUS
10
4.7477314173228349
20
-1.3191752755905513
11
4.7406871653543305
21
-1.3361816535433071
0
LINE
8
BLACK
6
CONTINUOUS
10
4.7406871653543305
20
-1.3361816535433071
11
4.7349988976377952
21
-1.3536882677165354
0
LINE
8
BLACK
6
CONTINUOUS
10
4.7349988976377952
20
-1.3536882677165354
11
4.7307017322834648
21
-1.3715872440944881
0
LINE
8
BLACK
6
CONTINUOUS
10
4.7307017322834648
20
-1.3715872440944881
11
4.7278221653543309
21
-1.389768188976378
0
LINE
8
BLACK
6
CONTINUOUS
10
4.7278221653543309
20
-1.389768188976378
11
4.7263779133858268
21
-1.4081190157480314
0
LINE
8
BLACK
6
CONTINUOUS
10
4.7263779133858268
20
-1.4081190157480314
11
4.7263779133858268
21
-1.4173227952755905
0
LINE
8
BLACK
6
CONTINUOUS
10
4.7263779133858268
20
-1.4173227952755905
11
4.7263779133858268
21
-4.094488149606299
0
LINE
8
BLACK
6
CONTINUOUS
10
4.7263779133858268
20
-4.094488149606299
11
4.7263779921259843
21
-4.094488149606299
0
LINE
8
BLACK
6
CONTINUOUS
10
4.7263779921259843
20
-4.094488149606299
11
4.7263779921259843
21
-4.1036919291338583
0
LINE
8
BLACK
6
CONTINUOUS
10
4.7263779921259843
20
-4.1036919291338583
11
4.7278222047244096
21
-4.1220427559055119
0
LINE
8
BLACK
6
CONTINUOUS
10
4.7278222047244096
20
-4.1220427559055119
11
4.7307018110236223
21
-4.1402237007874012
0
LINE
8
BLACK
6
CONTINUOUS
10
4.7307018110236223
20
-4.1402237007874012
11
4.734998937007874
21
-4.1581226771653546
0
LINE
8
BLACK
6
CONTINUOUS
10
4.734998937007874
20
-4.1581226771653546
11
4.7406872047244093
21
-4.1756292913385824
0
LINE
8
BLACK
6
CONTINUOUS
10
4.7406872047244093
20
-4.1756292913385824
11
4.7477314566929136
21
-4.1926356692913389
0
LINE
8
BLACK
6
CONTINUOUS
10
4.7477314566929136
20
-4.1926356692913389
11
4.7560883464566928
21
-4.2090369291338581
0
LINE
8
BLACK
6
CONTINUOUS
10
4.7560883464566928
20
-4.2090369291338581
11
4.7657062598425197
21
-4.2247319685039368
0
LINE
8
BLACK
6
CONTINUOUS
10
4.7657062598425197
20
-4.2247319685039368
11
4.7765259448818895
21
-4.2396240157480314
0
LINE
8
BLACK
6
CONTINUOUS
10
4.7765259448818895
20
-4.2396240157480314
11
4.7884807086614174
21
-4.2536212204724411
0
LINE
8
BLACK
6
CONTINUOUS
10
4.7884807086614174
20
-4.2536212204724411
11
4.8014968110236218
21
-4.2666373622047242
0
LINE
8
BLACK
6
CONTINUOUS
10
4.8014968110236218
20
-4.2666373622047242
11
4.8154940551181102
21
-4.2785921259842521
0
LINE
8
BLACK
6
CONTINUOUS
10
4.8154940551181102
20
-4.2785921259842521
11
4.830386062992126
21
-4.2894118110236219
0
LINE
8
BLACK
6
CONTINUOUS
10
4.830386062992126
20
-4.2894118110236219
11
4.8460811023622048
21
-4.2990297637795276
0
LINE
8
BLACK
6
CONTINUOUS
10
4.8460811023622048
20
-4.2990297637795276
11
4.862482362204724
21
-4.307386614173228
0
LINE
8
BLACK
6
CONTINUOUS
10
4.862482362204724
20
-4.307386614173228
11
4.8794887401574805
21
-4.3144308661417323
0
LINE
8
BLACK
6
CONTINUOUS
10
4.8794887401574805
20
-4.3144308661417323
11
4.8969953543307083
21
-4.3201191338582676
0
LINE
8
BLACK
6
CONTINUOUS
10
4.8969953543307083
20
-4.3201191338582676
11
4.9148943307086617
21
-4.3244162992125981
0
LINE
8
BLACK
6
CONTINUOUS
10
4.9148943307086617
20
-4.3244162992125981
11
4.9330752755905509
21
-4.327295866141732
0
LINE
8
BLACK
6
CONTINUOUS
10
4.9330752755905509
20
-4.327295866141732
11
4.9514261023622046
21
-4.3287401181102361
0
LINE
8
BLACK
6
CONTINUOUS
10
4.9514261023622046
20
-4.3287401181102361
11
4.9606298818897638
21
-4.3287401181102361
0
LINE
8
BLACK
6
CONTINUOUS
10
4.9606298818897638
20
-4.3287401181102361
11
4.9606300000000001
21
-4.3287401574803148
0
LINE
8
BLACK
6
CONTINUOUS
10
4.9606300000000001
20
-4.3287401574803148
11
5.3149605905511814
21
-4.3287401574803148
0
LINE
8
BLACK
6
CONTINUOUS
10
5.3149605905511814
20
-4.3287401574803148
11
5.3157138976377949
21
-4.3288899999999995
0
LINE
8
BLACK
6
CONTINUOUS
10
5.3157138976377949
20
-4.3288899999999995
11
5.3167792519685042
21
-4.3299553543307088
0
LINE
8
BLACK
6
CONTINUOUS
10
5.3167792519685042
20
-4.3299553543307088
11
5.3167792519685042
21
-4.3314619685039366
0
LINE
8
BLACK
6
CONTINUOUS
10
5.3167792519685042
20
-4.3314619685039366
11
5.3157138976377949
21
-4.3325273228346459
0
LINE
8
BLACK
6
CONTINUOUS
10
5.3157138976377949
20
-4.3325273228346459
11
5.3149605905511814
21
-4.3326771653543306
0
LINE
8
BLACK
6
CONTINUOUS
10
5.3149605905511814
20
-4.3326771653543306
11
4.9606299212598426
21
-4.3326771653543306
0
LINE
8
BLACK
6
CONTINUOUS
10
4.9606299212598426
20
-4.3326771653543306
11
4.9606296456692913
21
-4.3326770866141731
0
LINE
8
BLACK
6
CONTINUOUS
10
4.9606296456692913
20
-4.3326770866141731
11
4.9419418110236215
21
-4.3319428740157475
0
LINE
8
BLACK
6
CONTINUOUS
10
4.9419418110236215
20
-4.3319428740157475
11
4.9233689370078739
21
-4.3297446062992124
0
LINE
8
BLACK
6
CONTINUOUS
10
4.9233689370078739
20
-4.3297446062992124
11
4.9050257874015744
21
-4.3260959448818896
0
LINE
8
BLACK
6
CONTINUOUS
10
4.9050257874015744
20
-4.3260959448818896
11
4.8870254724409445
21
-4.3210193307086611
0
LINE
8
BLACK
6
CONTINUOUS
10
4.8870254724409445
20
-4.3210193307086611
11
4.8694789370078739
21
-4.3145460629921262
0
LINE
8
BLACK
6
CONTINUOUS
10
4.8694789370078739
20
-4.3145460629921262
11
4.8524943700787402
21
-4.3067160629921259
0
LINE
8
BLACK
6
CONTINUOUS
10
4.8524943700787402
20
-4.3067160629921259
11
4.8361764960629916
21
-4.2975776377952757
0
LINE
8
BLACK
6
CONTINUOUS
10
4.8361764960629916
20
-4.2975776377952757
11
4.8206259448818898
21
-4.2871870472440943
0
LINE
8
BLACK
6
CONTINUOUS
10
4.8206259448818898
20
-4.2871870472440943
11
4.8059385433070867
21
-4.275608464566929
0
LINE
8
BLACK
6
CONTINUOUS
10
4.8059385433070867
20
-4.275608464566929
11
4.7922048818897638
21
-4.2629131889763778
0
LINE
8
BLACK
6
CONTINUOUS
10
4.7922048818897638
20
-4.2629131889763778
11
4.7795096062992126
21
-4.2491794881889762
0
LINE
8
BLACK
6
CONTINUOUS
10
4.7795096062992126
20
-4.2491794881889762
11
4.7679309842519686
21
-4.2344920866141731
0
LINE
8
BLACK
6
CONTINUOUS
10
4.7679309842519686
20
-4.2344920866141731
11
4.7575404330708659
21
-4.2189415354330704
0
LINE
8
BLACK
6
CONTINUOUS
10
4.7575404330708659
20
-4.2189415354330704
11
4.7484020078740157
21
-4.2026236614173227
0
LINE
8
BLACK
6
CONTINUOUS
10
4.7484020078740157
20
-4.2026236614173227
11
4.7405720078740154
21
-4.1856390944881889
0
LINE
8
BLACK
6
CONTINUOUS
10
4.7405720078740154
20
-4.1856390944881889
11
4.7340987795275593
21
-4.1680925984251971
0
LINE
8
BLACK
6
CONTINUOUS
10
4.7340987795275593
20
-4.1680925984251971
11
4.7290221653543307
21
-4.1500922440944885
0
LINE
8
BLACK
6
CONTINUOUS
10
4.7290221653543307
20
-4.1500922440944885
11
4.7253734645669292
21
-4.1317490944881889
0
LINE
8
BLACK
6
CONTINUOUS
10
4.7253734645669292
20
-4.1317490944881889
11
4.723175236220472
21
-4.1131762204724405
0
LINE
8
BLACK
6
CONTINUOUS
10
4.723175236220472
20
-4.1131762204724405
11
4.7224409842519686
21
-4.0944886220472441
0
LINE
8
BLACK
6
CONTINUOUS
10
4.7224409842519686
20
-4.0944886220472441
11
4.7224409055118111
21
-4.094488149606299
0
LINE
8
BLACK
6
CONTINUOUS
10
4.7224409055118111
20
-4.094488149606299
11
4.7224409055118111
21
-1.4173227952755905
0
LINE
8
BLACK
6
CONTINUOUS
10
4.7224409055118111
20
-1.4173227952755905
11
4.7231751574803145
21
-1.3986346850393701
0
LINE
8
BLACK
6
CONTINUOUS
10
4.7231751574803145
20
-1.3986346850393701
11
4.7253734251968504
21
-1.3800618503937008
0
LINE
8
BLACK
6
CONTINUOUS
10
4.7253734251968504
20
-1.3800618503937008
11
4.7290220866141732
21
-1.3617187007874016
0
LINE
8
BLACK
6
CONTINUOUS
10
4.7290220866141732
20
-1.3617187007874016
11
4.7340987007874018
21
-1.3437183464566929
0
LINE
8
BLACK
6
CONTINUOUS
10
4.7340987007874018
20
-1.3437183464566929
11
4.7405719685039367
21
-1.326171811023622
0
LINE
8
BLACK
6
CONTINUOUS
10
4.7405719685039367
20
-1.326171811023622
11
4.7484019685039369
21
-1.3091872834645668
0
LINE
8
BLACK
6
CONTINUOUS
10
4.7484019685039369
20
-1.3091872834645668
11
4.7575403937007872
21
-1.2928694094488189
0
LINE
8
BLACK
6
CONTINUOUS
10
4.7575403937007872
20
-1.2928694094488189
11
4.7679309448818898
21
-1.2773188188976379
0
LINE
8
BLACK
6
CONTINUOUS
10
4.7679309448818898
20
-1.2773188188976379
11
4.7795095669291339
21
-1.2626314566929133
0
LINE
8
BLACK
6
CONTINUOUS
10
4.7795095669291339
20
-1.2626314566929133
11
4.792204842519685
21
-1.2488977559055119
0
LINE
8
BLACK
6
CONTINUOUS
10
4.792204842519685
20
-1.2488977559055119
11
4.8059385433070867
21
-1.2362024803149605
0
LINE
8
BLACK
6
CONTINUOUS
10
4.8059385433070867
20
-1.2362024803149605
11
4.820625905511811
21
-1.2246238582677165
0
LINE
8
BLACK
6
CONTINUOUS
10
4.820625905511811
20
-1.2246238582677165
11
4.8361764960629916
21
-1.2142333070866143
0
LINE
8
BLACK
6
CONTINUOUS
10
4.8361764960629916
20
-1.2142333070866143
11
4.8524943700787402
21
-1.2050948818897638
0
LINE
8
BLACK
6
CONTINUOUS
10
4.8524943700787402
20
-1.2050948818897638
11
4.8694788976377952
21
-1.1972648818897638
0
LINE
8
BLACK
6
CONTINUOUS
10
4.8694788976377952
20
-1.1972648818897638
11
4.8870254330708658
21
-1.1907916141732284
0
LINE
8
BLACK
6
CONTINUOUS
10
4.8870254330708658
20
-1.1907916141732284
11
4.9050257874015744
21
-1.1857150000000001
0
LINE
8
BLACK
6
CONTINUOUS
10
4.9050257874015744
20
-1.1857150000000001
11
4.9233689370078739
21
-1.1820663385826771
0
LINE
8
BLACK
6
CONTINUOUS
10
4.9233689370078739
20
-1.1820663385826771
11
4.9419417716535428
21
-1.1798680708661418
0
LINE
8
BLACK
6
CONTINUOUS
10
4.9419417716535428
20
-1.1798680708661418
11
4.9606298818897638
21
-1.1791338188976377
0
LINE
8
BLACK
6
CONTINUOUS
10
4.9606298818897638
20
-1.1791338188976377
11
5.5610236220472435
21
-1.1791338976377952
0
LINE
8
BLACK
6
CONTINUOUS
10
6.4753809842519683
20
-1.1798680708661418
11
6.4939538582677168
21
-1.1820662992125983
0
LINE
8
BLACK
6
CONTINUOUS
10
6.4939538582677168
20
-1.1820662992125983
11
6.5122970078740154
21
-1.1857150000000001
0
LINE
8
BLACK
6
CONTINUOUS
10
6.5122970078740154
20
-1.1857150000000001
11
6.5302973228346453
21
-1.1907916141732284
0
LINE
8
BLACK
6
CONTINUOUS
10
6.5302973228346453
20
-1.1907916141732284
11
6.5478438582677168
21
-1.1972648818897638
0
LINE
8
BLACK
6
CONTINUOUS
10
6.5478438582677168
20
-1.1972648818897638
11
6.5648284251968505
21
-1.205094842519685
0
LINE
8
BLACK
6
CONTINUOUS
10
6.5648284251968505
20
-1.205094842519685
11
6.5811462992125982
21
-1.2142333070866143
0
LINE
8
BLACK
6
CONTINUOUS
10
6.5811462992125982
20
-1.2142333070866143
11
6.5966968897637797
21
-1.2246238582677165
0
LINE
8
BLACK
6
CONTINUOUS
10
6.5966968897637797
20
-1.2246238582677165
11
6.6113842913385827
21
-1.236202440944882
0
LINE
8
BLACK
6
CONTINUOUS
10
6.6113842913385827
20
-1.236202440944882
11
6.6251179527559056
21
-1.2488977559055119
0
LINE
8
BLACK
6
CONTINUOUS
10
6.6251179527559056
20
-1.2488977559055119
11
6.6378132283464568
21
-1.2626314173228346
0
LINE
8
BLACK
6
CONTINUOUS
10
6.6378132283464568
20
-1.2626314173228346
11
6.6493918503937008
21
-1.2773188188976379
0
LINE
8
BLACK
6
CONTINUOUS
10
6.6493918503937008
20
-1.2773188188976379
11
6.6597824015748026
21
-1.2928693700787401
0
LINE
8
BLACK
6
CONTINUOUS
10
6.6597824015748026
20
-1.2928693700787401
11
6.6689208661417325
21
-1.3091872440944881
0
LINE
8
BLACK
6
CONTINUOUS
10
6.6689208661417325
20
-1.3091872440944881
11
6.6767508661417319
21
-1.326171811023622
0
LINE
8
BLACK
6
CONTINUOUS
10
6.6767508661417319
20
-1.326171811023622
11
6.6832241338582676
21
-1.3437183464566929
0
LINE
8
BLACK
6
CONTINUOUS
10
6.6832241338582676
20
-1.3437183464566929
11
6.6883007480314962
21
-1.3617186614173229
0
LINE
8
BLACK
6
CONTINUOUS
10
6.6883007480314962
20
-1.3617186614173229
11
6.691949409448819
21
-1.380061811023622
0
LINE
8
BLACK
6
CONTINUOUS
10
6.691949409448819
20
-1.380061811023622
11
6.6941476771653541
21
-1.3986346850393701
0
LINE
8
BLACK
6
CONTINUOUS
10
6.6941476771653541
20
-1.3986346850393701
11
6.6948819291338584
21
-1.4173227952755905
0
LINE
8
BLACK
6
CONTINUOUS
10
6.6948819291338584
20
-1.4173227952755905
11
6.6948818897637796
21
-1.4173227952755905
0
LINE
8
BLACK
6
CONTINUOUS
10
6.6948818897637796
20
-1.4173227952755905
11
6.6948818897637796
21
-4.094488149606299
0
LINE
8
BLACK
6
CONTINUOUS
10
6.6948818897637796
20
-4.094488149606299
11
6.6948818110236221
21
-4.0944883858267715
0
LINE
8
BLACK
6
CONTINUOUS
10
6.6948818110236221
20
-4.0944883858267715
11
6.6941475984251966
21
-4.1131762598425192
0
LINE
8
BLACK
6
CONTINUOUS
10
6.6941475984251966
20
-4.1131762598425192
11
6.6919493700787402
21
-4.1317491338582677
0
LINE
8
BLACK
6
CONTINUOUS
10
6.6919493700787402
20
-4.1317491338582677
11
6.6883006692913387
21
-4.1500922834645673
0
LINE
8
BLACK
6
CONTINUOUS
10
6.6883006692913387
20
-4.1500922834645673
11
6.6832240551181101
21
-4.1680925984251971
0
LINE
8
BLACK
6
CONTINUOUS
10
6.6832240551181101
20
-4.1680925984251971
11
6.6767507874015743
21
-4.1856391338582677
0
LINE
8
BLACK
6
CONTINUOUS
10
6.6767507874015743
20
-4.1856391338582677
11
6.6689208267716538
21
-4.2026237007874014
0
LINE
8
BLACK
6
CONTINUOUS
10
6.6689208267716538
20
-4.2026237007874014
11
6.6597823622047239
21
-4.2189415748031491
0
LINE
8
BLACK
6
CONTINUOUS
10
6.6597823622047239
20
-4.2189415748031491
11
6.6493918110236221
21
-4.2344921259842518
0
LINE
8
BLACK
6
CONTINUOUS
10
6.6493918110236221
20
-4.2344921259842518
11
6.6378131889763781
21
-4.2491795275590549
0
LINE
8
BLACK
6
CONTINUOUS
10
6.6378131889763781
20
-4.2491795275590549
11
6.6251179133858269
21
-4.2629131889763778
0
LINE
8
BLACK
6
CONTINUOUS
10
6.6251179133858269
20
-4.2629131889763778
11
6.611384251968504
21
-4.275608464566929
0
LINE
8
BLACK
6
CONTINUOUS
10
6.611384251968504
20
-4.275608464566929
11
6.5966968503937009
21
-4.287187086614173
0
LINE
8
BLACK
6
CONTINUOUS
10
6.5966968503937009
20
-4.287187086614173
11
6.5811462992125982
21
-4.2975776377952757
0
LINE
8
BLACK
6
CONTINUOUS
10
6.5811462992125982
20
-4.2975776377952757
11
6.5648284251968505
21
-4.3067161023622047
0
LINE
8
BLACK
6
CONTINUOUS
10
6.5648284251968505
20
-4.3067161023622047
11
6.5478438582677168
21
-4.3145460629921262
0
LINE
8
BLACK
6
CONTINUOUS
10
6.5478438582677168
20
-4.3145460629921262
11
6.5302973228346453
21
-4.3210193307086611
0
LINE
8
BLACK
6
CONTINUOUS
10
6.5302973228346453
20
-4.3210193307086611
11
6.5122970078740154
21
-4.3260959448818896
0
LINE
8
BLACK
6
CONTINUOUS
10
6.5122970078740154
20
-4.3260959448818896
11
6.4939538582677168
21
-4.3297446456692912
0
LINE
8
BLACK
6
CONTINUOUS
10
6.4939538582677168
20
-4.3297446456692912
11
6.4753809842519683
21
-4.3319428740157475
0
LINE
8
BLACK
6
CONTINUOUS
10
6.4753809842519683
20
-4.3319428740157475
11
6.4566928740157481
21
-4.3326771259842518
0
LINE
8
BLACK
6
CONTINUOUS
10
6.4566928740157481
20
-4.3326771259842518
11
6.1023622047244093
21
-4.3326771259842518
0
LINE
8
BLACK
6
CONTINUOUS
10
6.1023622047244093
20
-4.3326771259842518
11
6.1016088976377949
21
-4.3325272834645672
0
LINE
8
BLACK
6
CONTINUOUS
10
6.1016088976377949
20
-4.3325272834645672
11
6.1005435433070865
21
-4.3314619291338579
0
LINE
8
BLACK
6
CONTINUOUS
10
6.1005435433070865
20
-4.3314619291338579
11
6.1005435433070865
21
-4.32995531496063
0
LINE
8
BLACK
6
CONTINUOUS
10
6.1005435433070865
20
-4.32995531496063
11
6.1016088976377949
21
-4.3288899606299216
0
LINE
8
BLACK
6
CONTINUOUS
10
6.1016088976377949
20
-4.3288899606299216
11
6.1023622047244093
21
-4.3287401181102361
0
LINE
8
BLACK
6
CONTINUOUS
10
6.1023622047244093
20
-4.3287401181102361
11
6.4566928740157481
21
-4.3287401181102361
0
LINE
8
BLACK
6
CONTINUOUS
10
6.4566928740157481
20
-4.3287401181102361
11
6.4658966535433073
21
-4.3287401181102361
0
LINE
8
BLACK
6
CONTINUOUS
10
6.4658966535433073
20
-4.3287401181102361
11
6.4842474803149601
21
-4.3272959055118108
0
LINE
8
BLACK
6
CONTINUOUS
10
6.4842474803149601
20
-4.3272959055118108
11
6.5024284251968503
21
-4.3244162992125981
0
LINE
8
BLACK
6
CONTINUOUS
10
6.5024284251968503
20
-4.3244162992125981
11
6.5203274015748027
21
-4.3201191732283464
0
LINE
8
BLACK
6
CONTINUOUS
10
6.5203274015748027
20
-4.3201191732283464
11
6.5378340551181102
21
-4.3144309055118111
0
LINE
8
BLACK
6
CONTINUOUS
10
6.5378340551181102
20
-4.3144309055118111
11
6.5548404330708658
21
-4.307386614173228
0
LINE
8
BLACK
6
CONTINUOUS
10
6.5548404330708658
20
-4.307386614173228
11
6.5712416929133859
21
-4.2990297637795276
0
LINE
8
BLACK
6
CONTINUOUS
10
6.5712416929133859
20
-4.2990297637795276
11
6.5869367322834647
21
-4.2894118503937007
0
LINE
8
BLACK
6
CONTINUOUS
10
6.5869367322834647
20
-4.2894118503937007
11
6.6018287795275592
21
-4.2785921259842521
0
LINE
8
BLACK
6
CONTINUOUS
10
6.6018287795275592
20
-4.2785921259842521
11
6.615825984251968
21
-4.266637401574803
0
LINE
8
BLACK
6
CONTINUOUS
10
6.615825984251968
20
-4.266637401574803
11
6.628842125984252
21
-4.2536212598425198
0
LINE
8
BLACK
6
CONTINUOUS
10
6.628842125984252
20
-4.2536212598425198
11
6.6407968503937003
21
-4.2396240551181101
0
LINE
8
BLACK
6
CONTINUOUS
10
6.6407968503937003
20
-4.2396240551181101
11
6.6516165748031497
21
-4.2247320078740156
0
LINE
8
BLACK
6
CONTINUOUS
10
6.6516165748031497
20
-4.2247320078740156
11
6.6612344881889758
21
-4.2090369685039368
0
LINE
8
BLACK
6
CONTINUOUS
10
6.6612344881889758
20
-4.2090369685039368
11
6.6695913385826771
21
-4.1926357086614177
0
LINE
8
BLACK
6
CONTINUOUS
10
6.6695913385826771
20
-4.1926357086614177
11
6.6766356299212593
21
-4.1756293307086612
0
LINE
8
BLACK
6
CONTINUOUS
10
6.6766356299212593
20
-4.1756293307086612
11
6.6823238976377954
21
-4.1581226771653546
0
LINE
8
BLACK
6
CONTINUOUS
10
6.6823238976377954
20
-4.1581226771653546
11
6.6866210236220471
21
-4.1402237007874012
0
LINE
8
BLACK
6
CONTINUOUS
10
6.6866210236220471
20
-4.1402237007874012
11
6.6895006299212598
21
-4.1220427559055119
0
LINE
8
BLACK
6
CONTINUOUS
10
6.6895006299212598
20
-4.1220427559055119
11
6.6909448425196851
21
-4.1036919291338583
0
LINE
8
BLACK
6
CONTINUOUS
10
6.6909448425196851
20
-4.1036919291338583
11
6.6909448425196851
21
-4.094488149606299
0
LINE
8
BLACK
6
CONTINUOUS
10
6.6909448425196851
20
-4.094488149606299
11
6.6909448818897639
21
-4.094487992125984
0
LINE
8
BLACK
6
CONTINUOUS
10
6.6909448818897639
20
-4.094487992125984
11
6.6909448818897639
21
-1.4173229133858267
0
LINE
8
BLACK
6
CONTINUOUS
10
6.6909448818897639
20
-1.4173229133858267
11
6.6909448425196851
21
-1.4173227952755905
0
LINE
8
BLACK
6
CONTINUOUS
10
6.6909448425196851
20
-1.4173227952755905
11
6.6909448818897639
21
-1.4173227952755905
0
LINE
8
BLACK
6
CONTINUOUS
10
6.6909448818897639
20
-1.4173227952755905
11
6.6909449212598426
21
-1.4173225590551182
0
LINE
8
BLACK
6
CONTINUOUS
10
6.6909449212598426
20
-1.4173225590551182
11
6.6909449212598426
21
-1.4081190157480314
0
LINE
8
BLACK
6
CONTINUOUS
10
6.6909449212598426
20
-1.4081190157480314
11
6.6895006692913386
21
-1.389768188976378
0
LINE
8
BLACK
6
CONTINUOUS
10
6.6895006692913386
20
-1.389768188976378
11
6.6866211023622046
21
-1.3715872440944881
0
LINE
8
BLACK
6
CONTINUOUS
10
6.6866211023622046
20
-1.3715872440944881
11
6.6823239370078742
21
-1.3536882677165354
0
LINE
8
BLACK
6
CONTINUOUS
10
6.6823239370078742
20
-1.3536882677165354
11
6.676635669291338
21
-1.3361816141732283
0
LINE
8
BLACK
6
CONTINUOUS
10
6.676635669291338
20
-1.3361816141732283
11
6.6695914173228346
21
-1.3191752362204725
0
LINE
8
BLACK
6
CONTINUOUS
10
6.6695914173228346
20
-1.3191752362204725
11
6.6612345275590545
21
-1.3027739763779527
0
LINE
8
BLACK
6
CONTINUOUS
10
6.6612345275590545
20
-1.3027739763779527
11
6.6516166141732285
21
-1.2870789370078739
0
LINE
8
BLACK
6
CONTINUOUS
10
6.6516166141732285
20
-1.2870789370078739
11
6.640796889763779
21
-1.2721868897637796
0
LINE
8
BLACK
6
CONTINUOUS
10
6.640796889763779
20
-1.2721868897637796
11
6.628842125984252
21
-1.2581896850393701
0
LINE
8
BLACK
6
CONTINUOUS
10
6.628842125984252
20
-1.2581896850393701
11
6.6158260236220467
21
-1.2451735433070865
0
LINE
8
BLACK
6
CONTINUOUS
10
6.6158260236220467
20
-1.2451735433070865
11
6.6018287795275592
21
-1.2332187795275591
0
LINE
8
BLACK
6
CONTINUOUS
10
6.6018287795275592
20
-1.2332187795275591
11
6.5869367322834647
21
-1.2223990944881888
0
LINE
8
BLACK
6
CONTINUOUS
10
6.5869367322834647
20
-1.2223990944881888
11
6.5712416929133859
21
-1.2127811811023621
0
LINE
8
BLACK
6
CONTINUOUS
10
6.5712416929133859
20
-1.2127811811023621
11
6.5548404330708658
21
-1.2044243307086613
0
LINE
8
BLACK
6
CONTINUOUS
10
6.5548404330708658
20
-1.2044243307086613
11
6.5378340551181102
21
-1.1973800393700786
0
LINE
8
BLACK
6
CONTINUOUS
10
6.5378340551181102
20
-1.1973800393700786
11
6.5203274015748027
21
-1.1916917716535433
0
LINE
8
BLACK
6
CONTINUOUS
10
6.5203274015748027
20
-1.1916917716535433
11
6.5024284251968503
21
-1.1873946456692912
0
LINE
8
BLACK
6
CONTINUOUS
10
6.5024284251968503
20
-1.1873946456692912
11
6.4842474803149601
21
-1.1845150393700787
0
LINE
8
BLACK
6
CONTINUOUS
10
6.4842474803149601
20
-1.1845150393700787
11
6.4658966535433073
21
-1.1830708267716534
0
LINE
8
BLACK
6
CONTINUOUS
10
6.4658966535433073
20
-1.1830708267716534
11
6.4566928740157481
21
-1.1830708267716534
0
LINE
8
BLACK
6
CONTINUOUS
10
6.4566928740157481
20
-1.1830708267716534
11
5.856299212598425
21
-1.1830709055118109
0
LINE
8
BLACK
6
CONTINUOUS
10
5.856299212598425
20
-1.1830709055118109
11
5.8555459055118106
21
-1.1829210629921258
0
LINE
8
BLACK
6
CONTINUOUS
10
5.8555459055118106
20
-1.1829210629921258
11
5.8544805511811022
21
-1.1818557086614172
0
LINE
8
BLACK
6
CONTINUOUS
10
5.8544805511811022
20
-1.1818557086614172
11
5.8544805511811022
21
-1.1803490944881889
0
LINE
8
BLACK
6
CONTINUOUS
10
5.8544805511811022
20
-1.1803490944881889
11
5.8555459055118106
21
-1.1792837401574803
0
LINE
8
BLACK
6
CONTINUOUS
10
5.8555459055118106
20
-1.1792837401574803
11
5.856299212598425
21
-1.1791338976377952
0
LINE
8
BLACK
6
CONTINUOUS
10
5.856299212598425
20
-1.1791338976377952
11
6.4566928740157481
21
-1.1791338188976377
0
LINE
8
BLACK
6
CONTINUOUS
10
6.4566928740157481
20
-1.1791338188976377
11
6.4753809842519683
21
-1.1798680708661418
0
LINE
8
BLACK
6
CONTINUOUS
10
5.5653981889763777
20
-1.1745553543307086
11
5.56757062992126
21
-1.1767277952755906
0
LINE
8
BLACK
6
CONTINUOUS
10
5.56757062992126
20
-1.1767277952755906
11
5.5687463385826774
21
-1.1795662204724409
0
LINE
8
BLACK
6
CONTINUOUS
10
5.5687463385826774
20
-1.1795662204724409
11
5.568897637795275
21
-1.1811023622047243
0
LINE
8
BLACK
6
CONTINUOUS
10
5.568897637795275
20
-1.1811023622047243
11
5.568897637795275
21
-1.4173227952755905
0
LINE
8
BLACK
6
CONTINUOUS
10
5.568897637795275
20
-1.4173227952755905
11
5.5687463385826774
21
-1.4188589370078739
0
LINE
8
BLACK
6
CONTINUOUS
10
5.5687463385826774
20
-1.4188589370078739
11
5.56757062992126
21
-1.4216973622047244
0
LINE
8
BLACK
6
CONTINUOUS
10
5.56757062992126
20
-1.4216973622047244
11
5.5653981889763777
21
-1.4238698031496062
0
LINE
8
BLACK
6
CONTINUOUS
10
5.5653981889763777
20
-1.4238698031496062
11
5.562559763779527
21
-1.4250455118110237
0
LINE
8
BLACK
6
CONTINUOUS
10
5.562559763779527
20
-1.4250455118110237
11
5.5610236220472435
21
-1.4251968110236219
0
LINE
8
BLACK
6
CONTINUOUS
10
5.5610236220472435
20
-1.4251968110236219
11
5.3225399606299213
21
-1.4251968110236219
0
LINE
8
BLACK
6
CONTINUOUS
10
5.3225399606299213
20
-1.4251968110236219
11
5.3221520866141727
21
-1.4355640157480314
0
LINE
8
BLACK
6
CONTINUOUS
10
5.3221520866141727
20
-1.4355640157480314
11
5.3201082677165354
21
-1.4537031889763778
0
LINE
8
BLACK
6
CONTINUOUS
10
5.3201082677165354
20
-1.4537031889763778
11
5.3167146456692915
21
-1.471638937007874
0
LINE
8
BLACK
6
CONTINUOUS
10
5.3167146456692915
20
-1.471638937007874
11
5.3119901968503935
21
-1.489270905511811
0
LINE
8
BLACK
6
CONTINUOUS
10
5.3119901968503935
20
-1.489270905511811
11
5.3059612992125986
21
-1.5065005118110235
0
LINE
8
BLACK
6
CONTINUOUS
10
5.3059612992125986
20
-1.5065005118110235
11
5.2986616535433066
21
-1.5232314173228345
0
LINE
8
BLACK
6
CONTINUOUS
10
5.2986616535433066
20
-1.5232314173228345
11
5.290132165354331
21
-1.5393700393700787
0
LINE
8
BLACK
6
CONTINUOUS
10
5.290132165354331
20
-1.5393700393700787
11
5.2804204724409445
21
-1.5548261417322835
0
LINE
8
BLACK
6
CONTINUOUS
10
5.2804204724409445
20
-1.5548261417322835
11
5.2695809055118108
21
-1.5695132283464566
0
LINE
8
BLACK
6
CONTINUOUS
10
5.2695809055118108
20
-1.5695132283464566
11
5.2576740551181098
21
-1.5833492125984252
0
LINE
8
BLACK
6
CONTINUOUS
10
5.2576740551181098
20
-1.5833492125984252
11
5.2447665354330706
21
-1.5962567322834644
0
LINE
8
BLACK
6
CONTINUOUS
10
5.2447665354330706
20
-1.5962567322834644
11
5.2309305511811024
21
-1.6081635826771654
0
LINE
8
BLACK
6
CONTINUOUS
10
5.2309305511811024
20
-1.6081635826771654
11
5.2162434645669293
21
-1.6190031496062991
0
LINE
8
BLACK
6
CONTINUOUS
10
5.2162434645669293
20
-1.6190031496062991
11
5.200787362204724
21
-1.6287148425196849
0
LINE
8
BLACK
6
CONTINUOUS
10
5.200787362204724
20
-1.6287148425196849
11
5.1846487401574803
21
-1.6372443307086615
0
LINE
8
BLACK
6
CONTINUOUS
10
5.1846487401574803
20
-1.6372443307086615
11
5.1679178346456691
21
-1.6445439763779528
0
LINE
8
BLACK
6
CONTINUOUS
10
5.1679178346456691
20
-1.6445439763779528
11
5.150688228346457
21
-1.6505728740157479
0
LINE
8
BLACK
6
CONTINUOUS
10
5.150688228346457
20
-1.6505728740157479
11
5.1330562598425198
21
-1.6552973228346457
0
LINE
8
BLACK
6
CONTINUOUS
10
5.1330562598425198
20
-1.6552973228346457
11
5.1151205118110239
21
-1.6586909448818896
0
LINE
8
BLACK
6
CONTINUOUS
10
5.1151205118110239
20
-1.6586909448818896
11
5.096981338582677
21
-1.6607347637795276
0
LINE
8
BLACK
6
CONTINUOUS
10
5.096981338582677
20
-1.6607347637795276
11
5.0787401181102361
21
-1.6614172834645669
0
LINE
8
BLACK
6
CONTINUOUS
10
5.0787401181102361
20
-1.6614172834645669
11
5.0725493700787396
21
-1.6614172834645669
0
LINE
8
BLACK
6
CONTINUOUS
10
5.0725493700787396
20
-1.6614172834645669
11
5.0602457874015743
21
-1.6628035826771652
0
LINE
8
BLACK
6
CONTINUOUS
10
5.0602457874015743
20
-1.6628035826771652
11
5.0481747244094484
21
-1.6655587007874015
0
LINE
8
BLACK
6
CONTINUOUS
10
5.0481747244094484
20
-1.6655587007874015
11
5.0364880708661417
21
-1.6696480314960629
0
LINE
8
BLACK
6
CONTINUOUS
10
5.0364880708661417
20
-1.6696480314960629
11
5.0253327559055121
21
-1.675020157480315
0
LINE
8
BLACK
6
CONTINUOUS
10
5.0253327559055121
20
-1.675020157480315
11
5.0148490944881887
21
-1.6816075196850393
0
LINE
8
BLACK
6
CONTINUOUS
10
5.0148490944881887
20
-1.6816075196850393
11
5.0051688582677167
21
-1.6893272047244094
0
LINE
8
BLACK
6
CONTINUOUS
10
5.0051688582677167
20
-1.6893272047244094
11
4.9964138188976372
21
-1.698082244094488
0
LINE
8
BLACK
6
CONTINUOUS
10
4.9964138188976372
20
-1.698082244094488
11
4.9886941338582673
21
-1.7077624803149607
0
LINE
8
BLACK
6
CONTINUOUS
10
4.9886941338582673
20
-1.7077624803149607
11
4.9821067716535428
21
-1.7182461417322834
0
LINE
8
BLACK
6
CONTINUOUS
10
4.9821067716535428
20
-1.7182461417322834
11
4.9767346456692909
21
-1.7294014566929135
0
LINE
8
BLACK
6
CONTINUOUS
10
4.9767346456692909
20
-1.7294014566929135
11
4.97264531496063
21
-1.7410881102362203
0
LINE
8
BLACK
6
CONTINUOUS
10
4.97264531496063
20
-1.7410881102362203
11
4.9698901968503932
21
-1.7531591732283465
0
LINE
8
BLACK
6
CONTINUOUS
10
4.9698901968503932
20
-1.7531591732283465
11
4.9685038976377953
21
-1.7654627559055118
0
LINE
8
BLACK
6
CONTINUOUS
10
4.9685038976377953
20
-1.7654627559055118
11
4.9685038976377953
21
-1.7716535039370078
0
LINE
8
BLACK
6
CONTINUOUS
10
4.9685038976377953
20
-1.7716535039370078
11
4.9685038976377953
21
-2.0078739763779527
0
LINE
8
BLACK
6
CONTINUOUS
10
4.9685038976377953
20
-2.0078739763779527
11
4.9685039763779528
21
-2.0078739763779527
0
LINE
8
BLACK
6
CONTINUOUS
10
4.9685039763779528
20
-2.0078739763779527
11
4.9685039763779528
21
-2.0140647244094487
0
LINE
8
BLACK
6
CONTINUOUS
10
4.9685039763779528
20
-2.0140647244094487
11
4.969890236220472
21
-2.0263683070866141
0
LINE
8
BLACK
6
CONTINUOUS
10
4.969890236220472
20
-2.0263683070866141
11
4.9726453937007875
21
-2.03843937007874
0
LINE
8
BLACK
6
CONTINUOUS
10
4.9726453937007875
20
-2.03843937007874
11
4.9767347244094484
21
-2.0501260236220471
0
LINE
8
BLACK
6
CONTINUOUS
10
4.9767347244094484
20
-2.0501260236220471
11
4.9821068110236215
21
-2.0612813385826771
0
LINE
8
BLACK
6
CONTINUOUS
10
4.9821068110236215
20
-2.0612813385826771
11
4.9886941732283461
21
-2.0717650000000001
0
LINE
8
BLACK
6
CONTINUOUS
10
4.9886941732283461
20
-2.0717650000000001
11
4.996413858267716
21
-2.0814452362204725
0
LINE
8
BLACK
6
CONTINUOUS
10
4.996413858267716
20
-2.0814452362204725
11
5.0051688976377955
21
-2.0902002362204724
0
LINE
8
BLACK
6
CONTINUOUS
10
5.0051688976377955
20
-2.0902002362204724
11
5.0148490944881887
21
-2.097919960629921
0
LINE
8
BLACK
6
CONTINUOUS
10
5.0148490944881887
20
-2.097919960629921
11
5.0253327952755908
21
-2.1045073228346456
0
LINE
8
BLACK
6
CONTINUOUS
10
5.0253327952755908
20
-2.1045073228346456
11
5.0364881102362205
21
-2.1098794488188974
0
LINE
8
BLACK
6
CONTINUOUS
10
5.0364881102362205
20
-2.1098794488188974
11
5.0481747637795271
21
-2.1139687795275588
0
LINE
8
BLACK
6
CONTINUOUS
10
5.0481747637795271
20
-2.1139687795275588
11
5.0602457874015743
21
-2.1167238976377951
0
LINE
8
BLACK
6
CONTINUOUS
10
5.0602457874015743
20
-2.1167238976377951
11
5.0725493700787396
21
-2.1181101968503935
0
LINE
8
BLACK
6
CONTINUOUS
10
5.0725493700787396
20
-2.1181101968503935
11
5.0787401181102361
21
-2.1181101968503935
0
LINE
8
BLACK
6
CONTINUOUS
10
5.0787401181102361
20
-2.1181101968503935
11
5.0978915354330709
21
-2.1188626377952757
0
LINE
8
BLACK
6
CONTINUOUS
10
5.0978915354330709
20
-2.1188626377952757
11
5.1169249212598427
21
-2.1211153937007872
0
LINE
8
BLACK
6
CONTINUOUS
10
5.1169249212598427
20
-2.1211153937007872
11
5.1357228740157481
21
-2.1248545275590551
0
LINE
8
BLACK
6
CONTINUOUS
10
5.1357228740157481
20
-2.1248545275590551
11
5.1541694881889759
21
-2.1300570078740155
0
LINE
8
BLACK
6
CONTINUOUS
10
5.1541694881889759
20
-2.1300570078740155
11
5.1721510629921257
21
-2.1366907874015748
0
LINE
8
BLACK
6
CONTINUOUS
10
5.1721510629921257
20
-2.1366907874015748
11
5.1895567322834646
21
-2.1447148818897639
0
LINE
8
BLACK
6
CONTINUOUS
10
5.1895567322834646
20
-2.1447148818897639
11
5.2062791732283467
21
-2.1540799212598425
0
LINE
8
BLACK
6
CONTINUOUS
10
5.2062791732283467
20
-2.1540799212598425
11
5.2222153149606294
21
-2.1647280708661416
0
LINE
8
BLACK
6
CONTINUOUS
10
5.2222153149606294
20
-2.1647280708661416
11
5.2372668503937003
21
-2.1765937795275589
0
LINE
8
BLACK
6
CONTINUOUS
10
5.2372668503937003
20
-2.1765937795275589
11
5.2513410236220475
21
-2.1896038188976377
0
LINE
8
BLACK
6
CONTINUOUS
10
5.2513410236220475
20
-2.1896038188976377
11
5.2643510629921257
21
-2.2036779921259844
0
LINE
8
BLACK
6
CONTINUOUS
10
5.2643510629921257
20
-2.2036779921259844
11
5.2762167716535435
21
-2.2187295669291336
0
LINE
8
BLACK
6
CONTINUOUS
10
5.2762167716535435
20
-2.2187295669291336
11
5.286864960629921
21
-2.2346656692913385
0
LINE
8
BLACK
6
CONTINUOUS
10
5.286864960629921
20
-2.2346656692913385
11
5.2962299606299208
21
-2.2513881102362205
0
LINE
8
BLACK
6
CONTINUOUS
10
5.2962299606299208
20
-2.2513881102362205
11
5.3042540944881891
21
-2.268793779527559
0
LINE
8
BLACK
6
CONTINUOUS
10
5.3042540944881891
20
-2.268793779527559
11
5.3108878346456692
21
-2.2867753543307088
0
LINE
8
BLACK
6
CONTINUOUS
10
5.3108878346456692
20
-2.2867753543307088
11
5.31609031496063
21
-2.305221968503937
0
LINE
8
BLACK
6
CONTINUOUS
10
5.31609031496063
20
-2.305221968503937
11
5.3198294881889758
21
-2.3240199212598425
0
LINE
8
BLACK
6
CONTINUOUS
10
5.3198294881889758
20
-2.3240199212598425
11
5.322082204724409
21
-2.3430532677165354
0
LINE
8
BLACK
6
CONTINUOUS
10
5.322082204724409
20
-2.3430532677165354
11
5.3228346850393695
21
-2.3622047244094486
0
LINE
8
BLACK
6
CONTINUOUS
10
5.3228346850393695
20
-2.3622047244094486
11
5.322082204724409
21
-2.3813561811023622
0
LINE
8
BLACK
6
CONTINUOUS
10
5.322082204724409
20
-2.3813561811023622
11
5.3198294881889758
21
-2.4003895275590552
0
LINE
8
BLACK
6
CONTINUOUS
10
5.3198294881889758
20
-2.4003895275590552
11
5.31609031496063
21
-2.4191874803149607
0
LINE
8
BLACK
6
CONTINUOUS
10
5.31609031496063
20
-2.4191874803149607
11
5.3108878346456692
21
-2.4376340944881889
0
LINE
8
BLACK
6
CONTINUOUS
10
5.3108878346456692
20
-2.4376340944881889
11
5.3042540944881891
21
-2.4556156692913387
0
LINE
8
BLACK
6
CONTINUOUS
10
5.3042540944881891
20
-2.4556156692913387
11
5.2962299606299208
21
-2.4730213385826771
0
LINE
8
BLACK
6
CONTINUOUS
10
5.2962299606299208
20
-2.4730213385826771
11
5.286864960629921
21
-2.4897437795275592
0
LINE
8
BLACK
6
CONTINUOUS
10
5.286864960629921
20
-2.4897437795275592
11
5.2762167716535435
21
-2.5056798818897636
0
LINE
8
BLACK
6
CONTINUOUS
10
5.2762167716535435
20
-2.5056798818897636
11
5.2643510629921257
21
-2.5207314566929133
0
LINE
8
BLACK
6
CONTINUOUS
10
5.2643510629921257
20
-2.5207314566929133
11
5.2513410236220475
21
-2.5348056299212596
0
LINE
8
BLACK
6
CONTINUOUS
10
5.2513410236220475
20
-2.5348056299212596
11
5.2372668503937003
21
-2.5478156692913387
0
LINE
8
BLACK
6
CONTINUOUS
10
5.2372668503937003
20
-2.5478156692913387
11
5.2222153149606294
21
-2.5596813779527556
0
LINE
8
BLACK
6
CONTINUOUS
10
5.2222153149606294
20
-2.5596813779527556
11
5.2062791732283467
21
-2.5703295275590552
0
LINE
8
BLACK
6
CONTINUOUS
10
5.2062791732283467
20
-2.5703295275590552
11
5.1895567322834646
21
-2.5796945669291338
0
LINE
8
BLACK
6
CONTINUOUS
10
5.1895567322834646
20
-2.5796945669291338
11
5.1721510629921257
21
-2.5877186614173229
0
LINE
8
BLACK
6
CONTINUOUS
10
5.1721510629921257
20
-2.5877186614173229
11
5.1541694881889759
21
-2.5943524409448817
0
LINE
8
BLACK
6
CONTINUOUS
10
5.1541694881889759
20
-2.5943524409448817
11
5.1357228740157481
21
-2.5995549212598426
0
LINE
8
BLACK
6
CONTINUOUS
10
5.1357228740157481
20
-2.5995549212598426
11
5.1169249212598427
21
-2.6032940551181101
0
LINE
8
BLACK
6
CONTINUOUS
10
5.1169249212598427
20
-2.6032940551181101
11
5.0978915354330709
21
-2.605546811023622
0
LINE
8
BLACK
6
CONTINUOUS
10
5.0978915354330709
20
-2.605546811023622
11
5.0787401181102361
21
-2.6062992519685038
0
LINE
8
BLACK
6
CONTINUOUS
10
5.0787401181102361
20
-2.6062992519685038
11
5.0787401181102361
21
-2.6062991732283463
0
LINE
8
BLACK
6
CONTINUOUS
10
5.0787401181102361
20
-2.6062991732283463
11
5.0725493700787396
21
-2.6062991732283463
0
LINE
8
BLACK
6
CONTINUOUS
10
5.0725493700787396
20
-2.6062991732283463
11
5.0602457874015743
21
-2.6076854724409446
0
LINE
8
BLACK
6
CONTINUOUS
10
5.0602457874015743
20
-2.6076854724409446
11
5.0481747244094484
21
-2.6104405905511809
0
LINE
8
BLACK
6
CONTINUOUS
10
5.0481747244094484
20
-2.6104405905511809
11
5.0364880708661417
21
-2.6145299212598423
0
LINE
8
BLACK
6
CONTINUOUS
10
5.0364880708661417
20
-2.6145299212598423
11
5.0253327559055121
21
-2.6199020472440946
0
LINE
8
BLACK
6
CONTINUOUS
10
5.0253327559055121
20
-2.6199020472440946
11
5.0148490944881887
21
-2.6264894094488187
0
LINE
8
BLACK
6
CONTINUOUS
10
5.0148490944881887
20
-2.6264894094488187
11
5.0051688582677167
21
-2.6342090944881891
0
LINE
8
BLACK
6
CONTINUOUS
10
5.0051688582677167
20
-2.6342090944881891
11
4.9964138188976372
21
-2.6429641338582677
0
LINE
8
BLACK
6
CONTINUOUS
10
4.9964138188976372
20
-2.6429641338582677
11
4.9886941338582673
21
-2.6526443700787401
0
LINE
8
BLACK
6
CONTINUOUS
10
4.9886941338582673
20
-2.6526443700787401
11
4.9821067716535428
21
-2.663128031496063
0
LINE
8
BLACK
6
CONTINUOUS
10
4.9821067716535428
20
-2.663128031496063
11
4.9767346456692909
21
-2.6742833464566926
0
LINE
8
BLACK
6
CONTINUOUS
10
4.9767346456692909
20
-2.6742833464566926
11
4.97264531496063
21
-2.6859699999999997
0
LINE
8
BLACK
6
CONTINUOUS
10
4.97264531496063
20
-2.6859699999999997
11
4.9698901968503932
21
-2.6980410629921261
0
LINE
8
BLACK
6
CONTINUOUS
10
4.9698901968503932
20
-2.6980410629921261
11
4.9685038976377953
21
-2.7103446456692915
0
LINE
8
BLACK
6
CONTINUOUS
10
4.9685038976377953
20
-2.7103446456692915
11
4.9685038976377953
21
-2.7165353937007874
0
LINE
8
BLACK
6
CONTINUOUS
10
4.9685038976377953
20
-2.7165353937007874
11
4.9685038976377953
21
-3.8506882677165355
0
LINE
8
BLACK
6
CONTINUOUS
10
4.9685038976377953
20
-3.8506882677165355
11
4.9788711023622048
21
-3.8510761811023619
0
LINE
8
BLACK
6
CONTINUOUS
10
4.9788711023622048
20
-3.8510761811023619
11
4.9970102755905508
21
-3.8531200000000001
0
LINE
8
BLACK
6
CONTINUOUS
10
4.9970102755905508
20
-3.8531200000000001
11
5.0149460236220476
21
-3.856513622047244
0
LINE
8
BLACK
6
CONTINUOUS
10
5.0149460236220476
20
-3.856513622047244
11
5.0325779921259839
21
-3.8612380708661416
0
LINE
8
BLACK
6
CONTINUOUS
10
5.0325779921259839
20
-3.8612380708661416
11
5.0498076377952756
21
-3.8672669685039369
0
LINE
8
BLACK
6
CONTINUOUS
10
5.0498076377952756
20
-3.8672669685039369
11
5.0665385433070869
21
-3.8745666141732285
0
LINE
8
BLACK
6
CONTINUOUS
10
5.0665385433070869
20
-3.8745666141732285
11
5.0826771653543306
21
-3.8830961023622046
0
LINE
8
BLACK
6
CONTINUOUS
10
5.0826771653543306
20
-3.8830961023622046
11
5.0981332283464562
21
-3.8928077952755906
0
LINE
8
BLACK
6
CONTINUOUS
10
5.0981332283464562
20
-3.8928077952755906
11
5.1128203543307089
21
-3.9036473622047243
0
LINE
8
BLACK
6
CONTINUOUS
10
5.1128203543307089
20
-3.9036473622047243
11
5.1266563385826771
21
-3.9155542125984253
0
LINE
8
BLACK
6
CONTINUOUS
10
5.1266563385826771
20
-3.9155542125984253
11
5.1395638582677163
21
-3.9284617322834645
0
LINE
8
BLACK
6
CONTINUOUS
10
5.1395638582677163
20
-3.9284617322834645
11
5.1514706692913386
21
-3.9422977165354331
0
LINE
8
BLACK
6
CONTINUOUS
10
5.1514706692913386
20
-3.9422977165354331
11
5.162310275590551
21
-3.9569848031496062
0
LINE
8
BLACK
6
CONTINUOUS
10
5.162310275590551
20
-3.9569848031496062
11
5.1720219685039366
21
-3.9724409055118111
0
LINE
8
BLACK
6
CONTINUOUS
10
5.1720219685039366
20
-3.9724409055118111
11
5.1805514566929132
21
-3.9885794881889765
0
LINE
8
BLACK
6
CONTINUOUS
10
5.1805514566929132
20
-3.9885794881889765
11
5.1878511023622043
21
-4.0053103937007872
0
LINE
8
BLACK
6
CONTINUOUS
10
5.1878511023622043
20
-4.0053103937007872
11
5.1938800000000001
21
-4.022540039370079
0
LINE
8
BLACK
6
CONTINUOUS
10
5.1938800000000001
20
-4.022540039370079
11
5.1986044881889759
21
-4.0401720078740153
0
LINE
8
BLACK
6
CONTINUOUS
10
5.1986044881889759
20
-4.0401720078740153
11
5.2019981102362207
21
-4.0581077559055121
0
LINE
8
BLACK
6
CONTINUOUS
10
5.2019981102362207
20
-4.0581077559055121
11
5.2040418897637792
21
-4.0762469291338581
0
LINE
8
BLACK
6
CONTINUOUS
10
5.2040418897637792
20
-4.0762469291338581
11
5.2044298031496066
21
-4.0866141338582676
0
LINE
8
BLACK
6
CONTINUOUS
10
5.2044298031496066
20
-4.0866141338582676
11
5.3149605905511814
21
-4.0866141338582676
0
LINE
8
BLACK
6
CONTINUOUS
10
5.3149605905511814
20
-4.0866141338582676
11
5.3164967322834649
21
-4.086765433070866
0
LINE
8
BLACK
6
CONTINUOUS
10
5.3164967322834649
20
-4.086765433070866
11
5.3193351574803147
21
-4.0879411417322835
0
LINE
8
BLACK
6
CONTINUOUS
10
5.3193351574803147
20
-4.0879411417322835
11
5.3215075984251969
21
-4.0901135826771648
0
LINE
8
BLACK
6
CONTINUOUS
10
5.3215075984251969
20
-4.0901135826771648
11
5.3226833070866144
21
-4.0929520078740156
0
LINE
8
BLACK
6
CONTINUOUS
10
5.3226833070866144
20
-4.0929520078740156
11
5.3228346062992129
21
-4.094488149606299
0
LINE
8
BLACK
6
CONTINUOUS
10
5.3228346062992129
20
-4.094488149606299
11
5.3228346062992129
21
-4.3307086220472444
0
LINE
8
BLACK
6
CONTINUOUS
10
5.3228346062992129
20
-4.3307086220472444
11
5.3226833070866144
21
-4.3322447637795278
0
LINE
8
BLACK
6
CONTINUOUS
10
5.3226833070866144
20
-4.3322447637795278
11
5.3215075984251969
21
-4.3350831889763777
0
LINE
8
BLACK
6
CONTINUOUS
10
5.3215075984251969
20
-4.3350831889763777
11
5.3193351574803147
21
-4.3372556299212599
0
LINE
8
BLACK
6
CONTINUOUS
10
5.3193351574803147
20
-4.3372556299212599
11
5.3164967322834649
21
-4.3384313385826774
0
LINE
8
BLACK
6
CONTINUOUS
10
5.3164967322834649
20
-4.3384313385826774
11
5.3134244488188971
21
-4.3384313385826774
0
LINE
8
BLACK
6
CONTINUOUS
10
5.3134244488188971
20
-4.3384313385826774
11
5.3105860236220472
21
-4.3372556299212599
0
LINE
8
BLACK
6
CONTINUOUS
10
5.3105860236220472
20
-4.3372556299212599
11
5.308413582677165
21
-4.3350831889763777
0
LINE
8
BLACK
6
CONTINUOUS
10
5.308413582677165
20
-4.3350831889763777
11
5.3072378740157475
21
-4.3322447637795278
0
LINE
8
BLACK
6
CONTINUOUS
10
5.3072378740157475
20
-4.3322447637795278
11
5.307086574803149
21
-4.3307086220472444
0
LINE
8
BLACK
6
CONTINUOUS
10
5.307086574803149
20
-4.3307086220472444
11
5.307086574803149
21
-4.1023621653543305
0
LINE
8
BLACK
6
CONTINUOUS
10
5.307086574803149
20
-4.1023621653543305
11
5.1968503543307083
21
-4.1023621653543305
0
LINE
8
BLACK
6
CONTINUOUS
10
5.1968503543307083
20
-4.1023621653543305
11
5.1953142125984249
21
-4.102210866141732
0
LINE
8
BLACK
6
CONTINUOUS
10
5.1953142125984249
20
-4.102210866141732
11
5.1945977165354327
21
-4.1019140944881887
0
LINE
8
BLACK
6
CONTINUOUS
10
5.1945977165354327
20
-4.1019140944881887
11
5.193837086614173
21
-4.1017627952755902
0
LINE
8
BLACK
6
CONTINUOUS
10
5.193837086614173
20
-4.1017627952755902
11
5.1931922440944884
21
-4.1013319291338579
0
LINE
8
BLACK
6
CONTINUOUS
10
5.1931922440944884
20
-4.1013319291338579
11
5.192475787401575
21
-4.1010351574803146
0
LINE
8
BLACK
6
CONTINUOUS
10
5.192475787401575
20
-4.1010351574803146
11
5.1919273228346459
21
-4.1004866929133854
0
LINE
8
BLACK
6
CONTINUOUS
10
5.1919273228346459
20
-4.1004866929133854
11
5.1912825984251967
21
-4.1000559055118106
0
LINE
8
BLACK
6
CONTINUOUS
10
5.1912825984251967
20
-4.1000559055118106
11
5.1908517716535432
21
-4.0994111417322836
0
LINE
8
BLACK
6
CONTINUOUS
10
5.1908517716535432
20
-4.0994111417322836
11
5.1903033464566928
21
-4.0988627165354332
0
LINE
8
BLACK
6
CONTINUOUS
10
5.1903033464566928
20
-4.0988627165354332
11
5.1900065354330707
21
-4.098146220472441
0
LINE
8
BLACK
6
CONTINUOUS
10
5.1900065354330707
20
-4.098146220472441
11
5.1895757086614172
21
-4.0975014173228343
0
LINE
8
BLACK
6
CONTINUOUS
10
5.1895757086614172
20
-4.0975014173228343
11
5.1894243700787399
21
-4.0967407480314959
0
LINE
8
BLACK
6
CONTINUOUS
10
5.1894243700787399
20
-4.0967407480314959
11
5.1891276377952753
21
-4.0960242913385825
0
LINE
8
BLACK
6
CONTINUOUS
10
5.1891276377952753
20
-4.0960242913385825
11
5.1891276377952753
21
-4.0952487795275587
0
LINE
8
BLACK
6
CONTINUOUS
10
5.1891276377952753
20
-4.0952487795275587
11
5.1889763385826768
21
-4.094488149606299
0
LINE
8
BLACK
6
CONTINUOUS
10
5.1889763385826768
20
-4.094488149606299
11
5.1889764173228343
21
-4.094488149606299
0
LINE
8
BLACK
6
CONTINUOUS
10
5.1889764173228343
20
-4.094488149606299
11
5.1889764173228343
21
-4.0855163779527555
0
LINE
8
BLACK
6
CONTINUOUS
10
5.1889764173228343
20
-4.0855163779527555
11
5.1875685826771649
21
-4.0676281889763777
0
LINE
8
BLACK
6
CONTINUOUS
10
5.1875685826771649
20
-4.0676281889763777
11
5.1847615748031499
21
-4.0499055905511812
0
LINE
8
BLACK
6
CONTINUOUS
10
5.1847615748031499
20
-4.0499055905511812
11
5.1805727559055113
21
-4.032457834645669
0
LINE
8
BLACK
6
CONTINUOUS
10
5.1805727559055113
20
-4.032457834645669
11
5.1750279133858266
21
-4.015392559055118
0
LINE
8
BLACK
6
CONTINUOUS
10
5.1750279133858266
20
-4.015392559055118
11
5.1681612204724408
21
-3.9988149212598425
0
LINE
8
BLACK
6
CONTINUOUS
10
5.1681612204724408
20
-3.9988149212598425
11
5.1600150393700783
21
-3.9828271259842518
0
LINE
8
BLACK
6
CONTINUOUS
10
5.1600150393700783
20
-3.9828271259842518
11
5.1506395669291338
21
-3.9675277559055115
0
LINE
8
BLACK
6
CONTINUOUS
10
5.1506395669291338
20
-3.9675277559055115
11
5.1400926377952754
21
-3.9530111417322833
0
LINE
8
BLACK
6
CONTINUOUS
10
5.1400926377952754
20
-3.9530111417322833
11
5.128439251968504
21
-3.9393668110236217
0
LINE
8
BLACK
6
CONTINUOUS
10
5.128439251968504
20
-3.9393668110236217
11
5.1157512598425194
21
-3.9266788188976376
0
LINE
8
BLACK
6
CONTINUOUS
10
5.1157512598425194
20
-3.9266788188976376
11
5.1021068897637791
21
-3.9150254330708663
0
LINE
8
BLACK
6
CONTINUOUS
10
5.1021068897637791
20
-3.9150254330708663
11
5.0875902755905509
21
-3.9044785039370078
0
LINE
8
BLACK
6
CONTINUOUS
10
5.0875902755905509
20
-3.9044785039370078
11
5.0722909055118111
21
-3.8951030314960629
0
LINE
8
BLACK
6
CONTINUOUS
10
5.0722909055118111
20
-3.8951030314960629
11
5.0563031496062987
21
-3.8869568503937009
0
LINE
8
BLACK
6
CONTINUOUS
10
5.0563031496062987
20
-3.8869568503937009
11
5.0397254724409448
21
-3.8800901968503938
0
LINE
8
BLACK
6
CONTINUOUS
10
5.0397254724409448
20
-3.8800901968503938
11
5.0226601968503939
21
-3.8745453149606299
0
LINE
8
BLACK
6
CONTINUOUS
10
5.0226601968503939
20
-3.8745453149606299
11
5.0052124409448817
21
-3.8703564960629921
0
LINE
8
BLACK
6
CONTINUOUS
10
5.0052124409448817
20
-3.8703564960629921
11
4.9874898425196852
21
-3.867549527559055
0
LINE
8
BLACK
6
CONTINUOUS
10
4.9874898425196852
20
-3.867549527559055
11
4.9696016535433074
21
-3.8661416929133856
0
LINE
8
BLACK
6
CONTINUOUS
10
4.9696016535433074
20
-3.8661416929133856
11
4.9606298818897638
21
-3.8661416929133856
0
LINE
8
BLACK
6
CONTINUOUS
10
4.9606298818897638
20
-3.8661416929133856
11
4.9598692519685041
21
-3.8659903937007871
0
LINE
8
BLACK
6
CONTINUOUS
10
4.9598692519685041
20
-3.8659903937007871
11
4.9590937401574804
21
-3.8659903937007871
0
LINE
8
BLACK
6
CONTINUOUS
10
4.9590937401574804
20
-3.8659903937007871
11
4.9583772440944882
21
-3.8656936220472442
0
LINE
8
BLACK
6
CONTINUOUS
10
4.9583772440944882
20
-3.8656936220472442
11
4.9576166141732285
21
-3.8655423228346457
0
LINE
8
BLACK
6
CONTINUOUS
10
4.9576166141732285
20
-3.8655423228346457
11
4.9569717716535431
21
-3.8651114566929134
0
LINE
8
BLACK
6
CONTINUOUS
10
4.9569717716535431
20
-3.8651114566929134
11
4.9562553149606297
21
-3.8648146850393701
0
LINE
8
BLACK
6
CONTINUOUS
10
4.9562553149606297
20
-3.8648146850393701
11
4.9557068503937005
21
-3.8642662204724409
0
LINE
8
BLACK
6
CONTINUOUS
10
4.9557068503937005
20
-3.8642662204724409
11
4.9550621259842522
21
-3.8638354330708662
0
LINE
8
BLACK
6
CONTINUOUS
10
4.9550621259842522
20
-3.8638354330708662
11
4.9546312992125987
21
-3.8631906692913387
0
LINE
8
BLACK
6
CONTINUOUS
10
4.9546312992125987
20
-3.8631906692913387
11
4.9540828740157483
21
-3.8626422440944883
0
LINE
8
BLACK
6
CONTINUOUS
10
4.9540828740157483
20
-3.8626422440944883
11
4.9537860629921262
21
-3.8619257480314961
0
LINE
8
BLACK
6
CONTINUOUS
10
4.9537860629921262
20
-3.8619257480314961
11
4.9533552362204727
21
-3.8612809448818899
0
LINE
8
BLACK
6
CONTINUOUS
10
4.9533552362204727
20
-3.8612809448818899
11
4.9532038976377954
21
-3.860520275590551
0
LINE
8
BLACK
6
CONTINUOUS
10
4.9532038976377954
20
-3.860520275590551
11
4.9529071653543308
21
-3.8598038188976376
0
LINE
8
BLACK
6
CONTINUOUS
10
4.9529071653543308
20
-3.8598038188976376
11
4.9527558661417324
21
-3.8582676771653541
0
LINE
8
BLACK
6
CONTINUOUS
10
4.9527558661417324
20
-3.8582676771653541
11
4.9527558661417324
21
-2.7165353937007874
0
LINE
8
BLACK
6
CONTINUOUS
10
4.9527558661417324
20
-2.7165353937007874
11
4.953446023622047
21
-2.7033664566929132
0
LINE
8
BLACK
6
CONTINUOUS
10
4.953446023622047
20
-2.7033664566929132
11
4.955508937007874
21
-2.6903418110236221
0
LINE
8
BLACK
6
CONTINUOUS
10
4.955508937007874
20
-2.6903418110236221
11
4.9589219685039367
21
-2.6776041338582677
0
LINE
8
BLACK
6
CONTINUOUS
10
4.9589219685039367
20
-2.6776041338582677
11
4.9636477952755902
21
-2.665292992125984
0
LINE
8
BLACK
6
CONTINUOUS
10
4.9636477952755902
20
-2.665292992125984
11
4.969634566929134
21
-2.6535432677165356
0
LINE
8
BLACK
6
CONTINUOUS
10
4.969634566929134
20
-2.6535432677165356
11
4.9768167322834644
21
-2.6424837007874014
0
LINE
8
BLACK
6
CONTINUOUS
10
4.9768167322834644
20
-2.6424837007874014
11
4.9851155905511808
21
-2.6322354724409447
0
LINE
8
BLACK
6
CONTINUOUS
10
4.9851155905511808
20
-2.6322354724409447
11
4.9944401968503938
21
-2.6229108661417322
0
LINE
8
BLACK
6
CONTINUOUS
10
4.9944401968503938
20
-2.6229108661417322
11
5.00468842519685
21
-2.6146120078740158
0
LINE
8
BLACK
6
CONTINUOUS
10
5.00468842519685
20
-2.6146120078740158
11
5.0157479921259842
21
-2.6074298425196849
0
LINE
8
BLACK
6
CONTINUOUS
10
5.0157479921259842
20
-2.6074298425196849
11
5.0274977165354331
21
-2.6014430708661416
0
LINE
8
BLACK
6
CONTINUOUS
10
5.0274977165354331
20
-2.6014430708661416
11
5.0398088582677163
21
-2.5967172440944881
0
LINE
8
BLACK
6
CONTINUOUS
10
5.0398088582677163
20
-2.5967172440944881
11
5.0525465354330708
21
-2.5933042125984249
0
LINE
8
BLACK
6
CONTINUOUS
10
5.0525465354330708
20
-2.5933042125984249
11
5.0655711811023618
21
-2.5912412992125984
0
LINE
8
BLACK
6
CONTINUOUS
10
5.0655711811023618
20
-2.5912412992125984
11
5.0787401181102361
21
-2.5905511417322833
0
LINE
8
BLACK
6
CONTINUOUS
10
5.0787401181102361
20
-2.5905511417322833
11
5.0787405118110236
21
-2.5905512204724408
0
LINE
8
BLACK
6
CONTINUOUS
10
5.0787405118110236
20
-2.5905512204724408
11
5.0879421653543302
21
-2.5905512204724408
0
LINE
8
BLACK
6
CONTINUOUS
10
5.0879421653543302
20
-2.5905512204724408
11
5.1062865748031498
21
-2.58907031496063
0
LINE
8
BLACK
6
CONTINUOUS
10
5.1062865748031498
20
-2.58907031496063
11
5.1244523622047247
21
-2.5861181102362205
0
LINE
8
BLACK
6
CONTINUOUS
10
5.1244523622047247
20
-2.5861181102362205
11
5.1423216929133861
21
-2.5817137007874016
0
LINE
8
BLACK
6
CONTINUOUS
10
5.1423216929133861
20
-2.5817137007874016
11
5.1597786220472441
21
-2.5758857086614171
0
LINE
8
BLACK
6
CONTINUOUS
10
5.1597786220472441
20
-2.5758857086614171
11
5.1767100393700787
21
-2.568671929133858
0
LINE
8
BLACK
6
CONTINUOUS
10
5.1767100393700787
20
-2.568671929133858
11
5.1930060629921257
21
-2.5601191338582678
0
LINE
8
BLACK
6
CONTINUOUS
10
5.1930060629921257
20
-2.5601191338582678
11
5.208561023622047
21
-2.5502827559055117
0
LINE
8
BLACK
6
CONTINUOUS
10
5.208561023622047
20
-2.5502827559055117
11
5.22327405511811
21
-2.5392266535433072
0
LINE
8
BLACK
6
CONTINUOUS
10
5.22327405511811
20
-2.5392266535433072
11
5.2370497244094487
21
-2.5270224803149604
0
LINE
8
BLACK
6
CONTINUOUS
10
5.2370497244094487
20
-2.5270224803149604
11
5.2497987007874016
21
-2.5137493700787399
0
LINE
8
BLACK
6
CONTINUOUS
10
5.2497987007874016
20
-2.5137493700787399
11
5.2614382677165352
21
-2.4994934645669291
0
LINE
8
BLACK
6
CONTINUOUS
10
5.2614382677165352
20
-2.4994934645669291
11
5.2718929921259843
21
-2.4843472047244095
0
LINE
8
BLACK
6
CONTINUOUS
10
5.2718929921259843
20
-2.4843472047244095
11
5.2810950393700784
21
-2.4684087795275591
0
LINE
8
BLACK
6
CONTINUOUS
10
5.2810950393700784
20
-2.4684087795275591
11
5.2889847637795278
21
-2.4517815748031495
0
LINE
8
BLACK
6
CONTINUOUS
10
5.2889847637795278
20
-2.4517815748031495
11
5.2955109448818893
21
-2.4345734645669292
0
LINE
8
BLACK
6
CONTINUOUS
10
5.2955109448818893
20
-2.4345734645669292
11
5.3006312992125979
21
-2.4168959842519686
0
LINE
8
BLACK
6
CONTINUOUS
10
5.3006312992125979
20
-2.4168959842519686
11
5.3043125984251969
21
-2.3988638188976377
0
LINE
8
BLACK
6
CONTINUOUS
10
5.3043125984251969
20
-2.3988638188976377
11
5.3065309448818896
21
-2.3805938976377954
0
LINE
8
BLACK
6
CONTINUOUS
10
5.3065309448818896
20
-2.3805938976377954
11
5.3072720078740154
21
-2.3622047244094486
0
LINE
8
BLACK
6
CONTINUOUS
10
5.3072720078740154
20
-2.3622047244094486
11
5.3065309448818896
21
-2.3438155511811023
0
LINE
8
BLACK
6
CONTINUOUS
10
5.3065309448818896
20
-2.3438155511811023
11
5.3043125984251969
21
-2.3255456299212596
0
LINE
8
BLACK
6
CONTINUOUS
10
5.3043125984251969
20
-2.3255456299212596
11
5.3006312992125979
21
-2.3075134645669291
0
LINE
8
BLACK
6
CONTINUOUS
10
5.3006312992125979
20
-2.3075134645669291
11
5.2955109448818893
21
-2.2898359842519684
0
LINE
8
BLACK
6
CONTINUOUS
10
5.2955109448818893
20
-2.2898359842519684
11
5.2889847637795278
21
-2.2726278740157482
0
LINE
8
BLACK
6
CONTINUOUS
10
5.2889847637795278
20
-2.2726278740157482
11
5.2810950393700784
21
-2.2560006692913386
0
LINE
8
BLACK
6
CONTINUOUS
10
5.2810950393700784
20
-2.2560006692913386
11
5.2718929921259843
21
-2.2400622440944882
0
LINE
8
BLACK
6
CONTINUOUS
10
5.2718929921259843
20
-2.2400622440944882
11
5.2614382677165352
21
-2.2249159842519686
0
LINE
8
BLACK
6
CONTINUOUS
10
5.2614382677165352
20
-2.2249159842519686
11
5.2497987007874016
21
-2.2106600787401574
0
LINE
8
BLACK
6
CONTINUOUS
10
5.2497987007874016
20
-2.2106600787401574
11
5.2370497244094487
21
-2.1973869685039369
0
LINE
8
BLACK
6
CONTINUOUS
10
5.2370497244094487
20
-2.1973869685039369
11
5.22327405511811
21
-2.1851827952755905
0
LINE
8
BLACK
6
CONTINUOUS
10
5.22327405511811
20
-2.1851827952755905
11
5.208561023622047
21
-2.1741266929133856
0
LINE
8
BLACK
6
CONTINUOUS
10
5.208561023622047
20
-2.1741266929133856
11
5.1930060629921257
21
-2.1642903149606298
0
LINE
8
BLACK
6
CONTINUOUS
10
5.1930060629921257
20
-2.1642903149606298
11
5.1767100393700787
21
-2.1557375196850392
0
LINE
8
BLACK
6
CONTINUOUS
10
5.1767100393700787
20
-2.1557375196850392
11
5.1597786220472441
21
-2.1485237401574802
0
LINE
8
BLACK
6
CONTINUOUS
10
5.1597786220472441
20
-2.1485237401574802
11
5.1423216929133861
21
-2.1426957480314961
0
LINE
8
BLACK
6
CONTINUOUS
10
5.1423216929133861
20
-2.1426957480314961
11
5.1244523622047247
21
-2.1382913385826772
0
LINE
8
BLACK
6
CONTINUOUS
10
5.1244523622047247
20
-2.1382913385826772
11
5.1062865748031498
21
-2.1353391338582677
0
LINE
8
BLACK
6
CONTINUOUS
10
5.1062865748031498
20
-2.1353391338582677
11
5.0879421653543302
21
-2.1338582283464564
0
LINE
8
BLACK
6
CONTINUOUS
10
5.0879421653543302
20
-2.1338582283464564
11
5.0787401181102361
21
-2.1338582283464564
0
LINE
8
BLACK
6
CONTINUOUS
10
5.0787401181102361
20
-2.1338582283464564
11
5.0655711811023618
21
-2.1331680708661418
0
LINE
8
BLACK
6
CONTINUOUS
10
5.0655711811023618
20
-2.1331680708661418
11
5.0525465354330708
21
-2.1311051574803148
0
LINE
8
BLACK
6
CONTINUOUS
10
5.0525465354330708
20
-2.1311051574803148
11
5.0398088582677163
21
-2.1276921259842521
0
LINE
8
BLACK
6
CONTINUOUS
10
5.0398088582677163
20
-2.1276921259842521
11
5.0274977165354331
21
-2.1229662992125982
0
LINE
8
BLACK
6
CONTINUOUS
10
5.0274977165354331
20
-2.1229662992125982
11
5.015748031496063
21
-2.1169795275590553
0
LINE
8
BLACK
6
CONTINUOUS
10
5.015748031496063
20
-2.1169795275590553
11
5.0046884645669287
21
-2.1097973622047244
0
LINE
8
BLACK
6
CONTINUOUS
10
5.0046884645669287
20
-2.1097973622047244
11
4.9944402362204725
21
-2.101498503937008
0
LINE
8
BLACK
6
CONTINUOUS
10
4.9944402362204725
20
-2.101498503937008
11
4.9851156299212596
21
-2.0921738582677163
0
LINE
8
BLACK
6
CONTINUOUS
10
4.9851156299212596
20
-2.0921738582677163
11
4.9768167716535432
21
-2.0819256299212596
0
LINE
8
BLACK
6
CONTINUOUS
10
4.9768167716535432
20
-2.0819256299212596
11
4.9696346062992127
21
-2.0708661023622046
0
LINE
8
BLACK
6
CONTINUOUS
10
4.9696346062992127
20
-2.0708661023622046
11
4.9636478346456689
21
-2.0591163779527557
0
LINE
8
BLACK
6
CONTINUOUS
10
4.9636478346456689
20
-2.0591163779527557
11
4.9589220472440942
21
-2.0468052362204725
0
LINE
8
BLACK
6
CONTINUOUS
10
4.9589220472440942
20
-2.0468052362204725
11
4.9555089763779527
21
-2.034067559055118
0
LINE
8
BLACK
6
CONTINUOUS
10
4.9555089763779527
20
-2.034067559055118
11
4.9534461023622045
21
-2.0210429133858265
0
LINE
8
BLACK
6
CONTINUOUS
10
4.9534461023622045
20
-2.0210429133858265
11
4.9527560236220474
21
-2.0078756692913386
0
LINE
8
BLACK
6
CONTINUOUS
10
4.9527560236220474
20
-2.0078756692913386
11
4.9527558661417324
21
-2.0078739763779527
0
LINE
8
BLACK
6
CONTINUOUS
10
4.9527558661417324
20
-2.0078739763779527
11
4.9527558661417324
21
-1.7716535039370078
0
LINE
8
BLACK
6
CONTINUOUS
10
4.9527558661417324
20
-1.7716535039370078
11
4.953446023622047
21
-1.7584845669291338
0
LINE
8
BLACK
6
CONTINUOUS
10
4.953446023622047
20
-1.7584845669291338
11
4.955508937007874
21
-1.7454599212598425
0
LINE
8
BLACK
6
CONTINUOUS
10
4.955508937007874
20
-1.7454599212598425
11
4.9589219685039367
21
-1.7327222440944881
0
LINE
8
BLACK
6
CONTINUOUS
10
4.9589219685039367
20
-1.7327222440944881
11
4.9636477952755902
21
-1.7204111023622046
0
LINE
8
BLACK
6
CONTINUOUS
10
4.9636477952755902
20
-1.7204111023622046
11
4.969634566929134
21
-1.708661377952756
0
LINE
8
BLACK
6
CONTINUOUS
10
4.969634566929134
20
-1.708661377952756
11
4.9768167322834644
21
-1.697601811023622
0
LINE
8
BLACK
6
CONTINUOUS
10
4.9768167322834644
20
-1.697601811023622
11
4.9851155905511808
21
-1.6873535826771653
0
LINE
8
BLACK
6
CONTINUOUS
10
4.9851155905511808
20
-1.6873535826771653
11
4.9944401968503938
21
-1.6780289763779528
0
LINE
8
BLACK
6
CONTINUOUS
10
4.9944401968503938
20
-1.6780289763779528
11
5.00468842519685
21
-1.6697301181102362
0
LINE
8
BLACK
6
CONTINUOUS
10
5.00468842519685
20
-1.6697301181102362
11
5.0157479921259842
21
-1.6625479527559055
0
LINE
8
BLACK
6
CONTINUOUS
10
5.0157479921259842
20
-1.6625479527559055
11
5.0274977165354331
21
-1.6565611811023622
0
LINE
8
BLACK
6
CONTINUOUS
10
5.0274977165354331
20
-1.6565611811023622
11
5.0398088582677163
21
-1.6518353543307087
0
LINE
8
BLACK
6
CONTINUOUS
10
5.0398088582677163
20
-1.6518353543307087
11
5.0525465354330708
21
-1.6484223228346457
0
LINE
8
BLACK
6
CONTINUOUS
10
5.0525465354330708
20
-1.6484223228346457
11
5.0655711811023618
21
-1.6463594094488188
0
LINE
8
BLACK
6
CONTINUOUS
10
5.0655711811023618
20
-1.6463594094488188
11
5.0787401181102361
21
-1.6456692519685039
0
LINE
8
BLACK
6
CONTINUOUS
10
5.0787401181102361
20
-1.6456692519685039
11
5.0877118897637796
21
-1.6456692519685039
0
LINE
8
BLACK
6
CONTINUOUS
10
5.0877118897637796
20
-1.6456692519685039
11
5.1056000787401574
21
-1.6442614173228347
0
LINE
8
BLACK
6
CONTINUOUS
10
5.1056000787401574
20
-1.6442614173228347
11
5.1233226771653539
21
-1.6414544488188976
0
LINE
8
BLACK
6
CONTINUOUS
10
5.1233226771653539
20
-1.6414544488188976
11
5.1407703937007874
21
-1.6372656299212598
0
LINE
8
BLACK
6
CONTINUOUS
10
5.1407703937007874
20
-1.6372656299212598
11
5.1578357086614171
21
-1.6317207480314959
0
LINE
8
BLACK
6
CONTINUOUS
10
5.1578357086614171
20
-1.6317207480314959
11
5.174413346456693
21
-1.6248540944881888
0
LINE
8
BLACK
6
CONTINUOUS
10
5.174413346456693
20
-1.6248540944881888
11
5.1904011417322833
21
-1.6167079133858266
0
LINE
8
BLACK
6
CONTINUOUS
10
5.1904011417322833
20
-1.6167079133858266
11
5.2057005118110231
21
-1.6073324409448819
0
LINE
8
BLACK
6
CONTINUOUS
10
5.2057005118110231
20
-1.6073324409448819
11
5.2202171259842522
21
-1.5967855118110237
0
LINE
8
BLACK
6
CONTINUOUS
10
5.2202171259842522
20
-1.5967855118110237
11
5.2338614566929129
21
-1.5851321259842519
0
LINE
8
BLACK
6
CONTINUOUS
10
5.2338614566929129
20
-1.5851321259842519
11
5.2465494488188975
21
-1.5724441338582678
0
LINE
8
BLACK
6
CONTINUOUS
10
5.2465494488188975
20
-1.5724441338582678
11
5.2582028346456688
21
-1.5587998031496062
0
LINE
8
BLACK
6
CONTINUOUS
10
5.2582028346456688
20
-1.5587998031496062
11
5.2687497637795273
21
-1.544283188976378
0
LINE
8
BLACK
6
CONTINUOUS
10
5.2687497637795273
20
-1.544283188976378
11
5.2781252362204727
21
-1.5289838188976377
0
LINE
8
BLACK
6
CONTINUOUS
10
5.2781252362204727
20
-1.5289838188976377
11
5.2862714173228342
21
-1.5129960236220472
0
LINE
8
BLACK
6
CONTINUOUS
10
5.2862714173228342
20
-1.5129960236220472
11
5.2931380708661413
21
-1.4964183858267717
0
LINE
8
BLACK
6
CONTINUOUS
10
5.2931380708661413
20
-1.4964183858267717
11
5.2986829527559056
21
-1.4793530708661418
0
LINE
8
BLACK
6
CONTINUOUS
10
5.2986829527559056
20
-1.4793530708661418
11
5.3028717716535434
21
-1.4619053543307086
0
LINE
8
BLACK
6
CONTINUOUS
10
5.3028717716535434
20
-1.4619053543307086
11
5.3056787401574805
21
-1.4441827559055118
0
LINE
8
BLACK
6
CONTINUOUS
10
5.3056787401574805
20
-1.4441827559055118
11
5.307086574803149
21
-1.4262945669291338
0
LINE
8
BLACK
6
CONTINUOUS
10
5.307086574803149
20
-1.4262945669291338
11
5.307086574803149
21
-1.4173227952755905
0
LINE
8
BLACK
6
CONTINUOUS
10
5.307086574803149
20
-1.4173227952755905
11
5.3072379133858263
21
-1.4165619291338583
0
LINE
8
BLACK
6
CONTINUOUS
10
5.3072379133858263
20
-1.4165619291338583
11
5.3072379133858263
21
-1.4157866929133858
0
LINE
8
BLACK
6
CONTINUOUS
10
5.3072379133858263
20
-1.4157866929133858
11
5.3075345669291334
21
-1.4150704330708661
0
LINE
8
BLACK
6
CONTINUOUS
10
5.3075345669291334
20
-1.4150704330708661
11
5.3076859448818894
21
-1.4143095275590551
0
LINE
8
BLACK
6
CONTINUOUS
10
5.3076859448818894
20
-1.4143095275590551
11
5.3081169291338579
21
-1.4136644881889764
0
LINE
8
BLACK
6
CONTINUOUS
10
5.3081169291338579
20
-1.4136644881889764
11
5.3084136220472438
21
-1.4129482677165355
0
LINE
8
BLACK
6
CONTINUOUS
10
5.3084136220472438
20
-1.4129482677165355
11
5.3089618503937004
21
-1.4123999999999999
0
LINE
8
BLACK
6
CONTINUOUS
10
5.3089618503937004
20
-1.4123999999999999
11
5.3093928346456689
21
-1.4117550393700786
0
LINE
8
BLACK
6
CONTINUOUS
10
5.3093928346456689
20
-1.4117550393700786
11
5.3100377952755906
21
-1.4113240551181101
0
LINE
8
BLACK
6
CONTINUOUS
10
5.3100377952755906
20
-1.4113240551181101
11
5.310586062992126
21
-1.4107758267716535
0
LINE
8
BLACK
6
CONTINUOUS
10
5.310586062992126
20
-1.4107758267716535
11
5.3113022834645669
21
-1.4104791338582676
0
LINE
8
BLACK
6
CONTINUOUS
10
5.3113022834645669
20
-1.4104791338582676
11
5.3119473228346452
21
-1.4100481496062991
0
LINE
8
BLACK
6
CONTINUOUS
10
5.3119473228346452
20
-1.4100481496062991
11
5.3127082283464562
21
-1.4098967716535433
0
LINE
8
BLACK
6
CONTINUOUS
10
5.3127082283464562
20
-1.4098967716535433
11
5.3134244881889758
21
-1.4096001181102362
0
LINE
8
BLACK
6
CONTINUOUS
10
5.3134244881889758
20
-1.4096001181102362
11
5.3149601574803151
21
-1.4094488582677165
0
LINE
8
BLACK
6
CONTINUOUS
10
5.3149601574803151
20
-1.4094488582677165
11
5.3149605905511814
21
-1.409448779527559
0
LINE
8
BLACK
6
CONTINUOUS
10
5.3149605905511814
20
-1.409448779527559
11
5.3149607874015743
21
-1.409448779527559
0
LINE
8
BLACK
6
CONTINUOUS
10
5.3149607874015743
20
-1.409448779527559
11
5.5531496062992121
21
-1.409448779527559
0
LINE
8
BLACK
6
CONTINUOUS
10
5.5531496062992121
20
-1.409448779527559
11
5.5531496062992121
21
-1.1811023622047243
0
LINE
8
BLACK
6
CONTINUOUS
10
5.5531496062992121
20
-1.1811023622047243
11
5.5533009055118105
21
-1.1795662204724409
0
LINE
8
BLACK
6
CONTINUOUS
10
5.5533009055118105
20
-1.1795662204724409
11
5.554476614173228
21
-1.1767277952755906
0
LINE
8
BLACK
6
CONTINUOUS
10
5.554476614173228
20
-1.1767277952755906
11
5.5566490551181102
21
-1.1745553543307086
0
LINE
8
BLACK
6
CONTINUOUS
10
5.5566490551181102
20
-1.1745553543307086
11
5.5594874803149601
21
-1.1733796456692913
0
LINE
8
BLACK
6
CONTINUOUS
10
5.5594874803149601
20
-1.1733796456692913
11
5.562559763779527
21
-1.1733796456692913
0
LINE
8
BLACK
6
CONTINUOUS
10
5.562559763779527
20
-1.1733796456692913
11
5.5653981889763777
21
-1.1745553543307086
0
LINE
8
BLACK
6
CONTINUOUS
10
5.8606737795275592
20
-1.1745553543307086
11
5.8628462204724405
21
-1.1767277952755906
0
LINE
8
BLACK
6
CONTINUOUS
10
5.8628462204724405
20
-1.1767277952755906
11
5.864021929133858
21
-1.1795662204724409
0
LINE
8
BLACK
6
CONTINUOUS
10
5.864021929133858
20
-1.1795662204724409
11
5.8641732283464565
21
-1.1811023622047243
0
LINE
8
BLACK
6
CONTINUOUS
10
5.8641732283464565
20
-1.1811023622047243
11
5.8641732283464565
21
-1.409448779527559
0
LINE
8
BLACK
6
CONTINUOUS
10
5.8641732283464565
20
-1.409448779527559
11
6.1023621653543305
21
-1.409448779527559
0
LINE
8
BLACK
6
CONTINUOUS
10
6.1023621653543305
20
-1.409448779527559
11
6.103898307086614
21
-1.4096000787401575
0
LINE
8
BLACK
6
CONTINUOUS
10
6.103898307086614
20
-1.4096000787401575
11
6.1046147637795274
21
-1.4098968110236221
0
LINE
8
BLACK
6
CONTINUOUS
10
6.1046147637795274
20
-1.4098968110236221
11
6.1053754330708658
21
-1.4100481496062991
0
LINE
8
BLACK
6
CONTINUOUS
10
6.1053754330708658
20
-1.4100481496062991
11
6.1060202362204725
21
-1.4104789763779528
0
LINE
8
BLACK
6
CONTINUOUS
10
6.1060202362204725
20
-1.4104789763779528
11
6.1067367322834647
21
-1.4107757874015747
0
LINE
8
BLACK
6
CONTINUOUS
10
6.1067367322834647
20
-1.4107757874015747
11
6.1072851574803151
21
-1.4113242125984251
0
LINE
8
BLACK
6
CONTINUOUS
10
6.1072851574803151
20
-1.4113242125984251
11
6.1079299212598421
21
-1.4117550393700786
0
LINE
8
BLACK
6
CONTINUOUS
10
6.1079299212598421
20
-1.4117550393700786
11
6.1083607086614169
21
-1.4123997637795276
0
LINE
8
BLACK
6
CONTINUOUS
10
6.1083607086614169
20
-1.4123997637795276
11
6.108909173228346
21
-1.4129482283464567
0
LINE
8
BLACK
6
CONTINUOUS
10
6.108909173228346
20
-1.4129482283464567
11
6.1092059448818894
21
-1.4136646850393702
0
LINE
8
BLACK
6
CONTINUOUS
10
6.1092059448818894
20
-1.4136646850393702
11
6.1096368110236217
21
-1.4143095275590551
0
LINE
8
BLACK
6
CONTINUOUS
10
6.1096368110236217
20
-1.4143095275590551
11
6.1097881102362201
21
-1.4150701574803148
0
LINE
8
BLACK
6
CONTINUOUS
10
6.1097881102362201
20
-1.4150701574803148
11
6.1100848818897635
21
-1.415786653543307
0
LINE
8
BLACK
6
CONTINUOUS
10
6.1100848818897635
20
-1.415786653543307
11
6.1100848818897635
21
-1.416562125984252
0
LINE
8
BLACK
6
CONTINUOUS
10
6.1100848818897635
20
-1.416562125984252
11
6.110236181102362
21
-1.4173227952755905
0
LINE
8
BLACK
6
CONTINUOUS
10
6.110236181102362
20
-1.4173227952755905
11
6.1102362598425195
21
-1.4173227952755905
0
LINE
8
BLACK
6
CONTINUOUS
10
6.1102362598425195
20
-1.4173227952755905
11
6.1102362598425195
21
-1.4262945669291338
0
LINE
8
BLACK
6
CONTINUOUS
10
6.1102362598425195
20
-1.4262945669291338
11
6.1116440944881889
21
-1.4441827559055118
0
LINE
8
BLACK
6
CONTINUOUS
10
6.1116440944881889
20
-1.4441827559055118
11
6.114451062992126
21
-1.4619053543307086
0
LINE
8
BLACK
6
CONTINUOUS
10
6.114451062992126
20
-1.4619053543307086
11
6.1186398818897638
21
-1.4793530708661418
0
LINE
8
BLACK
6
CONTINUOUS
10
6.1186398818897638
20
-1.4793530708661418
11
6.1241847244094485
21
-1.4964183858267717
0
LINE
8
BLACK
6
CONTINUOUS
10
6.1241847244094485
20
-1.4964183858267717
11
6.1310514173228343
21
-1.5129960236220472
0
LINE
8
BLACK
6
CONTINUOUS
10
6.1310514173228343
20
-1.5129960236220472
11
6.1391975984251967
21
-1.5289837795275589
0
LINE
8
BLACK
6
CONTINUOUS
10
6.1391975984251967
20
-1.5289837795275589
11
6.1485730708661412
21
-1.5442831496062992
0
LINE
8
BLACK
6
CONTINUOUS
10
6.1485730708661412
20
-1.5442831496062992
11
6.1591199999999997
21
-1.5587997637795274
0
LINE
8
BLACK
6
CONTINUOUS
10
6.1591199999999997
20
-1.5587997637795274
11
6.1707733464566932
21
-1.5724441338582678
0
LINE
8
BLACK
6
CONTINUOUS
10
6.1707733464566932
20
-1.5724441338582678
11
6.1834613385826769
21
-1.5851320866141732
0
LINE
8
BLACK
6
CONTINUOUS
10
6.1834613385826769
20
-1.5851320866141732
11
6.1971057086614172
21
-1.5967854724409449
0
LINE
8
BLACK
6
CONTINUOUS
10
6.1971057086614172
20
-1.5967854724409449
11
6.2116222834645667
21
-1.6073324015748032
0
LINE
8
BLACK
6
CONTINUOUS
10
6.2116222834645667
20
-1.6073324015748032
11
6.2269216535433065
21
-1.6167078740157479
0
LINE
8
BLACK
6
CONTINUOUS
10
6.2269216535433065
20
-1.6167078740157479
11
6.2429094488188976
21
-1.6248540551181101
0
LINE
8
BLACK
6
CONTINUOUS
10
6.2429094488188976
20
-1.6248540551181101
11
6.2594870866141727
21
-1.6317207480314959
0
LINE
8
BLACK
6
CONTINUOUS
10
6.2594870866141727
20
-1.6317207480314959
11
6.2765523622047246
21
-1.637265590551181
0
LINE
8
BLACK
6
CONTINUOUS
10
6.2765523622047246
20
-1.637265590551181
11
6.2940000787401571
21
-1.6414544094488188
0
LINE
8
BLACK
6
CONTINUOUS
10
6.2940000787401571
20
-1.6414544094488188
11
6.3117226771653545
21
-1.6442614173228347
0
LINE
8
BLACK
6
CONTINUOUS
10
6.3117226771653545
20
-1.6442614173228347
11
6.3296108661417323
21
-1.6456692519685039
0
LINE
8
BLACK
6
CONTINUOUS
10
6.3296108661417323
20
-1.6456692519685039
11
6.3385826377952759
21
-1.6456692519685039
0
LINE
8
BLACK
6
CONTINUOUS
10
6.3385826377952759
20
-1.6456692519685039
11
6.3517515748031492
21
-1.6463594094488188
0
LINE
8
BLACK
6
CONTINUOUS
10
6.3517515748031492
20
-1.6463594094488188
11
6.3647762598425199
21
-1.648422283464567
0
LINE
8
BLACK
6
CONTINUOUS
10
6.3647762598425199
20
-1.648422283464567
11
6.3775139370078735
21
-1.6518353543307087
0
LINE
8
BLACK
6
CONTINUOUS
10
6.3775139370078735
20
-1.6518353543307087
11
6.3898250787401576
21
-1.6565611417322834
0
LINE
8
BLACK
6
CONTINUOUS
10
6.3898250787401576
20
-1.6565611417322834
11
6.4015748031496065
21
-1.6625479133858267
0
LINE
8
BLACK
6
CONTINUOUS
10
6.4015748031496065
20
-1.6625479133858267
11
6.4126343700787398
21
-1.6697300787401574
0
LINE
8
BLACK
6
CONTINUOUS
10
6.4126343700787398
20
-1.6697300787401574
11
6.4228825984251969
21
-1.678028937007874
0
LINE
8
BLACK
6
CONTINUOUS
10
6.4228825984251969
20
-1.678028937007874
11
6.432207204724409
21
-1.6873535826771653
0
LINE
8
BLACK
6
CONTINUOUS
10
6.432207204724409
20
-1.6873535826771653
11
6.440506102362205
21
-1.697601811023622
0
LINE
8
BLACK
6
CONTINUOUS
10
6.440506102362205
20
-1.697601811023622
11
6.4476882677165355
21
-1.708661377952756
0
LINE
8
BLACK
6
CONTINUOUS
10
6.4476882677165355
20
-1.708661377952756
11
6.4536750393700784
21
-1.7204110629921259
0
LINE
8
BLACK
6
CONTINUOUS
10
6.4536750393700784
20
-1.7204110629921259
11
6.4584008267716531
21
-1.7327222047244093
0
LINE
8
BLACK
6
CONTINUOUS
10
6.4584008267716531
20
-1.7327222047244093
11
6.4618138976377955
21
-1.7454598818897638
0
LINE
8
BLACK
6
CONTINUOUS
10
6.4618138976377955
20
-1.7454598818897638
11
6.4638768110236215
21
-1.7584845669291338
0
LINE
8
BLACK
6
CONTINUOUS
10
6.4638768110236215
20
-1.7584845669291338
11
6.4645669685039371
21
-1.7716535039370078
0
LINE
8
BLACK
6
CONTINUOUS
10
6.4645669685039371
20
-1.7716535039370078
11
6.4645668897637796
21
-1.7716535039370078
0
LINE
8
BLACK
6
CONTINUOUS
10
6.4645668897637796
20
-1.7716535039370078
11
6.4645668897637796
21
-2.0078739763779527
0
LINE
8
BLACK
6
CONTINUOUS
10
6.4645668897637796
20
-2.0078739763779527
11
6.463876732283464
21
-2.0210429133858265
0
LINE
8
BLACK
6
CONTINUOUS
10
6.463876732283464
20
-2.0210429133858265
11
6.4618138582677167
21
-2.034067559055118
0
LINE
8
BLACK
6
CONTINUOUS
10
6.4618138582677167
20
-2.034067559055118
11
6.4584007874015743
21
-2.0468052362204725
0
LINE
8
BLACK
6
CONTINUOUS
10
6.4584007874015743
20
-2.0468052362204725
11
6.4536749999999996
21
-2.0591163779527557
0
LINE
8
BLACK
6
CONTINUOUS
10
6.4536749999999996
20
-2.0591163779527557
11
6.4476882283464567
21
-2.0708661023622046
0
LINE
8
BLACK
6
CONTINUOUS
10
6.4476882283464567
20
-2.0708661023622046
11
6.4405060629921262
21
-2.0819256692913384
0
LINE
8
BLACK
6
CONTINUOUS
10
6.4405060629921262
20
-2.0819256692913384
11
6.432207204724409
21
-2.092173897637795
0
LINE
8
BLACK
6
CONTINUOUS
10
6.432207204724409
20
-2.092173897637795
11
6.4228825590551182
21
-2.1014985433070867
0
LINE
8
BLACK
6
CONTINUOUS
10
6.4228825590551182
20
-2.1014985433070867
11
6.4126343307086611
21
-2.1097974015748031
0
LINE
8
BLACK
6
CONTINUOUS
10
6.4126343307086611
20
-2.1097974015748031
11
6.4015747637795277
21
-2.116979566929134
0
LINE
8
BLACK
6
CONTINUOUS
10
6.4015747637795277
20
-2.116979566929134
11
6.3898250393700788
21
-2.1229663385826769
0
LINE
8
BLACK
6
CONTINUOUS
10
6.3898250393700788
20
-2.1229663385826769
11
6.3775138976377947
21
-2.1276921259842521
0
LINE
8
BLACK
6
CONTINUOUS
10
6.3775138976377947
20
-2.1276921259842521
11
6.3647762204724412
21
-2.1311051968503936
0
LINE
8
BLACK
6
CONTINUOUS
10
6.3647762204724412
20
-2.1311051968503936
11
6.3517515748031492
21
-2.1331680708661418
0
LINE
8
BLACK
6
CONTINUOUS
10
6.3517515748031492
20
-2.1331680708661418
11
6.3385826377952759
21
-2.1338582283464564
0
LINE
8
BLACK
6
CONTINUOUS
10
6.3385826377952759
20
-2.1338582283464564
11
6.3385826377952759
21
-2.1338583070866139
0
LINE
8
BLACK
6
CONTINUOUS
10
6.3385826377952759
20
-2.1338583070866139
11
6.3293805905511809
21
-2.1338583070866139
0
LINE
8
BLACK
6
CONTINUOUS
10
6.3293805905511809
20
-2.1338583070866139
11
6.3110361811023621
21
-2.1353392125984252
0
LINE
8
BLACK
6
CONTINUOUS
10
6.3110361811023621
20
-2.1353392125984252
11
6.292870433070866
21
-2.1382914566929134
0
LINE
8
BLACK
6
CONTINUOUS
10
6.292870433070866
20
-2.1382914566929134
11
6.2750011023622045
21
-2.1426958267716536
0
LINE
8
BLACK
6
CONTINUOUS
10
6.2750011023622045
20
-2.1426958267716536
11
6.2575441732283466
21
-2.1485238188976377
0
LINE
8
BLACK
6
CONTINUOUS
10
6.2575441732283466
20
-2.1485238188976377
11
6.2406127952755908
21
-2.1557375984251967
0
LINE
8
BLACK
6
CONTINUOUS
10
6.2406127952755908
20
-2.1557375984251967
11
6.2243167716535428
21
-2.1642904330708661
0
LINE
8
BLACK
6
CONTINUOUS
10
6.2243167716535428
20
-2.1642904330708661
11
6.2087618110236216
21
-2.1741267716535431
0
LINE
8
BLACK
6
CONTINUOUS
10
6.2087618110236216
20
-2.1741267716535431
11
6.1940487795275585
21
-2.1851829133858267
0
LINE
8
BLACK
6
CONTINUOUS
10
6.1940487795275585
20
-2.1851829133858267
11
6.1802731496062995
21
-2.1973870472440944
0
LINE
8
BLACK
6
CONTINUOUS
10
6.1802731496062995
20
-2.1973870472440944
11
6.1675241732283466
21
-2.2106601574803149
0
LINE
8
BLACK
6
CONTINUOUS
10
6.1675241732283466
20
-2.2106601574803149
11
6.1558846062992121
21
-2.2249160236220473
0
LINE
8
BLACK
6
CONTINUOUS
10
6.1558846062992121
20
-2.2249160236220473
11
6.1454298818897639
21
-2.2400623228346457
0
LINE
8
BLACK
6
CONTINUOUS
10
6.1454298818897639
20
-2.2400623228346457
11
6.1362278346456689
21
-2.2560007086614173
0
LINE
8
BLACK
6
CONTINUOUS
10
6.1362278346456689
20
-2.2560007086614173
11
6.1283381496062992
21
-2.2726279133858269
0
LINE
8
BLACK
6
CONTINUOUS
10
6.1283381496062992
20
-2.2726279133858269
11
6.1218119685039367
21
-2.2898360236220472
0
LINE
8
BLACK
6
CONTINUOUS
10
6.1218119685039367
20
-2.2898360236220472
11
6.1166916141732282
21
-2.3075135039370078
0
LINE
8
BLACK
6
CONTINUOUS
10
6.1166916141732282
20
-2.3075135039370078
11
6.1130103149606301
21
-2.3255456692913383
0
LINE
8
BLACK
6
CONTINUOUS
10
6.1130103149606301
20
-2.3255456692913383
11
6.1107919685039365
21
-2.3438155511811023
0
LINE
8
BLACK
6
CONTINUOUS
10
6.1107919685039365
20
-2.3438155511811023
11
6.1100509055118106
21
-2.3622047244094486
0
LINE
8
BLACK
6
CONTINUOUS
10
6.1100509055118106
20
-2.3622047244094486
11
6.1107919685039365
21
-2.3805938976377954
0
LINE
8
BLACK
6
CONTINUOUS
10
6.1107919685039365
20
-2.3805938976377954
11
6.1130103149606301
21
-2.3988637795275589
0
LINE
8
BLACK
6
CONTINUOUS
10
6.1130103149606301
20
-2.3988637795275589
11
6.1166916141732282
21
-2.4168959448818899
0
LINE
8
BLACK
6
CONTINUOUS
10
6.1166916141732282
20
-2.4168959448818899
11
6.1218119685039367
21
-2.4345734251968505
0
LINE
8
BLACK
6
CONTINUOUS
10
6.1218119685039367
20
-2.4345734251968505
11
6.1283381496062992
21
-2.4517815354330708
0
LINE
8
BLACK
6
CONTINUOUS
10
6.1283381496062992
20
-2.4517815354330708
11
6.1362278346456689
21
-2.4684087401574804
0
LINE
8
BLACK
6
CONTINUOUS
10
6.1362278346456689
20
-2.4684087401574804
11
6.1454298818897639
21
-2.484347125984252
0
LINE
8
BLACK
6
CONTINUOUS
10
6.1454298818897639
20
-2.484347125984252
11
6.1558846062992121
21
-2.4994934251968504
0
LINE
8
BLACK
6
CONTINUOUS
10
6.1558846062992121
20
-2.4994934251968504
11
6.1675241732283466
21
-2.5137492913385828
0
LINE
8
BLACK
6
CONTINUOUS
10
6.1675241732283466
20
-2.5137492913385828
11
6.1802731496062995
21
-2.5270224015748033
0
LINE
8
BLACK
6
CONTINUOUS
10
6.1802731496062995
20
-2.5270224015748033
11
6.1940487795275585
21
-2.539226535433071
0
LINE
8
BLACK
6
CONTINUOUS
10
6.1940487795275585
20
-2.539226535433071
11
6.2087618110236216
21
-2.5502826771653542
0
LINE
8
BLACK
6
CONTINUOUS
10
6.2087618110236216
20
-2.5502826771653542
11
6.2243167716535428
21
-2.5601190157480316
0
LINE
8
BLACK
6
CONTINUOUS
10
6.2243167716535428
20
-2.5601190157480316
11
6.2406127952755908
21
-2.5686718503937009
0
LINE
8
BLACK
6
CONTINUOUS
10
6.2406127952755908
20
-2.5686718503937009
11
6.2575441732283466
21
-2.5758856299212596
0
LINE
8
BLACK
6
CONTINUOUS
10
6.2575441732283466
20
-2.5758856299212596
11
6.2750011023622045
21
-2.5817136220472441
0
LINE
8
BLACK
6
CONTINUOUS
10
6.2750011023622045
20
-2.5817136220472441
11
6.292870433070866
21
-2.5861179921259843
0
LINE
8
BLACK
6
CONTINUOUS
10
6.292870433070866
20
-2.5861179921259843
11
6.3110361811023621
21
-2.5890702362204725
0
LINE
8
BLACK
6
CONTINUOUS
10
6.3110361811023621
20
-2.5890702362204725
11
6.3293805905511809
21
-2.5905511417322833
0
LINE
8
BLACK
6
CONTINUOUS
10
6.3293805905511809
20
-2.5905511417322833
11
6.3385826377952759
21
-2.5905511417322833
0
LINE
8
BLACK
6
CONTINUOUS
10
6.3385826377952759
20
-2.5905511417322833
11
6.3517515748031492
21
-2.5912412992125984
0
LINE
8
BLACK
6
CONTINUOUS
10
6.3517515748031492
20
-2.5912412992125984
11
6.3647762598425199
21
-2.5933041732283466
0
LINE
8
BLACK
6
CONTINUOUS
10
6.3647762598425199
20
-2.5933041732283466
11
6.3775139370078735
21
-2.5967172440944881
0
LINE
8
BLACK
6
CONTINUOUS
10
6.3775139370078735
20
-2.5967172440944881
11
6.3898250787401576
21
-2.6014430314960628
0
LINE
8
BLACK
6
CONTINUOUS
10
6.3898250787401576
20
-2.6014430314960628
11
6.4015748031496065
21
-2.6074298031496062
0
LINE
8
BLACK
6
CONTINUOUS
10
6.4015748031496065
20
-2.6074298031496062
11
6.4126343700787398
21
-2.6146119685039371
0
LINE
8
BLACK
6
CONTINUOUS
10
6.4126343700787398
20
-2.6146119685039371
11
6.4228825984251969
21
-2.6229108267716534
0
LINE
8
BLACK
6
CONTINUOUS
10
6.4228825984251969
20
-2.6229108267716534
11
6.432207204724409
21
-2.6322354724409447
0
LINE
8
BLACK
6
CONTINUOUS
10
6.432207204724409
20
-2.6322354724409447
11
6.440506102362205
21
-2.6424837007874014
0
LINE
8
BLACK
6
CONTINUOUS
10
6.440506102362205
20
-2.6424837007874014
11
6.4476882677165355
21
-2.6535432677165356
0
LINE
8
BLACK
6
CONTINUOUS
10
6.4476882677165355
20
-2.6535432677165356
11
6.4536750393700784
21
-2.6652929527559053
0
LINE
8
BLACK
6
CONTINUOUS
10
6.4536750393700784
20
-2.6652929527559053
11
6.4584008267716531
21
-2.6776040944881889
0
LINE
8
BLACK
6
CONTINUOUS
10
6.4584008267716531
20
-2.6776040944881889
11
6.4618138976377955
21
-2.6903417716535434
0
LINE
8
BLACK
6
CONTINUOUS
10
6.4618138976377955
20
-2.6903417716535434
11
6.4638768110236215
21
-2.7033664566929132
0
LINE
8
BLACK
6
CONTINUOUS
10
6.4638768110236215
20
-2.7033664566929132
11
6.4645669685039371
21
-2.7165353937007874
0
LINE
8
BLACK
6
CONTINUOUS
10
6.4645669685039371
20
-2.7165353937007874
11
6.4645668897637796
21
-2.7165353937007874
0
LINE
8
BLACK
6
CONTINUOUS
10
6.4645668897637796
20
-2.7165353937007874
11
6.4645668897637796
21
-3.8582676771653541
0
LINE
8
BLACK
6
CONTINUOUS
10
6.4645668897637796
20
-3.8582676771653541
11
6.4644155905511811
21
-3.8598038188976376
0
LINE
8
BLACK
6
CONTINUOUS
10
6.4644155905511811
20
-3.8598038188976376
11
6.4641188188976377
21
-3.860520275590551
0
LINE
8
BLACK
6
CONTINUOUS
10
6.4641188188976377
20
-3.860520275590551
11
6.4639675196850392
21
-3.8612809448818899
0
LINE
8
BLACK
6
CONTINUOUS
10
6.4639675196850392
20
-3.8612809448818899
11
6.463536653543307
21
-3.8619257480314961
0
LINE
8
BLACK
6
CONTINUOUS
10
6.463536653543307
20
-3.8619257480314961
11
6.4632398818897636
21
-3.8626422440944883
0
LINE
8
BLACK
6
CONTINUOUS
10
6.4632398818897636
20
-3.8626422440944883
11
6.4626914173228345
21
-3.8631906692913387
0
LINE
8
BLACK
6
CONTINUOUS
10
6.4626914173228345
20
-3.8631906692913387
11
6.4622606299212597
21
-3.8638354330708662
0
LINE
8
BLACK
6
CONTINUOUS
10
6.4622606299212597
20
-3.8638354330708662
11
6.4616158661417318
21
-3.8642662204724409
0
LINE
8
BLACK
6
CONTINUOUS
10
6.4616158661417318
20
-3.8642662204724409
11
6.4610674409448814
21
-3.8648146850393701
0
LINE
8
BLACK
6
CONTINUOUS
10
6.4610674409448814
20
-3.8648146850393701
11
6.4603509448818892
21
-3.8651114566929134
0
LINE
8
BLACK
6
CONTINUOUS
10
6.4603509448818892
20
-3.8651114566929134
11
6.4597061417322834
21
-3.8655423228346457
0
LINE
8
BLACK
6
CONTINUOUS
10
6.4597061417322834
20
-3.8655423228346457
11
6.458945472440945
21
-3.8656936220472442
0
LINE
8
BLACK
6
CONTINUOUS
10
6.458945472440945
20
-3.8656936220472442
11
6.4582290157480315
21
-3.8659903937007871
0
LINE
8
BLACK
6
CONTINUOUS
10
6.4582290157480315
20
-3.8659903937007871
11
6.4574535039370078
21
-3.8659903937007871
0
LINE
8
BLACK
6
CONTINUOUS
10
6.4574535039370078
20
-3.8659903937007871
11
6.4566928740157481
21
-3.8661416929133856
0
LINE
8
BLACK
6
CONTINUOUS
10
6.4566928740157481
20
-3.8661416929133856
11
6.4477211023622045
21
-3.8661416929133856
0
LINE
8
BLACK
6
CONTINUOUS
10
6.4477211023622045
20
-3.8661416929133856
11
6.4298329133858267
21
-3.867549527559055
0
LINE
8
BLACK
6
CONTINUOUS
10
6.4298329133858267
20
-3.867549527559055
11
6.4121103149606293
21
-3.8703565354330709
0
LINE
8
BLACK
6
CONTINUOUS
10
6.4121103149606293
20
-3.8703565354330709
11
6.3946625984251968
21
-3.8745453543307087
0
LINE
8
BLACK
6
CONTINUOUS
10
6.3946625984251968
20
-3.8745453543307087
11
6.3775972834645671
21
-3.8800901968503938
0
LINE
8
BLACK
6
CONTINUOUS
10
6.3775972834645671
20
-3.8800901968503938
11
6.3610196456692911
21
-3.8869568897637796
0
LINE
8
BLACK
6
CONTINUOUS
10
6.3610196456692911
20
-3.8869568897637796
11
6.3450318503937009
21
-3.8951030708661416
0
LINE
8
BLACK
6
CONTINUOUS
10
6.3450318503937009
20
-3.8951030708661416
11
6.3297325196850389
21
-3.9044785433070865
0
LINE
8
BLACK
6
CONTINUOUS
10
6.3297325196850389
20
-3.9044785433070865
11
6.3152159055118107
21
-3.915025472440945
0
LINE
8
BLACK
6
CONTINUOUS
10
6.3152159055118107
20
-3.915025472440945
11
6.3015715354330704
21
-3.9266788582677163
0
LINE
8
BLACK
6
CONTINUOUS
10
6.3015715354330704
20
-3.9266788582677163
11
6.2888835826771654
21
-3.9393668110236217
0
LINE
8
BLACK
6
CONTINUOUS
10
6.2888835826771654
20
-3.9393668110236217
11
6.2772301968503932
21
-3.953011181102362
0
LINE
8
BLACK
6
CONTINUOUS
10
6.2772301968503932
20
-3.953011181102362
11
6.2666832677165356
21
-3.9675277952755903
0
LINE
8
BLACK
6
CONTINUOUS
10
6.2666832677165356
20
-3.9675277952755903
11
6.2573077952755902
21
-3.9828271259842518
0
LINE
8
BLACK
6
CONTINUOUS
10
6.2573077952755902
20
-3.9828271259842518
11
6.2491616141732278
21
-3.9988149212598425
0
LINE
8
BLACK
6
CONTINUOUS
10
6.2491616141732278
20
-3.9988149212598425
11
6.242294921259842
21
-4.015392559055118
0
LINE
8
BLACK
6
CONTINUOUS
10
6.242294921259842
20
-4.015392559055118
11
6.2367500787401573
21
-4.0324578740157477
0
LINE
8
BLACK
6
CONTINUOUS
10
6.2367500787401573
20
-4.0324578740157477
11
6.2325612598425195
21
-4.0499055905511812
0
LINE
8
BLACK
6
CONTINUOUS
10
6.2325612598425195
20
-4.0499055905511812
11
6.2297542519685036
21
-4.0676281889763777
0
LINE
8
BLACK
6
CONTINUOUS
10
6.2297542519685036
20
-4.0676281889763777
11
6.2283464173228342
21
-4.0855163779527555
0
LINE
8
BLACK
6
CONTINUOUS
10
6.2283464173228342
20
-4.0855163779527555
11
6.2283464173228342
21
-4.094488149606299
0
LINE
8
BLACK
6
CONTINUOUS
10
6.2283464173228342
20
-4.094488149606299
11
6.2281951181102357
21
-4.0952487795275587
0
LINE
8
BLACK
6
CONTINUOUS
10
6.2281951181102357
20
-4.0952487795275587
11
6.2281951181102357
21
-4.0960242913385825
0
LINE
8
BLACK
6
CONTINUOUS
10
6.2281951181102357
20
-4.0960242913385825
11
6.2278983464566924
21
-4.0967407480314959
0
LINE
8
BLACK
6
CONTINUOUS
10
6.2278983464566924
20
-4.0967407480314959
11
6.2277470472440948
21
-4.0975014173228343
0
LINE
8
BLACK
6
CONTINUOUS
10
6.2277470472440948
20
-4.0975014173228343
11
6.2273161811023616
21
-4.098146220472441
0
LINE
8
BLACK
6
CONTINUOUS
10
6.2273161811023616
20
-4.098146220472441
11
6.2270194094488192
21
-4.0988627165354332
0
LINE
8
BLACK
6
CONTINUOUS
10
6.2270194094488192
20
-4.0988627165354332
11
6.22647094488189
21
-4.0994111417322836
0
LINE
8
BLACK
6
CONTINUOUS
10
6.22647094488189
20
-4.0994111417322836
11
6.2260401574803153
21
-4.1000559055118106
0
LINE
8
BLACK
6
CONTINUOUS
10
6.2260401574803153
20
-4.1000559055118106
11
6.2253953937007873
21
-4.1004866929133854
0
LINE
8
BLACK
6
CONTINUOUS
10
6.2253953937007873
20
-4.1004866929133854
11
6.2248469685039369
21
-4.1010351574803146
0
LINE
8
BLACK
6
CONTINUOUS
10
6.2248469685039369
20
-4.1010351574803146
11
6.2241304724409448
21
-4.1013319291338579
0
LINE
8
BLACK
6
CONTINUOUS
10
6.2241304724409448
20
-4.1013319291338579
11
6.2234856692913381
21
-4.1017627952755902
0
LINE
8
BLACK
6
CONTINUOUS
10
6.2234856692913381
20
-4.1017627952755902
11
6.2227249999999996
21
-4.1019140944881887
0
LINE
8
BLACK
6
CONTINUOUS
10
6.2227249999999996
20
-4.1019140944881887
11
6.2220085433070862
21
-4.102210866141732
0
LINE
8
BLACK
6
CONTINUOUS
10
6.2220085433070862
20
-4.102210866141732
11
6.2204724015748027
21
-4.1023621653543305
0
LINE
8
BLACK
6
CONTINUOUS
10
6.2204724015748027
20
-4.1023621653543305
11
6.110236181102362
21
-4.1023621653543305
0
LINE
8
BLACK
6
CONTINUOUS
10
6.110236181102362
20
-4.1023621653543305
11
6.110236181102362
21
-4.3307086220472444
0
LINE
8
BLACK
6
CONTINUOUS
10
6.110236181102362
20
-4.3307086220472444
11
6.1100848818897635
21
-4.3322447637795278
0
LINE
8
BLACK
6
CONTINUOUS
10
6.1100848818897635
20
-4.3322447637795278
11
6.108909173228346
21
-4.3350831889763777
0
LINE
8
BLACK
6
CONTINUOUS
10
6.108909173228346
20
-4.3350831889763777
11
6.1067367322834647
21
-4.3372556299212599
0
LINE
8
BLACK
6
CONTINUOUS
10
6.1067367322834647
20
-4.3372556299212599
11
6.103898307086614
21
-4.3384313385826774
0
LINE
8
BLACK
6
CONTINUOUS
10
6.103898307086614
20
-4.3384313385826774
11
6.1008260236220471
21
-4.3384313385826774
0
LINE
8
BLACK
6
CONTINUOUS
10
6.1008260236220471
20
-4.3384313385826774
11
6.0979875984251963
21
-4.3372556299212599
0
LINE
8
BLACK
6
CONTINUOUS
10
6.0979875984251963
20
-4.3372556299212599
11
6.095815157480315
21
-4.3350831889763777
0
LINE
8
BLACK
6
CONTINUOUS
10
6.095815157480315
20
-4.3350831889763777
11
6.0946394488188975
21
-4.3322447637795278
0
LINE
8
BLACK
6
CONTINUOUS
10
6.0946394488188975
20
-4.3322447637795278
11
6.094488149606299
21
-4.3307086220472444
0
LINE
8
BLACK
6
CONTINUOUS
10
6.094488149606299
20
-4.3307086220472444
11
6.094488149606299
21
-4.094488149606299
0
LINE
8
BLACK
6
CONTINUOUS
10
6.094488149606299
20
-4.094488149606299
11
6.0946394488188975
21
-4.0929520078740156
0
LINE
8
BLACK
6
CONTINUOUS
10
6.0946394488188975
20
-4.0929520078740156
11
6.095815157480315
21
-4.0901135826771648
0
LINE
8
BLACK
6
CONTINUOUS
10
6.095815157480315
20
-4.0901135826771648
11
6.0979875984251963
21
-4.0879411417322835
0
LINE
8
BLACK
6
CONTINUOUS
10
6.0979875984251963
20
-4.0879411417322835
11
6.1008260236220471
21
-4.086765433070866
0
LINE
8
BLACK
6
CONTINUOUS
10
6.1008260236220471
20
-4.086765433070866
11
6.1023621653543305
21
-4.0866141338582676
0
LINE
8
BLACK
6
CONTINUOUS
10
6.1023621653543305
20
-4.0866141338582676
11
6.2128930314960629
21
-4.0866141338582676
0
LINE
8
BLACK
6
CONTINUOUS
10
6.2128930314960629
20
-4.0866141338582676
11
6.2132809448818893
21
-4.0762469291338581
0
LINE
8
BLACK
6
CONTINUOUS
10
6.2132809448818893
20
-4.0762469291338581
11
6.2153247244094487
21
-4.0581077559055121
0
LINE
8
BLACK
6
CONTINUOUS
10
6.2153247244094487
20
-4.0581077559055121
11
6.2187183464566926
21
-4.0401720078740153
0
LINE
8
BLACK
6
CONTINUOUS
10
6.2187183464566926
20
-4.0401720078740153
11
6.2234428346456694
21
-4.022540039370079
0
LINE
8
BLACK
6
CONTINUOUS
10
6.2234428346456694
20
-4.022540039370079
11
6.2294717322834643
21
-4.005310433070866
0
LINE
8
BLACK
6
CONTINUOUS
10
6.2294717322834643
20
-4.005310433070866
11
6.2367713385826766
21
-3.9885795275590552
0
LINE
8
BLACK
6
CONTINUOUS
10
6.2367713385826766
20
-3.9885795275590552
11
6.245300866141732
21
-3.9724409055118111
0
LINE
8
BLACK
6
CONTINUOUS
10
6.245300866141732
20
-3.9724409055118111
11
6.2550125590551175
21
-3.956984842519685
0
LINE
8
BLACK
6
CONTINUOUS
10
6.2550125590551175
20
-3.956984842519685
11
6.2658521259842521
21
-3.9422977165354331
0
LINE
8
BLACK
6
CONTINUOUS
10
6.2658521259842521
20
-3.9422977165354331
11
6.2777589763779522
21
-3.9284617322834645
0
LINE
8
BLACK
6
CONTINUOUS
10
6.2777589763779522
20
-3.9284617322834645
11
6.2906664566929136
21
-3.915554251968504
0
LINE
8
BLACK
6
CONTINUOUS
10
6.2906664566929136
20
-3.915554251968504
11
6.3045024409448818
21
-3.9036474015748031
0
LINE
8
BLACK
6
CONTINUOUS
10
6.3045024409448818
20
-3.9036474015748031
11
6.3191895669291336
21
-3.8928078346456694
0
LINE
8
BLACK
6
CONTINUOUS
10
6.3191895669291336
20
-3.8928078346456694
11
6.3346456299212601
21
-3.8830961417322833
0
LINE
8
BLACK
6
CONTINUOUS
10
6.3346456299212601
20
-3.8830961417322833
11
6.3507842519685038
21
-3.8745666141732285
0
LINE
8
BLACK
6
CONTINUOUS
10
6.3507842519685038
20
-3.8745666141732285
11
6.367515157480315
21
-3.8672670078740157
0
LINE
8
BLACK
6
CONTINUOUS
10
6.367515157480315
20
-3.8672670078740157
11
6.3847447637795272
21
-3.8612381102362203
0
LINE
8
BLACK
6
CONTINUOUS
10
6.3847447637795272
20
-3.8612381102362203
11
6.4023767322834644
21
-3.856513622047244
0
LINE
8
BLACK
6
CONTINUOUS
10
6.4023767322834644
20
-3.856513622047244
11
6.4203124803149603
21
-3.8531200000000001
0
LINE
8
BLACK
6
CONTINUOUS
10
6.4203124803149603
20
-3.8531200000000001
11
6.4384516535433072
21
-3.8510762204724407
0
LINE
8
BLACK
6
CONTINUOUS
10
6.4384516535433072
20
-3.8510762204724407
11
6.4488188582677166
21
-3.8506882677165355
0
LINE
8
BLACK
6
CONTINUOUS
10
6.4488188582677166
20
-3.8506882677165355
11
6.4488188582677166
21
-2.7165353937007874
0
LINE
8
BLACK
6
CONTINUOUS
10
6.4488188582677166
20
-2.7165353937007874
11
6.4488189370078741
21
-2.7165345669291336
0
LINE
8
BLACK
6
CONTINUOUS
10
6.4488189370078741
20
-2.7165345669291336
11
6.4488189370078741
21
-2.7103446456692915
0
LINE
8
BLACK
6
CONTINUOUS
10
6.4488189370078741
20
-2.7103446456692915
11
6.4474326377952753
21
-2.6980410236220473
0
LINE
8
BLACK
6
CONTINUOUS
10
6.4474326377952753
20
-2.6980410236220473
11
6.4446775196850394
21
-2.6859699999999997
0
LINE
8
BLACK
6
CONTINUOUS
10
6.4446775196850394
20
-2.6859699999999997
11
6.4405881496062989
21
-2.6742833464566926
0
LINE
8
BLACK
6
CONTINUOUS
10
6.4405881496062989
20
-2.6742833464566926
11
6.435216023622047
21
-2.663128031496063
0
LINE
8
BLACK
6
CONTINUOUS
10
6.435216023622047
20
-2.663128031496063
11
6.4286287007874012
21
-2.6526443307086613
0
LINE
8
BLACK
6
CONTINUOUS
10
6.4286287007874012
20
-2.6526443307086613
11
6.4209089763779525
21
-2.6429640944881889
0
LINE
8
BLACK
6
CONTINUOUS
10
6.4209089763779525
20
-2.6429640944881889
11
6.4121539370078739
21
-2.6342090944881891
0
LINE
8
BLACK
6
CONTINUOUS
10
6.4121539370078739
20
-2.6342090944881891
11
6.4024737401574798
21
-2.6264893700787399
0
LINE
8
BLACK
6
CONTINUOUS
10
6.4024737401574798
20
-2.6264893700787399
11
6.3919900393700786
21
-2.6199020472440946
0
LINE
8
BLACK
6
CONTINUOUS
10
6.3919900393700786
20
-2.6199020472440946
11
6.380834724409449
21
-2.6145299212598423
0
LINE
8
BLACK
6
CONTINUOUS
10
6.380834724409449
20
-2.6145299212598423
11
6.3691480314960627
21
-2.6104405905511809
0
LINE
8
BLACK
6
CONTINUOUS
10
6.3691480314960627
20
-2.6104405905511809
11
6.3570770078740155
21
-2.6076854330708659
0
LINE
8
BLACK
6
CONTINUOUS
10
6.3570770078740155
20
-2.6076854330708659
11
6.3447733858267714
21
-2.6062991732283463
0
LINE
8
BLACK
6
CONTINUOUS
10
6.3447733858267714
20
-2.6062991732283463
11
6.3385826377952759
21
-2.6062991732283463
0
LINE
8
BLACK
6
CONTINUOUS
10
6.3385826377952759
20
-2.6062991732283463
11
6.319431220472441
21
-2.6055466929133857
0
LINE
8
BLACK
6
CONTINUOUS
10
6.319431220472441
20
-2.6055466929133857
11
6.300397874015748
21
-2.6032939763779526
0
LINE
8
BLACK
6
CONTINUOUS
10
6.300397874015748
20
-2.6032939763779526
11
6.2815999212598426
21
-2.5995548031496063
0
LINE
8
BLACK
6
CONTINUOUS
10
6.2815999212598426
20
-2.5995548031496063
11
6.2631533070866139
21
-2.5943523228346455
0
LINE
8
BLACK
6
CONTINUOUS
10
6.2631533070866139
20
-2.5943523228346455
11
6.2451717322834641
21
-2.5877185826771654
0
LINE
8
BLACK
6
CONTINUOUS
10
6.2451717322834641
20
-2.5877185826771654
11
6.2277661023622048
21
-2.5796944488188975
0
LINE
8
BLACK
6
CONTINUOUS
10
6.2277661023622048
20
-2.5796944488188975
11
6.2110436614173228
21
-2.5703294488188977
0
LINE
8
BLACK
6
CONTINUOUS
10
6.2110436614173228
20
-2.5703294488188977
11
6.1951075590551179
21
-2.5596812598425198
0
LINE
8
BLACK
6
CONTINUOUS
10
6.1951075590551179
20
-2.5596812598425198
11
6.1800559842519682
21
-2.5478155905511812
0
LINE
8
BLACK
6
CONTINUOUS
10
6.1800559842519682
20
-2.5478155905511812
11
6.165981811023622
21
-2.5348055511811025
0
LINE
8
BLACK
6
CONTINUOUS
10
6.165981811023622
20
-2.5348055511811025
11
6.1529717716535428
21
-2.5207313779527558
0
LINE
8
BLACK
6
CONTINUOUS
10
6.1529717716535428
20
-2.5207313779527558
11
6.1411061023622047
21
-2.5056798425196849
0
LINE
8
BLACK
6
CONTINUOUS
10
6.1411061023622047
20
-2.5056798425196849
11
6.1304579527559051
21
-2.4897437007874017
0
LINE
8
BLACK
6
CONTINUOUS
10
6.1304579527559051
20
-2.4897437007874017
11
6.1210929133858265
21
-2.4730212598425196
0
LINE
8
BLACK
6
CONTINUOUS
10
6.1210929133858265
20
-2.4730212598425196
11
6.1130688188976379
21
-2.4556156299212599
0
LINE
8
BLACK
6
CONTINUOUS
10
6.1130688188976379
20
-2.4556156299212599
11
6.106435039370079
21
-2.4376340551181102
0
LINE
8
BLACK
6
CONTINUOUS
10
6.106435039370079
20
-2.4376340551181102
11
6.1012325590551182
21
-2.4191874409448819
0
LINE
8
BLACK
6
CONTINUOUS
10
6.1012325590551182
20
-2.4191874409448819
11
6.0974934251968502
21
-2.4003894881889765
0
LINE
8
BLACK
6
CONTINUOUS
10
6.0974934251968502
20
-2.4003894881889765
11
6.0952407086614171
21
-2.3813561417322835
0
LINE
8
BLACK
6
CONTINUOUS
10
6.0952407086614171
20
-2.3813561417322835
11
6.0944882283464565
21
-2.3622047244094486
0
LINE
8
BLACK
6
CONTINUOUS
10
6.0944882283464565
20
-2.3622047244094486
11
6.0952407086614171
21
-2.3430533070866142
0
LINE
8
BLACK
6
CONTINUOUS
10
6.0952407086614171
20
-2.3430533070866142
11
6.0974934251968502
21
-2.3240199606299212
0
LINE
8
BLACK
6
CONTINUOUS
10
6.0974934251968502
20
-2.3240199606299212
11
6.1012325590551182
21
-2.3052220078740158
0
LINE
8
BLACK
6
CONTINUOUS
10
6.1012325590551182
20
-2.3052220078740158
11
6.106435039370079
21
-2.2867753937007875
0
LINE
8
BLACK
6
CONTINUOUS
10
6.106435039370079
20
-2.2867753937007875
11
6.1130688188976379
21
-2.2687938188976378
0
LINE
8
BLACK
6
CONTINUOUS
10
6.1130688188976379
20
-2.2687938188976378
11
6.1210929133858265
21
-2.251388188976378
0
LINE
8
BLACK
6
CONTINUOUS
10
6.1210929133858265
20
-2.251388188976378
11
6.1304579527559051
21
-2.234665748031496
0
LINE
8
BLACK
6
CONTINUOUS
10
6.1304579527559051
20
-2.234665748031496
11
6.1411061023622047
21
-2.2187296062992123
0
LINE
8
BLACK
6
CONTINUOUS
10
6.1411061023622047
20
-2.2187296062992123
11
6.1529717716535428
21
-2.2036780708661419
0
LINE
8
BLACK
6
CONTINUOUS
10
6.1529717716535428
20
-2.2036780708661419
11
6.165981811023622
21
-2.1896038976377952
0
LINE
8
BLACK
6
CONTINUOUS
10
6.165981811023622
20
-2.1896038976377952
11
6.1800559842519682
21
-2.1765938582677165
0
LINE
8
BLACK
6
CONTINUOUS
10
6.1800559842519682
20
-2.1765938582677165
11
6.1951075590551179
21
-2.1647281889763779
0
LINE
8
BLACK
6
CONTINUOUS
10
6.1951075590551179
20
-2.1647281889763779
11
6.2110436614173228
21
-2.15408
0
LINE
8
BLACK
6
CONTINUOUS
10
6.2110436614173228
20
-2.15408
11
6.2277661023622048
21
-2.1447150000000001
0
LINE
8
BLACK
6
CONTINUOUS
10
6.2277661023622048
20
-2.1447150000000001
11
6.2451717322834641
21
-2.1366908661417323
0
LINE
8
BLACK
6
CONTINUOUS
10
6.2451717322834641
20
-2.1366908661417323
11
6.2631533070866139
21
-2.1300571259842518
0
LINE
8
BLACK
6
CONTINUOUS
10
6.2631533070866139
20
-2.1300571259842518
11
6.2815999212598426
21
-2.1248546456692914
0
LINE
8
BLACK
6
CONTINUOUS
10
6.2815999212598426
20
-2.1248546456692914
11
6.300397874015748
21
-2.1211154724409447
0
LINE
8
BLACK
6
CONTINUOUS
10
6.300397874015748
20
-2.1211154724409447
11
6.319431220472441
21
-2.1188627559055115
0
LINE
8
BLACK
6
CONTINUOUS
10
6.319431220472441
20
-2.1188627559055115
11
6.3385821259842521
21
-2.118110275590551
0
LINE
8
BLACK
6
CONTINUOUS
10
6.3385821259842521
20
-2.118110275590551
11
6.3385826377952759
21
-2.1181101968503935
0
LINE
8
BLACK
6
CONTINUOUS
10
6.3385826377952759
20
-2.1181101968503935
11
6.3447733858267714
21
-2.1181101968503935
0
LINE
8
BLACK
6
CONTINUOUS
10
6.3447733858267714
20
-2.1181101968503935
11
6.3570770078740155
21
-2.1167239370078739
0
LINE
8
BLACK
6
CONTINUOUS
10
6.3570770078740155
20
-2.1167239370078739
11
6.3691480314960627
21
-2.1139687795275588
0
LINE
8
BLACK
6
CONTINUOUS
10
6.3691480314960627
20
-2.1139687795275588
11
6.3808346850393702
21
-2.1098794488188974
0
LINE
8
BLACK
6
CONTINUOUS
10
6.3808346850393702
20
-2.1098794488188974
11
6.3919899999999998
21
-2.1045073228346456
0
LINE
8
BLACK
6
CONTINUOUS
10
6.3919899999999998
20
-2.1045073228346456
11
6.4024737007874011
21
-2.0979199999999998
0
LINE
8
BLACK
6
CONTINUOUS
10
6.4024737007874011
20
-2.0979199999999998
11
6.4121539370078739
21
-2.0902002755905511
0
LINE
8
BLACK
6
CONTINUOUS
10
6.4121539370078739
20
-2.0902002755905511
11
6.4209089370078738
21
-2.0814452755905513
0
LINE
8
BLACK
6
CONTINUOUS
10
6.4209089370078738
20
-2.0814452755905513
11
6.4286286614173225
21
-2.0717650393700788
0
LINE
8
BLACK
6
CONTINUOUS
10
6.4286286614173225
20
-2.0717650393700788
11
6.4352159842519683
21
-2.0612813385826771
0
LINE
8
BLACK
6
CONTINUOUS
10
6.4352159842519683
20
-2.0612813385826771
11
6.4405881102362201
21
-2.0501260236220471
0
LINE
8
BLACK
6
CONTINUOUS
10
6.4405881102362201
20
-2.0501260236220471
11
6.4446774409448819
21
-2.03843937007874
0
LINE
8
BLACK
6
CONTINUOUS
10
6.4446774409448819
20
-2.03843937007874
11
6.4474325984251966
21
-2.0263683464566928
0
LINE
8
BLACK
6
CONTINUOUS
10
6.4474325984251966
20
-2.0263683464566928
11
6.4488188582677166
21
-2.0140647244094487
0
LINE
8
BLACK
6
CONTINUOUS
10
6.4488188582677166
20
-2.0140647244094487
11
6.4488188582677166
21
-2.0078739763779527
0
LINE
8
BLACK
6
CONTINUOUS
10
6.4488188582677166
20
-2.0078739763779527
11
6.4488188582677166
21
-1.7716535039370078
0
LINE
8
BLACK
6
CONTINUOUS
10
6.4488188582677166
20
-1.7716535039370078
11
6.4488189370078741
21
-1.7716526771653542
0
LINE
8
BLACK
6
CONTINUOUS
10
6.4488189370078741
20
-1.7716526771653542
11
6.4488189370078741
21
-1.7654627559055118
0
LINE
8
BLACK
6
CONTINUOUS
10
6.4488189370078741
20
-1.7654627559055118
11
6.4474326377952753
21
-1.7531591338582677
0
LINE
8
BLACK
6
CONTINUOUS
10
6.4474326377952753
20
-1.7531591338582677
11
6.4446775196850394
21
-1.7410881102362203
0
LINE
8
BLACK
6
CONTINUOUS
10
6.4446775196850394
20
-1.7410881102362203
11
6.4405881496062989
21
-1.7294014566929135
0
LINE
8
BLACK
6
CONTINUOUS
10
6.4405881496062989
20
-1.7294014566929135
11
6.435216023622047
21
-1.7182461417322834
0
LINE
8
BLACK
6
CONTINUOUS
10
6.435216023622047
20
-1.7182461417322834
11
6.4286287007874012
21
-1.7077624409448819
0
LINE
8
BLACK
6
CONTINUOUS
10
6.4286287007874012
20
-1.7077624409448819
11
6.4209089763779525
21
-1.6980822047244095
0
LINE
8
BLACK
6
CONTINUOUS
10
6.4209089763779525
20
-1.6980822047244095
11
6.4121539370078739
21
-1.6893272047244094
0
LINE
8
BLACK
6
CONTINUOUS
10
6.4121539370078739
20
-1.6893272047244094
11
6.4024737401574798
21
-1.6816074803149605
0
LINE
8
BLACK
6
CONTINUOUS
10
6.4024737401574798
20
-1.6816074803149605
11
6.3919900393700786
21
-1.675020157480315
0
LINE
8
BLACK
6
CONTINUOUS
10
6.3919900393700786
20
-1.675020157480315
11
6.380834724409449
21
-1.6696480314960629
0
LINE
8
BLACK
6
CONTINUOUS
10
6.380834724409449
20
-1.6696480314960629
11
6.3691480314960627
21
-1.6655587007874015
0
LINE
8
BLACK
6
CONTINUOUS
10
6.3691480314960627
20
-1.6655587007874015
11
6.3570770078740155
21
-1.6628035433070867
0
LINE
8
BLACK
6
CONTINUOUS
10
6.3570770078740155
20
-1.6628035433070867
11
6.3447733858267714
21
-1.6614172834645669
0
LINE
8
BLACK
6
CONTINUOUS
10
6.3447733858267714
20
-1.6614172834645669
11
6.3385826377952759
21
-1.6614172834645669
0
LINE
8
BLACK
6
CONTINUOUS
10
6.3385826377952759
20
-1.6614172834645669
11
6.3203414173228349
21
-1.6607347244094488
0
LINE
8
BLACK
6
CONTINUOUS
10
6.3203414173228349
20
-1.6607347244094488
11
6.302202244094488
21
-1.6586909448818896
0
LINE
8
BLACK
6
CONTINUOUS
10
6.302202244094488
20
-1.6586909448818896
11
6.2842664960629921
21
-1.6552973228346457
0
LINE
8
BLACK
6
CONTINUOUS
10
6.2842664960629921
20
-1.6552973228346457
11
6.2666345275590549
21
-1.6505728346456692
0
LINE
8
BLACK
6
CONTINUOUS
10
6.2666345275590549
20
-1.6505728346456692
11
6.2494049212598428
21
-1.644543937007874
0
LINE
8
BLACK
6
CONTINUOUS
10
6.2494049212598428
20
-1.644543937007874
11
6.2326740157480316
21
-1.6372443307086615
0
LINE
8
BLACK
6
CONTINUOUS
10
6.2326740157480316
20
-1.6372443307086615
11
6.2165354330708658
21
-1.6287148031496064
0
LINE
8
BLACK
6
CONTINUOUS
10
6.2165354330708658
20
-1.6287148031496064
11
6.2010793307086614
21
-1.6190031102362203
0
LINE
8
BLACK
6
CONTINUOUS
10
6.2010793307086614
20
-1.6190031102362203
11
6.1863922440944883
21
-1.6081635433070867
0
LINE
8
BLACK
6
CONTINUOUS
10
6.1863922440944883
20
-1.6081635433070867
11
6.1725562598425192
21
-1.5962566929133859
0
LINE
8
BLACK
6
CONTINUOUS
10
6.1725562598425192
20
-1.5962566929133859
11
6.15964874015748
21
-1.5833492125984252
0
LINE
8
BLACK
6
CONTINUOUS
10
6.15964874015748
20
-1.5833492125984252
11
6.1477419291338578
21
-1.5695131889763778
0
LINE
8
BLACK
6
CONTINUOUS
10
6.1477419291338578
20
-1.5695131889763778
11
6.1369023622047241
21
-1.5548261023622048
0
LINE
8
BLACK
6
CONTINUOUS
10
6.1369023622047241
20
-1.5548261023622048
11
6.1271906692913385
21
-1.5393700393700787
0
LINE
8
BLACK
6
CONTINUOUS
10
6.1271906692913385
20
-1.5393700393700787
11
6.1186611417322831
21
-1.5232314173228345
0
LINE
8
BLACK
6
CONTINUOUS
10
6.1186611417322831
20
-1.5232314173228345
11
6.1113615354330708
21
-1.5065005118110235
0
LINE
8
BLACK
6
CONTINUOUS
10
6.1113615354330708
20
-1.5065005118110235
11
6.105332637795275
21
-1.489270905511811
0
LINE
8
BLACK
6
CONTINUOUS
10
6.105332637795275
20
-1.489270905511811
11
6.1006081889763779
21
-1.471638937007874
0
LINE
8
BLACK
6
CONTINUOUS
10
6.1006081889763779
20
-1.471638937007874
11
6.097214566929134
21
-1.4537031889763778
0
LINE
8
BLACK
6
CONTINUOUS
10
6.097214566929134
20
-1.4537031889763778
11
6.0951707480314958
21
-1.4355639763779526
0
LINE
8
BLACK
6
CONTINUOUS
10
6.0951707480314958
20
-1.4355639763779526
11
6.0947828346456694
21
-1.4251968110236219
0
LINE
8
BLACK
6
CONTINUOUS
10
6.0947828346456694
20
-1.4251968110236219
11
5.856299212598425
21
-1.4251968503937007
0
LINE
8
BLACK
6
CONTINUOUS
10
5.856299212598425
20
-1.4251968503937007
11
5.8547630708661416
21
-1.4250455511811024
0
LINE
8
BLACK
6
CONTINUOUS
10
5.8547630708661416
20
-1.4250455511811024
11
5.8519246456692908
21
-1.423869842519685
0
LINE
8
BLACK
6
CONTINUOUS
10
5.8519246456692908
20
-1.423869842519685
11
5.8497522047244095
21
-1.4216974015748032
0
LINE
8
BLACK
6
CONTINUOUS
10
5.8497522047244095
20
-1.4216974015748032
11
5.848576496062992
21
-1.4188589763779527
0
LINE
8
BLACK
6
CONTINUOUS
10
5.848576496062992
20
-1.4188589763779527
11
5.848576496062992
21
-1.4188589370078739
0
LINE
8
BLACK
6
CONTINUOUS
10
5.848576496062992
20
-1.4188589370078739
11
5.8484251968503935
21
-1.4173228346456692
0
LINE
8
BLACK
6
CONTINUOUS
10
5.8484251968503935
20
-1.4173228346456692
11
5.8484251968503935
21
-1.1811023622047243
0
LINE
8
BLACK
6
CONTINUOUS
10
5.8484251968503935
20
-1.1811023622047243
11
5.848576496062992
21
-1.1795662204724409
0
LINE
8
BLACK
6
CONTINUOUS
10
5.848576496062992
20
-1.1795662204724409
11
5.8497522047244095
21
-1.1767277952755906
0
LINE
8
BLACK
6
CONTINUOUS
10
5.8497522047244095
20
-1.1767277952755906
11
5.8519246456692908
21
-1.1745553543307086
0
LINE
8
BLACK
6
CONTINUOUS
10
5.8519246456692908
20
-1.1745553543307086
11
5.8547630708661416
21
-1.1733796456692913
0
LINE
8
BLACK
6
CONTINUOUS
10
5.8547630708661416
20
-1.1733796456692913
11
5.8578353543307085
21
-1.1733796456692913
0
LINE
8
BLACK
6
CONTINUOUS
10
5.8578353543307085
20
-1.1733796456692913
11
5.8606737795275592
21
-1.1745553543307086
0
LINE
8
BLACK
6
CONTINUOUS
10
6.4761473622047241
20
-3.9799874015748031
11
6.488845078740157
21
-3.9828855905511809
0
LINE
8
BLACK
6
CONTINUOUS
10
6.488845078740157
20
-3.9828855905511809
11
6.5011384251968503
21
-3.9871872047244095
0
LINE
8
BLACK
6
CONTINUOUS
10
6.5011384251968503
20
-3.9871872047244095
11
6.5128728740157475
21
-3.9928382283464567
0
LINE
8
BLACK
6
CONTINUOUS
10
6.5128728740157475
20
-3.9928382283464567
11
6.5239007874015744
21
-3.9997675196850393
0
LINE
8
BLACK
6
CONTINUOUS
10
6.5239007874015744
20
-3.9997675196850393
11
6.5340835433070863
21
-4.007888031496063
0
LINE
8
BLACK
6
CONTINUOUS
10
6.5340835433070863
20
-4.007888031496063
11
6.5432930708661416
21
-4.0170975590551183
0
LINE
8
BLACK
6
CONTINUOUS
10
6.5432930708661416
20
-4.0170975590551183
11
6.5514135826771653
21
-4.0272803149606302
0
LINE
8
BLACK
6
CONTINUOUS
10
6.5514135826771653
20
-4.0272803149606302
11
6.5583428740157474
21
-4.0383082283464562
0
LINE
8
BLACK
6
CONTINUOUS
10
6.5583428740157474
20
-4.0383082283464562
11
6.5639938976377952
21
-4.0500426771653544
0
LINE
8
BLACK
6
CONTINUOUS
10
6.5639938976377952
20
-4.0500426771653544
11
6.5682955118110238
21
-4.0623360236220467
0
LINE
8
BLACK
6
CONTINUOUS
10
6.5682955118110238
20
-4.0623360236220467
11
6.5711937007874015
21
-4.0750337401574805
0
LINE
8
BLACK
6
CONTINUOUS
10
6.5711937007874015
20
-4.0750337401574805
11
6.5726519291338583
21
-4.0879760629921256
0
LINE
8
BLACK
6
CONTINUOUS
10
6.5726519291338583
20
-4.0879760629921256
11
6.5726519291338583
21
-4.10100031496063
0
LINE
8
BLACK
6
CONTINUOUS
10
6.5726519291338583
20
-4.10100031496063
11
6.5711937007874015
21
-4.1139426377952759
0
LINE
8
BLACK
6
CONTINUOUS
10
6.5711937007874015
20
-4.1139426377952759
11
6.5682955118110238
21
-4.1266403543307089
0
LINE
8
BLACK
6
CONTINUOUS
10
6.5682955118110238
20
-4.1266403543307089
11
6.5639938976377952
21
-4.1389337007874012
0
LINE
8
BLACK
6
CONTINUOUS
10
6.5639938976377952
20
-4.1389337007874012
11
6.5583428740157474
21
-4.1506681496062994
0
LINE
8
BLACK
6
CONTINUOUS
10
6.5583428740157474
20
-4.1506681496062994
11
6.5514135826771653
21
-4.1616960629921262
0
LINE
8
BLACK
6
CONTINUOUS
10
6.5514135826771653
20
-4.1616960629921262
11
6.5432930708661416
21
-4.1718788188976381
0
LINE
8
BLACK
6
CONTINUOUS
10
6.5432930708661416
20
-4.1718788188976381
11
6.5340835433070863
21
-4.1810883464566926
0
LINE
8
BLACK
6
CONTINUOUS
10
6.5340835433070863
20
-4.1810883464566926
11
6.5239007874015744
21
-4.1892088582677163
0
LINE
8
BLACK
6
CONTINUOUS
10
6.5239007874015744
20
-4.1892088582677163
11
6.5128728740157475
21
-4.1961381496062993
0
LINE
8
BLACK
6
CONTINUOUS
10
6.5128728740157475
20
-4.1961381496062993
11
6.5011384251968503
21
-4.2017891732283461
0
LINE
8
BLACK
6
CONTINUOUS
10
6.5011384251968503
20
-4.2017891732283461
11
6.488845078740157
21
-4.2060907874015747
0
LINE
8
BLACK
6
CONTINUOUS
10
6.488845078740157
20
-4.2060907874015747
11
6.4761473622047241
21
-4.2089889763779524
0
LINE
8
BLACK
6
CONTINUOUS
10
6.4761473622047241
20
-4.2089889763779524
11
6.4632050393700782
21
-4.2104472047244093
0
LINE
8
BLACK
6
CONTINUOUS
10
6.4632050393700782
20
-4.2104472047244093
11
6.4501807874015746
21
-4.2104472047244093
0
LINE
8
BLACK
6
CONTINUOUS
10
6.4501807874015746
20
-4.2104472047244093
11
6.4372384645669287
21
-4.2089889763779524
0
LINE
8
BLACK
6
CONTINUOUS
10
6.4372384645669287
20
-4.2089889763779524
11
6.4245407480314958
21
-4.2060907874015747
0
LINE
8
BLACK
6
CONTINUOUS
10
6.4245407480314958
20
-4.2060907874015747
11
6.4122474015748034
21
-4.2017891732283461
0
LINE
8
BLACK
6
CONTINUOUS
10
6.4122474015748034
20
-4.2017891732283461
11
6.4005129527559053
21
-4.1961381496062993
0
LINE
8
BLACK
6
CONTINUOUS
10
6.4005129527559053
20
-4.1961381496062993
11
6.3894850393700784
21
-4.1892088582677163
0
LINE
8
BLACK
6
CONTINUOUS
10
6.3894850393700784
20
-4.1892088582677163
11
6.3793022834645665
21
-4.1810883464566926
0
LINE
8
BLACK
6
CONTINUOUS
10
6.3793022834645665
20
-4.1810883464566926
11
6.370092755905512
21
-4.1718788188976381
0
LINE
8
BLACK
6
CONTINUOUS
10
6.370092755905512
20
-4.1718788188976381
11
6.3619722440944884
21
-4.1616960629921262
0
LINE
8
BLACK
6
CONTINUOUS
10
6.3619722440944884
20
-4.1616960629921262
11
6.3550429527559054
21
-4.1506681496062994
0
LINE
8
BLACK
6
CONTINUOUS
10
6.3550429527559054
20
-4.1506681496062994
11
6.3493919291338585
21
-4.1389337007874012
0
LINE
8
BLACK
6
CONTINUOUS
10
6.3493919291338585
20
-4.1389337007874012
11
6.3450903149606299
21
-4.1266403543307089
0
LINE
8
BLACK
6
CONTINUOUS
10
6.3450903149606299
20
-4.1266403543307089
11
6.3421921259842522
21
-4.1139426377952759
0
LINE
8
BLACK
6
CONTINUOUS
10
6.3421921259842522
20
-4.1139426377952759
11
6.3407338976377954
21
-4.10100031496063
0
LINE
8
BLACK
6
CONTINUOUS
10
6.3407338976377954
20
-4.10100031496063
11
6.3407338976377954
21
-4.0881868897637794
0
LINE
8
BLACK
6
CONTINUOUS
10
6.3407338976377954
20
-4.0881868897637794
11
6.3407338976377954
21
-4.0879760629921256
0
LINE
8
BLACK
6
CONTINUOUS
10
6.3407338976377954
20
-4.0879760629921256
11
6.3421921259842522
21
-4.0750337401574805
0
LINE
8
BLACK
6
CONTINUOUS
10
6.3421921259842522
20
-4.0750337401574805
11
6.3450903149606299
21
-4.0623360236220467
0
LINE
8
BLACK
6
CONTINUOUS
10
6.3450903149606299
20
-4.0623360236220467
11
6.3493919291338585
21
-4.0500426771653544
0
LINE
8
BLACK
6
CONTINUOUS
10
6.3493919291338585
20
-4.0500426771653544
11
6.3550429527559054
21
-4.0383082283464562
0
LINE
8
BLACK
6
CONTINUOUS
10
6.3550429527559054
20
-4.0383082283464562
11
6.3619722440944884
21
-4.0272803149606302
0
LINE
8
BLACK
6
CONTINUOUS
10
6.3619722440944884
20
-4.0272803149606302
11
6.370092755905512
21
-4.0170975590551183
0
LINE
8
BLACK
6
CONTINUOUS
10
6.370092755905512
20
-4.0170975590551183
11
6.3793022834645665
21
-4.007888031496063
0
LINE
8
BLACK
6
CONTINUOUS
10
6.3793022834645665
20
-4.007888031496063
11
6.3894850393700784
21
-3.9997675196850393
0
LINE
8
BLACK
6
CONTINUOUS
10
6.3894850393700784
20
-3.9997675196850393
11
6.4005129527559053
21
-3.9928382283464567
0
LINE
8
BLACK
6
CONTINUOUS
10
6.4005129527559053
20
-3.9928382283464567
11
6.4122474015748034
21
-3.9871872047244095
0
LINE
8
BLACK
6
CONTINUOUS
10
6.4122474015748034
20
-3.9871872047244095
11
6.4245407480314958
21
-3.9828855905511809
0
LINE
8
BLACK
6
CONTINUOUS
10
6.4245407480314958
20
-3.9828855905511809
11
6.4372384645669287
21
-3.9799874015748031
0
LINE
8
BLACK
6
CONTINUOUS
10
6.4372384645669287
20
-3.9799874015748031
11
6.4501807874015746
21
-3.9785291732283463
0
LINE
8
BLACK
6
CONTINUOUS
10
6.4501807874015746
20
-3.9785291732283463
11
6.4632050393700782
21
-3.9785291732283463
0
LINE
8
BLACK
6
CONTINUOUS
10
6.4632050393700782
20
-3.9785291732283463
11
6.4761473622047241
21
-3.9799874015748031
0
LINE
8
BLACK
6
CONTINUOUS
10
6.3444881889763778
20
-4.1007894881889762
11
6.3458992125984253
21
-4.1133127952755908
0
LINE
8
BLACK
6
CONTINUOUS
10
6.3458992125984253
20
-4.1133127952755908
11
6.3487035433070869
21
-4.1255993700787403
0
LINE
8
BLACK
6
CONTINUOUS
10
6.3487035433070869
20
-4.1255993700787403
11
6.3528659055118109
21
-4.1374947244094491
0
LINE
8
BLACK
6
CONTINUOUS
10
6.3528659055118109
20
-4.1374947244094491
11
6.3583339763779527
21
-4.1488492519685041
0
LINE
8
BLACK
6
CONTINUOUS
10
6.3583339763779527
20
-4.1488492519685041
11
6.3650389370078742
21
-4.1595201574803147
0
LINE
8
BLACK
6
CONTINUOUS
10
6.3650389370078742
20
-4.1595201574803147
11
6.3728964960629924
21
-4.1693732283464566
0
LINE
8
BLACK
6
CONTINUOUS
10
6.3728964960629924
20
-4.1693732283464566
11
6.381807874015748
21
-4.1782846062992123
0
LINE
8
BLACK
6
CONTINUOUS
10
6.381807874015748
20
-4.1782846062992123
11
6.39166094488189
21
-4.1861421653543305
0
LINE
8
BLACK
6
CONTINUOUS
10
6.39166094488189
20
-4.1861421653543305
11
6.4023318503937006
21
-4.1928471259842519
0
LINE
8
BLACK
6
CONTINUOUS
10
6.4023318503937006
20
-4.1928471259842519
11
6.4136863779527555
21
-4.1983151968503938
0
LINE
8
BLACK
6
CONTINUOUS
10
6.4136863779527555
20
-4.1983151968503938
11
6.4255817322834643
21
-4.2024775590551178
0
LINE
8
BLACK
6
CONTINUOUS
10
6.4255817322834643
20
-4.2024775590551178
11
6.4378683070866138
21
-4.2052818897637794
0
LINE
8
BLACK
6
CONTINUOUS
10
6.4378683070866138
20
-4.2052818897637794
11
6.4503916141732285
21
-4.2066929133858268
0
LINE
8
BLACK
6
CONTINUOUS
10
6.4503916141732285
20
-4.2066929133858268
11
6.4629942125984252
21
-4.2066929133858268
0
LINE
8
BLACK
6
CONTINUOUS
10
6.4629942125984252
20
-4.2066929133858268
11
6.475517519685039
21
-4.2052818897637794
0
LINE
8
BLACK
6
CONTINUOUS
10
6.475517519685039
20
-4.2052818897637794
11
6.4878040944881885
21
-4.2024775590551178
0
LINE
8
BLACK
6
CONTINUOUS
10
6.4878040944881885
20
-4.2024775590551178
11
6.4996994488188973
21
-4.1983151968503938
0
LINE
8
BLACK
6
CONTINUOUS
10
6.4996994488188973
20
-4.1983151968503938
11
6.5110539763779522
21
-4.1928471259842519
0
LINE
8
BLACK
6
CONTINUOUS
10
6.5110539763779522
20
-4.1928471259842519
11
6.5217248818897637
21
-4.1861421653543305
0
LINE
8
BLACK
6
CONTINUOUS
10
6.5217248818897637
20
-4.1861421653543305
11
6.5315779527559057
21
-4.1782846062992123
0
LINE
8
BLACK
6
CONTINUOUS
10
6.5315779527559057
20
-4.1782846062992123
11
6.5404893307086613
21
-4.1693732283464566
0
LINE
8
BLACK
6
CONTINUOUS
10
6.5404893307086613
20
-4.1693732283464566
11
6.5483468897637795
21
-4.1595201574803147
0
LINE
8
BLACK
6
CONTINUOUS
10
6.5483468897637795
20
-4.1595201574803147
11
6.555051850393701
21
-4.1488492519685041
0
LINE
8
BLACK
6
CONTINUOUS
10
6.555051850393701
20
-4.1488492519685041
11
6.560519921259842
21
-4.1374947244094491
0
LINE
8
BLACK
6
CONTINUOUS
10
6.560519921259842
20
-4.1374947244094491
11
6.5646822834645668
21
-4.1255993700787403
0
LINE
8
BLACK
6
CONTINUOUS
10
6.5646822834645668
20
-4.1255993700787403
11
6.5674866141732284
21
-4.1133127952755908
0
LINE
8
BLACK
6
CONTINUOUS
10
6.5674866141732284
20
-4.1133127952755908
11
6.568897637795275
21
-4.1007894881889762
0
LINE
8
BLACK
6
CONTINUOUS
10
6.568897637795275
20
-4.1007894881889762
11
6.568897637795275
21
-4.0881868897637794
0
LINE
8
BLACK
6
CONTINUOUS
10
6.568897637795275
20
-4.0881868897637794
11
6.5674866141732284
21
-4.0756635826771657
0
LINE
8
BLACK
6
CONTINUOUS
10
6.5674866141732284
20
-4.0756635826771657
11
6.5646822834645668
21
-4.0633770078740152
0
LINE
8
BLACK
6
CONTINUOUS
10
6.5646822834645668
20
-4.0633770078740152
11
6.560519921259842
21
-4.0514816535433074
0
LINE
8
BLACK
6
CONTINUOUS
10
6.560519921259842
20
-4.0514816535433074
11
6.555051850393701
21
-4.0401271259842515
0
LINE
8
BLACK
6
CONTINUOUS
10
6.555051850393701
20
-4.0401271259842515
11
6.5483468897637795
21
-4.0294562204724409
0
LINE
8
BLACK
6
CONTINUOUS
10
6.5483468897637795
20
-4.0294562204724409
11
6.5404893307086613
21
-4.0196031496062989
0
LINE
8
BLACK
6
CONTINUOUS
10
6.5404893307086613
20
-4.0196031496062989
11
6.5315779527559057
21
-4.0106917716535433
0
LINE
8
BLACK
6
CONTINUOUS
10
6.5315779527559057
20
-4.0106917716535433
11
6.5217248818897637
21
-4.0028342125984251
0
LINE
8
BLACK
6
CONTINUOUS
10
6.5217248818897637
20
-4.0028342125984251
11
6.5110539763779522
21
-3.9961292519685037
0
LINE
8
BLACK
6
CONTINUOUS
10
6.5110539763779522
20
-3.9961292519685037
11
6.4996994488188973
21
-3.9906611811023622
0
LINE
8
BLACK
6
CONTINUOUS
10
6.4996994488188973
20
-3.9906611811023622
11
6.4878040944881885
21
-3.9864988188976378
0
LINE
8
BLACK
6
CONTINUOUS
10
6.4878040944881885
20
-3.9864988188976378
11
6.475517519685039
21
-3.9836944881889762
0
LINE
8
BLACK
6
CONTINUOUS
10
6.475517519685039
20
-3.9836944881889762
11
6.4629942125984252
21
-3.9822834645669292
0
LINE
8
BLACK
6
CONTINUOUS
10
6.4629942125984252
20
-3.9822834645669292
11
6.4503916141732285
21
-3.9822834645669292
0
LINE
8
BLACK
6
CONTINUOUS
10
6.4503916141732285
20
-3.9822834645669292
11
6.4378683070866138
21
-3.9836944881889762
0
LINE
8
BLACK
6
CONTINUOUS
10
6.4378683070866138
20
-3.9836944881889762
11
6.4255817322834643
21
-3.9864988188976378
0
LINE
8
BLACK
6
CONTINUOUS
10
6.4255817322834643
20
-3.9864988188976378
11
6.4136863779527555
21
-3.9906611811023622
0
LINE
8
BLACK
6
CONTINUOUS
10
6.4136863779527555
20
-3.9906611811023622
11
6.4023318503937006
21
-3.9961292519685037
0
LINE
8
BLACK
6
CONTINUOUS
10
6.4023318503937006
20
-3.9961292519685037
11
6.39166094488189
21
-4.0028342125984251
0
LINE
8
BLACK
6
CONTINUOUS
10
6.39166094488189
20
-4.0028342125984251
11
6.381807874015748
21
-4.0106917716535433
0
LINE
8
BLACK
6
CONTINUOUS
10
6.381807874015748
20
-4.0106917716535433
11
6.3728964960629924
21
-4.0196031496062989
0
LINE
8
BLACK
6
CONTINUOUS
10
6.3728964960629924
20
-4.0196031496062989
11
6.3650389370078742
21
-4.0294562204724409
0
LINE
8
BLACK
6
CONTINUOUS
10
6.3650389370078742
20
-4.0294562204724409
11
6.3583339763779527
21
-4.0401271259842515
0
LINE
8
BLACK
6
CONTINUOUS
10
6.3583339763779527
20
-4.0401271259842515
11
6.3528659055118109
21
-4.0514816535433074
0
LINE
8
BLACK
6
CONTINUOUS
10
6.3528659055118109
20
-4.0514816535433074
11
6.3487035433070869
21
-4.0633770078740152
0
LINE
8
BLACK
6
CONTINUOUS
10
6.3487035433070869
20
-4.0633770078740152
11
6.3458992125984253
21
-4.0756635826771657
0
LINE
8
BLACK
6
CONTINUOUS
10
6.3458992125984253
20
-4.0756635826771657
11
6.3444881889763778
21
-4.0881868897637794
0
LINE
8
BLACK
6
CONTINUOUS
10
6.3444881889763778
20
-4.0881868897637794
11
6.3444881889763778
21
-4.1007894881889762
0
LINE
8
BLACK
6
CONTINUOUS
10
4.9800843700787398
20
-3.9799873228346456
11
4.9927820866141728
21
-3.9828855118110233
0
LINE
8
BLACK
6
CONTINUOUS
10
4.9927820866141728
20
-3.9828855118110233
11
5.005075433070866
21
-3.987187125984252
0
LINE
8
BLACK
6
CONTINUOUS
10
5.005075433070866
20
-3.987187125984252
11
5.0168098818897633
21
-3.9928381496062992
0
LINE
8
BLACK
6
CONTINUOUS
10
5.0168098818897633
20
-3.9928381496062992
11
5.0278377952755902
21
-3.9997674409448818
0
LINE
8
BLACK
6
CONTINUOUS
10
5.0278377952755902
20
-3.9997674409448818
11
5.038020551181102
21
-4.0078879527559055
0
LINE
8
BLACK
6
CONTINUOUS
10
5.038020551181102
20
-4.0078879527559055
11
5.0472300787401574
21
-4.0170974803149608
0
LINE
8
BLACK
6
CONTINUOUS
10
5.0472300787401574
20
-4.0170974803149608
11
5.0553505905511811
21
-4.0272802362204727
0
LINE
8
BLACK
6
CONTINUOUS
10
5.0553505905511811
20
-4.0272802362204727
11
5.0622798818897641
21
-4.0383081496062987
0
LINE
8
BLACK
6
CONTINUOUS
10
5.0622798818897641
20
-4.0383081496062987
11
5.0679309055118109
21
-4.0500425984251969
0
LINE
8
BLACK
6
CONTINUOUS
10
5.0679309055118109
20
-4.0500425984251969
11
5.0722325196850395
21
-4.0623359448818901
0
LINE
8
BLACK
6
CONTINUOUS
10
5.0722325196850395
20
-4.0623359448818901
11
5.0751307086614172
21
-4.075033661417323
0
LINE
8
BLACK
6
CONTINUOUS
10
5.0751307086614172
20
-4.075033661417323
11
5.0765889370078741
21
-4.0879759842519681
0
LINE
8
BLACK
6
CONTINUOUS
10
5.0765889370078741
20
-4.0879759842519681
11
5.0765889370078741
21
-4.1010002362204725
0
LINE
8
BLACK
6
CONTINUOUS
10
5.0765889370078741
20
-4.1010002362204725
11
5.0751307086614172
21
-4.1139425590551184
0
LINE
8
BLACK
6
CONTINUOUS
10
5.0751307086614172
20
-4.1139425590551184
11
5.0722325196850395
21
-4.1266402755905514
0
LINE
8
BLACK
6
CONTINUOUS
10
5.0722325196850395
20
-4.1266402755905514
11
5.0679309055118109
21
-4.1389336220472437
0
LINE
8
BLACK
6
CONTINUOUS
10
5.0679309055118109
20
-4.1389336220472437
11
5.0622798818897641
21
-4.1506680708661419
0
LINE
8
BLACK
6
CONTINUOUS
10
5.0622798818897641
20
-4.1506680708661419
11
5.0553505905511811
21
-4.1616959842519687
0
LINE
8
BLACK
6
CONTINUOUS
10
5.0553505905511811
20
-4.1616959842519687
11
5.0472300787401574
21
-4.1718787401574806
0
LINE
8
BLACK
6
CONTINUOUS
10
5.0472300787401574
20
-4.1718787401574806
11
5.038020551181102
21
-4.1810882677165351
0
LINE
8
BLACK
6
CONTINUOUS
10
5.038020551181102
20
-4.1810882677165351
11
5.0278377952755902
21
-4.1892087795275588
0
LINE
8
BLACK
6
CONTINUOUS
10
5.0278377952755902
20
-4.1892087795275588
11
5.0168098818897633
21
-4.1961380708661418
0
LINE
8
BLACK
6
CONTINUOUS
10
5.0168098818897633
20
-4.1961380708661418
11
5.005075433070866
21
-4.2017890944881886
0
LINE
8
BLACK
6
CONTINUOUS
10
5.005075433070866
20
-4.2017890944881886
11
4.9927820866141728
21
-4.2060907086614172
0
LINE
8
BLACK
6
CONTINUOUS
10
4.9927820866141728
20
-4.2060907086614172
11
4.9800843700787398
21
-4.2089888976377949
0
LINE
8
BLACK
6
CONTINUOUS
10
4.9800843700787398
20
-4.2089888976377949
11
4.9671420472440948
21
-4.2104471259842517
0
LINE
8
BLACK
6
CONTINUOUS
10
4.9671420472440948
20
-4.2104471259842517
11
4.9541177952755904
21
-4.2104471259842517
0
LINE
8
BLACK
6
CONTINUOUS
10
4.9541177952755904
20
-4.2104471259842517
11
4.9411754724409445
21
-4.2089888976377949
0
LINE
8
BLACK
6
CONTINUOUS
10
4.9411754724409445
20
-4.2089888976377949
11
4.9284777559055115
21
-4.2060907086614172
0
LINE
8
BLACK
6
CONTINUOUS
10
4.9284777559055115
20
-4.2060907086614172
11
4.9161844094488192
21
-4.2017890944881886
0
LINE
8
BLACK
6
CONTINUOUS
10
4.9161844094488192
20
-4.2017890944881886
11
4.904449960629921
21
-4.1961380708661418
0
LINE
8
BLACK
6
CONTINUOUS
10
4.904449960629921
20
-4.1961380708661418
11
4.8934220472440941
21
-4.1892087795275588
0
LINE
8
BLACK
6
CONTINUOUS
10
4.8934220472440941
20
-4.1892087795275588
11
4.8832392913385823
21
-4.1810882677165351
0
LINE
8
BLACK
6
CONTINUOUS
10
4.8832392913385823
20
-4.1810882677165351
11
4.8740297637795278
21
-4.1718787401574806
0
LINE
8
BLACK
6
CONTINUOUS
10
4.8740297637795278
20
-4.1718787401574806
11
4.8659092519685041
21
-4.1616959842519687
0
LINE
8
BLACK
6
CONTINUOUS
10
4.8659092519685041
20
-4.1616959842519687
11
4.8589799606299211
21
-4.1506680708661419
0
LINE
8
BLACK
6
CONTINUOUS
10
4.8589799606299211
20
-4.1506680708661419
11
4.8533289370078743
21
-4.1389336220472437
0
LINE
8
BLACK
6
CONTINUOUS
10
4.8533289370078743
20
-4.1389336220472437
11
4.8490273228346457
21
-4.1266402755905514
0
LINE
8
BLACK
6
CONTINUOUS
10
4.8490273228346457
20
-4.1266402755905514
11
4.8461291338582679
21
-4.1139425590551184
0
LINE
8
BLACK
6
CONTINUOUS
10
4.8461291338582679
20
-4.1139425590551184
11
4.8446709055118111
21
-4.1010002362204725
0
LINE
8
BLACK
6
CONTINUOUS
10
4.8446709055118111
20
-4.1010002362204725
11
4.8446709055118111
21
-4.0881868110236219
0
LINE
8
BLACK
6
CONTINUOUS
10
4.8446709055118111
20
-4.0881868110236219
11
4.8446709055118111
21
-4.0879759842519681
0
LINE
8
BLACK
6
CONTINUOUS
10
4.8446709055118111
20
-4.0879759842519681
11
4.8461291338582679
21
-4.075033661417323
0
LINE
8
BLACK
6
CONTINUOUS
10
4.8461291338582679
20
-4.075033661417323
11
4.8490273228346457
21
-4.0623359448818901
0
LINE
8
BLACK
6
CONTINUOUS
10
4.8490273228346457
20
-4.0623359448818901
11
4.8533289370078743
21
-4.0500425984251969
0
LINE
8
BLACK
6
CONTINUOUS
10
4.8533289370078743
20
-4.0500425984251969
11
4.8589799606299211
21
-4.0383081496062987
0
LINE
8
BLACK
6
CONTINUOUS
10
4.8589799606299211
20
-4.0383081496062987
11
4.8659092519685041
21
-4.0272802362204727
0
LINE
8
BLACK
6
CONTINUOUS
10
4.8659092519685041
20
-4.0272802362204727
11
4.8740297637795278
21
-4.0170974803149608
0
LINE
8
BLACK
6
CONTINUOUS
10
4.8740297637795278
20
-4.0170974803149608
11
4.8832392913385823
21
-4.0078879527559055
0
LINE
8
BLACK
6
CONTINUOUS
10
4.8832392913385823
20
-4.0078879527559055
11
4.8934220472440941
21
-3.9997674409448818
0
LINE
8
BLACK
6
CONTINUOUS
10
4.8934220472440941
20
-3.9997674409448818
11
4.904449960629921
21
-3.9928381496062992
0
LINE
8
BLACK
6
CONTINUOUS
10
4.904449960629921
20
-3.9928381496062992
11
4.9161844094488192
21
-3.987187125984252
0
LINE
8
BLACK
6
CONTINUOUS
10
4.9161844094488192
20
-3.987187125984252
11
4.9284777559055115
21
-3.9828855118110233
0
LINE
8
BLACK
6
CONTINUOUS
10
4.9284777559055115
20
-3.9828855118110233
11
4.9411754724409445
21
-3.9799873228346456
0
LINE
8
BLACK
6
CONTINUOUS
10
4.9411754724409445
20
-3.9799873228346456
11
4.9541177952755904
21
-3.9785290944881888
0
LINE
8
BLACK
6
CONTINUOUS
10
4.9541177952755904
20
-3.9785290944881888
11
4.9671420472440948
21
-3.9785290944881888
0
LINE
8
BLACK
6
CONTINUOUS
10
4.9671420472440948
20
-3.9785290944881888
11
4.9800843700787398
21
-3.9799873228346456
0
LINE
8
BLACK
6
CONTINUOUS
10
4.8484251968503935
20
-4.1007894094488186
11
4.849836220472441
21
-4.1133127165354333
0
LINE
8
BLACK
6
CONTINUOUS
10
4.849836220472441
20
-4.1133127165354333
11
4.8526405511811026
21
-4.1255992913385828
0
LINE
8
BLACK
6
CONTINUOUS
10
4.8526405511811026
20
-4.1255992913385828
11
4.8568029133858266
21
-4.1374946456692916
0
LINE
8
BLACK
6
CONTINUOUS
10
4.8568029133858266
20
-4.1374946456692916
11
4.8622709842519685
21
-4.1488491732283466
0
LINE
8
BLACK
6
CONTINUOUS
10
4.8622709842519685
20
-4.1488491732283466
11
4.8689759448818899
21
-4.1595200787401572
0
LINE
8
BLACK
6
CONTINUOUS
10
4.8689759448818899
20
-4.1595200787401572
11
4.8768335039370081
21
-4.1693731496062991
0
LINE
8
BLACK
6
CONTINUOUS
10
4.8768335039370081
20
-4.1693731496062991
11
4.8857448818897637
21
-4.1782845275590548
0
LINE
8
BLACK
6
CONTINUOUS
10
4.8857448818897637
20
-4.1782845275590548
11
4.8955979527559057
21
-4.186142086614173
0
LINE
8
BLACK
6
CONTINUOUS
10
4.8955979527559057
20
-4.186142086614173
11
4.9062688582677163
21
-4.1928470472440944
0
LINE
8
BLACK
6
CONTINUOUS
10
4.9062688582677163
20
-4.1928470472440944
11
4.9176233858267713
21
-4.1983151181102363
0
LINE
8
BLACK
6
CONTINUOUS
10
4.9176233858267713
20
-4.1983151181102363
11
4.92951874015748
21
-4.2024774803149603
0
LINE
8
BLACK
6
CONTINUOUS
10
4.92951874015748
20
-4.2024774803149603
11
4.9418053149606296
21
-4.2052818110236219
0
LINE
8
BLACK
6
CONTINUOUS
10
4.9418053149606296
20
-4.2052818110236219
11
4.9543286220472442
21
-4.2066928346456693
0
LINE
8
BLACK
6
CONTINUOUS
10
4.9543286220472442
20
-4.2066928346456693
11
4.966931220472441
21
-4.2066928346456693
0
LINE
8
BLACK
6
CONTINUOUS
10
4.966931220472441
20
-4.2066928346456693
11
4.9794545275590547
21
-4.2052818110236219
0
LINE
8
BLACK
6
CONTINUOUS
10
4.9794545275590547
20
-4.2052818110236219
11
4.9917411023622043
21
-4.2024774803149603
0
LINE
8
BLACK
6
CONTINUOUS
10
4.9917411023622043
20
-4.2024774803149603
11
5.003636456692913
21
-4.1983151181102363
0
LINE
8
BLACK
6
CONTINUOUS
10
5.003636456692913
20
-4.1983151181102363
11
5.014990984251968
21
-4.1928470472440944
0
LINE
8
BLACK
6
CONTINUOUS
10
5.014990984251968
20
-4.1928470472440944
11
5.0256618897637795
21
-4.186142086614173
0
LINE
8
BLACK
6
CONTINUOUS
10
5.0256618897637795
20
-4.186142086614173
11
5.0355149606299214
21
-4.1782845275590548
0
LINE
8
BLACK
6
CONTINUOUS
10
5.0355149606299214
20
-4.1782845275590548
11
5.0444263385826771
21
-4.1693731496062991
0
LINE
8
BLACK
6
CONTINUOUS
10
5.0444263385826771
20
-4.1693731496062991
11
5.0522838976377953
21
-4.1595200787401572
0
LINE
8
BLACK
6
CONTINUOUS
10
5.0522838976377953
20
-4.1595200787401572
11
5.0589888582677167
21
-4.1488491732283466
0
LINE
8
BLACK
6
CONTINUOUS
10
5.0589888582677167
20
-4.1488491732283466
11
5.0644569291338586
21
-4.1374946456692916
0
LINE
8
BLACK
6
CONTINUOUS
10
5.0644569291338586
20
-4.1374946456692916
11
5.0686192913385826
21
-4.1255992913385828
0
LINE
8
BLACK
6
CONTINUOUS
10
5.0686192913385826
20
-4.1255992913385828
11
5.0714236220472442
21
-4.1133127165354333
0
LINE
8
BLACK
6
CONTINUOUS
10
5.0714236220472442
20
-4.1133127165354333
11
5.0728346456692917
21
-4.1007894094488186
0
LINE
8
BLACK
6
CONTINUOUS
10
5.0728346456692917
20
-4.1007894094488186
11
5.0728346456692917
21
-4.0881868110236219
0
LINE
8
BLACK
6
CONTINUOUS
10
5.0728346456692917
20
-4.0881868110236219
11
5.0714236220472442
21
-4.0756635039370082
0
LINE
8
BLACK
6
CONTINUOUS
10
5.0714236220472442
20
-4.0756635039370082
11
5.0686192913385826
21
-4.0633769291338586
0
LINE
8
BLACK
6
CONTINUOUS
10
5.0686192913385826
20
-4.0633769291338586
11
5.0644569291338586
21
-4.0514815748031499
0
LINE
8
BLACK
6
CONTINUOUS
10
5.0644569291338586
20
-4.0514815748031499
11
5.0589888582677167
21
-4.040127047244094
0
LINE
8
BLACK
6
CONTINUOUS
10
5.0589888582677167
20
-4.040127047244094
11
5.0522838976377953
21
-4.0294561417322834
0
LINE
8
BLACK
6
CONTINUOUS
10
5.0522838976377953
20
-4.0294561417322834
11
5.0444263385826771
21
-4.0196030708661414
0
LINE
8
BLACK
6
CONTINUOUS
10
5.0444263385826771
20
-4.0196030708661414
11
5.0355149606299214
21
-4.0106916929133858
0
LINE
8
BLACK
6
CONTINUOUS
10
5.0355149606299214
20
-4.0106916929133858
11
5.0256618897637795
21
-4.0028341338582676
0
LINE
8
BLACK
6
CONTINUOUS
10
5.0256618897637795
20
-4.0028341338582676
11
5.014990984251968
21
-3.9961291732283462
0
LINE
8
BLACK
6
CONTINUOUS
10
5.014990984251968
20
-3.9961291732283462
11
5.003636456692913
21
-3.9906611023622047
0
LINE
8
BLACK
6
CONTINUOUS
10
5.003636456692913
20
-3.9906611023622047
11
4.9917411023622043
21
-3.9864987401574803
0
LINE
8
BLACK
6
CONTINUOUS
10
4.9917411023622043
20
-3.9864987401574803
11
4.9794545275590547
21
-3.9836944094488187
0
LINE
8
BLACK
6
CONTINUOUS
10
4.9794545275590547
20
-3.9836944094488187
11
4.966931220472441
21
-3.9822833858267717
0
LINE
8
BLACK
6
CONTINUOUS
10
4.966931220472441
20
-3.9822833858267717
11
4.9543286220472442
21
-3.9822833858267717
0
LINE
8
BLACK
6
CONTINUOUS
10
4.9543286220472442
20
-3.9822833858267717
11
4.9418053149606296
21
-3.9836944094488187
0
LINE
8
BLACK
6
CONTINUOUS
10
4.9418053149606296
20
-3.9836944094488187
11
4.92951874015748
21
-3.9864987401574803
0
LINE
8
BLACK
6
CONTINUOUS
10
4.92951874015748
20
-3.9864987401574803
11
4.9176233858267713
21
-3.9906611023622047
0
LINE
8
BLACK
6
CONTINUOUS
10
4.9176233858267713
20
-3.9906611023622047
11
4.9062688582677163
21
-3.9961291732283462
0
LINE
8
BLACK
6
CONTINUOUS
10
4.9062688582677163
20
-3.9961291732283462
11
4.8955979527559057
21
-4.0028341338582676
0
LINE
8
BLACK
6
CONTINUOUS
10
4.8955979527559057
20
-4.0028341338582676
11
4.8857448818897637
21
-4.0106916929133858
0
LINE
8
BLACK
6
CONTINUOUS
10
4.8857448818897637
20
-4.0106916929133858
11
4.8768335039370081
21
-4.0196030708661414
0
LINE
8
BLACK
6
CONTINUOUS
10
4.8768335039370081
20
-4.0196030708661414
11
4.8689759448818899
21
-4.0294561417322834
0
LINE
8
BLACK
6
CONTINUOUS
10
4.8689759448818899
20
-4.0294561417322834
11
4.8622709842519685
21
-4.040127047244094
0
LINE
8
BLACK
6
CONTINUOUS
10
4.8622709842519685
20
-4.040127047244094
11
4.8568029133858266
21
-4.0514815748031499
0
LINE
8
BLACK
6
CONTINUOUS
10
4.8568029133858266
20
-4.0514815748031499
11
4.8526405511811026
21
-4.0633769291338586
0
LINE
8
BLACK
6
CONTINUOUS
10
4.8526405511811026
20
-4.0633769291338586
11
4.849836220472441
21
-4.0756635039370082
0
LINE
8
BLACK
6
CONTINUOUS
10
4.849836220472441
20
-4.0756635039370082
11
4.8484251968503935
21
-4.0881868110236219
0
LINE
8
BLACK
6
CONTINUOUS
10
4.8484251968503935
20
-4.0881868110236219
11
4.8484251968503935
21
-4.1007894094488186
0
LINE
8
BLACK
6
CONTINUOUS
10
5.1021315748031491
20
-2.2536094094488188
11
5.1148292913385829
21
-2.256507598425197
0
LINE
8
BLACK
6
CONTINUOUS
10
5.1148292913385829
20
-2.256507598425197
11
5.1271226377952752
21
-2.2608092125984252
0
LINE
8
BLACK
6
CONTINUOUS
10
5.1271226377952752
20
-2.2608092125984252
11
5.1388570866141734
21
-2.2664602362204724
0
LINE
8
BLACK
6
CONTINUOUS
10
5.1388570866141734
20
-2.2664602362204724
11
5.1498850000000003
21
-2.273389527559055
0
LINE
8
BLACK
6
CONTINUOUS
10
5.1498850000000003
20
-2.273389527559055
11
5.1600677559055113
21
-2.2815100393700787
0
LINE
8
BLACK
6
CONTINUOUS
10
5.1600677559055113
20
-2.2815100393700787
11
5.1692772834645666
21
-2.2907195669291336
0
LINE
8
BLACK
6
CONTINUOUS
10
5.1692772834645666
20
-2.2907195669291336
11
5.1773977952755903
21
-2.3009023228346455
0
LINE
8
BLACK
6
CONTINUOUS
10
5.1773977952755903
20
-2.3009023228346455
11
5.1843270866141733
21
-2.3119302362204723
0
LINE
8
BLACK
6
CONTINUOUS
10
5.1843270866141733
20
-2.3119302362204723
11
5.1899781102362201
21
-2.3236646850393701
0
LINE
8
BLACK
6
CONTINUOUS
10
5.1899781102362201
20
-2.3236646850393701
11
5.1942797244094487
21
-2.3359580314960628
0
LINE
8
BLACK
6
CONTINUOUS
10
5.1942797244094487
20
-2.3359580314960628
11
5.1971779133858265
21
-2.3486557480314958
0
LINE
8
BLACK
6
CONTINUOUS
10
5.1971779133858265
20
-2.3486557480314958
11
5.1986361417322833
21
-2.3615980708661417
0
LINE
8
BLACK
6
CONTINUOUS
10
5.1986361417322833
20
-2.3615980708661417
11
5.1986361417322833
21
-2.3746223228346457
0
LINE
8
BLACK
6
CONTINUOUS
10
5.1986361417322833
20
-2.3746223228346457
11
5.1971779133858265
21
-2.3875646456692912
0
LINE
8
BLACK
6
CONTINUOUS
10
5.1971779133858265
20
-2.3875646456692912
11
5.1942797244094487
21
-2.4002623622047246
0
LINE
8
BLACK
6
CONTINUOUS
10
5.1942797244094487
20
-2.4002623622047246
11
5.1899781102362201
21
-2.4125557086614173
0
LINE
8
BLACK
6
CONTINUOUS
10
5.1899781102362201
20
-2.4125557086614173
11
5.1843270866141733
21
-2.4242901574803151
0
LINE
8
BLACK
6
CONTINUOUS
10
5.1843270866141733
20
-2.4242901574803151
11
5.1773977952755903
21
-2.4353180708661415
0
LINE
8
BLACK
6
CONTINUOUS
10
5.1773977952755903
20
-2.4353180708661415
11
5.1692772834645666
21
-2.4455008267716534
0
LINE
8
BLACK
6
CONTINUOUS
10
5.1692772834645666
20
-2.4455008267716534
11
5.1600677559055113
21
-2.4547103543307087
0
LINE
8
BLACK
6
CONTINUOUS
10
5.1600677559055113
20
-2.4547103543307087
11
5.1498850000000003
21
-2.4628308661417324
0
LINE
8
BLACK
6
CONTINUOUS
10
5.1498850000000003
20
-2.4628308661417324
11
5.1388570866141734
21
-2.469760157480315
0
LINE
8
BLACK
6
CONTINUOUS
10
5.1388570866141734
20
-2.469760157480315
11
5.1271226377952752
21
-2.4754111811023622
0
LINE
8
BLACK
6
CONTINUOUS
10
5.1271226377952752
20
-2.4754111811023622
11
5.1148292913385829
21
-2.4797127952755904
0
LINE
8
BLACK
6
CONTINUOUS
10
5.1148292913385829
20
-2.4797127952755904
11
5.1021315748031491
21
-2.4826109842519686
0
LINE
8
BLACK
6
CONTINUOUS
10
5.1021315748031491
20
-2.4826109842519686
11
5.089189251968504
21
-2.4840692125984249
0
LINE
8
BLACK
6
CONTINUOUS
10
5.089189251968504
20
-2.4840692125984249
11
5.0761649999999996
21
-2.4840692125984249
0
LINE
8
BLACK
6
CONTINUOUS
10
5.0761649999999996
20
-2.4840692125984249
11
5.0632226771653546
21
-2.4826109842519686
0
LINE
8
BLACK
6
CONTINUOUS
10
5.0632226771653546
20
-2.4826109842519686
11
5.0505249606299207
21
-2.4797127952755904
0
LINE
8
BLACK
6
CONTINUOUS
10
5.0505249606299207
20
-2.4797127952755904
11
5.0382316141732284
21
-2.4754111811023622
0
LINE
8
BLACK
6
CONTINUOUS
10
5.0382316141732284
20
-2.4754111811023622
11
5.0264971653543302
21
-2.469760157480315
0
LINE
8
BLACK
6
CONTINUOUS
10
5.0264971653543302
20
-2.469760157480315
11
5.0154692519685042
21
-2.4628308661417324
0
LINE
8
BLACK
6
CONTINUOUS
10
5.0154692519685042
20
-2.4628308661417324
11
5.0052864960629924
21
-2.4547103543307087
0
LINE
8
BLACK
6
CONTINUOUS
10
5.0052864960629924
20
-2.4547103543307087
11
4.996076968503937
21
-2.4455008267716534
0
LINE
8
BLACK
6
CONTINUOUS
10
4.996076968503937
20
-2.4455008267716534
11
4.9879564566929133
21
-2.4353180708661415
0
LINE
8
BLACK
6
CONTINUOUS
10
4.9879564566929133
20
-2.4353180708661415
11
4.9810271653543303
21
-2.4242901574803151
0
LINE
8
BLACK
6
CONTINUOUS
10
4.9810271653543303
20
-2.4242901574803151
11
4.9753761417322835
21
-2.4125557086614173
0
LINE
8
BLACK
6
CONTINUOUS
10
4.9753761417322835
20
-2.4125557086614173
11
4.9710745275590549
21
-2.4002623622047246
0
LINE
8
BLACK
6
CONTINUOUS
10
4.9710745275590549
20
-2.4002623622047246
11
4.9681763385826772
21
-2.3875646456692912
0
LINE
8
BLACK
6
CONTINUOUS
10
4.9681763385826772
20
-2.3875646456692912
11
4.9667181102362203
21
-2.3746223228346457
0
LINE
8
BLACK
6
CONTINUOUS
10
4.9667181102362203
20
-2.3746223228346457
11
4.9667181102362203
21
-2.3618088976377951
0
LINE
8
BLACK
6
CONTINUOUS
10
4.9667181102362203
20
-2.3618088976377951
11
4.9667181102362203
21
-2.3615980708661417
0
LINE
8
BLACK
6
CONTINUOUS
10
4.9667181102362203
20
-2.3615980708661417
11
4.9681763385826772
21
-2.3486557480314958
0
LINE
8
BLACK
6
CONTINUOUS
10
4.9681763385826772
20
-2.3486557480314958
11
4.9710745275590549
21
-2.3359580314960628
0
LINE
8
BLACK
6
CONTINUOUS
10
4.9710745275590549
20
-2.3359580314960628
11
4.9753761417322835
21
-2.3236646850393701
0
LINE
8
BLACK
6
CONTINUOUS
10
4.9753761417322835
20
-2.3236646850393701
11
4.9810271653543303
21
-2.3119302362204723
0
LINE
8
BLACK
6
CONTINUOUS
10
4.9810271653543303
20
-2.3119302362204723
11
4.9879564566929133
21
-2.3009023228346455
0
LINE
8
BLACK
6
CONTINUOUS
10
4.9879564566929133
20
-2.3009023228346455
11
4.996076968503937
21
-2.2907195669291336
0
LINE
8
BLACK
6
CONTINUOUS
10
4.996076968503937
20
-2.2907195669291336
11
5.0052864960629924
21
-2.2815100393700787
0
LINE
8
BLACK
6
CONTINUOUS
10
5.0052864960629924
20
-2.2815100393700787
11
5.0154692519685042
21
-2.273389527559055
0
LINE
8
BLACK
6
CONTINUOUS
10
5.0154692519685042
20
-2.273389527559055
11
5.0264971653543302
21
-2.2664602362204724
0
LINE
8
BLACK
6
CONTINUOUS
10
5.0264971653543302
20
-2.2664602362204724
11
5.0382316141732284
21
-2.2608092125984252
0
LINE
8
BLACK
6
CONTINUOUS
10
5.0382316141732284
20
-2.2608092125984252
11
5.0505249606299207
21
-2.256507598425197
0
LINE
8
BLACK
6
CONTINUOUS
10
5.0505249606299207
20
-2.256507598425197
11
5.0632226771653546
21
-2.2536094094488188
0
LINE
8
BLACK
6
CONTINUOUS
10
5.0632226771653546
20
-2.2536094094488188
11
5.0761649999999996
21
-2.252151181102362
0
LINE
8
BLACK
6
CONTINUOUS
10
5.0761649999999996
20
-2.252151181102362
11
5.089189251968504
21
-2.252151181102362
0
LINE
8
BLACK
6
CONTINUOUS
10
5.089189251968504
20
-2.252151181102362
11
5.1021315748031491
21
-2.2536094094488188
0
LINE
8
BLACK
6
CONTINUOUS
10
4.9704724015748027
20
-2.3744114960629923
11
4.9718834251968502
21
-2.386934803149606
0
LINE
8
BLACK
6
CONTINUOUS
10
4.9718834251968502
20
-2.386934803149606
11
4.9746877559055118
21
-2.399221377952756
0
LINE
8
BLACK
6
CONTINUOUS
10
4.9746877559055118
20
-2.399221377952756
11
4.9788501181102358
21
-2.4111167322834643
0
LINE
8
BLACK
6
CONTINUOUS
10
4.9788501181102358
20
-2.4111167322834643
11
4.9843181889763777
21
-2.4224712598425198
0
LINE
8
BLACK
6
CONTINUOUS
10
4.9843181889763777
20
-2.4224712598425198
11
4.9910231496062991
21
-2.4331421653543308
0
LINE
8
BLACK
6
CONTINUOUS
10
4.9910231496062991
20
-2.4331421653543308
11
4.9988807086614173
21
-2.4429952362204723
0
LINE
8
BLACK
6
CONTINUOUS
10
4.9988807086614173
20
-2.4429952362204723
11
5.007792086614173
21
-2.4519066141732284
0
LINE
8
BLACK
6
CONTINUOUS
10
5.007792086614173
20
-2.4519066141732284
11
5.0176451574803149
21
-2.4597641732283466
0
LINE
8
BLACK
6
CONTINUOUS
10
5.0176451574803149
20
-2.4597641732283466
11
5.0283160629921255
21
-2.4664691338582676
0
LINE
8
BLACK
6
CONTINUOUS
10
5.0283160629921255
20
-2.4664691338582676
11
5.0396705905511814
21
-2.4719372047244095
0
LINE
8
BLACK
6
CONTINUOUS
10
5.0396705905511814
20
-2.4719372047244095
11
5.0515659448818893
21
-2.4760995669291339
0
LINE
8
BLACK
6
CONTINUOUS
10
5.0515659448818893
20
-2.4760995669291339
11
5.0638525196850397
21
-2.4789038976377951
0
LINE
8
BLACK
6
CONTINUOUS
10
5.0638525196850397
20
-2.4789038976377951
11
5.0763758267716534
21
-2.4803149212598425
0
LINE
8
BLACK
6
CONTINUOUS
10
5.0763758267716534
20
-2.4803149212598425
11
5.0889784251968502
21
-2.4803149212598425
0
LINE
8
BLACK
6
CONTINUOUS
10
5.0889784251968502
20
-2.4803149212598425
11
5.1015017322834648
21
-2.4789038976377951
0
LINE
8
BLACK
6
CONTINUOUS
10
5.1015017322834648
20
-2.4789038976377951
11
5.1137883070866144
21
-2.4760995669291339
0
LINE
8
BLACK
6
CONTINUOUS
10
5.1137883070866144
20
-2.4760995669291339
11
5.1256836614173231
21
-2.4719372047244095
0
LINE
8
BLACK
6
CONTINUOUS
10
5.1256836614173231
20
-2.4719372047244095
11
5.1370381889763781
21
-2.4664691338582676
0
LINE
8
BLACK
6
CONTINUOUS
10
5.1370381889763781
20
-2.4664691338582676
11
5.1477090944881887
21
-2.4597641732283466
0
LINE
8
BLACK
6
CONTINUOUS
10
5.1477090944881887
20
-2.4597641732283466
11
5.1575621653543307
21
-2.4519066141732284
0
LINE
8
BLACK
6
CONTINUOUS
10
5.1575621653543307
20
-2.4519066141732284
11
5.1664735433070863
21
-2.4429952362204723
0
LINE
8
BLACK
6
CONTINUOUS
10
5.1664735433070863
20
-2.4429952362204723
11
5.1743311023622045
21
-2.4331421653543308
0
LINE
8
BLACK
6
CONTINUOUS
10
5.1743311023622045
20
-2.4331421653543308
11
5.1810360629921259
21
-2.4224712598425198
0
LINE
8
BLACK
6
CONTINUOUS
10
5.1810360629921259
20
-2.4224712598425198
11
5.1865041338582678
21
-2.4111167322834643
0
LINE
8
BLACK
6
CONTINUOUS
10
5.1865041338582678
20
-2.4111167322834643
11
5.1906664960629918
21
-2.399221377952756
0
LINE
8
BLACK
6
CONTINUOUS
10
5.1906664960629918
20
-2.399221377952756
11
5.1934708267716534
21
-2.386934803149606
0
LINE
8
BLACK
6
CONTINUOUS
10
5.1934708267716534
20
-2.386934803149606
11
5.1948818503937009
21
-2.3744114960629923
0
LINE
8
BLACK
6
CONTINUOUS
10
5.1948818503937009
20
-2.3744114960629923
11
5.1948818503937009
21
-2.3618088976377951
0
LINE
8
BLACK
6
CONTINUOUS
10
5.1948818503937009
20
-2.3618088976377951
11
5.1934708267716534
21
-2.3492855905511809
0
LINE
8
BLACK
6
CONTINUOUS
10
5.1934708267716534
20
-2.3492855905511809
11
5.1906664960629918
21
-2.3369990157480314
0
LINE
8
BLACK
6
CONTINUOUS
10
5.1906664960629918
20
-2.3369990157480314
11
5.1865041338582678
21
-2.3251036614173226
0
LINE
8
BLACK
6
CONTINUOUS
10
5.1865041338582678
20
-2.3251036614173226
11
5.1810360629921259
21
-2.3137491338582676
0
LINE
8
BLACK
6
CONTINUOUS
10
5.1810360629921259
20
-2.3137491338582676
11
5.1743311023622045
21
-2.3030782283464566
0
LINE
8
BLACK
6
CONTINUOUS
10
5.1743311023622045
20
-2.3030782283464566
11
5.1664735433070863
21
-2.2932251574803151
0
LINE
8
BLACK
6
CONTINUOUS
10
5.1664735433070863
20
-2.2932251574803151
11
5.1575621653543307
21
-2.284313779527559
0
LINE
8
BLACK
6
CONTINUOUS
10
5.1575621653543307
20
-2.284313779527559
11
5.1477090944881887
21
-2.2764562204724408
0
LINE
8
BLACK
6
CONTINUOUS
10
5.1477090944881887
20
-2.2764562204724408
11
5.1370381889763781
21
-2.2697512598425198
0
LINE
8
BLACK
6
CONTINUOUS
10
5.1370381889763781
20
-2.2697512598425198
11
5.1256836614173231
21
-2.2642831889763779
0
LINE
8
BLACK
6
CONTINUOUS
10
5.1256836614173231
20
-2.2642831889763779
11
5.1137883070866144
21
-2.2601208267716535
0
LINE
8
BLACK
6
CONTINUOUS
10
5.1137883070866144
20
-2.2601208267716535
11
5.1015017322834648
21
-2.2573164960629919
0
LINE
8
BLACK
6
CONTINUOUS
10
5.1015017322834648
20
-2.2573164960629919
11
5.0889784251968502
21
-2.2559054724409449
0
LINE
8
BLACK
6
CONTINUOUS
10
5.0889784251968502
20
-2.2559054724409449
11
5.0763758267716534
21
-2.2559054724409449
0
LINE
8
BLACK
6
CONTINUOUS
10
5.0763758267716534
20
-2.2559054724409449
11
5.0638525196850397
21
-2.2573164960629919
0
LINE
8
BLACK
6
CONTINUOUS
10
5.0638525196850397
20
-2.2573164960629919
11
5.0515659448818893
21
-2.2601208267716535
0
LINE
8
BLACK
6
CONTINUOUS
10
5.0515659448818893
20
-2.2601208267716535
11
5.0396705905511814
21
-2.2642831889763779
0
LINE
8
BLACK
6
CONTINUOUS
10
5.0396705905511814
20
-2.2642831889763779
11
5.0283160629921255
21
-2.2697512598425198
0
LINE
8
BLACK
6
CONTINUOUS
10
5.0283160629921255
20
-2.2697512598425198
11
5.0176451574803149
21
-2.2764562204724408
0
LINE
8
BLACK
6
CONTINUOUS
10
5.0176451574803149
20
-2.2764562204724408
11
5.007792086614173
21
-2.284313779527559
0
LINE
8
BLACK
6
CONTINUOUS
10
5.007792086614173
20
-2.284313779527559
11
4.9988807086614173
21
-2.2932251574803151
0
LINE
8
BLACK
6
CONTINUOUS
10
4.9988807086614173
20
-2.2932251574803151
11
4.9910231496062991
21
-2.3030782283464566
0
LINE
8
BLACK
6
CONTINUOUS
10
4.9910231496062991
20
-2.3030782283464566
11
4.9843181889763777
21
-2.3137491338582676
0
LINE
8
BLACK
6
CONTINUOUS
10
4.9843181889763777
20
-2.3137491338582676
11
4.9788501181102358
21
-2.3251036614173226
0
LINE
8
BLACK
6
CONTINUOUS
10
4.9788501181102358
20
-2.3251036614173226
11
4.9746877559055118
21
-2.3369990157480314
0
LINE
8
BLACK
6
CONTINUOUS
10
4.9746877559055118
20
-2.3369990157480314
11
4.9718834251968502
21
-2.3492855905511809
0
LINE
8
BLACK
6
CONTINUOUS
10
4.9718834251968502
20
-2.3492855905511809
11
4.9704724015748027
21
-2.3618088976377951
0
LINE
8
BLACK
6
CONTINUOUS
10
4.9704724015748027
20
-2.3618088976377951
11
4.9704724015748027
21
-2.3744114960629923
0
LINE
8
BLACK
6
CONTINUOUS
10
6.3541000787401574
20
-2.2536094094488188
11
6.3667977952755903
21
-2.256507598425197
0
LINE
8
BLACK
6
CONTINUOUS
10
6.3667977952755903
20
-2.256507598425197
11
6.3790911417322835
21
-2.2608092125984252
0
LINE
8
BLACK
6
CONTINUOUS
10
6.3790911417322835
20
-2.2608092125984252
11
6.3908255905511808
21
-2.2664602362204724
0
LINE
8
BLACK
6
CONTINUOUS
10
6.3908255905511808
20
-2.2664602362204724
11
6.4018535039370077
21
-2.273389527559055
0
LINE
8
BLACK
6
CONTINUOUS
10
6.4018535039370077
20
-2.273389527559055
11
6.4120362598425196
21
-2.2815100393700787
0
LINE
8
BLACK
6
CONTINUOUS
10
6.4120362598425196
20
-2.2815100393700787
11
6.4212457874015749
21
-2.2907195669291336
0
LINE
8
BLACK
6
CONTINUOUS
10
6.4212457874015749
20
-2.2907195669291336
11
6.4293662992125986
21
-2.3009023228346455
0
LINE
8
BLACK
6
CONTINUOUS
10
6.4293662992125986
20
-2.3009023228346455
11
6.4362955905511807
21
-2.3119302362204723
0
LINE
8
BLACK
6
CONTINUOUS
10
6.4362955905511807
20
-2.3119302362204723
11
6.4419466141732284
21
-2.3236646850393701
0
LINE
8
BLACK
6
CONTINUOUS
10
6.4419466141732284
20
-2.3236646850393701
11
6.4462482283464562
21
-2.3359580314960628
0
LINE
8
BLACK
6
CONTINUOUS
10
6.4462482283464562
20
-2.3359580314960628
11
6.4491464173228348
21
-2.3486557480314958
0
LINE
8
BLACK
6
CONTINUOUS
10
6.4491464173228348
20
-2.3486557480314958
11
6.4506046456692916
21
-2.3615980708661417
0
LINE
8
BLACK
6
CONTINUOUS
10
6.4506046456692916
20
-2.3615980708661417
11
6.4506046456692916
21
-2.3746223228346457
0
LINE
8
BLACK
6
CONTINUOUS
10
6.4506046456692916
20
-2.3746223228346457
11
6.4491464173228348
21
-2.3875646456692912
0
LINE
8
BLACK
6
CONTINUOUS
10
6.4491464173228348
20
-2.3875646456692912
11
6.4462482283464562
21
-2.4002623622047246
0
LINE
8
BLACK
6
CONTINUOUS
10
6.4462482283464562
20
-2.4002623622047246
11
6.4419466141732284
21
-2.4125557086614173
0
LINE
8
BLACK
6
CONTINUOUS
10
6.4419466141732284
20
-2.4125557086614173
11
6.4362955905511807
21
-2.4242901574803151
0
LINE
8
BLACK
6
CONTINUOUS
10
6.4362955905511807
20
-2.4242901574803151
11
6.4293662992125986
21
-2.4353180708661415
0
LINE
8
BLACK
6
CONTINUOUS
10
6.4293662992125986
20
-2.4353180708661415
11
6.4212457874015749
21
-2.4455008267716534
0
LINE
8
BLACK
6
CONTINUOUS
10
6.4212457874015749
20
-2.4455008267716534
11
6.4120362598425196
21
-2.4547103543307087
0
LINE
8
BLACK
6
CONTINUOUS
10
6.4120362598425196
20
-2.4547103543307087
11
6.4018535039370077
21
-2.4628308661417324
0
LINE
8
BLACK
6
CONTINUOUS
10
6.4018535039370077
20
-2.4628308661417324
11
6.3908255905511808
21
-2.469760157480315
0
LINE
8
BLACK
6
CONTINUOUS
10
6.3908255905511808
20
-2.469760157480315
11
6.3790911417322835
21
-2.4754111811023622
0
LINE
8
BLACK
6
CONTINUOUS
10
6.3790911417322835
20
-2.4754111811023622
11
6.3667977952755903
21
-2.4797127952755904
0
LINE
8
BLACK
6
CONTINUOUS
10
6.3667977952755903
20
-2.4797127952755904
11
6.3541000787401574
21
-2.4826109842519686
0
LINE
8
BLACK
6
CONTINUOUS
10
6.3541000787401574
20
-2.4826109842519686
11
6.3411577559055115
21
-2.4840692125984249
0
LINE
8
BLACK
6
CONTINUOUS
10
6.3411577559055115
20
-2.4840692125984249
11
6.3281335039370079
21
-2.4840692125984249
0
LINE
8
BLACK
6
CONTINUOUS
10
6.3281335039370079
20
-2.4840692125984249
11
6.315191181102362
21
-2.4826109842519686
0
LINE
8
BLACK
6
CONTINUOUS
10
6.315191181102362
20
-2.4826109842519686
11
6.302493464566929
21
-2.4797127952755904
0
LINE
8
BLACK
6
CONTINUOUS
10
6.302493464566929
20
-2.4797127952755904
11
6.2902001181102358
21
-2.4754111811023622
0
LINE
8
BLACK
6
CONTINUOUS
10
6.2902001181102358
20
-2.4754111811023622
11
6.2784656692913385
21
-2.469760157480315
0
LINE
8
BLACK
6
CONTINUOUS
10
6.2784656692913385
20
-2.469760157480315
11
6.2674377559055117
21
-2.4628308661417324
0
LINE
8
BLACK
6
CONTINUOUS
10
6.2674377559055117
20
-2.4628308661417324
11
6.2572549999999998
21
-2.4547103543307087
0
LINE
8
BLACK
6
CONTINUOUS
10
6.2572549999999998
20
-2.4547103543307087
11
6.2480454724409444
21
-2.4455008267716534
0
LINE
8
BLACK
6
CONTINUOUS
10
6.2480454724409444
20
-2.4455008267716534
11
6.2399249606299207
21
-2.4353180708661415
0
LINE
8
BLACK
6
CONTINUOUS
10
6.2399249606299207
20
-2.4353180708661415
11
6.2329956692913386
21
-2.4242901574803151
0
LINE
8
BLACK
6
CONTINUOUS
10
6.2329956692913386
20
-2.4242901574803151
11
6.2273446456692909
21
-2.4125557086614173
0
LINE
8
BLACK
6
CONTINUOUS
10
6.2273446456692909
20
-2.4125557086614173
11
6.2230430314960632
21
-2.4002623622047246
0
LINE
8
BLACK
6
CONTINUOUS
10
6.2230430314960632
20
-2.4002623622047246
11
6.2201448425196846
21
-2.3875646456692912
0
LINE
8
BLACK
6
CONTINUOUS
10
6.2201448425196846
20
-2.3875646456692912
11
6.2186866141732278
21
-2.3746223228346457
0
LINE
8
BLACK
6
CONTINUOUS
10
6.2186866141732278
20
-2.3746223228346457
11
6.2186866141732278
21
-2.3618088976377951
0
LINE
8
BLACK
6
CONTINUOUS
10
6.2186866141732278
20
-2.3618088976377951
11
6.2186866141732278
21
-2.3615980708661417
0
LINE
8
BLACK
6
CONTINUOUS
10
6.2186866141732278
20
-2.3615980708661417
11
6.2201448425196846
21
-2.3486557480314958
0
LINE
8
BLACK
6
CONTINUOUS
10
6.2201448425196846
20
-2.3486557480314958
11
6.2230430314960632
21
-2.3359580314960628
0
LINE
8
BLACK
6
CONTINUOUS
10
6.2230430314960632
20
-2.3359580314960628
11
6.2273446456692909
21
-2.3236646850393701
0
LINE
8
BLACK
6
CONTINUOUS
10
6.2273446456692909
20
-2.3236646850393701
11
6.2329956692913386
21
-2.3119302362204723
0
LINE
8
BLACK
6
CONTINUOUS
10
6.2329956692913386
20
-2.3119302362204723
11
6.2399249606299207
21
-2.3009023228346455
0
LINE
8
BLACK
6
CONTINUOUS
10
6.2399249606299207
20
-2.3009023228346455
11
6.2480454724409444
21
-2.2907195669291336
0
LINE
8
BLACK
6
CONTINUOUS
10
6.2480454724409444
20
-2.2907195669291336
11
6.2572549999999998
21
-2.2815100393700787
0
LINE
8
BLACK
6
CONTINUOUS
10
6.2572549999999998
20
-2.2815100393700787
11
6.2674377559055117
21
-2.273389527559055
0
LINE
8
BLACK
6
CONTINUOUS
10
6.2674377559055117
20
-2.273389527559055
11
6.2784656692913385
21
-2.2664602362204724
0
LINE
8
BLACK
6
CONTINUOUS
10
6.2784656692913385
20
-2.2664602362204724
11
6.2902001181102358
21
-2.2608092125984252
0
LINE
8
BLACK
6
CONTINUOUS
10
6.2902001181102358
20
-2.2608092125984252
11
6.302493464566929
21
-2.256507598425197
0
LINE
8
BLACK
6
CONTINUOUS
10
6.302493464566929
20
-2.256507598425197
11
6.315191181102362
21
-2.2536094094488188
0
LINE
8
BLACK
6
CONTINUOUS
10
6.315191181102362
20
-2.2536094094488188
11
6.3281335039370079
21
-2.252151181102362
0
LINE
8
BLACK
6
CONTINUOUS
10
6.3281335039370079
20
-2.252151181102362
11
6.3411577559055115
21
-2.252151181102362
0
LINE
8
BLACK
6
CONTINUOUS
10
6.3411577559055115
20
-2.252151181102362
11
6.3541000787401574
21
-2.2536094094488188
0
LINE
8
BLACK
6
CONTINUOUS
10
6.2224409055118111
20
-2.3744114960629923
11
6.2238519291338585
21
-2.386934803149606
0
LINE
8
BLACK
6
CONTINUOUS
10
6.2238519291338585
20
-2.386934803149606
11
6.2266562598425192
21
-2.399221377952756
0
LINE
8
BLACK
6
CONTINUOUS
10
6.2266562598425192
20
-2.399221377952756
11
6.2308186220472441
21
-2.4111167322834643
0
LINE
8
BLACK
6
CONTINUOUS
10
6.2308186220472441
20
-2.4111167322834643
11
6.236286692913386
21
-2.4224712598425198
0
LINE
8
BLACK
6
CONTINUOUS
10
6.236286692913386
20
-2.4224712598425198
11
6.2429916535433065
21
-2.4331421653543308
0
LINE
8
BLACK
6
CONTINUOUS
10
6.2429916535433065
20
-2.4331421653543308
11
6.2508492125984247
21
-2.4429952362204723
0
LINE
8
BLACK
6
CONTINUOUS
10
6.2508492125984247
20
-2.4429952362204723
11
6.2597605905511813
21
-2.4519066141732284
0
LINE
8
BLACK
6
CONTINUOUS
10
6.2597605905511813
20
-2.4519066141732284
11
6.2696136614173223
21
-2.4597641732283466
0
LINE
8
BLACK
6
CONTINUOUS
10
6.2696136614173223
20
-2.4597641732283466
11
6.2802845669291338
21
-2.4664691338582676
0
LINE
8
BLACK
6
CONTINUOUS
10
6.2802845669291338
20
-2.4664691338582676
11
6.2916390944881888
21
-2.4719372047244095
0
LINE
8
BLACK
6
CONTINUOUS
10
6.2916390944881888
20
-2.4719372047244095
11
6.3035344488188976
21
-2.4760995669291339
0
LINE
8
BLACK
6
CONTINUOUS
10
6.3035344488188976
20
-2.4760995669291339
11
6.3158210236220471
21
-2.4789038976377951
0
LINE
8
BLACK
6
CONTINUOUS
10
6.3158210236220471
20
-2.4789038976377951
11
6.3283443307086609
21
-2.4803149212598425
0
LINE
8
BLACK
6
CONTINUOUS
10
6.3283443307086609
20
-2.4803149212598425
11
6.3409469291338585
21
-2.4803149212598425
0
LINE
8
BLACK
6
CONTINUOUS
10
6.3409469291338585
20
-2.4803149212598425
11
6.3534702362204722
21
-2.4789038976377951
0
LINE
8
BLACK
6
CONTINUOUS
10
6.3534702362204722
20
-2.4789038976377951
11
6.3657568110236218
21
-2.4760995669291339
0
LINE
8
BLACK
6
CONTINUOUS
10
6.3657568110236218
20
-2.4760995669291339
11
6.3776521653543305
21
-2.4719372047244095
0
LINE
8
BLACK
6
CONTINUOUS
10
6.3776521653543305
20
-2.4719372047244095
11
6.3890066929133855
21
-2.4664691338582676
0
LINE
8
BLACK
6
CONTINUOUS
10
6.3890066929133855
20
-2.4664691338582676
11
6.399677598425197
21
-2.4597641732283466
0
LINE
8
BLACK
6
CONTINUOUS
10
6.399677598425197
20
-2.4597641732283466
11
6.4095306692913381
21
-2.4519066141732284
0
LINE
8
BLACK
6
CONTINUOUS
10
6.4095306692913381
20
-2.4519066141732284
11
6.4184420472440946
21
-2.4429952362204723
0
LINE
8
BLACK
6
CONTINUOUS
10
6.4184420472440946
20
-2.4429952362204723
11
6.4262996062992128
21
-2.4331421653543308
0
LINE
8
BLACK
6
CONTINUOUS
10
6.4262996062992128
20
-2.4331421653543308
11
6.4330045669291334
21
-2.4224712598425198
0
LINE
8
BLACK
6
CONTINUOUS
10
6.4330045669291334
20
-2.4224712598425198
11
6.4384726377952752
21
-2.4111167322834643
0
LINE
8
BLACK
6
CONTINUOUS
10
6.4384726377952752
20
-2.4111167322834643
11
6.4426350000000001
21
-2.399221377952756
0
LINE
8
BLACK
6
CONTINUOUS
10
6.4426350000000001
20
-2.399221377952756
11
6.4454393307086617
21
-2.386934803149606
0
LINE
8
BLACK
6
CONTINUOUS
10
6.4454393307086617
20
-2.386934803149606
11
6.4468503543307083
21
-2.3744114960629923
0
LINE
8
BLACK
6
CONTINUOUS
10
6.4468503543307083
20
-2.3744114960629923
11
6.4468503543307083
21
-2.3618088976377951
0
LINE
8
BLACK
6
CONTINUOUS
10
6.4468503543307083
20
-2.3618088976377951
11
6.4454393307086617
21
-2.3492855905511809
0
LINE
8
BLACK
6
CONTINUOUS
10
6.4454393307086617
20
-2.3492855905511809
11
6.4426350000000001
21
-2.3369990157480314
0
LINE
8
BLACK
6
CONTINUOUS
10
6.4426350000000001
20
-2.3369990157480314
11
6.4384726377952752
21
-2.3251036614173226
0
LINE
8
BLACK
6
CONTINUOUS
10
6.4384726377952752
20
-2.3251036614173226
11
6.4330045669291334
21
-2.3137491338582676
0
LINE
8
BLACK
6
CONTINUOUS
10
6.4330045669291334
20
-2.3137491338582676
11
6.4262996062992128
21
-2.3030782283464566
0
LINE
8
BLACK
6
CONTINUOUS
10
6.4262996062992128
20
-2.3030782283464566
11
6.4184420472440946
21
-2.2932251574803151
0
LINE
8
BLACK
6
CONTINUOUS
10
6.4184420472440946
20
-2.2932251574803151
11
6.4095306692913381
21
-2.284313779527559
0
LINE
8
BLACK
6
CONTINUOUS
10
6.4095306692913381
20
-2.284313779527559
11
6.399677598425197
21
-2.2764562204724408
0
LINE
8
BLACK
6
CONTINUOUS
10
6.399677598425197
20
-2.2764562204724408
11
6.3890066929133855
21
-2.2697512598425198
0
LINE
8
BLACK
6
CONTINUOUS
10
6.3890066929133855
20
-2.2697512598425198
11
6.3776521653543305
21
-2.2642831889763779
0
LINE
8
BLACK
6
CONTINUOUS
10
6.3776521653543305
20
-2.2642831889763779
11
6.3657568110236218
21
-2.2601208267716535
0
LINE
8
BLACK
6
CONTINUOUS
10
6.3657568110236218
20
-2.2601208267716535
11
6.3534702362204722
21
-2.2573164960629919
0
LINE
8
BLACK
6
CONTINUOUS
10
6.3534702362204722
20
-2.2573164960629919
11
6.3409469291338585
21
-2.2559054724409449
0
LINE
8
BLACK
6
CONTINUOUS
10
6.3409469291338585
20
-2.2559054724409449
11
6.3283443307086609
21
-2.2559054724409449
0
LINE
8
BLACK
6
CONTINUOUS
10
6.3283443307086609
20
-2.2559054724409449
11
6.3158210236220471
21
-2.2573164960629919
0
LINE
8
BLACK
6
CONTINUOUS
10
6.3158210236220471
20
-2.2573164960629919
11
6.3035344488188976
21
-2.2601208267716535
0
LINE
8
BLACK
6
CONTINUOUS
10
6.3035344488188976
20
-2.2601208267716535
11
6.2916390944881888
21
-2.2642831889763779
0
LINE
8
BLACK
6
CONTINUOUS
10
6.2916390944881888
20
-2.2642831889763779
11
6.2802845669291338
21
-2.2697512598425198
0
LINE
8
BLACK
6
CONTINUOUS
10
6.2802845669291338
20
-2.2697512598425198
11
6.2696136614173223
21
-2.2764562204724408
0
LINE
8
BLACK
6
CONTINUOUS
10
6.2696136614173223
20
-2.2764562204724408
11
6.2597605905511813
21
-2.284313779527559
0
LINE
8
BLACK
6
CONTINUOUS
10
6.2597605905511813
20
-2.284313779527559
11
6.2508492125984247
21
-2.2932251574803151
0
LINE
8
BLACK
6
CONTINUOUS
10
6.2508492125984247
20
-2.2932251574803151
11
6.2429916535433065
21
-2.3030782283464566
0
LINE
8
BLACK
6
CONTINUOUS
10
6.2429916535433065
20
-2.3030782283464566
11
6.236286692913386
21
-2.3137491338582676
0
LINE
8
BLACK
6
CONTINUOUS
10
6.236286692913386
20
-2.3137491338582676
11
6.2308186220472441
21
-2.3251036614173226
0
LINE
8
BLACK
6
CONTINUOUS
10
6.2308186220472441
20
-2.3251036614173226
11
6.2266562598425192
21
-2.3369990157480314
0
LINE
8
BLACK
6
CONTINUOUS
10
6.2266562598425192
20
-2.3369990157480314
11
6.2238519291338585
21
-2.3492855905511809
0
LINE
8
BLACK
6
CONTINUOUS
10
6.2238519291338585
20
-2.3492855905511809
11
6.2224409055118111
21
-2.3618088976377951
0
LINE
8
BLACK
6
CONTINUOUS
10
6.2224409055118111
20
-2.3618088976377951
11
6.2224409055118111
21
-2.3744114960629923
0
LINE
8
BLACK
6
CONTINUOUS
10
5.1021315748031491
20
-1.2969164960629922
11
5.1148292913385829
21
-1.2998146850393701
0
LINE
8
BLACK
6
CONTINUOUS
10
5.1148292913385829
20
-1.2998146850393701
11
5.1271226377952752
21
-1.3041162992125983
0
LINE
8
BLACK
6
CONTINUOUS
10
5.1271226377952752
20
-1.3041162992125983
11
5.1388570866141734
21
-1.3097673228346456
0
LINE
8
BLACK
6
CONTINUOUS
10
5.1388570866141734
20
-1.3097673228346456
11
5.1498850000000003
21
-1.3166966141732284
0
LINE
8
BLACK
6
CONTINUOUS
10
5.1498850000000003
20
-1.3166966141732284
11
5.1600677559055113
21
-1.3248171259842518
0
LINE
8
BLACK
6
CONTINUOUS
10
5.1600677559055113
20
-1.3248171259842518
11
5.1692772834645666
21
-1.334026653543307
0
LINE
8
BLACK
6
CONTINUOUS
10
5.1692772834645666
20
-1.334026653543307
11
5.1773977952755903
21
-1.3442094094488188
0
LINE
8
BLACK
6
CONTINUOUS
10
5.1773977952755903
20
-1.3442094094488188
11
5.1843270866141733
21
-1.3552373228346457
0
LINE
8
BLACK
6
CONTINUOUS
10
5.1843270866141733
20
-1.3552373228346457
11
5.1899781102362201
21
-1.3669717716535432
0
LINE
8
BLACK
6
CONTINUOUS
10
5.1899781102362201
20
-1.3669717716535432
11
5.1942797244094487
21
-1.3792651181102362
0
LINE
8
BLACK
6
CONTINUOUS
10
5.1942797244094487
20
-1.3792651181102362
11
5.1971779133858265
21
-1.3919628346456692
0
LINE
8
BLACK
6
CONTINUOUS
10
5.1971779133858265
20
-1.3919628346456692
11
5.1986361417322833
21
-1.4049051574803149
0
LINE
8
BLACK
6
CONTINUOUS
10
5.1986361417322833
20
-1.4049051574803149
11
5.1986361417322833
21
-1.4179294094488188
0
LINE
8
BLACK
6
CONTINUOUS
10
5.1986361417322833
20
-1.4179294094488188
11
5.1971779133858265
21
-1.4308717322834645
0
LINE
8
BLACK
6
CONTINUOUS
10
5.1971779133858265
20
-1.4308717322834645
11
5.1942797244094487
21
-1.4435694488188977
0
LINE
8
BLACK
6
CONTINUOUS
10
5.1942797244094487
20
-1.4435694488188977
11
5.1899781102362201
21
-1.4558627952755905
0
LINE
8
BLACK
6
CONTINUOUS
10
5.1899781102362201
20
-1.4558627952755905
11
5.1843270866141733
21
-1.4675972440944882
0
LINE
8
BLACK
6
CONTINUOUS
10
5.1843270866141733
20
-1.4675972440944882
11
5.1773977952755903
21
-1.4786251574803149
0
LINE
8
BLACK
6
CONTINUOUS
10
5.1773977952755903
20
-1.4786251574803149
11
5.1692772834645666
21
-1.4888079133858267
0
LINE
8
BLACK
6
CONTINUOUS
10
5.1692772834645666
20
-1.4888079133858267
11
5.1600677559055113
21
-1.4980174409448819
0
LINE
8
BLACK
6
CONTINUOUS
10
5.1600677559055113
20
-1.4980174409448819
11
5.1498850000000003
21
-1.5061379527559056
0
LINE
8
BLACK
6
CONTINUOUS
10
5.1498850000000003
20
-1.5061379527559056
11
5.1388570866141734
21
-1.5130672440944881
0
LINE
8
BLACK
6
CONTINUOUS
10
5.1388570866141734
20
-1.5130672440944881
11
5.1271226377952752
21
-1.5187182677165354
0
LINE
8
BLACK
6
CONTINUOUS
10
5.1271226377952752
20
-1.5187182677165354
11
5.1148292913385829
21
-1.5230198818897638
0
LINE
8
BLACK
6
CONTINUOUS
10
5.1148292913385829
20
-1.5230198818897638
11
5.1021315748031491
21
-1.5259180708661417
0
LINE
8
BLACK
6
CONTINUOUS
10
5.1021315748031491
20
-1.5259180708661417
11
5.089189251968504
21
-1.5273762992125983
0
LINE
8
BLACK
6
CONTINUOUS
10
5.089189251968504
20
-1.5273762992125983
11
5.0761649999999996
21
-1.5273762992125983
0
LINE
8
BLACK
6
CONTINUOUS
10
5.0761649999999996
20
-1.5273762992125983
11
5.0632226771653546
21
-1.5259180708661417
0
LINE
8
BLACK
6
CONTINUOUS
10
5.0632226771653546
20
-1.5259180708661417
11
5.0505249606299207
21
-1.5230198818897638
0
LINE
8
BLACK
6
CONTINUOUS
10
5.0505249606299207
20
-1.5230198818897638
11
5.0382316141732284
21
-1.5187182677165354
0
LINE
8
BLACK
6
CONTINUOUS
10
5.0382316141732284
20
-1.5187182677165354
11
5.0264971653543302
21
-1.5130672440944881
0
LINE
8
BLACK
6
CONTINUOUS
10
5.0264971653543302
20
-1.5130672440944881
11
5.0154692519685042
21
-1.5061379527559056
0
LINE
8
BLACK
6
CONTINUOUS
10
5.0154692519685042
20
-1.5061379527559056
11
5.0052864960629924
21
-1.4980174409448819
0
LINE
8
BLACK
6
CONTINUOUS
10
5.0052864960629924
20
-1.4980174409448819
11
4.996076968503937
21
-1.4888079133858267
0
LINE
8
BLACK
6
CONTINUOUS
10
4.996076968503937
20
-1.4888079133858267
11
4.9879564566929133
21
-1.4786251574803149
0
LINE
8
BLACK
6
CONTINUOUS
10
4.9879564566929133
20
-1.4786251574803149
11
4.9810271653543303
21
-1.4675972440944882
0
LINE
8
BLACK
6
CONTINUOUS
10
4.9810271653543303
20
-1.4675972440944882
11
4.9753761417322835
21
-1.4558627952755905
0
LINE
8
BLACK
6
CONTINUOUS
10
4.9753761417322835
20
-1.4558627952755905
11
4.9710745275590549
21
-1.4435694488188977
0
LINE
8
BLACK
6
CONTINUOUS
10
4.9710745275590549
20
-1.4435694488188977
11
4.9681763385826772
21
-1.4308717322834645
0
LINE
8
BLACK
6
CONTINUOUS
10
4.9681763385826772
20
-1.4308717322834645
11
4.9667181102362203
21
-1.4179294094488188
0
LINE
8
BLACK
6
CONTINUOUS
10
4.9667181102362203
20
-1.4179294094488188
11
4.9667181102362203
21
-1.4051159842519685
0
LINE
8
BLACK
6
CONTINUOUS
10
4.9667181102362203
20
-1.4051159842519685
11
4.9667181102362203
21
-1.4049051574803149
0
LINE
8
BLACK
6
CONTINUOUS
10
4.9667181102362203
20
-1.4049051574803149
11
4.9681763385826772
21
-1.3919628346456692
0
LINE
8
BLACK
6
CONTINUOUS
10
4.9681763385826772
20
-1.3919628346456692
11
4.9710745275590549
21
-1.3792651181102362
0
LINE
8
BLACK
6
CONTINUOUS
10
4.9710745275590549
20
-1.3792651181102362
11
4.9753761417322835
21
-1.3669717716535432
0
LINE
8
BLACK
6
CONTINUOUS
10
4.9753761417322835
20
-1.3669717716535432
11
4.9810271653543303
21
-1.3552373228346457
0
LINE
8
BLACK
6
CONTINUOUS
10
4.9810271653543303
20
-1.3552373228346457
11
4.9879564566929133
21
-1.3442094094488188
0
LINE
8
BLACK
6
CONTINUOUS
10
4.9879564566929133
20
-1.3442094094488188
11
4.996076968503937
21
-1.334026653543307
0
LINE
8
BLACK
6
CONTINUOUS
10
4.996076968503937
20
-1.334026653543307
11
5.0052864960629924
21
-1.3248171259842518
0
LINE
8
BLACK
6
CONTINUOUS
10
5.0052864960629924
20
-1.3248171259842518
11
5.0154692519685042
21
-1.3166966141732284
0
LINE
8
BLACK
6
CONTINUOUS
10
5.0154692519685042
20
-1.3166966141732284
11
5.0264971653543302
21
-1.3097673228346456
0
LINE
8
BLACK
6
CONTINUOUS
10
5.0264971653543302
20
-1.3097673228346456
11
5.0382316141732284
21
-1.3041162992125983
0
LINE
8
BLACK
6
CONTINUOUS
10
5.0382316141732284
20
-1.3041162992125983
11
5.0505249606299207
21
-1.2998146850393701
0
LINE
8
BLACK
6
CONTINUOUS
10
5.0505249606299207
20
-1.2998146850393701
11
5.0632226771653546
21
-1.2969164960629922
0
LINE
8
BLACK
6
CONTINUOUS
10
5.0632226771653546
20
-1.2969164960629922
11
5.0761649999999996
21
-1.2954582677165354
0
LINE
8
BLACK
6
CONTINUOUS
10
5.0761649999999996
20
-1.2954582677165354
11
5.089189251968504
21
-1.2954582677165354
0
LINE
8
BLACK
6
CONTINUOUS
10
5.089189251968504
20
-1.2954582677165354
11
5.1021315748031491
21
-1.2969164960629922
0
LINE
8
BLACK
6
CONTINUOUS
10
4.9704724015748027
20
-1.4177185826771652
11
4.9718834251968502
21
-1.4302418897637794
0
LINE
8
BLACK
6
CONTINUOUS
10
4.9718834251968502
20
-1.4302418897637794
11
4.9746877559055118
21
-1.4425284645669292
0
LINE
8
BLACK
6
CONTINUOUS
10
4.9746877559055118
20
-1.4425284645669292
11
4.9788501181102358
21
-1.4544238188976377
0
LINE
8
BLACK
6
CONTINUOUS
10
4.9788501181102358
20
-1.4544238188976377
11
4.9843181889763777
21
-1.4657783464566929
0
LINE
8
BLACK
6
CONTINUOUS
10
4.9843181889763777
20
-1.4657783464566929
11
4.9910231496062991
21
-1.476449251968504
0
LINE
8
BLACK
6
CONTINUOUS
10
4.9910231496062991
20
-1.476449251968504
11
4.9988807086614173
21
-1.4863023228346457
0
LINE
8
BLACK
6
CONTINUOUS
10
4.9988807086614173
20
-1.4863023228346457
11
5.007792086614173
21
-1.4952137007874016
0
LINE
8
BLACK
6
CONTINUOUS
10
5.007792086614173
20
-1.4952137007874016
11
5.0176451574803149
21
-1.5030712598425195
0
LINE
8
BLACK
6
CONTINUOUS
10
5.0176451574803149
20
-1.5030712598425195
11
5.0283160629921255
21
-1.509776220472441
0
LINE
8
BLACK
6
CONTINUOUS
10
5.0283160629921255
20
-1.509776220472441
11
5.0396705905511814
21
-1.5152442913385826
0
LINE
8
BLACK
6
CONTINUOUS
10
5.0396705905511814
20
-1.5152442913385826
11
5.0515659448818893
21
-1.5194066535433071
0
LINE
8
BLACK
6
CONTINUOUS
10
5.0515659448818893
20
-1.5194066535433071
11
5.0638525196850397
21
-1.5222109842519684
0
LINE
8
BLACK
6
CONTINUOUS
10
5.0638525196850397
20
-1.5222109842519684
11
5.0763758267716534
21
-1.5236220078740157
0
LINE
8
BLACK
6
CONTINUOUS
10
5.0763758267716534
20
-1.5236220078740157
11
5.0889784251968502
21
-1.5236220078740157
0
LINE
8
BLACK
6
CONTINUOUS
10
5.0889784251968502
20
-1.5236220078740157
11
5.1015017322834648
21
-1.5222109842519684
0
LINE
8
BLACK
6
CONTINUOUS
10
5.1015017322834648
20
-1.5222109842519684
11
5.1137883070866144
21
-1.5194066535433071
0
LINE
8
BLACK
6
CONTINUOUS
10
5.1137883070866144
20
-1.5194066535433071
11
5.1256836614173231
21
-1.5152442913385826
0
LINE
8
BLACK
6
CONTINUOUS
10
5.1256836614173231
20
-1.5152442913385826
11
5.1370381889763781
21
-1.509776220472441
0
LINE
8
BLACK
6
CONTINUOUS
10
5.1370381889763781
20
-1.509776220472441
11
5.1477090944881887
21
-1.5030712598425195
0
LINE
8
BLACK
6
CONTINUOUS
10
5.1477090944881887
20
-1.5030712598425195
11
5.1575621653543307
21
-1.4952137007874016
0
LINE
8
BLACK
6
CONTINUOUS
10
5.1575621653543307
20
-1.4952137007874016
11
5.1664735433070863
21
-1.4863023228346457
0
LINE
8
BLACK
6
CONTINUOUS
10
5.1664735433070863
20
-1.4863023228346457
11
5.1743311023622045
21
-1.476449251968504
0
LINE
8
BLACK
6
CONTINUOUS
10
5.1743311023622045
20
-1.476449251968504
11
5.1810360629921259
21
-1.4657783464566929
0
LINE
8
BLACK
6
CONTINUOUS
10
5.1810360629921259
20
-1.4657783464566929
11
5.1865041338582678
21
-1.4544238188976377
0
LINE
8
BLACK
6
CONTINUOUS
10
5.1865041338582678
20
-1.4544238188976377
11
5.1906664960629918
21
-1.4425284645669292
0
LINE
8
BLACK
6
CONTINUOUS
10
5.1906664960629918
20
-1.4425284645669292
11
5.1934708267716534
21
-1.4302418897637794
0
LINE
8
BLACK
6
CONTINUOUS
10
5.1934708267716534
20
-1.4302418897637794
11
5.1948818503937009
21
-1.4177185826771652
0
LINE
8
BLACK
6
CONTINUOUS
10
5.1948818503937009
20
-1.4177185826771652
11
5.1948818503937009
21
-1.4051159842519685
0
LINE
8
BLACK
6
CONTINUOUS
10
5.1948818503937009
20
-1.4051159842519685
11
5.1934708267716534
21
-1.3925926771653543
0
LINE
8
BLACK
6
CONTINUOUS
10
5.1934708267716534
20
-1.3925926771653543
11
5.1906664960629918
21
-1.3803061023622047
0
LINE
8
BLACK
6
CONTINUOUS
10
5.1906664960629918
20
-1.3803061023622047
11
5.1865041338582678
21
-1.368410748031496
0
LINE
8
BLACK
6
CONTINUOUS
10
5.1865041338582678
20
-1.368410748031496
11
5.1810360629921259
21
-1.357056220472441
0
LINE
8
BLACK
6
CONTINUOUS
10
5.1810360629921259
20
-1.357056220472441
11
5.1743311023622045
21
-1.34638531496063
0
LINE
8
BLACK
6
CONTINUOUS
10
5.1743311023622045
20
-1.34638531496063
11
5.1664735433070863
21
-1.3365322440944882
0
LINE
8
BLACK
6
CONTINUOUS
10
5.1664735433070863
20
-1.3365322440944882
11
5.1575621653543307
21
-1.3276208661417324
0
LINE
8
BLACK
6
CONTINUOUS
10
5.1575621653543307
20
-1.3276208661417324
11
5.1477090944881887
21
-1.3197633070866142
0
LINE
8
BLACK
6
CONTINUOUS
10
5.1477090944881887
20
-1.3197633070866142
11
5.1370381889763781
21
-1.3130583464566929
0
LINE
8
BLACK
6
CONTINUOUS
10
5.1370381889763781
20
-1.3130583464566929
11
5.1256836614173231
21
-1.3075902755905511
0
LINE
8
BLACK
6
CONTINUOUS
10
5.1256836614173231
20
-1.3075902755905511
11
5.1137883070866144
21
-1.3034279133858266
0
LINE
8
BLACK
6
CONTINUOUS
10
5.1137883070866144
20
-1.3034279133858266
11
5.1015017322834648
21
-1.3006235826771653
0
LINE
8
BLACK
6
CONTINUOUS
10
5.1015017322834648
20
-1.3006235826771653
11
5.0889784251968502
21
-1.299212559055118
0
LINE
8
BLACK
6
CONTINUOUS
10
5.0889784251968502
20
-1.299212559055118
11
5.0763758267716534
21
-1.299212559055118
0
LINE
8
BLACK
6
CONTINUOUS
10
5.0763758267716534
20
-1.299212559055118
11
5.0638525196850397
21
-1.3006235826771653
0
LINE
8
BLACK
6
CONTINUOUS
10
5.0638525196850397
20
-1.3006235826771653
11
5.0515659448818893
21
-1.3034279133858266
0
LINE
8
BLACK
6
CONTINUOUS
10
5.0515659448818893
20
-1.3034279133858266
11
5.0396705905511814
21
-1.3075902755905511
0
LINE
8
BLACK
6
CONTINUOUS
10
5.0396705905511814
20
-1.3075902755905511
11
5.0283160629921255
21
-1.3130583464566929
0
LINE
8
BLACK
6
CONTINUOUS
10
5.0283160629921255
20
-1.3130583464566929
11
5.0176451574803149
21
-1.3197633070866142
0
LINE
8
BLACK
6
CONTINUOUS
10
5.0176451574803149
20
-1.3197633070866142
11
5.007792086614173
21
-1.3276208661417324
0
LINE
8
BLACK
6
CONTINUOUS
10
5.007792086614173
20
-1.3276208661417324
11
4.9988807086614173
21
-1.3365322440944882
0
LINE
8
BLACK
6
CONTINUOUS
10
4.9988807086614173
20
-1.3365322440944882
11
4.9910231496062991
21
-1.34638531496063
0
LINE
8
BLACK
6
CONTINUOUS
10
4.9910231496062991
20
-1.34638531496063
11
4.9843181889763777
21
-1.357056220472441
0
LINE
8
BLACK
6
CONTINUOUS
10
4.9843181889763777
20
-1.357056220472441
11
4.9788501181102358
21
-1.368410748031496
0
LINE
8
BLACK
6
CONTINUOUS
10
4.9788501181102358
20
-1.368410748031496
11
4.9746877559055118
21
-1.3803061023622047
0
LINE
8
BLACK
6
CONTINUOUS
10
4.9746877559055118
20
-1.3803061023622047
11
4.9718834251968502
21
-1.3925926771653543
0
LINE
8
BLACK
6
CONTINUOUS
10
4.9718834251968502
20
-1.3925926771653543
11
4.9704724015748027
21
-1.4051159842519685
0
LINE
8
BLACK
6
CONTINUOUS
10
4.9704724015748027
20
-1.4051159842519685
11
4.9704724015748027
21
-1.4177185826771652
0
LINE
8
BLACK
6
CONTINUOUS
10
6.3541000787401574
20
-1.2969164960629922
11
6.3667977952755903
21
-1.2998146850393701
0
LINE
8
BLACK
6
CONTINUOUS
10
6.3667977952755903
20
-1.2998146850393701
11
6.3790911417322835
21
-1.3041162992125983
0
LINE
8
BLACK
6
CONTINUOUS
10
6.3790911417322835
20
-1.3041162992125983
11
6.3908255905511808
21
-1.3097673228346456
0
LINE
8
BLACK
6
CONTINUOUS
10
6.3908255905511808
20
-1.3097673228346456
11
6.4018535039370077
21
-1.3166966141732284
0
LINE
8
BLACK
6
CONTINUOUS
10
6.4018535039370077
20
-1.3166966141732284
11
6.4120362598425196
21
-1.3248171259842518
0
LINE
8
BLACK
6
CONTINUOUS
10
6.4120362598425196
20
-1.3248171259842518
11
6.4212457874015749
21
-1.334026653543307
0
LINE
8
BLACK
6
CONTINUOUS
10
6.4212457874015749
20
-1.334026653543307
11
6.4293662992125986
21
-1.3442094094488188
0
LINE
8
BLACK
6
CONTINUOUS
10
6.4293662992125986
20
-1.3442094094488188
11
6.4362955905511807
21
-1.3552373228346457
0
LINE
8
BLACK
6
CONTINUOUS
10
6.4362955905511807
20
-1.3552373228346457
11
6.4419466141732284
21
-1.3669717716535432
0
LINE
8
BLACK
6
CONTINUOUS
10
6.4419466141732284
20
-1.3669717716535432
11
6.4462482283464562
21
-1.3792651181102362
0
LINE
8
BLACK
6
CONTINUOUS
10
6.4462482283464562
20
-1.3792651181102362
11
6.4491464173228348
21
-1.3919628346456692
0
LINE
8
BLACK
6
CONTINUOUS
10
6.4491464173228348
20
-1.3919628346456692
11
6.4506046456692916
21
-1.4049051574803149
0
LINE
8
BLACK
6
CONTINUOUS
10
6.4506046456692916
20
-1.4049051574803149
11
6.4506046456692916
21
-1.4179294094488188
0
LINE
8
BLACK
6
CONTINUOUS
10
6.4506046456692916
20
-1.4179294094488188
11
6.4491464173228348
21
-1.4308717322834645
0
LINE
8
BLACK
6
CONTINUOUS
10
6.4491464173228348
20
-1.4308717322834645
11
6.4462482283464562
21
-1.4435694488188977
0
LINE
8
BLACK
6
CONTINUOUS
10
6.4462482283464562
20
-1.4435694488188977
11
6.4419466141732284
21
-1.4558627952755905
0
LINE
8
BLACK
6
CONTINUOUS
10
6.4419466141732284
20
-1.4558627952755905
11
6.4362955905511807
21
-1.4675972440944882
0
LINE
8
BLACK
6
CONTINUOUS
10
6.4362955905511807
20
-1.4675972440944882
11
6.4293662992125986
21
-1.4786251574803149
0
LINE
8
BLACK
6
CONTINUOUS
10
6.4293662992125986
20
-1.4786251574803149
11
6.4212457874015749
21
-1.4888079133858267
0
LINE
8
BLACK
6
CONTINUOUS
10
6.4212457874015749
20
-1.4888079133858267
11
6.4120362598425196
21
-1.4980174409448819
0
LINE
8
BLACK
6
CONTINUOUS
10
6.4120362598425196
20
-1.4980174409448819
11
6.4018535039370077
21
-1.5061379527559056
0
LINE
8
BLACK
6
CONTINUOUS
10
6.4018535039370077
20
-1.5061379527559056
11
6.3908255905511808
21
-1.5130672440944881
0
LINE
8
BLACK
6
CONTINUOUS
10
6.3908255905511808
20
-1.5130672440944881
11
6.3790911417322835
21
-1.5187182677165354
0
LINE
8
BLACK
6
CONTINUOUS
10
6.3790911417322835
20
-1.5187182677165354
11
6.3667977952755903
21
-1.5230198818897638
0
LINE
8
BLACK
6
CONTINUOUS
10
6.3667977952755903
20
-1.5230198818897638
11
6.3541000787401574
21
-1.5259180708661417
0
LINE
8
BLACK
6
CONTINUOUS
10
6.3541000787401574
20
-1.5259180708661417
11
6.3411577559055115
21
-1.5273762992125983
0
LINE
8
BLACK
6
CONTINUOUS
10
6.3411577559055115
20
-1.5273762992125983
11
6.3281335039370079
21
-1.5273762992125983
0
LINE
8
BLACK
6
CONTINUOUS
10
6.3281335039370079
20
-1.5273762992125983
11
6.315191181102362
21
-1.5259180708661417
0
LINE
8
BLACK
6
CONTINUOUS
10
6.315191181102362
20
-1.5259180708661417
11
6.302493464566929
21
-1.5230198818897638
0
LINE
8
BLACK
6
CONTINUOUS
10
6.302493464566929
20
-1.5230198818897638
11
6.2902001181102358
21
-1.5187182677165354
0
LINE
8
BLACK
6
CONTINUOUS
10
6.2902001181102358
20
-1.5187182677165354
11
6.2784656692913385
21
-1.5130672440944881
0
LINE
8
BLACK
6
CONTINUOUS
10
6.2784656692913385
20
-1.5130672440944881
11
6.2674377559055117
21
-1.5061379527559056
0
LINE
8
BLACK
6
CONTINUOUS
10
6.2674377559055117
20
-1.5061379527559056
11
6.2572549999999998
21
-1.4980174409448819
0
LINE
8
BLACK
6
CONTINUOUS
10
6.2572549999999998
20
-1.4980174409448819
11
6.2480454724409444
21
-1.4888079133858267
0
LINE
8
BLACK
6
CONTINUOUS
10
6.2480454724409444
20
-1.4888079133858267
11
6.2399249606299207
21
-1.4786251574803149
0
LINE
8
BLACK
6
CONTINUOUS
10
6.2399249606299207
20
-1.4786251574803149
11
6.2329956692913386
21
-1.4675972440944882
0
LINE
8
BLACK
6
CONTINUOUS
10
6.2329956692913386
20
-1.4675972440944882
11
6.2273446456692909
21
-1.4558627952755905
0
LINE
8
BLACK
6
CONTINUOUS
10
6.2273446456692909
20
-1.4558627952755905
11
6.2230430314960632
21
-1.4435694488188977
0
LINE
8
BLACK
6
CONTINUOUS
10
6.2230430314960632
20
-1.4435694488188977
11
6.2201448425196846
21
-1.4308717322834645
0
LINE
8
BLACK
6
CONTINUOUS
10
6.2201448425196846
20
-1.4308717322834645
11
6.2186866141732278
21
-1.4179294094488188
0
LINE
8
BLACK
6
CONTINUOUS
10
6.2186866141732278
20
-1.4179294094488188
11
6.2186866141732278
21
-1.4051159842519685
0
LINE
8
BLACK
6
CONTINUOUS
10
6.2186866141732278
20
-1.4051159842519685
11
6.2186866141732278
21
-1.4049051574803149
0
LINE
8
BLACK
6
CONTINUOUS
10
6.2186866141732278
20
-1.4049051574803149
11
6.2201448425196846
21
-1.3919628346456692
0
LINE
8
BLACK
6
CONTINUOUS
10
6.2201448425196846
20
-1.3919628346456692
11
6.2230430314960632
21
-1.3792651181102362
0
LINE
8
BLACK
6
CONTINUOUS
10
6.2230430314960632
20
-1.3792651181102362
11
6.2273446456692909
21
-1.3669717716535432
0
LINE
8
BLACK
6
CONTINUOUS
10
6.2273446456692909
20
-1.3669717716535432
11
6.2329956692913386
21
-1.3552373228346457
0
LINE
8
BLACK
6
CONTINUOUS
10
6.2329956692913386
20
-1.3552373228346457
11
6.2399249606299207
21
-1.3442094094488188
0
LINE
8
BLACK
6
CONTINUOUS
10
6.2399249606299207
20
-1.3442094094488188
11
6.2480454724409444
21
-1.334026653543307
0
LINE
8
BLACK
6
CONTINUOUS
10
6.2480454724409444
20
-1.334026653543307
11
6.2572549999999998
21
-1.3248171259842518
0
LINE
8
BLACK
6
CONTINUOUS
10
6.2572549999999998
20
-1.3248171259842518
11
6.2674377559055117
21
-1.3166966141732284
0
LINE
8
BLACK
6
CONTINUOUS
10
6.2674377559055117
20
-1.3166966141732284
11
6.2784656692913385
21
-1.3097673228346456
0
LINE
8
BLACK
6
CONTINUOUS
10
6.2784656692913385
20
-1.3097673228346456
11
6.2902001181102358
21
-1.3041162992125983
0
LINE
8
BLACK
6
CONTINUOUS
10
6.2902001181102358
20
-1.3041162992125983
11
6.302493464566929
21
-1.2998146850393701
0
LINE
8
BLACK
6
CONTINUOUS
10
6.302493464566929
20
-1.2998146850393701
11
6.315191181102362
21
-1.2969164960629922
0
LINE
8
BLACK
6
CONTINUOUS
10
6.315191181102362
20
-1.2969164960629922
11
6.3281335039370079
21
-1.2954582677165354
0
LINE
8
BLACK
6
CONTINUOUS
10
6.3281335039370079
20
-1.2954582677165354
11
6.3411577559055115
21
-1.2954582677165354
0
LINE
8
BLACK
6
CONTINUOUS
10
6.3411577559055115
20
-1.2954582677165354
11
6.3541000787401574
21
-1.2969164960629922
0
LINE
8
BLACK
6
CONTINUOUS
10
6.2224409055118111
20
-1.4177185826771652
11
6.2238519291338585
21
-1.4302418897637794
0
LINE
8
BLACK
6
CONTINUOUS
10
6.2238519291338585
20
-1.4302418897637794
11
6.2266562598425192
21
-1.4425284645669292
0
LINE
8
BLACK
6
CONTINUOUS
10
6.2266562598425192
20
-1.4425284645669292
11
6.2308186220472441
21
-1.4544238188976377
0
LINE
8
BLACK
6
CONTINUOUS
10
6.2308186220472441
20
-1.4544238188976377
11
6.236286692913386
21
-1.4657783464566929
0
LINE
8
BLACK
6
CONTINUOUS
10
6.236286692913386
20
-1.4657783464566929
11
6.2429916535433065
21
-1.476449251968504
0
LINE
8
BLACK
6
CONTINUOUS
10
6.2429916535433065
20
-1.476449251968504
11
6.2508492125984247
21
-1.4863023228346457
0
LINE
8
BLACK
6
CONTINUOUS
10
6.2508492125984247
20
-1.4863023228346457
11
6.2597605905511813
21
-1.4952137007874016
0
LINE
8
BLACK
6
CONTINUOUS
10
6.2597605905511813
20
-1.4952137007874016
11
6.2696136614173223
21
-1.5030712598425195
0
LINE
8
BLACK
6
CONTINUOUS
10
6.2696136614173223
20
-1.5030712598425195
11
6.2802845669291338
21
-1.509776220472441
0
LINE
8
BLACK
6
CONTINUOUS
10
6.2802845669291338
20
-1.509776220472441
11
6.2916390944881888
21
-1.5152442913385826
0
LINE
8
BLACK
6
CONTINUOUS
10
6.2916390944881888
20
-1.5152442913385826
11
6.3035344488188976
21
-1.5194066535433071
0
LINE
8
BLACK
6
CONTINUOUS
10
6.3035344488188976
20
-1.5194066535433071
11
6.3158210236220471
21
-1.5222109842519684
0
LINE
8
BLACK
6
CONTINUOUS
10
6.3158210236220471
20
-1.5222109842519684
11
6.3283443307086609
21
-1.5236220078740157
0
LINE
8
BLACK
6
CONTINUOUS
10
6.3283443307086609
20
-1.5236220078740157
11
6.3409469291338585
21
-1.5236220078740157
0
LINE
8
BLACK
6
CONTINUOUS
10
6.3409469291338585
20
-1.5236220078740157
11
6.3534702362204722
21
-1.5222109842519684
0
LINE
8
BLACK
6
CONTINUOUS
10
6.3534702362204722
20
-1.5222109842519684
11
6.3657568110236218
21
-1.5194066535433071
0
LINE
8
BLACK
6
CONTINUOUS
10
6.3657568110236218
20
-1.5194066535433071
11
6.3776521653543305
21
-1.5152442913385826
0
LINE
8
BLACK
6
CONTINUOUS
10
6.3776521653543305
20
-1.5152442913385826
11
6.3890066929133855
21
-1.509776220472441
0
LINE
8
BLACK
6
CONTINUOUS
10
6.3890066929133855
20
-1.509776220472441
11
6.399677598425197
21
-1.5030712598425195
0
LINE
8
BLACK
6
CONTINUOUS
10
6.399677598425197
20
-1.5030712598425195
11
6.4095306692913381
21
-1.4952137007874016
0
LINE
8
BLACK
6
CONTINUOUS
10
6.4095306692913381
20
-1.4952137007874016
11
6.4184420472440946
21
-1.4863023228346457
0
LINE
8
BLACK
6
CONTINUOUS
10
6.4184420472440946
20
-1.4863023228346457
11
6.4262996062992128
21
-1.476449251968504
0
LINE
8
BLACK
6
CONTINUOUS
10
6.4262996062992128
20
-1.476449251968504
11
6.4330045669291334
21
-1.4657783464566929
0
LINE
8
BLACK
6
CONTINUOUS
10
6.4330045669291334
20
-1.4657783464566929
11
6.4384726377952752
21
-1.4544238188976377
0
LINE
8
BLACK
6
CONTINUOUS
10
6.4384726377952752
20
-1.4544238188976377
11
6.4426350000000001
21
-1.4425284645669292
0
LINE
8
BLACK
6
CONTINUOUS
10
6.4426350000000001
20
-1.4425284645669292
11
6.4454393307086617
21
-1.4302418897637794
0
LINE
8
BLACK
6
CONTINUOUS
10
6.4454393307086617
20
-1.4302418897637794
11
6.4468503543307083
21
-1.4177185826771652
0
LINE
8
BLACK
6
CONTINUOUS
10
6.4468503543307083
20
-1.4177185826771652
11
6.4468503543307083
21
-1.4051159842519685
0
LINE
8
BLACK
6
CONTINUOUS
10
6.4468503543307083
20
-1.4051159842519685
11
6.4454393307086617
21
-1.3925926771653543
0
LINE
8
BLACK
6
CONTINUOUS
10
6.4454393307086617
20
-1.3925926771653543
11
6.4426350000000001
21
-1.3803061023622047
0
LINE
8
BLACK
6
CONTINUOUS
10
6.4426350000000001
20
-1.3803061023622047
11
6.4384726377952752
21
-1.368410748031496
0
LINE
8
BLACK
6
CONTINUOUS
10
6.4384726377952752
20
-1.368410748031496
11
6.4330045669291334
21
-1.357056220472441
0
LINE
8
BLACK
6
CONTINUOUS
10
6.4330045669291334
20
-1.357056220472441
11
6.4262996062992128
21
-1.34638531496063
0
LINE
8
BLACK
6
CONTINUOUS
10
6.4262996062992128
20
-1.34638531496063
11
6.4184420472440946
21
-1.3365322440944882
0
LINE
8
BLACK
6
CONTINUOUS
10
6.4184420472440946
20
-1.3365322440944882
11
6.4095306692913381
21
-1.3276208661417324
0
LINE
8
BLACK
6
CONTINUOUS
10
6.4095306692913381
20
-1.3276208661417324
11
6.399677598425197
21
-1.3197633070866142
0
LINE
8
BLACK
6
CONTINUOUS
10
6.399677598425197
20
-1.3197633070866142
11
6.3890066929133855
21
-1.3130583464566929
0
LINE
8
BLACK
6
CONTINUOUS
10
6.3890066929133855
20
-1.3130583464566929
11
6.3776521653543305
21
-1.3075902755905511
0
LINE
8
BLACK
6
CONTINUOUS
10
6.3776521653543305
20
-1.3075902755905511
11
6.3657568110236218
21
-1.3034279133858266
0
LINE
8
BLACK
6
CONTINUOUS
10
6.3657568110236218
20
-1.3034279133858266
11
6.3534702362204722
21
-1.3006235826771653
0
LINE
8
BLACK
6
CONTINUOUS
10
6.3534702362204722
20
-1.3006235826771653
11
6.3409469291338585
21
-1.299212559055118
0
LINE
8
BLACK
6
CONTINUOUS
10
6.3409469291338585
20
-1.299212559055118
11
6.3283443307086609
21
-1.299212559055118
0
LINE
8
BLACK
6
CONTINUOUS
10
6.3283443307086609
20
-1.299212559055118
11
6.3158210236220471
21
-1.3006235826771653
0
LINE
8
BLACK
6
CONTINUOUS
10
6.3158210236220471
20
-1.3006235826771653
11
6.3035344488188976
21
-1.3034279133858266
0
LINE
8
BLACK
6
CONTINUOUS
10
6.3035344488188976
20
-1.3034279133858266
11
6.2916390944881888
21
-1.3075902755905511
0
LINE
8
BLACK
6
CONTINUOUS
10
6.2916390944881888
20
-1.3075902755905511
11
6.2802845669291338
21
-1.3130583464566929
0
LINE
8
BLACK
6
CONTINUOUS
10
6.2802845669291338
20
-1.3130583464566929
11
6.2696136614173223
21
-1.3197633070866142
0
LINE
8
BLACK
6
CONTINUOUS
10
6.2696136614173223
20
-1.3197633070866142
11
6.2597605905511813
21
-1.3276208661417324
0
LINE
8
BLACK
6
CONTINUOUS
10
6.2597605905511813
20
-1.3276208661417324
11
6.2508492125984247
21
-1.3365322440944882
0
LINE
8
BLACK
6
CONTINUOUS
10
6.2508492125984247
20
-1.3365322440944882
11
6.2429916535433065
21
-1.34638531496063
0
LINE
8
BLACK
6
CONTINUOUS
10
6.2429916535433065
20
-1.34638531496063
11
6.236286692913386
21
-1.357056220472441
0
LINE
8
BLACK
6
CONTINUOUS
10
6.236286692913386
20
-1.357056220472441
11
6.2308186220472441
21
-1.368410748031496
0
LINE
8
BLACK
6
CONTINUOUS
10
6.2308186220472441
20
-1.368410748031496
11
6.2266562598425192
21
-1.3803061023622047
0
LINE
8
BLACK
6
CONTINUOUS
10
6.2266562598425192
20
-1.3803061023622047
11
6.2238519291338585
21
-1.3925926771653543
0
LINE
8
BLACK
6
CONTINUOUS
10
6.2238519291338585
20
-1.3925926771653543
11
6.2224409055118111
21
-1.4051159842519685
0
LINE
8
BLACK
6
CONTINUOUS
10
6.2224409055118111
20
-1.4051159842519685
11
6.2224409055118111
21
-1.4177185826771652
  0
ENDSEC
  0
EOF
