  0
SECTION
  2
HEADER
  9
$ANGBASE
  50
0.0
  9
$ANGDIR
  70
1
  9
$MEASUREMENT
  70
1
  0
ENDSEC
  0
SECTION
  2
TABLES
  0
TABLE
  2
LTYPE
  70
4
  0
LTYPE
  5
40F
  2
CONTINUOUS
  70
0
  3
Solid line
  72
65
  73
0
  40
0.0
  0
LTYPE
  5
410
  2
DASHDOT
 70
0
  3
Dash Dot ____ _ ____ _
 72
65
 73
4
 40
2.0
 49
1.25
 49
-0.25
 49
0.25
 49
-0.25
  0
LTYPE
  5
411
  2
DASHED
 70
0
  3
Dashed __ __ __ __ __
 72
65
 73
2
 40
0.75
 49
0.5
 49
-0.25
  0
LTYPE
  5
43B
  2
DOTTED
 70
0
  3
Dotted .  .  .  .
 72
65
 73
2
 40
0.2
 49
0.0
 49
-0.2
  0
ENDTAB
  0
TABLE
  2
STYLE
  70
4
  0
STYLE
  2
KICAD
  70
0
  40
0
  41
1
  42
1
  50
0
  71
0
  3
isocp.shx
  0
STYLE
  2
KICADB
  70
0
  40
0
  41
1
  42
1
  50
0
  71
0
  3
isocp.shx
  0
STYLE
  2
KICADI
  70
0
  40
0
  41
1
  42
1
  50
15
  71
0
  3
isocp.shx
  0
STYLE
  2
KICADBI
  70
0
  40
0
  41
1
  42
1
  50
15
  71
0
  3
isocp.shx
  0
ENDTAB
  0
TABLE
  2
LAYER
  70
1
  0
LAYER
  2
BLACK
  70
0
  62
7
  6
CONTINUOUS
  0
ENDTAB
  0
ENDSEC
  0
SECTION
  2
ENTITIES
0
LINE
8
BLACK
6
CONTINUOUS
10
164.4941429999999798
20
-101.0916799999999967
11
164.8166650000000004
21
-101.1652939999999887
0
LINE
8
BLACK
6
CONTINUOUS
10
164.8166650000000004
20
-101.1652939999999887
11
165.1289160000000038
21
-101.2745549999999923
0
LINE
8
BLACK
6
CONTINUOUS
10
165.1289160000000038
20
-101.2745549999999923
11
165.4269709999999804
21
-101.4180909999999898
0
LINE
8
BLACK
6
CONTINUOUS
10
165.4269709999999804
20
-101.4180909999999898
11
165.7070799999999906
21
-101.5940949999999958
0
LINE
8
BLACK
6
CONTINUOUS
10
165.7070799999999906
20
-101.5940949999999958
11
165.9657219999999995
21
-101.8003559999999936
0
LINE
8
BLACK
6
CONTINUOUS
10
165.9657219999999995
20
-101.8003559999999936
11
166.1996440000000064
21
-102.0342780000000005
0
LINE
8
BLACK
6
CONTINUOUS
10
166.1996440000000064
20
-102.0342780000000005
11
166.40590499999999
21
-102.2929199999999952
0
LINE
8
BLACK
6
CONTINUOUS
10
166.40590499999999
20
-102.2929199999999952
11
166.581908999999996
21
-102.5730289999999911
0
LINE
8
BLACK
6
CONTINUOUS
10
166.581908999999996
20
-102.5730289999999911
11
166.7254449999999792
21
-102.8710839999999962
0
LINE
8
BLACK
6
CONTINUOUS
10
166.7254449999999792
20
-102.8710839999999962
11
166.8347059999999829
21
-103.1833349999999996
0
LINE
8
BLACK
6
CONTINUOUS
10
166.8347059999999829
20
-103.1833349999999996
11
166.9083200000000033
21
-103.5058569999999918
0
LINE
8
BLACK
6
CONTINUOUS
10
166.9083200000000033
20
-103.5058569999999918
11
166.9453589999999963
21
-103.8345920000000007
0
LINE
8
BLACK
6
CONTINUOUS
10
166.9453589999999963
20
-103.8345920000000007
11
166.9453589999999963
21
-104.1654079999999993
0
LINE
8
BLACK
6
CONTINUOUS
10
166.9453589999999963
20
-104.1654079999999993
11
166.9083200000000033
21
-104.494142999999994
0
LINE
8
BLACK
6
CONTINUOUS
10
166.9083200000000033
20
-104.494142999999994
11
166.8347059999999829
21
-104.8166650000000004
0
LINE
8
BLACK
6
CONTINUOUS
10
166.8347059999999829
20
-104.8166650000000004
11
166.7254449999999792
21
-105.1289159999999896
0
LINE
8
BLACK
6
CONTINUOUS
10
166.7254449999999792
20
-105.1289159999999896
11
166.581908999999996
21
-105.4269709999999947
0
LINE
8
BLACK
6
CONTINUOUS
10
166.581908999999996
20
-105.4269709999999947
11
166.40590499999999
21
-105.7070799999999906
0
LINE
8
BLACK
6
CONTINUOUS
10
166.40590499999999
20
-105.7070799999999906
11
166.1996440000000064
21
-105.9657219999999995
0
LINE
8
BLACK
6
CONTINUOUS
10
166.1996440000000064
20
-105.9657219999999995
11
165.9657219999999995
21
-106.1996439999999922
0
LINE
8
BLACK
6
CONTINUOUS
10
165.9657219999999995
20
-106.1996439999999922
11
165.7070799999999906
21
-106.40590499999999
0
LINE
8
BLACK
6
CONTINUOUS
10
165.7070799999999906
20
-106.40590499999999
11
165.4269709999999804
21
-106.581908999999996
0
LINE
8
BLACK
6
CONTINUOUS
10
165.4269709999999804
20
-106.581908999999996
11
165.1289160000000038
21
-106.7254449999999935
0
LINE
8
BLACK
6
CONTINUOUS
10
165.1289160000000038
20
-106.7254449999999935
11
164.8166650000000004
21
-106.8347059999999971
0
LINE
8
BLACK
6
CONTINUOUS
10
164.8166650000000004
20
-106.8347059999999971
11
164.4941429999999798
21
-106.9083199999999891
0
LINE
8
BLACK
6
CONTINUOUS
10
164.4941429999999798
20
-106.9083199999999891
11
164.1654079999999851
21
-106.9453589999999963
0
LINE
8
BLACK
6
CONTINUOUS
10
164.1654079999999851
20
-106.9453589999999963
11
163.8345919999999865
21
-106.9453589999999963
0
LINE
8
BLACK
6
CONTINUOUS
10
163.8345919999999865
20
-106.9453589999999963
11
163.5058569999999918
21
-106.9083199999999891
0
LINE
8
BLACK
6
CONTINUOUS
10
163.5058569999999918
20
-106.9083199999999891
11
163.1833349999999996
21
-106.8347059999999971
0
LINE
8
BLACK
6
CONTINUOUS
10
163.1833349999999996
20
-106.8347059999999971
11
162.8710839999999962
21
-106.7254449999999935
0
LINE
8
BLACK
6
CONTINUOUS
10
162.8710839999999962
20
-106.7254449999999935
11
162.5730289999999911
21
-106.581908999999996
0
LINE
8
BLACK
6
CONTINUOUS
10
162.5730289999999911
20
-106.581908999999996
11
162.292919999999981
21
-106.40590499999999
0
LINE
8
BLACK
6
CONTINUOUS
10
162.292919999999981
20
-106.40590499999999
11
162.0342780000000005
21
-106.1996439999999922
0
LINE
8
BLACK
6
CONTINUOUS
10
162.0342780000000005
20
-106.1996439999999922
11
161.8003559999999936
21
-105.9657219999999995
0
LINE
8
BLACK
6
CONTINUOUS
10
161.8003559999999936
20
-105.9657219999999995
11
161.5940949999999816
21
-105.7070799999999906
0
LINE
8
BLACK
6
CONTINUOUS
10
161.5940949999999816
20
-105.7070799999999906
11
161.418091000000004
21
-105.4269709999999947
0
LINE
8
BLACK
6
CONTINUOUS
10
161.418091000000004
20
-105.4269709999999947
11
161.2745549999999923
21
-105.1289159999999896
0
LINE
8
BLACK
6
CONTINUOUS
10
161.2745549999999923
20
-105.1289159999999896
11
161.1652939999999887
21
-104.8166650000000004
0
LINE
8
BLACK
6
CONTINUOUS
10
161.1652939999999887
20
-104.8166650000000004
11
161.0916799999999967
21
-104.494142999999994
0
LINE
8
BLACK
6
CONTINUOUS
10
161.0916799999999967
20
-104.494142999999994
11
161.0546410000000037
21
-104.1654079999999993
0
LINE
8
BLACK
6
CONTINUOUS
10
161.0546410000000037
20
-104.1654079999999993
11
161.0546410000000037
21
-103.8399469999999951
0
LINE
8
BLACK
6
CONTINUOUS
10
161.0546410000000037
20
-103.8399469999999951
11
161.0546410000000037
21
-103.8345920000000007
0
LINE
8
BLACK
6
CONTINUOUS
10
161.0546410000000037
20
-103.8345920000000007
11
161.0916799999999967
21
-103.5058569999999918
0
LINE
8
BLACK
6
CONTINUOUS
10
161.0916799999999967
20
-103.5058569999999918
11
161.1652939999999887
21
-103.1833349999999996
0
LINE
8
BLACK
6
CONTINUOUS
10
161.1652939999999887
20
-103.1833349999999996
11
161.2745549999999923
21
-102.8710839999999962
0
LINE
8
BLACK
6
CONTINUOUS
10
161.2745549999999923
20
-102.8710839999999962
11
161.418091000000004
21
-102.5730289999999911
0
LINE
8
BLACK
6
CONTINUOUS
10
161.418091000000004
20
-102.5730289999999911
11
161.5940949999999816
21
-102.2929199999999952
0
LINE
8
BLACK
6
CONTINUOUS
10
161.5940949999999816
20
-102.2929199999999952
11
161.8003559999999936
21
-102.0342780000000005
0
LINE
8
BLACK
6
CONTINUOUS
10
161.8003559999999936
20
-102.0342780000000005
11
162.0342780000000005
21
-101.8003559999999936
0
LINE
8
BLACK
6
CONTINUOUS
10
162.0342780000000005
20
-101.8003559999999936
11
162.292919999999981
21
-101.5940949999999958
0
LINE
8
BLACK
6
CONTINUOUS
10
162.292919999999981
20
-101.5940949999999958
11
162.5730289999999911
21
-101.4180909999999898
0
LINE
8
BLACK
6
CONTINUOUS
10
162.5730289999999911
20
-101.4180909999999898
11
162.8710839999999962
21
-101.2745549999999923
0
LINE
8
BLACK
6
CONTINUOUS
10
162.8710839999999962
20
-101.2745549999999923
11
163.1833349999999996
21
-101.1652939999999887
0
LINE
8
BLACK
6
CONTINUOUS
10
163.1833349999999996
20
-101.1652939999999887
11
163.5058569999999918
21
-101.0916799999999967
0
LINE
8
BLACK
6
CONTINUOUS
10
163.5058569999999918
20
-101.0916799999999967
11
163.8345919999999865
21
-101.0546409999999895
0
LINE
8
BLACK
6
CONTINUOUS
10
163.8345919999999865
20
-101.0546409999999895
11
164.1654079999999851
21
-101.0546409999999895
0
LINE
8
BLACK
6
CONTINUOUS
10
164.1654079999999851
20
-101.0546409999999895
11
164.4941429999999798
21
-101.0916799999999967
0
LINE
8
BLACK
6
CONTINUOUS
10
161.1500000000000057
20
-104.1600529999999907
11
161.1858399999999847
21
-104.4781449999999978
0
LINE
8
BLACK
6
CONTINUOUS
10
161.1858399999999847
20
-104.4781449999999978
11
161.2570699999999988
21
-104.7902239999999949
0
LINE
8
BLACK
6
CONTINUOUS
10
161.2570699999999988
20
-104.7902239999999949
11
161.3627939999999796
21
-105.0923659999999984
0
LINE
8
BLACK
6
CONTINUOUS
10
161.3627939999999796
20
-105.0923659999999984
11
161.5016829999999857
21
-105.3807709999999958
0
LINE
8
BLACK
6
CONTINUOUS
10
161.5016829999999857
20
-105.3807709999999958
11
161.6719889999999964
21
-105.6518119999999925
0
LINE
8
BLACK
6
CONTINUOUS
10
161.6719889999999964
20
-105.6518119999999925
11
161.8715709999999888
21
-105.902079999999998
0
LINE
8
BLACK
6
CONTINUOUS
10
161.8715709999999888
20
-105.902079999999998
11
162.0979199999999878
21
-106.128428999999997
0
LINE
8
BLACK
6
CONTINUOUS
10
162.0979199999999878
20
-106.128428999999997
11
162.3481879999999933
21
-106.3280109999999894
0
LINE
8
BLACK
6
CONTINUOUS
10
162.3481879999999933
20
-106.3280109999999894
11
162.61922899999999
21
-106.4983170000000001
0
LINE
8
BLACK
6
CONTINUOUS
10
162.61922899999999
20
-106.4983170000000001
11
162.9076340000000016
21
-106.6372059999999919
0
LINE
8
BLACK
6
CONTINUOUS
10
162.9076340000000016
20
-106.6372059999999919
11
163.2097760000000051
21
-106.7429300000000012
0
LINE
8
BLACK
6
CONTINUOUS
10
163.2097760000000051
20
-106.7429300000000012
11
163.521854999999988
21
-106.8141600000000011
0
LINE
8
BLACK
6
CONTINUOUS
10
163.521854999999988
20
-106.8141600000000011
11
163.8399469999999951
21
-106.8499999999999943
0
LINE
8
BLACK
6
CONTINUOUS
10
163.8399469999999951
20
-106.8499999999999943
11
164.1600530000000049
21
-106.8499999999999943
0
LINE
8
BLACK
6
CONTINUOUS
10
164.1600530000000049
20
-106.8499999999999943
11
164.4781449999999836
21
-106.8141600000000011
0
LINE
8
BLACK
6
CONTINUOUS
10
164.4781449999999836
20
-106.8141600000000011
11
164.7902239999999949
21
-106.7429300000000012
0
LINE
8
BLACK
6
CONTINUOUS
10
164.7902239999999949
20
-106.7429300000000012
11
165.0923659999999984
21
-106.6372059999999919
0
LINE
8
BLACK
6
CONTINUOUS
10
165.0923659999999984
20
-106.6372059999999919
11
165.3807709999999815
21
-106.4983170000000001
0
LINE
8
BLACK
6
CONTINUOUS
10
165.3807709999999815
20
-106.4983170000000001
11
165.6518119999999783
21
-106.3280109999999894
0
LINE
8
BLACK
6
CONTINUOUS
10
165.6518119999999783
20
-106.3280109999999894
11
165.9020799999999838
21
-106.128428999999997
0
LINE
8
BLACK
6
CONTINUOUS
10
165.9020799999999838
20
-106.128428999999997
11
166.1284289999999828
21
-105.902079999999998
0
LINE
8
BLACK
6
CONTINUOUS
10
166.1284289999999828
20
-105.902079999999998
11
166.3280110000000036
21
-105.6518119999999925
0
LINE
8
BLACK
6
CONTINUOUS
10
166.3280110000000036
20
-105.6518119999999925
11
166.4983169999999859
21
-105.3807709999999958
0
LINE
8
BLACK
6
CONTINUOUS
10
166.4983169999999859
20
-105.3807709999999958
11
166.6372059999999919
21
-105.0923659999999984
0
LINE
8
BLACK
6
CONTINUOUS
10
166.6372059999999919
20
-105.0923659999999984
11
166.7429300000000012
21
-104.7902239999999949
0
LINE
8
BLACK
6
CONTINUOUS
10
166.7429300000000012
20
-104.7902239999999949
11
166.8141599999999869
21
-104.4781449999999978
0
LINE
8
BLACK
6
CONTINUOUS
10
166.8141599999999869
20
-104.4781449999999978
11
166.8499999999999943
21
-104.1600529999999907
0
LINE
8
BLACK
6
CONTINUOUS
10
166.8499999999999943
20
-104.1600529999999907
11
166.8499999999999943
21
-103.8399469999999951
0
LINE
8
BLACK
6
CONTINUOUS
10
166.8499999999999943
20
-103.8399469999999951
11
166.8141599999999869
21
-103.5218550000000022
0
LINE
8
BLACK
6
CONTINUOUS
10
166.8141599999999869
20
-103.5218550000000022
11
166.7429300000000012
21
-103.2097759999999909
0
LINE
8
BLACK
6
CONTINUOUS
10
166.7429300000000012
20
-103.2097759999999909
11
166.6372059999999919
21
-102.9076340000000016
0
LINE
8
BLACK
6
CONTINUOUS
10
166.6372059999999919
20
-102.9076340000000016
11
166.4983169999999859
21
-102.61922899999999
0
LINE
8
BLACK
6
CONTINUOUS
10
166.4983169999999859
20
-102.61922899999999
11
166.3280110000000036
21
-102.3481879999999933
0
LINE
8
BLACK
6
CONTINUOUS
10
166.3280110000000036
20
-102.3481879999999933
11
166.1284289999999828
21
-102.097920000000002
0
LINE
8
BLACK
6
CONTINUOUS
10
166.1284289999999828
20
-102.097920000000002
11
165.9020799999999838
21
-101.8715709999999888
0
LINE
8
BLACK
6
CONTINUOUS
10
165.9020799999999838
20
-101.8715709999999888
11
165.6518119999999783
21
-101.6719889999999964
0
LINE
8
BLACK
6
CONTINUOUS
10
165.6518119999999783
20
-101.6719889999999964
11
165.3807709999999815
21
-101.5016829999999999
0
LINE
8
BLACK
6
CONTINUOUS
10
165.3807709999999815
20
-101.5016829999999999
11
165.0923659999999984
21
-101.3627939999999938
0
LINE
8
BLACK
6
CONTINUOUS
10
165.0923659999999984
20
-101.3627939999999938
11
164.7902239999999949
21
-101.2570699999999988
0
LINE
8
BLACK
6
CONTINUOUS
10
164.7902239999999949
20
-101.2570699999999988
11
164.4781449999999836
21
-101.1858399999999989
0
LINE
8
BLACK
6
CONTINUOUS
10
164.4781449999999836
20
-101.1858399999999989
11
164.1600530000000049
21
-101.1499999999999915
0
LINE
8
BLACK
6
CONTINUOUS
10
164.1600530000000049
20
-101.1499999999999915
11
163.8399469999999951
21
-101.1499999999999915
0
LINE
8
BLACK
6
CONTINUOUS
10
163.8399469999999951
20
-101.1499999999999915
11
163.521854999999988
21
-101.1858399999999989
0
LINE
8
BLACK
6
CONTINUOUS
10
163.521854999999988
20
-101.1858399999999989
11
163.2097760000000051
21
-101.2570699999999988
0
LINE
8
BLACK
6
CONTINUOUS
10
163.2097760000000051
20
-101.2570699999999988
11
162.9076340000000016
21
-101.3627939999999938
0
LINE
8
BLACK
6
CONTINUOUS
10
162.9076340000000016
20
-101.3627939999999938
11
162.61922899999999
21
-101.5016829999999999
0
LINE
8
BLACK
6
CONTINUOUS
10
162.61922899999999
20
-101.5016829999999999
11
162.3481879999999933
21
-101.6719889999999964
0
LINE
8
BLACK
6
CONTINUOUS
10
162.3481879999999933
20
-101.6719889999999964
11
162.0979199999999878
21
-101.8715709999999888
0
LINE
8
BLACK
6
CONTINUOUS
10
162.0979199999999878
20
-101.8715709999999888
11
161.8715709999999888
21
-102.097920000000002
0
LINE
8
BLACK
6
CONTINUOUS
10
161.8715709999999888
20
-102.097920000000002
11
161.6719889999999964
21
-102.3481879999999933
0
LINE
8
BLACK
6
CONTINUOUS
10
161.6719889999999964
20
-102.3481879999999933
11
161.5016829999999857
21
-102.61922899999999
0
LINE
8
BLACK
6
CONTINUOUS
10
161.5016829999999857
20
-102.61922899999999
11
161.3627939999999796
21
-102.9076340000000016
0
LINE
8
BLACK
6
CONTINUOUS
10
161.3627939999999796
20
-102.9076340000000016
11
161.2570699999999988
21
-103.2097759999999909
0
LINE
8
BLACK
6
CONTINUOUS
10
161.2570699999999988
20
-103.2097759999999909
11
161.1858399999999847
21
-103.5218550000000022
0
LINE
8
BLACK
6
CONTINUOUS
10
161.1858399999999847
20
-103.5218550000000022
11
161.1500000000000057
21
-103.8399469999999951
0
LINE
8
BLACK
6
CONTINUOUS
10
161.1500000000000057
20
-103.8399469999999951
11
161.1500000000000057
21
-104.1600529999999907
0
LINE
8
BLACK
6
CONTINUOUS
10
161.394141999999988
20
-57.2416789999999978
11
161.7166639999999802
21
-57.3152929999999969
0
LINE
8
BLACK
6
CONTINUOUS
10
161.7166639999999802
20
-57.3152929999999969
11
162.0289149999999836
21
-57.4245540000000005
0
LINE
8
BLACK
6
CONTINUOUS
10
162.0289149999999836
20
-57.4245540000000005
11
162.3269699999999887
21
-57.568089999999998
0
LINE
8
BLACK
6
CONTINUOUS
10
162.3269699999999887
20
-57.568089999999998
11
162.6070789999999988
21
-57.7440939999999969
0
LINE
8
BLACK
6
CONTINUOUS
10
162.6070789999999988
20
-57.7440939999999969
11
162.8657209999999793
21
-57.9503549999999947
0
LINE
8
BLACK
6
CONTINUOUS
10
162.8657209999999793
20
-57.9503549999999947
11
163.0996429999999862
21
-58.1842769999999945
0
LINE
8
BLACK
6
CONTINUOUS
10
163.0996429999999862
20
-58.1842769999999945
11
163.3059039999999982
21
-58.4429189999999963
0
LINE
8
BLACK
6
CONTINUOUS
10
163.3059039999999982
20
-58.4429189999999963
11
163.4819080000000042
21
-58.7230279999999993
0
LINE
8
BLACK
6
CONTINUOUS
10
163.4819080000000042
20
-58.7230279999999993
11
163.6254439999999875
21
-59.0210829999999973
0
LINE
8
BLACK
6
CONTINUOUS
10
163.6254439999999875
20
-59.0210829999999973
11
163.7347049999999911
21
-59.3333340000000007
0
LINE
8
BLACK
6
CONTINUOUS
10
163.7347049999999911
20
-59.3333340000000007
11
163.8083189999999831
21
-59.655856
0
LINE
8
BLACK
6
CONTINUOUS
10
163.8083189999999831
20
-59.655856
11
163.8453580000000045
21
-59.9845909999999947
0
LINE
8
BLACK
6
CONTINUOUS
10
163.8453580000000045
20
-59.9845909999999947
11
163.8453580000000045
21
-60.3154070000000004
0
LINE
8
BLACK
6
CONTINUOUS
10
163.8453580000000045
20
-60.3154070000000004
11
163.8083189999999831
21
-60.6441419999999951
0
LINE
8
BLACK
6
CONTINUOUS
10
163.8083189999999831
20
-60.6441419999999951
11
163.7347049999999911
21
-60.9666639999999944
0
LINE
8
BLACK
6
CONTINUOUS
10
163.7347049999999911
20
-60.9666639999999944
11
163.6254439999999875
21
-61.2789149999999978
0
LINE
8
BLACK
6
CONTINUOUS
10
163.6254439999999875
20
-61.2789149999999978
11
163.4819080000000042
21
-61.5769699999999958
0
LINE
8
BLACK
6
CONTINUOUS
10
163.4819080000000042
20
-61.5769699999999958
11
163.3059039999999982
21
-61.8570789999999988
0
LINE
8
BLACK
6
CONTINUOUS
10
163.3059039999999982
20
-61.8570789999999988
11
163.0996429999999862
21
-62.1157210000000006
0
LINE
8
BLACK
6
CONTINUOUS
10
163.0996429999999862
20
-62.1157210000000006
11
162.8657209999999793
21
-62.3496430000000004
0
LINE
8
BLACK
6
CONTINUOUS
10
162.8657209999999793
20
-62.3496430000000004
11
162.6070789999999988
21
-62.5559039999999982
0
LINE
8
BLACK
6
CONTINUOUS
10
162.6070789999999988
20
-62.5559039999999982
11
162.3269699999999887
21
-62.7319079999999971
0
LINE
8
BLACK
6
CONTINUOUS
10
162.3269699999999887
20
-62.7319079999999971
11
162.0289149999999836
21
-62.8754439999999946
0
LINE
8
BLACK
6
CONTINUOUS
10
162.0289149999999836
20
-62.8754439999999946
11
161.7166639999999802
21
-62.9847049999999982
0
LINE
8
BLACK
6
CONTINUOUS
10
161.7166639999999802
20
-62.9847049999999982
11
161.394141999999988
21
-63.0583189999999973
0
LINE
8
BLACK
6
CONTINUOUS
10
161.394141999999988
20
-63.0583189999999973
11
161.0654069999999933
21
-63.0953579999999974
0
LINE
8
BLACK
6
CONTINUOUS
10
161.0654069999999933
20
-63.0953579999999974
11
160.7345909999999947
21
-63.0953579999999974
0
LINE
8
BLACK
6
CONTINUOUS
10
160.7345909999999947
20
-63.0953579999999974
11
160.405856
21
-63.0583189999999973
0
LINE
8
BLACK
6
CONTINUOUS
10
160.405856
20
-63.0583189999999973
11
160.0833339999999794
21
-62.9847049999999982
0
LINE
8
BLACK
6
CONTINUOUS
10
160.0833339999999794
20
-62.9847049999999982
11
159.7710830000000044
21
-62.8754439999999946
0
LINE
8
BLACK
6
CONTINUOUS
10
159.7710830000000044
20
-62.8754439999999946
11
159.4730279999999993
21
-62.7319079999999971
0
LINE
8
BLACK
6
CONTINUOUS
10
159.4730279999999993
20
-62.7319079999999971
11
159.1929189999999892
21
-62.5559039999999982
0
LINE
8
BLACK
6
CONTINUOUS
10
159.1929189999999892
20
-62.5559039999999982
11
158.9342769999999803
21
-62.3496430000000004
0
LINE
8
BLACK
6
CONTINUOUS
10
158.9342769999999803
20
-62.3496430000000004
11
158.7003550000000018
21
-62.1157210000000006
0
LINE
8
BLACK
6
CONTINUOUS
10
158.7003550000000018
20
-62.1157210000000006
11
158.4940939999999898
21
-61.8570789999999988
0
LINE
8
BLACK
6
CONTINUOUS
10
158.4940939999999898
20
-61.8570789999999988
11
158.3180899999999838
21
-61.5769699999999958
0
LINE
8
BLACK
6
CONTINUOUS
10
158.3180899999999838
20
-61.5769699999999958
11
158.1745540000000005
21
-61.2789149999999978
0
LINE
8
BLACK
6
CONTINUOUS
10
158.1745540000000005
20
-61.2789149999999978
11
158.0652929999999969
21
-60.9666639999999944
0
LINE
8
BLACK
6
CONTINUOUS
10
158.0652929999999969
20
-60.9666639999999944
11
157.9916790000000049
21
-60.6441419999999951
0
LINE
8
BLACK
6
CONTINUOUS
10
157.9916790000000049
20
-60.6441419999999951
11
157.9546399999999835
21
-60.3154070000000004
0
LINE
8
BLACK
6
CONTINUOUS
10
157.9546399999999835
20
-60.3154070000000004
11
157.9546399999999835
21
-59.9899459999999962
0
LINE
8
BLACK
6
CONTINUOUS
10
157.9546399999999835
20
-59.9899459999999962
11
157.9546399999999835
21
-59.9845909999999947
0
LINE
8
BLACK
6
CONTINUOUS
10
157.9546399999999835
20
-59.9845909999999947
11
157.9916790000000049
21
-59.655856
0
LINE
8
BLACK
6
CONTINUOUS
10
157.9916790000000049
20
-59.655856
11
158.0652929999999969
21
-59.3333340000000007
0
LINE
8
BLACK
6
CONTINUOUS
10
158.0652929999999969
20
-59.3333340000000007
11
158.1745540000000005
21
-59.0210829999999973
0
LINE
8
BLACK
6
CONTINUOUS
10
158.1745540000000005
20
-59.0210829999999973
11
158.3180899999999838
21
-58.7230279999999993
0
LINE
8
BLACK
6
CONTINUOUS
10
158.3180899999999838
20
-58.7230279999999993
11
158.4940939999999898
21
-58.4429189999999963
0
LINE
8
BLACK
6
CONTINUOUS
10
158.4940939999999898
20
-58.4429189999999963
11
158.7003550000000018
21
-58.1842769999999945
0
LINE
8
BLACK
6
CONTINUOUS
10
158.7003550000000018
20
-58.1842769999999945
11
158.9342769999999803
21
-57.9503549999999947
0
LINE
8
BLACK
6
CONTINUOUS
10
158.9342769999999803
20
-57.9503549999999947
11
159.1929189999999892
21
-57.7440939999999969
0
LINE
8
BLACK
6
CONTINUOUS
10
159.1929189999999892
20
-57.7440939999999969
11
159.4730279999999993
21
-57.568089999999998
0
LINE
8
BLACK
6
CONTINUOUS
10
159.4730279999999993
20
-57.568089999999998
11
159.7710830000000044
21
-57.4245540000000005
0
LINE
8
BLACK
6
CONTINUOUS
10
159.7710830000000044
20
-57.4245540000000005
11
160.0833339999999794
21
-57.3152929999999969
0
LINE
8
BLACK
6
CONTINUOUS
10
160.0833339999999794
20
-57.3152929999999969
11
160.405856
21
-57.2416789999999978
0
LINE
8
BLACK
6
CONTINUOUS
10
160.405856
20
-57.2416789999999978
11
160.7345909999999947
21
-57.2046399999999977
0
LINE
8
BLACK
6
CONTINUOUS
10
160.7345909999999947
20
-57.2046399999999977
11
161.0654069999999933
21
-57.2046399999999977
0
LINE
8
BLACK
6
CONTINUOUS
10
161.0654069999999933
20
-57.2046399999999977
11
161.394141999999988
21
-57.2416789999999978
0
LINE
8
BLACK
6
CONTINUOUS
10
158.0499989999999855
20
-60.3100519999999989
11
158.0858389999999929
21
-60.6281439999999989
0
LINE
8
BLACK
6
CONTINUOUS
10
158.0858389999999929
20
-60.6281439999999989
11
158.157069000000007
21
-60.940222999999996
0
LINE
8
BLACK
6
CONTINUOUS
10
158.157069000000007
20
-60.940222999999996
11
158.2627929999999878
21
-61.2423649999999995
0
LINE
8
BLACK
6
CONTINUOUS
10
158.2627929999999878
20
-61.2423649999999995
11
158.4016819999999939
21
-61.5307699999999969
0
LINE
8
BLACK
6
CONTINUOUS
10
158.4016819999999939
20
-61.5307699999999969
11
158.5719880000000046
21
-61.8018110000000007
0
LINE
8
BLACK
6
CONTINUOUS
10
158.5719880000000046
20
-61.8018110000000007
11
158.771569999999997
21
-62.0520789999999991
0
LINE
8
BLACK
6
CONTINUOUS
10
158.771569999999997
20
-62.0520789999999991
11
158.997918999999996
21
-62.2784279999999981
0
LINE
8
BLACK
6
CONTINUOUS
10
158.997918999999996
20
-62.2784279999999981
11
159.2481870000000015
21
-62.4780099999999976
0
LINE
8
BLACK
6
CONTINUOUS
10
159.2481870000000015
20
-62.4780099999999976
11
159.5192279999999982
21
-62.6483159999999941
0
LINE
8
BLACK
6
CONTINUOUS
10
159.5192279999999982
20
-62.6483159999999941
11
159.8076329999999814
21
-62.7872050000000002
0
LINE
8
BLACK
6
CONTINUOUS
10
159.8076329999999814
20
-62.7872050000000002
11
160.1097749999999849
21
-62.8929289999999952
0
LINE
8
BLACK
6
CONTINUOUS
10
160.1097749999999849
20
-62.8929289999999952
11
160.4218539999999962
21
-62.9641589999999951
0
LINE
8
BLACK
6
CONTINUOUS
10
160.4218539999999962
20
-62.9641589999999951
11
160.7399460000000033
21
-62.9999989999999954
0
LINE
8
BLACK
6
CONTINUOUS
10
160.7399460000000033
20
-62.9999989999999954
11
161.0600519999999847
21
-62.9999989999999954
0
LINE
8
BLACK
6
CONTINUOUS
10
161.0600519999999847
20
-62.9999989999999954
11
161.3781439999999918
21
-62.9641589999999951
0
LINE
8
BLACK
6
CONTINUOUS
10
161.3781439999999918
20
-62.9641589999999951
11
161.6902230000000031
21
-62.8929289999999952
0
LINE
8
BLACK
6
CONTINUOUS
10
161.6902230000000031
20
-62.8929289999999952
11
161.9923650000000066
21
-62.7872050000000002
0
LINE
8
BLACK
6
CONTINUOUS
10
161.9923650000000066
20
-62.7872050000000002
11
162.2807699999999897
21
-62.6483159999999941
0
LINE
8
BLACK
6
CONTINUOUS
10
162.2807699999999897
20
-62.6483159999999941
11
162.5518109999999865
21
-62.4780099999999976
0
LINE
8
BLACK
6
CONTINUOUS
10
162.5518109999999865
20
-62.4780099999999976
11
162.802078999999992
21
-62.2784279999999981
0
LINE
8
BLACK
6
CONTINUOUS
10
162.802078999999992
20
-62.2784279999999981
11
163.028427999999991
21
-62.0520789999999991
0
LINE
8
BLACK
6
CONTINUOUS
10
163.028427999999991
20
-62.0520789999999991
11
163.2280099999999834
21
-61.8018110000000007
0
LINE
8
BLACK
6
CONTINUOUS
10
163.2280099999999834
20
-61.8018110000000007
11
163.3983159999999941
21
-61.5307699999999969
0
LINE
8
BLACK
6
CONTINUOUS
10
163.3983159999999941
20
-61.5307699999999969
11
163.5372050000000002
21
-61.2423649999999995
0
LINE
8
BLACK
6
CONTINUOUS
10
163.5372050000000002
20
-61.2423649999999995
11
163.642928999999981
21
-60.940222999999996
0
LINE
8
BLACK
6
CONTINUOUS
10
163.642928999999981
20
-60.940222999999996
11
163.7141589999999951
21
-60.6281439999999989
0
LINE
8
BLACK
6
CONTINUOUS
10
163.7141589999999951
20
-60.6281439999999989
11
163.7499990000000025
21
-60.3100519999999989
0
LINE
8
BLACK
6
CONTINUOUS
10
163.7499990000000025
20
-60.3100519999999989
11
163.7499990000000025
21
-59.9899459999999962
0
LINE
8
BLACK
6
CONTINUOUS
10
163.7499990000000025
20
-59.9899459999999962
11
163.7141589999999951
21
-59.6718539999999962
0
LINE
8
BLACK
6
CONTINUOUS
10
163.7141589999999951
20
-59.6718539999999962
11
163.642928999999981
21
-59.3597749999999991
0
LINE
8
BLACK
6
CONTINUOUS
10
163.642928999999981
20
-59.3597749999999991
11
163.5372050000000002
21
-59.0576329999999956
0
LINE
8
BLACK
6
CONTINUOUS
10
163.5372050000000002
20
-59.0576329999999956
11
163.3983159999999941
21
-58.7692279999999982
0
LINE
8
BLACK
6
CONTINUOUS
10
163.3983159999999941
20
-58.7692279999999982
11
163.2280099999999834
21
-58.4981869999999944
0
LINE
8
BLACK
6
CONTINUOUS
10
163.2280099999999834
20
-58.4981869999999944
11
163.028427999999991
21
-58.247918999999996
0
LINE
8
BLACK
6
CONTINUOUS
10
163.028427999999991
20
-58.247918999999996
11
162.802078999999992
21
-58.021569999999997
0
LINE
8
BLACK
6
CONTINUOUS
10
162.802078999999992
20
-58.021569999999997
11
162.5518109999999865
21
-57.8219879999999975
0
LINE
8
BLACK
6
CONTINUOUS
10
162.5518109999999865
20
-57.8219879999999975
11
162.2807699999999897
21
-57.6516819999999939
0
LINE
8
BLACK
6
CONTINUOUS
10
162.2807699999999897
20
-57.6516819999999939
11
161.9923650000000066
21
-57.5127929999999949
0
LINE
8
BLACK
6
CONTINUOUS
10
161.9923650000000066
20
-57.5127929999999949
11
161.6902230000000031
21
-57.4070689999999999
0
LINE
8
BLACK
6
CONTINUOUS
10
161.6902230000000031
20
-57.4070689999999999
11
161.3781439999999918
21
-57.335839
0
LINE
8
BLACK
6
CONTINUOUS
10
161.3781439999999918
20
-57.335839
11
161.0600519999999847
21
-57.2999989999999997
0
LINE
8
BLACK
6
CONTINUOUS
10
161.0600519999999847
20
-57.2999989999999997
11
160.7399460000000033
21
-57.2999989999999997
0
LINE
8
BLACK
6
CONTINUOUS
10
160.7399460000000033
20
-57.2999989999999997
11
160.4218539999999962
21
-57.335839
0
LINE
8
BLACK
6
CONTINUOUS
10
160.4218539999999962
20
-57.335839
11
160.1097749999999849
21
-57.4070689999999999
0
LINE
8
BLACK
6
CONTINUOUS
10
160.1097749999999849
20
-57.4070689999999999
11
159.8076329999999814
21
-57.5127929999999949
0
LINE
8
BLACK
6
CONTINUOUS
10
159.8076329999999814
20
-57.5127929999999949
11
159.5192279999999982
21
-57.6516819999999939
0
LINE
8
BLACK
6
CONTINUOUS
10
159.5192279999999982
20
-57.6516819999999939
11
159.2481870000000015
21
-57.8219879999999975
0
LINE
8
BLACK
6
CONTINUOUS
10
159.2481870000000015
20
-57.8219879999999975
11
158.997918999999996
21
-58.021569999999997
0
LINE
8
BLACK
6
CONTINUOUS
10
158.997918999999996
20
-58.021569999999997
11
158.771569999999997
21
-58.247918999999996
0
LINE
8
BLACK
6
CONTINUOUS
10
158.771569999999997
20
-58.247918999999996
11
158.5719880000000046
21
-58.4981869999999944
0
LINE
8
BLACK
6
CONTINUOUS
10
158.5719880000000046
20
-58.4981869999999944
11
158.4016819999999939
21
-58.7692279999999982
0
LINE
8
BLACK
6
CONTINUOUS
10
158.4016819999999939
20
-58.7692279999999982
11
158.2627929999999878
21
-59.0576329999999956
0
LINE
8
BLACK
6
CONTINUOUS
10
158.2627929999999878
20
-59.0576329999999956
11
158.157069000000007
21
-59.3597749999999991
0
LINE
8
BLACK
6
CONTINUOUS
10
158.157069000000007
20
-59.3597749999999991
11
158.0858389999999929
21
-59.6718539999999962
0
LINE
8
BLACK
6
CONTINUOUS
10
158.0858389999999929
20
-59.6718539999999962
11
158.0499989999999855
21
-59.9899459999999962
0
LINE
8
BLACK
6
CONTINUOUS
10
158.0499989999999855
20
-59.9899459999999962
11
158.0499989999999855
21
-60.3100519999999989
0
LINE
8
BLACK
6
CONTINUOUS
10
161.394141999999988
20
-32.9416790000000006
11
161.7166639999999802
21
-33.0152929999999998
0
LINE
8
BLACK
6
CONTINUOUS
10
161.7166639999999802
20
-33.0152929999999998
11
162.0289149999999836
21
-33.1245539999999963
0
LINE
8
BLACK
6
CONTINUOUS
10
162.0289149999999836
20
-33.1245539999999963
11
162.3269699999999887
21
-33.2680900000000008
0
LINE
8
BLACK
6
CONTINUOUS
10
162.3269699999999887
20
-33.2680900000000008
11
162.6070789999999988
21
-33.4440939999999998
0
LINE
8
BLACK
6
CONTINUOUS
10
162.6070789999999988
20
-33.4440939999999998
11
162.8657209999999793
21
-33.6503549999999976
0
LINE
8
BLACK
6
CONTINUOUS
10
162.8657209999999793
20
-33.6503549999999976
11
163.0996429999999862
21
-33.8842769999999973
0
LINE
8
BLACK
6
CONTINUOUS
10
163.0996429999999862
20
-33.8842769999999973
11
163.3059039999999982
21
-34.1429189999999991
0
LINE
8
BLACK
6
CONTINUOUS
10
163.3059039999999982
20
-34.1429189999999991
11
163.4819080000000042
21
-34.4230279999999951
0
LINE
8
BLACK
6
CONTINUOUS
10
163.4819080000000042
20
-34.4230279999999951
11
163.6254439999999875
21
-34.7210830000000001
0
LINE
8
BLACK
6
CONTINUOUS
10
163.6254439999999875
20
-34.7210830000000001
11
163.7347049999999911
21
-35.0333339999999964
0
LINE
8
BLACK
6
CONTINUOUS
10
163.7347049999999911
20
-35.0333339999999964
11
163.8083189999999831
21
-35.3558559999999957
0
LINE
8
BLACK
6
CONTINUOUS
10
163.8083189999999831
20
-35.3558559999999957
11
163.8453580000000045
21
-35.6845909999999975
0
LINE
8
BLACK
6
CONTINUOUS
10
163.8453580000000045
20
-35.6845909999999975
11
163.8453580000000045
21
-36.0154069999999962
0
LINE
8
BLACK
6
CONTINUOUS
10
163.8453580000000045
20
-36.0154069999999962
11
163.8083189999999831
21
-36.3441419999999979
0
LINE
8
BLACK
6
CONTINUOUS
10
163.8083189999999831
20
-36.3441419999999979
11
163.7347049999999911
21
-36.6666639999999973
0
LINE
8
BLACK
6
CONTINUOUS
10
163.7347049999999911
20
-36.6666639999999973
11
163.6254439999999875
21
-36.9789150000000006
0
LINE
8
BLACK
6
CONTINUOUS
10
163.6254439999999875
20
-36.9789150000000006
11
163.4819080000000042
21
-37.2769699999999986
0
LINE
8
BLACK
6
CONTINUOUS
10
163.4819080000000042
20
-37.2769699999999986
11
163.3059039999999982
21
-37.5570790000000017
0
LINE
8
BLACK
6
CONTINUOUS
10
163.3059039999999982
20
-37.5570790000000017
11
163.0996429999999862
21
-37.8157209999999964
0
LINE
8
BLACK
6
CONTINUOUS
10
163.0996429999999862
20
-37.8157209999999964
11
162.8657209999999793
21
-38.0496429999999961
0
LINE
8
BLACK
6
CONTINUOUS
10
162.8657209999999793
20
-38.0496429999999961
11
162.6070789999999988
21
-38.255904000000001
0
LINE
8
BLACK
6
CONTINUOUS
10
162.6070789999999988
20
-38.255904000000001
11
162.3269699999999887
21
-38.431908
0
LINE
8
BLACK
6
CONTINUOUS
10
162.3269699999999887
20
-38.431908
11
162.0289149999999836
21
-38.5754439999999974
0
LINE
8
BLACK
6
CONTINUOUS
10
162.0289149999999836
20
-38.5754439999999974
11
161.7166639999999802
21
-38.684705000000001
0
LINE
8
BLACK
6
CONTINUOUS
10
161.7166639999999802
20
-38.684705000000001
11
161.394141999999988
21
-38.7583190000000002
0
LINE
8
BLACK
6
CONTINUOUS
10
161.394141999999988
20
-38.7583190000000002
11
161.0654069999999933
21
-38.7953580000000002
0
LINE
8
BLACK
6
CONTINUOUS
10
161.0654069999999933
20
-38.7953580000000002
11
160.7345909999999947
21
-38.7953580000000002
0
LINE
8
BLACK
6
CONTINUOUS
10
160.7345909999999947
20
-38.7953580000000002
11
160.405856
21
-38.7583190000000002
0
LINE
8
BLACK
6
CONTINUOUS
10
160.405856
20
-38.7583190000000002
11
160.0833339999999794
21
-38.684705000000001
0
LINE
8
BLACK
6
CONTINUOUS
10
160.0833339999999794
20
-38.684705000000001
11
159.7710830000000044
21
-38.5754439999999974
0
LINE
8
BLACK
6
CONTINUOUS
10
159.7710830000000044
20
-38.5754439999999974
11
159.4730279999999993
21
-38.431908
0
LINE
8
BLACK
6
CONTINUOUS
10
159.4730279999999993
20
-38.431908
11
159.1929189999999892
21
-38.255904000000001
0
LINE
8
BLACK
6
CONTINUOUS
10
159.1929189999999892
20
-38.255904000000001
11
158.9342769999999803
21
-38.0496429999999961
0
LINE
8
BLACK
6
CONTINUOUS
10
158.9342769999999803
20
-38.0496429999999961
11
158.7003550000000018
21
-37.8157209999999964
0
LINE
8
BLACK
6
CONTINUOUS
10
158.7003550000000018
20
-37.8157209999999964
11
158.4940939999999898
21
-37.5570790000000017
0
LINE
8
BLACK
6
CONTINUOUS
10
158.4940939999999898
20
-37.5570790000000017
11
158.3180899999999838
21
-37.2769699999999986
0
LINE
8
BLACK
6
CONTINUOUS
10
158.3180899999999838
20
-37.2769699999999986
11
158.1745540000000005
21
-36.9789150000000006
0
LINE
8
BLACK
6
CONTINUOUS
10
158.1745540000000005
20
-36.9789150000000006
11
158.0652929999999969
21
-36.6666639999999973
0
LINE
8
BLACK
6
CONTINUOUS
10
158.0652929999999969
20
-36.6666639999999973
11
157.9916790000000049
21
-36.3441419999999979
0
LINE
8
BLACK
6
CONTINUOUS
10
157.9916790000000049
20
-36.3441419999999979
11
157.9546399999999835
21
-36.0154069999999962
0
LINE
8
BLACK
6
CONTINUOUS
10
157.9546399999999835
20
-36.0154069999999962
11
157.9546399999999835
21
-35.6899459999999991
0
LINE
8
BLACK
6
CONTINUOUS
10
157.9546399999999835
20
-35.6899459999999991
11
157.9546399999999835
21
-35.6845909999999975
0
LINE
8
BLACK
6
CONTINUOUS
10
157.9546399999999835
20
-35.6845909999999975
11
157.9916790000000049
21
-35.3558559999999957
0
LINE
8
BLACK
6
CONTINUOUS
10
157.9916790000000049
20
-35.3558559999999957
11
158.0652929999999969
21
-35.0333339999999964
0
LINE
8
BLACK
6
CONTINUOUS
10
158.0652929999999969
20
-35.0333339999999964
11
158.1745540000000005
21
-34.7210830000000001
0
LINE
8
BLACK
6
CONTINUOUS
10
158.1745540000000005
20
-34.7210830000000001
11
158.3180899999999838
21
-34.4230279999999951
0
LINE
8
BLACK
6
CONTINUOUS
10
158.3180899999999838
20
-34.4230279999999951
11
158.4940939999999898
21
-34.1429189999999991
0
LINE
8
BLACK
6
CONTINUOUS
10
158.4940939999999898
20
-34.1429189999999991
11
158.7003550000000018
21
-33.8842769999999973
0
LINE
8
BLACK
6
CONTINUOUS
10
158.7003550000000018
20
-33.8842769999999973
11
158.9342769999999803
21
-33.6503549999999976
0
LINE
8
BLACK
6
CONTINUOUS
10
158.9342769999999803
20
-33.6503549999999976
11
159.1929189999999892
21
-33.4440939999999998
0
LINE
8
BLACK
6
CONTINUOUS
10
159.1929189999999892
20
-33.4440939999999998
11
159.4730279999999993
21
-33.2680900000000008
0
LINE
8
BLACK
6
CONTINUOUS
10
159.4730279999999993
20
-33.2680900000000008
11
159.7710830000000044
21
-33.1245539999999963
0
LINE
8
BLACK
6
CONTINUOUS
10
159.7710830000000044
20
-33.1245539999999963
11
160.0833339999999794
21
-33.0152929999999998
0
LINE
8
BLACK
6
CONTINUOUS
10
160.0833339999999794
20
-33.0152929999999998
11
160.405856
21
-32.9416790000000006
0
LINE
8
BLACK
6
CONTINUOUS
10
160.405856
20
-32.9416790000000006
11
160.7345909999999947
21
-32.9046400000000006
0
LINE
8
BLACK
6
CONTINUOUS
10
160.7345909999999947
20
-32.9046400000000006
11
161.0654069999999933
21
-32.9046400000000006
0
LINE
8
BLACK
6
CONTINUOUS
10
161.0654069999999933
20
-32.9046400000000006
11
161.394141999999988
21
-32.9416790000000006
0
LINE
8
BLACK
6
CONTINUOUS
10
158.0499989999999855
20
-36.0100520000000017
11
158.0858389999999929
21
-36.3281440000000018
0
LINE
8
BLACK
6
CONTINUOUS
10
158.0858389999999929
20
-36.3281440000000018
11
158.157069000000007
21
-36.6402229999999989
0
LINE
8
BLACK
6
CONTINUOUS
10
158.157069000000007
20
-36.6402229999999989
11
158.2627929999999878
21
-36.9423649999999952
0
LINE
8
BLACK
6
CONTINUOUS
10
158.2627929999999878
20
-36.9423649999999952
11
158.4016819999999939
21
-37.2307699999999997
0
LINE
8
BLACK
6
CONTINUOUS
10
158.4016819999999939
20
-37.2307699999999997
11
158.5719880000000046
21
-37.5018109999999965
0
LINE
8
BLACK
6
CONTINUOUS
10
158.5719880000000046
20
-37.5018109999999965
11
158.771569999999997
21
-37.7520789999999948
0
LINE
8
BLACK
6
CONTINUOUS
10
158.771569999999997
20
-37.7520789999999948
11
158.997918999999996
21
-37.978428000000001
0
LINE
8
BLACK
6
CONTINUOUS
10
158.997918999999996
20
-37.978428000000001
11
159.2481870000000015
21
-38.1780100000000004
0
LINE
8
BLACK
6
CONTINUOUS
10
159.2481870000000015
20
-38.1780100000000004
11
159.5192279999999982
21
-38.348315999999997
0
LINE
8
BLACK
6
CONTINUOUS
10
159.5192279999999982
20
-38.348315999999997
11
159.8076329999999814
21
-38.4872049999999959
0
LINE
8
BLACK
6
CONTINUOUS
10
159.8076329999999814
20
-38.4872049999999959
11
160.1097749999999849
21
-38.592928999999998
0
LINE
8
BLACK
6
CONTINUOUS
10
160.1097749999999849
20
-38.592928999999998
11
160.4218539999999962
21
-38.6641589999999979
0
LINE
8
BLACK
6
CONTINUOUS
10
160.4218539999999962
20
-38.6641589999999979
11
160.7399460000000033
21
-38.6999989999999983
0
LINE
8
BLACK
6
CONTINUOUS
10
160.7399460000000033
20
-38.6999989999999983
11
161.0600519999999847
21
-38.6999989999999983
0
LINE
8
BLACK
6
CONTINUOUS
10
161.0600519999999847
20
-38.6999989999999983
11
161.3781439999999918
21
-38.6641589999999979
0
LINE
8
BLACK
6
CONTINUOUS
10
161.3781439999999918
20
-38.6641589999999979
11
161.6902230000000031
21
-38.592928999999998
0
LINE
8
BLACK
6
CONTINUOUS
10
161.6902230000000031
20
-38.592928999999998
11
161.9923650000000066
21
-38.4872049999999959
0
LINE
8
BLACK
6
CONTINUOUS
10
161.9923650000000066
20
-38.4872049999999959
11
162.2807699999999897
21
-38.348315999999997
0
LINE
8
BLACK
6
CONTINUOUS
10
162.2807699999999897
20
-38.348315999999997
11
162.5518109999999865
21
-38.1780100000000004
0
LINE
8
BLACK
6
CONTINUOUS
10
162.5518109999999865
20
-38.1780100000000004
11
162.802078999999992
21
-37.978428000000001
0
LINE
8
BLACK
6
CONTINUOUS
10
162.802078999999992
20
-37.978428000000001
11
163.028427999999991
21
-37.7520789999999948
0
LINE
8
BLACK
6
CONTINUOUS
10
163.028427999999991
20
-37.7520789999999948
11
163.2280099999999834
21
-37.5018109999999965
0
LINE
8
BLACK
6
CONTINUOUS
10
163.2280099999999834
20
-37.5018109999999965
11
163.3983159999999941
21
-37.2307699999999997
0
LINE
8
BLACK
6
CONTINUOUS
10
163.3983159999999941
20
-37.2307699999999997
11
163.5372050000000002
21
-36.9423649999999952
0
LINE
8
BLACK
6
CONTINUOUS
10
163.5372050000000002
20
-36.9423649999999952
11
163.642928999999981
21
-36.6402229999999989
0
LINE
8
BLACK
6
CONTINUOUS
10
163.642928999999981
20
-36.6402229999999989
11
163.7141589999999951
21
-36.3281440000000018
0
LINE
8
BLACK
6
CONTINUOUS
10
163.7141589999999951
20
-36.3281440000000018
11
163.7499990000000025
21
-36.0100520000000017
0
LINE
8
BLACK
6
CONTINUOUS
10
163.7499990000000025
20
-36.0100520000000017
11
163.7499990000000025
21
-35.6899459999999991
0
LINE
8
BLACK
6
CONTINUOUS
10
163.7499990000000025
20
-35.6899459999999991
11
163.7141589999999951
21
-35.371853999999999
0
LINE
8
BLACK
6
CONTINUOUS
10
163.7141589999999951
20
-35.371853999999999
11
163.642928999999981
21
-35.0597750000000019
0
LINE
8
BLACK
6
CONTINUOUS
10
163.642928999999981
20
-35.0597750000000019
11
163.5372050000000002
21
-34.7576329999999984
0
LINE
8
BLACK
6
CONTINUOUS
10
163.5372050000000002
20
-34.7576329999999984
11
163.3983159999999941
21
-34.4692280000000011
0
LINE
8
BLACK
6
CONTINUOUS
10
163.3983159999999941
20
-34.4692280000000011
11
163.2280099999999834
21
-34.1981869999999972
0
LINE
8
BLACK
6
CONTINUOUS
10
163.2280099999999834
20
-34.1981869999999972
11
163.028427999999991
21
-33.9479189999999988
0
LINE
8
BLACK
6
CONTINUOUS
10
163.028427999999991
20
-33.9479189999999988
11
162.802078999999992
21
-33.7215699999999998
0
LINE
8
BLACK
6
CONTINUOUS
10
162.802078999999992
20
-33.7215699999999998
11
162.5518109999999865
21
-33.5219880000000003
0
LINE
8
BLACK
6
CONTINUOUS
10
162.5518109999999865
20
-33.5219880000000003
11
162.2807699999999897
21
-33.3516819999999967
0
LINE
8
BLACK
6
CONTINUOUS
10
162.2807699999999897
20
-33.3516819999999967
11
161.9923650000000066
21
-33.2127929999999978
0
LINE
8
BLACK
6
CONTINUOUS
10
161.9923650000000066
20
-33.2127929999999978
11
161.6902230000000031
21
-33.1070689999999956
0
LINE
8
BLACK
6
CONTINUOUS
10
161.6902230000000031
20
-33.1070689999999956
11
161.3781439999999918
21
-33.0358389999999957
0
LINE
8
BLACK
6
CONTINUOUS
10
161.3781439999999918
20
-33.0358389999999957
11
161.0600519999999847
21
-32.9999989999999954
0
LINE
8
BLACK
6
CONTINUOUS
10
161.0600519999999847
20
-32.9999989999999954
11
160.7399460000000033
21
-32.9999989999999954
0
LINE
8
BLACK
6
CONTINUOUS
10
160.7399460000000033
20
-32.9999989999999954
11
160.4218539999999962
21
-33.0358389999999957
0
LINE
8
BLACK
6
CONTINUOUS
10
160.4218539999999962
20
-33.0358389999999957
11
160.1097749999999849
21
-33.1070689999999956
0
LINE
8
BLACK
6
CONTINUOUS
10
160.1097749999999849
20
-33.1070689999999956
11
159.8076329999999814
21
-33.2127929999999978
0
LINE
8
BLACK
6
CONTINUOUS
10
159.8076329999999814
20
-33.2127929999999978
11
159.5192279999999982
21
-33.3516819999999967
0
LINE
8
BLACK
6
CONTINUOUS
10
159.5192279999999982
20
-33.3516819999999967
11
159.2481870000000015
21
-33.5219880000000003
0
LINE
8
BLACK
6
CONTINUOUS
10
159.2481870000000015
20
-33.5219880000000003
11
158.997918999999996
21
-33.7215699999999998
0
LINE
8
BLACK
6
CONTINUOUS
10
158.997918999999996
20
-33.7215699999999998
11
158.771569999999997
21
-33.9479189999999988
0
LINE
8
BLACK
6
CONTINUOUS
10
158.771569999999997
20
-33.9479189999999988
11
158.5719880000000046
21
-34.1981869999999972
0
LINE
8
BLACK
6
CONTINUOUS
10
158.5719880000000046
20
-34.1981869999999972
11
158.4016819999999939
21
-34.4692280000000011
0
LINE
8
BLACK
6
CONTINUOUS
10
158.4016819999999939
20
-34.4692280000000011
11
158.2627929999999878
21
-34.7576329999999984
0
LINE
8
BLACK
6
CONTINUOUS
10
158.2627929999999878
20
-34.7576329999999984
11
158.157069000000007
21
-35.0597750000000019
0
LINE
8
BLACK
6
CONTINUOUS
10
158.157069000000007
20
-35.0597750000000019
11
158.0858389999999929
21
-35.371853999999999
0
LINE
8
BLACK
6
CONTINUOUS
10
158.0858389999999929
20
-35.371853999999999
11
158.0499989999999855
21
-35.6899459999999991
0
LINE
8
BLACK
6
CONTINUOUS
10
158.0499989999999855
20
-35.6899459999999991
11
158.0499989999999855
21
-36.0100520000000017
0
LINE
8
BLACK
6
CONTINUOUS
10
164.4746769999999856
20
-29.9686479999999982
11
164.9464279999999974
21
-30.024483
0
LINE
8
BLACK
6
CONTINUOUS
10
164.9464279999999974
20
-30.024483
11
165.4123439999999903
21
-30.1171599999999984
0
LINE
8
BLACK
6
CONTINUOUS
10
165.4123439999999903
20
-30.1171599999999984
11
165.8695519999999988
21
-30.2461059999999975
0
LINE
8
BLACK
6
CONTINUOUS
10
165.8695519999999988
20
-30.2461059999999975
11
166.3152340000000038
21
-30.4105259999999973
0
LINE
8
BLACK
6
CONTINUOUS
10
166.3152340000000038
20
-30.4105259999999973
11
166.74664199999998
21
-30.6094079999999984
0
LINE
8
BLACK
6
CONTINUOUS
10
166.74664199999998
20
-30.6094079999999984
11
167.1611159999999927
21
-30.8415249999999972
0
LINE
8
BLACK
6
CONTINUOUS
10
167.1611159999999927
20
-30.8415249999999972
11
167.556100999999984
21
-31.1054449999999996
0
LINE
8
BLACK
6
CONTINUOUS
10
167.556100999999984
20
-31.1054449999999996
11
167.9291609999999935
21
-31.3995409999999993
0
LINE
8
BLACK
6
CONTINUOUS
10
167.9291609999999935
20
-31.3995409999999993
11
168.2779960000000017
21
-31.7220009999999988
0
LINE
8
BLACK
6
CONTINUOUS
10
168.2779960000000017
20
-31.7220009999999988
11
168.6004570000000058
21
-32.0708369999999974
0
LINE
8
BLACK
6
CONTINUOUS
10
168.6004570000000058
20
-32.0708369999999974
11
168.8945530000000019
21
-32.4438969999999998
0
LINE
8
BLACK
6
CONTINUOUS
10
168.8945530000000019
20
-32.4438969999999998
11
169.158473999999984
21
-32.8388810000000007
0
LINE
8
BLACK
6
CONTINUOUS
10
169.158473999999984
20
-32.8388810000000007
11
169.3905900000000031
21
-33.2533549999999991
0
LINE
8
BLACK
6
CONTINUOUS
10
169.3905900000000031
20
-33.2533549999999991
11
169.5894720000000007
21
-33.6847629999999967
0
LINE
8
BLACK
6
CONTINUOUS
10
169.5894720000000007
20
-33.6847629999999967
11
169.753893000000005
21
-34.1304450000000017
0
LINE
8
BLACK
6
CONTINUOUS
10
169.753893000000005
20
-34.1304450000000017
11
169.8828399999999874
21
-34.587652999999996
0
LINE
8
BLACK
6
CONTINUOUS
10
169.8828399999999874
20
-34.587652999999996
11
169.9755159999999989
21
-35.053568999999996
0
LINE
8
BLACK
6
CONTINUOUS
10
169.9755159999999989
20
-35.053568999999996
11
170.0313519999999983
21
-35.5253200000000007
0
LINE
8
BLACK
6
CONTINUOUS
10
170.0313519999999983
20
-35.5253200000000007
11
170.0500020000000063
21
-35.9999979999999979
0
LINE
8
BLACK
6
CONTINUOUS
10
170.0500020000000063
20
-35.9999979999999979
11
170.0499999999999829
21
-35.9999979999999979
0
LINE
8
BLACK
6
CONTINUOUS
10
170.0499999999999829
20
-35.9999979999999979
11
170.0499999999999829
21
-103.9999979999999908
0
LINE
8
BLACK
6
CONTINUOUS
10
170.0499999999999829
20
-103.9999979999999908
11
170.049997999999988
21
-104.0000039999999899
0
LINE
8
BLACK
6
CONTINUOUS
10
170.049997999999988
20
-104.0000039999999899
11
170.0313490000000058
21
-104.4746760000000023
0
LINE
8
BLACK
6
CONTINUOUS
10
170.0313490000000058
20
-104.4746760000000023
11
169.975514000000004
21
-104.9464269999999999
0
LINE
8
BLACK
6
CONTINUOUS
10
169.975514000000004
20
-104.9464269999999999
11
169.882836999999995
21
-105.4123429999999928
0
LINE
8
BLACK
6
CONTINUOUS
10
169.882836999999995
20
-105.4123429999999928
11
169.7538909999999817
21
-105.8695510000000013
0
LINE
8
BLACK
6
CONTINUOUS
10
169.7538909999999817
20
-105.8695510000000013
11
169.5894710000000032
21
-106.3152329999999921
0
LINE
8
BLACK
6
CONTINUOUS
10
169.5894710000000032
20
-106.3152329999999921
11
169.3905890000000056
21
-106.7466409999999968
0
LINE
8
BLACK
6
CONTINUOUS
10
169.3905890000000056
20
-106.7466409999999968
11
169.1584729999999865
21
-107.1611149999999952
0
LINE
8
BLACK
6
CONTINUOUS
10
169.1584729999999865
20
-107.1611149999999952
11
168.8945520000000045
21
-107.5561000000000007
0
LINE
8
BLACK
6
CONTINUOUS
10
168.8945520000000045
20
-107.5561000000000007
11
168.6004559999999799
21
-107.929159999999996
0
LINE
8
BLACK
6
CONTINUOUS
10
168.6004559999999799
20
-107.929159999999996
11
168.2779960000000017
21
-108.27799499999999
0
LINE
8
BLACK
6
CONTINUOUS
10
168.2779960000000017
20
-108.27799499999999
11
167.929159999999996
21
-108.6004549999999966
0
LINE
8
BLACK
6
CONTINUOUS
10
167.929159999999996
20
-108.6004549999999966
11
167.5560999999999865
21
-108.8945519999999902
0
LINE
8
BLACK
6
CONTINUOUS
10
167.5560999999999865
20
-108.8945519999999902
11
167.1611159999999927
21
-109.1584719999999891
0
LINE
8
BLACK
6
CONTINUOUS
10
167.1611159999999927
20
-109.1584719999999891
11
166.74664199999998
21
-109.3905889999999914
0
LINE
8
BLACK
6
CONTINUOUS
10
166.74664199999998
20
-109.3905889999999914
11
166.3152340000000038
21
-109.5894699999999915
0
LINE
8
BLACK
6
CONTINUOUS
10
166.3152340000000038
20
-109.5894699999999915
11
165.8695519999999988
21
-109.7538909999999959
0
LINE
8
BLACK
6
CONTINUOUS
10
165.8695519999999988
20
-109.7538909999999959
11
165.4123439999999903
21
-109.882836999999995
0
LINE
8
BLACK
6
CONTINUOUS
10
165.4123439999999903
20
-109.882836999999995
11
164.9464279999999974
21
-109.9755139999999898
0
LINE
8
BLACK
6
CONTINUOUS
10
164.9464279999999974
20
-109.9755139999999898
11
164.4746769999999856
21
-110.0313489999999916
0
LINE
8
BLACK
6
CONTINUOUS
10
164.4746769999999856
20
-110.0313489999999916
11
163.9999990000000025
21
-110.0499989999999997
0
LINE
8
BLACK
6
CONTINUOUS
10
163.9999990000000025
20
-110.0499989999999997
11
163.9999990000000025
21
-110.049997999999988
0
LINE
8
BLACK
6
CONTINUOUS
10
163.9999990000000025
20
-110.049997999999988
11
154.9999990000000025
21
-110.0499989999999997
0
LINE
8
BLACK
6
CONTINUOUS
10
154.9999990000000025
20
-110.0499989999999997
11
154.9808649999999943
21
-110.0461929999999882
0
LINE
8
BLACK
6
CONTINUOUS
10
154.9808649999999943
20
-110.0461929999999882
11
154.9538049999999885
21
-110.0191329999999965
0
LINE
8
BLACK
6
CONTINUOUS
10
154.9538049999999885
20
-110.0191329999999965
11
154.9538049999999885
21
-110.019131999999999
0
LINE
8
BLACK
6
CONTINUOUS
10
154.9538049999999885
20
-110.019131999999999
11
154.9499989999999912
21
-109.9999989999999883
0
LINE
8
BLACK
6
CONTINUOUS
10
154.9499989999999912
20
-109.9999989999999883
11
154.9499989999999912
21
-103.9999989999999883
0
LINE
8
BLACK
6
CONTINUOUS
10
154.9499989999999912
20
-103.9999989999999883
11
154.9538049999999885
21
-103.9808649999999943
0
LINE
8
BLACK
6
CONTINUOUS
10
154.9538049999999885
20
-103.9808649999999943
11
154.9808649999999943
21
-103.9538049999999885
0
LINE
8
BLACK
6
CONTINUOUS
10
154.9808649999999943
20
-103.9538049999999885
11
154.9999990000000025
21
-103.9499989999999912
0
LINE
8
BLACK
6
CONTINUOUS
10
154.9999990000000025
20
-103.9499989999999912
11
157.9519630000000063
21
-103.9499989999999912
0
LINE
8
BLACK
6
CONTINUOUS
10
157.9519630000000063
20
-103.9499989999999912
11
157.9686489999999992
21
-103.525320999999991
0
LINE
8
BLACK
6
CONTINUOUS
10
157.9686489999999992
20
-103.525320999999991
11
158.0244849999999985
21
-103.0535709999999909
0
LINE
8
BLACK
6
CONTINUOUS
10
158.0244849999999985
20
-103.0535709999999909
11
158.1171609999999816
21
-102.587654999999998
0
LINE
8
BLACK
6
CONTINUOUS
10
158.1171609999999816
20
-102.587654999999998
11
158.246106999999995
21
-102.1304459999999921
0
LINE
8
BLACK
6
CONTINUOUS
10
158.246106999999995
20
-102.1304459999999921
11
158.4105279999999993
21
-101.6847640000000013
0
LINE
8
BLACK
6
CONTINUOUS
10
158.4105279999999993
20
-101.6847640000000013
11
158.6094099999999969
21
-101.2533569999999941
0
LINE
8
BLACK
6
CONTINUOUS
10
158.6094099999999969
20
-101.2533569999999941
11
158.8415259999999876
21
-100.8388829999999956
0
LINE
8
BLACK
6
CONTINUOUS
10
158.8415259999999876
20
-100.8388829999999956
11
159.1054460000000006
21
-100.4438979999999901
0
LINE
8
BLACK
6
CONTINUOUS
10
159.1054460000000006
20
-100.4438979999999901
11
159.3995429999999942
21
-100.0708389999999923
0
LINE
8
BLACK
6
CONTINUOUS
10
159.3995429999999942
20
-100.0708389999999923
11
159.7220030000000008
21
-99.7220030000000008
0
LINE
8
BLACK
6
CONTINUOUS
10
159.7220030000000008
20
-99.7220030000000008
11
160.0708390000000065
21
-99.3995429999999942
0
LINE
8
BLACK
6
CONTINUOUS
10
160.0708390000000065
20
-99.3995429999999942
11
160.4438979999999901
21
-99.1054460000000006
0
LINE
8
BLACK
6
CONTINUOUS
10
160.4438979999999901
20
-99.1054460000000006
11
160.8388829999999814
21
-98.8415260000000018
0
LINE
8
BLACK
6
CONTINUOUS
10
160.8388829999999814
20
-98.8415260000000018
11
161.2533569999999941
21
-98.6094099999999969
0
LINE
8
BLACK
6
CONTINUOUS
10
161.2533569999999941
20
-98.6094099999999969
11
161.6847640000000013
21
-98.4105279999999993
0
LINE
8
BLACK
6
CONTINUOUS
10
161.6847640000000013
20
-98.4105279999999993
11
162.1304460000000063
21
-98.246106999999995
0
LINE
8
BLACK
6
CONTINUOUS
10
162.1304460000000063
20
-98.246106999999995
11
162.5876549999999838
21
-98.1171609999999959
0
LINE
8
BLACK
6
CONTINUOUS
10
162.5876549999999838
20
-98.1171609999999959
11
163.0535710000000051
21
-98.0244849999999985
0
LINE
8
BLACK
6
CONTINUOUS
10
163.0535710000000051
20
-98.0244849999999985
11
163.525320999999991
21
-97.9686489999999992
0
LINE
8
BLACK
6
CONTINUOUS
10
163.525320999999991
20
-97.9686489999999992
11
163.9499989999999912
21
-97.9519629999999921
0
LINE
8
BLACK
6
CONTINUOUS
10
163.9499989999999912
20
-97.9519629999999921
11
163.9499989999999912
21
-68.9999990000000025
0
LINE
8
BLACK
6
CONTINUOUS
10
163.9499989999999912
20
-68.9999990000000025
11
163.9500009999999861
21
-68.9999880000000019
0
LINE
8
BLACK
6
CONTINUOUS
10
163.9500009999999861
20
-68.9999880000000019
11
163.9500009999999861
21
-68.8343309999999917
0
LINE
8
BLACK
6
CONTINUOUS
10
163.9500009999999861
20
-68.8343309999999917
11
163.912903
21
-68.505077
0
LINE
8
BLACK
6
CONTINUOUS
10
163.912903
20
-68.505077
11
163.8391729999999882
21
-68.1820469999999972
0
LINE
8
BLACK
6
CONTINUOUS
10
163.8391729999999882
20
-68.1820469999999972
11
163.729738999999995
21
-67.8693039999999996
0
LINE
8
BLACK
6
CONTINUOUS
10
163.729738999999995
20
-67.8693039999999996
11
163.585977999999983
21
-67.5707799999999992
0
LINE
8
BLACK
6
CONTINUOUS
10
163.585977999999983
20
-67.5707799999999992
11
163.4096959999999967
21
-67.2902289999999965
0
LINE
8
BLACK
6
CONTINUOUS
10
163.4096959999999967
20
-67.2902289999999965
11
163.203109999999981
21
-67.0311789999999945
0
LINE
8
BLACK
6
CONTINUOUS
10
163.203109999999981
20
-67.0311789999999945
11
162.9688199999999938
21
-66.7968879999999956
0
LINE
8
BLACK
6
CONTINUOUS
10
162.9688199999999938
20
-66.7968879999999956
11
162.7097699999999918
21
-66.5903029999999916
0
LINE
8
BLACK
6
CONTINUOUS
10
162.7097699999999918
20
-66.5903029999999916
11
162.4292189999999891
21
-66.4140220000000028
0
LINE
8
BLACK
6
CONTINUOUS
10
162.4292189999999891
20
-66.4140220000000028
11
162.1306940000000054
21
-66.2702599999999933
0
LINE
8
BLACK
6
CONTINUOUS
10
162.1306940000000054
20
-66.2702599999999933
11
161.8179509999999937
21
-66.1608260000000001
0
LINE
8
BLACK
6
CONTINUOUS
10
161.8179509999999937
20
-66.1608260000000001
11
161.4949210000000051
21
-66.087097
0
LINE
8
BLACK
6
CONTINUOUS
10
161.4949210000000051
20
-66.087097
11
161.1656679999999824
21
-66.0499989999999997
0
LINE
8
BLACK
6
CONTINUOUS
10
161.1656679999999824
20
-66.0499989999999997
11
160.9999990000000025
21
-66.0499989999999997
0
LINE
8
BLACK
6
CONTINUOUS
10
160.9999990000000025
20
-66.0499989999999997
11
160.5253219999999885
21
-66.0313489999999916
0
LINE
8
BLACK
6
CONTINUOUS
10
160.5253219999999885
20
-66.0313489999999916
11
160.0535710000000051
21
-65.9755129999999923
0
LINE
8
BLACK
6
CONTINUOUS
10
160.0535710000000051
20
-65.9755129999999923
11
159.5876549999999838
21
-65.882836999999995
0
LINE
8
BLACK
6
CONTINUOUS
10
159.5876549999999838
20
-65.882836999999995
11
159.1304470000000038
21
-65.7538909999999959
0
LINE
8
BLACK
6
CONTINUOUS
10
159.1304470000000038
20
-65.7538909999999959
11
158.6847649999999987
21
-65.5894699999999915
0
LINE
8
BLACK
6
CONTINUOUS
10
158.6847649999999987
20
-65.5894699999999915
11
158.2533569999999941
21
-65.3905879999999939
0
LINE
8
BLACK
6
CONTINUOUS
10
158.2533569999999941
20
-65.3905879999999939
11
157.8388839999999789
21
-65.1584720000000033
0
LINE
8
BLACK
6
CONTINUOUS
10
157.8388839999999789
20
-65.1584720000000033
11
157.4438989999999876
21
-64.8945519999999902
0
LINE
8
BLACK
6
CONTINUOUS
10
157.4438989999999876
20
-64.8945519999999902
11
157.070840000000004
21
-64.6004549999999966
0
LINE
8
BLACK
6
CONTINUOUS
10
157.070840000000004
20
-64.6004549999999966
11
156.7220039999999983
21
-64.27799499999999
0
LINE
8
BLACK
6
CONTINUOUS
10
156.7220039999999983
20
-64.27799499999999
11
156.3995439999999917
21
-63.929159999999996
0
LINE
8
BLACK
6
CONTINUOUS
10
156.3995439999999917
20
-63.929159999999996
11
156.1054479999999955
21
-63.5560999999999936
0
LINE
8
BLACK
6
CONTINUOUS
10
156.1054479999999955
20
-63.5560999999999936
11
155.8415279999999825
21
-63.1611149999999952
0
LINE
8
BLACK
6
CONTINUOUS
10
155.8415279999999825
20
-63.1611149999999952
11
155.6094109999999944
21
-62.7466419999999943
0
LINE
8
BLACK
6
CONTINUOUS
10
155.6094109999999944
20
-62.7466419999999943
11
155.4105299999999943
21
-62.3152339999999967
0
LINE
8
BLACK
6
CONTINUOUS
10
155.4105299999999943
20
-62.3152339999999967
11
155.2461089999999899
21
-61.8695519999999988
0
LINE
8
BLACK
6
CONTINUOUS
10
155.2461089999999899
20
-61.8695519999999988
11
155.117163000000005
21
-61.4123439999999974
0
LINE
8
BLACK
6
CONTINUOUS
10
155.117163000000005
20
-61.4123439999999974
11
155.0244869999999935
21
-60.9464279999999974
0
LINE
8
BLACK
6
CONTINUOUS
10
155.0244869999999935
20
-60.9464279999999974
11
154.9686509999999942
21
-60.4746769999999998
0
LINE
8
BLACK
6
CONTINUOUS
10
154.9686509999999942
20
-60.4746769999999998
11
154.9500009999999861
21
-60.
0
LINE
8
BLACK
6
CONTINUOUS
10
154.9500009999999861
20
-60.
11
154.9686509999999942
21
-59.5253230000000002
0
LINE
8
BLACK
6
CONTINUOUS
10
154.9686509999999942
20
-59.5253230000000002
11
155.0244869999999935
21
-59.0535719999999955
0
LINE
8
BLACK
6
CONTINUOUS
10
155.0244869999999935
20
-59.0535719999999955
11
155.117163000000005
21
-58.5876559999999955
0
LINE
8
BLACK
6
CONTINUOUS
10
155.117163000000005
20
-58.5876559999999955
11
155.2461089999999899
21
-58.1304479999999941
0
LINE
8
BLACK
6
CONTINUOUS
10
155.2461089999999899
20
-58.1304479999999941
11
155.4105299999999943
21
-57.6847659999999962
0
LINE
8
BLACK
6
CONTINUOUS
10
155.4105299999999943
20
-57.6847659999999962
11
155.6094109999999944
21
-57.2533579999999986
0
LINE
8
BLACK
6
CONTINUOUS
10
155.6094109999999944
20
-57.2533579999999986
11
155.8415279999999825
21
-56.8388849999999977
0
LINE
8
BLACK
6
CONTINUOUS
10
155.8415279999999825
20
-56.8388849999999977
11
156.1054479999999955
21
-56.4438999999999993
0
LINE
8
BLACK
6
CONTINUOUS
10
156.1054479999999955
20
-56.4438999999999993
11
156.3995439999999917
21
-56.0708399999999969
0
LINE
8
BLACK
6
CONTINUOUS
10
156.3995439999999917
20
-56.0708399999999969
11
156.7220039999999983
21
-55.7220049999999958
0
LINE
8
BLACK
6
CONTINUOUS
10
156.7220039999999983
20
-55.7220049999999958
11
157.070840000000004
21
-55.3995449999999963
0
LINE
8
BLACK
6
CONTINUOUS
10
157.070840000000004
20
-55.3995449999999963
11
157.4438989999999876
21
-55.1054479999999955
0
LINE
8
BLACK
6
CONTINUOUS
10
157.4438989999999876
20
-55.1054479999999955
11
157.8388839999999789
21
-54.8415279999999967
0
LINE
8
BLACK
6
CONTINUOUS
10
157.8388839999999789
20
-54.8415279999999967
11
158.2533569999999941
21
-54.609411999999999
0
LINE
8
BLACK
6
CONTINUOUS
10
158.2533569999999941
20
-54.609411999999999
11
158.6847649999999987
21
-54.4105299999999943
0
LINE
8
BLACK
6
CONTINUOUS
10
158.6847649999999987
20
-54.4105299999999943
11
159.1304470000000038
21
-54.246108999999997
0
LINE
8
BLACK
6
CONTINUOUS
10
159.1304470000000038
20
-54.246108999999997
11
159.5876549999999838
21
-54.1171629999999979
0
LINE
8
BLACK
6
CONTINUOUS
10
159.5876549999999838
20
-54.1171629999999979
11
160.0535710000000051
21
-54.0244870000000006
0
LINE
8
BLACK
6
CONTINUOUS
10
160.0535710000000051
20
-54.0244870000000006
11
160.5253219999999885
21
-53.9686509999999942
0
LINE
8
BLACK
6
CONTINUOUS
10
160.5253219999999885
20
-53.9686509999999942
11
160.9999909999999943
21
-53.9500010000000003
0
LINE
8
BLACK
6
CONTINUOUS
10
160.9999909999999943
20
-53.9500010000000003
11
160.9999990000000025
21
-53.9499989999999983
0
LINE
8
BLACK
6
CONTINUOUS
10
160.9999990000000025
20
-53.9499989999999983
11
161.1656669999999849
21
-53.9499989999999983
0
LINE
8
BLACK
6
CONTINUOUS
10
161.1656669999999849
20
-53.9499989999999983
11
161.4949210000000051
21
-53.912900999999998
0
LINE
8
BLACK
6
CONTINUOUS
10
161.4949210000000051
20
-53.912900999999998
11
161.8179509999999937
21
-53.8391719999999978
0
LINE
8
BLACK
6
CONTINUOUS
10
161.8179509999999937
20
-53.8391719999999978
11
162.1306940000000054
21
-53.7297379999999976
0
LINE
8
BLACK
6
CONTINUOUS
10
162.1306940000000054
20
-53.7297379999999976
11
162.4292179999999917
21
-53.5859759999999952
0
LINE
8
BLACK
6
CONTINUOUS
10
162.4292179999999917
20
-53.5859759999999952
11
162.7097689999999943
21
-53.4096949999999993
0
LINE
8
BLACK
6
CONTINUOUS
10
162.7097689999999943
20
-53.4096949999999993
11
162.9688189999999963
21
-53.2031089999999978
0
LINE
8
BLACK
6
CONTINUOUS
10
162.9688189999999963
20
-53.2031089999999978
11
163.2031089999999836
21
-52.9688189999999963
0
LINE
8
BLACK
6
CONTINUOUS
10
163.2031089999999836
20
-52.9688189999999963
11
163.4096949999999993
21
-52.7097689999999943
0
LINE
8
BLACK
6
CONTINUOUS
10
163.4096949999999993
20
-52.7097689999999943
11
163.5859759999999881
21
-52.4292179999999988
0
LINE
8
BLACK
6
CONTINUOUS
10
163.5859759999999881
20
-52.4292179999999988
11
163.7297379999999976
21
-52.1306939999999983
0
LINE
8
BLACK
6
CONTINUOUS
10
163.7297379999999976
20
-52.1306939999999983
11
163.8391719999999907
21
-51.8179510000000008
0
LINE
8
BLACK
6
CONTINUOUS
10
163.8391719999999907
20
-51.8179510000000008
11
163.9129010000000051
21
-51.4949209999999979
0
LINE
8
BLACK
6
CONTINUOUS
10
163.9129010000000051
20
-51.4949209999999979
11
163.9499989999999912
21
-51.1656669999999991
0
LINE
8
BLACK
6
CONTINUOUS
10
163.9499989999999912
20
-51.1656669999999991
11
163.9499989999999912
21
-50.9999989999999954
0
LINE
8
BLACK
6
CONTINUOUS
10
163.9499989999999912
20
-50.9999989999999954
11
163.9499989999999912
21
-44.9999989999999954
0
LINE
8
BLACK
6
CONTINUOUS
10
163.9499989999999912
20
-44.9999989999999954
11
163.9500009999999861
21
-44.9999879999999948
0
LINE
8
BLACK
6
CONTINUOUS
10
163.9500009999999861
20
-44.9999879999999948
11
163.9500009999999861
21
-44.8343309999999988
0
LINE
8
BLACK
6
CONTINUOUS
10
163.9500009999999861
20
-44.8343309999999988
11
163.912903
21
-44.505077
0
LINE
8
BLACK
6
CONTINUOUS
10
163.912903
20
-44.505077
11
163.8391729999999882
21
-44.1820469999999972
0
LINE
8
BLACK
6
CONTINUOUS
10
163.8391729999999882
20
-44.1820469999999972
11
163.729738999999995
21
-43.8693039999999996
0
LINE
8
BLACK
6
CONTINUOUS
10
163.729738999999995
20
-43.8693039999999996
11
163.585977999999983
21
-43.5707799999999992
0
LINE
8
BLACK
6
CONTINUOUS
10
163.585977999999983
20
-43.5707799999999992
11
163.4096959999999967
21
-43.2902289999999965
0
LINE
8
BLACK
6
CONTINUOUS
10
163.4096959999999967
20
-43.2902289999999965
11
163.203109999999981
21
-43.0311789999999945
0
LINE
8
BLACK
6
CONTINUOUS
10
163.203109999999981
20
-43.0311789999999945
11
162.9688199999999938
21
-42.7968879999999956
0
LINE
8
BLACK
6
CONTINUOUS
10
162.9688199999999938
20
-42.7968879999999956
11
162.7097699999999918
21
-42.5903029999999987
0
LINE
8
BLACK
6
CONTINUOUS
10
162.7097699999999918
20
-42.5903029999999987
11
162.4292189999999891
21
-42.4140219999999957
0
LINE
8
BLACK
6
CONTINUOUS
10
162.4292189999999891
20
-42.4140219999999957
11
162.1306940000000054
21
-42.2702600000000004
0
LINE
8
BLACK
6
CONTINUOUS
10
162.1306940000000054
20
-42.2702600000000004
11
161.8179509999999937
21
-42.1608260000000001
0
LINE
8
BLACK
6
CONTINUOUS
10
161.8179509999999937
20
-42.1608260000000001
11
161.4949210000000051
21
-42.087097
0
LINE
8
BLACK
6
CONTINUOUS
10
161.4949210000000051
20
-42.087097
11
161.1656679999999824
21
-42.0499989999999997
0
LINE
8
BLACK
6
CONTINUOUS
10
161.1656679999999824
20
-42.0499989999999997
11
160.9999990000000025
21
-42.0499989999999997
0
LINE
8
BLACK
6
CONTINUOUS
10
160.9999990000000025
20
-42.0499989999999997
11
160.5253219999999885
21
-42.0313489999999987
0
LINE
8
BLACK
6
CONTINUOUS
10
160.5253219999999885
20
-42.0313489999999987
11
160.0535710000000051
21
-41.9755129999999994
0
LINE
8
BLACK
6
CONTINUOUS
10
160.0535710000000051
20
-41.9755129999999994
11
159.5876549999999838
21
-41.882836999999995
0
LINE
8
BLACK
6
CONTINUOUS
10
159.5876549999999838
20
-41.882836999999995
11
159.1304470000000038
21
-41.7538909999999959
0
LINE
8
BLACK
6
CONTINUOUS
10
159.1304470000000038
20
-41.7538909999999959
11
158.6847649999999987
21
-41.5894699999999986
0
LINE
8
BLACK
6
CONTINUOUS
10
158.6847649999999987
20
-41.5894699999999986
11
158.2533569999999941
21
-41.390588000000001
0
LINE
8
BLACK
6
CONTINUOUS
10
158.2533569999999941
20
-41.390588000000001
11
157.8388829999999814
21
-41.1584719999999962
0
LINE
8
BLACK
6
CONTINUOUS
10
157.8388829999999814
20
-41.1584719999999962
11
157.4438989999999876
21
-40.8945509999999999
0
LINE
8
BLACK
6
CONTINUOUS
10
157.4438989999999876
20
-40.8945509999999999
11
157.0708390000000065
21
-40.6004549999999966
0
LINE
8
BLACK
6
CONTINUOUS
10
157.0708390000000065
20
-40.6004549999999966
11
156.7220039999999983
21
-40.2779949999999971
0
LINE
8
BLACK
6
CONTINUOUS
10
156.7220039999999983
20
-40.2779949999999971
11
156.3995439999999917
21
-39.9291589999999985
0
LINE
8
BLACK
6
CONTINUOUS
10
156.3995439999999917
20
-39.9291589999999985
11
156.1054469999999981
21
-39.5560989999999961
0
LINE
8
BLACK
6
CONTINUOUS
10
156.1054469999999981
20
-39.5560989999999961
11
155.841526999999985
21
-39.1611149999999952
0
LINE
8
BLACK
6
CONTINUOUS
10
155.841526999999985
20
-39.1611149999999952
11
155.6094109999999944
21
-38.7466409999999968
0
LINE
8
BLACK
6
CONTINUOUS
10
155.6094109999999944
20
-38.7466409999999968
11
155.4105289999999968
21
-38.3152329999999992
0
LINE
8
BLACK
6
CONTINUOUS
10
155.4105289999999968
20
-38.3152329999999992
11
155.2461089999999899
21
-37.8695519999999988
0
LINE
8
BLACK
6
CONTINUOUS
10
155.2461089999999899
20
-37.8695519999999988
11
155.117163000000005
21
-37.4123429999999999
0
LINE
8
BLACK
6
CONTINUOUS
10
155.117163000000005
20
-37.4123429999999999
11
155.024485999999996
21
-36.9464269999999999
0
LINE
8
BLACK
6
CONTINUOUS
10
155.024485999999996
20
-36.9464269999999999
11
154.9686509999999942
21
-36.4746759999999952
0
LINE
8
BLACK
6
CONTINUOUS
10
154.9686509999999942
20
-36.4746759999999952
11
154.9519650000000013
21
-36.0499989999999997
0
LINE
8
BLACK
6
CONTINUOUS
10
154.9519650000000013
20
-36.0499989999999997
11
148.75
21
-36.0499999999999972
0
LINE
8
BLACK
6
CONTINUOUS
10
148.75
20
-36.0499999999999972
11
148.7308659999999918
21
-36.0461939999999998
0
LINE
8
BLACK
6
CONTINUOUS
10
148.7308659999999918
20
-36.0461939999999998
11
148.7038059999999859
21
-36.0191340000000011
0
LINE
8
BLACK
6
CONTINUOUS
10
148.7038059999999859
20
-36.0191340000000011
11
148.7038059999999859
21
-36.0191329999999965
0
LINE
8
BLACK
6
CONTINUOUS
10
148.7038059999999859
20
-36.0191329999999965
11
148.6999999999999886
21
-36.
0
LINE
8
BLACK
6
CONTINUOUS
10
148.6999999999999886
20
-36.
11
148.6999999999999886
21
-30.
0
LINE
8
BLACK
6
CONTINUOUS
10
148.6999999999999886
20
-30.
11
148.7038059999999859
21
-29.9808659999999989
0
LINE
8
BLACK
6
CONTINUOUS
10
148.7038059999999859
20
-29.9808659999999989
11
148.7308659999999918
21
-29.9538060000000002
0
LINE
8
BLACK
6
CONTINUOUS
10
148.7308659999999918
20
-29.9538060000000002
11
148.75
21
-29.9499999999999993
0
LINE
8
BLACK
6
CONTINUOUS
10
148.75
20
-29.9499999999999993
11
163.9999990000000025
21
-29.9499979999999972
0
LINE
8
BLACK
6
CONTINUOUS
10
163.9999990000000025
20
-29.9499979999999972
11
164.4746769999999856
21
-29.9686479999999982
0
LINE
8
BLACK
6
CONTINUOUS
10
148.7999999999999829
20
-30.0499989999999997
11
148.7999999999999829
21
-35.9499989999999983
0
LINE
8
BLACK
6
CONTINUOUS
10
148.7999999999999829
20
-35.9499989999999983
11
154.9999990000000025
21
-35.9499989999999983
0
LINE
8
BLACK
6
CONTINUOUS
10
154.9999990000000025
20
-35.9499989999999983
11
155.0123009999999795
21
-35.9524460000000019
0
LINE
8
BLACK
6
CONTINUOUS
10
155.0123009999999795
20
-35.9524460000000019
11
155.0154499999999871
21
-35.9524460000000019
0
LINE
8
BLACK
6
CONTINUOUS
10
155.0154499999999871
20
-35.9524460000000019
11
155.0166370000000029
21
-35.9533079999999998
0
LINE
8
BLACK
6
CONTINUOUS
10
155.0166370000000029
20
-35.9533079999999998
11
155.0191329999999823
21
-35.9538049999999956
0
LINE
8
BLACK
6
CONTINUOUS
10
155.0191329999999823
20
-35.9538049999999956
11
155.0239489999999876
21
-35.9586210000000008
0
LINE
8
BLACK
6
CONTINUOUS
10
155.0239489999999876
20
-35.9586210000000008
11
155.0404499999999928
21
-35.9706100000000006
0
LINE
8
BLACK
6
CONTINUOUS
10
155.0404499999999928
20
-35.9706100000000006
11
155.0426209999999969
21
-35.977292999999996
0
LINE
8
BLACK
6
CONTINUOUS
10
155.0426209999999969
20
-35.977292999999996
11
155.0461929999999882
21
-35.9808650000000014
0
LINE
8
BLACK
6
CONTINUOUS
10
155.0461929999999882
20
-35.9808650000000014
11
155.0461929999999882
21
-35.9882849999999976
0
LINE
8
BLACK
6
CONTINUOUS
10
155.0461929999999882
20
-35.9882849999999976
11
155.0499989999999855
21
-35.9999989999999954
0
LINE
8
BLACK
6
CONTINUOUS
10
155.0499989999999855
20
-35.9999989999999954
11
155.0500009999999804
21
-35.9999989999999954
0
LINE
8
BLACK
6
CONTINUOUS
10
155.0500009999999804
20
-35.9999989999999954
11
155.0500009999999804
21
-36.2337750000000014
0
LINE
8
BLACK
6
CONTINUOUS
10
155.0500009999999804
20
-36.2337750000000014
11
155.0866839999999911
21
-36.6998859999999993
0
LINE
8
BLACK
6
CONTINUOUS
10
155.0866839999999911
20
-36.6998859999999993
11
155.1598259999999811
21
-37.161681999999999
0
LINE
8
BLACK
6
CONTINUOUS
10
155.1598259999999811
20
-37.161681999999999
11
155.2689729999999884
21
-37.6163159999999976
0
LINE
8
BLACK
6
CONTINUOUS
10
155.2689729999999884
20
-37.6163159999999976
11
155.413454999999999
21
-38.0609839999999977
0
LINE
8
BLACK
6
CONTINUOUS
10
155.413454999999999
20
-38.0609839999999977
11
155.592378999999994
21
-38.4929459999999963
0
LINE
8
BLACK
6
CONTINUOUS
10
155.592378999999994
20
-38.4929459999999963
11
155.8046439999999961
21
-38.9095379999999977
0
LINE
8
BLACK
6
CONTINUOUS
10
155.8046439999999961
20
-38.9095379999999977
11
156.0489389999999901
21
-39.3081919999999982
0
LINE
8
BLACK
6
CONTINUOUS
10
156.0489389999999901
20
-39.3081919999999982
11
156.3237589999999955
21
-39.6864500000000007
0
LINE
8
BLACK
6
CONTINUOUS
10
156.3237589999999955
20
-39.6864500000000007
11
156.6274099999999976
21
-40.0419789999999978
0
LINE
8
BLACK
6
CONTINUOUS
10
156.6274099999999976
20
-40.0419789999999978
11
156.9580189999999789
21
-40.3725889999999978
0
LINE
8
BLACK
6
CONTINUOUS
10
156.9580189999999789
20
-40.3725889999999978
11
157.3135489999999947
21
-40.67624
0
LINE
8
BLACK
6
CONTINUOUS
10
157.3135489999999947
20
-40.67624
11
157.6918059999999855
21
-40.9510599999999982
0
LINE
8
BLACK
6
CONTINUOUS
10
157.6918059999999855
20
-40.9510599999999982
11
158.0904599999999789
21
-41.1953559999999968
0
LINE
8
BLACK
6
CONTINUOUS
10
158.0904599999999789
20
-41.1953559999999968
11
158.5070519999999874
21
-41.4076200000000014
0
LINE
8
BLACK
6
CONTINUOUS
10
158.5070519999999874
20
-41.4076200000000014
11
158.939013999999986
21
-41.5865439999999964
0
LINE
8
BLACK
6
CONTINUOUS
10
158.939013999999986
20
-41.5865439999999964
11
159.3836819999999932
21
-41.731026
0
LINE
8
BLACK
6
CONTINUOUS
10
159.3836819999999932
20
-41.731026
11
159.8383159999999918
21
-41.8401739999999975
0
LINE
8
BLACK
6
CONTINUOUS
10
159.8383159999999918
20
-41.8401739999999975
11
160.3001119999999844
21
-41.9133149999999972
0
LINE
8
BLACK
6
CONTINUOUS
10
160.3001119999999844
20
-41.9133149999999972
11
160.7662229999999965
21
-41.9499989999999983
0
LINE
8
BLACK
6
CONTINUOUS
10
160.7662229999999965
20
-41.9499989999999983
11
160.9999990000000025
21
-41.9499989999999983
0
LINE
8
BLACK
6
CONTINUOUS
10
160.9999990000000025
20
-41.9499989999999983
11
161.3188109999999824
21
-41.9667069999999995
0
LINE
8
BLACK
6
CONTINUOUS
10
161.3188109999999824
20
-41.9667069999999995
11
161.634129999999999
21
-42.016649000000001
0
LINE
8
BLACK
6
CONTINUOUS
10
161.634129999999999
20
-42.016649000000001
11
161.9425009999999929
21
-42.0992759999999961
0
LINE
8
BLACK
6
CONTINUOUS
10
161.9425009999999929
20
-42.0992759999999961
11
162.2405459999999948
21
-42.2136849999999981
0
LINE
8
BLACK
6
CONTINUOUS
10
162.2405459999999948
20
-42.2136849999999981
11
162.5250000000000057
21
-42.3586209999999994
0
LINE
8
BLACK
6
CONTINUOUS
10
162.5250000000000057
20
-42.3586209999999994
11
162.7927449999999965
21
-42.5324969999999993
0
LINE
8
BLACK
6
CONTINUOUS
10
162.7927449999999965
20
-42.5324969999999993
11
163.0408479999999827
21
-42.7334069999999997
0
LINE
8
BLACK
6
CONTINUOUS
10
163.0408479999999827
20
-42.7334069999999997
11
163.2665920000000028
21
-42.9591500000000011
0
LINE
8
BLACK
6
CONTINUOUS
10
163.2665920000000028
20
-42.9591500000000011
11
163.4675019999999961
21
-43.2072539999999989
0
LINE
8
BLACK
6
CONTINUOUS
10
163.4675019999999961
20
-43.2072539999999989
11
163.6413780000000031
21
-43.4749989999999968
0
LINE
8
BLACK
6
CONTINUOUS
10
163.6413780000000031
20
-43.4749989999999968
11
163.7863140000000044
21
-43.759451999999996
0
LINE
8
BLACK
6
CONTINUOUS
10
163.7863140000000044
20
-43.759451999999996
11
163.9007229999999993
21
-44.0574969999999979
0
LINE
8
BLACK
6
CONTINUOUS
10
163.9007229999999993
20
-44.0574969999999979
11
163.983350999999999
21
-44.365867999999999
0
LINE
8
BLACK
6
CONTINUOUS
10
163.983350999999999
20
-44.365867999999999
11
164.0332929999999863
21
-44.6811870000000013
0
LINE
8
BLACK
6
CONTINUOUS
10
164.0332929999999863
20
-44.6811870000000013
11
164.0500009999999804
21
-44.9999989999999954
0
LINE
8
BLACK
6
CONTINUOUS
10
164.0500009999999804
20
-44.9999989999999954
11
164.0499989999999855
21
-44.9999989999999954
0
LINE
8
BLACK
6
CONTINUOUS
10
164.0499989999999855
20
-44.9999989999999954
11
164.0499989999999855
21
-50.9999989999999954
0
LINE
8
BLACK
6
CONTINUOUS
10
164.0499989999999855
20
-50.9999989999999954
11
164.0332909999999913
21
-51.3188109999999966
0
LINE
8
BLACK
6
CONTINUOUS
10
164.0332909999999913
20
-51.3188109999999966
11
163.983349000000004
21
-51.634129999999999
0
LINE
8
BLACK
6
CONTINUOUS
10
163.983349000000004
20
-51.634129999999999
11
163.9007220000000018
21
-51.942501
0
LINE
8
BLACK
6
CONTINUOUS
10
163.9007220000000018
20
-51.942501
11
163.7863129999999785
21
-52.2405459999999948
0
LINE
8
BLACK
6
CONTINUOUS
10
163.7863129999999785
20
-52.2405459999999948
11
163.6413770000000056
21
-52.5249990000000011
0
LINE
8
BLACK
6
CONTINUOUS
10
163.6413770000000056
20
-52.5249990000000011
11
163.4675009999999986
21
-52.792743999999999
0
LINE
8
BLACK
6
CONTINUOUS
10
163.4675009999999986
20
-52.792743999999999
11
163.2665910000000054
21
-53.0408479999999969
0
LINE
8
BLACK
6
CONTINUOUS
10
163.2665910000000054
20
-53.0408479999999969
11
163.0408479999999827
21
-53.2665909999999982
0
LINE
8
BLACK
6
CONTINUOUS
10
163.0408479999999827
20
-53.2665909999999982
11
162.792743999999999
21
-53.4675009999999986
0
LINE
8
BLACK
6
CONTINUOUS
10
162.792743999999999
20
-53.4675009999999986
11
162.5249989999999798
21
-53.6413769999999985
0
LINE
8
BLACK
6
CONTINUOUS
10
162.5249989999999798
20
-53.6413769999999985
11
162.2405459999999948
21
-53.7863129999999998
0
LINE
8
BLACK
6
CONTINUOUS
10
162.2405459999999948
20
-53.7863129999999998
11
161.9425009999999929
21
-53.9007219999999947
0
LINE
8
BLACK
6
CONTINUOUS
10
161.9425009999999929
20
-53.9007219999999947
11
161.634129999999999
21
-53.9833489999999969
0
LINE
8
BLACK
6
CONTINUOUS
10
161.634129999999999
20
-53.9833489999999969
11
161.3188109999999824
21
-54.0332909999999984
0
LINE
8
BLACK
6
CONTINUOUS
10
161.3188109999999824
20
-54.0332909999999984
11
160.9999990000000025
21
-54.0499989999999997
0
LINE
8
BLACK
6
CONTINUOUS
10
160.9999990000000025
20
-54.0499989999999997
11
160.9999990000000025
21
-54.0500009999999946
0
LINE
8
BLACK
6
CONTINUOUS
10
160.9999990000000025
20
-54.0500009999999946
11
160.7602219999999988
21
-54.0500009999999946
0
LINE
8
BLACK
6
CONTINUOUS
10
160.7602219999999988
20
-54.0500009999999946
11
160.2822239999999852
21
-54.0885899999999964
0
LINE
8
BLACK
6
CONTINUOUS
10
160.2822239999999852
20
-54.0885899999999964
11
159.8088809999999853
21
-54.1655149999999992
0
LINE
8
BLACK
6
CONTINUOUS
10
159.8088809999999853
20
-54.1655149999999992
11
159.3432619999999815
21
-54.2802799999999976
0
LINE
8
BLACK
6
CONTINUOUS
10
159.3432619999999815
20
-54.2802799999999976
11
158.888387999999992
21
-54.4321389999999994
0
LINE
8
BLACK
6
CONTINUOUS
10
158.888387999999992
20
-54.4321389999999994
11
158.4472089999999866
21
-54.6201079999999948
0
LINE
8
BLACK
6
CONTINUOUS
10
158.4472089999999866
20
-54.6201079999999948
11
158.0225849999999923
21
-54.8429679999999991
0
LINE
8
BLACK
6
CONTINUOUS
10
158.0225849999999923
20
-54.8429679999999991
11
157.6172719999999856
21
-55.0992729999999966
0
LINE
8
BLACK
6
CONTINUOUS
10
157.6172719999999856
20
-55.0992729999999966
11
157.2338959999999872
21
-55.3873609999999985
0
LINE
8
BLACK
6
CONTINUOUS
10
157.2338959999999872
20
-55.3873609999999985
11
156.8749449999999968
21
-55.7053639999999959
0
LINE
8
BLACK
6
CONTINUOUS
10
156.8749449999999968
20
-55.7053639999999959
11
156.5427469999999914
21
-56.0512189999999961
0
LINE
8
BLACK
6
CONTINUOUS
10
156.5427469999999914
20
-56.0512189999999961
11
156.2394559999999899
21
-56.4226829999999993
0
LINE
8
BLACK
6
CONTINUOUS
10
156.2394559999999899
20
-56.4226829999999993
11
155.9670380000000023
21
-56.8173479999999955
0
LINE
8
BLACK
6
CONTINUOUS
10
155.9670380000000023
20
-56.8173479999999955
11
155.7272619999999961
21
-57.2326539999999966
0
LINE
8
BLACK
6
CONTINUOUS
10
155.7272619999999961
20
-57.2326539999999966
11
155.5216810000000009
21
-57.6659059999999997
0
LINE
8
BLACK
6
CONTINUOUS
10
155.5216810000000009
20
-57.6659059999999997
11
155.3516290000000026
21
-58.1142970000000005
0
LINE
8
BLACK
6
CONTINUOUS
10
155.3516290000000026
20
-58.1142970000000005
11
155.2182080000000042
21
-58.5749169999999992
0
LINE
8
BLACK
6
CONTINUOUS
10
155.2182080000000042
20
-58.5749169999999992
11
155.1222850000000051
21
-59.0447789999999983
0
LINE
8
BLACK
6
CONTINUOUS
10
155.1222850000000051
20
-59.0447789999999983
11
155.0644819999999982
21
-59.5208349999999982
0
LINE
8
BLACK
6
CONTINUOUS
10
155.0644819999999982
20
-59.5208349999999982
11
155.0451719999999796
21
-60.
0
LINE
8
BLACK
6
CONTINUOUS
10
155.0451719999999796
20
-60.
11
155.0644819999999982
21
-60.4791649999999947
0
LINE
8
BLACK
6
CONTINUOUS
10
155.0644819999999982
20
-60.4791649999999947
11
155.1222850000000051
21
-60.9552209999999945
0
LINE
8
BLACK
6
CONTINUOUS
10
155.1222850000000051
20
-60.9552209999999945
11
155.2182080000000042
21
-61.4250830000000008
0
LINE
8
BLACK
6
CONTINUOUS
10
155.2182080000000042
20
-61.4250830000000008
11
155.3516290000000026
21
-61.8857029999999995
0
LINE
8
BLACK
6
CONTINUOUS
10
155.3516290000000026
20
-61.8857029999999995
11
155.5216810000000009
21
-62.3340940000000003
0
LINE
8
BLACK
6
CONTINUOUS
10
155.5216810000000009
20
-62.3340940000000003
11
155.7272619999999961
21
-62.7673459999999963
0
LINE
8
BLACK
6
CONTINUOUS
10
155.7272619999999961
20
-62.7673459999999963
11
155.9670380000000023
21
-63.1826519999999974
0
LINE
8
BLACK
6
CONTINUOUS
10
155.9670380000000023
20
-63.1826519999999974
11
156.2394559999999899
21
-63.5773169999999936
0
LINE
8
BLACK
6
CONTINUOUS
10
156.2394559999999899
20
-63.5773169999999936
11
156.5427469999999914
21
-63.9487809999999968
0
LINE
8
BLACK
6
CONTINUOUS
10
156.5427469999999914
20
-63.9487809999999968
11
156.8749449999999968
21
-64.294635999999997
0
LINE
8
BLACK
6
CONTINUOUS
10
156.8749449999999968
20
-64.294635999999997
11
157.2338959999999872
21
-64.6126390000000015
0
LINE
8
BLACK
6
CONTINUOUS
10
157.2338959999999872
20
-64.6126390000000015
11
157.6172719999999856
21
-64.9007270000000034
0
LINE
8
BLACK
6
CONTINUOUS
10
157.6172719999999856
20
-64.9007270000000034
11
158.0225849999999923
21
-65.1570320000000009
0
LINE
8
BLACK
6
CONTINUOUS
10
158.0225849999999923
20
-65.1570320000000009
11
158.4472089999999866
21
-65.3798919999999981
0
LINE
8
BLACK
6
CONTINUOUS
10
158.4472089999999866
20
-65.3798919999999981
11
158.888387999999992
21
-65.5678609999999935
0
LINE
8
BLACK
6
CONTINUOUS
10
158.888387999999992
20
-65.5678609999999935
11
159.3432619999999815
21
-65.7197199999999953
0
LINE
8
BLACK
6
CONTINUOUS
10
159.3432619999999815
20
-65.7197199999999953
11
159.8088809999999853
21
-65.8344850000000008
0
LINE
8
BLACK
6
CONTINUOUS
10
159.8088809999999853
20
-65.8344850000000008
11
160.2822239999999852
21
-65.9114100000000036
0
LINE
8
BLACK
6
CONTINUOUS
10
160.2822239999999852
20
-65.9114100000000036
11
160.7602219999999988
21
-65.9499989999999912
0
LINE
8
BLACK
6
CONTINUOUS
10
160.7602219999999988
20
-65.9499989999999912
11
160.9999990000000025
21
-65.9499989999999912
0
LINE
8
BLACK
6
CONTINUOUS
10
160.9999990000000025
20
-65.9499989999999912
11
161.3188109999999824
21
-65.9667069999999995
0
LINE
8
BLACK
6
CONTINUOUS
10
161.3188109999999824
20
-65.9667069999999995
11
161.634129999999999
21
-66.016649000000001
0
LINE
8
BLACK
6
CONTINUOUS
10
161.634129999999999
20
-66.016649000000001
11
161.9425009999999929
21
-66.0992760000000033
0
LINE
8
BLACK
6
CONTINUOUS
10
161.9425009999999929
20
-66.0992760000000033
11
162.2405459999999948
21
-66.2136849999999981
0
LINE
8
BLACK
6
CONTINUOUS
10
162.2405459999999948
20
-66.2136849999999981
11
162.5250000000000057
21
-66.3586209999999994
0
LINE
8
BLACK
6
CONTINUOUS
10
162.5250000000000057
20
-66.3586209999999994
11
162.7927449999999965
21
-66.5324969999999922
0
LINE
8
BLACK
6
CONTINUOUS
10
162.7927449999999965
20
-66.5324969999999922
11
163.0408479999999827
21
-66.7334069999999997
0
LINE
8
BLACK
6
CONTINUOUS
10
163.0408479999999827
20
-66.7334069999999997
11
163.2665920000000028
21
-66.959149999999994
0
LINE
8
BLACK
6
CONTINUOUS
10
163.2665920000000028
20
-66.959149999999994
11
163.4675019999999961
21
-67.2072539999999918
0
LINE
8
BLACK
6
CONTINUOUS
10
163.4675019999999961
20
-67.2072539999999918
11
163.6413780000000031
21
-67.4749989999999968
0
LINE
8
BLACK
6
CONTINUOUS
10
163.6413780000000031
20
-67.4749989999999968
11
163.7863140000000044
21
-67.759451999999996
0
LINE
8
BLACK
6
CONTINUOUS
10
163.7863140000000044
20
-67.759451999999996
11
163.9007229999999993
21
-68.0574969999999979
0
LINE
8
BLACK
6
CONTINUOUS
10
163.9007229999999993
20
-68.0574969999999979
11
163.983350999999999
21
-68.3658679999999919
0
LINE
8
BLACK
6
CONTINUOUS
10
163.983350999999999
20
-68.3658679999999919
11
164.0332929999999863
21
-68.6811869999999942
0
LINE
8
BLACK
6
CONTINUOUS
10
164.0332929999999863
20
-68.6811869999999942
11
164.0500009999999804
21
-68.9999990000000025
0
LINE
8
BLACK
6
CONTINUOUS
10
164.0500009999999804
20
-68.9999990000000025
11
164.0499989999999855
21
-68.9999990000000025
0
LINE
8
BLACK
6
CONTINUOUS
10
164.0499989999999855
20
-68.9999990000000025
11
164.0499989999999855
21
-97.9999990000000025
0
LINE
8
BLACK
6
CONTINUOUS
10
164.0499989999999855
20
-97.9999990000000025
11
164.047551999999996
21
-98.0122999999999962
0
LINE
8
BLACK
6
CONTINUOUS
10
164.047551999999996
20
-98.0122999999999962
11
164.047551999999996
21
-98.0154500000000013
0
LINE
8
BLACK
6
CONTINUOUS
10
164.047551999999996
20
-98.0154500000000013
11
164.0466889999999864
21
-98.0166369999999887
0
LINE
8
BLACK
6
CONTINUOUS
10
164.0466889999999864
20
-98.0166369999999887
11
164.0461929999999882
21
-98.0191329999999965
0
LINE
8
BLACK
6
CONTINUOUS
10
164.0461929999999882
20
-98.0191329999999965
11
164.0413759999999854
21
-98.0239490000000018
0
LINE
8
BLACK
6
CONTINUOUS
10
164.0413759999999854
20
-98.0239490000000018
11
164.0293879999999831
21
-98.0404499999999928
0
LINE
8
BLACK
6
CONTINUOUS
10
164.0293879999999831
20
-98.0404499999999928
11
164.0227040000000045
21
-98.0426209999999969
0
LINE
8
BLACK
6
CONTINUOUS
10
164.0227040000000045
20
-98.0426209999999969
11
164.0191329999999823
21
-98.0461930000000024
0
LINE
8
BLACK
6
CONTINUOUS
10
164.0191329999999823
20
-98.0461930000000024
11
164.0117129999999861
21
-98.0461930000000024
0
LINE
8
BLACK
6
CONTINUOUS
10
164.0117129999999861
20
-98.0461930000000024
11
163.9999990000000025
21
-98.0499989999999997
0
LINE
8
BLACK
6
CONTINUOUS
10
163.9999990000000025
20
-98.0499989999999997
11
163.7662229999999965
21
-98.0499989999999997
0
LINE
8
BLACK
6
CONTINUOUS
10
163.7662229999999965
20
-98.0499989999999997
11
163.3001119999999844
21
-98.0866829999999936
0
LINE
8
BLACK
6
CONTINUOUS
10
163.3001119999999844
20
-98.0866829999999936
11
162.8383159999999918
21
-98.1598240000000004
0
LINE
8
BLACK
6
CONTINUOUS
10
162.8383159999999918
20
-98.1598240000000004
11
162.3836819999999932
21
-98.2689719999999909
0
LINE
8
BLACK
6
CONTINUOUS
10
162.3836819999999932
20
-98.2689719999999909
11
161.939013999999986
21
-98.4134540000000015
0
LINE
8
BLACK
6
CONTINUOUS
10
161.939013999999986
20
-98.4134540000000015
11
161.5070519999999874
21
-98.5923779999999965
0
LINE
8
BLACK
6
CONTINUOUS
10
161.5070519999999874
20
-98.5923779999999965
11
161.0904599999999789
21
-98.8046420000000012
0
LINE
8
BLACK
6
CONTINUOUS
10
161.0904599999999789
20
-98.8046420000000012
11
160.6918059999999855
21
-99.0489379999999926
0
LINE
8
BLACK
6
CONTINUOUS
10
160.6918059999999855
20
-99.0489379999999926
11
160.3135479999999973
21
-99.323757999999998
0
LINE
8
BLACK
6
CONTINUOUS
10
160.3135479999999973
20
-99.323757999999998
11
159.9580179999999814
21
-99.6274090000000001
0
LINE
8
BLACK
6
CONTINUOUS
10
159.9580179999999814
20
-99.6274090000000001
11
159.6274090000000001
21
-99.9580179999999956
0
LINE
8
BLACK
6
CONTINUOUS
10
159.6274090000000001
20
-99.9580179999999956
11
159.323757999999998
21
-100.3135479999999973
0
LINE
8
BLACK
6
CONTINUOUS
10
159.323757999999998
20
-100.3135479999999973
11
159.0489379999999926
21
-100.6918059999999997
0
LINE
8
BLACK
6
CONTINUOUS
10
159.0489379999999926
20
-100.6918059999999997
11
158.8046420000000012
21
-101.0904599999999931
0
LINE
8
BLACK
6
CONTINUOUS
10
158.8046420000000012
20
-101.0904599999999931
11
158.5923779999999965
21
-101.5070520000000016
0
LINE
8
BLACK
6
CONTINUOUS
10
158.5923779999999965
20
-101.5070520000000016
11
158.4134540000000015
21
-101.9390140000000002
0
LINE
8
BLACK
6
CONTINUOUS
10
158.4134540000000015
20
-101.9390140000000002
11
158.2689719999999909
21
-102.3836819999999932
0
LINE
8
BLACK
6
CONTINUOUS
10
158.2689719999999909
20
-102.3836819999999932
11
158.1598239999999862
21
-102.8383159999999918
0
LINE
8
BLACK
6
CONTINUOUS
10
158.1598239999999862
20
-102.8383159999999918
11
158.0866829999999936
21
-103.3001119999999986
0
LINE
8
BLACK
6
CONTINUOUS
10
158.0866829999999936
20
-103.3001119999999986
11
158.0499989999999855
21
-103.7662229999999965
0
LINE
8
BLACK
6
CONTINUOUS
10
158.0499989999999855
20
-103.7662229999999965
11
158.0499989999999855
21
-103.9999989999999883
0
LINE
8
BLACK
6
CONTINUOUS
10
158.0499989999999855
20
-103.9999989999999883
11
158.0461929999999882
21
-104.0117119999999886
0
LINE
8
BLACK
6
CONTINUOUS
10
158.0461929999999882
20
-104.0117119999999886
11
158.0461929999999882
21
-104.0191329999999965
0
LINE
8
BLACK
6
CONTINUOUS
10
158.0461929999999882
20
-104.0191329999999965
11
158.0426209999999969
21
-104.0227039999999903
0
LINE
8
BLACK
6
CONTINUOUS
10
158.0426209999999969
20
-104.0227039999999903
11
158.0404499999999928
21
-104.0293879999999973
0
LINE
8
BLACK
6
CONTINUOUS
10
158.0404499999999928
20
-104.0293879999999973
11
158.0239489999999876
21
-104.0413759999999996
0
LINE
8
BLACK
6
CONTINUOUS
10
158.0239489999999876
20
-104.0413759999999996
11
158.0191329999999823
21
-104.0461930000000024
0
LINE
8
BLACK
6
CONTINUOUS
10
158.0191329999999823
20
-104.0461930000000024
11
158.0166370000000029
21
-104.0466890000000006
0
LINE
8
BLACK
6
CONTINUOUS
10
158.0166370000000029
20
-104.0466890000000006
11
158.0154499999999871
21
-104.047551999999996
0
LINE
8
BLACK
6
CONTINUOUS
10
158.0154499999999871
20
-104.047551999999996
11
158.0123009999999795
21
-104.047551999999996
0
LINE
8
BLACK
6
CONTINUOUS
10
158.0123009999999795
20
-104.047551999999996
11
157.9999990000000025
21
-104.0499989999999997
0
LINE
8
BLACK
6
CONTINUOUS
10
157.9999990000000025
20
-104.0499989999999997
11
155.0499989999999855
21
-104.0499989999999997
0
LINE
8
BLACK
6
CONTINUOUS
10
155.0499989999999855
20
-104.0499989999999997
11
155.0499989999999855
21
-109.9499979999999937
0
LINE
8
BLACK
6
CONTINUOUS
10
155.0499989999999855
20
-109.9499979999999937
11
163.9999990000000025
21
-109.9499979999999937
0
LINE
8
BLACK
6
CONTINUOUS
10
163.9999990000000025
20
-109.9499979999999937
11
164.0000039999999899
21
-109.9499989999999912
0
LINE
8
BLACK
6
CONTINUOUS
10
164.0000039999999899
20
-109.9499989999999912
11
164.2337749999999801
21
-109.9499989999999912
0
LINE
8
BLACK
6
CONTINUOUS
10
164.2337749999999801
20
-109.9499989999999912
11
164.6998859999999922
21
-109.9133159999999947
0
LINE
8
BLACK
6
CONTINUOUS
10
164.6998859999999922
20
-109.9133159999999947
11
165.1616819999999848
21
-109.8401739999999904
0
LINE
8
BLACK
6
CONTINUOUS
10
165.1616819999999848
20
-109.8401739999999904
11
165.6163159999999834
21
-109.731026
0
LINE
8
BLACK
6
CONTINUOUS
10
165.6163159999999834
20
-109.731026
11
166.0609849999999881
21
-109.586545000000001
0
LINE
8
BLACK
6
CONTINUOUS
10
166.0609849999999881
20
-109.586545000000001
11
166.4929469999999867
21
-109.4076199999999943
0
LINE
8
BLACK
6
CONTINUOUS
10
166.4929469999999867
20
-109.4076199999999943
11
166.9095389999999952
21
-109.1953559999999896
0
LINE
8
BLACK
6
CONTINUOUS
10
166.9095389999999952
20
-109.1953559999999896
11
167.3081929999999886
21
-108.9510609999999957
0
LINE
8
BLACK
6
CONTINUOUS
10
167.3081929999999886
20
-108.9510609999999957
11
167.6864510000000053
21
-108.6762399999999928
0
LINE
8
BLACK
6
CONTINUOUS
10
167.6864510000000053
20
-108.6762399999999928
11
168.0419799999999952
21
-108.3725889999999907
0
LINE
8
BLACK
6
CONTINUOUS
10
168.0419799999999952
20
-108.3725889999999907
11
168.3725900000000024
21
-108.0419799999999952
0
LINE
8
BLACK
6
CONTINUOUS
10
168.3725900000000024
20
-108.0419799999999952
11
168.6762410000000045
21
-107.6864499999999936
0
LINE
8
BLACK
6
CONTINUOUS
10
168.6762410000000045
20
-107.6864499999999936
11
168.9510609999999815
21
-107.3081919999999911
0
LINE
8
BLACK
6
CONTINUOUS
10
168.9510609999999815
20
-107.3081919999999911
11
169.1953560000000039
21
-106.9095379999999977
0
LINE
8
BLACK
6
CONTINUOUS
10
169.1953560000000039
20
-106.9095379999999977
11
169.407621000000006
21
-106.4929459999999892
0
LINE
8
BLACK
6
CONTINUOUS
10
169.407621000000006
20
-106.4929459999999892
11
169.586545000000001
21
-106.0609839999999906
0
LINE
8
BLACK
6
CONTINUOUS
10
169.586545000000001
20
-106.0609839999999906
11
169.7310269999999832
21
-105.6163150000000002
0
LINE
8
BLACK
6
CONTINUOUS
10
169.7310269999999832
20
-105.6163150000000002
11
169.8401749999999879
21
-105.1616810000000015
0
LINE
8
BLACK
6
CONTINUOUS
10
169.8401749999999879
20
-105.1616810000000015
11
169.9133159999999805
21
-104.6998849999999948
0
LINE
8
BLACK
6
CONTINUOUS
10
169.9133159999999805
20
-104.6998849999999948
11
169.9499989999999912
21
-104.2337739999999968
0
LINE
8
BLACK
6
CONTINUOUS
10
169.9499989999999912
20
-104.2337739999999968
11
169.9499989999999912
21
-103.9999979999999908
0
LINE
8
BLACK
6
CONTINUOUS
10
169.9499989999999912
20
-103.9999979999999908
11
169.9499999999999886
21
-103.9999940000000009
0
LINE
8
BLACK
6
CONTINUOUS
10
169.9499999999999886
20
-103.9999940000000009
11
169.9499999999999886
21
-36.
0
LINE
8
BLACK
6
CONTINUOUS
10
169.9499999999999886
20
-36.
11
169.9499989999999912
21
-35.9999979999999979
0
LINE
8
BLACK
6
CONTINUOUS
10
169.9499989999999912
20
-35.9999979999999979
11
169.9499999999999886
21
-35.9999979999999979
0
LINE
8
BLACK
6
CONTINUOUS
10
169.9499999999999886
20
-35.9999979999999979
11
169.9500019999999836
21
-35.9999869999999973
0
LINE
8
BLACK
6
CONTINUOUS
10
169.9500019999999836
20
-35.9999869999999973
11
169.9500019999999836
21
-35.7662219999999991
0
LINE
8
BLACK
6
CONTINUOUS
10
169.9500019999999836
20
-35.7662219999999991
11
169.9133180000000038
21
-35.3001110000000011
0
LINE
8
BLACK
6
CONTINUOUS
10
169.9133180000000038
20
-35.3001110000000011
11
169.8401769999999829
21
-34.8383150000000015
0
LINE
8
BLACK
6
CONTINUOUS
10
169.8401769999999829
20
-34.8383150000000015
11
169.7310289999999782
21
-34.3836809999999957
0
LINE
8
BLACK
6
CONTINUOUS
10
169.7310289999999782
20
-34.3836809999999957
11
169.5865469999999959
21
-33.9390119999999982
0
LINE
8
BLACK
6
CONTINUOUS
10
169.5865469999999959
20
-33.9390119999999982
11
169.4076220000000035
21
-33.5070499999999996
0
LINE
8
BLACK
6
CONTINUOUS
10
169.4076220000000035
20
-33.5070499999999996
11
169.1953579999999988
21
-33.0904579999999982
0
LINE
8
BLACK
6
CONTINUOUS
10
169.1953579999999988
20
-33.0904579999999982
11
168.951061999999979
21
-32.6918039999999976
0
LINE
8
BLACK
6
CONTINUOUS
10
168.951061999999979
20
-32.6918039999999976
11
168.676242000000002
21
-32.3135459999999952
0
LINE
8
BLACK
6
CONTINUOUS
10
168.676242000000002
20
-32.3135459999999952
11
168.3725909999999999
21
-31.9580169999999981
0
LINE
8
BLACK
6
CONTINUOUS
10
168.3725909999999999
20
-31.9580169999999981
11
168.0419809999999927
21
-31.627406999999998
0
LINE
8
BLACK
6
CONTINUOUS
10
168.0419809999999927
20
-31.627406999999998
11
167.6864510000000053
21
-31.3237559999999995
0
LINE
8
BLACK
6
CONTINUOUS
10
167.6864510000000053
20
-31.3237559999999995
11
167.3081929999999886
21
-31.0489359999999976
0
LINE
8
BLACK
6
CONTINUOUS
10
167.3081929999999886
20
-31.0489359999999976
11
166.9095389999999952
21
-30.8046410000000002
0
LINE
8
BLACK
6
CONTINUOUS
10
166.9095389999999952
20
-30.8046410000000002
11
166.4929469999999867
21
-30.592375999999998
0
LINE
8
BLACK
6
CONTINUOUS
10
166.4929469999999867
20
-30.592375999999998
11
166.0609849999999881
21
-30.4134519999999995
0
LINE
8
BLACK
6
CONTINUOUS
10
166.0609849999999881
20
-30.4134519999999995
11
165.6163159999999834
21
-30.2689699999999995
0
LINE
8
BLACK
6
CONTINUOUS
10
165.6163159999999834
20
-30.2689699999999995
11
165.1616819999999848
21
-30.1598229999999994
0
LINE
8
BLACK
6
CONTINUOUS
10
165.1616819999999848
20
-30.1598229999999994
11
164.6998859999999922
21
-30.0866809999999987
0
LINE
8
BLACK
6
CONTINUOUS
10
164.6998859999999922
20
-30.0866809999999987
11
164.2337749999999801
21
-30.0499979999999987
0
LINE
8
BLACK
6
CONTINUOUS
10
164.2337749999999801
20
-30.0499979999999987
11
163.9999990000000025
21
-30.0499979999999987
0
LINE
8
BLACK
6
CONTINUOUS
10
163.9999990000000025
20
-30.0499979999999987
11
148.7999999999999829
21
-30.0499989999999997
  0
ENDSEC
  0
EOF
