  0
SECTION
  2
HEADER
  9
$ANGBASE
  50
0.0
  9
$ANGDIR
  70
1
  9
$MEASUREMENT
  70
1
  0
ENDSEC
  0
SECTION
  2
TABLES
  0
TABLE
  2
LTYPE
  70
4
  0
LTYPE
  5
40F
  2
CONTINUOUS
  70
0
  3
Solid line
  72
65
  73
0
  40
0.0
  0
LTYPE
  5
410
  2
DASHDOT
 70
0
  3
Dash Dot ____ _ ____ _
 72
65
 73
4
 40
2.0
 49
1.25
 49
-0.25
 49
0.25
 49
-0.25
  0
LTYPE
  5
411
  2
DASHED
 70
0
  3
Dashed __ __ __ __ __
 72
65
 73
2
 40
0.75
 49
0.5
 49
-0.25
  0
LTYPE
  5
43B
  2
DOTTED
 70
0
  3
Dotted .  .  .  .
 72
65
 73
2
 40
0.2
 49
0.0
 49
-0.2
  0
ENDTAB
  0
TABLE
  2
STYLE
  70
4
  0
STYLE
  2
KICAD
  70
0
  40
0
  41
1
  42
1
  50
0
  71
0
  3
isocp.shx
  0
STYLE
  2
KICADB
  70
0
  40
0
  41
1
  42
1
  50
0
  71
0
  3
isocp.shx
  0
STYLE
  2
KICADI
  70
0
  40
0
  41
1
  42
1
  50
15
  71
0
  3
isocp.shx
  0
STYLE
  2
KICADBI
  70
0
  40
0
  41
1
  42
1
  50
15
  71
0
  3
isocp.shx
  0
ENDTAB
  0
TABLE
  2
LAYER
  70
1
  0
LAYER
  2
BLACK
  70
0
  62
7
  6
CONTINUOUS
  0
ENDTAB
  0
ENDSEC
  0
SECTION
  2
ENTITIES
0
LINE
8
BLACK
6
CONTINUOUS
10
164.4746769999999856
20
-29.9686479999999982
11
164.9464279999999974
21
-30.024483
0
LINE
8
BLACK
6
CONTINUOUS
10
164.9464279999999974
20
-30.024483
11
165.4123439999999903
21
-30.1171599999999984
0
LINE
8
BLACK
6
CONTINUOUS
10
165.4123439999999903
20
-30.1171599999999984
11
165.8695519999999988
21
-30.2461059999999975
0
LINE
8
BLACK
6
CONTINUOUS
10
165.8695519999999988
20
-30.2461059999999975
11
166.3152340000000038
21
-30.4105259999999973
0
LINE
8
BLACK
6
CONTINUOUS
10
166.3152340000000038
20
-30.4105259999999973
11
166.74664199999998
21
-30.6094079999999984
0
LINE
8
BLACK
6
CONTINUOUS
10
166.74664199999998
20
-30.6094079999999984
11
167.1611159999999927
21
-30.8415249999999972
0
LINE
8
BLACK
6
CONTINUOUS
10
167.1611159999999927
20
-30.8415249999999972
11
167.556100999999984
21
-31.1054449999999996
0
LINE
8
BLACK
6
CONTINUOUS
10
167.556100999999984
20
-31.1054449999999996
11
167.9291609999999935
21
-31.3995409999999993
0
LINE
8
BLACK
6
CONTINUOUS
10
167.9291609999999935
20
-31.3995409999999993
11
168.2779960000000017
21
-31.7220009999999988
0
LINE
8
BLACK
6
CONTINUOUS
10
168.2779960000000017
20
-31.7220009999999988
11
168.6004570000000058
21
-32.0708369999999974
0
LINE
8
BLACK
6
CONTINUOUS
10
168.6004570000000058
20
-32.0708369999999974
11
168.8945530000000019
21
-32.4438969999999998
0
LINE
8
BLACK
6
CONTINUOUS
10
168.8945530000000019
20
-32.4438969999999998
11
169.158473999999984
21
-32.8388810000000007
0
LINE
8
BLACK
6
CONTINUOUS
10
169.158473999999984
20
-32.8388810000000007
11
169.3905900000000031
21
-33.2533549999999991
0
LINE
8
BLACK
6
CONTINUOUS
10
169.3905900000000031
20
-33.2533549999999991
11
169.5894720000000007
21
-33.6847629999999967
0
LINE
8
BLACK
6
CONTINUOUS
10
169.5894720000000007
20
-33.6847629999999967
11
169.753893000000005
21
-34.1304450000000017
0
LINE
8
BLACK
6
CONTINUOUS
10
169.753893000000005
20
-34.1304450000000017
11
169.8828399999999874
21
-34.587652999999996
0
LINE
8
BLACK
6
CONTINUOUS
10
169.8828399999999874
20
-34.587652999999996
11
169.9755159999999989
21
-35.053568999999996
0
LINE
8
BLACK
6
CONTINUOUS
10
169.9755159999999989
20
-35.053568999999996
11
170.0313519999999983
21
-35.5253200000000007
0
LINE
8
BLACK
6
CONTINUOUS
10
170.0313519999999983
20
-35.5253200000000007
11
170.0500020000000063
21
-35.9999979999999979
0
LINE
8
BLACK
6
CONTINUOUS
10
170.0500020000000063
20
-35.9999979999999979
11
170.0499999999999829
21
-35.9999979999999979
0
LINE
8
BLACK
6
CONTINUOUS
10
170.0499999999999829
20
-35.9999979999999979
11
170.0499999999999829
21
-103.9999979999999908
0
LINE
8
BLACK
6
CONTINUOUS
10
170.0499999999999829
20
-103.9999979999999908
11
170.049997999999988
21
-104.0000039999999899
0
LINE
8
BLACK
6
CONTINUOUS
10
170.049997999999988
20
-104.0000039999999899
11
170.0313490000000058
21
-104.4746760000000023
0
LINE
8
BLACK
6
CONTINUOUS
10
170.0313490000000058
20
-104.4746760000000023
11
169.975514000000004
21
-104.9464269999999999
0
LINE
8
BLACK
6
CONTINUOUS
10
169.975514000000004
20
-104.9464269999999999
11
169.882836999999995
21
-105.4123429999999928
0
LINE
8
BLACK
6
CONTINUOUS
10
169.882836999999995
20
-105.4123429999999928
11
169.7538909999999817
21
-105.8695510000000013
0
LINE
8
BLACK
6
CONTINUOUS
10
169.7538909999999817
20
-105.8695510000000013
11
169.5894710000000032
21
-106.3152329999999921
0
LINE
8
BLACK
6
CONTINUOUS
10
169.5894710000000032
20
-106.3152329999999921
11
169.3905890000000056
21
-106.7466409999999968
0
LINE
8
BLACK
6
CONTINUOUS
10
169.3905890000000056
20
-106.7466409999999968
11
169.1584729999999865
21
-107.1611149999999952
0
LINE
8
BLACK
6
CONTINUOUS
10
169.1584729999999865
20
-107.1611149999999952
11
168.8945520000000045
21
-107.5561000000000007
0
LINE
8
BLACK
6
CONTINUOUS
10
168.8945520000000045
20
-107.5561000000000007
11
168.6004559999999799
21
-107.929159999999996
0
LINE
8
BLACK
6
CONTINUOUS
10
168.6004559999999799
20
-107.929159999999996
11
168.2779960000000017
21
-108.27799499999999
0
LINE
8
BLACK
6
CONTINUOUS
10
168.2779960000000017
20
-108.27799499999999
11
167.929159999999996
21
-108.6004549999999966
0
LINE
8
BLACK
6
CONTINUOUS
10
167.929159999999996
20
-108.6004549999999966
11
167.5560999999999865
21
-108.8945519999999902
0
LINE
8
BLACK
6
CONTINUOUS
10
167.5560999999999865
20
-108.8945519999999902
11
167.1611159999999927
21
-109.1584719999999891
0
LINE
8
BLACK
6
CONTINUOUS
10
167.1611159999999927
20
-109.1584719999999891
11
166.74664199999998
21
-109.3905889999999914
0
LINE
8
BLACK
6
CONTINUOUS
10
166.74664199999998
20
-109.3905889999999914
11
166.3152340000000038
21
-109.5894699999999915
0
LINE
8
BLACK
6
CONTINUOUS
10
166.3152340000000038
20
-109.5894699999999915
11
165.8695519999999988
21
-109.7538909999999959
0
LINE
8
BLACK
6
CONTINUOUS
10
165.8695519999999988
20
-109.7538909999999959
11
165.4123439999999903
21
-109.882836999999995
0
LINE
8
BLACK
6
CONTINUOUS
10
165.4123439999999903
20
-109.882836999999995
11
164.9464279999999974
21
-109.9755139999999898
0
LINE
8
BLACK
6
CONTINUOUS
10
164.9464279999999974
20
-109.9755139999999898
11
164.4746769999999856
21
-110.0313489999999916
0
LINE
8
BLACK
6
CONTINUOUS
10
164.4746769999999856
20
-110.0313489999999916
11
163.9999990000000025
21
-110.0499989999999997
0
LINE
8
BLACK
6
CONTINUOUS
10
163.9999990000000025
20
-110.0499989999999997
11
163.9999990000000025
21
-110.049997999999988
0
LINE
8
BLACK
6
CONTINUOUS
10
163.9999990000000025
20
-110.049997999999988
11
134.9999990000000025
21
-110.0499989999999997
0
LINE
8
BLACK
6
CONTINUOUS
10
134.9999990000000025
20
-110.0499989999999997
11
126.
21
-110.0499989999999997
0
LINE
8
BLACK
6
CONTINUOUS
10
126.
20
-110.0499989999999997
11
125.9999929999999893
21
-110.0499969999999905
0
LINE
8
BLACK
6
CONTINUOUS
10
125.9999929999999893
20
-110.0499969999999905
11
125.5253219999999885
21
-110.0313479999999942
0
LINE
8
BLACK
6
CONTINUOUS
10
125.5253219999999885
20
-110.0313479999999942
11
125.0535709999999909
21
-109.9755119999999948
0
LINE
8
BLACK
6
CONTINUOUS
10
125.0535709999999909
20
-109.9755119999999948
11
124.587654999999998
21
-109.8828359999999975
0
LINE
8
BLACK
6
CONTINUOUS
10
124.587654999999998
20
-109.8828359999999975
11
124.1304469999999895
21
-109.7538899999999984
0
LINE
8
BLACK
6
CONTINUOUS
10
124.1304469999999895
20
-109.7538899999999984
11
123.6847649999999987
21
-109.589468999999994
0
LINE
8
BLACK
6
CONTINUOUS
10
123.6847649999999987
20
-109.589468999999994
11
123.2533569999999941
21
-109.3905869999999965
0
LINE
8
BLACK
6
CONTINUOUS
10
123.2533569999999941
20
-109.3905869999999965
11
122.8388839999999931
21
-109.1584709999999916
0
LINE
8
BLACK
6
CONTINUOUS
10
122.8388839999999931
20
-109.1584709999999916
11
122.4438989999999876
21
-108.8945499999999953
0
LINE
8
BLACK
6
CONTINUOUS
10
122.4438989999999876
20
-108.8945499999999953
11
122.0708389999999923
21
-108.6004539999999992
0
LINE
8
BLACK
6
CONTINUOUS
10
122.0708389999999923
20
-108.6004539999999992
11
121.7220039999999983
21
-108.2779939999999925
0
LINE
8
BLACK
6
CONTINUOUS
10
121.7220039999999983
20
-108.2779939999999925
11
121.3995439999999917
21
-107.929158000000001
0
LINE
8
BLACK
6
CONTINUOUS
10
121.3995439999999917
20
-107.929158000000001
11
121.1054479999999955
21
-107.5560979999999915
0
LINE
8
BLACK
6
CONTINUOUS
10
121.1054479999999955
20
-107.5560979999999915
11
120.8415279999999967
21
-107.1611139999999978
0
LINE
8
BLACK
6
CONTINUOUS
10
120.8415279999999967
20
-107.1611139999999978
11
120.6094119999999918
21
-106.7466399999999993
0
LINE
8
BLACK
6
CONTINUOUS
10
120.6094119999999918
20
-106.7466399999999993
11
120.4105299999999943
21
-106.3152319999999946
0
LINE
8
BLACK
6
CONTINUOUS
10
120.4105299999999943
20
-106.3152319999999946
11
120.2461089999999899
21
-105.8695499999999896
0
LINE
8
BLACK
6
CONTINUOUS
10
120.2461089999999899
20
-105.8695499999999896
11
120.1171629999999908
21
-105.4123419999999953
0
LINE
8
BLACK
6
CONTINUOUS
10
120.1171629999999908
20
-105.4123419999999953
11
120.0244869999999935
21
-104.9464259999999882
0
LINE
8
BLACK
6
CONTINUOUS
10
120.0244869999999935
20
-104.9464259999999882
11
119.9686519999999916
21
-104.4746749999999906
0
LINE
8
BLACK
6
CONTINUOUS
10
119.9686519999999916
20
-104.4746749999999906
11
119.9500019999999978
21
-104.0000160000000022
0
LINE
8
BLACK
6
CONTINUOUS
10
119.9500019999999978
20
-104.0000160000000022
11
119.9499989999999912
21
-103.9999979999999908
0
LINE
8
BLACK
6
CONTINUOUS
10
119.9499989999999912
20
-103.9999979999999908
11
119.9499989999999912
21
-35.9999979999999979
0
LINE
8
BLACK
6
CONTINUOUS
10
119.9499989999999912
20
-35.9999979999999979
11
119.9686489999999992
21
-35.5253209999999982
0
LINE
8
BLACK
6
CONTINUOUS
10
119.9686489999999992
20
-35.5253209999999982
11
120.0244849999999985
21
-35.0535700000000006
0
LINE
8
BLACK
6
CONTINUOUS
10
120.0244849999999985
20
-35.0535700000000006
11
120.1171609999999959
21
-34.5876540000000006
0
LINE
8
BLACK
6
CONTINUOUS
10
120.1171609999999959
20
-34.5876540000000006
11
120.2461079999999924
21
-34.1304459999999992
0
LINE
8
BLACK
6
CONTINUOUS
10
120.2461079999999924
20
-34.1304459999999992
11
120.4105279999999993
21
-33.6847640000000013
0
LINE
8
BLACK
6
CONTINUOUS
10
120.4105279999999993
20
-33.6847640000000013
11
120.6094099999999969
21
-33.2533559999999966
0
LINE
8
BLACK
6
CONTINUOUS
10
120.6094099999999969
20
-33.2533559999999966
11
120.8415269999999992
21
-32.8388819999999981
0
LINE
8
BLACK
6
CONTINUOUS
10
120.8415269999999992
20
-32.8388819999999981
11
121.1054469999999981
21
-32.4438979999999972
0
LINE
8
BLACK
6
CONTINUOUS
10
121.1054469999999981
20
-32.4438979999999972
11
121.3995439999999917
21
-32.070838000000002
0
LINE
8
BLACK
6
CONTINUOUS
10
121.3995439999999917
20
-32.070838000000002
11
121.7220039999999983
21
-31.7220029999999973
0
LINE
8
BLACK
6
CONTINUOUS
10
121.7220039999999983
20
-31.7220029999999973
11
122.0708389999999923
21
-31.3995429999999978
0
LINE
8
BLACK
6
CONTINUOUS
10
122.0708389999999923
20
-31.3995429999999978
11
122.4438989999999876
21
-31.105445999999997
0
LINE
8
BLACK
6
CONTINUOUS
10
122.4438989999999876
20
-31.105445999999997
11
122.8388829999999956
21
-30.8415259999999982
0
LINE
8
BLACK
6
CONTINUOUS
10
122.8388829999999956
20
-30.8415259999999982
11
123.2533569999999941
21
-30.6094099999999969
0
LINE
8
BLACK
6
CONTINUOUS
10
123.2533569999999941
20
-30.6094099999999969
11
123.6847649999999987
21
-30.4105279999999993
0
LINE
8
BLACK
6
CONTINUOUS
10
123.6847649999999987
20
-30.4105279999999993
11
124.1304459999999921
21
-30.2461069999999985
0
LINE
8
BLACK
6
CONTINUOUS
10
124.1304459999999921
20
-30.2461069999999985
11
124.587654999999998
21
-30.1171609999999994
0
LINE
8
BLACK
6
CONTINUOUS
10
124.587654999999998
20
-30.1171609999999994
11
125.0535709999999909
21
-30.0244849999999985
0
LINE
8
BLACK
6
CONTINUOUS
10
125.0535709999999909
20
-30.0244849999999985
11
125.5253219999999885
21
-29.9686489999999992
0
LINE
8
BLACK
6
CONTINUOUS
10
125.5253219999999885
20
-29.9686489999999992
11
125.9999919999999918
21
-29.9499989999999983
0
LINE
8
BLACK
6
CONTINUOUS
10
125.9999919999999918
20
-29.9499989999999983
11
125.9999989999999883
21
-29.9499979999999972
0
LINE
8
BLACK
6
CONTINUOUS
10
125.9999989999999883
20
-29.9499979999999972
11
148.75
21
-29.9499999999999993
0
LINE
8
BLACK
6
CONTINUOUS
10
148.75
20
-29.9499999999999993
11
163.9999990000000025
21
-29.9499979999999972
0
LINE
8
BLACK
6
CONTINUOUS
10
163.9999990000000025
20
-29.9499979999999972
11
164.4746769999999856
21
-29.9686479999999982
0
LINE
8
BLACK
6
CONTINUOUS
10
125.9999989999999883
20
-30.0499989999999997
11
125.7662229999999965
21
-30.0499989999999997
0
LINE
8
BLACK
6
CONTINUOUS
10
125.7662229999999965
20
-30.0499989999999997
11
125.3001119999999986
21
-30.0866829999999972
0
LINE
8
BLACK
6
CONTINUOUS
10
125.3001119999999986
20
-30.0866829999999972
11
124.8383159999999918
21
-30.1598240000000004
0
LINE
8
BLACK
6
CONTINUOUS
10
124.8383159999999918
20
-30.1598240000000004
11
124.3836819999999932
21
-30.268971999999998
0
LINE
8
BLACK
6
CONTINUOUS
10
124.3836819999999932
20
-30.268971999999998
11
123.9390140000000002
21
-30.413452999999997
0
LINE
8
BLACK
6
CONTINUOUS
10
123.9390140000000002
20
-30.413452999999997
11
123.5070519999999874
21
-30.5923780000000001
0
LINE
8
BLACK
6
CONTINUOUS
10
123.5070519999999874
20
-30.5923780000000001
11
123.0904599999999931
21
-30.8046419999999976
0
LINE
8
BLACK
6
CONTINUOUS
10
123.0904599999999931
20
-30.8046419999999976
11
122.6918059999999997
21
-31.0489379999999997
0
LINE
8
BLACK
6
CONTINUOUS
10
122.6918059999999997
20
-31.0489379999999997
11
122.3135479999999973
21
-31.323757999999998
0
LINE
8
BLACK
6
CONTINUOUS
10
122.3135479999999973
20
-31.323757999999998
11
121.9580189999999931
21
-31.6274090000000001
0
LINE
8
BLACK
6
CONTINUOUS
10
121.9580189999999931
20
-31.6274090000000001
11
121.6274090000000001
21
-31.9580179999999991
0
LINE
8
BLACK
6
CONTINUOUS
10
121.6274090000000001
20
-31.9580179999999991
11
121.3237589999999955
21
-32.3135479999999973
0
LINE
8
BLACK
6
CONTINUOUS
10
121.3237589999999955
20
-32.3135479999999973
11
121.0489379999999926
21
-32.6918049999999951
0
LINE
8
BLACK
6
CONTINUOUS
10
121.0489379999999926
20
-32.6918049999999951
11
120.8046429999999987
21
-33.0904589999999956
0
LINE
8
BLACK
6
CONTINUOUS
10
120.8046429999999987
20
-33.0904589999999956
11
120.5923779999999965
21
-33.507050999999997
0
LINE
8
BLACK
6
CONTINUOUS
10
120.5923779999999965
20
-33.507050999999997
11
120.4134540000000015
21
-33.9390129999999957
0
LINE
8
BLACK
6
CONTINUOUS
10
120.4134540000000015
20
-33.9390129999999957
11
120.2689719999999909
21
-34.3836809999999957
0
LINE
8
BLACK
6
CONTINUOUS
10
120.2689719999999909
20
-34.3836809999999957
11
120.1598240000000004
21
-34.8383150000000015
0
LINE
8
BLACK
6
CONTINUOUS
10
120.1598240000000004
20
-34.8383150000000015
11
120.0866829999999936
21
-35.3001110000000011
0
LINE
8
BLACK
6
CONTINUOUS
10
120.0866829999999936
20
-35.3001110000000011
11
120.0499989999999997
21
-35.7662219999999991
0
LINE
8
BLACK
6
CONTINUOUS
10
120.0499989999999997
20
-35.7662219999999991
11
120.0499989999999997
21
-35.9999979999999979
0
LINE
8
BLACK
6
CONTINUOUS
10
120.0499989999999997
20
-35.9999979999999979
11
120.0499989999999997
21
-103.9999979999999908
0
LINE
8
BLACK
6
CONTINUOUS
10
120.0499989999999997
20
-103.9999979999999908
11
120.0500019999999921
21
-103.9999979999999908
0
LINE
8
BLACK
6
CONTINUOUS
10
120.0500019999999921
20
-103.9999979999999908
11
120.0500019999999921
21
-104.2337739999999968
0
LINE
8
BLACK
6
CONTINUOUS
10
120.0500019999999921
20
-104.2337739999999968
11
120.0866849999999886
21
-104.6998849999999948
0
LINE
8
BLACK
6
CONTINUOUS
10
120.0866849999999886
20
-104.6998849999999948
11
120.1598259999999954
21
-105.1616810000000015
0
LINE
8
BLACK
6
CONTINUOUS
10
120.1598259999999954
20
-105.1616810000000015
11
120.268974
21
-105.6163150000000002
0
LINE
8
BLACK
6
CONTINUOUS
10
120.268974
20
-105.6163150000000002
11
120.4134559999999965
21
-106.0609829999999931
0
LINE
8
BLACK
6
CONTINUOUS
10
120.4134559999999965
20
-106.0609829999999931
11
120.5923799999999915
21
-106.4929449999999918
0
LINE
8
BLACK
6
CONTINUOUS
10
120.5923799999999915
20
-106.4929449999999918
11
120.8046439999999961
21
-106.9095370000000003
0
LINE
8
BLACK
6
CONTINUOUS
10
120.8046439999999961
20
-106.9095370000000003
11
121.0489389999999901
21
-107.3081909999999937
0
LINE
8
BLACK
6
CONTINUOUS
10
121.0489389999999901
20
-107.3081909999999937
11
121.3237589999999955
21
-107.6864489999999961
0
LINE
8
BLACK
6
CONTINUOUS
10
121.3237589999999955
20
-107.6864489999999961
11
121.6274099999999976
21
-108.0419780000000003
0
LINE
8
BLACK
6
CONTINUOUS
10
121.6274099999999976
20
-108.0419780000000003
11
121.9580189999999931
21
-108.3725879999999933
0
LINE
8
BLACK
6
CONTINUOUS
10
121.9580189999999931
20
-108.3725879999999933
11
122.3135489999999947
21
-108.6762389999999954
0
LINE
8
BLACK
6
CONTINUOUS
10
122.3135489999999947
20
-108.6762389999999954
11
122.6918059999999997
21
-108.9510590000000008
0
LINE
8
BLACK
6
CONTINUOUS
10
122.6918059999999997
20
-108.9510590000000008
11
123.0904599999999931
21
-109.1953539999999947
0
LINE
8
BLACK
6
CONTINUOUS
10
123.0904599999999931
20
-109.1953539999999947
11
123.5070519999999874
21
-109.4076189999999968
0
LINE
8
BLACK
6
CONTINUOUS
10
123.5070519999999874
20
-109.4076189999999968
11
123.9390140000000002
21
-109.5865429999999918
0
LINE
8
BLACK
6
CONTINUOUS
10
123.9390140000000002
20
-109.5865429999999918
11
124.3836829999999907
21
-109.7310249999999883
0
LINE
8
BLACK
6
CONTINUOUS
10
124.3836829999999907
20
-109.7310249999999883
11
124.8383159999999918
21
-109.840172999999993
0
LINE
8
BLACK
6
CONTINUOUS
10
124.8383159999999918
20
-109.840172999999993
11
125.3001119999999986
21
-109.9133139999999997
0
LINE
8
BLACK
6
CONTINUOUS
10
125.3001119999999986
20
-109.9133139999999997
11
125.7662229999999965
21
-109.9499979999999937
0
LINE
8
BLACK
6
CONTINUOUS
10
125.7662229999999965
20
-109.9499979999999937
11
125.9999989999999883
21
-109.9499979999999937
0
LINE
8
BLACK
6
CONTINUOUS
10
125.9999989999999883
20
-109.9499979999999937
11
126.000001999999995
21
-109.9499989999999912
0
LINE
8
BLACK
6
CONTINUOUS
10
126.000001999999995
20
-109.9499989999999912
11
134.9499989999999912
21
-109.9499989999999912
0
LINE
8
BLACK
6
CONTINUOUS
10
134.9499989999999912
20
-109.9499989999999912
11
134.9499989999999912
21
-104.0499989999999997
0
LINE
8
BLACK
6
CONTINUOUS
10
134.9499989999999912
20
-104.0499989999999997
11
131.9999990000000025
21
-104.0499989999999997
0
LINE
8
BLACK
6
CONTINUOUS
10
131.9999990000000025
20
-104.0499989999999997
11
131.9876969999999972
21
-104.047551999999996
0
LINE
8
BLACK
6
CONTINUOUS
10
131.9876969999999972
20
-104.047551999999996
11
131.9845479999999895
21
-104.047551999999996
0
LINE
8
BLACK
6
CONTINUOUS
10
131.9845479999999895
20
-104.047551999999996
11
131.9833600000000047
21
-104.0466890000000006
0
LINE
8
BLACK
6
CONTINUOUS
10
131.9833600000000047
20
-104.0466890000000006
11
131.9808649999999943
21
-104.0461930000000024
0
LINE
8
BLACK
6
CONTINUOUS
10
131.9808649999999943
20
-104.0461930000000024
11
131.9760479999999916
21
-104.0413759999999996
0
LINE
8
BLACK
6
CONTINUOUS
10
131.9760479999999916
20
-104.0413759999999996
11
131.9595479999999839
21
-104.0293879999999973
0
LINE
8
BLACK
6
CONTINUOUS
10
131.9595479999999839
20
-104.0293879999999973
11
131.9573759999999822
21
-104.0227039999999903
0
LINE
8
BLACK
6
CONTINUOUS
10
131.9573759999999822
20
-104.0227039999999903
11
131.9538049999999885
21
-104.0191329999999965
0
LINE
8
BLACK
6
CONTINUOUS
10
131.9538049999999885
20
-104.0191329999999965
11
131.9538049999999885
21
-104.0117119999999886
0
LINE
8
BLACK
6
CONTINUOUS
10
131.9538049999999885
20
-104.0117119999999886
11
131.9499989999999912
21
-103.9999989999999883
0
LINE
8
BLACK
6
CONTINUOUS
10
131.9499989999999912
20
-103.9999989999999883
11
131.9500009999999861
21
-103.9999989999999883
0
LINE
8
BLACK
6
CONTINUOUS
10
131.9500009999999861
20
-103.9999989999999883
11
131.9500009999999861
21
-103.7662229999999965
0
LINE
8
BLACK
6
CONTINUOUS
10
131.9500009999999861
20
-103.7662229999999965
11
131.9133170000000064
21
-103.3001119999999986
0
LINE
8
BLACK
6
CONTINUOUS
10
131.9133170000000064
20
-103.3001119999999986
11
131.8401759999999854
21
-102.8383159999999918
0
LINE
8
BLACK
6
CONTINUOUS
10
131.8401759999999854
20
-102.8383159999999918
11
131.7310279999999807
21
-102.3836819999999932
0
LINE
8
BLACK
6
CONTINUOUS
10
131.7310279999999807
20
-102.3836819999999932
11
131.5865459999999985
21
-101.9390129999999886
0
LINE
8
BLACK
6
CONTINUOUS
10
131.5865459999999985
20
-101.9390129999999886
11
131.4076220000000035
21
-101.5070509999999899
0
LINE
8
BLACK
6
CONTINUOUS
10
131.4076220000000035
20
-101.5070509999999899
11
131.1953570000000013
21
-101.0904589999999956
0
LINE
8
BLACK
6
CONTINUOUS
10
131.1953570000000013
20
-101.0904589999999956
11
130.9510620000000074
21
-100.6918050000000022
0
LINE
8
BLACK
6
CONTINUOUS
10
130.9510620000000074
20
-100.6918050000000022
11
130.6762410000000045
21
-100.3135469999999998
0
LINE
8
BLACK
6
CONTINUOUS
10
130.6762410000000045
20
-100.3135469999999998
11
130.3725900000000024
21
-99.9580179999999956
0
LINE
8
BLACK
6
CONTINUOUS
10
130.3725900000000024
20
-99.9580179999999956
11
130.0419809999999927
21
-99.6274079999999884
0
LINE
8
BLACK
6
CONTINUOUS
10
130.0419809999999927
20
-99.6274079999999884
11
129.6864510000000053
21
-99.3237570000000005
0
LINE
8
BLACK
6
CONTINUOUS
10
129.6864510000000053
20
-99.3237570000000005
11
129.3081929999999886
21
-99.0489369999999951
0
LINE
8
BLACK
6
CONTINUOUS
10
129.3081929999999886
20
-99.0489369999999951
11
128.9095389999999952
21
-98.8046420000000012
0
LINE
8
BLACK
6
CONTINUOUS
10
128.9095389999999952
20
-98.8046420000000012
11
128.4929469999999867
21
-98.5923779999999965
0
LINE
8
BLACK
6
CONTINUOUS
10
128.4929469999999867
20
-98.5923779999999965
11
128.0609849999999881
21
-98.4134529999999899
0
LINE
8
BLACK
6
CONTINUOUS
10
128.0609849999999881
20
-98.4134529999999899
11
127.6163159999999976
21
-98.2689709999999934
0
LINE
8
BLACK
6
CONTINUOUS
10
127.6163159999999976
20
-98.2689709999999934
11
127.161681999999999
21
-98.1598240000000004
0
LINE
8
BLACK
6
CONTINUOUS
10
127.161681999999999
20
-98.1598240000000004
11
126.6998859999999922
21
-98.0866819999999962
0
LINE
8
BLACK
6
CONTINUOUS
10
126.6998859999999922
20
-98.0866819999999962
11
126.2337749999999943
21
-98.0499989999999997
0
LINE
8
BLACK
6
CONTINUOUS
10
126.2337749999999943
20
-98.0499989999999997
11
125.9999989999999883
21
-98.0499989999999997
0
LINE
8
BLACK
6
CONTINUOUS
10
125.9999989999999883
20
-98.0499989999999997
11
125.9882849999999905
21
-98.0461930000000024
0
LINE
8
BLACK
6
CONTINUOUS
10
125.9882849999999905
20
-98.0461930000000024
11
125.9808649999999943
21
-98.0461930000000024
0
LINE
8
BLACK
6
CONTINUOUS
10
125.9808649999999943
20
-98.0461930000000024
11
125.9772929999999889
21
-98.0426209999999969
0
LINE
8
BLACK
6
CONTINUOUS
10
125.9772929999999889
20
-98.0426209999999969
11
125.9706099999999935
21
-98.0404499999999928
0
LINE
8
BLACK
6
CONTINUOUS
10
125.9706099999999935
20
-98.0404499999999928
11
125.9586209999999937
21
-98.0239490000000018
0
LINE
8
BLACK
6
CONTINUOUS
10
125.9586209999999937
20
-98.0239490000000018
11
125.9538049999999885
21
-98.0191329999999965
0
LINE
8
BLACK
6
CONTINUOUS
10
125.9538049999999885
20
-98.0191329999999965
11
125.9533079999999927
21
-98.0166369999999887
0
LINE
8
BLACK
6
CONTINUOUS
10
125.9533079999999927
20
-98.0166369999999887
11
125.9524459999999948
21
-98.0154500000000013
0
LINE
8
BLACK
6
CONTINUOUS
10
125.9524459999999948
20
-98.0154500000000013
11
125.9524459999999948
21
-98.0122999999999962
0
LINE
8
BLACK
6
CONTINUOUS
10
125.9524459999999948
20
-98.0122999999999962
11
125.9499989999999912
21
-97.9999990000000025
0
LINE
8
BLACK
6
CONTINUOUS
10
125.9499989999999912
20
-97.9999990000000025
11
125.9499989999999912
21
-68.9999990000000025
0
LINE
8
BLACK
6
CONTINUOUS
10
125.9499989999999912
20
-68.9999990000000025
11
125.9667069999999995
21
-68.6811869999999942
0
LINE
8
BLACK
6
CONTINUOUS
10
125.9667069999999995
20
-68.6811869999999942
11
126.016649000000001
21
-68.3658679999999919
0
LINE
8
BLACK
6
CONTINUOUS
10
126.016649000000001
20
-68.3658679999999919
11
126.0992770000000007
21
-68.0574969999999979
0
LINE
8
BLACK
6
CONTINUOUS
10
126.0992770000000007
20
-68.0574969999999979
11
126.2136859999999956
21
-67.759451999999996
0
LINE
8
BLACK
6
CONTINUOUS
10
126.2136859999999956
20
-67.759451999999996
11
126.3586219999999969
21
-67.4749989999999968
0
LINE
8
BLACK
6
CONTINUOUS
10
126.3586219999999969
20
-67.4749989999999968
11
126.5324969999999922
21
-67.2072539999999918
0
LINE
8
BLACK
6
CONTINUOUS
10
126.5324969999999922
20
-67.2072539999999918
11
126.7334079999999972
21
-66.9591509999999914
0
LINE
8
BLACK
6
CONTINUOUS
10
126.7334079999999972
20
-66.9591509999999914
11
126.9591509999999914
21
-66.7334079999999972
0
LINE
8
BLACK
6
CONTINUOUS
10
126.9591509999999914
20
-66.7334079999999972
11
127.2072539999999918
21
-66.5324969999999922
0
LINE
8
BLACK
6
CONTINUOUS
10
127.2072539999999918
20
-66.5324969999999922
11
127.4749989999999968
21
-66.3586219999999969
0
LINE
8
BLACK
6
CONTINUOUS
10
127.4749989999999968
20
-66.3586219999999969
11
127.759451999999996
21
-66.2136859999999956
0
LINE
8
BLACK
6
CONTINUOUS
10
127.759451999999996
20
-66.2136859999999956
11
128.0574969999999837
21
-66.0992770000000007
0
LINE
8
BLACK
6
CONTINUOUS
10
128.0574969999999837
20
-66.0992770000000007
11
128.3658680000000061
21
-66.016649000000001
0
LINE
8
BLACK
6
CONTINUOUS
10
128.3658680000000061
20
-66.016649000000001
11
128.6811869999999942
21
-65.9667069999999995
0
LINE
8
BLACK
6
CONTINUOUS
10
128.6811869999999942
20
-65.9667069999999995
11
128.9999990000000025
21
-65.9499989999999912
0
LINE
8
BLACK
6
CONTINUOUS
10
128.9999990000000025
20
-65.9499989999999912
11
129.0000049999999874
21
-65.9500010000000003
0
LINE
8
BLACK
6
CONTINUOUS
10
129.0000049999999874
20
-65.9500010000000003
11
129.2397760000000062
21
-65.9500010000000003
0
LINE
8
BLACK
6
CONTINUOUS
10
129.2397760000000062
20
-65.9500010000000003
11
129.7177749999999889
21
-65.911412999999996
0
LINE
8
BLACK
6
CONTINUOUS
10
129.7177749999999889
20
-65.911412999999996
11
130.1911179999999888
21
-65.8344869999999958
0
LINE
8
BLACK
6
CONTINUOUS
10
130.1911179999999888
20
-65.8344869999999958
11
130.6567369999999926
21
-65.7197219999999902
0
LINE
8
BLACK
6
CONTINUOUS
10
130.6567369999999926
20
-65.7197219999999902
11
131.1116109999999821
21
-65.5678630000000027
0
LINE
8
BLACK
6
CONTINUOUS
10
131.1116109999999821
20
-65.5678630000000027
11
131.5527909999999849
21
-65.3798939999999931
0
LINE
8
BLACK
6
CONTINUOUS
10
131.5527909999999849
20
-65.3798939999999931
11
131.9774139999999818
21
-65.1570339999999959
0
LINE
8
BLACK
6
CONTINUOUS
10
131.9774139999999818
20
-65.1570339999999959
11
132.382727999999986
21
-64.9007289999999983
0
LINE
8
BLACK
6
CONTINUOUS
10
132.382727999999986
20
-64.9007289999999983
11
132.7661039999999844
21
-64.6126409999999964
0
LINE
8
BLACK
6
CONTINUOUS
10
132.7661039999999844
20
-64.6126409999999964
11
133.1250550000000032
21
-64.294637999999992
0
LINE
8
BLACK
6
CONTINUOUS
10
133.1250550000000032
20
-64.294637999999992
11
133.457254000000006
21
-63.9487829999999988
0
LINE
8
BLACK
6
CONTINUOUS
10
133.457254000000006
20
-63.9487829999999988
11
133.7605460000000051
21
-63.5773179999999982
0
LINE
8
BLACK
6
CONTINUOUS
10
133.7605460000000051
20
-63.5773179999999982
11
134.0329629999999952
21
-63.1826529999999948
0
LINE
8
BLACK
6
CONTINUOUS
10
134.0329629999999952
20
-63.1826529999999948
11
134.2727399999999989
21
-62.7673479999999984
0
LINE
8
BLACK
6
CONTINUOUS
10
134.2727399999999989
20
-62.7673479999999984
11
134.478320999999994
21
-62.3340949999999978
0
LINE
8
BLACK
6
CONTINUOUS
10
134.478320999999994
20
-62.3340949999999978
11
134.6483729999999923
21
-61.8857039999999969
0
LINE
8
BLACK
6
CONTINUOUS
10
134.6483729999999923
20
-61.8857039999999969
11
134.7817929999999933
21
-61.4250839999999982
0
LINE
8
BLACK
6
CONTINUOUS
10
134.7817929999999933
20
-61.4250839999999982
11
134.8777159999999924
21
-60.9552219999999991
0
LINE
8
BLACK
6
CONTINUOUS
10
134.8777159999999924
20
-60.9552219999999991
11
134.9355199999999968
21
-60.4791649999999947
0
LINE
8
BLACK
6
CONTINUOUS
10
134.9355199999999968
20
-60.4791649999999947
11
134.954829999999987
21
-60.
0
LINE
8
BLACK
6
CONTINUOUS
10
134.954829999999987
20
-60.
11
134.9355199999999968
21
-59.5208349999999982
0
LINE
8
BLACK
6
CONTINUOUS
10
134.9355199999999968
20
-59.5208349999999982
11
134.8777159999999924
21
-59.0447780000000009
0
LINE
8
BLACK
6
CONTINUOUS
10
134.8777159999999924
20
-59.0447780000000009
11
134.7817929999999933
21
-58.5749159999999947
0
LINE
8
BLACK
6
CONTINUOUS
10
134.7817929999999933
20
-58.5749159999999947
11
134.6483729999999923
21
-58.114295999999996
0
LINE
8
BLACK
6
CONTINUOUS
10
134.6483729999999923
20
-58.114295999999996
11
134.478320999999994
21
-57.6659049999999951
0
LINE
8
BLACK
6
CONTINUOUS
10
134.478320999999994
20
-57.6659049999999951
11
134.2727399999999989
21
-57.2326519999999945
0
LINE
8
BLACK
6
CONTINUOUS
10
134.2727399999999989
20
-57.2326519999999945
11
134.0329629999999952
21
-56.817346999999998
0
LINE
8
BLACK
6
CONTINUOUS
10
134.0329629999999952
20
-56.817346999999998
11
133.7605460000000051
21
-56.4226819999999947
0
LINE
8
BLACK
6
CONTINUOUS
10
133.7605460000000051
20
-56.4226819999999947
11
133.457254000000006
21
-56.0512169999999941
0
LINE
8
BLACK
6
CONTINUOUS
10
133.457254000000006
20
-56.0512169999999941
11
133.1250550000000032
21
-55.7053620000000009
0
LINE
8
BLACK
6
CONTINUOUS
10
133.1250550000000032
20
-55.7053620000000009
11
132.7661039999999844
21
-55.3873589999999965
0
LINE
8
BLACK
6
CONTINUOUS
10
132.7661039999999844
20
-55.3873589999999965
11
132.382727999999986
21
-55.0992709999999946
0
LINE
8
BLACK
6
CONTINUOUS
10
132.382727999999986
20
-55.0992709999999946
11
131.9774139999999818
21
-54.842965999999997
0
LINE
8
BLACK
6
CONTINUOUS
10
131.9774139999999818
20
-54.842965999999997
11
131.5527909999999849
21
-54.6201059999999998
0
LINE
8
BLACK
6
CONTINUOUS
10
131.5527909999999849
20
-54.6201059999999998
11
131.1116109999999821
21
-54.4321369999999973
0
LINE
8
BLACK
6
CONTINUOUS
10
131.1116109999999821
20
-54.4321369999999973
11
130.6567369999999926
21
-54.2802779999999956
0
LINE
8
BLACK
6
CONTINUOUS
10
130.6567369999999926
20
-54.2802779999999956
11
130.1911179999999888
21
-54.1655129999999971
0
LINE
8
BLACK
6
CONTINUOUS
10
130.1911179999999888
20
-54.1655129999999971
11
129.7177749999999889
21
-54.0885869999999969
0
LINE
8
BLACK
6
CONTINUOUS
10
129.7177749999999889
20
-54.0885869999999969
11
129.2397760000000062
21
-54.0499989999999997
0
LINE
8
BLACK
6
CONTINUOUS
10
129.2397760000000062
20
-54.0499989999999997
11
128.9999990000000025
21
-54.0499989999999997
0
LINE
8
BLACK
6
CONTINUOUS
10
128.9999990000000025
20
-54.0499989999999997
11
128.6811869999999942
21
-54.0332909999999984
0
LINE
8
BLACK
6
CONTINUOUS
10
128.6811869999999942
20
-54.0332909999999984
11
128.3658690000000036
21
-53.9833489999999969
0
LINE
8
BLACK
6
CONTINUOUS
10
128.3658690000000036
20
-53.9833489999999969
11
128.0574979999999812
21
-53.9007209999999972
0
LINE
8
BLACK
6
CONTINUOUS
10
128.0574979999999812
20
-53.9007209999999972
11
127.7594529999999935
21
-53.7863119999999952
0
LINE
8
BLACK
6
CONTINUOUS
10
127.7594529999999935
20
-53.7863119999999952
11
127.4749999999999943
21
-53.6413760000000011
0
LINE
8
BLACK
6
CONTINUOUS
10
127.4749999999999943
20
-53.6413760000000011
11
127.2072549999999893
21
-53.467499999999994
0
LINE
8
BLACK
6
CONTINUOUS
10
127.2072549999999893
20
-53.467499999999994
11
126.9591519999999889
21
-53.2665900000000008
0
LINE
8
BLACK
6
CONTINUOUS
10
126.9591519999999889
20
-53.2665900000000008
11
126.7334079999999972
21
-53.0408469999999994
0
LINE
8
BLACK
6
CONTINUOUS
10
126.7334079999999972
20
-53.0408469999999994
11
126.5324979999999897
21
-52.792743999999999
0
LINE
8
BLACK
6
CONTINUOUS
10
126.5324979999999897
20
-52.792743999999999
11
126.3586229999999944
21
-52.5249990000000011
0
LINE
8
BLACK
6
CONTINUOUS
10
126.3586229999999944
20
-52.5249990000000011
11
126.2136869999999931
21
-52.2405449999999973
0
LINE
8
BLACK
6
CONTINUOUS
10
126.2136869999999931
20
-52.2405449999999973
11
126.0992779999999982
21
-51.942501
0
LINE
8
BLACK
6
CONTINUOUS
10
126.0992779999999982
20
-51.942501
11
126.016650999999996
21
-51.6341289999999944
0
LINE
8
BLACK
6
CONTINUOUS
10
126.016650999999996
20
-51.6341289999999944
11
125.9667089999999945
21
-51.3188109999999966
0
LINE
8
BLACK
6
CONTINUOUS
10
125.9667089999999945
20
-51.3188109999999966
11
125.9500010000000003
21
-51.0000119999999981
0
LINE
8
BLACK
6
CONTINUOUS
10
125.9500010000000003
20
-51.0000119999999981
11
125.9499989999999912
21
-50.9999989999999954
0
LINE
8
BLACK
6
CONTINUOUS
10
125.9499989999999912
20
-50.9999989999999954
11
125.9499989999999912
21
-44.9999989999999954
0
LINE
8
BLACK
6
CONTINUOUS
10
125.9499989999999912
20
-44.9999989999999954
11
125.9667069999999995
21
-44.6811870000000013
0
LINE
8
BLACK
6
CONTINUOUS
10
125.9667069999999995
20
-44.6811870000000013
11
126.016649000000001
21
-44.365867999999999
0
LINE
8
BLACK
6
CONTINUOUS
10
126.016649000000001
20
-44.365867999999999
11
126.0992770000000007
21
-44.0574969999999979
0
LINE
8
BLACK
6
CONTINUOUS
10
126.0992770000000007
20
-44.0574969999999979
11
126.2136859999999956
21
-43.759451999999996
0
LINE
8
BLACK
6
CONTINUOUS
10
126.2136859999999956
20
-43.759451999999996
11
126.3586219999999969
21
-43.4749989999999968
0
LINE
8
BLACK
6
CONTINUOUS
10
126.3586219999999969
20
-43.4749989999999968
11
126.5324969999999922
21
-43.2072539999999989
0
LINE
8
BLACK
6
CONTINUOUS
10
126.5324969999999922
20
-43.2072539999999989
11
126.7334079999999972
21
-42.9591509999999985
0
LINE
8
BLACK
6
CONTINUOUS
10
126.7334079999999972
20
-42.9591509999999985
11
126.9591509999999914
21
-42.7334079999999972
0
LINE
8
BLACK
6
CONTINUOUS
10
126.9591509999999914
20
-42.7334079999999972
11
127.2072539999999918
21
-42.5324969999999993
0
LINE
8
BLACK
6
CONTINUOUS
10
127.2072539999999918
20
-42.5324969999999993
11
127.4749989999999968
21
-42.3586219999999969
0
LINE
8
BLACK
6
CONTINUOUS
10
127.4749989999999968
20
-42.3586219999999969
11
127.759451999999996
21
-42.2136859999999956
0
LINE
8
BLACK
6
CONTINUOUS
10
127.759451999999996
20
-42.2136859999999956
11
128.0574969999999837
21
-42.0992770000000007
0
LINE
8
BLACK
6
CONTINUOUS
10
128.0574969999999837
20
-42.0992770000000007
11
128.3658680000000061
21
-42.016649000000001
0
LINE
8
BLACK
6
CONTINUOUS
10
128.3658680000000061
20
-42.016649000000001
11
128.6811869999999942
21
-41.9667069999999995
0
LINE
8
BLACK
6
CONTINUOUS
10
128.6811869999999942
20
-41.9667069999999995
11
128.9999990000000025
21
-41.9499989999999983
0
LINE
8
BLACK
6
CONTINUOUS
10
128.9999990000000025
20
-41.9499989999999983
11
129.2337749999999801
21
-41.9499989999999983
0
LINE
8
BLACK
6
CONTINUOUS
10
129.2337749999999801
20
-41.9499989999999983
11
129.6998859999999922
21
-41.9133159999999947
0
LINE
8
BLACK
6
CONTINUOUS
10
129.6998859999999922
20
-41.9133159999999947
11
130.1616819999999848
21
-41.8401739999999975
0
LINE
8
BLACK
6
CONTINUOUS
10
130.1616819999999848
20
-41.8401739999999975
11
130.6163159999999834
21
-41.7310269999999974
0
LINE
8
BLACK
6
CONTINUOUS
10
130.6163159999999834
20
-41.7310269999999974
11
131.0609849999999881
21
-41.586545000000001
0
LINE
8
BLACK
6
CONTINUOUS
10
131.0609849999999881
20
-41.586545000000001
11
131.4929469999999867
21
-41.4076200000000014
0
LINE
8
BLACK
6
CONTINUOUS
10
131.4929469999999867
20
-41.4076200000000014
11
131.9095389999999952
21
-41.1953559999999968
0
LINE
8
BLACK
6
CONTINUOUS
10
131.9095389999999952
20
-41.1953559999999968
11
132.3081929999999886
21
-40.9510609999999957
0
LINE
8
BLACK
6
CONTINUOUS
10
132.3081929999999886
20
-40.9510609999999957
11
132.6864510000000053
21
-40.67624
0
LINE
8
BLACK
6
CONTINUOUS
10
132.6864510000000053
20
-40.67624
11
133.0419799999999952
21
-40.3725899999999953
0
LINE
8
BLACK
6
CONTINUOUS
10
133.0419799999999952
20
-40.3725899999999953
11
133.3725900000000024
21
-40.0419799999999952
0
LINE
8
BLACK
6
CONTINUOUS
10
133.3725900000000024
20
-40.0419799999999952
11
133.6762400000000071
21
-39.6864509999999981
0
LINE
8
BLACK
6
CONTINUOUS
10
133.6762400000000071
20
-39.6864509999999981
11
133.9510609999999815
21
-39.3081929999999957
0
LINE
8
BLACK
6
CONTINUOUS
10
133.9510609999999815
20
-39.3081929999999957
11
134.1953560000000039
21
-38.9095389999999952
0
LINE
8
BLACK
6
CONTINUOUS
10
134.1953560000000039
20
-38.9095389999999952
11
134.4076199999999801
21
-38.4929470000000009
0
LINE
8
BLACK
6
CONTINUOUS
10
134.4076199999999801
20
-38.4929470000000009
11
134.586545000000001
21
-38.0609849999999952
0
LINE
8
BLACK
6
CONTINUOUS
10
134.586545000000001
20
-38.0609849999999952
11
134.7310269999999832
21
-37.6163159999999976
0
LINE
8
BLACK
6
CONTINUOUS
10
134.7310269999999832
20
-37.6163159999999976
11
134.8401739999999904
21
-37.161681999999999
0
LINE
8
BLACK
6
CONTINUOUS
10
134.8401739999999904
20
-37.161681999999999
11
134.9133159999999805
21
-36.6998859999999993
0
LINE
8
BLACK
6
CONTINUOUS
10
134.9133159999999805
20
-36.6998859999999993
11
134.9499989999999912
21
-36.2337750000000014
0
LINE
8
BLACK
6
CONTINUOUS
10
134.9499989999999912
20
-36.2337750000000014
11
134.9499989999999912
21
-35.9999989999999954
0
LINE
8
BLACK
6
CONTINUOUS
10
134.9499989999999912
20
-35.9999989999999954
11
134.9538059999999859
21
-35.9882819999999981
0
LINE
8
BLACK
6
CONTINUOUS
10
134.9538059999999859
20
-35.9882819999999981
11
134.9538059999999859
21
-35.9808659999999989
0
LINE
8
BLACK
6
CONTINUOUS
10
134.9538059999999859
20
-35.9808659999999989
11
134.9573749999999848
21
-35.9772959999999955
0
LINE
8
BLACK
6
CONTINUOUS
10
134.9573749999999848
20
-35.9772959999999955
11
134.9595479999999839
21
-35.9706100000000006
0
LINE
8
BLACK
6
CONTINUOUS
10
134.9595479999999839
20
-35.9706100000000006
11
134.9760559999999998
21
-35.9586150000000018
0
LINE
8
BLACK
6
CONTINUOUS
10
134.9760559999999998
20
-35.9586150000000018
11
134.9808659999999918
21
-35.9538060000000002
0
LINE
8
BLACK
6
CONTINUOUS
10
134.9808659999999918
20
-35.9538060000000002
11
134.9833579999999813
21
-35.9533100000000019
0
LINE
8
BLACK
6
CONTINUOUS
10
134.9833579999999813
20
-35.9533100000000019
11
134.9845479999999895
21
-35.9524460000000019
0
LINE
8
BLACK
6
CONTINUOUS
10
134.9845479999999895
20
-35.9524460000000019
11
134.987702999999982
21
-35.9524460000000019
0
LINE
8
BLACK
6
CONTINUOUS
10
134.987702999999982
20
-35.9524460000000019
11
135.
21
-35.9499999999999957
0
LINE
8
BLACK
6
CONTINUOUS
10
135.
20
-35.9499999999999957
11
141.1999999999999886
21
-35.9499989999999983
0
LINE
8
BLACK
6
CONTINUOUS
10
141.1999999999999886
20
-35.9499989999999983
11
141.1999999999999886
21
-30.0499989999999997
0
LINE
8
BLACK
6
CONTINUOUS
10
141.1999999999999886
20
-30.0499989999999997
11
125.9999989999999883
21
-30.0499979999999987
0
LINE
8
BLACK
6
CONTINUOUS
10
125.9999989999999883
20
-30.0499979999999987
11
125.9999989999999883
21
-30.0499989999999997
0
LINE
8
BLACK
6
CONTINUOUS
10
148.7999999999999829
20
-30.0499989999999997
11
148.7999999999999829
21
-35.9499989999999983
0
LINE
8
BLACK
6
CONTINUOUS
10
148.7999999999999829
20
-35.9499989999999983
11
154.9999990000000025
21
-35.9499989999999983
0
LINE
8
BLACK
6
CONTINUOUS
10
154.9999990000000025
20
-35.9499989999999983
11
155.0123009999999795
21
-35.9524460000000019
0
LINE
8
BLACK
6
CONTINUOUS
10
155.0123009999999795
20
-35.9524460000000019
11
155.0154499999999871
21
-35.9524460000000019
0
LINE
8
BLACK
6
CONTINUOUS
10
155.0154499999999871
20
-35.9524460000000019
11
155.0166370000000029
21
-35.9533079999999998
0
LINE
8
BLACK
6
CONTINUOUS
10
155.0166370000000029
20
-35.9533079999999998
11
155.0191329999999823
21
-35.9538049999999956
0
LINE
8
BLACK
6
CONTINUOUS
10
155.0191329999999823
20
-35.9538049999999956
11
155.0239489999999876
21
-35.9586210000000008
0
LINE
8
BLACK
6
CONTINUOUS
10
155.0239489999999876
20
-35.9586210000000008
11
155.0404499999999928
21
-35.9706100000000006
0
LINE
8
BLACK
6
CONTINUOUS
10
155.0404499999999928
20
-35.9706100000000006
11
155.0426209999999969
21
-35.977292999999996
0
LINE
8
BLACK
6
CONTINUOUS
10
155.0426209999999969
20
-35.977292999999996
11
155.0461929999999882
21
-35.9808650000000014
0
LINE
8
BLACK
6
CONTINUOUS
10
155.0461929999999882
20
-35.9808650000000014
11
155.0461929999999882
21
-35.9882849999999976
0
LINE
8
BLACK
6
CONTINUOUS
10
155.0461929999999882
20
-35.9882849999999976
11
155.0499989999999855
21
-35.9999989999999954
0
LINE
8
BLACK
6
CONTINUOUS
10
155.0499989999999855
20
-35.9999989999999954
11
155.0500009999999804
21
-35.9999989999999954
0
LINE
8
BLACK
6
CONTINUOUS
10
155.0500009999999804
20
-35.9999989999999954
11
155.0500009999999804
21
-36.2337750000000014
0
LINE
8
BLACK
6
CONTINUOUS
10
155.0500009999999804
20
-36.2337750000000014
11
155.0866839999999911
21
-36.6998859999999993
0
LINE
8
BLACK
6
CONTINUOUS
10
155.0866839999999911
20
-36.6998859999999993
11
155.1598259999999811
21
-37.161681999999999
0
LINE
8
BLACK
6
CONTINUOUS
10
155.1598259999999811
20
-37.161681999999999
11
155.2689729999999884
21
-37.6163159999999976
0
LINE
8
BLACK
6
CONTINUOUS
10
155.2689729999999884
20
-37.6163159999999976
11
155.413454999999999
21
-38.0609839999999977
0
LINE
8
BLACK
6
CONTINUOUS
10
155.413454999999999
20
-38.0609839999999977
11
155.592378999999994
21
-38.4929459999999963
0
LINE
8
BLACK
6
CONTINUOUS
10
155.592378999999994
20
-38.4929459999999963
11
155.8046439999999961
21
-38.9095379999999977
0
LINE
8
BLACK
6
CONTINUOUS
10
155.8046439999999961
20
-38.9095379999999977
11
156.0489389999999901
21
-39.3081919999999982
0
LINE
8
BLACK
6
CONTINUOUS
10
156.0489389999999901
20
-39.3081919999999982
11
156.3237589999999955
21
-39.6864500000000007
0
LINE
8
BLACK
6
CONTINUOUS
10
156.3237589999999955
20
-39.6864500000000007
11
156.6274099999999976
21
-40.0419789999999978
0
LINE
8
BLACK
6
CONTINUOUS
10
156.6274099999999976
20
-40.0419789999999978
11
156.9580189999999789
21
-40.3725889999999978
0
LINE
8
BLACK
6
CONTINUOUS
10
156.9580189999999789
20
-40.3725889999999978
11
157.3135489999999947
21
-40.67624
0
LINE
8
BLACK
6
CONTINUOUS
10
157.3135489999999947
20
-40.67624
11
157.6918059999999855
21
-40.9510599999999982
0
LINE
8
BLACK
6
CONTINUOUS
10
157.6918059999999855
20
-40.9510599999999982
11
158.0904599999999789
21
-41.1953559999999968
0
LINE
8
BLACK
6
CONTINUOUS
10
158.0904599999999789
20
-41.1953559999999968
11
158.5070519999999874
21
-41.4076200000000014
0
LINE
8
BLACK
6
CONTINUOUS
10
158.5070519999999874
20
-41.4076200000000014
11
158.939013999999986
21
-41.5865439999999964
0
LINE
8
BLACK
6
CONTINUOUS
10
158.939013999999986
20
-41.5865439999999964
11
159.3836819999999932
21
-41.731026
0
LINE
8
BLACK
6
CONTINUOUS
10
159.3836819999999932
20
-41.731026
11
159.8383159999999918
21
-41.8401739999999975
0
LINE
8
BLACK
6
CONTINUOUS
10
159.8383159999999918
20
-41.8401739999999975
11
160.3001119999999844
21
-41.9133149999999972
0
LINE
8
BLACK
6
CONTINUOUS
10
160.3001119999999844
20
-41.9133149999999972
11
160.7662229999999965
21
-41.9499989999999983
0
LINE
8
BLACK
6
CONTINUOUS
10
160.7662229999999965
20
-41.9499989999999983
11
160.9999990000000025
21
-41.9499989999999983
0
LINE
8
BLACK
6
CONTINUOUS
10
160.9999990000000025
20
-41.9499989999999983
11
161.3188109999999824
21
-41.9667069999999995
0
LINE
8
BLACK
6
CONTINUOUS
10
161.3188109999999824
20
-41.9667069999999995
11
161.634129999999999
21
-42.016649000000001
0
LINE
8
BLACK
6
CONTINUOUS
10
161.634129999999999
20
-42.016649000000001
11
161.9425009999999929
21
-42.0992759999999961
0
LINE
8
BLACK
6
CONTINUOUS
10
161.9425009999999929
20
-42.0992759999999961
11
162.2405459999999948
21
-42.2136849999999981
0
LINE
8
BLACK
6
CONTINUOUS
10
162.2405459999999948
20
-42.2136849999999981
11
162.5250000000000057
21
-42.3586209999999994
0
LINE
8
BLACK
6
CONTINUOUS
10
162.5250000000000057
20
-42.3586209999999994
11
162.7927449999999965
21
-42.5324969999999993
0
LINE
8
BLACK
6
CONTINUOUS
10
162.7927449999999965
20
-42.5324969999999993
11
163.0408479999999827
21
-42.7334069999999997
0
LINE
8
BLACK
6
CONTINUOUS
10
163.0408479999999827
20
-42.7334069999999997
11
163.2665920000000028
21
-42.9591500000000011
0
LINE
8
BLACK
6
CONTINUOUS
10
163.2665920000000028
20
-42.9591500000000011
11
163.4675019999999961
21
-43.2072539999999989
0
LINE
8
BLACK
6
CONTINUOUS
10
163.4675019999999961
20
-43.2072539999999989
11
163.6413780000000031
21
-43.4749989999999968
0
LINE
8
BLACK
6
CONTINUOUS
10
163.6413780000000031
20
-43.4749989999999968
11
163.7863140000000044
21
-43.759451999999996
0
LINE
8
BLACK
6
CONTINUOUS
10
163.7863140000000044
20
-43.759451999999996
11
163.9007229999999993
21
-44.0574969999999979
0
LINE
8
BLACK
6
CONTINUOUS
10
163.9007229999999993
20
-44.0574969999999979
11
163.983350999999999
21
-44.365867999999999
0
LINE
8
BLACK
6
CONTINUOUS
10
163.983350999999999
20
-44.365867999999999
11
164.0332929999999863
21
-44.6811870000000013
0
LINE
8
BLACK
6
CONTINUOUS
10
164.0332929999999863
20
-44.6811870000000013
11
164.0500009999999804
21
-44.9999989999999954
0
LINE
8
BLACK
6
CONTINUOUS
10
164.0500009999999804
20
-44.9999989999999954
11
164.0499989999999855
21
-44.9999989999999954
0
LINE
8
BLACK
6
CONTINUOUS
10
164.0499989999999855
20
-44.9999989999999954
11
164.0499989999999855
21
-50.9999989999999954
0
LINE
8
BLACK
6
CONTINUOUS
10
164.0499989999999855
20
-50.9999989999999954
11
164.0332909999999913
21
-51.3188109999999966
0
LINE
8
BLACK
6
CONTINUOUS
10
164.0332909999999913
20
-51.3188109999999966
11
163.983349000000004
21
-51.634129999999999
0
LINE
8
BLACK
6
CONTINUOUS
10
163.983349000000004
20
-51.634129999999999
11
163.9007220000000018
21
-51.942501
0
LINE
8
BLACK
6
CONTINUOUS
10
163.9007220000000018
20
-51.942501
11
163.7863129999999785
21
-52.2405459999999948
0
LINE
8
BLACK
6
CONTINUOUS
10
163.7863129999999785
20
-52.2405459999999948
11
163.6413770000000056
21
-52.5249990000000011
0
LINE
8
BLACK
6
CONTINUOUS
10
163.6413770000000056
20
-52.5249990000000011
11
163.4675009999999986
21
-52.792743999999999
0
LINE
8
BLACK
6
CONTINUOUS
10
163.4675009999999986
20
-52.792743999999999
11
163.2665910000000054
21
-53.0408479999999969
0
LINE
8
BLACK
6
CONTINUOUS
10
163.2665910000000054
20
-53.0408479999999969
11
163.0408479999999827
21
-53.2665909999999982
0
LINE
8
BLACK
6
CONTINUOUS
10
163.0408479999999827
20
-53.2665909999999982
11
162.792743999999999
21
-53.4675009999999986
0
LINE
8
BLACK
6
CONTINUOUS
10
162.792743999999999
20
-53.4675009999999986
11
162.5249989999999798
21
-53.6413769999999985
0
LINE
8
BLACK
6
CONTINUOUS
10
162.5249989999999798
20
-53.6413769999999985
11
162.2405459999999948
21
-53.7863129999999998
0
LINE
8
BLACK
6
CONTINUOUS
10
162.2405459999999948
20
-53.7863129999999998
11
161.9425009999999929
21
-53.9007219999999947
0
LINE
8
BLACK
6
CONTINUOUS
10
161.9425009999999929
20
-53.9007219999999947
11
161.634129999999999
21
-53.9833489999999969
0
LINE
8
BLACK
6
CONTINUOUS
10
161.634129999999999
20
-53.9833489999999969
11
161.3188109999999824
21
-54.0332909999999984
0
LINE
8
BLACK
6
CONTINUOUS
10
161.3188109999999824
20
-54.0332909999999984
11
160.9999990000000025
21
-54.0499989999999997
0
LINE
8
BLACK
6
CONTINUOUS
10
160.9999990000000025
20
-54.0499989999999997
11
160.9999990000000025
21
-54.0500009999999946
0
LINE
8
BLACK
6
CONTINUOUS
10
160.9999990000000025
20
-54.0500009999999946
11
160.7602219999999988
21
-54.0500009999999946
0
LINE
8
BLACK
6
CONTINUOUS
10
160.7602219999999988
20
-54.0500009999999946
11
160.2822239999999852
21
-54.0885899999999964
0
LINE
8
BLACK
6
CONTINUOUS
10
160.2822239999999852
20
-54.0885899999999964
11
159.8088809999999853
21
-54.1655149999999992
0
LINE
8
BLACK
6
CONTINUOUS
10
159.8088809999999853
20
-54.1655149999999992
11
159.3432619999999815
21
-54.2802799999999976
0
LINE
8
BLACK
6
CONTINUOUS
10
159.3432619999999815
20
-54.2802799999999976
11
158.888387999999992
21
-54.4321389999999994
0
LINE
8
BLACK
6
CONTINUOUS
10
158.888387999999992
20
-54.4321389999999994
11
158.4472089999999866
21
-54.6201079999999948
0
LINE
8
BLACK
6
CONTINUOUS
10
158.4472089999999866
20
-54.6201079999999948
11
158.0225849999999923
21
-54.8429679999999991
0
LINE
8
BLACK
6
CONTINUOUS
10
158.0225849999999923
20
-54.8429679999999991
11
157.6172719999999856
21
-55.0992729999999966
0
LINE
8
BLACK
6
CONTINUOUS
10
157.6172719999999856
20
-55.0992729999999966
11
157.2338959999999872
21
-55.3873609999999985
0
LINE
8
BLACK
6
CONTINUOUS
10
157.2338959999999872
20
-55.3873609999999985
11
156.8749449999999968
21
-55.7053639999999959
0
LINE
8
BLACK
6
CONTINUOUS
10
156.8749449999999968
20
-55.7053639999999959
11
156.5427469999999914
21
-56.0512189999999961
0
LINE
8
BLACK
6
CONTINUOUS
10
156.5427469999999914
20
-56.0512189999999961
11
156.2394559999999899
21
-56.4226829999999993
0
LINE
8
BLACK
6
CONTINUOUS
10
156.2394559999999899
20
-56.4226829999999993
11
155.9670380000000023
21
-56.8173479999999955
0
LINE
8
BLACK
6
CONTINUOUS
10
155.9670380000000023
20
-56.8173479999999955
11
155.7272619999999961
21
-57.2326539999999966
0
LINE
8
BLACK
6
CONTINUOUS
10
155.7272619999999961
20
-57.2326539999999966
11
155.5216810000000009
21
-57.6659059999999997
0
LINE
8
BLACK
6
CONTINUOUS
10
155.5216810000000009
20
-57.6659059999999997
11
155.3516290000000026
21
-58.1142970000000005
0
LINE
8
BLACK
6
CONTINUOUS
10
155.3516290000000026
20
-58.1142970000000005
11
155.2182080000000042
21
-58.5749169999999992
0
LINE
8
BLACK
6
CONTINUOUS
10
155.2182080000000042
20
-58.5749169999999992
11
155.1222850000000051
21
-59.0447789999999983
0
LINE
8
BLACK
6
CONTINUOUS
10
155.1222850000000051
20
-59.0447789999999983
11
155.0644819999999982
21
-59.5208349999999982
0
LINE
8
BLACK
6
CONTINUOUS
10
155.0644819999999982
20
-59.5208349999999982
11
155.0451719999999796
21
-60.
0
LINE
8
BLACK
6
CONTINUOUS
10
155.0451719999999796
20
-60.
11
155.0644819999999982
21
-60.4791649999999947
0
LINE
8
BLACK
6
CONTINUOUS
10
155.0644819999999982
20
-60.4791649999999947
11
155.1222850000000051
21
-60.9552209999999945
0
LINE
8
BLACK
6
CONTINUOUS
10
155.1222850000000051
20
-60.9552209999999945
11
155.2182080000000042
21
-61.4250830000000008
0
LINE
8
BLACK
6
CONTINUOUS
10
155.2182080000000042
20
-61.4250830000000008
11
155.3516290000000026
21
-61.8857029999999995
0
LINE
8
BLACK
6
CONTINUOUS
10
155.3516290000000026
20
-61.8857029999999995
11
155.5216810000000009
21
-62.3340940000000003
0
LINE
8
BLACK
6
CONTINUOUS
10
155.5216810000000009
20
-62.3340940000000003
11
155.7272619999999961
21
-62.7673459999999963
0
LINE
8
BLACK
6
CONTINUOUS
10
155.7272619999999961
20
-62.7673459999999963
11
155.9670380000000023
21
-63.1826519999999974
0
LINE
8
BLACK
6
CONTINUOUS
10
155.9670380000000023
20
-63.1826519999999974
11
156.2394559999999899
21
-63.5773169999999936
0
LINE
8
BLACK
6
CONTINUOUS
10
156.2394559999999899
20
-63.5773169999999936
11
156.5427469999999914
21
-63.9487809999999968
0
LINE
8
BLACK
6
CONTINUOUS
10
156.5427469999999914
20
-63.9487809999999968
11
156.8749449999999968
21
-64.294635999999997
0
LINE
8
BLACK
6
CONTINUOUS
10
156.8749449999999968
20
-64.294635999999997
11
157.2338959999999872
21
-64.6126390000000015
0
LINE
8
BLACK
6
CONTINUOUS
10
157.2338959999999872
20
-64.6126390000000015
11
157.6172719999999856
21
-64.9007270000000034
0
LINE
8
BLACK
6
CONTINUOUS
10
157.6172719999999856
20
-64.9007270000000034
11
158.0225849999999923
21
-65.1570320000000009
0
LINE
8
BLACK
6
CONTINUOUS
10
158.0225849999999923
20
-65.1570320000000009
11
158.4472089999999866
21
-65.3798919999999981
0
LINE
8
BLACK
6
CONTINUOUS
10
158.4472089999999866
20
-65.3798919999999981
11
158.888387999999992
21
-65.5678609999999935
0
LINE
8
BLACK
6
CONTINUOUS
10
158.888387999999992
20
-65.5678609999999935
11
159.3432619999999815
21
-65.7197199999999953
0
LINE
8
BLACK
6
CONTINUOUS
10
159.3432619999999815
20
-65.7197199999999953
11
159.8088809999999853
21
-65.8344850000000008
0
LINE
8
BLACK
6
CONTINUOUS
10
159.8088809999999853
20
-65.8344850000000008
11
160.2822239999999852
21
-65.9114100000000036
0
LINE
8
BLACK
6
CONTINUOUS
10
160.2822239999999852
20
-65.9114100000000036
11
160.7602219999999988
21
-65.9499989999999912
0
LINE
8
BLACK
6
CONTINUOUS
10
160.7602219999999988
20
-65.9499989999999912
11
160.9999990000000025
21
-65.9499989999999912
0
LINE
8
BLACK
6
CONTINUOUS
10
160.9999990000000025
20
-65.9499989999999912
11
161.3188109999999824
21
-65.9667069999999995
0
LINE
8
BLACK
6
CONTINUOUS
10
161.3188109999999824
20
-65.9667069999999995
11
161.634129999999999
21
-66.016649000000001
0
LINE
8
BLACK
6
CONTINUOUS
10
161.634129999999999
20
-66.016649000000001
11
161.9425009999999929
21
-66.0992760000000033
0
LINE
8
BLACK
6
CONTINUOUS
10
161.9425009999999929
20
-66.0992760000000033
11
162.2405459999999948
21
-66.2136849999999981
0
LINE
8
BLACK
6
CONTINUOUS
10
162.2405459999999948
20
-66.2136849999999981
11
162.5250000000000057
21
-66.3586209999999994
0
LINE
8
BLACK
6
CONTINUOUS
10
162.5250000000000057
20
-66.3586209999999994
11
162.7927449999999965
21
-66.5324969999999922
0
LINE
8
BLACK
6
CONTINUOUS
10
162.7927449999999965
20
-66.5324969999999922
11
163.0408479999999827
21
-66.7334069999999997
0
LINE
8
BLACK
6
CONTINUOUS
10
163.0408479999999827
20
-66.7334069999999997
11
163.2665920000000028
21
-66.959149999999994
0
LINE
8
BLACK
6
CONTINUOUS
10
163.2665920000000028
20
-66.959149999999994
11
163.4675019999999961
21
-67.2072539999999918
0
LINE
8
BLACK
6
CONTINUOUS
10
163.4675019999999961
20
-67.2072539999999918
11
163.6413780000000031
21
-67.4749989999999968
0
LINE
8
BLACK
6
CONTINUOUS
10
163.6413780000000031
20
-67.4749989999999968
11
163.7863140000000044
21
-67.759451999999996
0
LINE
8
BLACK
6
CONTINUOUS
10
163.7863140000000044
20
-67.759451999999996
11
163.9007229999999993
21
-68.0574969999999979
0
LINE
8
BLACK
6
CONTINUOUS
10
163.9007229999999993
20
-68.0574969999999979
11
163.983350999999999
21
-68.3658679999999919
0
LINE
8
BLACK
6
CONTINUOUS
10
163.983350999999999
20
-68.3658679999999919
11
164.0332929999999863
21
-68.6811869999999942
0
LINE
8
BLACK
6
CONTINUOUS
10
164.0332929999999863
20
-68.6811869999999942
11
164.0500009999999804
21
-68.9999990000000025
0
LINE
8
BLACK
6
CONTINUOUS
10
164.0500009999999804
20
-68.9999990000000025
11
164.0499989999999855
21
-68.9999990000000025
0
LINE
8
BLACK
6
CONTINUOUS
10
164.0499989999999855
20
-68.9999990000000025
11
164.0499989999999855
21
-97.9999990000000025
0
LINE
8
BLACK
6
CONTINUOUS
10
164.0499989999999855
20
-97.9999990000000025
11
164.047551999999996
21
-98.0122999999999962
0
LINE
8
BLACK
6
CONTINUOUS
10
164.047551999999996
20
-98.0122999999999962
11
164.047551999999996
21
-98.0154500000000013
0
LINE
8
BLACK
6
CONTINUOUS
10
164.047551999999996
20
-98.0154500000000013
11
164.0466889999999864
21
-98.0166369999999887
0
LINE
8
BLACK
6
CONTINUOUS
10
164.0466889999999864
20
-98.0166369999999887
11
164.0461929999999882
21
-98.0191329999999965
0
LINE
8
BLACK
6
CONTINUOUS
10
164.0461929999999882
20
-98.0191329999999965
11
164.0413759999999854
21
-98.0239490000000018
0
LINE
8
BLACK
6
CONTINUOUS
10
164.0413759999999854
20
-98.0239490000000018
11
164.0293879999999831
21
-98.0404499999999928
0
LINE
8
BLACK
6
CONTINUOUS
10
164.0293879999999831
20
-98.0404499999999928
11
164.0227040000000045
21
-98.0426209999999969
0
LINE
8
BLACK
6
CONTINUOUS
10
164.0227040000000045
20
-98.0426209999999969
11
164.0191329999999823
21
-98.0461930000000024
0
LINE
8
BLACK
6
CONTINUOUS
10
164.0191329999999823
20
-98.0461930000000024
11
164.0117129999999861
21
-98.0461930000000024
0
LINE
8
BLACK
6
CONTINUOUS
10
164.0117129999999861
20
-98.0461930000000024
11
163.9999990000000025
21
-98.0499989999999997
0
LINE
8
BLACK
6
CONTINUOUS
10
163.9999990000000025
20
-98.0499989999999997
11
163.7662229999999965
21
-98.0499989999999997
0
LINE
8
BLACK
6
CONTINUOUS
10
163.7662229999999965
20
-98.0499989999999997
11
163.3001119999999844
21
-98.0866829999999936
0
LINE
8
BLACK
6
CONTINUOUS
10
163.3001119999999844
20
-98.0866829999999936
11
162.8383159999999918
21
-98.1598240000000004
0
LINE
8
BLACK
6
CONTINUOUS
10
162.8383159999999918
20
-98.1598240000000004
11
162.3836819999999932
21
-98.2689719999999909
0
LINE
8
BLACK
6
CONTINUOUS
10
162.3836819999999932
20
-98.2689719999999909
11
161.939013999999986
21
-98.4134540000000015
0
LINE
8
BLACK
6
CONTINUOUS
10
161.939013999999986
20
-98.4134540000000015
11
161.5070519999999874
21
-98.5923779999999965
0
LINE
8
BLACK
6
CONTINUOUS
10
161.5070519999999874
20
-98.5923779999999965
11
161.0904599999999789
21
-98.8046420000000012
0
LINE
8
BLACK
6
CONTINUOUS
10
161.0904599999999789
20
-98.8046420000000012
11
160.6918059999999855
21
-99.0489379999999926
0
LINE
8
BLACK
6
CONTINUOUS
10
160.6918059999999855
20
-99.0489379999999926
11
160.3135479999999973
21
-99.323757999999998
0
LINE
8
BLACK
6
CONTINUOUS
10
160.3135479999999973
20
-99.323757999999998
11
159.9580179999999814
21
-99.6274090000000001
0
LINE
8
BLACK
6
CONTINUOUS
10
159.9580179999999814
20
-99.6274090000000001
11
159.6274090000000001
21
-99.9580179999999956
0
LINE
8
BLACK
6
CONTINUOUS
10
159.6274090000000001
20
-99.9580179999999956
11
159.323757999999998
21
-100.3135479999999973
0
LINE
8
BLACK
6
CONTINUOUS
10
159.323757999999998
20
-100.3135479999999973
11
159.0489379999999926
21
-100.6918059999999997
0
LINE
8
BLACK
6
CONTINUOUS
10
159.0489379999999926
20
-100.6918059999999997
11
158.8046420000000012
21
-101.0904599999999931
0
LINE
8
BLACK
6
CONTINUOUS
10
158.8046420000000012
20
-101.0904599999999931
11
158.5923779999999965
21
-101.5070520000000016
0
LINE
8
BLACK
6
CONTINUOUS
10
158.5923779999999965
20
-101.5070520000000016
11
158.4134540000000015
21
-101.9390140000000002
0
LINE
8
BLACK
6
CONTINUOUS
10
158.4134540000000015
20
-101.9390140000000002
11
158.2689719999999909
21
-102.3836819999999932
0
LINE
8
BLACK
6
CONTINUOUS
10
158.2689719999999909
20
-102.3836819999999932
11
158.1598239999999862
21
-102.8383159999999918
0
LINE
8
BLACK
6
CONTINUOUS
10
158.1598239999999862
20
-102.8383159999999918
11
158.0866829999999936
21
-103.3001119999999986
0
LINE
8
BLACK
6
CONTINUOUS
10
158.0866829999999936
20
-103.3001119999999986
11
158.0499989999999855
21
-103.7662229999999965
0
LINE
8
BLACK
6
CONTINUOUS
10
158.0499989999999855
20
-103.7662229999999965
11
158.0499989999999855
21
-103.9999989999999883
0
LINE
8
BLACK
6
CONTINUOUS
10
158.0499989999999855
20
-103.9999989999999883
11
158.0461929999999882
21
-104.0117119999999886
0
LINE
8
BLACK
6
CONTINUOUS
10
158.0461929999999882
20
-104.0117119999999886
11
158.0461929999999882
21
-104.0191329999999965
0
LINE
8
BLACK
6
CONTINUOUS
10
158.0461929999999882
20
-104.0191329999999965
11
158.0426209999999969
21
-104.0227039999999903
0
LINE
8
BLACK
6
CONTINUOUS
10
158.0426209999999969
20
-104.0227039999999903
11
158.0404499999999928
21
-104.0293879999999973
0
LINE
8
BLACK
6
CONTINUOUS
10
158.0404499999999928
20
-104.0293879999999973
11
158.0239489999999876
21
-104.0413759999999996
0
LINE
8
BLACK
6
CONTINUOUS
10
158.0239489999999876
20
-104.0413759999999996
11
158.0191329999999823
21
-104.0461930000000024
0
LINE
8
BLACK
6
CONTINUOUS
10
158.0191329999999823
20
-104.0461930000000024
11
158.0166370000000029
21
-104.0466890000000006
0
LINE
8
BLACK
6
CONTINUOUS
10
158.0166370000000029
20
-104.0466890000000006
11
158.0154499999999871
21
-104.047551999999996
0
LINE
8
BLACK
6
CONTINUOUS
10
158.0154499999999871
20
-104.047551999999996
11
158.0123009999999795
21
-104.047551999999996
0
LINE
8
BLACK
6
CONTINUOUS
10
158.0123009999999795
20
-104.047551999999996
11
157.9999990000000025
21
-104.0499989999999997
0
LINE
8
BLACK
6
CONTINUOUS
10
157.9999990000000025
20
-104.0499989999999997
11
155.0499989999999855
21
-104.0499989999999997
0
LINE
8
BLACK
6
CONTINUOUS
10
155.0499989999999855
20
-104.0499989999999997
11
155.0499989999999855
21
-109.9499979999999937
0
LINE
8
BLACK
6
CONTINUOUS
10
155.0499989999999855
20
-109.9499979999999937
11
163.9999990000000025
21
-109.9499979999999937
0
LINE
8
BLACK
6
CONTINUOUS
10
163.9999990000000025
20
-109.9499979999999937
11
164.0000039999999899
21
-109.9499989999999912
0
LINE
8
BLACK
6
CONTINUOUS
10
164.0000039999999899
20
-109.9499989999999912
11
164.2337749999999801
21
-109.9499989999999912
0
LINE
8
BLACK
6
CONTINUOUS
10
164.2337749999999801
20
-109.9499989999999912
11
164.6998859999999922
21
-109.9133159999999947
0
LINE
8
BLACK
6
CONTINUOUS
10
164.6998859999999922
20
-109.9133159999999947
11
165.1616819999999848
21
-109.8401739999999904
0
LINE
8
BLACK
6
CONTINUOUS
10
165.1616819999999848
20
-109.8401739999999904
11
165.6163159999999834
21
-109.731026
0
LINE
8
BLACK
6
CONTINUOUS
10
165.6163159999999834
20
-109.731026
11
166.0609849999999881
21
-109.586545000000001
0
LINE
8
BLACK
6
CONTINUOUS
10
166.0609849999999881
20
-109.586545000000001
11
166.4929469999999867
21
-109.4076199999999943
0
LINE
8
BLACK
6
CONTINUOUS
10
166.4929469999999867
20
-109.4076199999999943
11
166.9095389999999952
21
-109.1953559999999896
0
LINE
8
BLACK
6
CONTINUOUS
10
166.9095389999999952
20
-109.1953559999999896
11
167.3081929999999886
21
-108.9510609999999957
0
LINE
8
BLACK
6
CONTINUOUS
10
167.3081929999999886
20
-108.9510609999999957
11
167.6864510000000053
21
-108.6762399999999928
0
LINE
8
BLACK
6
CONTINUOUS
10
167.6864510000000053
20
-108.6762399999999928
11
168.0419799999999952
21
-108.3725889999999907
0
LINE
8
BLACK
6
CONTINUOUS
10
168.0419799999999952
20
-108.3725889999999907
11
168.3725900000000024
21
-108.0419799999999952
0
LINE
8
BLACK
6
CONTINUOUS
10
168.3725900000000024
20
-108.0419799999999952
11
168.6762410000000045
21
-107.6864499999999936
0
LINE
8
BLACK
6
CONTINUOUS
10
168.6762410000000045
20
-107.6864499999999936
11
168.9510609999999815
21
-107.3081919999999911
0
LINE
8
BLACK
6
CONTINUOUS
10
168.9510609999999815
20
-107.3081919999999911
11
169.1953560000000039
21
-106.9095379999999977
0
LINE
8
BLACK
6
CONTINUOUS
10
169.1953560000000039
20
-106.9095379999999977
11
169.407621000000006
21
-106.4929459999999892
0
LINE
8
BLACK
6
CONTINUOUS
10
169.407621000000006
20
-106.4929459999999892
11
169.586545000000001
21
-106.0609839999999906
0
LINE
8
BLACK
6
CONTINUOUS
10
169.586545000000001
20
-106.0609839999999906
11
169.7310269999999832
21
-105.6163150000000002
0
LINE
8
BLACK
6
CONTINUOUS
10
169.7310269999999832
20
-105.6163150000000002
11
169.8401749999999879
21
-105.1616810000000015
0
LINE
8
BLACK
6
CONTINUOUS
10
169.8401749999999879
20
-105.1616810000000015
11
169.9133159999999805
21
-104.6998849999999948
0
LINE
8
BLACK
6
CONTINUOUS
10
169.9133159999999805
20
-104.6998849999999948
11
169.9499989999999912
21
-104.2337739999999968
0
LINE
8
BLACK
6
CONTINUOUS
10
169.9499989999999912
20
-104.2337739999999968
11
169.9499989999999912
21
-103.9999979999999908
0
LINE
8
BLACK
6
CONTINUOUS
10
169.9499989999999912
20
-103.9999979999999908
11
169.9499999999999886
21
-103.9999940000000009
0
LINE
8
BLACK
6
CONTINUOUS
10
169.9499999999999886
20
-103.9999940000000009
11
169.9499999999999886
21
-36.
0
LINE
8
BLACK
6
CONTINUOUS
10
169.9499999999999886
20
-36.
11
169.9499989999999912
21
-35.9999979999999979
0
LINE
8
BLACK
6
CONTINUOUS
10
169.9499989999999912
20
-35.9999979999999979
11
169.9499999999999886
21
-35.9999979999999979
0
LINE
8
BLACK
6
CONTINUOUS
10
169.9499999999999886
20
-35.9999979999999979
11
169.9500019999999836
21
-35.9999869999999973
0
LINE
8
BLACK
6
CONTINUOUS
10
169.9500019999999836
20
-35.9999869999999973
11
169.9500019999999836
21
-35.7662219999999991
0
LINE
8
BLACK
6
CONTINUOUS
10
169.9500019999999836
20
-35.7662219999999991
11
169.9133180000000038
21
-35.3001110000000011
0
LINE
8
BLACK
6
CONTINUOUS
10
169.9133180000000038
20
-35.3001110000000011
11
169.8401769999999829
21
-34.8383150000000015
0
LINE
8
BLACK
6
CONTINUOUS
10
169.8401769999999829
20
-34.8383150000000015
11
169.7310289999999782
21
-34.3836809999999957
0
LINE
8
BLACK
6
CONTINUOUS
10
169.7310289999999782
20
-34.3836809999999957
11
169.5865469999999959
21
-33.9390119999999982
0
LINE
8
BLACK
6
CONTINUOUS
10
169.5865469999999959
20
-33.9390119999999982
11
169.4076220000000035
21
-33.5070499999999996
0
LINE
8
BLACK
6
CONTINUOUS
10
169.4076220000000035
20
-33.5070499999999996
11
169.1953579999999988
21
-33.0904579999999982
0
LINE
8
BLACK
6
CONTINUOUS
10
169.1953579999999988
20
-33.0904579999999982
11
168.951061999999979
21
-32.6918039999999976
0
LINE
8
BLACK
6
CONTINUOUS
10
168.951061999999979
20
-32.6918039999999976
11
168.676242000000002
21
-32.3135459999999952
0
LINE
8
BLACK
6
CONTINUOUS
10
168.676242000000002
20
-32.3135459999999952
11
168.3725909999999999
21
-31.9580169999999981
0
LINE
8
BLACK
6
CONTINUOUS
10
168.3725909999999999
20
-31.9580169999999981
11
168.0419809999999927
21
-31.627406999999998
0
LINE
8
BLACK
6
CONTINUOUS
10
168.0419809999999927
20
-31.627406999999998
11
167.6864510000000053
21
-31.3237559999999995
0
LINE
8
BLACK
6
CONTINUOUS
10
167.6864510000000053
20
-31.3237559999999995
11
167.3081929999999886
21
-31.0489359999999976
0
LINE
8
BLACK
6
CONTINUOUS
10
167.3081929999999886
20
-31.0489359999999976
11
166.9095389999999952
21
-30.8046410000000002
0
LINE
8
BLACK
6
CONTINUOUS
10
166.9095389999999952
20
-30.8046410000000002
11
166.4929469999999867
21
-30.592375999999998
0
LINE
8
BLACK
6
CONTINUOUS
10
166.4929469999999867
20
-30.592375999999998
11
166.0609849999999881
21
-30.4134519999999995
0
LINE
8
BLACK
6
CONTINUOUS
10
166.0609849999999881
20
-30.4134519999999995
11
165.6163159999999834
21
-30.2689699999999995
0
LINE
8
BLACK
6
CONTINUOUS
10
165.6163159999999834
20
-30.2689699999999995
11
165.1616819999999848
21
-30.1598229999999994
0
LINE
8
BLACK
6
CONTINUOUS
10
165.1616819999999848
20
-30.1598229999999994
11
164.6998859999999922
21
-30.0866809999999987
0
LINE
8
BLACK
6
CONTINUOUS
10
164.6998859999999922
20
-30.0866809999999987
11
164.2337749999999801
21
-30.0499979999999987
0
LINE
8
BLACK
6
CONTINUOUS
10
164.2337749999999801
20
-30.0499979999999987
11
163.9999990000000025
21
-30.0499979999999987
0
LINE
8
BLACK
6
CONTINUOUS
10
163.9999990000000025
20
-30.0499979999999987
11
148.7999999999999829
21
-30.0499989999999997
0
LINE
8
BLACK
6
CONTINUOUS
10
141.2999999999999829
20
-35.9999989999999954
11
141.2961939999999856
21
-36.0191329999999965
0
LINE
8
BLACK
6
CONTINUOUS
10
141.2961939999999856
20
-36.0191329999999965
11
141.2691339999999798
21
-36.0461929999999953
0
LINE
8
BLACK
6
CONTINUOUS
10
141.2691339999999798
20
-36.0461929999999953
11
141.25
21
-36.0499989999999997
0
LINE
8
BLACK
6
CONTINUOUS
10
141.25
20
-36.0499989999999997
11
135.0480340000000012
21
-36.0499989999999997
0
LINE
8
BLACK
6
CONTINUOUS
10
135.0480340000000012
20
-36.0499989999999997
11
135.0313490000000058
21
-36.4746769999999998
0
LINE
8
BLACK
6
CONTINUOUS
10
135.0313490000000058
20
-36.4746769999999998
11
134.975514000000004
21
-36.9464279999999974
0
LINE
8
BLACK
6
CONTINUOUS
10
134.975514000000004
20
-36.9464279999999974
11
134.882836999999995
21
-37.4123439999999974
0
LINE
8
BLACK
6
CONTINUOUS
10
134.882836999999995
20
-37.4123439999999974
11
134.7538909999999817
21
-37.8695519999999988
0
LINE
8
BLACK
6
CONTINUOUS
10
134.7538909999999817
20
-37.8695519999999988
11
134.5894700000000057
21
-38.3152339999999967
0
LINE
8
BLACK
6
CONTINUOUS
10
134.5894700000000057
20
-38.3152339999999967
11
134.3905890000000056
21
-38.7466420000000014
0
LINE
8
BLACK
6
CONTINUOUS
10
134.3905890000000056
20
-38.7466420000000014
11
134.1584719999999891
21
-39.1611159999999998
0
LINE
8
BLACK
6
CONTINUOUS
10
134.1584719999999891
20
-39.1611159999999998
11
133.8945520000000045
21
-39.5561000000000007
0
LINE
8
BLACK
6
CONTINUOUS
10
133.8945520000000045
20
-39.5561000000000007
11
133.6004549999999824
21
-39.929159999999996
0
LINE
8
BLACK
6
CONTINUOUS
10
133.6004549999999824
20
-39.929159999999996
11
133.2779950000000042
21
-40.2779949999999971
0
LINE
8
BLACK
6
CONTINUOUS
10
133.2779950000000042
20
-40.2779949999999971
11
132.929159999999996
21
-40.6004549999999966
0
LINE
8
BLACK
6
CONTINUOUS
10
132.929159999999996
20
-40.6004549999999966
11
132.5560999999999865
21
-40.8945519999999973
0
LINE
8
BLACK
6
CONTINUOUS
10
132.5560999999999865
20
-40.8945519999999973
11
132.1611159999999927
21
-41.1584719999999962
0
LINE
8
BLACK
6
CONTINUOUS
10
132.1611159999999927
20
-41.1584719999999962
11
131.74664199999998
21
-41.3905889999999985
0
LINE
8
BLACK
6
CONTINUOUS
10
131.74664199999998
20
-41.3905889999999985
11
131.3152340000000038
21
-41.5894699999999986
0
LINE
8
BLACK
6
CONTINUOUS
10
131.3152340000000038
20
-41.5894699999999986
11
130.8695519999999988
21
-41.7538909999999959
0
LINE
8
BLACK
6
CONTINUOUS
10
130.8695519999999988
20
-41.7538909999999959
11
130.4123439999999903
21
-41.882836999999995
0
LINE
8
BLACK
6
CONTINUOUS
10
130.4123439999999903
20
-41.882836999999995
11
129.9464279999999974
21
-41.9755139999999969
0
LINE
8
BLACK
6
CONTINUOUS
10
129.9464279999999974
20
-41.9755139999999969
11
129.4746769999999856
21
-42.0313489999999987
0
LINE
8
BLACK
6
CONTINUOUS
10
129.4746769999999856
20
-42.0313489999999987
11
128.9999990000000025
21
-42.0499989999999997
0
LINE
8
BLACK
6
CONTINUOUS
10
128.9999990000000025
20
-42.0499989999999997
11
128.8343309999999917
21
-42.0499989999999997
0
LINE
8
BLACK
6
CONTINUOUS
10
128.8343309999999917
20
-42.0499989999999997
11
128.505077
21
-42.087097
0
LINE
8
BLACK
6
CONTINUOUS
10
128.505077
20
-42.087097
11
128.1820479999999804
21
-42.1608269999999976
0
LINE
8
BLACK
6
CONTINUOUS
10
128.1820479999999804
20
-42.1608269999999976
11
127.8693039999999996
21
-42.2702600000000004
0
LINE
8
BLACK
6
CONTINUOUS
10
127.8693039999999996
20
-42.2702600000000004
11
127.5707799999999992
21
-42.4140219999999957
0
LINE
8
BLACK
6
CONTINUOUS
10
127.5707799999999992
20
-42.4140219999999957
11
127.2902289999999965
21
-42.5903039999999962
0
LINE
8
BLACK
6
CONTINUOUS
10
127.2902289999999965
20
-42.5903039999999962
11
127.031179999999992
21
-42.7968890000000002
0
LINE
8
BLACK
6
CONTINUOUS
10
127.031179999999992
20
-42.7968890000000002
11
126.7968889999999931
21
-43.0311799999999991
0
LINE
8
BLACK
6
CONTINUOUS
10
126.7968889999999931
20
-43.0311799999999991
11
126.5903039999999891
21
-43.2902289999999965
0
LINE
8
BLACK
6
CONTINUOUS
10
126.5903039999999891
20
-43.2902289999999965
11
126.4140219999999886
21
-43.5707799999999992
0
LINE
8
BLACK
6
CONTINUOUS
10
126.4140219999999886
20
-43.5707799999999992
11
126.2702599999999933
21
-43.8693039999999996
0
LINE
8
BLACK
6
CONTINUOUS
10
126.2702599999999933
20
-43.8693039999999996
11
126.1608269999999976
21
-44.1820479999999947
0
LINE
8
BLACK
6
CONTINUOUS
10
126.1608269999999976
20
-44.1820479999999947
11
126.087097
21
-44.505077
0
LINE
8
BLACK
6
CONTINUOUS
10
126.087097
20
-44.505077
11
126.0499989999999997
21
-44.8343309999999988
0
LINE
8
BLACK
6
CONTINUOUS
10
126.0499989999999997
20
-44.8343309999999988
11
126.0499989999999997
21
-44.9999989999999954
0
LINE
8
BLACK
6
CONTINUOUS
10
126.0499989999999997
20
-44.9999989999999954
11
126.0499989999999997
21
-50.9999989999999954
0
LINE
8
BLACK
6
CONTINUOUS
10
126.0499989999999997
20
-50.9999989999999954
11
126.0500009999999946
21
-50.9999989999999954
0
LINE
8
BLACK
6
CONTINUOUS
10
126.0500009999999946
20
-50.9999989999999954
11
126.0500009999999946
21
-51.1656669999999991
0
LINE
8
BLACK
6
CONTINUOUS
10
126.0500009999999946
20
-51.1656669999999991
11
126.0870989999999949
21
-51.4949209999999979
0
LINE
8
BLACK
6
CONTINUOUS
10
126.0870989999999949
20
-51.4949209999999979
11
126.1608279999999951
21
-51.8179499999999962
0
LINE
8
BLACK
6
CONTINUOUS
10
126.1608279999999951
20
-51.8179499999999962
11
126.2702619999999882
21
-52.1306939999999983
0
LINE
8
BLACK
6
CONTINUOUS
10
126.2702619999999882
20
-52.1306939999999983
11
126.4140230000000003
21
-52.4292179999999988
0
LINE
8
BLACK
6
CONTINUOUS
10
126.4140230000000003
20
-52.4292179999999988
11
126.5903050000000007
21
-52.7097689999999943
0
LINE
8
BLACK
6
CONTINUOUS
10
126.5903050000000007
20
-52.7097689999999943
11
126.7968899999999906
21
-52.9688179999999988
0
LINE
8
BLACK
6
CONTINUOUS
10
126.7968899999999906
20
-52.9688179999999988
11
127.031179999999992
21
-53.2031089999999978
0
LINE
8
BLACK
6
CONTINUOUS
10
127.031179999999992
20
-53.2031089999999978
11
127.290229999999994
21
-53.4096939999999947
0
LINE
8
BLACK
6
CONTINUOUS
10
127.290229999999994
20
-53.4096939999999947
11
127.5707809999999967
21
-53.5859759999999952
0
LINE
8
BLACK
6
CONTINUOUS
10
127.5707809999999967
20
-53.5859759999999952
11
127.8693049999999971
21
-53.7297379999999976
0
LINE
8
BLACK
6
CONTINUOUS
10
127.8693049999999971
20
-53.7297379999999976
11
128.1820479999999804
21
-53.8391710000000003
0
LINE
8
BLACK
6
CONTINUOUS
10
128.1820479999999804
20
-53.8391710000000003
11
128.505077
21
-53.912900999999998
0
LINE
8
BLACK
6
CONTINUOUS
10
128.505077
20
-53.912900999999998
11
128.8343309999999917
21
-53.9499989999999983
0
LINE
8
BLACK
6
CONTINUOUS
10
128.8343309999999917
20
-53.9499989999999983
11
128.9999990000000025
21
-53.9499989999999983
0
LINE
8
BLACK
6
CONTINUOUS
10
128.9999990000000025
20
-53.9499989999999983
11
129.4746769999999856
21
-53.9686489999999992
0
LINE
8
BLACK
6
CONTINUOUS
10
129.4746769999999856
20
-53.9686489999999992
11
129.9464279999999974
21
-54.0244840000000011
0
LINE
8
BLACK
6
CONTINUOUS
10
129.9464279999999974
20
-54.0244840000000011
11
130.4123439999999903
21
-54.1171609999999959
0
LINE
8
BLACK
6
CONTINUOUS
10
130.4123439999999903
20
-54.1171609999999959
11
130.8695519999999988
21
-54.246106999999995
0
LINE
8
BLACK
6
CONTINUOUS
10
130.8695519999999988
20
-54.246106999999995
11
131.3152340000000038
21
-54.4105279999999993
0
LINE
8
BLACK
6
CONTINUOUS
10
131.3152340000000038
20
-54.4105279999999993
11
131.74664199999998
21
-54.6094089999999994
0
LINE
8
BLACK
6
CONTINUOUS
10
131.74664199999998
20
-54.6094089999999994
11
132.1611159999999927
21
-54.8415259999999947
0
LINE
8
BLACK
6
CONTINUOUS
10
132.1611159999999927
20
-54.8415259999999947
11
132.556100999999984
21
-55.1054460000000006
0
LINE
8
BLACK
6
CONTINUOUS
10
132.556100999999984
20
-55.1054460000000006
11
132.9291609999999935
21
-55.3995429999999942
0
LINE
8
BLACK
6
CONTINUOUS
10
132.9291609999999935
20
-55.3995429999999942
11
133.2779960000000017
21
-55.7220030000000008
0
LINE
8
BLACK
6
CONTINUOUS
10
133.2779960000000017
20
-55.7220030000000008
11
133.6004570000000058
21
-56.0708379999999948
0
LINE
8
BLACK
6
CONTINUOUS
10
133.6004570000000058
20
-56.0708379999999948
11
133.8945530000000019
21
-56.4438979999999972
0
LINE
8
BLACK
6
CONTINUOUS
10
133.8945530000000019
20
-56.4438979999999972
11
134.158473999999984
21
-56.8388829999999956
0
LINE
8
BLACK
6
CONTINUOUS
10
134.158473999999984
20
-56.8388829999999956
11
134.3905900000000031
21
-57.2533569999999941
0
LINE
8
BLACK
6
CONTINUOUS
10
134.3905900000000031
20
-57.2533569999999941
11
134.5894720000000007
21
-57.6847649999999987
0
LINE
8
BLACK
6
CONTINUOUS
10
134.5894720000000007
20
-57.6847649999999987
11
134.753893000000005
21
-58.1304469999999966
0
LINE
8
BLACK
6
CONTINUOUS
10
134.753893000000005
20
-58.1304469999999966
11
134.8828389999999899
21
-58.587654999999998
0
LINE
8
BLACK
6
CONTINUOUS
10
134.8828389999999899
20
-58.587654999999998
11
134.9755150000000015
21
-59.053570999999998
0
LINE
8
BLACK
6
CONTINUOUS
10
134.9755150000000015
20
-59.053570999999998
11
135.0313510000000008
21
-59.5253219999999956
0
LINE
8
BLACK
6
CONTINUOUS
10
135.0313510000000008
20
-59.5253219999999956
11
135.0500009999999804
21
-60.
0
LINE
8
BLACK
6
CONTINUOUS
10
135.0500009999999804
20
-60.
11
135.0313510000000008
21
-60.4746779999999973
0
LINE
8
BLACK
6
CONTINUOUS
10
135.0313510000000008
20
-60.4746779999999973
11
134.9755150000000015
21
-60.9464289999999949
0
LINE
8
BLACK
6
CONTINUOUS
10
134.9755150000000015
20
-60.9464289999999949
11
134.8828389999999899
21
-61.4123449999999949
0
LINE
8
BLACK
6
CONTINUOUS
10
134.8828389999999899
20
-61.4123449999999949
11
134.753893000000005
21
-61.8695529999999962
0
LINE
8
BLACK
6
CONTINUOUS
10
134.753893000000005
20
-61.8695529999999962
11
134.5894720000000007
21
-62.3152349999999942
0
LINE
8
BLACK
6
CONTINUOUS
10
134.5894720000000007
20
-62.3152349999999942
11
134.3905900000000031
21
-62.7466429999999988
0
LINE
8
BLACK
6
CONTINUOUS
10
134.3905900000000031
20
-62.7466429999999988
11
134.158473999999984
21
-63.1611169999999973
0
LINE
8
BLACK
6
CONTINUOUS
10
134.158473999999984
20
-63.1611169999999973
11
133.8945530000000019
21
-63.5561019999999957
0
LINE
8
BLACK
6
CONTINUOUS
10
133.8945530000000019
20
-63.5561019999999957
11
133.6004570000000058
21
-63.929161999999998
0
LINE
8
BLACK
6
CONTINUOUS
10
133.6004570000000058
20
-63.929161999999998
11
133.2779960000000017
21
-64.2779969999999992
0
LINE
8
BLACK
6
CONTINUOUS
10
133.2779960000000017
20
-64.2779969999999992
11
132.9291609999999935
21
-64.6004569999999916
0
LINE
8
BLACK
6
CONTINUOUS
10
132.9291609999999935
20
-64.6004569999999916
11
132.556100999999984
21
-64.8945539999999994
0
LINE
8
BLACK
6
CONTINUOUS
10
132.556100999999984
20
-64.8945539999999994
11
132.1611159999999927
21
-65.1584739999999982
0
LINE
8
BLACK
6
CONTINUOUS
10
132.1611159999999927
20
-65.1584739999999982
11
131.74664199999998
21
-65.3905910000000006
0
LINE
8
BLACK
6
CONTINUOUS
10
131.74664199999998
20
-65.3905910000000006
11
131.3152340000000038
21
-65.5894720000000007
0
LINE
8
BLACK
6
CONTINUOUS
10
131.3152340000000038
20
-65.5894720000000007
11
130.8695519999999988
21
-65.7538929999999908
0
LINE
8
BLACK
6
CONTINUOUS
10
130.8695519999999988
20
-65.7538929999999908
11
130.4123439999999903
21
-65.8828389999999899
0
LINE
8
BLACK
6
CONTINUOUS
10
130.4123439999999903
20
-65.8828389999999899
11
129.9464279999999974
21
-65.9755159999999989
0
LINE
8
BLACK
6
CONTINUOUS
10
129.9464279999999974
20
-65.9755159999999989
11
129.4746769999999856
21
-66.0313510000000008
0
LINE
8
BLACK
6
CONTINUOUS
10
129.4746769999999856
20
-66.0313510000000008
11
128.9999990000000025
21
-66.0500009999999946
0
LINE
8
BLACK
6
CONTINUOUS
10
128.9999990000000025
20
-66.0500009999999946
11
128.9999990000000025
21
-66.0499989999999997
0
LINE
8
BLACK
6
CONTINUOUS
10
128.9999990000000025
20
-66.0499989999999997
11
128.8343309999999917
21
-66.0499989999999997
0
LINE
8
BLACK
6
CONTINUOUS
10
128.8343309999999917
20
-66.0499989999999997
11
128.505077
21
-66.087097
0
LINE
8
BLACK
6
CONTINUOUS
10
128.505077
20
-66.087097
11
128.1820479999999804
21
-66.1608269999999976
0
LINE
8
BLACK
6
CONTINUOUS
10
128.1820479999999804
20
-66.1608269999999976
11
127.8693039999999996
21
-66.2702599999999933
0
LINE
8
BLACK
6
CONTINUOUS
10
127.8693039999999996
20
-66.2702599999999933
11
127.5707799999999992
21
-66.4140220000000028
0
LINE
8
BLACK
6
CONTINUOUS
10
127.5707799999999992
20
-66.4140220000000028
11
127.2902289999999965
21
-66.5903040000000033
0
LINE
8
BLACK
6
CONTINUOUS
10
127.2902289999999965
20
-66.5903040000000033
11
127.031179999999992
21
-66.7968889999999931
0
LINE
8
BLACK
6
CONTINUOUS
10
127.031179999999992
20
-66.7968889999999931
11
126.7968889999999931
21
-67.031179999999992
0
LINE
8
BLACK
6
CONTINUOUS
10
126.7968889999999931
20
-67.031179999999992
11
126.5903039999999891
21
-67.2902289999999965
0
LINE
8
BLACK
6
CONTINUOUS
10
126.5903039999999891
20
-67.2902289999999965
11
126.4140219999999886
21
-67.5707799999999992
0
LINE
8
BLACK
6
CONTINUOUS
10
126.4140219999999886
20
-67.5707799999999992
11
126.2702599999999933
21
-67.8693039999999996
0
LINE
8
BLACK
6
CONTINUOUS
10
126.2702599999999933
20
-67.8693039999999996
11
126.1608269999999976
21
-68.1820479999999947
0
LINE
8
BLACK
6
CONTINUOUS
10
126.1608269999999976
20
-68.1820479999999947
11
126.087097
21
-68.505077
0
LINE
8
BLACK
6
CONTINUOUS
10
126.087097
20
-68.505077
11
126.0499989999999997
21
-68.8343309999999917
0
LINE
8
BLACK
6
CONTINUOUS
10
126.0499989999999997
20
-68.8343309999999917
11
126.0499989999999997
21
-68.9999990000000025
0
LINE
8
BLACK
6
CONTINUOUS
10
126.0499989999999997
20
-68.9999990000000025
11
126.0499989999999997
21
-97.9519629999999921
0
LINE
8
BLACK
6
CONTINUOUS
10
126.0499989999999997
20
-97.9519629999999921
11
126.4746769999999998
21
-97.9686489999999992
0
LINE
8
BLACK
6
CONTINUOUS
10
126.4746769999999998
20
-97.9686489999999992
11
126.9464279999999974
21
-98.0244840000000011
0
LINE
8
BLACK
6
CONTINUOUS
10
126.9464279999999974
20
-98.0244840000000011
11
127.4123439999999903
21
-98.1171609999999959
0
LINE
8
BLACK
6
CONTINUOUS
10
127.4123439999999903
20
-98.1171609999999959
11
127.8695519999999988
21
-98.246106999999995
0
LINE
8
BLACK
6
CONTINUOUS
10
127.8695519999999988
20
-98.246106999999995
11
128.3152340000000038
21
-98.4105279999999993
0
LINE
8
BLACK
6
CONTINUOUS
10
128.3152340000000038
20
-98.4105279999999993
11
128.74664199999998
21
-98.6094089999999994
0
LINE
8
BLACK
6
CONTINUOUS
10
128.74664199999998
20
-98.6094089999999994
11
129.1611159999999927
21
-98.8415260000000018
0
LINE
8
BLACK
6
CONTINUOUS
10
129.1611159999999927
20
-98.8415260000000018
11
129.556100999999984
21
-99.1054460000000006
0
LINE
8
BLACK
6
CONTINUOUS
10
129.556100999999984
20
-99.1054460000000006
11
129.9291609999999935
21
-99.3995419999999967
0
LINE
8
BLACK
6
CONTINUOUS
10
129.9291609999999935
20
-99.3995419999999967
11
130.2779960000000017
21
-99.7220030000000008
0
LINE
8
BLACK
6
CONTINUOUS
10
130.2779960000000017
20
-99.7220030000000008
11
130.6004559999999799
21
-100.0708379999999948
0
LINE
8
BLACK
6
CONTINUOUS
10
130.6004559999999799
20
-100.0708379999999948
11
130.8945530000000019
21
-100.4438979999999901
0
LINE
8
BLACK
6
CONTINUOUS
10
130.8945530000000019
20
-100.4438979999999901
11
131.1584729999999865
21
-100.8388819999999981
0
LINE
8
BLACK
6
CONTINUOUS
10
131.1584729999999865
20
-100.8388819999999981
11
131.3905900000000031
21
-101.2533559999999966
0
LINE
8
BLACK
6
CONTINUOUS
10
131.3905900000000031
20
-101.2533559999999966
11
131.5894720000000007
21
-101.6847640000000013
0
LINE
8
BLACK
6
CONTINUOUS
10
131.5894720000000007
20
-101.6847640000000013
11
131.753893000000005
21
-102.1304459999999921
0
LINE
8
BLACK
6
CONTINUOUS
10
131.753893000000005
20
-102.1304459999999921
11
131.8828389999999899
21
-102.5876540000000006
0
LINE
8
BLACK
6
CONTINUOUS
10
131.8828389999999899
20
-102.5876540000000006
11
131.9755150000000015
21
-103.0535699999999935
0
LINE
8
BLACK
6
CONTINUOUS
10
131.9755150000000015
20
-103.0535699999999935
11
132.0313510000000008
21
-103.525320999999991
0
LINE
8
BLACK
6
CONTINUOUS
10
132.0313510000000008
20
-103.525320999999991
11
132.0480369999999937
21
-103.9499989999999912
0
LINE
8
BLACK
6
CONTINUOUS
10
132.0480369999999937
20
-103.9499989999999912
11
134.9999990000000025
21
-103.9499989999999912
0
LINE
8
BLACK
6
CONTINUOUS
10
134.9999990000000025
20
-103.9499989999999912
11
135.0191329999999823
21
-103.9538049999999885
0
LINE
8
BLACK
6
CONTINUOUS
10
135.0191329999999823
20
-103.9538049999999885
11
135.0461929999999882
21
-103.9808649999999943
0
LINE
8
BLACK
6
CONTINUOUS
10
135.0461929999999882
20
-103.9808649999999943
11
135.0499989999999855
21
-103.9999989999999883
0
LINE
8
BLACK
6
CONTINUOUS
10
135.0499989999999855
20
-103.9999989999999883
11
135.0499989999999855
21
-109.9499979999999937
0
LINE
8
BLACK
6
CONTINUOUS
10
135.0499989999999855
20
-109.9499979999999937
11
154.9499989999999912
21
-109.9499979999999937
0
LINE
8
BLACK
6
CONTINUOUS
10
154.9499989999999912
20
-109.9499979999999937
11
154.9499989999999912
21
-103.9999989999999883
0
LINE
8
BLACK
6
CONTINUOUS
10
154.9499989999999912
20
-103.9999989999999883
11
154.9538049999999885
21
-103.9808649999999943
0
LINE
8
BLACK
6
CONTINUOUS
10
154.9538049999999885
20
-103.9808649999999943
11
154.9808649999999943
21
-103.9538049999999885
0
LINE
8
BLACK
6
CONTINUOUS
10
154.9808649999999943
20
-103.9538049999999885
11
154.9999990000000025
21
-103.9499989999999912
0
LINE
8
BLACK
6
CONTINUOUS
10
154.9999990000000025
20
-103.9499989999999912
11
157.9519630000000063
21
-103.9499989999999912
0
LINE
8
BLACK
6
CONTINUOUS
10
157.9519630000000063
20
-103.9499989999999912
11
157.9686489999999992
21
-103.525320999999991
0
LINE
8
BLACK
6
CONTINUOUS
10
157.9686489999999992
20
-103.525320999999991
11
158.0244849999999985
21
-103.0535709999999909
0
LINE
8
BLACK
6
CONTINUOUS
10
158.0244849999999985
20
-103.0535709999999909
11
158.1171609999999816
21
-102.587654999999998
0
LINE
8
BLACK
6
CONTINUOUS
10
158.1171609999999816
20
-102.587654999999998
11
158.246106999999995
21
-102.1304459999999921
0
LINE
8
BLACK
6
CONTINUOUS
10
158.246106999999995
20
-102.1304459999999921
11
158.4105279999999993
21
-101.6847640000000013
0
LINE
8
BLACK
6
CONTINUOUS
10
158.4105279999999993
20
-101.6847640000000013
11
158.6094099999999969
21
-101.2533569999999941
0
LINE
8
BLACK
6
CONTINUOUS
10
158.6094099999999969
20
-101.2533569999999941
11
158.8415259999999876
21
-100.8388829999999956
0
LINE
8
BLACK
6
CONTINUOUS
10
158.8415259999999876
20
-100.8388829999999956
11
159.1054460000000006
21
-100.4438979999999901
0
LINE
8
BLACK
6
CONTINUOUS
10
159.1054460000000006
20
-100.4438979999999901
11
159.3995429999999942
21
-100.0708389999999923
0
LINE
8
BLACK
6
CONTINUOUS
10
159.3995429999999942
20
-100.0708389999999923
11
159.7220030000000008
21
-99.7220030000000008
0
LINE
8
BLACK
6
CONTINUOUS
10
159.7220030000000008
20
-99.7220030000000008
11
160.0708390000000065
21
-99.3995429999999942
0
LINE
8
BLACK
6
CONTINUOUS
10
160.0708390000000065
20
-99.3995429999999942
11
160.4438979999999901
21
-99.1054460000000006
0
LINE
8
BLACK
6
CONTINUOUS
10
160.4438979999999901
20
-99.1054460000000006
11
160.8388829999999814
21
-98.8415260000000018
0
LINE
8
BLACK
6
CONTINUOUS
10
160.8388829999999814
20
-98.8415260000000018
11
161.2533569999999941
21
-98.6094099999999969
0
LINE
8
BLACK
6
CONTINUOUS
10
161.2533569999999941
20
-98.6094099999999969
11
161.6847640000000013
21
-98.4105279999999993
0
LINE
8
BLACK
6
CONTINUOUS
10
161.6847640000000013
20
-98.4105279999999993
11
162.1304460000000063
21
-98.246106999999995
0
LINE
8
BLACK
6
CONTINUOUS
10
162.1304460000000063
20
-98.246106999999995
11
162.5876549999999838
21
-98.1171609999999959
0
LINE
8
BLACK
6
CONTINUOUS
10
162.5876549999999838
20
-98.1171609999999959
11
163.0535710000000051
21
-98.0244849999999985
0
LINE
8
BLACK
6
CONTINUOUS
10
163.0535710000000051
20
-98.0244849999999985
11
163.525320999999991
21
-97.9686489999999992
0
LINE
8
BLACK
6
CONTINUOUS
10
163.525320999999991
20
-97.9686489999999992
11
163.9499989999999912
21
-97.9519629999999921
0
LINE
8
BLACK
6
CONTINUOUS
10
163.9499989999999912
20
-97.9519629999999921
11
163.9499989999999912
21
-68.9999990000000025
0
LINE
8
BLACK
6
CONTINUOUS
10
163.9499989999999912
20
-68.9999990000000025
11
163.9500009999999861
21
-68.9999880000000019
0
LINE
8
BLACK
6
CONTINUOUS
10
163.9500009999999861
20
-68.9999880000000019
11
163.9500009999999861
21
-68.8343309999999917
0
LINE
8
BLACK
6
CONTINUOUS
10
163.9500009999999861
20
-68.8343309999999917
11
163.912903
21
-68.505077
0
LINE
8
BLACK
6
CONTINUOUS
10
163.912903
20
-68.505077
11
163.8391729999999882
21
-68.1820469999999972
0
LINE
8
BLACK
6
CONTINUOUS
10
163.8391729999999882
20
-68.1820469999999972
11
163.729738999999995
21
-67.8693039999999996
0
LINE
8
BLACK
6
CONTINUOUS
10
163.729738999999995
20
-67.8693039999999996
11
163.585977999999983
21
-67.5707799999999992
0
LINE
8
BLACK
6
CONTINUOUS
10
163.585977999999983
20
-67.5707799999999992
11
163.4096959999999967
21
-67.2902289999999965
0
LINE
8
BLACK
6
CONTINUOUS
10
163.4096959999999967
20
-67.2902289999999965
11
163.203109999999981
21
-67.0311789999999945
0
LINE
8
BLACK
6
CONTINUOUS
10
163.203109999999981
20
-67.0311789999999945
11
162.9688199999999938
21
-66.7968879999999956
0
LINE
8
BLACK
6
CONTINUOUS
10
162.9688199999999938
20
-66.7968879999999956
11
162.7097699999999918
21
-66.5903029999999916
0
LINE
8
BLACK
6
CONTINUOUS
10
162.7097699999999918
20
-66.5903029999999916
11
162.4292189999999891
21
-66.4140220000000028
0
LINE
8
BLACK
6
CONTINUOUS
10
162.4292189999999891
20
-66.4140220000000028
11
162.1306940000000054
21
-66.2702599999999933
0
LINE
8
BLACK
6
CONTINUOUS
10
162.1306940000000054
20
-66.2702599999999933
11
161.8179509999999937
21
-66.1608260000000001
0
LINE
8
BLACK
6
CONTINUOUS
10
161.8179509999999937
20
-66.1608260000000001
11
161.4949210000000051
21
-66.087097
0
LINE
8
BLACK
6
CONTINUOUS
10
161.4949210000000051
20
-66.087097
11
161.1656679999999824
21
-66.0499989999999997
0
LINE
8
BLACK
6
CONTINUOUS
10
161.1656679999999824
20
-66.0499989999999997
11
160.9999990000000025
21
-66.0499989999999997
0
LINE
8
BLACK
6
CONTINUOUS
10
160.9999990000000025
20
-66.0499989999999997
11
160.5253219999999885
21
-66.0313489999999916
0
LINE
8
BLACK
6
CONTINUOUS
10
160.5253219999999885
20
-66.0313489999999916
11
160.0535710000000051
21
-65.9755129999999923
0
LINE
8
BLACK
6
CONTINUOUS
10
160.0535710000000051
20
-65.9755129999999923
11
159.5876549999999838
21
-65.882836999999995
0
LINE
8
BLACK
6
CONTINUOUS
10
159.5876549999999838
20
-65.882836999999995
11
159.1304470000000038
21
-65.7538909999999959
0
LINE
8
BLACK
6
CONTINUOUS
10
159.1304470000000038
20
-65.7538909999999959
11
158.6847649999999987
21
-65.5894699999999915
0
LINE
8
BLACK
6
CONTINUOUS
10
158.6847649999999987
20
-65.5894699999999915
11
158.2533569999999941
21
-65.3905879999999939
0
LINE
8
BLACK
6
CONTINUOUS
10
158.2533569999999941
20
-65.3905879999999939
11
157.8388839999999789
21
-65.1584720000000033
0
LINE
8
BLACK
6
CONTINUOUS
10
157.8388839999999789
20
-65.1584720000000033
11
157.4438989999999876
21
-64.8945519999999902
0
LINE
8
BLACK
6
CONTINUOUS
10
157.4438989999999876
20
-64.8945519999999902
11
157.070840000000004
21
-64.6004549999999966
0
LINE
8
BLACK
6
CONTINUOUS
10
157.070840000000004
20
-64.6004549999999966
11
156.7220039999999983
21
-64.27799499999999
0
LINE
8
BLACK
6
CONTINUOUS
10
156.7220039999999983
20
-64.27799499999999
11
156.3995439999999917
21
-63.929159999999996
0
LINE
8
BLACK
6
CONTINUOUS
10
156.3995439999999917
20
-63.929159999999996
11
156.1054479999999955
21
-63.5560999999999936
0
LINE
8
BLACK
6
CONTINUOUS
10
156.1054479999999955
20
-63.5560999999999936
11
155.8415279999999825
21
-63.1611149999999952
0
LINE
8
BLACK
6
CONTINUOUS
10
155.8415279999999825
20
-63.1611149999999952
11
155.6094109999999944
21
-62.7466419999999943
0
LINE
8
BLACK
6
CONTINUOUS
10
155.6094109999999944
20
-62.7466419999999943
11
155.4105299999999943
21
-62.3152339999999967
0
LINE
8
BLACK
6
CONTINUOUS
10
155.4105299999999943
20
-62.3152339999999967
11
155.2461089999999899
21
-61.8695519999999988
0
LINE
8
BLACK
6
CONTINUOUS
10
155.2461089999999899
20
-61.8695519999999988
11
155.117163000000005
21
-61.4123439999999974
0
LINE
8
BLACK
6
CONTINUOUS
10
155.117163000000005
20
-61.4123439999999974
11
155.0244869999999935
21
-60.9464279999999974
0
LINE
8
BLACK
6
CONTINUOUS
10
155.0244869999999935
20
-60.9464279999999974
11
154.9686509999999942
21
-60.4746769999999998
0
LINE
8
BLACK
6
CONTINUOUS
10
154.9686509999999942
20
-60.4746769999999998
11
154.9500009999999861
21
-60.
0
LINE
8
BLACK
6
CONTINUOUS
10
154.9500009999999861
20
-60.
11
154.9686509999999942
21
-59.5253230000000002
0
LINE
8
BLACK
6
CONTINUOUS
10
154.9686509999999942
20
-59.5253230000000002
11
155.0244869999999935
21
-59.0535719999999955
0
LINE
8
BLACK
6
CONTINUOUS
10
155.0244869999999935
20
-59.0535719999999955
11
155.117163000000005
21
-58.5876559999999955
0
LINE
8
BLACK
6
CONTINUOUS
10
155.117163000000005
20
-58.5876559999999955
11
155.2461089999999899
21
-58.1304479999999941
0
LINE
8
BLACK
6
CONTINUOUS
10
155.2461089999999899
20
-58.1304479999999941
11
155.4105299999999943
21
-57.6847659999999962
0
LINE
8
BLACK
6
CONTINUOUS
10
155.4105299999999943
20
-57.6847659999999962
11
155.6094109999999944
21
-57.2533579999999986
0
LINE
8
BLACK
6
CONTINUOUS
10
155.6094109999999944
20
-57.2533579999999986
11
155.8415279999999825
21
-56.8388849999999977
0
LINE
8
BLACK
6
CONTINUOUS
10
155.8415279999999825
20
-56.8388849999999977
11
156.1054479999999955
21
-56.4438999999999993
0
LINE
8
BLACK
6
CONTINUOUS
10
156.1054479999999955
20
-56.4438999999999993
11
156.3995439999999917
21
-56.0708399999999969
0
LINE
8
BLACK
6
CONTINUOUS
10
156.3995439999999917
20
-56.0708399999999969
11
156.7220039999999983
21
-55.7220049999999958
0
LINE
8
BLACK
6
CONTINUOUS
10
156.7220039999999983
20
-55.7220049999999958
11
157.070840000000004
21
-55.3995449999999963
0
LINE
8
BLACK
6
CONTINUOUS
10
157.070840000000004
20
-55.3995449999999963
11
157.4438989999999876
21
-55.1054479999999955
0
LINE
8
BLACK
6
CONTINUOUS
10
157.4438989999999876
20
-55.1054479999999955
11
157.8388839999999789
21
-54.8415279999999967
0
LINE
8
BLACK
6
CONTINUOUS
10
157.8388839999999789
20
-54.8415279999999967
11
158.2533569999999941
21
-54.609411999999999
0
LINE
8
BLACK
6
CONTINUOUS
10
158.2533569999999941
20
-54.609411999999999
11
158.6847649999999987
21
-54.4105299999999943
0
LINE
8
BLACK
6
CONTINUOUS
10
158.6847649999999987
20
-54.4105299999999943
11
159.1304470000000038
21
-54.246108999999997
0
LINE
8
BLACK
6
CONTINUOUS
10
159.1304470000000038
20
-54.246108999999997
11
159.5876549999999838
21
-54.1171629999999979
0
LINE
8
BLACK
6
CONTINUOUS
10
159.5876549999999838
20
-54.1171629999999979
11
160.0535710000000051
21
-54.0244870000000006
0
LINE
8
BLACK
6
CONTINUOUS
10
160.0535710000000051
20
-54.0244870000000006
11
160.5253219999999885
21
-53.9686509999999942
0
LINE
8
BLACK
6
CONTINUOUS
10
160.5253219999999885
20
-53.9686509999999942
11
160.9999909999999943
21
-53.9500010000000003
0
LINE
8
BLACK
6
CONTINUOUS
10
160.9999909999999943
20
-53.9500010000000003
11
160.9999990000000025
21
-53.9499989999999983
0
LINE
8
BLACK
6
CONTINUOUS
10
160.9999990000000025
20
-53.9499989999999983
11
161.1656669999999849
21
-53.9499989999999983
0
LINE
8
BLACK
6
CONTINUOUS
10
161.1656669999999849
20
-53.9499989999999983
11
161.4949210000000051
21
-53.912900999999998
0
LINE
8
BLACK
6
CONTINUOUS
10
161.4949210000000051
20
-53.912900999999998
11
161.8179509999999937
21
-53.8391719999999978
0
LINE
8
BLACK
6
CONTINUOUS
10
161.8179509999999937
20
-53.8391719999999978
11
162.1306940000000054
21
-53.7297379999999976
0
LINE
8
BLACK
6
CONTINUOUS
10
162.1306940000000054
20
-53.7297379999999976
11
162.4292179999999917
21
-53.5859759999999952
0
LINE
8
BLACK
6
CONTINUOUS
10
162.4292179999999917
20
-53.5859759999999952
11
162.7097689999999943
21
-53.4096949999999993
0
LINE
8
BLACK
6
CONTINUOUS
10
162.7097689999999943
20
-53.4096949999999993
11
162.9688189999999963
21
-53.2031089999999978
0
LINE
8
BLACK
6
CONTINUOUS
10
162.9688189999999963
20
-53.2031089999999978
11
163.2031089999999836
21
-52.9688189999999963
0
LINE
8
BLACK
6
CONTINUOUS
10
163.2031089999999836
20
-52.9688189999999963
11
163.4096949999999993
21
-52.7097689999999943
0
LINE
8
BLACK
6
CONTINUOUS
10
163.4096949999999993
20
-52.7097689999999943
11
163.5859759999999881
21
-52.4292179999999988
0
LINE
8
BLACK
6
CONTINUOUS
10
163.5859759999999881
20
-52.4292179999999988
11
163.7297379999999976
21
-52.1306939999999983
0
LINE
8
BLACK
6
CONTINUOUS
10
163.7297379999999976
20
-52.1306939999999983
11
163.8391719999999907
21
-51.8179510000000008
0
LINE
8
BLACK
6
CONTINUOUS
10
163.8391719999999907
20
-51.8179510000000008
11
163.9129010000000051
21
-51.4949209999999979
0
LINE
8
BLACK
6
CONTINUOUS
10
163.9129010000000051
20
-51.4949209999999979
11
163.9499989999999912
21
-51.1656669999999991
0
LINE
8
BLACK
6
CONTINUOUS
10
163.9499989999999912
20
-51.1656669999999991
11
163.9499989999999912
21
-50.9999989999999954
0
LINE
8
BLACK
6
CONTINUOUS
10
163.9499989999999912
20
-50.9999989999999954
11
163.9499989999999912
21
-44.9999989999999954
0
LINE
8
BLACK
6
CONTINUOUS
10
163.9499989999999912
20
-44.9999989999999954
11
163.9500009999999861
21
-44.9999879999999948
0
LINE
8
BLACK
6
CONTINUOUS
10
163.9500009999999861
20
-44.9999879999999948
11
163.9500009999999861
21
-44.8343309999999988
0
LINE
8
BLACK
6
CONTINUOUS
10
163.9500009999999861
20
-44.8343309999999988
11
163.912903
21
-44.505077
0
LINE
8
BLACK
6
CONTINUOUS
10
163.912903
20
-44.505077
11
163.8391729999999882
21
-44.1820469999999972
0
LINE
8
BLACK
6
CONTINUOUS
10
163.8391729999999882
20
-44.1820469999999972
11
163.729738999999995
21
-43.8693039999999996
0
LINE
8
BLACK
6
CONTINUOUS
10
163.729738999999995
20
-43.8693039999999996
11
163.585977999999983
21
-43.5707799999999992
0
LINE
8
BLACK
6
CONTINUOUS
10
163.585977999999983
20
-43.5707799999999992
11
163.4096959999999967
21
-43.2902289999999965
0
LINE
8
BLACK
6
CONTINUOUS
10
163.4096959999999967
20
-43.2902289999999965
11
163.203109999999981
21
-43.0311789999999945
0
LINE
8
BLACK
6
CONTINUOUS
10
163.203109999999981
20
-43.0311789999999945
11
162.9688199999999938
21
-42.7968879999999956
0
LINE
8
BLACK
6
CONTINUOUS
10
162.9688199999999938
20
-42.7968879999999956
11
162.7097699999999918
21
-42.5903029999999987
0
LINE
8
BLACK
6
CONTINUOUS
10
162.7097699999999918
20
-42.5903029999999987
11
162.4292189999999891
21
-42.4140219999999957
0
LINE
8
BLACK
6
CONTINUOUS
10
162.4292189999999891
20
-42.4140219999999957
11
162.1306940000000054
21
-42.2702600000000004
0
LINE
8
BLACK
6
CONTINUOUS
10
162.1306940000000054
20
-42.2702600000000004
11
161.8179509999999937
21
-42.1608260000000001
0
LINE
8
BLACK
6
CONTINUOUS
10
161.8179509999999937
20
-42.1608260000000001
11
161.4949210000000051
21
-42.087097
0
LINE
8
BLACK
6
CONTINUOUS
10
161.4949210000000051
20
-42.087097
11
161.1656679999999824
21
-42.0499989999999997
0
LINE
8
BLACK
6
CONTINUOUS
10
161.1656679999999824
20
-42.0499989999999997
11
160.9999990000000025
21
-42.0499989999999997
0
LINE
8
BLACK
6
CONTINUOUS
10
160.9999990000000025
20
-42.0499989999999997
11
160.5253219999999885
21
-42.0313489999999987
0
LINE
8
BLACK
6
CONTINUOUS
10
160.5253219999999885
20
-42.0313489999999987
11
160.0535710000000051
21
-41.9755129999999994
0
LINE
8
BLACK
6
CONTINUOUS
10
160.0535710000000051
20
-41.9755129999999994
11
159.5876549999999838
21
-41.882836999999995
0
LINE
8
BLACK
6
CONTINUOUS
10
159.5876549999999838
20
-41.882836999999995
11
159.1304470000000038
21
-41.7538909999999959
0
LINE
8
BLACK
6
CONTINUOUS
10
159.1304470000000038
20
-41.7538909999999959
11
158.6847649999999987
21
-41.5894699999999986
0
LINE
8
BLACK
6
CONTINUOUS
10
158.6847649999999987
20
-41.5894699999999986
11
158.2533569999999941
21
-41.390588000000001
0
LINE
8
BLACK
6
CONTINUOUS
10
158.2533569999999941
20
-41.390588000000001
11
157.8388829999999814
21
-41.1584719999999962
0
LINE
8
BLACK
6
CONTINUOUS
10
157.8388829999999814
20
-41.1584719999999962
11
157.4438989999999876
21
-40.8945509999999999
0
LINE
8
BLACK
6
CONTINUOUS
10
157.4438989999999876
20
-40.8945509999999999
11
157.0708390000000065
21
-40.6004549999999966
0
LINE
8
BLACK
6
CONTINUOUS
10
157.0708390000000065
20
-40.6004549999999966
11
156.7220039999999983
21
-40.2779949999999971
0
LINE
8
BLACK
6
CONTINUOUS
10
156.7220039999999983
20
-40.2779949999999971
11
156.3995439999999917
21
-39.9291589999999985
0
LINE
8
BLACK
6
CONTINUOUS
10
156.3995439999999917
20
-39.9291589999999985
11
156.1054469999999981
21
-39.5560989999999961
0
LINE
8
BLACK
6
CONTINUOUS
10
156.1054469999999981
20
-39.5560989999999961
11
155.841526999999985
21
-39.1611149999999952
0
LINE
8
BLACK
6
CONTINUOUS
10
155.841526999999985
20
-39.1611149999999952
11
155.6094109999999944
21
-38.7466409999999968
0
LINE
8
BLACK
6
CONTINUOUS
10
155.6094109999999944
20
-38.7466409999999968
11
155.4105289999999968
21
-38.3152329999999992
0
LINE
8
BLACK
6
CONTINUOUS
10
155.4105289999999968
20
-38.3152329999999992
11
155.2461089999999899
21
-37.8695519999999988
0
LINE
8
BLACK
6
CONTINUOUS
10
155.2461089999999899
20
-37.8695519999999988
11
155.117163000000005
21
-37.4123429999999999
0
LINE
8
BLACK
6
CONTINUOUS
10
155.117163000000005
20
-37.4123429999999999
11
155.024485999999996
21
-36.9464269999999999
0
LINE
8
BLACK
6
CONTINUOUS
10
155.024485999999996
20
-36.9464269999999999
11
154.9686509999999942
21
-36.4746759999999952
0
LINE
8
BLACK
6
CONTINUOUS
10
154.9686509999999942
20
-36.4746759999999952
11
154.9519650000000013
21
-36.0499989999999997
0
LINE
8
BLACK
6
CONTINUOUS
10
154.9519650000000013
20
-36.0499989999999997
11
148.75
21
-36.0499999999999972
0
LINE
8
BLACK
6
CONTINUOUS
10
148.75
20
-36.0499999999999972
11
148.7308659999999918
21
-36.0461939999999998
0
LINE
8
BLACK
6
CONTINUOUS
10
148.7308659999999918
20
-36.0461939999999998
11
148.7038059999999859
21
-36.0191340000000011
0
LINE
8
BLACK
6
CONTINUOUS
10
148.7038059999999859
20
-36.0191340000000011
11
148.7038059999999859
21
-36.0191329999999965
0
LINE
8
BLACK
6
CONTINUOUS
10
148.7038059999999859
20
-36.0191329999999965
11
148.6999999999999886
21
-36.
0
LINE
8
BLACK
6
CONTINUOUS
10
148.6999999999999886
20
-36.
11
148.6999999999999886
21
-30.0499989999999997
0
LINE
8
BLACK
6
CONTINUOUS
10
148.6999999999999886
20
-30.0499989999999997
11
141.2999999999999829
21
-30.0499989999999997
0
LINE
8
BLACK
6
CONTINUOUS
10
141.2999999999999829
20
-30.0499989999999997
11
141.2999999999999829
21
-35.9999989999999954
0
CIRCLE
8
BLACK
10
164.
20
-104.
40
1.0999999999999999
0
CIRCLE
8
BLACK
10
125.9999979999999908
20
-104.
40
1.0999999999999999
0
CIRCLE
8
BLACK
10
142.4599999999999795
20
-37.0399999999999991
40
0.85
0
CIRCLE
8
BLACK
10
142.4599999999999795
20
-31.9599999999999973
40
0.85
0
CIRCLE
8
BLACK
10
147.539999999999992
20
-37.0399999999999991
40
0.85
0
CIRCLE
8
BLACK
10
147.539999999999992
20
-31.9599999999999973
40
0.85
0
CIRCLE
8
BLACK
10
145.
20
-34.5
40
0.75
0
CIRCLE
8
BLACK
10
129.0999989999999968
20
-60.149998999999994
40
1.875
0
CIRCLE
8
BLACK
10
160.8999989999999798
20
-35.8499989999999968
40
1.875
0
CIRCLE
8
BLACK
10
129.0999989999999968
20
-35.8499989999999968
40
1.875
0
CIRCLE
8
BLACK
10
160.8999989999999798
20
-60.149998999999994
40
1.875
0
CIRCLE
8
BLACK
10
164.
20
-104.
40
1.0999999999999999
0
CIRCLE
8
BLACK
10
125.9999979999999908
20
-104.
40
1.0999999999999999
0
CIRCLE
8
BLACK
10
142.4599999999999795
20
-37.0399999999999991
40
0.85
0
CIRCLE
8
BLACK
10
142.4599999999999795
20
-31.9599999999999973
40
0.85
0
CIRCLE
8
BLACK
10
147.539999999999992
20
-37.0399999999999991
40
0.85
0
CIRCLE
8
BLACK
10
147.539999999999992
20
-31.9599999999999973
40
0.85
0
CIRCLE
8
BLACK
10
145.
20
-34.5
40
0.75
0
CIRCLE
8
BLACK
10
129.0999989999999968
20
-60.149998999999994
40
1.875
0
CIRCLE
8
BLACK
10
160.8999989999999798
20
-35.8499989999999968
40
1.875
0
CIRCLE
8
BLACK
10
129.0999989999999968
20
-35.8499989999999968
40
1.875
0
CIRCLE
8
BLACK
10
160.8999989999999798
20
-60.149998999999994
40
1.875
  0
ENDSEC
  0
EOF
