  0
SECTION
  2
HEADER
  9
$ANGBASE
  50
0.0
  9
$ANGDIR
  70
1
  9
$MEASUREMENT
  70
1
  9
$INSUNITS
  70
4
  0
ENDSEC
  0
SECTION
  2
TABLES
  0
TABLE
  2
LTYPE
  70
4
  0
LTYPE
  5
40F
  2
CONTINUOUS
  70
0
  3
Solid line
  72
65
  73
0
  40
0.0
  0
LTYPE
  5
410
  2
DASHDOT
 70
0
  3
Dash Dot ____ _ ____ _
 72
65
 73
4
 40
2.0
 49
1.25
 49
-0.25
 49
0.25
 49
-0.25
  0
LTYPE
  5
411
  2
DASHED
 70
0
  3
Dashed __ __ __ __ __
 72
65
 73
2
 40
0.75
 49
0.5
 49
-0.25
  0
LTYPE
  5
43B
  2
DOTTED
 70
0
  3
Dotted .  .  .  .
 72
65
 73
2
 40
0.2
 49
0.0
 49
-0.2
  0
ENDTAB
  0
TABLE
  2
STYLE
  70
4
  0
STYLE
  2
KICAD
  70
0
  40
0
  41
1
  42
1
  50
0
  71
0
  3
isocp.shx
  0
STYLE
  2
KICADB
  70
0
  40
0
  41
1
  42
1
  50
0
  71
0
  3
isocp.shx
  0
STYLE
  2
KICADI
  70
0
  40
0
  41
1
  42
1
  50
15
  71
0
  3
isocp.shx
  0
STYLE
  2
KICADBI
  70
0
  40
0
  41
1
  42
1
  50
15
  71
0
  3
isocp.shx
  0
ENDTAB
  0
TABLE
  2
LAYER
  70
1
  0
LAYER
  2
User.Drawings
  70
0
  62
9
  420
12763842
  6
CONTINUOUS
  0
ENDTAB
  0
ENDSEC
  0
SECTION
  2
ENTITIES
0
ARC
8
User.Drawings
10
161.
20
-60.
40
5.9999990000000825
50
-269.99999045
51
-90.00000955
0
ARC
8
User.Drawings
10
126.
20
-36.
40
6.
50
90.00000000
51
180.00000000
0
LINE
8
User.Drawings
6
CONTINUOUS
10
120.
20
-104.
11
120.
21
-36.
0
LINE
8
User.Drawings
6
CONTINUOUS
10
125.9999989999999883
20
-29.9999979999999979
11
141.
21
-30.
0
LINE
8
User.Drawings
6
CONTINUOUS
10
125.9999989999999883
20
-44.9999989999999954
11
125.9999989999999883
21
-50.9999989999999954
0
ARC
8
User.Drawings
10
129.
20
-45.
40
3.0000010000001667
50
90.00001910
51
179.99998090
0
ARC
8
User.Drawings
10
129.
20
-69.
40
3.0000010000001667
50
90.00001910
51
179.99998090
0
LINE
8
User.Drawings
6
CONTINUOUS
10
125.9999989999999883
20
-97.9999990000000025
11
125.9999989999999883
21
-68.9999990000000025
0
ARC
8
User.Drawings
10
126.
20
-104.
40
6.0000010000000827
50
0.00000955
51
90.00000955
0
CIRCLE
8
User.Drawings
10
125.9999989999999883
20
-104.0000009999999975
40
1.25
0
ARC
8
User.Drawings
10
126.
20
-104.
40
6.
50
-180.00000000
51
-90.00000000
0
ARC
8
User.Drawings
10
129.
20
-51.
40
2.9999990000001664
50
-180.00001910
51
-90.00001910
0
ARC
8
User.Drawings
10
129.
20
-60.
40
6.0000010000000827
50
-90.00000955
51
90.00000955
0
CIRCLE
8
User.Drawings
10
129.0999999999999943
20
-35.8500000000000014
40
1.25
0
CIRCLE
8
User.Drawings
10
129.0999999999999943
20
-60.1499999999999986
40
1.25
0
LINE
8
User.Drawings
6
CONTINUOUS
10
131.9999990000000025
20
-103.9999989999999883
11
134.9999990000000025
21
-103.9999989999999883
0
ARC
8
User.Drawings
10
129.
20
-36.
40
5.9999990000000825
50
-90.00000955
51
0.00000955
0
LINE
8
User.Drawings
6
CONTINUOUS
10
135.
20
-36.
11
141.
21
-35.9999989999999954
0
LINE
8
User.Drawings
6
CONTINUOUS
10
134.9999990000000025
20
-103.9999989999999883
11
134.9999990000000025
21
-109.9999989999999883
0
LINE
8
User.Drawings
6
CONTINUOUS
10
134.9999990000000025
20
-109.9999989999999883
11
126.
21
-110.
0
LINE
8
User.Drawings
6
CONTINUOUS
10
141.
20
-30.
11
141.
21
-35.9999989999999954
0
LINE
8
User.Drawings
6
CONTINUOUS
10
149.
20
-30.
11
164.
21
-30.
0
LINE
8
User.Drawings
6
CONTINUOUS
10
149.
20
-36.
11
149.
21
-30.
0
LINE
8
User.Drawings
6
CONTINUOUS
10
149.
20
-36.
11
154.9999990000000025
21
-35.9999989999999954
0
LINE
8
User.Drawings
6
CONTINUOUS
10
155.
20
-103.9999989999999883
11
154.9999990000000025
21
-109.9999989999999883
0
LINE
8
User.Drawings
6
CONTINUOUS
10
158.
20
-103.9999989999999883
11
154.9999990000000025
21
-103.9999989999999883
0
ARC
8
User.Drawings
10
164.
20
-104.
40
6.0000010000000827
50
90.00000955
51
179.99999045
0
CIRCLE
8
User.Drawings
10
160.9000000000000057
20
-35.8500000000000014
40
1.25
0
CIRCLE
8
User.Drawings
10
160.9000000000000057
20
-60.1499999999999986
40
1.25
0
ARC
8
User.Drawings
10
161.
20
-36.
40
5.9999990000000825
50
-180.00000955
51
-90.00000955
0
ARC
8
User.Drawings
10
161.
20
-45.
40
3.0000010000001667
50
0.00001910
51
90.00001910
0
ARC
8
User.Drawings
10
161.
20
-69.
40
3.0000000000001665
50
0.00001910
51
90.00001910
0
ARC
8
User.Drawings
10
164.
20
-36.
40
6.
50
0.00000000
51
90.00000000
0
LINE
8
User.Drawings
6
CONTINUOUS
10
163.9999990000000025
20
-44.9999989999999954
11
163.9999990000000025
21
-51.
0
ARC
8
User.Drawings
10
161.
20
-51.
40
2.9999990000001664
50
-90.00001910
51
0.00001910
0
LINE
8
User.Drawings
6
CONTINUOUS
10
163.9999990000000025
20
-98.
11
163.9999990000000025
21
-68.9999990000000025
0
CIRCLE
8
User.Drawings
10
163.999998000000005
20
-103.9999979999999908
40
1.25
0
LINE
8
User.Drawings
6
CONTINUOUS
10
164.
20
-110.
11
154.9999990000000025
21
-109.9999989999999883
0
LINE
8
User.Drawings
6
CONTINUOUS
10
170.
20
-36.
11
170.
21
-104.
0
ARC
8
User.Drawings
10
164.
20
-104.
40
6.
50
-90.00000000
51
-0.00000000
  0
ENDSEC
  0
EOF
