  0
SECTION
  2
HEADER
  9
$ANGBASE
  50
0.0
  9
$ANGDIR
  70
1
  9
$MEASUREMENT
  70
1
  9
$INSUNITS
  70
4
  0
ENDSEC
  0
SECTION
  2
TABLES
  0
TABLE
  2
LTYPE
  70
4
  0
LTYPE
  5
40F
  2
CONTINUOUS
  70
0
  3
Solid line
  72
65
  73
0
  40
0.0
  0
LTYPE
  5
410
  2
DASHDOT
 70
0
  3
Dash Dot ____ _ ____ _
 72
65
 73
4
 40
2.0
 49
1.25
 49
-0.25
 49
0.25
 49
-0.25
  0
LTYPE
  5
411
  2
DASHED
 70
0
  3
Dashed __ __ __ __ __
 72
65
 73
2
 40
0.75
 49
0.5
 49
-0.25
  0
LTYPE
  5
43B
  2
DOTTED
 70
0
  3
Dotted .  .  .  .
 72
65
 73
2
 40
0.2
 49
0.0
 49
-0.2
  0
ENDTAB
  0
TABLE
  2
STYLE
  70
4
  0
STYLE
  2
KICAD
  70
0
  40
0
  41
1
  42
1
  50
0
  71
0
  3
isocp.shx
  0
STYLE
  2
KICADB
  70
0
  40
0
  41
1
  42
1
  50
0
  71
0
  3
isocp.shx
  0
STYLE
  2
KICADI
  70
0
  40
0
  41
1
  42
1
  50
15
  71
0
  3
isocp.shx
  0
STYLE
  2
KICADBI
  70
0
  40
0
  41
1
  42
1
  50
15
  71
0
  3
isocp.shx
  0
ENDTAB
  0
TABLE
  2
LAYER
  70
1
  0
LAYER
  2
User.Drawings
  70
0
  62
9
  420
12763842
  6
CONTINUOUS
  0
ENDTAB
  0
ENDSEC
  0
SECTION
  2
ENTITIES
0
LINE
8
User.Drawings
6
CONTINUOUS
10
126.2684609999999878
20
-102.8817760000000021
11
126.4400849999999963
21
-102.9375399999999985
0
LINE
8
User.Drawings
6
CONTINUOUS
10
126.4400849999999963
20
-102.9375399999999985
11
126.6008719999999954
21
-103.0194649999999967
0
LINE
8
User.Drawings
6
CONTINUOUS
10
126.6008719999999954
20
-103.0194649999999967
11
126.746863999999988
21
-103.1255340000000018
0
LINE
8
User.Drawings
6
CONTINUOUS
10
126.746863999999988
20
-103.1255340000000018
11
126.8744659999999982
21
-103.2531359999999978
0
LINE
8
User.Drawings
6
CONTINUOUS
10
126.8744659999999982
20
-103.2531359999999978
11
126.9805349999999891
21
-103.3991279999999904
0
LINE
8
User.Drawings
6
CONTINUOUS
10
126.9805349999999891
20
-103.3991279999999904
11
127.0624599999999873
21
-103.5599149999999895
0
LINE
8
User.Drawings
6
CONTINUOUS
10
127.0624599999999873
20
-103.5599149999999895
11
127.1182239999999979
21
-103.7315389999999979
0
LINE
8
User.Drawings
6
CONTINUOUS
10
127.1182239999999979
20
-103.7315389999999979
11
127.1464539999999914
21
-103.9097730000000013
0
LINE
8
User.Drawings
6
CONTINUOUS
10
127.1464539999999914
20
-103.9097730000000013
11
127.1464539999999914
21
-104.0902289999999937
0
LINE
8
User.Drawings
6
CONTINUOUS
10
127.1464539999999914
20
-104.0902289999999937
11
127.1182239999999979
21
-104.268462999999997
0
LINE
8
User.Drawings
6
CONTINUOUS
10
127.1182239999999979
20
-104.268462999999997
11
127.0624599999999873
21
-104.4400869999999912
0
LINE
8
User.Drawings
6
CONTINUOUS
10
127.0624599999999873
20
-104.4400869999999912
11
126.9805349999999891
21
-104.6008739999999904
0
LINE
8
User.Drawings
6
CONTINUOUS
10
126.9805349999999891
20
-104.6008739999999904
11
126.8744659999999982
21
-104.7468659999999971
0
LINE
8
User.Drawings
6
CONTINUOUS
10
126.8744659999999982
20
-104.7468659999999971
11
126.746863999999988
21
-104.8744679999999931
0
LINE
8
User.Drawings
6
CONTINUOUS
10
126.746863999999988
20
-104.8744679999999931
11
126.6008719999999954
21
-104.9805369999999982
0
LINE
8
User.Drawings
6
CONTINUOUS
10
126.6008719999999954
20
-104.9805369999999982
11
126.4400849999999963
21
-105.0624619999999965
0
LINE
8
User.Drawings
6
CONTINUOUS
10
126.4400849999999963
20
-105.0624619999999965
11
126.2684609999999878
21
-105.1182259999999928
0
LINE
8
User.Drawings
6
CONTINUOUS
10
126.2684609999999878
20
-105.1182259999999928
11
126.0902269999999987
21
-105.1464560000000006
0
LINE
8
User.Drawings
6
CONTINUOUS
10
126.0902269999999987
20
-105.1464560000000006
11
125.9097709999999921
21
-105.1464560000000006
0
LINE
8
User.Drawings
6
CONTINUOUS
10
125.9097709999999921
20
-105.1464560000000006
11
125.7315369999999888
21
-105.1182259999999928
0
LINE
8
User.Drawings
6
CONTINUOUS
10
125.7315369999999888
20
-105.1182259999999928
11
125.5599129999999946
21
-105.0624619999999965
0
LINE
8
User.Drawings
6
CONTINUOUS
10
125.5599129999999946
20
-105.0624619999999965
11
125.3991259999999954
21
-104.9805369999999982
0
LINE
8
User.Drawings
6
CONTINUOUS
10
125.3991259999999954
20
-104.9805369999999982
11
125.2531339999999886
21
-104.8744679999999931
0
LINE
8
User.Drawings
6
CONTINUOUS
10
125.2531339999999886
20
-104.8744679999999931
11
125.1255319999999926
21
-104.7468659999999971
0
LINE
8
User.Drawings
6
CONTINUOUS
10
125.1255319999999926
20
-104.7468659999999971
11
125.0194629999999876
21
-104.6008739999999904
0
LINE
8
User.Drawings
6
CONTINUOUS
10
125.0194629999999876
20
-104.6008739999999904
11
124.9375379999999893
21
-104.4400869999999912
0
LINE
8
User.Drawings
6
CONTINUOUS
10
124.9375379999999893
20
-104.4400869999999912
11
124.881773999999993
21
-104.268462999999997
0
LINE
8
User.Drawings
6
CONTINUOUS
10
124.881773999999993
20
-104.268462999999997
11
124.8535439999999994
21
-104.0902289999999937
0
LINE
8
User.Drawings
6
CONTINUOUS
10
124.8535439999999994
20
-104.0902289999999937
11
124.8535439999999994
21
-103.9097730000000013
0
LINE
8
User.Drawings
6
CONTINUOUS
10
124.8535439999999994
20
-103.9097730000000013
11
124.8556329999999974
21
-103.8965850000000017
0
LINE
8
User.Drawings
6
CONTINUOUS
10
124.8556329999999974
20
-103.8965850000000017
11
124.881773999999993
21
-103.7315389999999979
0
LINE
8
User.Drawings
6
CONTINUOUS
10
124.881773999999993
20
-103.7315389999999979
11
124.9375379999999893
21
-103.5599149999999895
0
LINE
8
User.Drawings
6
CONTINUOUS
10
124.9375379999999893
20
-103.5599149999999895
11
125.0194629999999876
21
-103.3991279999999904
0
LINE
8
User.Drawings
6
CONTINUOUS
10
125.0194629999999876
20
-103.3991279999999904
11
125.1255319999999926
21
-103.2531359999999978
0
LINE
8
User.Drawings
6
CONTINUOUS
10
125.1255319999999926
20
-103.2531359999999978
11
125.2531339999999886
21
-103.1255340000000018
0
LINE
8
User.Drawings
6
CONTINUOUS
10
125.2531339999999886
20
-103.1255340000000018
11
125.3991259999999954
21
-103.0194649999999967
0
LINE
8
User.Drawings
6
CONTINUOUS
10
125.3991259999999954
20
-103.0194649999999967
11
125.5599129999999946
21
-102.9375399999999985
0
LINE
8
User.Drawings
6
CONTINUOUS
10
125.5599129999999946
20
-102.9375399999999985
11
125.7315369999999888
21
-102.8817760000000021
0
LINE
8
User.Drawings
6
CONTINUOUS
10
125.7315369999999888
20
-102.8817760000000021
11
125.9097709999999921
21
-102.8535459999999944
0
LINE
8
User.Drawings
6
CONTINUOUS
10
125.9097709999999921
20
-102.8535459999999944
11
126.0902269999999987
21
-102.8535459999999944
0
LINE
8
User.Drawings
6
CONTINUOUS
10
126.0902269999999987
20
-102.8535459999999944
11
126.2684609999999878
21
-102.8817760000000021
0
LINE
8
User.Drawings
6
CONTINUOUS
10
124.9499989999999912
20
-104.1034169999999932
11
124.9903489999999948
21
-104.3062749999999994
0
LINE
8
User.Drawings
6
CONTINUOUS
10
124.9903489999999948
20
-104.3062749999999994
11
125.0695009999999883
21
-104.4973629999999929
0
LINE
8
User.Drawings
6
CONTINUOUS
10
125.0695009999999883
20
-104.4973629999999929
11
125.1844099999999997
21
-104.6693369999999987
0
LINE
8
User.Drawings
6
CONTINUOUS
10
125.1844099999999997
20
-104.6693369999999987
11
125.3306630000000013
21
-104.8155900000000003
0
LINE
8
User.Drawings
6
CONTINUOUS
10
125.3306630000000013
20
-104.8155900000000003
11
125.5026369999999929
21
-104.9304989999999975
0
LINE
8
User.Drawings
6
CONTINUOUS
10
125.5026369999999929
20
-104.9304989999999975
11
125.6937250000000006
21
-105.009650999999991
0
LINE
8
User.Drawings
6
CONTINUOUS
10
125.6937250000000006
20
-105.009650999999991
11
125.8965829999999926
21
-105.0500009999999946
0
LINE
8
User.Drawings
6
CONTINUOUS
10
125.8965829999999926
20
-105.0500009999999946
11
126.1034149999999983
21
-105.0500009999999946
0
LINE
8
User.Drawings
6
CONTINUOUS
10
126.1034149999999983
20
-105.0500009999999946
11
126.3062729999999902
21
-105.009650999999991
0
LINE
8
User.Drawings
6
CONTINUOUS
10
126.3062729999999902
20
-105.009650999999991
11
126.4973609999999979
21
-104.9304989999999975
0
LINE
8
User.Drawings
6
CONTINUOUS
10
126.4973609999999979
20
-104.9304989999999975
11
126.6693349999999896
21
-104.8155900000000003
0
LINE
8
User.Drawings
6
CONTINUOUS
10
126.6693349999999896
20
-104.8155900000000003
11
126.8155879999999911
21
-104.6693369999999987
0
LINE
8
User.Drawings
6
CONTINUOUS
10
126.8155879999999911
20
-104.6693369999999987
11
126.9304969999999884
21
-104.4973629999999929
0
LINE
8
User.Drawings
6
CONTINUOUS
10
126.9304969999999884
20
-104.4973629999999929
11
127.009648999999996
21
-104.3062749999999994
0
LINE
8
User.Drawings
6
CONTINUOUS
10
127.009648999999996
20
-104.3062749999999994
11
127.0499989999999997
21
-104.1034169999999932
0
LINE
8
User.Drawings
6
CONTINUOUS
10
127.0499989999999997
20
-104.1034169999999932
11
127.0499989999999997
21
-103.8965850000000017
0
LINE
8
User.Drawings
6
CONTINUOUS
10
127.0499989999999997
20
-103.8965850000000017
11
127.009648999999996
21
-103.6937269999999955
0
LINE
8
User.Drawings
6
CONTINUOUS
10
127.009648999999996
20
-103.6937269999999955
11
126.9304969999999884
21
-103.5026390000000021
0
LINE
8
User.Drawings
6
CONTINUOUS
10
126.9304969999999884
20
-103.5026390000000021
11
126.8155879999999911
21
-103.3306649999999962
0
LINE
8
User.Drawings
6
CONTINUOUS
10
126.8155879999999911
20
-103.3306649999999962
11
126.6693349999999896
21
-103.1844119999999947
0
LINE
8
User.Drawings
6
CONTINUOUS
10
126.6693349999999896
20
-103.1844119999999947
11
126.4973609999999979
21
-103.0695029999999974
0
LINE
8
User.Drawings
6
CONTINUOUS
10
126.4973609999999979
20
-103.0695029999999974
11
126.3062729999999902
21
-102.9903509999999898
0
LINE
8
User.Drawings
6
CONTINUOUS
10
126.3062729999999902
20
-102.9903509999999898
11
126.1034149999999983
21
-102.9500010000000003
0
LINE
8
User.Drawings
6
CONTINUOUS
10
126.1034149999999983
20
-102.9500010000000003
11
125.8965829999999926
21
-102.9500010000000003
0
LINE
8
User.Drawings
6
CONTINUOUS
10
125.8965829999999926
20
-102.9500010000000003
11
125.6937250000000006
21
-102.9903509999999898
0
LINE
8
User.Drawings
6
CONTINUOUS
10
125.6937250000000006
20
-102.9903509999999898
11
125.5026369999999929
21
-103.0695029999999974
0
LINE
8
User.Drawings
6
CONTINUOUS
10
125.5026369999999929
20
-103.0695029999999974
11
125.3306630000000013
21
-103.1844119999999947
0
LINE
8
User.Drawings
6
CONTINUOUS
10
125.3306630000000013
20
-103.1844119999999947
11
125.1844099999999997
21
-103.3306649999999962
0
LINE
8
User.Drawings
6
CONTINUOUS
10
125.1844099999999997
20
-103.3306649999999962
11
125.0695009999999883
21
-103.5026390000000021
0
LINE
8
User.Drawings
6
CONTINUOUS
10
125.0695009999999883
20
-103.5026390000000021
11
124.9903489999999948
21
-103.6937269999999955
0
LINE
8
User.Drawings
6
CONTINUOUS
10
124.9903489999999948
20
-103.6937269999999955
11
124.9499989999999912
21
-103.8965850000000017
0
LINE
8
User.Drawings
6
CONTINUOUS
10
124.9499989999999912
20
-103.8965850000000017
11
124.9499989999999912
21
-104.1034169999999932
0
LINE
8
User.Drawings
6
CONTINUOUS
10
129.3684619999999938
20
-59.0317749999999961
11
129.5400860000000023
21
-59.0875389999999996
0
LINE
8
User.Drawings
6
CONTINUOUS
10
129.5400860000000023
20
-59.0875389999999996
11
129.7008730000000014
21
-59.1694639999999978
0
LINE
8
User.Drawings
6
CONTINUOUS
10
129.7008730000000014
20
-59.1694639999999978
11
129.8468650000000082
21
-59.2755329999999958
0
LINE
8
User.Drawings
6
CONTINUOUS
10
129.8468650000000082
20
-59.2755329999999958
11
129.9744670000000042
21
-59.4031349999999989
0
LINE
8
User.Drawings
6
CONTINUOUS
10
129.9744670000000042
20
-59.4031349999999989
11
130.0805359999999951
21
-59.5491269999999986
0
LINE
8
User.Drawings
6
CONTINUOUS
10
130.0805359999999951
20
-59.5491269999999986
11
130.1624610000000075
21
-59.7099139999999977
0
LINE
8
User.Drawings
6
CONTINUOUS
10
130.1624610000000075
20
-59.7099139999999977
11
130.2182249999999897
21
-59.881537999999999
0
LINE
8
User.Drawings
6
CONTINUOUS
10
130.2182249999999897
20
-59.881537999999999
11
130.2464549999999974
21
-60.0597719999999953
0
LINE
8
User.Drawings
6
CONTINUOUS
10
130.2464549999999974
20
-60.0597719999999953
11
130.2464549999999974
21
-60.2402279999999948
0
LINE
8
User.Drawings
6
CONTINUOUS
10
130.2464549999999974
20
-60.2402279999999948
11
130.2182249999999897
21
-60.4184619999999981
0
LINE
8
User.Drawings
6
CONTINUOUS
10
130.2182249999999897
20
-60.4184619999999981
11
130.1624610000000075
21
-60.5900859999999994
0
LINE
8
User.Drawings
6
CONTINUOUS
10
130.1624610000000075
20
-60.5900859999999994
11
130.0805359999999951
21
-60.7508729999999986
0
LINE
8
User.Drawings
6
CONTINUOUS
10
130.0805359999999951
20
-60.7508729999999986
11
129.9744670000000042
21
-60.8968649999999982
0
LINE
8
User.Drawings
6
CONTINUOUS
10
129.9744670000000042
20
-60.8968649999999982
11
129.8468650000000082
21
-61.0244669999999942
0
LINE
8
User.Drawings
6
CONTINUOUS
10
129.8468650000000082
20
-61.0244669999999942
11
129.7008730000000014
21
-61.1305359999999993
0
LINE
8
User.Drawings
6
CONTINUOUS
10
129.7008730000000014
20
-61.1305359999999993
11
129.5400860000000023
21
-61.2124609999999976
0
LINE
8
User.Drawings
6
CONTINUOUS
10
129.5400860000000023
20
-61.2124609999999976
11
129.3684619999999938
21
-61.2682249999999939
0
LINE
8
User.Drawings
6
CONTINUOUS
10
129.3684619999999938
20
-61.2682249999999939
11
129.1902279999999905
21
-61.2964549999999946
0
LINE
8
User.Drawings
6
CONTINUOUS
10
129.1902279999999905
20
-61.2964549999999946
11
129.0097719999999981
21
-61.2964549999999946
0
LINE
8
User.Drawings
6
CONTINUOUS
10
129.0097719999999981
20
-61.2964549999999946
11
128.8315379999999948
21
-61.2682249999999939
0
LINE
8
User.Drawings
6
CONTINUOUS
10
128.8315379999999948
20
-61.2682249999999939
11
128.6599139999999863
21
-61.2124609999999976
0
LINE
8
User.Drawings
6
CONTINUOUS
10
128.6599139999999863
20
-61.2124609999999976
11
128.4991269999999872
21
-61.1305359999999993
0
LINE
8
User.Drawings
6
CONTINUOUS
10
128.4991269999999872
20
-61.1305359999999993
11
128.3531349999999804
21
-61.0244669999999942
0
LINE
8
User.Drawings
6
CONTINUOUS
10
128.3531349999999804
20
-61.0244669999999942
11
128.2255329999999844
21
-60.8968649999999982
0
LINE
8
User.Drawings
6
CONTINUOUS
10
128.2255329999999844
20
-60.8968649999999982
11
128.1194639999999936
21
-60.7508729999999986
0
LINE
8
User.Drawings
6
CONTINUOUS
10
128.1194639999999936
20
-60.7508729999999986
11
128.0375389999999811
21
-60.5900859999999994
0
LINE
8
User.Drawings
6
CONTINUOUS
10
128.0375389999999811
20
-60.5900859999999994
11
127.981774999999999
21
-60.4184619999999981
0
LINE
8
User.Drawings
6
CONTINUOUS
10
127.981774999999999
20
-60.4184619999999981
11
127.9535449999999912
21
-60.2402279999999948
0
LINE
8
User.Drawings
6
CONTINUOUS
10
127.9535449999999912
20
-60.2402279999999948
11
127.9535449999999912
21
-60.0597719999999953
0
LINE
8
User.Drawings
6
CONTINUOUS
10
127.9535449999999912
20
-60.0597719999999953
11
127.9556339999999892
21
-60.0465839999999957
0
LINE
8
User.Drawings
6
CONTINUOUS
10
127.9556339999999892
20
-60.0465839999999957
11
127.981774999999999
21
-59.881537999999999
0
LINE
8
User.Drawings
6
CONTINUOUS
10
127.981774999999999
20
-59.881537999999999
11
128.0375389999999811
21
-59.7099139999999977
0
LINE
8
User.Drawings
6
CONTINUOUS
10
128.0375389999999811
20
-59.7099139999999977
11
128.1194639999999936
21
-59.5491269999999986
0
LINE
8
User.Drawings
6
CONTINUOUS
10
128.1194639999999936
20
-59.5491269999999986
11
128.2255329999999844
21
-59.4031349999999989
0
LINE
8
User.Drawings
6
CONTINUOUS
10
128.2255329999999844
20
-59.4031349999999989
11
128.3531349999999804
21
-59.2755329999999958
0
LINE
8
User.Drawings
6
CONTINUOUS
10
128.3531349999999804
20
-59.2755329999999958
11
128.4991269999999872
21
-59.1694639999999978
0
LINE
8
User.Drawings
6
CONTINUOUS
10
128.4991269999999872
20
-59.1694639999999978
11
128.6599139999999863
21
-59.0875389999999996
0
LINE
8
User.Drawings
6
CONTINUOUS
10
128.6599139999999863
20
-59.0875389999999996
11
128.8315379999999948
21
-59.0317749999999961
0
LINE
8
User.Drawings
6
CONTINUOUS
10
128.8315379999999948
20
-59.0317749999999961
11
129.0097719999999981
21
-59.0035449999999955
0
LINE
8
User.Drawings
6
CONTINUOUS
10
129.0097719999999981
20
-59.0035449999999955
11
129.1902279999999905
21
-59.0035449999999955
0
LINE
8
User.Drawings
6
CONTINUOUS
10
129.1902279999999905
20
-59.0035449999999955
11
129.3684619999999938
21
-59.0317749999999961
0
LINE
8
User.Drawings
6
CONTINUOUS
10
128.0499999999999829
20
-60.2534159999999943
11
128.0903500000000008
21
-60.4562740000000005
0
LINE
8
User.Drawings
6
CONTINUOUS
10
128.0903500000000008
20
-60.4562740000000005
11
128.1695019999999943
21
-60.647361999999994
0
LINE
8
User.Drawings
6
CONTINUOUS
10
128.1695019999999943
20
-60.647361999999994
11
128.2844110000000057
21
-60.8193359999999998
0
LINE
8
User.Drawings
6
CONTINUOUS
10
128.2844110000000057
20
-60.8193359999999998
11
128.4306640000000073
21
-60.9655889999999943
0
LINE
8
User.Drawings
6
CONTINUOUS
10
128.4306640000000073
20
-60.9655889999999943
11
128.6026379999999847
21
-61.0804979999999986
0
LINE
8
User.Drawings
6
CONTINUOUS
10
128.6026379999999847
20
-61.0804979999999986
11
128.7937259999999924
21
-61.1596499999999992
0
LINE
8
User.Drawings
6
CONTINUOUS
10
128.7937259999999924
20
-61.1596499999999992
11
128.9965839999999844
21
-61.1999999999999957
0
LINE
8
User.Drawings
6
CONTINUOUS
10
128.9965839999999844
20
-61.1999999999999957
11
129.2034160000000043
21
-61.1999999999999957
0
LINE
8
User.Drawings
6
CONTINUOUS
10
129.2034160000000043
20
-61.1999999999999957
11
129.4062739999999962
21
-61.1596499999999992
0
LINE
8
User.Drawings
6
CONTINUOUS
10
129.4062739999999962
20
-61.1596499999999992
11
129.5973620000000039
21
-61.0804979999999986
0
LINE
8
User.Drawings
6
CONTINUOUS
10
129.5973620000000039
20
-61.0804979999999986
11
129.7693359999999814
21
-60.9655889999999943
0
LINE
8
User.Drawings
6
CONTINUOUS
10
129.7693359999999814
20
-60.9655889999999943
11
129.9155889999999829
21
-60.8193359999999998
0
LINE
8
User.Drawings
6
CONTINUOUS
10
129.9155889999999829
20
-60.8193359999999998
11
130.0304979999999944
21
-60.647361999999994
0
LINE
8
User.Drawings
6
CONTINUOUS
10
130.0304979999999944
20
-60.647361999999994
11
130.1096499999999878
21
-60.4562740000000005
0
LINE
8
User.Drawings
6
CONTINUOUS
10
130.1096499999999878
20
-60.4562740000000005
11
130.1500000000000057
21
-60.2534159999999943
0
LINE
8
User.Drawings
6
CONTINUOUS
10
130.1500000000000057
20
-60.2534159999999943
11
130.1500000000000057
21
-60.0465839999999957
0
LINE
8
User.Drawings
6
CONTINUOUS
10
130.1500000000000057
20
-60.0465839999999957
11
130.1096499999999878
21
-59.8437259999999966
0
LINE
8
User.Drawings
6
CONTINUOUS
10
130.1096499999999878
20
-59.8437259999999966
11
130.0304979999999944
21
-59.6526379999999961
0
LINE
8
User.Drawings
6
CONTINUOUS
10
130.0304979999999944
20
-59.6526379999999961
11
129.9155889999999829
21
-59.4806639999999973
0
LINE
8
User.Drawings
6
CONTINUOUS
10
129.9155889999999829
20
-59.4806639999999973
11
129.7693359999999814
21
-59.3344109999999958
0
LINE
8
User.Drawings
6
CONTINUOUS
10
129.7693359999999814
20
-59.3344109999999958
11
129.5973620000000039
21
-59.2195019999999985
0
LINE
8
User.Drawings
6
CONTINUOUS
10
129.5973620000000039
20
-59.2195019999999985
11
129.4062739999999962
21
-59.140349999999998
0
LINE
8
User.Drawings
6
CONTINUOUS
10
129.4062739999999962
20
-59.140349999999998
11
129.2034160000000043
21
-59.0999999999999943
0
LINE
8
User.Drawings
6
CONTINUOUS
10
129.2034160000000043
20
-59.0999999999999943
11
128.9965839999999844
21
-59.0999999999999943
0
LINE
8
User.Drawings
6
CONTINUOUS
10
128.9965839999999844
20
-59.0999999999999943
11
128.7937259999999924
21
-59.140349999999998
0
LINE
8
User.Drawings
6
CONTINUOUS
10
128.7937259999999924
20
-59.140349999999998
11
128.6026379999999847
21
-59.2195019999999985
0
LINE
8
User.Drawings
6
CONTINUOUS
10
128.6026379999999847
20
-59.2195019999999985
11
128.4306640000000073
21
-59.3344109999999958
0
LINE
8
User.Drawings
6
CONTINUOUS
10
128.4306640000000073
20
-59.3344109999999958
11
128.2844110000000057
21
-59.4806639999999973
0
LINE
8
User.Drawings
6
CONTINUOUS
10
128.2844110000000057
20
-59.4806639999999973
11
128.1695019999999943
21
-59.6526379999999961
0
LINE
8
User.Drawings
6
CONTINUOUS
10
128.1695019999999943
20
-59.6526379999999961
11
128.0903500000000008
21
-59.8437259999999966
0
LINE
8
User.Drawings
6
CONTINUOUS
10
128.0903500000000008
20
-59.8437259999999966
11
128.0499999999999829
21
-60.0465839999999957
0
LINE
8
User.Drawings
6
CONTINUOUS
10
128.0499999999999829
20
-60.0465839999999957
11
128.0499999999999829
21
-60.2534159999999943
0
LINE
8
User.Drawings
6
CONTINUOUS
10
129.3684619999999938
20
-34.731774999999999
11
129.5400860000000023
21
-34.7875389999999953
0
LINE
8
User.Drawings
6
CONTINUOUS
10
129.5400860000000023
20
-34.7875389999999953
11
129.7008730000000014
21
-34.8694640000000007
0
LINE
8
User.Drawings
6
CONTINUOUS
10
129.7008730000000014
20
-34.8694640000000007
11
129.8468650000000082
21
-34.9755329999999987
0
LINE
8
User.Drawings
6
CONTINUOUS
10
129.8468650000000082
20
-34.9755329999999987
11
129.9744670000000042
21
-35.1031350000000018
0
LINE
8
User.Drawings
6
CONTINUOUS
10
129.9744670000000042
20
-35.1031350000000018
11
130.0805359999999951
21
-35.2491270000000014
0
LINE
8
User.Drawings
6
CONTINUOUS
10
130.0805359999999951
20
-35.2491270000000014
11
130.1624610000000075
21
-35.4099140000000006
0
LINE
8
User.Drawings
6
CONTINUOUS
10
130.1624610000000075
20
-35.4099140000000006
11
130.2182249999999897
21
-35.5815380000000019
0
LINE
8
User.Drawings
6
CONTINUOUS
10
130.2182249999999897
20
-35.5815380000000019
11
130.2464549999999974
21
-35.7597719999999981
0
LINE
8
User.Drawings
6
CONTINUOUS
10
130.2464549999999974
20
-35.7597719999999981
11
130.2464549999999974
21
-35.9402279999999976
0
LINE
8
User.Drawings
6
CONTINUOUS
10
130.2464549999999974
20
-35.9402279999999976
11
130.2182249999999897
21
-36.118462000000001
0
LINE
8
User.Drawings
6
CONTINUOUS
10
130.2182249999999897
20
-36.118462000000001
11
130.1624610000000075
21
-36.2900859999999952
0
LINE
8
User.Drawings
6
CONTINUOUS
10
130.1624610000000075
20
-36.2900859999999952
11
130.0805359999999951
21
-36.4508730000000014
0
LINE
8
User.Drawings
6
CONTINUOUS
10
130.0805359999999951
20
-36.4508730000000014
11
129.9744670000000042
21
-36.5968650000000011
0
LINE
8
User.Drawings
6
CONTINUOUS
10
129.9744670000000042
20
-36.5968650000000011
11
129.8468650000000082
21
-36.7244669999999971
0
LINE
8
User.Drawings
6
CONTINUOUS
10
129.8468650000000082
20
-36.7244669999999971
11
129.7008730000000014
21
-36.8305359999999951
0
LINE
8
User.Drawings
6
CONTINUOUS
10
129.7008730000000014
20
-36.8305359999999951
11
129.5400860000000023
21
-36.9124610000000004
0
LINE
8
User.Drawings
6
CONTINUOUS
10
129.5400860000000023
20
-36.9124610000000004
11
129.3684619999999938
21
-36.9682249999999968
0
LINE
8
User.Drawings
6
CONTINUOUS
10
129.3684619999999938
20
-36.9682249999999968
11
129.1902279999999905
21
-36.9964549999999974
0
LINE
8
User.Drawings
6
CONTINUOUS
10
129.1902279999999905
20
-36.9964549999999974
11
129.0097719999999981
21
-36.9964549999999974
0
LINE
8
User.Drawings
6
CONTINUOUS
10
129.0097719999999981
20
-36.9964549999999974
11
128.8315379999999948
21
-36.9682249999999968
0
LINE
8
User.Drawings
6
CONTINUOUS
10
128.8315379999999948
20
-36.9682249999999968
11
128.6599139999999863
21
-36.9124610000000004
0
LINE
8
User.Drawings
6
CONTINUOUS
10
128.6599139999999863
20
-36.9124610000000004
11
128.4991269999999872
21
-36.8305359999999951
0
LINE
8
User.Drawings
6
CONTINUOUS
10
128.4991269999999872
20
-36.8305359999999951
11
128.3531349999999804
21
-36.7244669999999971
0
LINE
8
User.Drawings
6
CONTINUOUS
10
128.3531349999999804
20
-36.7244669999999971
11
128.2255329999999844
21
-36.5968650000000011
0
LINE
8
User.Drawings
6
CONTINUOUS
10
128.2255329999999844
20
-36.5968650000000011
11
128.1194639999999936
21
-36.4508730000000014
0
LINE
8
User.Drawings
6
CONTINUOUS
10
128.1194639999999936
20
-36.4508730000000014
11
128.0375389999999811
21
-36.2900859999999952
0
LINE
8
User.Drawings
6
CONTINUOUS
10
128.0375389999999811
20
-36.2900859999999952
11
127.981774999999999
21
-36.118462000000001
0
LINE
8
User.Drawings
6
CONTINUOUS
10
127.981774999999999
20
-36.118462000000001
11
127.9535449999999912
21
-35.9402279999999976
0
LINE
8
User.Drawings
6
CONTINUOUS
10
127.9535449999999912
20
-35.9402279999999976
11
127.9535449999999912
21
-35.7597719999999981
0
LINE
8
User.Drawings
6
CONTINUOUS
10
127.9535449999999912
20
-35.7597719999999981
11
127.9556339999999892
21
-35.7465839999999986
0
LINE
8
User.Drawings
6
CONTINUOUS
10
127.9556339999999892
20
-35.7465839999999986
11
127.981774999999999
21
-35.5815380000000019
0
LINE
8
User.Drawings
6
CONTINUOUS
10
127.981774999999999
20
-35.5815380000000019
11
128.0375389999999811
21
-35.4099140000000006
0
LINE
8
User.Drawings
6
CONTINUOUS
10
128.0375389999999811
20
-35.4099140000000006
11
128.1194639999999936
21
-35.2491270000000014
0
LINE
8
User.Drawings
6
CONTINUOUS
10
128.1194639999999936
20
-35.2491270000000014
11
128.2255329999999844
21
-35.1031350000000018
0
LINE
8
User.Drawings
6
CONTINUOUS
10
128.2255329999999844
20
-35.1031350000000018
11
128.3531349999999804
21
-34.9755329999999987
0
LINE
8
User.Drawings
6
CONTINUOUS
10
128.3531349999999804
20
-34.9755329999999987
11
128.4991269999999872
21
-34.8694640000000007
0
LINE
8
User.Drawings
6
CONTINUOUS
10
128.4991269999999872
20
-34.8694640000000007
11
128.6599139999999863
21
-34.7875389999999953
0
LINE
8
User.Drawings
6
CONTINUOUS
10
128.6599139999999863
20
-34.7875389999999953
11
128.8315379999999948
21
-34.731774999999999
0
LINE
8
User.Drawings
6
CONTINUOUS
10
128.8315379999999948
20
-34.731774999999999
11
129.0097719999999981
21
-34.7035449999999983
0
LINE
8
User.Drawings
6
CONTINUOUS
10
129.0097719999999981
20
-34.7035449999999983
11
129.1902279999999905
21
-34.7035449999999983
0
LINE
8
User.Drawings
6
CONTINUOUS
10
129.1902279999999905
20
-34.7035449999999983
11
129.3684619999999938
21
-34.731774999999999
0
LINE
8
User.Drawings
6
CONTINUOUS
10
128.0499999999999829
20
-35.9534159999999972
11
128.0903500000000008
21
-36.1562739999999962
0
LINE
8
User.Drawings
6
CONTINUOUS
10
128.0903500000000008
20
-36.1562739999999962
11
128.1695019999999943
21
-36.3473619999999968
0
LINE
8
User.Drawings
6
CONTINUOUS
10
128.1695019999999943
20
-36.3473619999999968
11
128.2844110000000057
21
-36.5193359999999956
0
LINE
8
User.Drawings
6
CONTINUOUS
10
128.2844110000000057
20
-36.5193359999999956
11
128.4306640000000073
21
-36.6655889999999971
0
LINE
8
User.Drawings
6
CONTINUOUS
10
128.4306640000000073
20
-36.6655889999999971
11
128.6026379999999847
21
-36.7804980000000015
0
LINE
8
User.Drawings
6
CONTINUOUS
10
128.6026379999999847
20
-36.7804980000000015
11
128.7937259999999924
21
-36.8596499999999949
0
LINE
8
User.Drawings
6
CONTINUOUS
10
128.7937259999999924
20
-36.8596499999999949
11
128.9965839999999844
21
-36.8999999999999986
0
LINE
8
User.Drawings
6
CONTINUOUS
10
128.9965839999999844
20
-36.8999999999999986
11
129.2034160000000043
21
-36.8999999999999986
0
LINE
8
User.Drawings
6
CONTINUOUS
10
129.2034160000000043
20
-36.8999999999999986
11
129.4062739999999962
21
-36.8596499999999949
0
LINE
8
User.Drawings
6
CONTINUOUS
10
129.4062739999999962
20
-36.8596499999999949
11
129.5973620000000039
21
-36.7804980000000015
0
LINE
8
User.Drawings
6
CONTINUOUS
10
129.5973620000000039
20
-36.7804980000000015
11
129.7693359999999814
21
-36.6655889999999971
0
LINE
8
User.Drawings
6
CONTINUOUS
10
129.7693359999999814
20
-36.6655889999999971
11
129.9155889999999829
21
-36.5193359999999956
0
LINE
8
User.Drawings
6
CONTINUOUS
10
129.9155889999999829
20
-36.5193359999999956
11
130.0304979999999944
21
-36.3473619999999968
0
LINE
8
User.Drawings
6
CONTINUOUS
10
130.0304979999999944
20
-36.3473619999999968
11
130.1096499999999878
21
-36.1562739999999962
0
LINE
8
User.Drawings
6
CONTINUOUS
10
130.1096499999999878
20
-36.1562739999999962
11
130.1500000000000057
21
-35.9534159999999972
0
LINE
8
User.Drawings
6
CONTINUOUS
10
130.1500000000000057
20
-35.9534159999999972
11
130.1500000000000057
21
-35.7465839999999986
0
LINE
8
User.Drawings
6
CONTINUOUS
10
130.1500000000000057
20
-35.7465839999999986
11
130.1096499999999878
21
-35.5437259999999995
0
LINE
8
User.Drawings
6
CONTINUOUS
10
130.1096499999999878
20
-35.5437259999999995
11
130.0304979999999944
21
-35.3526379999999989
0
LINE
8
User.Drawings
6
CONTINUOUS
10
130.0304979999999944
20
-35.3526379999999989
11
129.9155889999999829
21
-35.1806640000000002
0
LINE
8
User.Drawings
6
CONTINUOUS
10
129.9155889999999829
20
-35.1806640000000002
11
129.7693359999999814
21
-35.0344109999999986
0
LINE
8
User.Drawings
6
CONTINUOUS
10
129.7693359999999814
20
-35.0344109999999986
11
129.5973620000000039
21
-34.9195020000000014
0
LINE
8
User.Drawings
6
CONTINUOUS
10
129.5973620000000039
20
-34.9195020000000014
11
129.4062739999999962
21
-34.8403500000000008
0
LINE
8
User.Drawings
6
CONTINUOUS
10
129.4062739999999962
20
-34.8403500000000008
11
129.2034160000000043
21
-34.7999999999999972
0
LINE
8
User.Drawings
6
CONTINUOUS
10
129.2034160000000043
20
-34.7999999999999972
11
128.9965839999999844
21
-34.7999999999999972
0
LINE
8
User.Drawings
6
CONTINUOUS
10
128.9965839999999844
20
-34.7999999999999972
11
128.7937259999999924
21
-34.8403500000000008
0
LINE
8
User.Drawings
6
CONTINUOUS
10
128.7937259999999924
20
-34.8403500000000008
11
128.6026379999999847
21
-34.9195020000000014
0
LINE
8
User.Drawings
6
CONTINUOUS
10
128.6026379999999847
20
-34.9195020000000014
11
128.4306640000000073
21
-35.0344109999999986
0
LINE
8
User.Drawings
6
CONTINUOUS
10
128.4306640000000073
20
-35.0344109999999986
11
128.2844110000000057
21
-35.1806640000000002
0
LINE
8
User.Drawings
6
CONTINUOUS
10
128.2844110000000057
20
-35.1806640000000002
11
128.1695019999999943
21
-35.3526379999999989
0
LINE
8
User.Drawings
6
CONTINUOUS
10
128.1695019999999943
20
-35.3526379999999989
11
128.0903500000000008
21
-35.5437259999999995
0
LINE
8
User.Drawings
6
CONTINUOUS
10
128.0903500000000008
20
-35.5437259999999995
11
128.0499999999999829
21
-35.7465839999999986
0
LINE
8
User.Drawings
6
CONTINUOUS
10
128.0499999999999829
20
-35.7465839999999986
11
128.0499999999999829
21
-35.9534159999999972
0
LINE
8
User.Drawings
6
CONTINUOUS
10
141.1111139999999864
20
-29.8337059999999994
11
141.1662939999999935
21
-29.8888859999999994
0
LINE
8
User.Drawings
6
CONTINUOUS
10
141.1662939999999935
20
-29.8888859999999994
11
141.1916080000000022
21
-29.9499989999999983
0
LINE
8
User.Drawings
6
CONTINUOUS
10
141.1916080000000022
20
-29.9499989999999983
11
141.25
21
-29.9499999999999993
0
LINE
8
User.Drawings
6
CONTINUOUS
10
141.25
20
-29.9499999999999993
11
141.2691339999999798
21
-29.9538060000000002
0
LINE
8
User.Drawings
6
CONTINUOUS
10
141.2691339999999798
20
-29.9538060000000002
11
141.2961939999999856
21
-29.9808659999999989
0
LINE
8
User.Drawings
6
CONTINUOUS
10
141.2961939999999856
20
-29.9808659999999989
11
141.2961939999999856
21
-30.0191339999999975
0
LINE
8
User.Drawings
6
CONTINUOUS
10
141.2961939999999856
20
-30.0191339999999975
11
141.2691339999999798
21
-30.0461939999999998
0
LINE
8
User.Drawings
6
CONTINUOUS
10
141.2691339999999798
20
-30.0461939999999998
11
141.25
21
-30.0499999999999972
0
LINE
8
User.Drawings
6
CONTINUOUS
10
141.25
20
-30.0499999999999972
11
141.1999999999999886
21
-30.0499989999999997
0
LINE
8
User.Drawings
6
CONTINUOUS
10
141.1999999999999886
20
-30.0499989999999997
11
141.1999999999999886
21
-35.9999989999999954
0
LINE
8
User.Drawings
6
CONTINUOUS
10
141.1999999999999886
20
-35.9999989999999954
11
141.1961569999999995
21
-36.0390170000000012
0
LINE
8
User.Drawings
6
CONTINUOUS
10
141.1961569999999995
20
-36.0390170000000012
11
141.1662939999999935
21
-36.111112999999996
0
LINE
8
User.Drawings
6
CONTINUOUS
10
141.1662939999999935
20
-36.111112999999996
11
141.1111139999999864
21
-36.166292999999996
0
LINE
8
User.Drawings
6
CONTINUOUS
10
141.1111139999999864
20
-36.166292999999996
11
141.0390179999999987
21
-36.1961559999999949
0
LINE
8
User.Drawings
6
CONTINUOUS
10
141.0390179999999987
20
-36.1961559999999949
11
141.
21
-36.1999989999999983
0
LINE
8
User.Drawings
6
CONTINUOUS
10
141.
20
-36.1999989999999983
11
135.192514999999986
21
-36.1999989999999983
0
LINE
8
User.Drawings
6
CONTINUOUS
10
135.192514999999986
20
-36.1999989999999983
11
135.1826629999999909
21
-36.463325999999995
0
LINE
8
User.Drawings
6
CONTINUOUS
10
135.1826629999999909
20
-36.463325999999995
11
135.1307500000000061
21
-36.9240610000000018
0
LINE
8
User.Drawings
6
CONTINUOUS
10
135.1307500000000061
20
-36.9240610000000018
11
135.0445519999999817
21
-37.3796290000000013
0
LINE
8
User.Drawings
6
CONTINUOUS
10
135.0445519999999817
20
-37.3796290000000013
11
134.9245509999999797
21
-37.8274809999999988
0
LINE
8
User.Drawings
6
CONTINUOUS
10
134.9245509999999797
20
-37.8274809999999988
11
134.7714169999999854
21
-38.2651129999999995
0
LINE
8
User.Drawings
6
CONTINUOUS
10
134.7714169999999854
20
-38.2651129999999995
11
134.5860059999999976
21
-38.6900779999999997
0
LINE
8
User.Drawings
6
CONTINUOUS
10
134.5860059999999976
20
-38.6900779999999997
11
134.3693570000000079
21
-39.0999989999999968
0
LINE
8
User.Drawings
6
CONTINUOUS
10
134.3693570000000079
20
-39.0999989999999968
11
134.1226800000000026
21
-39.4925840000000008
0
LINE
8
User.Drawings
6
CONTINUOUS
10
134.1226800000000026
20
-39.4925840000000008
11
133.8473549999999932
21
-39.865635999999995
0
LINE
8
User.Drawings
6
CONTINUOUS
10
133.8473549999999932
20
-39.865635999999995
11
133.544920999999988
21
-40.2170699999999997
0
LINE
8
User.Drawings
6
CONTINUOUS
10
133.544920999999988
20
-40.2170699999999997
11
133.2170700000000068
21
-40.5449209999999951
0
LINE
8
User.Drawings
6
CONTINUOUS
10
133.2170700000000068
20
-40.5449209999999951
11
132.865635999999995
21
-40.8473550000000003
0
LINE
8
User.Drawings
6
CONTINUOUS
10
132.865635999999995
20
-40.8473550000000003
11
132.4925839999999937
21
-41.1226799999999955
0
LINE
8
User.Drawings
6
CONTINUOUS
10
132.4925839999999937
20
-41.1226799999999955
11
132.0999989999999968
21
-41.3693570000000008
0
LINE
8
User.Drawings
6
CONTINUOUS
10
132.0999989999999968
20
-41.3693570000000008
11
131.6900779999999997
21
-41.5860059999999976
0
LINE
8
User.Drawings
6
CONTINUOUS
10
131.6900779999999997
20
-41.5860059999999976
11
131.2651129999999853
21
-41.7714169999999996
0
LINE
8
User.Drawings
6
CONTINUOUS
10
131.2651129999999853
20
-41.7714169999999996
11
130.8274810000000059
21
-41.924551000000001
0
LINE
8
User.Drawings
6
CONTINUOUS
10
130.8274810000000059
20
-41.924551000000001
11
130.3796289999999942
21
-42.0445519999999959
0
LINE
8
User.Drawings
6
CONTINUOUS
10
130.3796289999999942
20
-42.0445519999999959
11
129.9240609999999947
21
-42.130749999999999
0
LINE
8
User.Drawings
6
CONTINUOUS
10
129.9240609999999947
20
-42.130749999999999
11
129.463325999999995
21
-42.182662999999998
0
LINE
8
User.Drawings
6
CONTINUOUS
10
129.463325999999995
20
-42.182662999999998
11
128.9999990000000025
21
-42.1999989999999983
0
LINE
8
User.Drawings
6
CONTINUOUS
10
128.9999990000000025
20
-42.1999989999999983
11
128.8427539999999851
21
-42.1999989999999983
0
LINE
8
User.Drawings
6
CONTINUOUS
10
128.8427539999999851
20
-42.1999989999999983
11
128.5302429999999845
21
-42.2352109999999996
0
LINE
8
User.Drawings
6
CONTINUOUS
10
128.5302429999999845
20
-42.2352109999999996
11
128.223637999999994
21
-42.3051910000000007
0
LINE
8
User.Drawings
6
CONTINUOUS
10
128.223637999999994
20
-42.3051910000000007
11
127.9267969999999934
21
-42.4090599999999966
0
LINE
8
User.Drawings
6
CONTINUOUS
10
127.9267969999999934
20
-42.4090599999999966
11
127.6434519999999964
21
-42.5455119999999951
0
LINE
8
User.Drawings
6
CONTINUOUS
10
127.6434519999999964
20
-42.5455119999999951
11
127.377167
21
-42.7128310000000013
0
LINE
8
User.Drawings
6
CONTINUOUS
10
127.377167
20
-42.7128310000000013
11
127.1312889999999953
21
-42.9089120000000008
0
LINE
8
User.Drawings
6
CONTINUOUS
10
127.1312889999999953
20
-42.9089120000000008
11
126.9089120000000008
21
-43.1312889999999953
0
LINE
8
User.Drawings
6
CONTINUOUS
10
126.9089120000000008
20
-43.1312889999999953
11
126.7128309999999942
21
-43.377167
0
LINE
8
User.Drawings
6
CONTINUOUS
10
126.7128309999999942
20
-43.377167
11
126.545511999999988
21
-43.6434519999999964
0
LINE
8
User.Drawings
6
CONTINUOUS
10
126.545511999999988
20
-43.6434519999999964
11
126.4090599999999966
21
-43.9267970000000005
0
LINE
8
User.Drawings
6
CONTINUOUS
10
126.4090599999999966
20
-43.9267970000000005
11
126.3051909999999936
21
-44.2236380000000011
0
LINE
8
User.Drawings
6
CONTINUOUS
10
126.3051909999999936
20
-44.2236380000000011
11
126.2352109999999925
21
-44.5302429999999987
0
LINE
8
User.Drawings
6
CONTINUOUS
10
126.2352109999999925
20
-44.5302429999999987
11
126.1999989999999912
21
-44.8427539999999993
0
LINE
8
User.Drawings
6
CONTINUOUS
10
126.1999989999999912
20
-44.8427539999999993
11
126.1999989999999912
21
-44.9999989999999954
0
LINE
8
User.Drawings
6
CONTINUOUS
10
126.1999989999999912
20
-44.9999989999999954
11
126.1999989999999912
21
-50.9999989999999954
0
LINE
8
User.Drawings
6
CONTINUOUS
10
126.1999989999999912
20
-50.9999989999999954
11
126.1999989999999912
21
-51.1572439999999986
0
LINE
8
User.Drawings
6
CONTINUOUS
10
126.1999989999999912
20
-51.1572439999999986
11
126.2352109999999925
21
-51.4697549999999993
0
LINE
8
User.Drawings
6
CONTINUOUS
10
126.2352109999999925
20
-51.4697549999999993
11
126.3051909999999936
21
-51.7763599999999968
0
LINE
8
User.Drawings
6
CONTINUOUS
10
126.3051909999999936
20
-51.7763599999999968
11
126.4090599999999966
21
-52.0732009999999974
0
LINE
8
User.Drawings
6
CONTINUOUS
10
126.4090599999999966
20
-52.0732009999999974
11
126.545511999999988
21
-52.3565459999999945
0
LINE
8
User.Drawings
6
CONTINUOUS
10
126.545511999999988
20
-52.3565459999999945
11
126.7128309999999942
21
-52.6228309999999979
0
LINE
8
User.Drawings
6
CONTINUOUS
10
126.7128309999999942
20
-52.6228309999999979
11
126.9089120000000008
21
-52.8687089999999955
0
LINE
8
User.Drawings
6
CONTINUOUS
10
126.9089120000000008
20
-52.8687089999999955
11
127.1312889999999953
21
-53.0910859999999971
0
LINE
8
User.Drawings
6
CONTINUOUS
10
127.1312889999999953
20
-53.0910859999999971
11
127.377167
21
-53.2871669999999966
0
LINE
8
User.Drawings
6
CONTINUOUS
10
127.377167
20
-53.2871669999999966
11
127.6434519999999964
21
-53.4544859999999957
0
LINE
8
User.Drawings
6
CONTINUOUS
10
127.6434519999999964
20
-53.4544859999999957
11
127.9267969999999934
21
-53.5909379999999942
0
LINE
8
User.Drawings
6
CONTINUOUS
10
127.9267969999999934
20
-53.5909379999999942
11
128.223637999999994
21
-53.6948069999999973
0
LINE
8
User.Drawings
6
CONTINUOUS
10
128.223637999999994
20
-53.6948069999999973
11
128.5302429999999845
21
-53.7647869999999983
0
LINE
8
User.Drawings
6
CONTINUOUS
10
128.5302429999999845
20
-53.7647869999999983
11
128.8427539999999851
21
-53.7999989999999997
0
LINE
8
User.Drawings
6
CONTINUOUS
10
128.8427539999999851
20
-53.7999989999999997
11
128.9999990000000025
21
-53.7999989999999997
0
LINE
8
User.Drawings
6
CONTINUOUS
10
128.9999990000000025
20
-53.7999989999999997
11
129.4864450000000033
21
-53.819111999999997
0
LINE
8
User.Drawings
6
CONTINUOUS
10
129.4864450000000033
20
-53.819111999999997
11
129.9698929999999848
21
-53.8763310000000004
0
LINE
8
User.Drawings
6
CONTINUOUS
10
129.9698929999999848
20
-53.8763310000000004
11
130.4473600000000033
21
-53.971305000000001
0
LINE
8
User.Drawings
6
CONTINUOUS
10
130.4473600000000033
20
-53.971305000000001
11
130.9159039999999834
21
-54.1034489999999977
0
LINE
8
User.Drawings
6
CONTINUOUS
10
130.9159039999999834
20
-54.1034489999999977
11
131.372636
21
-54.2719459999999998
0
LINE
8
User.Drawings
6
CONTINUOUS
10
131.372636
20
-54.2719459999999998
11
131.8147400000000005
21
-54.4757589999999965
0
LINE
8
User.Drawings
6
CONTINUOUS
10
131.8147400000000005
20
-54.4757589999999965
11
132.2394899999999893
21
-54.7136299999999949
0
LINE
8
User.Drawings
6
CONTINUOUS
10
132.2394899999999893
20
-54.7136299999999949
11
132.6442679999999825
21
-54.9840939999999989
0
LINE
8
User.Drawings
6
CONTINUOUS
10
132.6442679999999825
20
-54.9840939999999989
11
133.0265770000000032
21
-55.2854819999999947
0
LINE
8
User.Drawings
6
CONTINUOUS
10
133.0265770000000032
20
-55.2854819999999947
11
133.3840610000000027
21
-55.6159369999999953
0
LINE
8
User.Drawings
6
CONTINUOUS
10
133.3840610000000027
20
-55.6159369999999953
11
133.7145160000000033
21
-55.9734209999999948
0
LINE
8
User.Drawings
6
CONTINUOUS
10
133.7145160000000033
20
-55.9734209999999948
11
134.0159040000000061
21
-56.3557299999999941
0
LINE
8
User.Drawings
6
CONTINUOUS
10
134.0159040000000061
20
-56.3557299999999941
11
134.2863679999999817
21
-56.7605079999999944
0
LINE
8
User.Drawings
6
CONTINUOUS
10
134.2863679999999817
20
-56.7605079999999944
11
134.5242389999999943
21
-57.1852579999999975
0
LINE
8
User.Drawings
6
CONTINUOUS
10
134.5242389999999943
20
-57.1852579999999975
11
134.728051999999991
21
-57.627361999999998
0
LINE
8
User.Drawings
6
CONTINUOUS
10
134.728051999999991
20
-57.627361999999998
11
134.8965489999999932
21
-58.0840940000000003
0
LINE
8
User.Drawings
6
CONTINUOUS
10
134.8965489999999932
20
-58.0840940000000003
11
135.0286930000000041
21
-58.5526379999999946
0
LINE
8
User.Drawings
6
CONTINUOUS
10
135.0286930000000041
20
-58.5526379999999946
11
135.1236669999999833
21
-59.0301049999999989
0
LINE
8
User.Drawings
6
CONTINUOUS
10
135.1236669999999833
20
-59.0301049999999989
11
135.1808859999999868
21
-59.5135529999999946
0
LINE
8
User.Drawings
6
CONTINUOUS
10
135.1808859999999868
20
-59.5135529999999946
11
135.1999989999999912
21
-59.9999989999999954
0
LINE
8
User.Drawings
6
CONTINUOUS
10
135.1999989999999912
20
-59.9999989999999954
11
135.1808859999999868
21
-60.4864449999999962
0
LINE
8
User.Drawings
6
CONTINUOUS
10
135.1808859999999868
20
-60.4864449999999962
11
135.1236669999999833
21
-60.969892999999999
0
LINE
8
User.Drawings
6
CONTINUOUS
10
135.1236669999999833
20
-60.969892999999999
11
135.0286930000000041
21
-61.4473599999999962
0
LINE
8
User.Drawings
6
CONTINUOUS
10
135.0286930000000041
20
-61.4473599999999962
11
134.8965489999999932
21
-61.9159039999999976
0
LINE
8
User.Drawings
6
CONTINUOUS
10
134.8965489999999932
20
-61.9159039999999976
11
134.728051999999991
21
-62.372636
0
LINE
8
User.Drawings
6
CONTINUOUS
10
134.728051999999991
20
-62.372636
11
134.5242389999999943
21
-62.8147400000000005
0
LINE
8
User.Drawings
6
CONTINUOUS
10
134.5242389999999943
20
-62.8147400000000005
11
134.2863679999999817
21
-63.2394899999999964
0
LINE
8
User.Drawings
6
CONTINUOUS
10
134.2863679999999817
20
-63.2394899999999964
11
134.0159040000000061
21
-63.6442679999999967
0
LINE
8
User.Drawings
6
CONTINUOUS
10
134.0159040000000061
20
-63.6442679999999967
11
133.7145160000000033
21
-64.0265770000000032
0
LINE
8
User.Drawings
6
CONTINUOUS
10
133.7145160000000033
20
-64.0265770000000032
11
133.3840610000000027
21
-64.3840610000000027
0
LINE
8
User.Drawings
6
CONTINUOUS
10
133.3840610000000027
20
-64.3840610000000027
11
133.0265770000000032
21
-64.7145160000000033
0
LINE
8
User.Drawings
6
CONTINUOUS
10
133.0265770000000032
20
-64.7145160000000033
11
132.6442679999999825
21
-65.0159039999999919
0
LINE
8
User.Drawings
6
CONTINUOUS
10
132.6442679999999825
20
-65.0159039999999919
11
132.2394899999999893
21
-65.286367999999996
0
LINE
8
User.Drawings
6
CONTINUOUS
10
132.2394899999999893
20
-65.286367999999996
11
131.8147400000000005
21
-65.5242389999999943
0
LINE
8
User.Drawings
6
CONTINUOUS
10
131.8147400000000005
20
-65.5242389999999943
11
131.372636
21
-65.728051999999991
0
LINE
8
User.Drawings
6
CONTINUOUS
10
131.372636
20
-65.728051999999991
11
130.9159039999999834
21
-65.8965489999999932
0
LINE
8
User.Drawings
6
CONTINUOUS
10
130.9159039999999834
20
-65.8965489999999932
11
130.4473600000000033
21
-66.0286930000000041
0
LINE
8
User.Drawings
6
CONTINUOUS
10
130.4473600000000033
20
-66.0286930000000041
11
129.9698929999999848
21
-66.1236669999999975
0
LINE
8
User.Drawings
6
CONTINUOUS
10
129.9698929999999848
20
-66.1236669999999975
11
129.4864450000000033
21
-66.180886000000001
0
LINE
8
User.Drawings
6
CONTINUOUS
10
129.4864450000000033
20
-66.180886000000001
11
128.9999990000000025
21
-66.1999989999999912
0
LINE
8
User.Drawings
6
CONTINUOUS
10
128.9999990000000025
20
-66.1999989999999912
11
128.8427539999999851
21
-66.1999989999999912
0
LINE
8
User.Drawings
6
CONTINUOUS
10
128.8427539999999851
20
-66.1999989999999912
11
128.5302429999999845
21
-66.2352109999999925
0
LINE
8
User.Drawings
6
CONTINUOUS
10
128.5302429999999845
20
-66.2352109999999925
11
128.223637999999994
21
-66.3051909999999936
0
LINE
8
User.Drawings
6
CONTINUOUS
10
128.223637999999994
20
-66.3051909999999936
11
127.9267969999999934
21
-66.4090599999999966
0
LINE
8
User.Drawings
6
CONTINUOUS
10
127.9267969999999934
20
-66.4090599999999966
11
127.6434519999999964
21
-66.5455120000000022
0
LINE
8
User.Drawings
6
CONTINUOUS
10
127.6434519999999964
20
-66.5455120000000022
11
127.377167
21
-66.7128309999999942
0
LINE
8
User.Drawings
6
CONTINUOUS
10
127.377167
20
-66.7128309999999942
11
127.1312889999999953
21
-66.9089120000000008
0
LINE
8
User.Drawings
6
CONTINUOUS
10
127.1312889999999953
20
-66.9089120000000008
11
126.9089120000000008
21
-67.1312889999999953
0
LINE
8
User.Drawings
6
CONTINUOUS
10
126.9089120000000008
20
-67.1312889999999953
11
126.7128309999999942
21
-67.377167
0
LINE
8
User.Drawings
6
CONTINUOUS
10
126.7128309999999942
20
-67.377167
11
126.545511999999988
21
-67.6434519999999964
0
LINE
8
User.Drawings
6
CONTINUOUS
10
126.545511999999988
20
-67.6434519999999964
11
126.4090599999999966
21
-67.9267969999999934
0
LINE
8
User.Drawings
6
CONTINUOUS
10
126.4090599999999966
20
-67.9267969999999934
11
126.3051909999999936
21
-68.223637999999994
0
LINE
8
User.Drawings
6
CONTINUOUS
10
126.3051909999999936
20
-68.223637999999994
11
126.2352109999999925
21
-68.5302429999999987
0
LINE
8
User.Drawings
6
CONTINUOUS
10
126.2352109999999925
20
-68.5302429999999987
11
126.1999989999999912
21
-68.8427539999999993
0
LINE
8
User.Drawings
6
CONTINUOUS
10
126.1999989999999912
20
-68.8427539999999993
11
126.1999989999999912
21
-68.9999990000000025
0
LINE
8
User.Drawings
6
CONTINUOUS
10
126.1999989999999912
20
-68.9999990000000025
11
126.1999989999999912
21
-97.8074819999999931
0
LINE
8
User.Drawings
6
CONTINUOUS
10
126.1999989999999912
20
-97.8074819999999931
11
126.463325999999995
21
-97.8173349999999999
0
LINE
8
User.Drawings
6
CONTINUOUS
10
126.463325999999995
20
-97.8173349999999999
11
126.9240609999999947
21
-97.8692479999999989
0
LINE
8
User.Drawings
6
CONTINUOUS
10
126.9240609999999947
20
-97.8692479999999989
11
127.3796289999999942
21
-97.9554459999999949
0
LINE
8
User.Drawings
6
CONTINUOUS
10
127.3796289999999942
20
-97.9554459999999949
11
127.8274809999999917
21
-98.0754469999999969
0
LINE
8
User.Drawings
6
CONTINUOUS
10
127.8274809999999917
20
-98.0754469999999969
11
128.2651129999999853
21
-98.2285809999999913
0
LINE
8
User.Drawings
6
CONTINUOUS
10
128.2651129999999853
20
-98.2285809999999913
11
128.6900779999999997
21
-98.4139919999999933
0
LINE
8
User.Drawings
6
CONTINUOUS
10
128.6900779999999997
20
-98.4139919999999933
11
129.0999989999999968
21
-98.6306409999999971
0
LINE
8
User.Drawings
6
CONTINUOUS
10
129.0999989999999968
20
-98.6306409999999971
11
129.4925839999999937
21
-98.8773180000000025
0
LINE
8
User.Drawings
6
CONTINUOUS
10
129.4925839999999937
20
-98.8773180000000025
11
129.865635999999995
21
-99.1526429999999976
0
LINE
8
User.Drawings
6
CONTINUOUS
10
129.865635999999995
20
-99.1526429999999976
11
130.2170700000000068
21
-99.4550769999999886
0
LINE
8
User.Drawings
6
CONTINUOUS
10
130.2170700000000068
20
-99.4550769999999886
11
130.544920999999988
21
-99.7829279999999983
0
LINE
8
User.Drawings
6
CONTINUOUS
10
130.544920999999988
20
-99.7829279999999983
11
130.8473549999999932
21
-100.1343619999999959
0
LINE
8
User.Drawings
6
CONTINUOUS
10
130.8473549999999932
20
-100.1343619999999959
11
131.1226800000000026
21
-100.5074139999999971
0
LINE
8
User.Drawings
6
CONTINUOUS
10
131.1226800000000026
20
-100.5074139999999971
11
131.3693570000000079
21
-100.899998999999994
0
LINE
8
User.Drawings
6
CONTINUOUS
10
131.3693570000000079
20
-100.899998999999994
11
131.5860059999999976
21
-101.3099199999999911
0
LINE
8
User.Drawings
6
CONTINUOUS
10
131.5860059999999976
20
-101.3099199999999911
11
131.7714169999999854
21
-101.7348849999999914
0
LINE
8
User.Drawings
6
CONTINUOUS
10
131.7714169999999854
20
-101.7348849999999914
11
131.9245510000000081
21
-102.1725169999999991
0
LINE
8
User.Drawings
6
CONTINUOUS
10
131.9245510000000081
20
-102.1725169999999991
11
132.0445519999999817
21
-102.6203689999999966
0
LINE
8
User.Drawings
6
CONTINUOUS
10
132.0445519999999817
20
-102.6203689999999966
11
132.1307500000000061
21
-103.0759369999999961
0
LINE
8
User.Drawings
6
CONTINUOUS
10
132.1307500000000061
20
-103.0759369999999961
11
132.1826629999999909
21
-103.5366719999999958
0
LINE
8
User.Drawings
6
CONTINUOUS
10
132.1826629999999909
20
-103.5366719999999958
11
132.1925159999999835
21
-103.7999989999999997
0
LINE
8
User.Drawings
6
CONTINUOUS
10
132.1925159999999835
20
-103.7999989999999997
11
134.9999990000000025
21
-103.7999989999999997
0
LINE
8
User.Drawings
6
CONTINUOUS
10
134.9999990000000025
20
-103.7999989999999997
11
135.0390170000000012
21
-103.8038419999999888
0
LINE
8
User.Drawings
6
CONTINUOUS
10
135.0390170000000012
20
-103.8038419999999888
11
135.1111129999999889
21
-103.8337049999999948
0
LINE
8
User.Drawings
6
CONTINUOUS
10
135.1111129999999889
20
-103.8337049999999948
11
135.166292999999996
21
-103.8888850000000019
0
LINE
8
User.Drawings
6
CONTINUOUS
10
135.166292999999996
20
-103.8888850000000019
11
135.196156000000002
21
-103.9609809999999896
0
LINE
8
User.Drawings
6
CONTINUOUS
10
135.196156000000002
20
-103.9609809999999896
11
135.1999989999999912
21
-103.9999989999999883
0
LINE
8
User.Drawings
6
CONTINUOUS
10
135.1999989999999912
20
-103.9999989999999883
11
135.1999989999999912
21
-109.9999989999999883
0
LINE
8
User.Drawings
6
CONTINUOUS
10
135.1999989999999912
20
-109.9999989999999883
11
135.196156000000002
21
-110.0390170000000012
0
LINE
8
User.Drawings
6
CONTINUOUS
10
135.196156000000002
20
-110.0390170000000012
11
135.166292999999996
21
-110.1111129999999889
0
LINE
8
User.Drawings
6
CONTINUOUS
10
135.166292999999996
20
-110.1111129999999889
11
135.1111129999999889
21
-110.166292999999996
0
LINE
8
User.Drawings
6
CONTINUOUS
10
135.1111129999999889
20
-110.166292999999996
11
135.0390170000000012
21
-110.196156000000002
0
LINE
8
User.Drawings
6
CONTINUOUS
10
135.0390170000000012
20
-110.196156000000002
11
134.9609810000000039
21
-110.196156000000002
0
LINE
8
User.Drawings
6
CONTINUOUS
10
134.9609810000000039
20
-110.196156000000002
11
134.8888849999999877
21
-110.166292999999996
0
LINE
8
User.Drawings
6
CONTINUOUS
10
134.8888849999999877
20
-110.166292999999996
11
134.8337049999999806
21
-110.1111129999999889
0
LINE
8
User.Drawings
6
CONTINUOUS
10
134.8337049999999806
20
-110.1111129999999889
11
134.8083900000000028
21
-110.0499989999999997
0
LINE
8
User.Drawings
6
CONTINUOUS
10
134.8083900000000028
20
-110.0499989999999997
11
126.
21
-110.0499999999999972
0
LINE
8
User.Drawings
6
CONTINUOUS
10
126.
20
-110.0499999999999972
11
125.5253219999999885
21
-110.0313499999999891
0
LINE
8
User.Drawings
6
CONTINUOUS
10
125.5253219999999885
20
-110.0313499999999891
11
125.0535709999999909
21
-109.9755150000000015
0
LINE
8
User.Drawings
6
CONTINUOUS
10
125.0535709999999909
20
-109.9755150000000015
11
124.587654999999998
21
-109.8828379999999925
0
LINE
8
User.Drawings
6
CONTINUOUS
10
124.587654999999998
20
-109.8828379999999925
11
124.1304469999999895
21
-109.7538919999999933
0
LINE
8
User.Drawings
6
CONTINUOUS
10
124.1304469999999895
20
-109.7538919999999933
11
123.6847649999999987
21
-109.589470999999989
0
LINE
8
User.Drawings
6
CONTINUOUS
10
123.6847649999999987
20
-109.589470999999989
11
123.2533569999999941
21
-109.3905899999999889
0
LINE
8
User.Drawings
6
CONTINUOUS
10
123.2533569999999941
20
-109.3905899999999889
11
122.8388829999999956
21
-109.1584730000000008
0
LINE
8
User.Drawings
6
CONTINUOUS
10
122.8388829999999956
20
-109.1584730000000008
11
122.4438989999999876
21
-108.8945530000000019
0
LINE
8
User.Drawings
6
CONTINUOUS
10
122.4438989999999876
20
-108.8945530000000019
11
122.0708389999999923
21
-108.6004559999999941
0
LINE
8
User.Drawings
6
CONTINUOUS
10
122.0708389999999923
20
-108.6004559999999941
11
121.7220039999999983
21
-108.2779960000000017
0
LINE
8
User.Drawings
6
CONTINUOUS
10
121.7220039999999983
20
-108.2779960000000017
11
121.3995439999999917
21
-107.9291609999999935
0
LINE
8
User.Drawings
6
CONTINUOUS
10
121.3995439999999917
20
-107.9291609999999935
11
121.1054469999999981
21
-107.5561009999999982
0
LINE
8
User.Drawings
6
CONTINUOUS
10
121.1054469999999981
20
-107.5561009999999982
11
120.8415269999999992
21
-107.1611169999999902
0
LINE
8
User.Drawings
6
CONTINUOUS
10
120.8415269999999992
20
-107.1611169999999902
11
120.6094099999999969
21
-106.7466429999999917
0
LINE
8
User.Drawings
6
CONTINUOUS
10
120.6094099999999969
20
-106.7466429999999917
11
120.4105289999999968
21
-106.3152350000000013
0
LINE
8
User.Drawings
6
CONTINUOUS
10
120.4105289999999968
20
-106.3152350000000013
11
120.2461079999999924
21
-105.8695529999999962
0
LINE
8
User.Drawings
6
CONTINUOUS
10
120.2461079999999924
20
-105.8695529999999962
11
120.1171619999999933
21
-105.412345000000002
0
LINE
8
User.Drawings
6
CONTINUOUS
10
120.1171619999999933
20
-105.412345000000002
11
120.0244849999999985
21
-104.9464289999999949
0
LINE
8
User.Drawings
6
CONTINUOUS
10
120.0244849999999985
20
-104.9464289999999949
11
119.9686499999999967
21
-104.4746779999999973
0
LINE
8
User.Drawings
6
CONTINUOUS
10
119.9686499999999967
20
-104.4746779999999973
11
119.9499999999999886
21
-104.
0
LINE
8
User.Drawings
6
CONTINUOUS
10
119.9499999999999886
20
-104.
11
119.9499999999999886
21
-103.9999989999999883
0
LINE
8
User.Drawings
6
CONTINUOUS
10
119.9499999999999886
20
-103.9999989999999883
11
119.9499999999999886
21
-36.
0
LINE
8
User.Drawings
6
CONTINUOUS
10
119.9499999999999886
20
-36.
11
119.9499999999999886
21
-35.9999989999999954
0
LINE
8
User.Drawings
6
CONTINUOUS
10
119.9499999999999886
20
-35.9999989999999954
11
119.9686499999999967
21
-35.5253219999999956
0
LINE
8
User.Drawings
6
CONTINUOUS
10
119.9686499999999967
20
-35.5253219999999956
11
120.0244849999999985
21
-35.053570999999998
0
LINE
8
User.Drawings
6
CONTINUOUS
10
120.0244849999999985
20
-35.053570999999998
11
120.1171619999999933
21
-34.587654999999998
0
LINE
8
User.Drawings
6
CONTINUOUS
10
120.1171619999999933
20
-34.587654999999998
11
120.2461079999999924
21
-34.1304469999999966
0
LINE
8
User.Drawings
6
CONTINUOUS
10
120.2461079999999924
20
-34.1304469999999966
11
120.4105289999999968
21
-33.6847649999999987
0
LINE
8
User.Drawings
6
CONTINUOUS
10
120.4105289999999968
20
-33.6847649999999987
11
120.6094099999999969
21
-33.2533570000000012
0
LINE
8
User.Drawings
6
CONTINUOUS
10
120.6094099999999969
20
-33.2533570000000012
11
120.8415269999999992
21
-32.8388829999999956
0
LINE
8
User.Drawings
6
CONTINUOUS
10
120.8415269999999992
20
-32.8388829999999956
11
121.1054469999999981
21
-32.4438990000000018
0
LINE
8
User.Drawings
6
CONTINUOUS
10
121.1054469999999981
20
-32.4438990000000018
11
121.3995439999999917
21
-32.0708389999999994
0
LINE
8
User.Drawings
6
CONTINUOUS
10
121.3995439999999917
20
-32.0708389999999994
11
121.7220039999999983
21
-31.7220039999999983
0
LINE
8
User.Drawings
6
CONTINUOUS
10
121.7220039999999983
20
-31.7220039999999983
11
122.0708389999999923
21
-31.3995439999999988
0
LINE
8
User.Drawings
6
CONTINUOUS
10
122.0708389999999923
20
-31.3995439999999988
11
122.4438989999999876
21
-31.1054469999999981
0
LINE
8
User.Drawings
6
CONTINUOUS
10
122.4438989999999876
20
-31.1054469999999981
11
122.8388829999999956
21
-30.8415269999999992
0
LINE
8
User.Drawings
6
CONTINUOUS
10
122.8388829999999956
20
-30.8415269999999992
11
123.2533569999999941
21
-30.6094099999999969
0
LINE
8
User.Drawings
6
CONTINUOUS
10
123.2533569999999941
20
-30.6094099999999969
11
123.6847649999999987
21
-30.4105290000000004
0
LINE
8
User.Drawings
6
CONTINUOUS
10
123.6847649999999987
20
-30.4105290000000004
11
124.1304469999999895
21
-30.2461079999999995
0
LINE
8
User.Drawings
6
CONTINUOUS
10
124.1304469999999895
20
-30.2461079999999995
11
124.587654999999998
21
-30.1171619999999969
0
LINE
8
User.Drawings
6
CONTINUOUS
10
124.587654999999998
20
-30.1171619999999969
11
125.0535709999999909
21
-30.0244849999999985
0
LINE
8
User.Drawings
6
CONTINUOUS
10
125.0535709999999909
20
-30.0244849999999985
11
125.5253219999999885
21
-29.9686500000000002
0
LINE
8
User.Drawings
6
CONTINUOUS
10
125.5253219999999885
20
-29.9686500000000002
11
125.9999859999999927
21
-29.9499999999999993
0
LINE
8
User.Drawings
6
CONTINUOUS
10
125.9999859999999927
20
-29.9499999999999993
11
125.9999989999999883
21
-29.9499979999999972
0
LINE
8
User.Drawings
6
CONTINUOUS
10
125.9999989999999883
20
-29.9499979999999972
11
140.8083910000000003
21
-29.9499989999999983
0
LINE
8
User.Drawings
6
CONTINUOUS
10
140.8083910000000003
20
-29.9499989999999983
11
140.8337060000000065
21
-29.8888859999999994
0
LINE
8
User.Drawings
6
CONTINUOUS
10
140.8337060000000065
20
-29.8888859999999994
11
140.8888859999999852
21
-29.8337059999999994
0
LINE
8
User.Drawings
6
CONTINUOUS
10
140.8888859999999852
20
-29.8337059999999994
11
140.9609820000000013
21
-29.803842999999997
0
LINE
8
User.Drawings
6
CONTINUOUS
10
140.9609820000000013
20
-29.803842999999997
11
141.0390179999999987
21
-29.803842999999997
0
LINE
8
User.Drawings
6
CONTINUOUS
10
141.0390179999999987
20
-29.803842999999997
11
141.1111139999999864
21
-29.8337059999999994
0
LINE
8
User.Drawings
6
CONTINUOUS
10
126.
20
-30.0499999999999972
11
125.766223999999994
21
-30.0499999999999972
0
LINE
8
User.Drawings
6
CONTINUOUS
10
125.766223999999994
20
-30.0499999999999972
11
125.3001129999999961
21
-30.0866829999999972
0
LINE
8
User.Drawings
6
CONTINUOUS
10
125.3001129999999961
20
-30.0866829999999972
11
124.8383169999999893
21
-30.1598249999999979
0
LINE
8
User.Drawings
6
CONTINUOUS
10
124.8383169999999893
20
-30.1598249999999979
11
124.3836829999999907
21
-30.268971999999998
0
LINE
8
User.Drawings
6
CONTINUOUS
10
124.3836829999999907
20
-30.268971999999998
11
123.9390140000000002
21
-30.413453999999998
0
LINE
8
User.Drawings
6
CONTINUOUS
10
123.9390140000000002
20
-30.413453999999998
11
123.5070519999999874
21
-30.5923789999999975
0
LINE
8
User.Drawings
6
CONTINUOUS
10
123.5070519999999874
20
-30.5923789999999975
11
123.0904599999999931
21
-30.8046429999999987
0
LINE
8
User.Drawings
6
CONTINUOUS
10
123.0904599999999931
20
-30.8046429999999987
11
122.6918059999999997
21
-31.0489379999999997
0
LINE
8
User.Drawings
6
CONTINUOUS
10
122.6918059999999997
20
-31.0489379999999997
11
122.3135479999999973
21
-31.323758999999999
0
LINE
8
User.Drawings
6
CONTINUOUS
10
122.3135479999999973
20
-31.323758999999999
11
121.9580189999999931
21
-31.6274090000000001
0
LINE
8
User.Drawings
6
CONTINUOUS
10
121.9580189999999931
20
-31.6274090000000001
11
121.6274090000000001
21
-31.9580190000000002
0
LINE
8
User.Drawings
6
CONTINUOUS
10
121.6274090000000001
20
-31.9580190000000002
11
121.3237589999999955
21
-32.3135479999999973
0
LINE
8
User.Drawings
6
CONTINUOUS
10
121.3237589999999955
20
-32.3135479999999973
11
121.0489379999999926
21
-32.6918059999999997
0
LINE
8
User.Drawings
6
CONTINUOUS
10
121.0489379999999926
20
-32.6918059999999997
11
120.8046429999999987
21
-33.0904600000000002
0
LINE
8
User.Drawings
6
CONTINUOUS
10
120.8046429999999987
20
-33.0904600000000002
11
120.592378999999994
21
-33.5070520000000016
0
LINE
8
User.Drawings
6
CONTINUOUS
10
120.592378999999994
20
-33.5070520000000016
11
120.4134540000000015
21
-33.9390140000000002
0
LINE
8
User.Drawings
6
CONTINUOUS
10
120.4134540000000015
20
-33.9390140000000002
11
120.2689719999999909
21
-34.3836829999999978
0
LINE
8
User.Drawings
6
CONTINUOUS
10
120.2689719999999909
20
-34.3836829999999978
11
120.1598249999999979
21
-34.8383169999999964
0
LINE
8
User.Drawings
6
CONTINUOUS
10
120.1598249999999979
20
-34.8383169999999964
11
120.0866829999999936
21
-35.3001129999999961
0
LINE
8
User.Drawings
6
CONTINUOUS
10
120.0866829999999936
20
-35.3001129999999961
11
120.0499999999999972
21
-35.7662240000000011
0
LINE
8
User.Drawings
6
CONTINUOUS
10
120.0499999999999972
20
-35.7662240000000011
11
120.0499999999999972
21
-35.9999989999999954
0
LINE
8
User.Drawings
6
CONTINUOUS
10
120.0499999999999972
20
-35.9999989999999954
11
120.0499999999999972
21
-36.
0
LINE
8
User.Drawings
6
CONTINUOUS
10
120.0499999999999972
20
-36.
11
120.0499999999999972
21
-103.9999989999999883
0
LINE
8
User.Drawings
6
CONTINUOUS
10
120.0499999999999972
20
-103.9999989999999883
11
120.0499999999999972
21
-104.
0
LINE
8
User.Drawings
6
CONTINUOUS
10
120.0499999999999972
20
-104.
11
120.0499999999999972
21
-104.2337759999999918
0
LINE
8
User.Drawings
6
CONTINUOUS
10
120.0499999999999972
20
-104.2337759999999918
11
120.0866829999999936
21
-104.6998869999999897
0
LINE
8
User.Drawings
6
CONTINUOUS
10
120.0866829999999936
20
-104.6998869999999897
11
120.1598249999999979
21
-105.1616829999999965
0
LINE
8
User.Drawings
6
CONTINUOUS
10
120.1598249999999979
20
-105.1616829999999965
11
120.2689719999999909
21
-105.6163169999999951
0
LINE
8
User.Drawings
6
CONTINUOUS
10
120.2689719999999909
20
-105.6163169999999951
11
120.4134540000000015
21
-106.0609859999999998
0
LINE
8
User.Drawings
6
CONTINUOUS
10
120.4134540000000015
20
-106.0609859999999998
11
120.592378999999994
21
-106.4929479999999984
0
LINE
8
User.Drawings
6
CONTINUOUS
10
120.592378999999994
20
-106.4929479999999984
11
120.8046429999999987
21
-106.9095399999999927
0
LINE
8
User.Drawings
6
CONTINUOUS
10
120.8046429999999987
20
-106.9095399999999927
11
121.0489379999999926
21
-107.3081940000000003
0
LINE
8
User.Drawings
6
CONTINUOUS
10
121.0489379999999926
20
-107.3081940000000003
11
121.3237589999999955
21
-107.6864519999999885
0
LINE
8
User.Drawings
6
CONTINUOUS
10
121.3237589999999955
20
-107.6864519999999885
11
121.6274090000000001
21
-108.0419809999999927
0
LINE
8
User.Drawings
6
CONTINUOUS
10
121.6274090000000001
20
-108.0419809999999927
11
121.9580189999999931
21
-108.3725909999999999
0
LINE
8
User.Drawings
6
CONTINUOUS
10
121.9580189999999931
20
-108.3725909999999999
11
122.3135479999999973
21
-108.6762409999999903
0
LINE
8
User.Drawings
6
CONTINUOUS
10
122.3135479999999973
20
-108.6762409999999903
11
122.6918059999999997
21
-108.9510619999999932
0
LINE
8
User.Drawings
6
CONTINUOUS
10
122.6918059999999997
20
-108.9510619999999932
11
123.0904599999999931
21
-109.1953570000000013
0
LINE
8
User.Drawings
6
CONTINUOUS
10
123.0904599999999931
20
-109.1953570000000013
11
123.5070519999999874
21
-109.4076209999999918
0
LINE
8
User.Drawings
6
CONTINUOUS
10
123.5070519999999874
20
-109.4076209999999918
11
123.9390140000000002
21
-109.5865459999999985
0
LINE
8
User.Drawings
6
CONTINUOUS
10
123.9390140000000002
20
-109.5865459999999985
11
124.3836829999999907
21
-109.7310279999999949
0
LINE
8
User.Drawings
6
CONTINUOUS
10
124.3836829999999907
20
-109.7310279999999949
11
124.8383169999999893
21
-109.8401750000000021
0
LINE
8
User.Drawings
6
CONTINUOUS
10
124.8383169999999893
20
-109.8401750000000021
11
125.3001129999999961
21
-109.9133169999999922
0
LINE
8
User.Drawings
6
CONTINUOUS
10
125.3001129999999961
20
-109.9133169999999922
11
125.766223999999994
21
-109.9499999999999886
0
LINE
8
User.Drawings
6
CONTINUOUS
10
125.766223999999994
20
-109.9499999999999886
11
126.
21
-109.9499999999999886
0
LINE
8
User.Drawings
6
CONTINUOUS
10
126.
20
-109.9499999999999886
11
134.7999989999999855
21
-109.9499989999999912
0
LINE
8
User.Drawings
6
CONTINUOUS
10
134.7999989999999855
20
-109.9499989999999912
11
134.7999989999999855
21
-104.1999989999999912
0
LINE
8
User.Drawings
6
CONTINUOUS
10
134.7999989999999855
20
-104.1999989999999912
11
131.9999990000000025
21
-104.1999989999999912
0
LINE
8
User.Drawings
6
CONTINUOUS
10
131.9999990000000025
20
-104.1999989999999912
11
131.9609810000000039
21
-104.196156000000002
0
LINE
8
User.Drawings
6
CONTINUOUS
10
131.9609810000000039
20
-104.196156000000002
11
131.942781999999994
21
-104.1886179999999911
0
LINE
8
User.Drawings
6
CONTINUOUS
10
131.942781999999994
20
-104.1886179999999911
11
131.9234620000000007
21
-104.1847750000000019
0
LINE
8
User.Drawings
6
CONTINUOUS
10
131.9234620000000007
20
-104.1847750000000019
11
131.9070830000000001
21
-104.1738309999999927
0
LINE
8
User.Drawings
6
CONTINUOUS
10
131.9070830000000001
20
-104.1738309999999927
11
131.8888849999999877
21
-104.166292999999996
0
LINE
8
User.Drawings
6
CONTINUOUS
10
131.8888849999999877
20
-104.166292999999996
11
131.8749540000000025
21
-104.1523619999999966
0
LINE
8
User.Drawings
6
CONTINUOUS
10
131.8749540000000025
20
-104.1523619999999966
11
131.8585779999999943
21
-104.1414199999999965
0
LINE
8
User.Drawings
6
CONTINUOUS
10
131.8585779999999943
20
-104.1414199999999965
11
131.8476349999999968
21
-104.1250429999999909
0
LINE
8
User.Drawings
6
CONTINUOUS
10
131.8476349999999968
20
-104.1250429999999909
11
131.8337049999999806
21
-104.1111129999999889
0
LINE
8
User.Drawings
6
CONTINUOUS
10
131.8337049999999806
20
-104.1111129999999889
11
131.8261660000000006
21
-104.0929139999999933
0
LINE
8
User.Drawings
6
CONTINUOUS
10
131.8261660000000006
20
-104.0929139999999933
11
131.8152230000000031
21
-104.0765359999999902
0
LINE
8
User.Drawings
6
CONTINUOUS
10
131.8152230000000031
20
-104.0765359999999902
11
131.8113789999999881
21
-104.0572149999999993
0
LINE
8
User.Drawings
6
CONTINUOUS
10
131.8113789999999881
20
-104.0572149999999993
11
131.8038420000000031
21
-104.0390170000000012
0
LINE
8
User.Drawings
6
CONTINUOUS
10
131.8038420000000031
20
-104.0390170000000012
11
131.8038420000000031
21
-104.0193189999999959
0
LINE
8
User.Drawings
6
CONTINUOUS
10
131.8038420000000031
20
-104.0193189999999959
11
131.7999989999999855
21
-103.9999989999999883
0
LINE
8
User.Drawings
6
CONTINUOUS
10
131.7999989999999855
20
-103.9999989999999883
11
131.7999989999999855
21
-103.7721159999999969
0
LINE
8
User.Drawings
6
CONTINUOUS
10
131.7999989999999855
20
-103.7721159999999969
11
131.7642400000000009
21
-103.3177559999999886
0
LINE
8
User.Drawings
6
CONTINUOUS
10
131.7642400000000009
20
-103.3177559999999886
11
131.6929429999999854
21
-102.8676019999999909
0
LINE
8
User.Drawings
6
CONTINUOUS
10
131.6929429999999854
20
-102.8676019999999909
11
131.5865469999999959
21
-102.424430000000001
0
LINE
8
User.Drawings
6
CONTINUOUS
10
131.5865469999999959
20
-102.424430000000001
11
131.4457069999999987
21
-101.9909710000000018
0
LINE
8
User.Drawings
6
CONTINUOUS
10
131.4457069999999987
20
-101.9909710000000018
11
131.2712939999999833
21
-101.5698989999999924
0
LINE
8
User.Drawings
6
CONTINUOUS
10
131.2712939999999833
20
-101.5698989999999924
11
131.0643809999999974
21
-101.1638090000000005
0
LINE
8
User.Drawings
6
CONTINUOUS
10
131.0643809999999974
20
-101.1638090000000005
11
130.8262440000000026
21
-100.7752049999999997
0
LINE
8
User.Drawings
6
CONTINUOUS
10
130.8262440000000026
20
-100.7752049999999997
11
130.5583519999999851
21
-100.4064829999999944
0
LINE
8
User.Drawings
6
CONTINUOUS
10
130.5583519999999851
20
-100.4064829999999944
11
130.2623559999999827
21
-100.0599169999999987
0
LINE
8
User.Drawings
6
CONTINUOUS
10
130.2623559999999827
20
-100.0599169999999987
11
129.9400809999999922
21
-99.7376419999999939
0
LINE
8
User.Drawings
6
CONTINUOUS
10
129.9400809999999922
20
-99.7376419999999939
11
129.5935149999999965
21
-99.4416459999999915
0
LINE
8
User.Drawings
6
CONTINUOUS
10
129.5935149999999965
20
-99.4416459999999915
11
129.2247930000000053
21
-99.1737540000000024
0
LINE
8
User.Drawings
6
CONTINUOUS
10
129.2247930000000053
20
-99.1737540000000024
11
128.8361889999999903
21
-98.9356169999999935
0
LINE
8
User.Drawings
6
CONTINUOUS
10
128.8361889999999903
20
-98.9356169999999935
11
128.4300989999999842
21
-98.7287039999999934
0
LINE
8
User.Drawings
6
CONTINUOUS
10
128.4300989999999842
20
-98.7287039999999934
11
128.0090270000000032
21
-98.5542909999999921
0
LINE
8
User.Drawings
6
CONTINUOUS
10
128.0090270000000032
20
-98.5542909999999921
11
127.5755679999999899
21
-98.4134509999999949
0
LINE
8
User.Drawings
6
CONTINUOUS
10
127.5755679999999899
20
-98.4134509999999949
11
127.132396
21
-98.3070549999999912
0
LINE
8
User.Drawings
6
CONTINUOUS
10
127.132396
20
-98.3070549999999912
11
126.682241999999988
21
-98.2357579999999899
0
LINE
8
User.Drawings
6
CONTINUOUS
10
126.682241999999988
20
-98.2357579999999899
11
126.2278819999999939
21
-98.1999989999999912
0
LINE
8
User.Drawings
6
CONTINUOUS
10
126.2278819999999939
20
-98.1999989999999912
11
125.9999989999999883
21
-98.1999989999999912
0
LINE
8
User.Drawings
6
CONTINUOUS
10
125.9999989999999883
20
-98.1999989999999912
11
125.980678999999995
21
-98.196156000000002
0
LINE
8
User.Drawings
6
CONTINUOUS
10
125.980678999999995
20
-98.196156000000002
11
125.9609809999999896
21
-98.196156000000002
0
LINE
8
User.Drawings
6
CONTINUOUS
10
125.9609809999999896
20
-98.196156000000002
11
125.942781999999994
21
-98.1886179999999911
0
LINE
8
User.Drawings
6
CONTINUOUS
10
125.942781999999994
20
-98.1886179999999911
11
125.9234620000000007
21
-98.1847750000000019
0
LINE
8
User.Drawings
6
CONTINUOUS
10
125.9234620000000007
20
-98.1847750000000019
11
125.9070830000000001
21
-98.1738309999999927
0
LINE
8
User.Drawings
6
CONTINUOUS
10
125.9070830000000001
20
-98.1738309999999927
11
125.8888849999999877
21
-98.166292999999996
0
LINE
8
User.Drawings
6
CONTINUOUS
10
125.8888849999999877
20
-98.166292999999996
11
125.8749539999999882
21
-98.1523619999999966
0
LINE
8
User.Drawings
6
CONTINUOUS
10
125.8749539999999882
20
-98.1523619999999966
11
125.8585779999999943
21
-98.1414199999999965
0
LINE
8
User.Drawings
6
CONTINUOUS
10
125.8585779999999943
20
-98.1414199999999965
11
125.8476349999999968
21
-98.1250429999999909
0
LINE
8
User.Drawings
6
CONTINUOUS
10
125.8476349999999968
20
-98.1250429999999909
11
125.8337049999999948
21
-98.1111129999999889
0
LINE
8
User.Drawings
6
CONTINUOUS
10
125.8337049999999948
20
-98.1111129999999889
11
125.8261660000000006
21
-98.0929139999999933
0
LINE
8
User.Drawings
6
CONTINUOUS
10
125.8261660000000006
20
-98.0929139999999933
11
125.8152229999999889
21
-98.0765359999999902
0
LINE
8
User.Drawings
6
CONTINUOUS
10
125.8152229999999889
20
-98.0765359999999902
11
125.8113789999999881
21
-98.0572149999999993
0
LINE
8
User.Drawings
6
CONTINUOUS
10
125.8113789999999881
20
-98.0572149999999993
11
125.8038419999999888
21
-98.0390170000000012
0
LINE
8
User.Drawings
6
CONTINUOUS
10
125.8038419999999888
20
-98.0390170000000012
11
125.7999989999999997
21
-97.9999990000000025
0
LINE
8
User.Drawings
6
CONTINUOUS
10
125.7999989999999997
20
-97.9999990000000025
11
125.7999989999999997
21
-68.9999990000000025
0
LINE
8
User.Drawings
6
CONTINUOUS
10
125.7999989999999997
20
-68.9999990000000025
11
125.8175289999999933
21
-68.6655080000000027
0
LINE
8
User.Drawings
6
CONTINUOUS
10
125.8175289999999933
20
-68.6655080000000027
11
125.8699269999999899
21
-68.3346820000000008
0
LINE
8
User.Drawings
6
CONTINUOUS
10
125.8699269999999899
20
-68.3346820000000008
11
125.9566179999999918
21
-68.0111449999999991
0
LINE
8
User.Drawings
6
CONTINUOUS
10
125.9566179999999918
20
-68.0111449999999991
11
126.0766539999999907
21
-67.698442
0
LINE
8
User.Drawings
6
CONTINUOUS
10
126.0766539999999907
20
-67.698442
11
126.2287180000000006
21
-67.399998999999994
0
LINE
8
User.Drawings
6
CONTINUOUS
10
126.2287180000000006
20
-67.399998999999994
11
126.4111449999999905
21
-67.1190859999999958
0
LINE
8
User.Drawings
6
CONTINUOUS
10
126.4111449999999905
20
-67.1190859999999958
11
126.6219359999999909
21
-66.8587809999999934
0
LINE
8
User.Drawings
6
CONTINUOUS
10
126.6219359999999909
20
-66.8587809999999934
11
126.8587809999999934
21
-66.6219359999999909
0
LINE
8
User.Drawings
6
CONTINUOUS
10
126.8587809999999934
20
-66.6219359999999909
11
127.1190859999999958
21
-66.4111449999999905
0
LINE
8
User.Drawings
6
CONTINUOUS
10
127.1190859999999958
20
-66.4111449999999905
11
127.399998999999994
21
-66.2287180000000006
0
LINE
8
User.Drawings
6
CONTINUOUS
10
127.399998999999994
20
-66.2287180000000006
11
127.698442
21
-66.0766539999999907
0
LINE
8
User.Drawings
6
CONTINUOUS
10
127.698442
20
-66.0766539999999907
11
128.0111449999999991
21
-65.9566179999999918
0
LINE
8
User.Drawings
6
CONTINUOUS
10
128.0111449999999991
20
-65.9566179999999918
11
128.3346819999999866
21
-65.8699270000000041
0
LINE
8
User.Drawings
6
CONTINUOUS
10
128.3346819999999866
20
-65.8699270000000041
11
128.6655079999999884
21
-65.8175289999999933
0
LINE
8
User.Drawings
6
CONTINUOUS
10
128.6655079999999884
20
-65.8175289999999933
11
128.9999990000000025
21
-65.7999989999999997
0
LINE
8
User.Drawings
6
CONTINUOUS
10
128.9999990000000025
20
-65.7999989999999997
11
129.2337310000000059
21
-65.7999989999999997
0
LINE
8
User.Drawings
6
CONTINUOUS
10
129.2337310000000059
20
-65.7999989999999997
11
129.6996790000000033
21
-65.7623839999999973
0
LINE
8
User.Drawings
6
CONTINUOUS
10
129.6996790000000033
20
-65.7623839999999973
11
130.1610900000000015
21
-65.6873980000000017
0
LINE
8
User.Drawings
6
CONTINUOUS
10
130.1610900000000015
20
-65.6873980000000017
11
130.6149699999999996
21
-65.5755259999999964
0
LINE
8
User.Drawings
6
CONTINUOUS
10
130.6149699999999996
20
-65.5755259999999964
11
131.0583770000000072
21
-65.4274949999999933
0
LINE
8
User.Drawings
6
CONTINUOUS
10
131.0583770000000072
20
-65.4274949999999933
11
131.4884339999999838
21
-65.2442649999999986
0
LINE
8
User.Drawings
6
CONTINUOUS
10
131.4884339999999838
20
-65.2442649999999986
11
131.9023530000000051
21
-65.0270239999999973
0
LINE
8
User.Drawings
6
CONTINUOUS
10
131.9023530000000051
20
-65.0270239999999973
11
132.2974490000000003
21
-64.7771800000000013
0
LINE
8
User.Drawings
6
CONTINUOUS
10
132.2974490000000003
20
-64.7771800000000013
11
132.6711599999999862
21
-64.4963549999999941
0
LINE
8
User.Drawings
6
CONTINUOUS
10
132.6711599999999862
20
-64.4963549999999941
11
133.0210620000000006
21
-64.1863689999999991
0
LINE
8
User.Drawings
6
CONTINUOUS
10
133.0210620000000006
20
-64.1863689999999991
11
133.344885000000005
21
-63.8492320000000007
0
LINE
8
User.Drawings
6
CONTINUOUS
10
133.344885000000005
20
-63.8492320000000007
11
133.6405309999999815
21
-63.4871319999999955
0
LINE
8
User.Drawings
6
CONTINUOUS
10
133.6405309999999815
20
-63.4871319999999955
11
133.9060810000000004
21
-63.1024169999999955
0
LINE
8
User.Drawings
6
CONTINUOUS
10
133.9060810000000004
20
-63.1024169999999955
11
134.1398130000000037
21
-62.6975809999999996
0
LINE
8
User.Drawings
6
CONTINUOUS
10
134.1398130000000037
20
-62.6975809999999996
11
134.3402109999999823
21
-62.2752509999999972
0
LINE
8
User.Drawings
6
CONTINUOUS
10
134.3402109999999823
20
-62.2752509999999972
11
134.505976000000004
21
-61.838163999999999
0
LINE
8
User.Drawings
6
CONTINUOUS
10
134.505976000000004
20
-61.838163999999999
11
134.6360329999999976
21
-61.3891569999999973
0
LINE
8
User.Drawings
6
CONTINUOUS
10
134.6360329999999976
20
-61.3891569999999973
11
134.7295379999999909
21
-60.9311399999999992
0
LINE
8
User.Drawings
6
CONTINUOUS
10
134.7295379999999909
20
-60.9311399999999992
11
134.7858839999999816
21
-60.4670839999999998
0
LINE
8
User.Drawings
6
CONTINUOUS
10
134.7858839999999816
20
-60.4670839999999998
11
134.8047070000000076
21
-59.9999989999999954
0
LINE
8
User.Drawings
6
CONTINUOUS
10
134.8047070000000076
20
-59.9999989999999954
11
134.7858839999999816
21
-59.5329139999999981
0
LINE
8
User.Drawings
6
CONTINUOUS
10
134.7858839999999816
20
-59.5329139999999981
11
134.7295379999999909
21
-59.0688579999999988
0
LINE
8
User.Drawings
6
CONTINUOUS
10
134.7295379999999909
20
-59.0688579999999988
11
134.6360329999999976
21
-58.6108410000000006
0
LINE
8
User.Drawings
6
CONTINUOUS
10
134.6360329999999976
20
-58.6108410000000006
11
134.505976000000004
21
-58.1618339999999989
0
LINE
8
User.Drawings
6
CONTINUOUS
10
134.505976000000004
20
-58.1618339999999989
11
134.3402109999999823
21
-57.7247470000000007
0
LINE
8
User.Drawings
6
CONTINUOUS
10
134.3402109999999823
20
-57.7247470000000007
11
134.1398130000000037
21
-57.3024169999999984
0
LINE
8
User.Drawings
6
CONTINUOUS
10
134.1398130000000037
20
-57.3024169999999984
11
133.9060810000000004
21
-56.8975809999999953
0
LINE
8
User.Drawings
6
CONTINUOUS
10
133.9060810000000004
20
-56.8975809999999953
11
133.6405309999999815
21
-56.5128659999999954
0
LINE
8
User.Drawings
6
CONTINUOUS
10
133.6405309999999815
20
-56.5128659999999954
11
133.344885000000005
21
-56.1507659999999973
0
LINE
8
User.Drawings
6
CONTINUOUS
10
133.344885000000005
20
-56.1507659999999973
11
133.0210620000000006
21
-55.8136289999999988
0
LINE
8
User.Drawings
6
CONTINUOUS
10
133.0210620000000006
20
-55.8136289999999988
11
132.6711599999999862
21
-55.5036429999999967
0
LINE
8
User.Drawings
6
CONTINUOUS
10
132.6711599999999862
20
-55.5036429999999967
11
132.2974490000000003
21
-55.2228179999999966
0
LINE
8
User.Drawings
6
CONTINUOUS
10
132.2974490000000003
20
-55.2228179999999966
11
131.9023530000000051
21
-54.9729740000000007
0
LINE
8
User.Drawings
6
CONTINUOUS
10
131.9023530000000051
20
-54.9729740000000007
11
131.4884339999999838
21
-54.7557329999999993
0
LINE
8
User.Drawings
6
CONTINUOUS
10
131.4884339999999838
20
-54.7557329999999993
11
131.0583770000000072
21
-54.5725029999999975
0
LINE
8
User.Drawings
6
CONTINUOUS
10
131.0583770000000072
20
-54.5725029999999975
11
130.6149699999999996
21
-54.4244719999999944
0
LINE
8
User.Drawings
6
CONTINUOUS
10
130.6149699999999996
20
-54.4244719999999944
11
130.1610900000000015
21
-54.3125999999999962
0
LINE
8
User.Drawings
6
CONTINUOUS
10
130.1610900000000015
20
-54.3125999999999962
11
129.6996790000000033
21
-54.2376140000000007
0
LINE
8
User.Drawings
6
CONTINUOUS
10
129.6996790000000033
20
-54.2376140000000007
11
129.2337310000000059
21
-54.1999989999999983
0
LINE
8
User.Drawings
6
CONTINUOUS
10
129.2337310000000059
20
-54.1999989999999983
11
128.9999990000000025
21
-54.1999989999999983
0
LINE
8
User.Drawings
6
CONTINUOUS
10
128.9999990000000025
20
-54.1999989999999983
11
128.6655079999999884
21
-54.1824689999999975
0
LINE
8
User.Drawings
6
CONTINUOUS
10
128.6655079999999884
20
-54.1824689999999975
11
128.3346819999999866
21
-54.1300710000000009
0
LINE
8
User.Drawings
6
CONTINUOUS
10
128.3346819999999866
20
-54.1300710000000009
11
128.0111449999999991
21
-54.0433799999999991
0
LINE
8
User.Drawings
6
CONTINUOUS
10
128.0111449999999991
20
-54.0433799999999991
11
127.698442
21
-53.9233440000000002
0
LINE
8
User.Drawings
6
CONTINUOUS
10
127.698442
20
-53.9233440000000002
11
127.399998999999994
21
-53.7712799999999973
0
LINE
8
User.Drawings
6
CONTINUOUS
10
127.399998999999994
20
-53.7712799999999973
11
127.1190859999999958
21
-53.5888530000000003
0
LINE
8
User.Drawings
6
CONTINUOUS
10
127.1190859999999958
20
-53.5888530000000003
11
126.8587809999999934
21
-53.3780619999999999
0
LINE
8
User.Drawings
6
CONTINUOUS
10
126.8587809999999934
20
-53.3780619999999999
11
126.6219359999999909
21
-53.1412169999999975
0
LINE
8
User.Drawings
6
CONTINUOUS
10
126.6219359999999909
20
-53.1412169999999975
11
126.4111449999999905
21
-52.880911999999995
0
LINE
8
User.Drawings
6
CONTINUOUS
10
126.4111449999999905
20
-52.880911999999995
11
126.2287180000000006
21
-52.5999989999999968
0
LINE
8
User.Drawings
6
CONTINUOUS
10
126.2287180000000006
20
-52.5999989999999968
11
126.0766539999999907
21
-52.3015559999999979
0
LINE
8
User.Drawings
6
CONTINUOUS
10
126.0766539999999907
20
-52.3015559999999979
11
125.9566179999999918
21
-51.9888529999999989
0
LINE
8
User.Drawings
6
CONTINUOUS
10
125.9566179999999918
20
-51.9888529999999989
11
125.8699269999999899
21
-51.6653159999999971
0
LINE
8
User.Drawings
6
CONTINUOUS
10
125.8699269999999899
20
-51.6653159999999971
11
125.8175289999999933
21
-51.3344899999999953
0
LINE
8
User.Drawings
6
CONTINUOUS
10
125.8175289999999933
20
-51.3344899999999953
11
125.7999989999999997
21
-50.9999989999999954
0
LINE
8
User.Drawings
6
CONTINUOUS
10
125.7999989999999997
20
-50.9999989999999954
11
125.7999989999999997
21
-44.9999989999999954
0
LINE
8
User.Drawings
6
CONTINUOUS
10
125.7999989999999997
20
-44.9999989999999954
11
125.8175289999999933
21
-44.6655079999999955
0
LINE
8
User.Drawings
6
CONTINUOUS
10
125.8175289999999933
20
-44.6655079999999955
11
125.8699269999999899
21
-44.3346820000000008
0
LINE
8
User.Drawings
6
CONTINUOUS
10
125.8699269999999899
20
-44.3346820000000008
11
125.9566179999999918
21
-44.0111449999999991
0
LINE
8
User.Drawings
6
CONTINUOUS
10
125.9566179999999918
20
-44.0111449999999991
11
126.0766539999999907
21
-43.698442
0
LINE
8
User.Drawings
6
CONTINUOUS
10
126.0766539999999907
20
-43.698442
11
126.2287180000000006
21
-43.3999990000000011
0
LINE
8
User.Drawings
6
CONTINUOUS
10
126.2287180000000006
20
-43.3999990000000011
11
126.4111449999999905
21
-43.1190859999999958
0
LINE
8
User.Drawings
6
CONTINUOUS
10
126.4111449999999905
20
-43.1190859999999958
11
126.6219359999999909
21
-42.8587810000000005
0
LINE
8
User.Drawings
6
CONTINUOUS
10
126.6219359999999909
20
-42.8587810000000005
11
126.8587809999999934
21
-42.621935999999998
0
LINE
8
User.Drawings
6
CONTINUOUS
10
126.8587809999999934
20
-42.621935999999998
11
127.1190859999999958
21
-42.4111449999999977
0
LINE
8
User.Drawings
6
CONTINUOUS
10
127.1190859999999958
20
-42.4111449999999977
11
127.399998999999994
21
-42.2287180000000006
0
LINE
8
User.Drawings
6
CONTINUOUS
10
127.399998999999994
20
-42.2287180000000006
11
127.698442
21
-42.0766539999999978
0
LINE
8
User.Drawings
6
CONTINUOUS
10
127.698442
20
-42.0766539999999978
11
128.0111449999999991
21
-41.9566179999999989
0
LINE
8
User.Drawings
6
CONTINUOUS
10
128.0111449999999991
20
-41.9566179999999989
11
128.3346819999999866
21
-41.869926999999997
0
LINE
8
User.Drawings
6
CONTINUOUS
10
128.3346819999999866
20
-41.869926999999997
11
128.6655079999999884
21
-41.8175290000000004
0
LINE
8
User.Drawings
6
CONTINUOUS
10
128.6655079999999884
20
-41.8175290000000004
11
128.9999990000000025
21
-41.7999989999999997
0
LINE
8
User.Drawings
6
CONTINUOUS
10
128.9999990000000025
20
-41.7999989999999997
11
129.2278819999999939
21
-41.7999989999999997
0
LINE
8
User.Drawings
6
CONTINUOUS
10
129.2278819999999939
20
-41.7999989999999997
11
129.6822420000000022
21
-41.7642400000000009
0
LINE
8
User.Drawings
6
CONTINUOUS
10
129.6822420000000022
20
-41.7642400000000009
11
130.132396
21
-41.6929429999999996
0
LINE
8
User.Drawings
6
CONTINUOUS
10
130.132396
20
-41.6929429999999996
11
130.5755680000000041
21
-41.5865469999999959
0
LINE
8
User.Drawings
6
CONTINUOUS
10
130.5755680000000041
20
-41.5865469999999959
11
131.0090270000000032
21
-41.4457069999999987
0
LINE
8
User.Drawings
6
CONTINUOUS
10
131.0090270000000032
20
-41.4457069999999987
11
131.4300989999999842
21
-41.2712939999999975
0
LINE
8
User.Drawings
6
CONTINUOUS
10
131.4300989999999842
20
-41.2712939999999975
11
131.8361889999999903
21
-41.0643809999999974
0
LINE
8
User.Drawings
6
CONTINUOUS
10
131.8361889999999903
20
-41.0643809999999974
11
132.2247930000000053
21
-40.8262439999999955
0
LINE
8
User.Drawings
6
CONTINUOUS
10
132.2247930000000053
20
-40.8262439999999955
11
132.5935149999999965
21
-40.5583519999999993
0
LINE
8
User.Drawings
6
CONTINUOUS
10
132.5935149999999965
20
-40.5583519999999993
11
132.9400809999999922
21
-40.2623559999999969
0
LINE
8
User.Drawings
6
CONTINUOUS
10
132.9400809999999922
20
-40.2623559999999969
11
133.2623559999999827
21
-39.9400809999999993
0
LINE
8
User.Drawings
6
CONTINUOUS
10
133.2623559999999827
20
-39.9400809999999993
11
133.5583519999999851
21
-39.5935149999999965
0
LINE
8
User.Drawings
6
CONTINUOUS
10
133.5583519999999851
20
-39.5935149999999965
11
133.8262440000000026
21
-39.2247929999999982
0
LINE
8
User.Drawings
6
CONTINUOUS
10
133.8262440000000026
20
-39.2247929999999982
11
134.0643809999999974
21
-38.8361889999999974
0
LINE
8
User.Drawings
6
CONTINUOUS
10
134.0643809999999974
20
-38.8361889999999974
11
134.2712939999999833
21
-38.4300989999999985
0
LINE
8
User.Drawings
6
CONTINUOUS
10
134.2712939999999833
20
-38.4300989999999985
11
134.4457069999999987
21
-38.0090269999999961
0
LINE
8
User.Drawings
6
CONTINUOUS
10
134.4457069999999987
20
-38.0090269999999961
11
134.5865469999999959
21
-37.575567999999997
0
LINE
8
User.Drawings
6
CONTINUOUS
10
134.5865469999999959
20
-37.575567999999997
11
134.6929429999999854
21
-37.132396
0
LINE
8
User.Drawings
6
CONTINUOUS
10
134.6929429999999854
20
-37.132396
11
134.7642400000000009
21
-36.6822419999999951
0
LINE
8
User.Drawings
6
CONTINUOUS
10
134.7642400000000009
20
-36.6822419999999951
11
134.7999989999999855
21
-36.227882000000001
0
LINE
8
User.Drawings
6
CONTINUOUS
10
134.7999989999999855
20
-36.227882000000001
11
134.7999989999999855
21
-35.9999989999999954
0
LINE
8
User.Drawings
6
CONTINUOUS
10
134.7999989999999855
20
-35.9999989999999954
11
134.8038430000000005
21
-35.9806729999999959
0
LINE
8
User.Drawings
6
CONTINUOUS
10
134.8038430000000005
20
-35.9806729999999959
11
134.8038430000000005
21
-35.9609820000000013
0
LINE
8
User.Drawings
6
CONTINUOUS
10
134.8038430000000005
20
-35.9609820000000013
11
134.8113779999999906
21
-35.9427889999999977
0
LINE
8
User.Drawings
6
CONTINUOUS
10
134.8113779999999906
20
-35.9427889999999977
11
134.8152230000000031
21
-35.9234620000000007
0
LINE
8
User.Drawings
6
CONTINUOUS
10
134.8152230000000031
20
-35.9234620000000007
11
134.8261699999999905
21
-35.9070779999999985
0
LINE
8
User.Drawings
6
CONTINUOUS
10
134.8261699999999905
20
-35.9070779999999985
11
134.8337060000000065
21
-35.8888859999999994
0
LINE
8
User.Drawings
6
CONTINUOUS
10
134.8337060000000065
20
-35.8888859999999994
11
134.8476310000000069
21
-35.8749600000000015
0
LINE
8
User.Drawings
6
CONTINUOUS
10
134.8476310000000069
20
-35.8749600000000015
11
134.8585779999999943
21
-35.8585780000000014
0
LINE
8
User.Drawings
6
CONTINUOUS
10
134.8585779999999943
20
-35.8585780000000014
11
134.8749599999999873
21
-35.8476309999999998
0
LINE
8
User.Drawings
6
CONTINUOUS
10
134.8749599999999873
20
-35.8476309999999998
11
134.8888859999999852
21
-35.8337059999999994
0
LINE
8
User.Drawings
6
CONTINUOUS
10
134.8888859999999852
20
-35.8337059999999994
11
134.9070779999999843
21
-35.8261699999999976
0
LINE
8
User.Drawings
6
CONTINUOUS
10
134.9070779999999843
20
-35.8261699999999976
11
134.9234620000000007
21
-35.815222999999996
0
LINE
8
User.Drawings
6
CONTINUOUS
10
134.9234620000000007
20
-35.815222999999996
11
134.9427890000000048
21
-35.8113779999999977
0
LINE
8
User.Drawings
6
CONTINUOUS
10
134.9427890000000048
20
-35.8113779999999977
11
134.9609820000000013
21
-35.8038430000000005
0
LINE
8
User.Drawings
6
CONTINUOUS
10
134.9609820000000013
20
-35.8038430000000005
11
134.9999880000000019
21
-35.8000010000000017
0
LINE
8
User.Drawings
6
CONTINUOUS
10
134.9999880000000019
20
-35.8000010000000017
11
134.9999990000000025
21
-35.7999989999999997
0
LINE
8
User.Drawings
6
CONTINUOUS
10
134.9999990000000025
20
-35.7999989999999997
11
135.0000039999999899
21
-35.7999989999999997
0
LINE
8
User.Drawings
6
CONTINUOUS
10
135.0000039999999899
20
-35.7999989999999997
11
140.7999999999999829
21
-35.7999989999999997
0
LINE
8
User.Drawings
6
CONTINUOUS
10
140.7999999999999829
20
-35.7999989999999997
11
140.7999999999999829
21
-30.0499989999999997
0
LINE
8
User.Drawings
6
CONTINUOUS
10
140.7999999999999829
20
-30.0499989999999997
11
126.0000059999999991
21
-30.0499979999999987
0
LINE
8
User.Drawings
6
CONTINUOUS
10
126.0000059999999991
20
-30.0499979999999987
11
126.
21
-30.0499999999999972
0
LINE
8
User.Drawings
6
CONTINUOUS
10
164.2684600000000046
20
-102.8817729999999955
11
164.4400839999999846
21
-102.9375369999999918
0
LINE
8
User.Drawings
6
CONTINUOUS
10
164.4400839999999846
20
-102.9375369999999918
11
164.6008709999999837
21
-103.0194619999999901
0
LINE
8
User.Drawings
6
CONTINUOUS
10
164.6008709999999837
20
-103.0194619999999901
11
164.7468629999999905
21
-103.1255309999999952
0
LINE
8
User.Drawings
6
CONTINUOUS
10
164.7468629999999905
20
-103.1255309999999952
11
164.8744649999999865
21
-103.2531329999999912
0
LINE
8
User.Drawings
6
CONTINUOUS
10
164.8744649999999865
20
-103.2531329999999912
11
164.9805340000000058
21
-103.399124999999998
0
LINE
8
User.Drawings
6
CONTINUOUS
10
164.9805340000000058
20
-103.399124999999998
11
165.0624589999999898
21
-103.5599119999999971
0
LINE
8
User.Drawings
6
CONTINUOUS
10
165.0624589999999898
20
-103.5599119999999971
11
165.1182230000000004
21
-103.7315359999999913
0
LINE
8
User.Drawings
6
CONTINUOUS
10
165.1182230000000004
20
-103.7315359999999913
11
165.1464529999999797
21
-103.9097699999999946
0
LINE
8
User.Drawings
6
CONTINUOUS
10
165.1464529999999797
20
-103.9097699999999946
11
165.1464529999999797
21
-104.0902260000000012
0
LINE
8
User.Drawings
6
CONTINUOUS
10
165.1464529999999797
20
-104.0902260000000012
11
165.1182230000000004
21
-104.2684599999999904
0
LINE
8
User.Drawings
6
CONTINUOUS
10
165.1182230000000004
20
-104.2684599999999904
11
165.0624589999999898
21
-104.4400839999999988
0
LINE
8
User.Drawings
6
CONTINUOUS
10
165.0624589999999898
20
-104.4400839999999988
11
164.9805340000000058
21
-104.6008709999999979
0
LINE
8
User.Drawings
6
CONTINUOUS
10
164.9805340000000058
20
-104.6008709999999979
11
164.8744649999999865
21
-104.7468629999999905
0
LINE
8
User.Drawings
6
CONTINUOUS
10
164.8744649999999865
20
-104.7468629999999905
11
164.7468629999999905
21
-104.8744650000000007
0
LINE
8
User.Drawings
6
CONTINUOUS
10
164.7468629999999905
20
-104.8744650000000007
11
164.6008709999999837
21
-104.9805339999999916
0
LINE
8
User.Drawings
6
CONTINUOUS
10
164.6008709999999837
20
-104.9805339999999916
11
164.4400839999999846
21
-105.0624589999999898
0
LINE
8
User.Drawings
6
CONTINUOUS
10
164.4400839999999846
20
-105.0624589999999898
11
164.2684600000000046
21
-105.1182230000000004
0
LINE
8
User.Drawings
6
CONTINUOUS
10
164.2684600000000046
20
-105.1182230000000004
11
164.0902260000000012
21
-105.1464529999999939
0
LINE
8
User.Drawings
6
CONTINUOUS
10
164.0902260000000012
20
-105.1464529999999939
11
163.9097699999999804
21
-105.1464529999999939
0
LINE
8
User.Drawings
6
CONTINUOUS
10
163.9097699999999804
20
-105.1464529999999939
11
163.7315360000000055
21
-105.1182230000000004
0
LINE
8
User.Drawings
6
CONTINUOUS
10
163.7315360000000055
20
-105.1182230000000004
11
163.5599119999999971
21
-105.0624589999999898
0
LINE
8
User.Drawings
6
CONTINUOUS
10
163.5599119999999971
20
-105.0624589999999898
11
163.399124999999998
21
-104.9805339999999916
0
LINE
8
User.Drawings
6
CONTINUOUS
10
163.399124999999998
20
-104.9805339999999916
11
163.2531329999999912
21
-104.8744650000000007
0
LINE
8
User.Drawings
6
CONTINUOUS
10
163.2531329999999912
20
-104.8744650000000007
11
163.1255309999999952
21
-104.7468629999999905
0
LINE
8
User.Drawings
6
CONTINUOUS
10
163.1255309999999952
20
-104.7468629999999905
11
163.0194620000000043
21
-104.6008709999999979
0
LINE
8
User.Drawings
6
CONTINUOUS
10
163.0194620000000043
20
-104.6008709999999979
11
162.9375369999999918
21
-104.4400839999999988
0
LINE
8
User.Drawings
6
CONTINUOUS
10
162.9375369999999918
20
-104.4400839999999988
11
162.8817729999999813
21
-104.2684599999999904
0
LINE
8
User.Drawings
6
CONTINUOUS
10
162.8817729999999813
20
-104.2684599999999904
11
162.8535430000000019
21
-104.0902260000000012
0
LINE
8
User.Drawings
6
CONTINUOUS
10
162.8535430000000019
20
-104.0902260000000012
11
162.8535430000000019
21
-103.9097699999999946
0
LINE
8
User.Drawings
6
CONTINUOUS
10
162.8535430000000019
20
-103.9097699999999946
11
162.8556319999999857
21
-103.8965819999999951
0
LINE
8
User.Drawings
6
CONTINUOUS
10
162.8556319999999857
20
-103.8965819999999951
11
162.8817729999999813
21
-103.7315359999999913
0
LINE
8
User.Drawings
6
CONTINUOUS
10
162.8817729999999813
20
-103.7315359999999913
11
162.9375369999999918
21
-103.5599119999999971
0
LINE
8
User.Drawings
6
CONTINUOUS
10
162.9375369999999918
20
-103.5599119999999971
11
163.0194620000000043
21
-103.399124999999998
0
LINE
8
User.Drawings
6
CONTINUOUS
10
163.0194620000000043
20
-103.399124999999998
11
163.1255309999999952
21
-103.2531329999999912
0
LINE
8
User.Drawings
6
CONTINUOUS
10
163.1255309999999952
20
-103.2531329999999912
11
163.2531329999999912
21
-103.1255309999999952
0
LINE
8
User.Drawings
6
CONTINUOUS
10
163.2531329999999912
20
-103.1255309999999952
11
163.399124999999998
21
-103.0194619999999901
0
LINE
8
User.Drawings
6
CONTINUOUS
10
163.399124999999998
20
-103.0194619999999901
11
163.5599119999999971
21
-102.9375369999999918
0
LINE
8
User.Drawings
6
CONTINUOUS
10
163.5599119999999971
20
-102.9375369999999918
11
163.7315360000000055
21
-102.8817729999999955
0
LINE
8
User.Drawings
6
CONTINUOUS
10
163.7315360000000055
20
-102.8817729999999955
11
163.9097699999999804
21
-102.8535430000000019
0
LINE
8
User.Drawings
6
CONTINUOUS
10
163.9097699999999804
20
-102.8535430000000019
11
164.0902260000000012
21
-102.8535430000000019
0
LINE
8
User.Drawings
6
CONTINUOUS
10
164.0902260000000012
20
-102.8535430000000019
11
164.2684600000000046
21
-102.8817729999999955
0
LINE
8
User.Drawings
6
CONTINUOUS
10
162.9499979999999937
20
-104.1034140000000008
11
162.9903479999999831
21
-104.3062719999999928
0
LINE
8
User.Drawings
6
CONTINUOUS
10
162.9903479999999831
20
-104.3062719999999928
11
163.069500000000005
21
-104.4973600000000005
0
LINE
8
User.Drawings
6
CONTINUOUS
10
163.069500000000005
20
-104.4973600000000005
11
163.1844089999999881
21
-104.6693339999999921
0
LINE
8
User.Drawings
6
CONTINUOUS
10
163.1844089999999881
20
-104.6693339999999921
11
163.3306619999999896
21
-104.8155869999999936
0
LINE
8
User.Drawings
6
CONTINUOUS
10
163.3306619999999896
20
-104.8155869999999936
11
163.5026359999999954
21
-104.9304959999999909
0
LINE
8
User.Drawings
6
CONTINUOUS
10
163.5026359999999954
20
-104.9304959999999909
11
163.6937240000000031
21
-105.0096479999999985
0
LINE
8
User.Drawings
6
CONTINUOUS
10
163.6937240000000031
20
-105.0096479999999985
11
163.8965819999999951
21
-105.0499980000000022
0
LINE
8
User.Drawings
6
CONTINUOUS
10
163.8965819999999951
20
-105.0499980000000022
11
164.1034139999999866
21
-105.0499980000000022
0
LINE
8
User.Drawings
6
CONTINUOUS
10
164.1034139999999866
20
-105.0499980000000022
11
164.3062719999999786
21
-105.0096479999999985
0
LINE
8
User.Drawings
6
CONTINUOUS
10
164.3062719999999786
20
-105.0096479999999985
11
164.4973599999999863
21
-104.9304959999999909
0
LINE
8
User.Drawings
6
CONTINUOUS
10
164.4973599999999863
20
-104.9304959999999909
11
164.6693339999999921
21
-104.8155869999999936
0
LINE
8
User.Drawings
6
CONTINUOUS
10
164.6693339999999921
20
-104.8155869999999936
11
164.8155869999999936
21
-104.6693339999999921
0
LINE
8
User.Drawings
6
CONTINUOUS
10
164.8155869999999936
20
-104.6693339999999921
11
164.9304960000000051
21
-104.4973600000000005
0
LINE
8
User.Drawings
6
CONTINUOUS
10
164.9304960000000051
20
-104.4973600000000005
11
165.0096479999999985
21
-104.3062719999999928
0
LINE
8
User.Drawings
6
CONTINUOUS
10
165.0096479999999985
20
-104.3062719999999928
11
165.049997999999988
21
-104.1034140000000008
0
LINE
8
User.Drawings
6
CONTINUOUS
10
165.049997999999988
20
-104.1034140000000008
11
165.049997999999988
21
-103.8965819999999951
0
LINE
8
User.Drawings
6
CONTINUOUS
10
165.049997999999988
20
-103.8965819999999951
11
165.0096479999999985
21
-103.6937239999999889
0
LINE
8
User.Drawings
6
CONTINUOUS
10
165.0096479999999985
20
-103.6937239999999889
11
164.9304960000000051
21
-103.5026359999999954
0
LINE
8
User.Drawings
6
CONTINUOUS
10
164.9304960000000051
20
-103.5026359999999954
11
164.8155869999999936
21
-103.3306619999999896
0
LINE
8
User.Drawings
6
CONTINUOUS
10
164.8155869999999936
20
-103.3306619999999896
11
164.6693339999999921
21
-103.1844090000000023
0
LINE
8
User.Drawings
6
CONTINUOUS
10
164.6693339999999921
20
-103.1844090000000023
11
164.4973599999999863
21
-103.0694999999999908
0
LINE
8
User.Drawings
6
CONTINUOUS
10
164.4973599999999863
20
-103.0694999999999908
11
164.3062719999999786
21
-102.9903479999999973
0
LINE
8
User.Drawings
6
CONTINUOUS
10
164.3062719999999786
20
-102.9903479999999973
11
164.1034139999999866
21
-102.9499979999999937
0
LINE
8
User.Drawings
6
CONTINUOUS
10
164.1034139999999866
20
-102.9499979999999937
11
163.8965819999999951
21
-102.9499979999999937
0
LINE
8
User.Drawings
6
CONTINUOUS
10
163.8965819999999951
20
-102.9499979999999937
11
163.6937240000000031
21
-102.9903479999999973
0
LINE
8
User.Drawings
6
CONTINUOUS
10
163.6937240000000031
20
-102.9903479999999973
11
163.5026359999999954
21
-103.0694999999999908
0
LINE
8
User.Drawings
6
CONTINUOUS
10
163.5026359999999954
20
-103.0694999999999908
11
163.3306619999999896
21
-103.1844090000000023
0
LINE
8
User.Drawings
6
CONTINUOUS
10
163.3306619999999896
20
-103.1844090000000023
11
163.1844089999999881
21
-103.3306619999999896
0
LINE
8
User.Drawings
6
CONTINUOUS
10
163.1844089999999881
20
-103.3306619999999896
11
163.069500000000005
21
-103.5026359999999954
0
LINE
8
User.Drawings
6
CONTINUOUS
10
163.069500000000005
20
-103.5026359999999954
11
162.9903479999999831
21
-103.6937239999999889
0
LINE
8
User.Drawings
6
CONTINUOUS
10
162.9903479999999831
20
-103.6937239999999889
11
162.9499979999999937
21
-103.8965819999999951
0
LINE
8
User.Drawings
6
CONTINUOUS
10
162.9499979999999937
20
-103.8965819999999951
11
162.9499979999999937
21
-104.1034140000000008
0
LINE
8
User.Drawings
6
CONTINUOUS
10
161.1684620000000052
20
-59.0317749999999961
11
161.3400859999999852
21
-59.0875389999999996
0
LINE
8
User.Drawings
6
CONTINUOUS
10
161.3400859999999852
20
-59.0875389999999996
11
161.5008729999999844
21
-59.1694639999999978
0
LINE
8
User.Drawings
6
CONTINUOUS
10
161.5008729999999844
20
-59.1694639999999978
11
161.6468649999999911
21
-59.2755329999999958
0
LINE
8
User.Drawings
6
CONTINUOUS
10
161.6468649999999911
20
-59.2755329999999958
11
161.7744669999999871
21
-59.4031349999999989
0
LINE
8
User.Drawings
6
CONTINUOUS
10
161.7744669999999871
20
-59.4031349999999989
11
161.8805360000000064
21
-59.5491269999999986
0
LINE
8
User.Drawings
6
CONTINUOUS
10
161.8805360000000064
20
-59.5491269999999986
11
161.9624609999999905
21
-59.7099139999999977
0
LINE
8
User.Drawings
6
CONTINUOUS
10
161.9624609999999905
20
-59.7099139999999977
11
162.018225000000001
21
-59.881537999999999
0
LINE
8
User.Drawings
6
CONTINUOUS
10
162.018225000000001
20
-59.881537999999999
11
162.0464549999999804
21
-60.0597719999999953
0
LINE
8
User.Drawings
6
CONTINUOUS
10
162.0464549999999804
20
-60.0597719999999953
11
162.0464549999999804
21
-60.2402279999999948
0
LINE
8
User.Drawings
6
CONTINUOUS
10
162.0464549999999804
20
-60.2402279999999948
11
162.018225000000001
21
-60.4184619999999981
0
LINE
8
User.Drawings
6
CONTINUOUS
10
162.018225000000001
20
-60.4184619999999981
11
161.9624609999999905
21
-60.5900859999999994
0
LINE
8
User.Drawings
6
CONTINUOUS
10
161.9624609999999905
20
-60.5900859999999994
11
161.8805360000000064
21
-60.7508729999999986
0
LINE
8
User.Drawings
6
CONTINUOUS
10
161.8805360000000064
20
-60.7508729999999986
11
161.7744669999999871
21
-60.8968649999999982
0
LINE
8
User.Drawings
6
CONTINUOUS
10
161.7744669999999871
20
-60.8968649999999982
11
161.6468649999999911
21
-61.0244669999999942
0
LINE
8
User.Drawings
6
CONTINUOUS
10
161.6468649999999911
20
-61.0244669999999942
11
161.5008729999999844
21
-61.1305359999999993
0
LINE
8
User.Drawings
6
CONTINUOUS
10
161.5008729999999844
20
-61.1305359999999993
11
161.3400859999999852
21
-61.2124609999999976
0
LINE
8
User.Drawings
6
CONTINUOUS
10
161.3400859999999852
20
-61.2124609999999976
11
161.1684620000000052
21
-61.2682249999999939
0
LINE
8
User.Drawings
6
CONTINUOUS
10
161.1684620000000052
20
-61.2682249999999939
11
160.9902280000000019
21
-61.2964549999999946
0
LINE
8
User.Drawings
6
CONTINUOUS
10
160.9902280000000019
20
-61.2964549999999946
11
160.8097719999999811
21
-61.2964549999999946
0
LINE
8
User.Drawings
6
CONTINUOUS
10
160.8097719999999811
20
-61.2964549999999946
11
160.6315380000000062
21
-61.2682249999999939
0
LINE
8
User.Drawings
6
CONTINUOUS
10
160.6315380000000062
20
-61.2682249999999939
11
160.4599139999999977
21
-61.2124609999999976
0
LINE
8
User.Drawings
6
CONTINUOUS
10
160.4599139999999977
20
-61.2124609999999976
11
160.2991269999999986
21
-61.1305359999999993
0
LINE
8
User.Drawings
6
CONTINUOUS
10
160.2991269999999986
20
-61.1305359999999993
11
160.1531349999999918
21
-61.0244669999999942
0
LINE
8
User.Drawings
6
CONTINUOUS
10
160.1531349999999918
20
-61.0244669999999942
11
160.0255329999999958
21
-60.8968649999999982
0
LINE
8
User.Drawings
6
CONTINUOUS
10
160.0255329999999958
20
-60.8968649999999982
11
159.9194640000000049
21
-60.7508729999999986
0
LINE
8
User.Drawings
6
CONTINUOUS
10
159.9194640000000049
20
-60.7508729999999986
11
159.8375389999999925
21
-60.5900859999999994
0
LINE
8
User.Drawings
6
CONTINUOUS
10
159.8375389999999925
20
-60.5900859999999994
11
159.7817749999999819
21
-60.4184619999999981
0
LINE
8
User.Drawings
6
CONTINUOUS
10
159.7817749999999819
20
-60.4184619999999981
11
159.7535450000000026
21
-60.2402279999999948
0
LINE
8
User.Drawings
6
CONTINUOUS
10
159.7535450000000026
20
-60.2402279999999948
11
159.7535450000000026
21
-60.0597719999999953
0
LINE
8
User.Drawings
6
CONTINUOUS
10
159.7535450000000026
20
-60.0597719999999953
11
159.7556339999999864
21
-60.0465839999999957
0
LINE
8
User.Drawings
6
CONTINUOUS
10
159.7556339999999864
20
-60.0465839999999957
11
159.7817749999999819
21
-59.881537999999999
0
LINE
8
User.Drawings
6
CONTINUOUS
10
159.7817749999999819
20
-59.881537999999999
11
159.8375389999999925
21
-59.7099139999999977
0
LINE
8
User.Drawings
6
CONTINUOUS
10
159.8375389999999925
20
-59.7099139999999977
11
159.9194640000000049
21
-59.5491269999999986
0
LINE
8
User.Drawings
6
CONTINUOUS
10
159.9194640000000049
20
-59.5491269999999986
11
160.0255329999999958
21
-59.4031349999999989
0
LINE
8
User.Drawings
6
CONTINUOUS
10
160.0255329999999958
20
-59.4031349999999989
11
160.1531349999999918
21
-59.2755329999999958
0
LINE
8
User.Drawings
6
CONTINUOUS
10
160.1531349999999918
20
-59.2755329999999958
11
160.2991269999999986
21
-59.1694639999999978
0
LINE
8
User.Drawings
6
CONTINUOUS
10
160.2991269999999986
20
-59.1694639999999978
11
160.4599139999999977
21
-59.0875389999999996
0
LINE
8
User.Drawings
6
CONTINUOUS
10
160.4599139999999977
20
-59.0875389999999996
11
160.6315380000000062
21
-59.0317749999999961
0
LINE
8
User.Drawings
6
CONTINUOUS
10
160.6315380000000062
20
-59.0317749999999961
11
160.8097719999999811
21
-59.0035449999999955
0
LINE
8
User.Drawings
6
CONTINUOUS
10
160.8097719999999811
20
-59.0035449999999955
11
160.9902280000000019
21
-59.0035449999999955
0
LINE
8
User.Drawings
6
CONTINUOUS
10
160.9902280000000019
20
-59.0035449999999955
11
161.1684620000000052
21
-59.0317749999999961
0
LINE
8
User.Drawings
6
CONTINUOUS
10
159.8499999999999943
20
-60.2534159999999943
11
159.8903499999999838
21
-60.4562740000000005
0
LINE
8
User.Drawings
6
CONTINUOUS
10
159.8903499999999838
20
-60.4562740000000005
11
159.9695020000000056
21
-60.647361999999994
0
LINE
8
User.Drawings
6
CONTINUOUS
10
159.9695020000000056
20
-60.647361999999994
11
160.0844109999999887
21
-60.8193359999999998
0
LINE
8
User.Drawings
6
CONTINUOUS
10
160.0844109999999887
20
-60.8193359999999998
11
160.2306639999999902
21
-60.9655889999999943
0
LINE
8
User.Drawings
6
CONTINUOUS
10
160.2306639999999902
20
-60.9655889999999943
11
160.4026379999999961
21
-61.0804979999999986
0
LINE
8
User.Drawings
6
CONTINUOUS
10
160.4026379999999961
20
-61.0804979999999986
11
160.5937260000000038
21
-61.1596499999999992
0
LINE
8
User.Drawings
6
CONTINUOUS
10
160.5937260000000038
20
-61.1596499999999992
11
160.7965839999999957
21
-61.1999999999999957
0
LINE
8
User.Drawings
6
CONTINUOUS
10
160.7965839999999957
20
-61.1999999999999957
11
161.0034159999999872
21
-61.1999999999999957
0
LINE
8
User.Drawings
6
CONTINUOUS
10
161.0034159999999872
20
-61.1999999999999957
11
161.2062739999999792
21
-61.1596499999999992
0
LINE
8
User.Drawings
6
CONTINUOUS
10
161.2062739999999792
20
-61.1596499999999992
11
161.3973619999999869
21
-61.0804979999999986
0
LINE
8
User.Drawings
6
CONTINUOUS
10
161.3973619999999869
20
-61.0804979999999986
11
161.5693359999999927
21
-60.9655889999999943
0
LINE
8
User.Drawings
6
CONTINUOUS
10
161.5693359999999927
20
-60.9655889999999943
11
161.7155889999999943
21
-60.8193359999999998
0
LINE
8
User.Drawings
6
CONTINUOUS
10
161.7155889999999943
20
-60.8193359999999998
11
161.8304980000000057
21
-60.647361999999994
0
LINE
8
User.Drawings
6
CONTINUOUS
10
161.8304980000000057
20
-60.647361999999994
11
161.9096499999999992
21
-60.4562740000000005
0
LINE
8
User.Drawings
6
CONTINUOUS
10
161.9096499999999992
20
-60.4562740000000005
11
161.9499999999999886
21
-60.2534159999999943
0
LINE
8
User.Drawings
6
CONTINUOUS
10
161.9499999999999886
20
-60.2534159999999943
11
161.9499999999999886
21
-60.0465839999999957
0
LINE
8
User.Drawings
6
CONTINUOUS
10
161.9499999999999886
20
-60.0465839999999957
11
161.9096499999999992
21
-59.8437259999999966
0
LINE
8
User.Drawings
6
CONTINUOUS
10
161.9096499999999992
20
-59.8437259999999966
11
161.8304980000000057
21
-59.6526379999999961
0
LINE
8
User.Drawings
6
CONTINUOUS
10
161.8304980000000057
20
-59.6526379999999961
11
161.7155889999999943
21
-59.4806639999999973
0
LINE
8
User.Drawings
6
CONTINUOUS
10
161.7155889999999943
20
-59.4806639999999973
11
161.5693359999999927
21
-59.3344109999999958
0
LINE
8
User.Drawings
6
CONTINUOUS
10
161.5693359999999927
20
-59.3344109999999958
11
161.3973619999999869
21
-59.2195019999999985
0
LINE
8
User.Drawings
6
CONTINUOUS
10
161.3973619999999869
20
-59.2195019999999985
11
161.2062739999999792
21
-59.140349999999998
0
LINE
8
User.Drawings
6
CONTINUOUS
10
161.2062739999999792
20
-59.140349999999998
11
161.0034159999999872
21
-59.0999999999999943
0
LINE
8
User.Drawings
6
CONTINUOUS
10
161.0034159999999872
20
-59.0999999999999943
11
160.7965839999999957
21
-59.0999999999999943
0
LINE
8
User.Drawings
6
CONTINUOUS
10
160.7965839999999957
20
-59.0999999999999943
11
160.5937260000000038
21
-59.140349999999998
0
LINE
8
User.Drawings
6
CONTINUOUS
10
160.5937260000000038
20
-59.140349999999998
11
160.4026379999999961
21
-59.2195019999999985
0
LINE
8
User.Drawings
6
CONTINUOUS
10
160.4026379999999961
20
-59.2195019999999985
11
160.2306639999999902
21
-59.3344109999999958
0
LINE
8
User.Drawings
6
CONTINUOUS
10
160.2306639999999902
20
-59.3344109999999958
11
160.0844109999999887
21
-59.4806639999999973
0
LINE
8
User.Drawings
6
CONTINUOUS
10
160.0844109999999887
20
-59.4806639999999973
11
159.9695020000000056
21
-59.6526379999999961
0
LINE
8
User.Drawings
6
CONTINUOUS
10
159.9695020000000056
20
-59.6526379999999961
11
159.8903499999999838
21
-59.8437259999999966
0
LINE
8
User.Drawings
6
CONTINUOUS
10
159.8903499999999838
20
-59.8437259999999966
11
159.8499999999999943
21
-60.0465839999999957
0
LINE
8
User.Drawings
6
CONTINUOUS
10
159.8499999999999943
20
-60.0465839999999957
11
159.8499999999999943
21
-60.2534159999999943
0
LINE
8
User.Drawings
6
CONTINUOUS
10
161.1684620000000052
20
-34.731774999999999
11
161.3400859999999852
21
-34.7875389999999953
0
LINE
8
User.Drawings
6
CONTINUOUS
10
161.3400859999999852
20
-34.7875389999999953
11
161.5008729999999844
21
-34.8694640000000007
0
LINE
8
User.Drawings
6
CONTINUOUS
10
161.5008729999999844
20
-34.8694640000000007
11
161.6468649999999911
21
-34.9755329999999987
0
LINE
8
User.Drawings
6
CONTINUOUS
10
161.6468649999999911
20
-34.9755329999999987
11
161.7744669999999871
21
-35.1031350000000018
0
LINE
8
User.Drawings
6
CONTINUOUS
10
161.7744669999999871
20
-35.1031350000000018
11
161.8805360000000064
21
-35.2491270000000014
0
LINE
8
User.Drawings
6
CONTINUOUS
10
161.8805360000000064
20
-35.2491270000000014
11
161.9624609999999905
21
-35.4099140000000006
0
LINE
8
User.Drawings
6
CONTINUOUS
10
161.9624609999999905
20
-35.4099140000000006
11
162.018225000000001
21
-35.5815380000000019
0
LINE
8
User.Drawings
6
CONTINUOUS
10
162.018225000000001
20
-35.5815380000000019
11
162.0464549999999804
21
-35.7597719999999981
0
LINE
8
User.Drawings
6
CONTINUOUS
10
162.0464549999999804
20
-35.7597719999999981
11
162.0464549999999804
21
-35.9402279999999976
0
LINE
8
User.Drawings
6
CONTINUOUS
10
162.0464549999999804
20
-35.9402279999999976
11
162.018225000000001
21
-36.118462000000001
0
LINE
8
User.Drawings
6
CONTINUOUS
10
162.018225000000001
20
-36.118462000000001
11
161.9624609999999905
21
-36.2900859999999952
0
LINE
8
User.Drawings
6
CONTINUOUS
10
161.9624609999999905
20
-36.2900859999999952
11
161.8805360000000064
21
-36.4508730000000014
0
LINE
8
User.Drawings
6
CONTINUOUS
10
161.8805360000000064
20
-36.4508730000000014
11
161.7744669999999871
21
-36.5968650000000011
0
LINE
8
User.Drawings
6
CONTINUOUS
10
161.7744669999999871
20
-36.5968650000000011
11
161.6468649999999911
21
-36.7244669999999971
0
LINE
8
User.Drawings
6
CONTINUOUS
10
161.6468649999999911
20
-36.7244669999999971
11
161.5008729999999844
21
-36.8305359999999951
0
LINE
8
User.Drawings
6
CONTINUOUS
10
161.5008729999999844
20
-36.8305359999999951
11
161.3400859999999852
21
-36.9124610000000004
0
LINE
8
User.Drawings
6
CONTINUOUS
10
161.3400859999999852
20
-36.9124610000000004
11
161.1684620000000052
21
-36.9682249999999968
0
LINE
8
User.Drawings
6
CONTINUOUS
10
161.1684620000000052
20
-36.9682249999999968
11
160.9902280000000019
21
-36.9964549999999974
0
LINE
8
User.Drawings
6
CONTINUOUS
10
160.9902280000000019
20
-36.9964549999999974
11
160.8097719999999811
21
-36.9964549999999974
0
LINE
8
User.Drawings
6
CONTINUOUS
10
160.8097719999999811
20
-36.9964549999999974
11
160.6315380000000062
21
-36.9682249999999968
0
LINE
8
User.Drawings
6
CONTINUOUS
10
160.6315380000000062
20
-36.9682249999999968
11
160.4599139999999977
21
-36.9124610000000004
0
LINE
8
User.Drawings
6
CONTINUOUS
10
160.4599139999999977
20
-36.9124610000000004
11
160.2991269999999986
21
-36.8305359999999951
0
LINE
8
User.Drawings
6
CONTINUOUS
10
160.2991269999999986
20
-36.8305359999999951
11
160.1531349999999918
21
-36.7244669999999971
0
LINE
8
User.Drawings
6
CONTINUOUS
10
160.1531349999999918
20
-36.7244669999999971
11
160.0255329999999958
21
-36.5968650000000011
0
LINE
8
User.Drawings
6
CONTINUOUS
10
160.0255329999999958
20
-36.5968650000000011
11
159.9194640000000049
21
-36.4508730000000014
0
LINE
8
User.Drawings
6
CONTINUOUS
10
159.9194640000000049
20
-36.4508730000000014
11
159.8375389999999925
21
-36.2900859999999952
0
LINE
8
User.Drawings
6
CONTINUOUS
10
159.8375389999999925
20
-36.2900859999999952
11
159.7817749999999819
21
-36.118462000000001
0
LINE
8
User.Drawings
6
CONTINUOUS
10
159.7817749999999819
20
-36.118462000000001
11
159.7535450000000026
21
-35.9402279999999976
0
LINE
8
User.Drawings
6
CONTINUOUS
10
159.7535450000000026
20
-35.9402279999999976
11
159.7535450000000026
21
-35.7597719999999981
0
LINE
8
User.Drawings
6
CONTINUOUS
10
159.7535450000000026
20
-35.7597719999999981
11
159.7556339999999864
21
-35.7465839999999986
0
LINE
8
User.Drawings
6
CONTINUOUS
10
159.7556339999999864
20
-35.7465839999999986
11
159.7817749999999819
21
-35.5815380000000019
0
LINE
8
User.Drawings
6
CONTINUOUS
10
159.7817749999999819
20
-35.5815380000000019
11
159.8375389999999925
21
-35.4099140000000006
0
LINE
8
User.Drawings
6
CONTINUOUS
10
159.8375389999999925
20
-35.4099140000000006
11
159.9194640000000049
21
-35.2491270000000014
0
LINE
8
User.Drawings
6
CONTINUOUS
10
159.9194640000000049
20
-35.2491270000000014
11
160.0255329999999958
21
-35.1031350000000018
0
LINE
8
User.Drawings
6
CONTINUOUS
10
160.0255329999999958
20
-35.1031350000000018
11
160.1531349999999918
21
-34.9755329999999987
0
LINE
8
User.Drawings
6
CONTINUOUS
10
160.1531349999999918
20
-34.9755329999999987
11
160.2991269999999986
21
-34.8694640000000007
0
LINE
8
User.Drawings
6
CONTINUOUS
10
160.2991269999999986
20
-34.8694640000000007
11
160.4599139999999977
21
-34.7875389999999953
0
LINE
8
User.Drawings
6
CONTINUOUS
10
160.4599139999999977
20
-34.7875389999999953
11
160.6315380000000062
21
-34.731774999999999
0
LINE
8
User.Drawings
6
CONTINUOUS
10
160.6315380000000062
20
-34.731774999999999
11
160.8097719999999811
21
-34.7035449999999983
0
LINE
8
User.Drawings
6
CONTINUOUS
10
160.8097719999999811
20
-34.7035449999999983
11
160.9902280000000019
21
-34.7035449999999983
0
LINE
8
User.Drawings
6
CONTINUOUS
10
160.9902280000000019
20
-34.7035449999999983
11
161.1684620000000052
21
-34.731774999999999
0
LINE
8
User.Drawings
6
CONTINUOUS
10
159.8499999999999943
20
-35.9534159999999972
11
159.8903499999999838
21
-36.1562739999999962
0
LINE
8
User.Drawings
6
CONTINUOUS
10
159.8903499999999838
20
-36.1562739999999962
11
159.9695020000000056
21
-36.3473619999999968
0
LINE
8
User.Drawings
6
CONTINUOUS
10
159.9695020000000056
20
-36.3473619999999968
11
160.0844109999999887
21
-36.5193359999999956
0
LINE
8
User.Drawings
6
CONTINUOUS
10
160.0844109999999887
20
-36.5193359999999956
11
160.2306639999999902
21
-36.6655889999999971
0
LINE
8
User.Drawings
6
CONTINUOUS
10
160.2306639999999902
20
-36.6655889999999971
11
160.4026379999999961
21
-36.7804980000000015
0
LINE
8
User.Drawings
6
CONTINUOUS
10
160.4026379999999961
20
-36.7804980000000015
11
160.5937260000000038
21
-36.8596499999999949
0
LINE
8
User.Drawings
6
CONTINUOUS
10
160.5937260000000038
20
-36.8596499999999949
11
160.7965839999999957
21
-36.8999999999999986
0
LINE
8
User.Drawings
6
CONTINUOUS
10
160.7965839999999957
20
-36.8999999999999986
11
161.0034159999999872
21
-36.8999999999999986
0
LINE
8
User.Drawings
6
CONTINUOUS
10
161.0034159999999872
20
-36.8999999999999986
11
161.2062739999999792
21
-36.8596499999999949
0
LINE
8
User.Drawings
6
CONTINUOUS
10
161.2062739999999792
20
-36.8596499999999949
11
161.3973619999999869
21
-36.7804980000000015
0
LINE
8
User.Drawings
6
CONTINUOUS
10
161.3973619999999869
20
-36.7804980000000015
11
161.5693359999999927
21
-36.6655889999999971
0
LINE
8
User.Drawings
6
CONTINUOUS
10
161.5693359999999927
20
-36.6655889999999971
11
161.7155889999999943
21
-36.5193359999999956
0
LINE
8
User.Drawings
6
CONTINUOUS
10
161.7155889999999943
20
-36.5193359999999956
11
161.8304980000000057
21
-36.3473619999999968
0
LINE
8
User.Drawings
6
CONTINUOUS
10
161.8304980000000057
20
-36.3473619999999968
11
161.9096499999999992
21
-36.1562739999999962
0
LINE
8
User.Drawings
6
CONTINUOUS
10
161.9096499999999992
20
-36.1562739999999962
11
161.9499999999999886
21
-35.9534159999999972
0
LINE
8
User.Drawings
6
CONTINUOUS
10
161.9499999999999886
20
-35.9534159999999972
11
161.9499999999999886
21
-35.7465839999999986
0
LINE
8
User.Drawings
6
CONTINUOUS
10
161.9499999999999886
20
-35.7465839999999986
11
161.9096499999999992
21
-35.5437259999999995
0
LINE
8
User.Drawings
6
CONTINUOUS
10
161.9096499999999992
20
-35.5437259999999995
11
161.8304980000000057
21
-35.3526379999999989
0
LINE
8
User.Drawings
6
CONTINUOUS
10
161.8304980000000057
20
-35.3526379999999989
11
161.7155889999999943
21
-35.1806640000000002
0
LINE
8
User.Drawings
6
CONTINUOUS
10
161.7155889999999943
20
-35.1806640000000002
11
161.5693359999999927
21
-35.0344109999999986
0
LINE
8
User.Drawings
6
CONTINUOUS
10
161.5693359999999927
20
-35.0344109999999986
11
161.3973619999999869
21
-34.9195020000000014
0
LINE
8
User.Drawings
6
CONTINUOUS
10
161.3973619999999869
20
-34.9195020000000014
11
161.2062739999999792
21
-34.8403500000000008
0
LINE
8
User.Drawings
6
CONTINUOUS
10
161.2062739999999792
20
-34.8403500000000008
11
161.0034159999999872
21
-34.7999999999999972
0
LINE
8
User.Drawings
6
CONTINUOUS
10
161.0034159999999872
20
-34.7999999999999972
11
160.7965839999999957
21
-34.7999999999999972
0
LINE
8
User.Drawings
6
CONTINUOUS
10
160.7965839999999957
20
-34.7999999999999972
11
160.5937260000000038
21
-34.8403500000000008
0
LINE
8
User.Drawings
6
CONTINUOUS
10
160.5937260000000038
20
-34.8403500000000008
11
160.4026379999999961
21
-34.9195020000000014
0
LINE
8
User.Drawings
6
CONTINUOUS
10
160.4026379999999961
20
-34.9195020000000014
11
160.2306639999999902
21
-35.0344109999999986
0
LINE
8
User.Drawings
6
CONTINUOUS
10
160.2306639999999902
20
-35.0344109999999986
11
160.0844109999999887
21
-35.1806640000000002
0
LINE
8
User.Drawings
6
CONTINUOUS
10
160.0844109999999887
20
-35.1806640000000002
11
159.9695020000000056
21
-35.3526379999999989
0
LINE
8
User.Drawings
6
CONTINUOUS
10
159.9695020000000056
20
-35.3526379999999989
11
159.8903499999999838
21
-35.5437259999999995
0
LINE
8
User.Drawings
6
CONTINUOUS
10
159.8903499999999838
20
-35.5437259999999995
11
159.8499999999999943
21
-35.7465839999999986
0
LINE
8
User.Drawings
6
CONTINUOUS
10
159.8499999999999943
20
-35.7465839999999986
11
159.8499999999999943
21
-35.9534159999999972
0
LINE
8
User.Drawings
6
CONTINUOUS
10
149.1111139999999864
20
-29.8337059999999994
11
149.1662939999999935
21
-29.8888859999999994
0
LINE
8
User.Drawings
6
CONTINUOUS
10
149.1662939999999935
20
-29.8888859999999994
11
149.1916080000000022
21
-29.9500010000000003
0
LINE
8
User.Drawings
6
CONTINUOUS
10
149.1916080000000022
20
-29.9500010000000003
11
164.
21
-29.9499999999999993
0
LINE
8
User.Drawings
6
CONTINUOUS
10
164.
20
-29.9499999999999993
11
164.4746779999999831
21
-29.9686500000000002
0
LINE
8
User.Drawings
6
CONTINUOUS
10
164.4746779999999831
20
-29.9686500000000002
11
164.9464289999999949
21
-30.0244849999999985
0
LINE
8
User.Drawings
6
CONTINUOUS
10
164.9464289999999949
20
-30.0244849999999985
11
165.4123449999999877
21
-30.1171619999999969
0
LINE
8
User.Drawings
6
CONTINUOUS
10
165.4123449999999877
20
-30.1171619999999969
11
165.8695529999999962
21
-30.2461079999999995
0
LINE
8
User.Drawings
6
CONTINUOUS
10
165.8695529999999962
20
-30.2461079999999995
11
166.3152350000000013
21
-30.4105290000000004
0
LINE
8
User.Drawings
6
CONTINUOUS
10
166.3152350000000013
20
-30.4105290000000004
11
166.7466430000000059
21
-30.6094099999999969
0
LINE
8
User.Drawings
6
CONTINUOUS
10
166.7466430000000059
20
-30.6094099999999969
11
167.1611169999999902
21
-30.8415269999999992
0
LINE
8
User.Drawings
6
CONTINUOUS
10
167.1611169999999902
20
-30.8415269999999992
11
167.556100999999984
21
-31.1054469999999981
0
LINE
8
User.Drawings
6
CONTINUOUS
10
167.556100999999984
20
-31.1054469999999981
11
167.9291609999999935
21
-31.3995439999999988
0
LINE
8
User.Drawings
6
CONTINUOUS
10
167.9291609999999935
20
-31.3995439999999988
11
168.2779960000000017
21
-31.7220039999999983
0
LINE
8
User.Drawings
6
CONTINUOUS
10
168.2779960000000017
20
-31.7220039999999983
11
168.6004559999999799
21
-32.0708389999999994
0
LINE
8
User.Drawings
6
CONTINUOUS
10
168.6004559999999799
20
-32.0708389999999994
11
168.8945530000000019
21
-32.4438990000000018
0
LINE
8
User.Drawings
6
CONTINUOUS
10
168.8945530000000019
20
-32.4438990000000018
11
169.1584729999999865
21
-32.8388829999999956
0
LINE
8
User.Drawings
6
CONTINUOUS
10
169.1584729999999865
20
-32.8388829999999956
11
169.3905900000000031
21
-33.2533570000000012
0
LINE
8
User.Drawings
6
CONTINUOUS
10
169.3905900000000031
20
-33.2533570000000012
11
169.5894710000000032
21
-33.6847649999999987
0
LINE
8
User.Drawings
6
CONTINUOUS
10
169.5894710000000032
20
-33.6847649999999987
11
169.7538919999999791
21
-34.1304469999999966
0
LINE
8
User.Drawings
6
CONTINUOUS
10
169.7538919999999791
20
-34.1304469999999966
11
169.8828379999999925
21
-34.587654999999998
0
LINE
8
User.Drawings
6
CONTINUOUS
10
169.8828379999999925
20
-34.587654999999998
11
169.9755150000000015
21
-35.053570999999998
0
LINE
8
User.Drawings
6
CONTINUOUS
10
169.9755150000000015
20
-35.053570999999998
11
170.0313500000000033
21
-35.5253219999999956
0
LINE
8
User.Drawings
6
CONTINUOUS
10
170.0313500000000033
20
-35.5253219999999956
11
170.0499989999999855
21
-35.9999929999999964
0
LINE
8
User.Drawings
6
CONTINUOUS
10
170.0499989999999855
20
-35.9999929999999964
11
170.0500009999999804
21
-36.
0
LINE
8
User.Drawings
6
CONTINUOUS
10
170.0500009999999804
20
-36.
11
170.0500009999999804
21
-104.
0
LINE
8
User.Drawings
6
CONTINUOUS
10
170.0500009999999804
20
-104.
11
170.0499989999999855
21
-104.0000059999999991
0
LINE
8
User.Drawings
6
CONTINUOUS
10
170.0499989999999855
20
-104.0000059999999991
11
170.0313500000000033
21
-104.4746779999999973
0
LINE
8
User.Drawings
6
CONTINUOUS
10
170.0313500000000033
20
-104.4746779999999973
11
169.9755150000000015
21
-104.9464289999999949
0
LINE
8
User.Drawings
6
CONTINUOUS
10
169.9755150000000015
20
-104.9464289999999949
11
169.8828379999999925
21
-105.412345000000002
0
LINE
8
User.Drawings
6
CONTINUOUS
10
169.8828379999999925
20
-105.412345000000002
11
169.7538919999999791
21
-105.8695529999999962
0
LINE
8
User.Drawings
6
CONTINUOUS
10
169.7538919999999791
20
-105.8695529999999962
11
169.5894710000000032
21
-106.3152350000000013
0
LINE
8
User.Drawings
6
CONTINUOUS
10
169.5894710000000032
20
-106.3152350000000013
11
169.3905900000000031
21
-106.7466429999999917
0
LINE
8
User.Drawings
6
CONTINUOUS
10
169.3905900000000031
20
-106.7466429999999917
11
169.1584729999999865
21
-107.1611169999999902
0
LINE
8
User.Drawings
6
CONTINUOUS
10
169.1584729999999865
20
-107.1611169999999902
11
168.8945530000000019
21
-107.5561009999999982
0
LINE
8
User.Drawings
6
CONTINUOUS
10
168.8945530000000019
20
-107.5561009999999982
11
168.6004559999999799
21
-107.9291609999999935
0
LINE
8
User.Drawings
6
CONTINUOUS
10
168.6004559999999799
20
-107.9291609999999935
11
168.2779960000000017
21
-108.2779960000000017
0
LINE
8
User.Drawings
6
CONTINUOUS
10
168.2779960000000017
20
-108.2779960000000017
11
167.9291609999999935
21
-108.6004559999999941
0
LINE
8
User.Drawings
6
CONTINUOUS
10
167.9291609999999935
20
-108.6004559999999941
11
167.556100999999984
21
-108.8945530000000019
0
LINE
8
User.Drawings
6
CONTINUOUS
10
167.556100999999984
20
-108.8945530000000019
11
167.1611169999999902
21
-109.1584730000000008
0
LINE
8
User.Drawings
6
CONTINUOUS
10
167.1611169999999902
20
-109.1584730000000008
11
166.7466430000000059
21
-109.3905899999999889
0
LINE
8
User.Drawings
6
CONTINUOUS
10
166.7466430000000059
20
-109.3905899999999889
11
166.3152350000000013
21
-109.589470999999989
0
LINE
8
User.Drawings
6
CONTINUOUS
10
166.3152350000000013
20
-109.589470999999989
11
165.8695529999999962
21
-109.7538919999999933
0
LINE
8
User.Drawings
6
CONTINUOUS
10
165.8695529999999962
20
-109.7538919999999933
11
165.4123449999999877
21
-109.8828379999999925
0
LINE
8
User.Drawings
6
CONTINUOUS
10
165.4123449999999877
20
-109.8828379999999925
11
164.9464289999999949
21
-109.9755150000000015
0
LINE
8
User.Drawings
6
CONTINUOUS
10
164.9464289999999949
20
-109.9755150000000015
11
164.4746779999999831
21
-110.0313499999999891
0
LINE
8
User.Drawings
6
CONTINUOUS
10
164.4746779999999831
20
-110.0313499999999891
11
164.
21
-110.0499999999999972
0
LINE
8
User.Drawings
6
CONTINUOUS
10
164.
20
-110.0499999999999972
11
155.1916070000000047
21
-110.0499999999999972
0
LINE
8
User.Drawings
6
CONTINUOUS
10
155.1916070000000047
20
-110.0499999999999972
11
155.166292999999996
21
-110.1111129999999889
0
LINE
8
User.Drawings
6
CONTINUOUS
10
155.166292999999996
20
-110.1111129999999889
11
155.1111129999999889
21
-110.166292999999996
0
LINE
8
User.Drawings
6
CONTINUOUS
10
155.1111129999999889
20
-110.166292999999996
11
155.0390170000000012
21
-110.196156000000002
0
LINE
8
User.Drawings
6
CONTINUOUS
10
155.0390170000000012
20
-110.196156000000002
11
154.9609810000000039
21
-110.196156000000002
0
LINE
8
User.Drawings
6
CONTINUOUS
10
154.9609810000000039
20
-110.196156000000002
11
154.8888849999999877
21
-110.166292999999996
0
LINE
8
User.Drawings
6
CONTINUOUS
10
154.8888849999999877
20
-110.166292999999996
11
154.8337049999999806
21
-110.1111129999999889
0
LINE
8
User.Drawings
6
CONTINUOUS
10
154.8337049999999806
20
-110.1111129999999889
11
154.8038420000000031
21
-110.0390170000000012
0
LINE
8
User.Drawings
6
CONTINUOUS
10
154.8038420000000031
20
-110.0390170000000012
11
154.7999989999999855
21
-109.9999989999999883
0
LINE
8
User.Drawings
6
CONTINUOUS
10
154.7999989999999855
20
-109.9999989999999883
11
154.7999989999999855
21
-103.9999989999999883
0
LINE
8
User.Drawings
6
CONTINUOUS
10
154.7999989999999855
20
-103.9999989999999883
11
154.8038420000000031
21
-103.9609809999999896
0
LINE
8
User.Drawings
6
CONTINUOUS
10
154.8038420000000031
20
-103.9609809999999896
11
154.8337049999999806
21
-103.8888850000000019
0
LINE
8
User.Drawings
6
CONTINUOUS
10
154.8337049999999806
20
-103.8888850000000019
11
154.8888849999999877
21
-103.8337049999999948
0
LINE
8
User.Drawings
6
CONTINUOUS
10
154.8888849999999877
20
-103.8337049999999948
11
154.9609810000000039
21
-103.8038419999999888
0
LINE
8
User.Drawings
6
CONTINUOUS
10
154.9609810000000039
20
-103.8038419999999888
11
154.9999990000000025
21
-103.7999989999999997
0
LINE
8
User.Drawings
6
CONTINUOUS
10
154.9999990000000025
20
-103.7999989999999997
11
157.8074819999999931
21
-103.7999989999999997
0
LINE
8
User.Drawings
6
CONTINUOUS
10
157.8074819999999931
20
-103.7999989999999997
11
157.8173349999999857
21
-103.5366719999999958
0
LINE
8
User.Drawings
6
CONTINUOUS
10
157.8173349999999857
20
-103.5366719999999958
11
157.8692479999999989
21
-103.0759369999999961
0
LINE
8
User.Drawings
6
CONTINUOUS
10
157.8692479999999989
20
-103.0759369999999961
11
157.9554459999999949
21
-102.6203689999999966
0
LINE
8
User.Drawings
6
CONTINUOUS
10
157.9554459999999949
20
-102.6203689999999966
11
158.0754469999999969
21
-102.1725169999999991
0
LINE
8
User.Drawings
6
CONTINUOUS
10
158.0754469999999969
20
-102.1725169999999991
11
158.2285809999999913
21
-101.7348849999999914
0
LINE
8
User.Drawings
6
CONTINUOUS
10
158.2285809999999913
20
-101.7348849999999914
11
158.413991999999979
21
-101.3099199999999911
0
LINE
8
User.Drawings
6
CONTINUOUS
10
158.413991999999979
20
-101.3099199999999911
11
158.6306409999999971
21
-100.899998999999994
0
LINE
8
User.Drawings
6
CONTINUOUS
10
158.6306409999999971
20
-100.899998999999994
11
158.8773180000000025
21
-100.5074139999999971
0
LINE
8
User.Drawings
6
CONTINUOUS
10
158.8773180000000025
20
-100.5074139999999971
11
159.1526429999999834
21
-100.1343619999999959
0
LINE
8
User.Drawings
6
CONTINUOUS
10
159.1526429999999834
20
-100.1343619999999959
11
159.4550769999999886
21
-99.7829279999999983
0
LINE
8
User.Drawings
6
CONTINUOUS
10
159.4550769999999886
20
-99.7829279999999983
11
159.7829279999999983
21
-99.4550769999999886
0
LINE
8
User.Drawings
6
CONTINUOUS
10
159.7829279999999983
20
-99.4550769999999886
11
160.1343619999999817
21
-99.1526429999999976
0
LINE
8
User.Drawings
6
CONTINUOUS
10
160.1343619999999817
20
-99.1526429999999976
11
160.5074139999999829
21
-98.8773180000000025
0
LINE
8
User.Drawings
6
CONTINUOUS
10
160.5074139999999829
20
-98.8773180000000025
11
160.8999989999999798
21
-98.6306409999999971
0
LINE
8
User.Drawings
6
CONTINUOUS
10
160.8999989999999798
20
-98.6306409999999971
11
161.3099200000000053
21
-98.4139919999999933
0
LINE
8
User.Drawings
6
CONTINUOUS
10
161.3099200000000053
20
-98.4139919999999933
11
161.7348849999999914
21
-98.2285809999999913
0
LINE
8
User.Drawings
6
CONTINUOUS
10
161.7348849999999914
20
-98.2285809999999913
11
162.1725169999999991
21
-98.0754469999999969
0
LINE
8
User.Drawings
6
CONTINUOUS
10
162.1725169999999991
20
-98.0754469999999969
11
162.6203689999999824
21
-97.9554459999999949
0
LINE
8
User.Drawings
6
CONTINUOUS
10
162.6203689999999824
20
-97.9554459999999949
11
163.0759369999999819
21
-97.8692479999999989
0
LINE
8
User.Drawings
6
CONTINUOUS
10
163.0759369999999819
20
-97.8692479999999989
11
163.5366719999999816
21
-97.8173349999999999
0
LINE
8
User.Drawings
6
CONTINUOUS
10
163.5366719999999816
20
-97.8173349999999999
11
163.7999989999999855
21
-97.8074819999999931
0
LINE
8
User.Drawings
6
CONTINUOUS
10
163.7999989999999855
20
-97.8074819999999931
11
163.7999989999999855
21
-68.9999990000000025
0
LINE
8
User.Drawings
6
CONTINUOUS
10
163.7999989999999855
20
-68.9999990000000025
11
163.7999989999999855
21
-68.8427539999999993
0
LINE
8
User.Drawings
6
CONTINUOUS
10
163.7999989999999855
20
-68.8427539999999993
11
163.7647869999999841
21
-68.5302429999999987
0
LINE
8
User.Drawings
6
CONTINUOUS
10
163.7647869999999841
20
-68.5302429999999987
11
163.6948069999999973
21
-68.223637999999994
0
LINE
8
User.Drawings
6
CONTINUOUS
10
163.6948069999999973
20
-68.223637999999994
11
163.5909379999999942
21
-67.9267969999999934
0
LINE
8
User.Drawings
6
CONTINUOUS
10
163.5909379999999942
20
-67.9267969999999934
11
163.4544860000000028
21
-67.6434519999999964
0
LINE
8
User.Drawings
6
CONTINUOUS
10
163.4544860000000028
20
-67.6434519999999964
11
163.2871669999999824
21
-67.377167
0
LINE
8
User.Drawings
6
CONTINUOUS
10
163.2871669999999824
20
-67.377167
11
163.09108599999999
21
-67.1312889999999953
0
LINE
8
User.Drawings
6
CONTINUOUS
10
163.09108599999999
20
-67.1312889999999953
11
162.8687089999999955
21
-66.9089120000000008
0
LINE
8
User.Drawings
6
CONTINUOUS
10
162.8687089999999955
20
-66.9089120000000008
11
162.6228309999999908
21
-66.7128309999999942
0
LINE
8
User.Drawings
6
CONTINUOUS
10
162.6228309999999908
20
-66.7128309999999942
11
162.3565459999999803
21
-66.5455120000000022
0
LINE
8
User.Drawings
6
CONTINUOUS
10
162.3565459999999803
20
-66.5455120000000022
11
162.0732009999999832
21
-66.4090599999999966
0
LINE
8
User.Drawings
6
CONTINUOUS
10
162.0732009999999832
20
-66.4090599999999966
11
161.7763599999999826
21
-66.3051909999999936
0
LINE
8
User.Drawings
6
CONTINUOUS
10
161.7763599999999826
20
-66.3051909999999936
11
161.4697549999999922
21
-66.2352109999999925
0
LINE
8
User.Drawings
6
CONTINUOUS
10
161.4697549999999922
20
-66.2352109999999925
11
161.1572439999999915
21
-66.1999989999999912
0
LINE
8
User.Drawings
6
CONTINUOUS
10
161.1572439999999915
20
-66.1999989999999912
11
160.9999990000000025
21
-66.1999989999999912
0
LINE
8
User.Drawings
6
CONTINUOUS
10
160.9999990000000025
20
-66.1999989999999912
11
160.5135530000000017
21
-66.180886000000001
0
LINE
8
User.Drawings
6
CONTINUOUS
10
160.5135530000000017
20
-66.180886000000001
11
160.0301049999999918
21
-66.1236669999999975
0
LINE
8
User.Drawings
6
CONTINUOUS
10
160.0301049999999918
20
-66.1236669999999975
11
159.5526380000000017
21
-66.0286930000000041
0
LINE
8
User.Drawings
6
CONTINUOUS
10
159.5526380000000017
20
-66.0286930000000041
11
159.0840939999999932
21
-65.8965489999999932
0
LINE
8
User.Drawings
6
CONTINUOUS
10
159.0840939999999932
20
-65.8965489999999932
11
158.6273620000000051
21
-65.728051999999991
0
LINE
8
User.Drawings
6
CONTINUOUS
10
158.6273620000000051
20
-65.728051999999991
11
158.1852580000000046
21
-65.5242389999999943
0
LINE
8
User.Drawings
6
CONTINUOUS
10
158.1852580000000046
20
-65.5242389999999943
11
157.7605079999999873
21
-65.286367999999996
0
LINE
8
User.Drawings
6
CONTINUOUS
10
157.7605079999999873
20
-65.286367999999996
11
157.3557299999999941
21
-65.0159039999999919
0
LINE
8
User.Drawings
6
CONTINUOUS
10
157.3557299999999941
20
-65.0159039999999919
11
156.9734210000000019
21
-64.7145160000000033
0
LINE
8
User.Drawings
6
CONTINUOUS
10
156.9734210000000019
20
-64.7145160000000033
11
156.6159370000000024
21
-64.3840610000000027
0
LINE
8
User.Drawings
6
CONTINUOUS
10
156.6159370000000024
20
-64.3840610000000027
11
156.2854820000000018
21
-64.0265770000000032
0
LINE
8
User.Drawings
6
CONTINUOUS
10
156.2854820000000018
20
-64.0265770000000032
11
155.9840939999999989
21
-63.6442679999999967
0
LINE
8
User.Drawings
6
CONTINUOUS
10
155.9840939999999989
20
-63.6442679999999967
11
155.7136299999999949
21
-63.2394899999999964
0
LINE
8
User.Drawings
6
CONTINUOUS
10
155.7136299999999949
20
-63.2394899999999964
11
155.4757589999999823
21
-62.8147400000000005
0
LINE
8
User.Drawings
6
CONTINUOUS
10
155.4757589999999823
20
-62.8147400000000005
11
155.2719459999999856
21
-62.372636
0
LINE
8
User.Drawings
6
CONTINUOUS
10
155.2719459999999856
20
-62.372636
11
155.1034489999999835
21
-61.9159039999999976
0
LINE
8
User.Drawings
6
CONTINUOUS
10
155.1034489999999835
20
-61.9159039999999976
11
154.971305000000001
21
-61.4473599999999962
0
LINE
8
User.Drawings
6
CONTINUOUS
10
154.971305000000001
20
-61.4473599999999962
11
154.8763309999999933
21
-60.969892999999999
0
LINE
8
User.Drawings
6
CONTINUOUS
10
154.8763309999999933
20
-60.969892999999999
11
154.8191119999999898
21
-60.4864449999999962
0
LINE
8
User.Drawings
6
CONTINUOUS
10
154.8191119999999898
20
-60.4864449999999962
11
154.7999989999999855
21
-59.9999989999999954
0
LINE
8
User.Drawings
6
CONTINUOUS
10
154.7999989999999855
20
-59.9999989999999954
11
154.8191119999999898
21
-59.5135529999999946
0
LINE
8
User.Drawings
6
CONTINUOUS
10
154.8191119999999898
20
-59.5135529999999946
11
154.8763309999999933
21
-59.0301049999999989
0
LINE
8
User.Drawings
6
CONTINUOUS
10
154.8763309999999933
20
-59.0301049999999989
11
154.971305000000001
21
-58.5526379999999946
0
LINE
8
User.Drawings
6
CONTINUOUS
10
154.971305000000001
20
-58.5526379999999946
11
155.1034489999999835
21
-58.0840940000000003
0
LINE
8
User.Drawings
6
CONTINUOUS
10
155.1034489999999835
20
-58.0840940000000003
11
155.2719459999999856
21
-57.627361999999998
0
LINE
8
User.Drawings
6
CONTINUOUS
10
155.2719459999999856
20
-57.627361999999998
11
155.4757589999999823
21
-57.1852579999999975
0
LINE
8
User.Drawings
6
CONTINUOUS
10
155.4757589999999823
20
-57.1852579999999975
11
155.7136299999999949
21
-56.7605079999999944
0
LINE
8
User.Drawings
6
CONTINUOUS
10
155.7136299999999949
20
-56.7605079999999944
11
155.9840939999999989
21
-56.3557299999999941
0
LINE
8
User.Drawings
6
CONTINUOUS
10
155.9840939999999989
20
-56.3557299999999941
11
156.2854820000000018
21
-55.9734209999999948
0
LINE
8
User.Drawings
6
CONTINUOUS
10
156.2854820000000018
20
-55.9734209999999948
11
156.6159370000000024
21
-55.6159369999999953
0
LINE
8
User.Drawings
6
CONTINUOUS
10
156.6159370000000024
20
-55.6159369999999953
11
156.9734210000000019
21
-55.2854819999999947
0
LINE
8
User.Drawings
6
CONTINUOUS
10
156.9734210000000019
20
-55.2854819999999947
11
157.3557299999999941
21
-54.9840939999999989
0
LINE
8
User.Drawings
6
CONTINUOUS
10
157.3557299999999941
20
-54.9840939999999989
11
157.7605079999999873
21
-54.7136299999999949
0
LINE
8
User.Drawings
6
CONTINUOUS
10
157.7605079999999873
20
-54.7136299999999949
11
158.1852580000000046
21
-54.4757589999999965
0
LINE
8
User.Drawings
6
CONTINUOUS
10
158.1852580000000046
20
-54.4757589999999965
11
158.6273620000000051
21
-54.2719459999999998
0
LINE
8
User.Drawings
6
CONTINUOUS
10
158.6273620000000051
20
-54.2719459999999998
11
159.0840939999999932
21
-54.1034489999999977
0
LINE
8
User.Drawings
6
CONTINUOUS
10
159.0840939999999932
20
-54.1034489999999977
11
159.5526380000000017
21
-53.971305000000001
0
LINE
8
User.Drawings
6
CONTINUOUS
10
159.5526380000000017
20
-53.971305000000001
11
160.0301049999999918
21
-53.8763310000000004
0
LINE
8
User.Drawings
6
CONTINUOUS
10
160.0301049999999918
20
-53.8763310000000004
11
160.5135530000000017
21
-53.819111999999997
0
LINE
8
User.Drawings
6
CONTINUOUS
10
160.5135530000000017
20
-53.819111999999997
11
160.9999990000000025
21
-53.7999989999999997
0
LINE
8
User.Drawings
6
CONTINUOUS
10
160.9999990000000025
20
-53.7999989999999997
11
161.1572439999999915
21
-53.7999989999999997
0
LINE
8
User.Drawings
6
CONTINUOUS
10
161.1572439999999915
20
-53.7999989999999997
11
161.4697549999999922
21
-53.7647869999999983
0
LINE
8
User.Drawings
6
CONTINUOUS
10
161.4697549999999922
20
-53.7647869999999983
11
161.7763599999999826
21
-53.6948069999999973
0
LINE
8
User.Drawings
6
CONTINUOUS
10
161.7763599999999826
20
-53.6948069999999973
11
162.0732009999999832
21
-53.5909379999999942
0
LINE
8
User.Drawings
6
CONTINUOUS
10
162.0732009999999832
20
-53.5909379999999942
11
162.3565459999999803
21
-53.4544859999999957
0
LINE
8
User.Drawings
6
CONTINUOUS
10
162.3565459999999803
20
-53.4544859999999957
11
162.6228309999999908
21
-53.2871669999999966
0
LINE
8
User.Drawings
6
CONTINUOUS
10
162.6228309999999908
20
-53.2871669999999966
11
162.8687089999999955
21
-53.0910859999999971
0
LINE
8
User.Drawings
6
CONTINUOUS
10
162.8687089999999955
20
-53.0910859999999971
11
163.09108599999999
21
-52.8687089999999955
0
LINE
8
User.Drawings
6
CONTINUOUS
10
163.09108599999999
20
-52.8687089999999955
11
163.2871669999999824
21
-52.6228309999999979
0
LINE
8
User.Drawings
6
CONTINUOUS
10
163.2871669999999824
20
-52.6228309999999979
11
163.4544860000000028
21
-52.3565459999999945
0
LINE
8
User.Drawings
6
CONTINUOUS
10
163.4544860000000028
20
-52.3565459999999945
11
163.5909379999999942
21
-52.0732009999999974
0
LINE
8
User.Drawings
6
CONTINUOUS
10
163.5909379999999942
20
-52.0732009999999974
11
163.6948069999999973
21
-51.7763599999999968
0
LINE
8
User.Drawings
6
CONTINUOUS
10
163.6948069999999973
20
-51.7763599999999968
11
163.7647869999999841
21
-51.4697549999999993
0
LINE
8
User.Drawings
6
CONTINUOUS
10
163.7647869999999841
20
-51.4697549999999993
11
163.7999989999999855
21
-51.1572439999999986
0
LINE
8
User.Drawings
6
CONTINUOUS
10
163.7999989999999855
20
-51.1572439999999986
11
163.7999989999999855
21
-50.9999989999999954
0
LINE
8
User.Drawings
6
CONTINUOUS
10
163.7999989999999855
20
-50.9999989999999954
11
163.7999989999999855
21
-44.9999989999999954
0
LINE
8
User.Drawings
6
CONTINUOUS
10
163.7999989999999855
20
-44.9999989999999954
11
163.7999989999999855
21
-44.8427539999999993
0
LINE
8
User.Drawings
6
CONTINUOUS
10
163.7999989999999855
20
-44.8427539999999993
11
163.7647869999999841
21
-44.5302429999999987
0
LINE
8
User.Drawings
6
CONTINUOUS
10
163.7647869999999841
20
-44.5302429999999987
11
163.6948069999999973
21
-44.2236380000000011
0
LINE
8
User.Drawings
6
CONTINUOUS
10
163.6948069999999973
20
-44.2236380000000011
11
163.5909379999999942
21
-43.9267970000000005
0
LINE
8
User.Drawings
6
CONTINUOUS
10
163.5909379999999942
20
-43.9267970000000005
11
163.4544860000000028
21
-43.6434519999999964
0
LINE
8
User.Drawings
6
CONTINUOUS
10
163.4544860000000028
20
-43.6434519999999964
11
163.2871669999999824
21
-43.377167
0
LINE
8
User.Drawings
6
CONTINUOUS
10
163.2871669999999824
20
-43.377167
11
163.09108599999999
21
-43.1312889999999953
0
LINE
8
User.Drawings
6
CONTINUOUS
10
163.09108599999999
20
-43.1312889999999953
11
162.8687089999999955
21
-42.9089120000000008
0
LINE
8
User.Drawings
6
CONTINUOUS
10
162.8687089999999955
20
-42.9089120000000008
11
162.6228309999999908
21
-42.7128310000000013
0
LINE
8
User.Drawings
6
CONTINUOUS
10
162.6228309999999908
20
-42.7128310000000013
11
162.3565459999999803
21
-42.5455119999999951
0
LINE
8
User.Drawings
6
CONTINUOUS
10
162.3565459999999803
20
-42.5455119999999951
11
162.0732009999999832
21
-42.4090599999999966
0
LINE
8
User.Drawings
6
CONTINUOUS
10
162.0732009999999832
20
-42.4090599999999966
11
161.7763599999999826
21
-42.3051910000000007
0
LINE
8
User.Drawings
6
CONTINUOUS
10
161.7763599999999826
20
-42.3051910000000007
11
161.4697549999999922
21
-42.2352109999999996
0
LINE
8
User.Drawings
6
CONTINUOUS
10
161.4697549999999922
20
-42.2352109999999996
11
161.1572439999999915
21
-42.1999989999999983
0
LINE
8
User.Drawings
6
CONTINUOUS
10
161.1572439999999915
20
-42.1999989999999983
11
160.9999990000000025
21
-42.1999989999999983
0
LINE
8
User.Drawings
6
CONTINUOUS
10
160.9999990000000025
20
-42.1999989999999983
11
160.5366719999999816
21
-42.182662999999998
0
LINE
8
User.Drawings
6
CONTINUOUS
10
160.5366719999999816
20
-42.182662999999998
11
160.0759369999999819
21
-42.130749999999999
0
LINE
8
User.Drawings
6
CONTINUOUS
10
160.0759369999999819
20
-42.130749999999999
11
159.6203689999999824
21
-42.0445519999999959
0
LINE
8
User.Drawings
6
CONTINUOUS
10
159.6203689999999824
20
-42.0445519999999959
11
159.1725169999999991
21
-41.924551000000001
0
LINE
8
User.Drawings
6
CONTINUOUS
10
159.1725169999999991
20
-41.924551000000001
11
158.7348849999999914
21
-41.7714169999999996
0
LINE
8
User.Drawings
6
CONTINUOUS
10
158.7348849999999914
20
-41.7714169999999996
11
158.3099200000000053
21
-41.5860059999999976
0
LINE
8
User.Drawings
6
CONTINUOUS
10
158.3099200000000053
20
-41.5860059999999976
11
157.8999989999999798
21
-41.3693570000000008
0
LINE
8
User.Drawings
6
CONTINUOUS
10
157.8999989999999798
20
-41.3693570000000008
11
157.5074139999999829
21
-41.1226799999999955
0
LINE
8
User.Drawings
6
CONTINUOUS
10
157.5074139999999829
20
-41.1226799999999955
11
157.1343619999999817
21
-40.8473550000000003
0
LINE
8
User.Drawings
6
CONTINUOUS
10
157.1343619999999817
20
-40.8473550000000003
11
156.7829279999999983
21
-40.5449209999999951
0
LINE
8
User.Drawings
6
CONTINUOUS
10
156.7829279999999983
20
-40.5449209999999951
11
156.4550769999999886
21
-40.2170699999999997
0
LINE
8
User.Drawings
6
CONTINUOUS
10
156.4550769999999886
20
-40.2170699999999997
11
156.1526429999999834
21
-39.865635999999995
0
LINE
8
User.Drawings
6
CONTINUOUS
10
156.1526429999999834
20
-39.865635999999995
11
155.8773180000000025
21
-39.4925840000000008
0
LINE
8
User.Drawings
6
CONTINUOUS
10
155.8773180000000025
20
-39.4925840000000008
11
155.6306409999999971
21
-39.0999989999999968
0
LINE
8
User.Drawings
6
CONTINUOUS
10
155.6306409999999971
20
-39.0999989999999968
11
155.413991999999979
21
-38.6900779999999997
0
LINE
8
User.Drawings
6
CONTINUOUS
10
155.413991999999979
20
-38.6900779999999997
11
155.2285809999999913
21
-38.2651129999999995
0
LINE
8
User.Drawings
6
CONTINUOUS
10
155.2285809999999913
20
-38.2651129999999995
11
155.0754469999999969
21
-37.8274809999999988
0
LINE
8
User.Drawings
6
CONTINUOUS
10
155.0754469999999969
20
-37.8274809999999988
11
154.9554459999999949
21
-37.3796290000000013
0
LINE
8
User.Drawings
6
CONTINUOUS
10
154.9554459999999949
20
-37.3796290000000013
11
154.8692479999999989
21
-36.9240610000000018
0
LINE
8
User.Drawings
6
CONTINUOUS
10
154.8692479999999989
20
-36.9240610000000018
11
154.8173349999999857
21
-36.463325999999995
0
LINE
8
User.Drawings
6
CONTINUOUS
10
154.8173349999999857
20
-36.463325999999995
11
154.8074819999999931
21
-36.1999989999999983
0
LINE
8
User.Drawings
6
CONTINUOUS
10
154.8074819999999931
20
-36.1999989999999983
11
149.
21
-36.1999999999999957
0
LINE
8
User.Drawings
6
CONTINUOUS
10
149.
20
-36.1999999999999957
11
148.9609820000000013
21
-36.1961569999999995
0
LINE
8
User.Drawings
6
CONTINUOUS
10
148.9609820000000013
20
-36.1961569999999995
11
148.8888859999999852
21
-36.1662940000000006
0
LINE
8
User.Drawings
6
CONTINUOUS
10
148.8888859999999852
20
-36.1662940000000006
11
148.8337060000000065
21
-36.1111140000000006
0
LINE
8
User.Drawings
6
CONTINUOUS
10
148.8337060000000065
20
-36.1111140000000006
11
148.8038430000000005
21
-36.0390179999999987
0
LINE
8
User.Drawings
6
CONTINUOUS
10
148.8038430000000005
20
-36.0390179999999987
11
148.8038430000000005
21
-36.0390170000000012
0
LINE
8
User.Drawings
6
CONTINUOUS
10
148.8038430000000005
20
-36.0390170000000012
11
148.7999999999999829
21
-36.
0
LINE
8
User.Drawings
6
CONTINUOUS
10
148.7999999999999829
20
-36.
11
148.7999999999999829
21
-30.0500009999999982
0
LINE
8
User.Drawings
6
CONTINUOUS
10
148.7999999999999829
20
-30.0500009999999982
11
148.7500009999999975
21
-30.0500019999999992
0
LINE
8
User.Drawings
6
CONTINUOUS
10
148.7500009999999975
20
-30.0500019999999992
11
148.7308669999999893
21
-30.0461959999999983
0
LINE
8
User.Drawings
6
CONTINUOUS
10
148.7308669999999893
20
-30.0461959999999983
11
148.7038069999999834
21
-30.0191359999999996
0
LINE
8
User.Drawings
6
CONTINUOUS
10
148.7038069999999834
20
-30.0191359999999996
11
148.7038069999999834
21
-29.9808679999999974
0
LINE
8
User.Drawings
6
CONTINUOUS
10
148.7038069999999834
20
-29.9808679999999974
11
148.7308669999999893
21
-29.9538079999999987
0
LINE
8
User.Drawings
6
CONTINUOUS
10
148.7308669999999893
20
-29.9538079999999987
11
148.7500009999999975
21
-29.9500019999999978
0
LINE
8
User.Drawings
6
CONTINUOUS
10
148.7500009999999975
20
-29.9500019999999978
11
148.8083910000000003
21
-29.9500010000000003
0
LINE
8
User.Drawings
6
CONTINUOUS
10
148.8083910000000003
20
-29.9500010000000003
11
148.8337060000000065
21
-29.8888859999999994
0
LINE
8
User.Drawings
6
CONTINUOUS
10
148.8337060000000065
20
-29.8888859999999994
11
148.8888859999999852
21
-29.8337059999999994
0
LINE
8
User.Drawings
6
CONTINUOUS
10
148.8888859999999852
20
-29.8337059999999994
11
148.9609820000000013
21
-29.803842999999997
0
LINE
8
User.Drawings
6
CONTINUOUS
10
148.9609820000000013
20
-29.803842999999997
11
149.0390179999999987
21
-29.803842999999997
0
LINE
8
User.Drawings
6
CONTINUOUS
10
149.0390179999999987
20
-29.803842999999997
11
149.1111139999999864
21
-29.8337059999999994
0
LINE
8
User.Drawings
6
CONTINUOUS
10
149.1999999999999886
20
-30.0500009999999982
11
149.1999999999999886
21
-35.7999989999999997
0
LINE
8
User.Drawings
6
CONTINUOUS
10
149.1999999999999886
20
-35.7999989999999997
11
154.9999990000000025
21
-35.7999989999999997
0
LINE
8
User.Drawings
6
CONTINUOUS
10
154.9999990000000025
20
-35.7999989999999997
11
155.0390170000000012
21
-35.8038419999999959
0
LINE
8
User.Drawings
6
CONTINUOUS
10
155.0390170000000012
20
-35.8038419999999959
11
155.0572149999999851
21
-35.8113789999999952
0
LINE
8
User.Drawings
6
CONTINUOUS
10
155.0572149999999851
20
-35.8113789999999952
11
155.0765360000000044
21
-35.815222999999996
0
LINE
8
User.Drawings
6
CONTINUOUS
10
155.0765360000000044
20
-35.815222999999996
11
155.0929139999999791
21
-35.8261660000000006
0
LINE
8
User.Drawings
6
CONTINUOUS
10
155.0929139999999791
20
-35.8261660000000006
11
155.1111129999999889
21
-35.8337050000000019
0
LINE
8
User.Drawings
6
CONTINUOUS
10
155.1111129999999889
20
-35.8337050000000019
11
155.1250430000000051
21
-35.8476349999999968
0
LINE
8
User.Drawings
6
CONTINUOUS
10
155.1250430000000051
20
-35.8476349999999968
11
155.1414199999999823
21
-35.8585780000000014
0
LINE
8
User.Drawings
6
CONTINUOUS
10
155.1414199999999823
20
-35.8585780000000014
11
155.1523619999999823
21
-35.8749539999999953
0
LINE
8
User.Drawings
6
CONTINUOUS
10
155.1523619999999823
20
-35.8749539999999953
11
155.166292999999996
21
-35.8888850000000019
0
LINE
8
User.Drawings
6
CONTINUOUS
10
155.166292999999996
20
-35.8888850000000019
11
155.173831000000007
21
-35.9070830000000001
0
LINE
8
User.Drawings
6
CONTINUOUS
10
155.173831000000007
20
-35.9070830000000001
11
155.1847750000000019
21
-35.9234620000000007
0
LINE
8
User.Drawings
6
CONTINUOUS
10
155.1847750000000019
20
-35.9234620000000007
11
155.1886179999999911
21
-35.9427820000000011
0
LINE
8
User.Drawings
6
CONTINUOUS
10
155.1886179999999911
20
-35.9427820000000011
11
155.196156000000002
21
-35.9609809999999968
0
LINE
8
User.Drawings
6
CONTINUOUS
10
155.196156000000002
20
-35.9609809999999968
11
155.196156000000002
21
-35.9806779999999975
0
LINE
8
User.Drawings
6
CONTINUOUS
10
155.196156000000002
20
-35.9806779999999975
11
155.1999989999999912
21
-35.9999989999999954
0
LINE
8
User.Drawings
6
CONTINUOUS
10
155.1999989999999912
20
-35.9999989999999954
11
155.1999989999999912
21
-36.227882000000001
0
LINE
8
User.Drawings
6
CONTINUOUS
10
155.1999989999999912
20
-36.227882000000001
11
155.2357580000000041
21
-36.6822419999999951
0
LINE
8
User.Drawings
6
CONTINUOUS
10
155.2357580000000041
20
-36.6822419999999951
11
155.3070549999999912
21
-37.132396
0
LINE
8
User.Drawings
6
CONTINUOUS
10
155.3070549999999912
20
-37.132396
11
155.4134509999999807
21
-37.575567999999997
0
LINE
8
User.Drawings
6
CONTINUOUS
10
155.4134509999999807
20
-37.575567999999997
11
155.5542910000000063
21
-38.0090269999999961
0
LINE
8
User.Drawings
6
CONTINUOUS
10
155.5542910000000063
20
-38.0090269999999961
11
155.7287039999999934
21
-38.4300989999999985
0
LINE
8
User.Drawings
6
CONTINUOUS
10
155.7287039999999934
20
-38.4300989999999985
11
155.9356169999999793
21
-38.8361889999999974
0
LINE
8
User.Drawings
6
CONTINUOUS
10
155.9356169999999793
20
-38.8361889999999974
11
156.1737540000000024
21
-39.2247929999999982
0
LINE
8
User.Drawings
6
CONTINUOUS
10
156.1737540000000024
20
-39.2247929999999982
11
156.4416459999999915
21
-39.5935149999999965
0
LINE
8
User.Drawings
6
CONTINUOUS
10
156.4416459999999915
20
-39.5935149999999965
11
156.7376419999999939
21
-39.9400809999999993
0
LINE
8
User.Drawings
6
CONTINUOUS
10
156.7376419999999939
20
-39.9400809999999993
11
157.0599169999999845
21
-40.2623559999999969
0
LINE
8
User.Drawings
6
CONTINUOUS
10
157.0599169999999845
20
-40.2623559999999969
11
157.4064829999999802
21
-40.5583519999999993
0
LINE
8
User.Drawings
6
CONTINUOUS
10
157.4064829999999802
20
-40.5583519999999993
11
157.7752049999999997
21
-40.8262439999999955
0
LINE
8
User.Drawings
6
CONTINUOUS
10
157.7752049999999997
20
-40.8262439999999955
11
158.1638089999999863
21
-41.0643809999999974
0
LINE
8
User.Drawings
6
CONTINUOUS
10
158.1638089999999863
20
-41.0643809999999974
11
158.5698989999999924
21
-41.2712939999999975
0
LINE
8
User.Drawings
6
CONTINUOUS
10
158.5698989999999924
20
-41.2712939999999975
11
158.9909710000000018
21
-41.4457069999999987
0
LINE
8
User.Drawings
6
CONTINUOUS
10
158.9909710000000018
20
-41.4457069999999987
11
159.424430000000001
21
-41.5865469999999959
0
LINE
8
User.Drawings
6
CONTINUOUS
10
159.424430000000001
20
-41.5865469999999959
11
159.8676020000000051
21
-41.6929429999999996
0
LINE
8
User.Drawings
6
CONTINUOUS
10
159.8676020000000051
20
-41.6929429999999996
11
160.3177560000000028
21
-41.7642400000000009
0
LINE
8
User.Drawings
6
CONTINUOUS
10
160.3177560000000028
20
-41.7642400000000009
11
160.7721159999999827
21
-41.7999989999999997
0
LINE
8
User.Drawings
6
CONTINUOUS
10
160.7721159999999827
20
-41.7999989999999997
11
160.9999990000000025
21
-41.7999989999999997
0
LINE
8
User.Drawings
6
CONTINUOUS
10
160.9999990000000025
20
-41.7999989999999997
11
161.3344899999999882
21
-41.8175290000000004
0
LINE
8
User.Drawings
6
CONTINUOUS
10
161.3344899999999882
20
-41.8175290000000004
11
161.66531599999999
21
-41.869926999999997
0
LINE
8
User.Drawings
6
CONTINUOUS
10
161.66531599999999
20
-41.869926999999997
11
161.988853000000006
21
-41.9566179999999989
0
LINE
8
User.Drawings
6
CONTINUOUS
10
161.988853000000006
20
-41.9566179999999989
11
162.301556000000005
21
-42.0766539999999978
0
LINE
8
User.Drawings
6
CONTINUOUS
10
162.301556000000005
20
-42.0766539999999978
11
162.5999989999999968
21
-42.2287180000000006
0
LINE
8
User.Drawings
6
CONTINUOUS
10
162.5999989999999968
20
-42.2287180000000006
11
162.880911999999995
21
-42.4111449999999977
0
LINE
8
User.Drawings
6
CONTINUOUS
10
162.880911999999995
20
-42.4111449999999977
11
163.1412169999999833
21
-42.621935999999998
0
LINE
8
User.Drawings
6
CONTINUOUS
10
163.1412169999999833
20
-42.621935999999998
11
163.3780619999999999
21
-42.8587810000000005
0
LINE
8
User.Drawings
6
CONTINUOUS
10
163.3780619999999999
20
-42.8587810000000005
11
163.5888530000000003
21
-43.1190859999999958
0
LINE
8
User.Drawings
6
CONTINUOUS
10
163.5888530000000003
20
-43.1190859999999958
11
163.7712799999999902
21
-43.3999990000000011
0
LINE
8
User.Drawings
6
CONTINUOUS
10
163.7712799999999902
20
-43.3999990000000011
11
163.923343999999986
21
-43.698442
0
LINE
8
User.Drawings
6
CONTINUOUS
10
163.923343999999986
20
-43.698442
11
164.0433799999999849
21
-44.0111449999999991
0
LINE
8
User.Drawings
6
CONTINUOUS
10
164.0433799999999849
20
-44.0111449999999991
11
164.1300709999999867
21
-44.3346820000000008
0
LINE
8
User.Drawings
6
CONTINUOUS
10
164.1300709999999867
20
-44.3346820000000008
11
164.1824689999999975
21
-44.6655079999999955
0
LINE
8
User.Drawings
6
CONTINUOUS
10
164.1824689999999975
20
-44.6655079999999955
11
164.1999989999999912
21
-44.9999989999999954
0
LINE
8
User.Drawings
6
CONTINUOUS
10
164.1999989999999912
20
-44.9999989999999954
11
164.1999989999999912
21
-50.9999989999999954
0
LINE
8
User.Drawings
6
CONTINUOUS
10
164.1999989999999912
20
-50.9999989999999954
11
164.1824689999999975
21
-51.3344899999999953
0
LINE
8
User.Drawings
6
CONTINUOUS
10
164.1824689999999975
20
-51.3344899999999953
11
164.1300709999999867
21
-51.6653159999999971
0
LINE
8
User.Drawings
6
CONTINUOUS
10
164.1300709999999867
20
-51.6653159999999971
11
164.0433799999999849
21
-51.9888529999999989
0
LINE
8
User.Drawings
6
CONTINUOUS
10
164.0433799999999849
20
-51.9888529999999989
11
163.923343999999986
21
-52.3015559999999979
0
LINE
8
User.Drawings
6
CONTINUOUS
10
163.923343999999986
20
-52.3015559999999979
11
163.7712799999999902
21
-52.5999989999999968
0
LINE
8
User.Drawings
6
CONTINUOUS
10
163.7712799999999902
20
-52.5999989999999968
11
163.5888530000000003
21
-52.880911999999995
0
LINE
8
User.Drawings
6
CONTINUOUS
10
163.5888530000000003
20
-52.880911999999995
11
163.3780619999999999
21
-53.1412169999999975
0
LINE
8
User.Drawings
6
CONTINUOUS
10
163.3780619999999999
20
-53.1412169999999975
11
163.1412169999999833
21
-53.3780619999999999
0
LINE
8
User.Drawings
6
CONTINUOUS
10
163.1412169999999833
20
-53.3780619999999999
11
162.880911999999995
21
-53.5888530000000003
0
LINE
8
User.Drawings
6
CONTINUOUS
10
162.880911999999995
20
-53.5888530000000003
11
162.5999989999999968
21
-53.7712799999999973
0
LINE
8
User.Drawings
6
CONTINUOUS
10
162.5999989999999968
20
-53.7712799999999973
11
162.301556000000005
21
-53.9233440000000002
0
LINE
8
User.Drawings
6
CONTINUOUS
10
162.301556000000005
20
-53.9233440000000002
11
161.988853000000006
21
-54.0433799999999991
0
LINE
8
User.Drawings
6
CONTINUOUS
10
161.988853000000006
20
-54.0433799999999991
11
161.66531599999999
21
-54.1300710000000009
0
LINE
8
User.Drawings
6
CONTINUOUS
10
161.66531599999999
20
-54.1300710000000009
11
161.3344899999999882
21
-54.1824689999999975
0
LINE
8
User.Drawings
6
CONTINUOUS
10
161.3344899999999882
20
-54.1824689999999975
11
160.9999990000000025
21
-54.1999989999999983
0
LINE
8
User.Drawings
6
CONTINUOUS
10
160.9999990000000025
20
-54.1999989999999983
11
160.7662669999999991
21
-54.1999989999999983
0
LINE
8
User.Drawings
6
CONTINUOUS
10
160.7662669999999991
20
-54.1999989999999983
11
160.3003190000000018
21
-54.2376140000000007
0
LINE
8
User.Drawings
6
CONTINUOUS
10
160.3003190000000018
20
-54.2376140000000007
11
159.8389080000000035
21
-54.3125999999999962
0
LINE
8
User.Drawings
6
CONTINUOUS
10
159.8389080000000035
20
-54.3125999999999962
11
159.3850280000000055
21
-54.4244719999999944
0
LINE
8
User.Drawings
6
CONTINUOUS
10
159.3850280000000055
20
-54.4244719999999944
11
158.9416209999999978
21
-54.5725029999999975
0
LINE
8
User.Drawings
6
CONTINUOUS
10
158.9416209999999978
20
-54.5725029999999975
11
158.5115639999999928
21
-54.7557329999999993
0
LINE
8
User.Drawings
6
CONTINUOUS
10
158.5115639999999928
20
-54.7557329999999993
11
158.097645
21
-54.9729740000000007
0
LINE
8
User.Drawings
6
CONTINUOUS
10
158.097645
20
-54.9729740000000007
11
157.7025490000000048
21
-55.2228179999999966
0
LINE
8
User.Drawings
6
CONTINUOUS
10
157.7025490000000048
20
-55.2228179999999966
11
157.3288379999999904
21
-55.5036429999999967
0
LINE
8
User.Drawings
6
CONTINUOUS
10
157.3288379999999904
20
-55.5036429999999967
11
156.9789360000000045
21
-55.8136289999999988
0
LINE
8
User.Drawings
6
CONTINUOUS
10
156.9789360000000045
20
-55.8136289999999988
11
156.6551130000000001
21
-56.1507659999999973
0
LINE
8
User.Drawings
6
CONTINUOUS
10
156.6551130000000001
20
-56.1507659999999973
11
156.3594669999999951
21
-56.5128659999999954
0
LINE
8
User.Drawings
6
CONTINUOUS
10
156.3594669999999951
20
-56.5128659999999954
11
156.0939170000000047
21
-56.8975809999999953
0
LINE
8
User.Drawings
6
CONTINUOUS
10
156.0939170000000047
20
-56.8975809999999953
11
155.8601850000000013
21
-57.3024169999999984
0
LINE
8
User.Drawings
6
CONTINUOUS
10
155.8601850000000013
20
-57.3024169999999984
11
155.6597869999999944
21
-57.7247470000000007
0
LINE
8
User.Drawings
6
CONTINUOUS
10
155.6597869999999944
20
-57.7247470000000007
11
155.4940220000000011
21
-58.1618339999999989
0
LINE
8
User.Drawings
6
CONTINUOUS
10
155.4940220000000011
20
-58.1618339999999989
11
155.363964999999979
21
-58.6108410000000006
0
LINE
8
User.Drawings
6
CONTINUOUS
10
155.363964999999979
20
-58.6108410000000006
11
155.2704599999999857
21
-59.0688579999999988
0
LINE
8
User.Drawings
6
CONTINUOUS
10
155.2704599999999857
20
-59.0688579999999988
11
155.214113999999995
21
-59.5329139999999981
0
LINE
8
User.Drawings
6
CONTINUOUS
10
155.214113999999995
20
-59.5329139999999981
11
155.1952909999999974
21
-59.9999989999999954
0
LINE
8
User.Drawings
6
CONTINUOUS
10
155.1952909999999974
20
-59.9999989999999954
11
155.214113999999995
21
-60.4670839999999998
0
LINE
8
User.Drawings
6
CONTINUOUS
10
155.214113999999995
20
-60.4670839999999998
11
155.2704599999999857
21
-60.9311399999999992
0
LINE
8
User.Drawings
6
CONTINUOUS
10
155.2704599999999857
20
-60.9311399999999992
11
155.363964999999979
21
-61.3891569999999973
0
LINE
8
User.Drawings
6
CONTINUOUS
10
155.363964999999979
20
-61.3891569999999973
11
155.4940220000000011
21
-61.838163999999999
0
LINE
8
User.Drawings
6
CONTINUOUS
10
155.4940220000000011
20
-61.838163999999999
11
155.6597869999999944
21
-62.2752509999999972
0
LINE
8
User.Drawings
6
CONTINUOUS
10
155.6597869999999944
20
-62.2752509999999972
11
155.8601850000000013
21
-62.6975809999999996
0
LINE
8
User.Drawings
6
CONTINUOUS
10
155.8601850000000013
20
-62.6975809999999996
11
156.0939170000000047
21
-63.1024169999999955
0
LINE
8
User.Drawings
6
CONTINUOUS
10
156.0939170000000047
20
-63.1024169999999955
11
156.3594669999999951
21
-63.4871319999999955
0
LINE
8
User.Drawings
6
CONTINUOUS
10
156.3594669999999951
20
-63.4871319999999955
11
156.6551130000000001
21
-63.8492320000000007
0
LINE
8
User.Drawings
6
CONTINUOUS
10
156.6551130000000001
20
-63.8492320000000007
11
156.9789360000000045
21
-64.1863689999999991
0
LINE
8
User.Drawings
6
CONTINUOUS
10
156.9789360000000045
20
-64.1863689999999991
11
157.3288379999999904
21
-64.4963549999999941
0
LINE
8
User.Drawings
6
CONTINUOUS
10
157.3288379999999904
20
-64.4963549999999941
11
157.7025490000000048
21
-64.7771800000000013
0
LINE
8
User.Drawings
6
CONTINUOUS
10
157.7025490000000048
20
-64.7771800000000013
11
158.097645
21
-65.0270239999999973
0
LINE
8
User.Drawings
6
CONTINUOUS
10
158.097645
20
-65.0270239999999973
11
158.5115639999999928
21
-65.2442649999999986
0
LINE
8
User.Drawings
6
CONTINUOUS
10
158.5115639999999928
20
-65.2442649999999986
11
158.9416209999999978
21
-65.4274949999999933
0
LINE
8
User.Drawings
6
CONTINUOUS
10
158.9416209999999978
20
-65.4274949999999933
11
159.3850280000000055
21
-65.5755259999999964
0
LINE
8
User.Drawings
6
CONTINUOUS
10
159.3850280000000055
20
-65.5755259999999964
11
159.8389080000000035
21
-65.6873980000000017
0
LINE
8
User.Drawings
6
CONTINUOUS
10
159.8389080000000035
20
-65.6873980000000017
11
160.3003190000000018
21
-65.7623839999999973
0
LINE
8
User.Drawings
6
CONTINUOUS
10
160.3003190000000018
20
-65.7623839999999973
11
160.7662669999999991
21
-65.7999989999999997
0
LINE
8
User.Drawings
6
CONTINUOUS
10
160.7662669999999991
20
-65.7999989999999997
11
160.9999990000000025
21
-65.7999989999999997
0
LINE
8
User.Drawings
6
CONTINUOUS
10
160.9999990000000025
20
-65.7999989999999997
11
161.3344899999999882
21
-65.8175289999999933
0
LINE
8
User.Drawings
6
CONTINUOUS
10
161.3344899999999882
20
-65.8175289999999933
11
161.66531599999999
21
-65.8699270000000041
0
LINE
8
User.Drawings
6
CONTINUOUS
10
161.66531599999999
20
-65.8699270000000041
11
161.988853000000006
21
-65.9566179999999918
0
LINE
8
User.Drawings
6
CONTINUOUS
10
161.988853000000006
20
-65.9566179999999918
11
162.301556000000005
21
-66.0766539999999907
0
LINE
8
User.Drawings
6
CONTINUOUS
10
162.301556000000005
20
-66.0766539999999907
11
162.5999989999999968
21
-66.2287180000000006
0
LINE
8
User.Drawings
6
CONTINUOUS
10
162.5999989999999968
20
-66.2287180000000006
11
162.880911999999995
21
-66.4111449999999905
0
LINE
8
User.Drawings
6
CONTINUOUS
10
162.880911999999995
20
-66.4111449999999905
11
163.1412169999999833
21
-66.6219359999999909
0
LINE
8
User.Drawings
6
CONTINUOUS
10
163.1412169999999833
20
-66.6219359999999909
11
163.3780619999999999
21
-66.8587809999999934
0
LINE
8
User.Drawings
6
CONTINUOUS
10
163.3780619999999999
20
-66.8587809999999934
11
163.5888530000000003
21
-67.1190859999999958
0
LINE
8
User.Drawings
6
CONTINUOUS
10
163.5888530000000003
20
-67.1190859999999958
11
163.7712799999999902
21
-67.399998999999994
0
LINE
8
User.Drawings
6
CONTINUOUS
10
163.7712799999999902
20
-67.399998999999994
11
163.923343999999986
21
-67.698442
0
LINE
8
User.Drawings
6
CONTINUOUS
10
163.923343999999986
20
-67.698442
11
164.0433799999999849
21
-68.0111449999999991
0
LINE
8
User.Drawings
6
CONTINUOUS
10
164.0433799999999849
20
-68.0111449999999991
11
164.1300709999999867
21
-68.3346820000000008
0
LINE
8
User.Drawings
6
CONTINUOUS
10
164.1300709999999867
20
-68.3346820000000008
11
164.1824689999999975
21
-68.6655080000000027
0
LINE
8
User.Drawings
6
CONTINUOUS
10
164.1824689999999975
20
-68.6655080000000027
11
164.1999989999999912
21
-68.9999990000000025
0
LINE
8
User.Drawings
6
CONTINUOUS
10
164.1999989999999912
20
-68.9999990000000025
11
164.1999989999999912
21
-97.9999990000000025
0
LINE
8
User.Drawings
6
CONTINUOUS
10
164.1999989999999912
20
-97.9999990000000025
11
164.196156000000002
21
-98.0390170000000012
0
LINE
8
User.Drawings
6
CONTINUOUS
10
164.196156000000002
20
-98.0390170000000012
11
164.1886179999999911
21
-98.0572149999999993
0
LINE
8
User.Drawings
6
CONTINUOUS
10
164.1886179999999911
20
-98.0572149999999993
11
164.1847750000000019
21
-98.0765359999999902
0
LINE
8
User.Drawings
6
CONTINUOUS
10
164.1847750000000019
20
-98.0765359999999902
11
164.1738309999999785
21
-98.0929139999999933
0
LINE
8
User.Drawings
6
CONTINUOUS
10
164.1738309999999785
20
-98.0929139999999933
11
164.166292999999996
21
-98.1111129999999889
0
LINE
8
User.Drawings
6
CONTINUOUS
10
164.166292999999996
20
-98.1111129999999889
11
164.1523619999999823
21
-98.1250429999999909
0
LINE
8
User.Drawings
6
CONTINUOUS
10
164.1523619999999823
20
-98.1250429999999909
11
164.1414199999999823
21
-98.1414199999999965
0
LINE
8
User.Drawings
6
CONTINUOUS
10
164.1414199999999823
20
-98.1414199999999965
11
164.1250430000000051
21
-98.1523619999999966
0
LINE
8
User.Drawings
6
CONTINUOUS
10
164.1250430000000051
20
-98.1523619999999966
11
164.1111129999999889
21
-98.166292999999996
0
LINE
8
User.Drawings
6
CONTINUOUS
10
164.1111129999999889
20
-98.166292999999996
11
164.0929139999999791
21
-98.1738309999999927
0
LINE
8
User.Drawings
6
CONTINUOUS
10
164.0929139999999791
20
-98.1738309999999927
11
164.0765360000000044
21
-98.1847750000000019
0
LINE
8
User.Drawings
6
CONTINUOUS
10
164.0765360000000044
20
-98.1847750000000019
11
164.0572149999999851
21
-98.1886179999999911
0
LINE
8
User.Drawings
6
CONTINUOUS
10
164.0572149999999851
20
-98.1886179999999911
11
164.0390170000000012
21
-98.196156000000002
0
LINE
8
User.Drawings
6
CONTINUOUS
10
164.0390170000000012
20
-98.196156000000002
11
164.0193189999999959
21
-98.196156000000002
0
LINE
8
User.Drawings
6
CONTINUOUS
10
164.0193189999999959
20
-98.196156000000002
11
163.9999990000000025
21
-98.1999989999999912
0
LINE
8
User.Drawings
6
CONTINUOUS
10
163.9999990000000025
20
-98.1999989999999912
11
163.7721159999999827
21
-98.1999989999999912
0
LINE
8
User.Drawings
6
CONTINUOUS
10
163.7721159999999827
20
-98.1999989999999912
11
163.3177560000000028
21
-98.2357579999999899
0
LINE
8
User.Drawings
6
CONTINUOUS
10
163.3177560000000028
20
-98.2357579999999899
11
162.8676020000000051
21
-98.3070549999999912
0
LINE
8
User.Drawings
6
CONTINUOUS
10
162.8676020000000051
20
-98.3070549999999912
11
162.424430000000001
21
-98.4134509999999949
0
LINE
8
User.Drawings
6
CONTINUOUS
10
162.424430000000001
20
-98.4134509999999949
11
161.9909710000000018
21
-98.5542909999999921
0
LINE
8
User.Drawings
6
CONTINUOUS
10
161.9909710000000018
20
-98.5542909999999921
11
161.5698989999999924
21
-98.7287039999999934
0
LINE
8
User.Drawings
6
CONTINUOUS
10
161.5698989999999924
20
-98.7287039999999934
11
161.1638089999999863
21
-98.9356169999999935
0
LINE
8
User.Drawings
6
CONTINUOUS
10
161.1638089999999863
20
-98.9356169999999935
11
160.7752049999999997
21
-99.1737540000000024
0
LINE
8
User.Drawings
6
CONTINUOUS
10
160.7752049999999997
20
-99.1737540000000024
11
160.4064829999999802
21
-99.4416459999999915
0
LINE
8
User.Drawings
6
CONTINUOUS
10
160.4064829999999802
20
-99.4416459999999915
11
160.0599169999999845
21
-99.7376419999999939
0
LINE
8
User.Drawings
6
CONTINUOUS
10
160.0599169999999845
20
-99.7376419999999939
11
159.7376419999999939
21
-100.0599169999999987
0
LINE
8
User.Drawings
6
CONTINUOUS
10
159.7376419999999939
20
-100.0599169999999987
11
159.4416459999999915
21
-100.4064829999999944
0
LINE
8
User.Drawings
6
CONTINUOUS
10
159.4416459999999915
20
-100.4064829999999944
11
159.1737540000000024
21
-100.7752049999999997
0
LINE
8
User.Drawings
6
CONTINUOUS
10
159.1737540000000024
20
-100.7752049999999997
11
158.9356169999999793
21
-101.1638090000000005
0
LINE
8
User.Drawings
6
CONTINUOUS
10
158.9356169999999793
20
-101.1638090000000005
11
158.7287039999999934
21
-101.5698989999999924
0
LINE
8
User.Drawings
6
CONTINUOUS
10
158.7287039999999934
20
-101.5698989999999924
11
158.5542910000000063
21
-101.9909710000000018
0
LINE
8
User.Drawings
6
CONTINUOUS
10
158.5542910000000063
20
-101.9909710000000018
11
158.4134509999999807
21
-102.424430000000001
0
LINE
8
User.Drawings
6
CONTINUOUS
10
158.4134509999999807
20
-102.424430000000001
11
158.3070549999999912
21
-102.8676019999999909
0
LINE
8
User.Drawings
6
CONTINUOUS
10
158.3070549999999912
20
-102.8676019999999909
11
158.2357580000000041
21
-103.3177559999999886
0
LINE
8
User.Drawings
6
CONTINUOUS
10
158.2357580000000041
20
-103.3177559999999886
11
158.1999989999999912
21
-103.7721159999999969
0
LINE
8
User.Drawings
6
CONTINUOUS
10
158.1999989999999912
20
-103.7721159999999969
11
158.1999989999999912
21
-103.9999989999999883
0
LINE
8
User.Drawings
6
CONTINUOUS
10
158.1999989999999912
20
-103.9999989999999883
11
158.196156000000002
21
-104.0193189999999959
0
LINE
8
User.Drawings
6
CONTINUOUS
10
158.196156000000002
20
-104.0193189999999959
11
158.196156000000002
21
-104.0390170000000012
0
LINE
8
User.Drawings
6
CONTINUOUS
10
158.196156000000002
20
-104.0390170000000012
11
158.1886179999999911
21
-104.0572149999999993
0
LINE
8
User.Drawings
6
CONTINUOUS
10
158.1886179999999911
20
-104.0572149999999993
11
158.1847750000000019
21
-104.0765359999999902
0
LINE
8
User.Drawings
6
CONTINUOUS
10
158.1847750000000019
20
-104.0765359999999902
11
158.173831000000007
21
-104.0929139999999933
0
LINE
8
User.Drawings
6
CONTINUOUS
10
158.173831000000007
20
-104.0929139999999933
11
158.166292999999996
21
-104.1111129999999889
0
LINE
8
User.Drawings
6
CONTINUOUS
10
158.166292999999996
20
-104.1111129999999889
11
158.1523619999999823
21
-104.1250429999999909
0
LINE
8
User.Drawings
6
CONTINUOUS
10
158.1523619999999823
20
-104.1250429999999909
11
158.1414199999999823
21
-104.1414199999999965
0
LINE
8
User.Drawings
6
CONTINUOUS
10
158.1414199999999823
20
-104.1414199999999965
11
158.1250430000000051
21
-104.1523619999999966
0
LINE
8
User.Drawings
6
CONTINUOUS
10
158.1250430000000051
20
-104.1523619999999966
11
158.1111129999999889
21
-104.166292999999996
0
LINE
8
User.Drawings
6
CONTINUOUS
10
158.1111129999999889
20
-104.166292999999996
11
158.0929139999999791
21
-104.1738309999999927
0
LINE
8
User.Drawings
6
CONTINUOUS
10
158.0929139999999791
20
-104.1738309999999927
11
158.0765360000000044
21
-104.1847750000000019
0
LINE
8
User.Drawings
6
CONTINUOUS
10
158.0765360000000044
20
-104.1847750000000019
11
158.0572149999999851
21
-104.1886179999999911
0
LINE
8
User.Drawings
6
CONTINUOUS
10
158.0572149999999851
20
-104.1886179999999911
11
158.0390170000000012
21
-104.196156000000002
0
LINE
8
User.Drawings
6
CONTINUOUS
10
158.0390170000000012
20
-104.196156000000002
11
157.9999990000000025
21
-104.1999989999999912
0
LINE
8
User.Drawings
6
CONTINUOUS
10
157.9999990000000025
20
-104.1999989999999912
11
155.1999989999999912
21
-104.1999989999999912
0
LINE
8
User.Drawings
6
CONTINUOUS
10
155.1999989999999912
20
-104.1999989999999912
11
155.1999989999999912
21
-109.9499999999999886
0
LINE
8
User.Drawings
6
CONTINUOUS
10
155.1999989999999912
20
-109.9499999999999886
11
164.
21
-109.9499999999999886
0
LINE
8
User.Drawings
6
CONTINUOUS
10
164.
20
-109.9499999999999886
11
164.233776000000006
21
-109.9499999999999886
0
LINE
8
User.Drawings
6
CONTINUOUS
10
164.233776000000006
20
-109.9499999999999886
11
164.6998869999999897
21
-109.9133169999999922
0
LINE
8
User.Drawings
6
CONTINUOUS
10
164.6998869999999897
20
-109.9133169999999922
11
165.1616829999999823
21
-109.8401750000000021
0
LINE
8
User.Drawings
6
CONTINUOUS
10
165.1616829999999823
20
-109.8401750000000021
11
165.6163169999999809
21
-109.7310279999999949
0
LINE
8
User.Drawings
6
CONTINUOUS
10
165.6163169999999809
20
-109.7310279999999949
11
166.0609859999999856
21
-109.5865459999999985
0
LINE
8
User.Drawings
6
CONTINUOUS
10
166.0609859999999856
20
-109.5865459999999985
11
166.4929479999999842
21
-109.4076209999999918
0
LINE
8
User.Drawings
6
CONTINUOUS
10
166.4929479999999842
20
-109.4076209999999918
11
166.9095399999999927
21
-109.1953570000000013
0
LINE
8
User.Drawings
6
CONTINUOUS
10
166.9095399999999927
20
-109.1953570000000013
11
167.3081939999999861
21
-108.9510619999999932
0
LINE
8
User.Drawings
6
CONTINUOUS
10
167.3081939999999861
20
-108.9510619999999932
11
167.6864520000000027
21
-108.6762409999999903
0
LINE
8
User.Drawings
6
CONTINUOUS
10
167.6864520000000027
20
-108.6762409999999903
11
168.0419809999999927
21
-108.3725909999999999
0
LINE
8
User.Drawings
6
CONTINUOUS
10
168.0419809999999927
20
-108.3725909999999999
11
168.3725909999999999
21
-108.0419809999999927
0
LINE
8
User.Drawings
6
CONTINUOUS
10
168.3725909999999999
20
-108.0419809999999927
11
168.6762410000000045
21
-107.6864519999999885
0
LINE
8
User.Drawings
6
CONTINUOUS
10
168.6762410000000045
20
-107.6864519999999885
11
168.951061999999979
21
-107.3081940000000003
0
LINE
8
User.Drawings
6
CONTINUOUS
10
168.951061999999979
20
-107.3081940000000003
11
169.1953570000000013
21
-106.9095399999999927
0
LINE
8
User.Drawings
6
CONTINUOUS
10
169.1953570000000013
20
-106.9095399999999927
11
169.407621000000006
21
-106.4929479999999984
0
LINE
8
User.Drawings
6
CONTINUOUS
10
169.407621000000006
20
-106.4929479999999984
11
169.5865459999999985
21
-106.0609859999999998
0
LINE
8
User.Drawings
6
CONTINUOUS
10
169.5865459999999985
20
-106.0609859999999998
11
169.7310279999999807
21
-105.6163169999999951
0
LINE
8
User.Drawings
6
CONTINUOUS
10
169.7310279999999807
20
-105.6163169999999951
11
169.8401749999999879
21
-105.1616829999999965
0
LINE
8
User.Drawings
6
CONTINUOUS
10
169.8401749999999879
20
-105.1616829999999965
11
169.9133170000000064
21
-104.6998869999999897
0
LINE
8
User.Drawings
6
CONTINUOUS
10
169.9133170000000064
20
-104.6998869999999897
11
169.9499999999999886
21
-104.2337759999999918
0
LINE
8
User.Drawings
6
CONTINUOUS
10
169.9499999999999886
20
-104.2337759999999918
11
169.9499999999999886
21
-104.
0
LINE
8
User.Drawings
6
CONTINUOUS
10
169.9499999999999886
20
-104.
11
169.9500009999999861
21
-103.9999959999999959
0
LINE
8
User.Drawings
6
CONTINUOUS
10
169.9500009999999861
20
-103.9999959999999959
11
169.9500009999999861
21
-36.0000029999999995
0
LINE
8
User.Drawings
6
CONTINUOUS
10
169.9500009999999861
20
-36.0000029999999995
11
169.9499999999999886
21
-36.
0
LINE
8
User.Drawings
6
CONTINUOUS
10
169.9499999999999886
20
-36.
11
169.9499999999999886
21
-35.7662240000000011
0
LINE
8
User.Drawings
6
CONTINUOUS
10
169.9499999999999886
20
-35.7662240000000011
11
169.9133170000000064
21
-35.3001129999999961
0
LINE
8
User.Drawings
6
CONTINUOUS
10
169.9133170000000064
20
-35.3001129999999961
11
169.8401749999999879
21
-34.8383169999999964
0
LINE
8
User.Drawings
6
CONTINUOUS
10
169.8401749999999879
20
-34.8383169999999964
11
169.7310279999999807
21
-34.3836829999999978
0
LINE
8
User.Drawings
6
CONTINUOUS
10
169.7310279999999807
20
-34.3836829999999978
11
169.5865459999999985
21
-33.9390140000000002
0
LINE
8
User.Drawings
6
CONTINUOUS
10
169.5865459999999985
20
-33.9390140000000002
11
169.407621000000006
21
-33.5070520000000016
0
LINE
8
User.Drawings
6
CONTINUOUS
10
169.407621000000006
20
-33.5070520000000016
11
169.1953570000000013
21
-33.0904600000000002
0
LINE
8
User.Drawings
6
CONTINUOUS
10
169.1953570000000013
20
-33.0904600000000002
11
168.951061999999979
21
-32.6918059999999997
0
LINE
8
User.Drawings
6
CONTINUOUS
10
168.951061999999979
20
-32.6918059999999997
11
168.6762410000000045
21
-32.3135479999999973
0
LINE
8
User.Drawings
6
CONTINUOUS
10
168.6762410000000045
20
-32.3135479999999973
11
168.3725909999999999
21
-31.9580190000000002
0
LINE
8
User.Drawings
6
CONTINUOUS
10
168.3725909999999999
20
-31.9580190000000002
11
168.0419809999999927
21
-31.6274090000000001
0
LINE
8
User.Drawings
6
CONTINUOUS
10
168.0419809999999927
20
-31.6274090000000001
11
167.6864520000000027
21
-31.323758999999999
0
LINE
8
User.Drawings
6
CONTINUOUS
10
167.6864520000000027
20
-31.323758999999999
11
167.3081939999999861
21
-31.0489379999999997
0
LINE
8
User.Drawings
6
CONTINUOUS
10
167.3081939999999861
20
-31.0489379999999997
11
166.9095399999999927
21
-30.8046429999999987
0
LINE
8
User.Drawings
6
CONTINUOUS
10
166.9095399999999927
20
-30.8046429999999987
11
166.4929479999999842
21
-30.5923789999999975
0
LINE
8
User.Drawings
6
CONTINUOUS
10
166.4929479999999842
20
-30.5923789999999975
11
166.0609859999999856
21
-30.413453999999998
0
LINE
8
User.Drawings
6
CONTINUOUS
10
166.0609859999999856
20
-30.413453999999998
11
165.6163169999999809
21
-30.268971999999998
0
LINE
8
User.Drawings
6
CONTINUOUS
10
165.6163169999999809
20
-30.268971999999998
11
165.1616829999999823
21
-30.1598249999999979
0
LINE
8
User.Drawings
6
CONTINUOUS
10
165.1616829999999823
20
-30.1598249999999979
11
164.6998869999999897
21
-30.0866829999999972
0
LINE
8
User.Drawings
6
CONTINUOUS
10
164.6998869999999897
20
-30.0866829999999972
11
164.233776000000006
21
-30.0499999999999972
0
LINE
8
User.Drawings
6
CONTINUOUS
10
164.233776000000006
20
-30.0499999999999972
11
164.
21
-30.0499999999999972
0
LINE
8
User.Drawings
6
CONTINUOUS
10
164.
20
-30.0499999999999972
11
149.1999999999999886
21
-30.0500009999999982
  0
ENDSEC
  0
EOF
