  0
SECTION
  2
HEADER
  9
$ANGBASE
  50
0.0
  9
$ANGDIR
  70
1
  9
$MEASUREMENT
  70
1
  9
$INSUNITS
  70
4
  0
ENDSEC
  0
SECTION
  2
TABLES
  0
TABLE
  2
LTYPE
  70
4
  0
LTYPE
  5
40F
  2
CONTINUOUS
  70
0
  3
Solid line
  72
65
  73
0
  40
0.0
  0
LTYPE
  5
410
  2
DASHDOT
 70
0
  3
Dash Dot ____ _ ____ _
 72
65
 73
4
 40
2.0
 49
1.25
 49
-0.25
 49
0.25
 49
-0.25
  0
LTYPE
  5
411
  2
DASHED
 70
0
  3
Dashed __ __ __ __ __
 72
65
 73
2
 40
0.75
 49
0.5
 49
-0.25
  0
LTYPE
  5
43B
  2
DOTTED
 70
0
  3
Dotted .  .  .  .
 72
65
 73
2
 40
0.2
 49
0.0
 49
-0.2
  0
ENDTAB
  0
TABLE
  2
STYLE
  70
4
  0
STYLE
  2
KICAD
  70
0
  40
0
  41
1
  42
1
  50
0
  71
0
  3
isocp.shx
  0
STYLE
  2
KICADB
  70
0
  40
0
  41
1
  42
1
  50
0
  71
0
  3
isocp.shx
  0
STYLE
  2
KICADI
  70
0
  40
0
  41
1
  42
1
  50
15
  71
0
  3
isocp.shx
  0
STYLE
  2
KICADBI
  70
0
  40
0
  41
1
  42
1
  50
15
  71
0
  3
isocp.shx
  0
ENDTAB
  0
TABLE
  2
LAYER
  70
1
  0
LAYER
  2
User.Drawings
  70
0
  62
9
  420
12763842
  6
CONTINUOUS
  0
ENDTAB
  0
ENDSEC
  0
SECTION
  2
ENTITIES
0
LINE
8
User.Drawings
6
CONTINUOUS
10
126.3034779999999984
20
-102.735919999999993
11
126.4974869999999925
21
-102.7989579999999989
0
LINE
8
User.Drawings
6
CONTINUOUS
10
126.4974869999999925
20
-102.7989579999999989
11
126.6792469999999895
21
-102.8915689999999898
0
LINE
8
User.Drawings
6
CONTINUOUS
10
126.6792469999999895
20
-102.8915689999999898
11
126.8442809999999952
21
-103.0114729999999952
0
LINE
8
User.Drawings
6
CONTINUOUS
10
126.8442809999999952
20
-103.0114729999999952
11
126.9885269999999906
21
-103.1557189999999906
0
LINE
8
User.Drawings
6
CONTINUOUS
10
126.9885269999999906
20
-103.1557189999999906
11
127.1084309999999959
21
-103.3207529999999963
0
LINE
8
User.Drawings
6
CONTINUOUS
10
127.1084309999999959
20
-103.3207529999999963
11
127.2010420000000011
21
-103.5025129999999933
0
LINE
8
User.Drawings
6
CONTINUOUS
10
127.2010420000000011
20
-103.5025129999999933
11
127.2640799999999928
21
-103.6965220000000016
0
LINE
8
User.Drawings
6
CONTINUOUS
10
127.2640799999999928
20
-103.6965220000000016
11
127.2959919999999983
21
-103.8980040000000002
0
LINE
8
User.Drawings
6
CONTINUOUS
10
127.2959919999999983
20
-103.8980040000000002
11
127.2959919999999983
21
-104.1019979999999947
0
LINE
8
User.Drawings
6
CONTINUOUS
10
127.2959919999999983
20
-104.1019979999999947
11
127.2640799999999928
21
-104.3034799999999933
0
LINE
8
User.Drawings
6
CONTINUOUS
10
127.2640799999999928
20
-104.3034799999999933
11
127.2010420000000011
21
-104.4974890000000016
0
LINE
8
User.Drawings
6
CONTINUOUS
10
127.2010420000000011
20
-104.4974890000000016
11
127.1084309999999959
21
-104.6792489999999987
0
LINE
8
User.Drawings
6
CONTINUOUS
10
127.1084309999999959
20
-104.6792489999999987
11
126.9885269999999906
21
-104.8442829999999901
0
LINE
8
User.Drawings
6
CONTINUOUS
10
126.9885269999999906
20
-104.8442829999999901
11
126.8442809999999952
21
-104.9885289999999998
0
LINE
8
User.Drawings
6
CONTINUOUS
10
126.8442809999999952
20
-104.9885289999999998
11
126.6792469999999895
21
-105.1084329999999909
0
LINE
8
User.Drawings
6
CONTINUOUS
10
126.6792469999999895
20
-105.1084329999999909
11
126.4974869999999925
21
-105.201043999999996
0
LINE
8
User.Drawings
6
CONTINUOUS
10
126.4974869999999925
20
-105.201043999999996
11
126.3034779999999984
21
-105.2640820000000019
0
LINE
8
User.Drawings
6
CONTINUOUS
10
126.3034779999999984
20
-105.2640820000000019
11
126.1019959999999998
21
-105.2959939999999932
0
LINE
8
User.Drawings
6
CONTINUOUS
10
126.1019959999999998
20
-105.2959939999999932
11
125.8980019999999911
21
-105.2959939999999932
0
LINE
8
User.Drawings
6
CONTINUOUS
10
125.8980019999999911
20
-105.2959939999999932
11
125.6965199999999925
21
-105.2640820000000019
0
LINE
8
User.Drawings
6
CONTINUOUS
10
125.6965199999999925
20
-105.2640820000000019
11
125.5025109999999984
21
-105.201043999999996
0
LINE
8
User.Drawings
6
CONTINUOUS
10
125.5025109999999984
20
-105.201043999999996
11
125.3207510000000013
21
-105.1084329999999909
0
LINE
8
User.Drawings
6
CONTINUOUS
10
125.3207510000000013
20
-105.1084329999999909
11
125.1557169999999957
21
-104.9885289999999998
0
LINE
8
User.Drawings
6
CONTINUOUS
10
125.1557169999999957
20
-104.9885289999999998
11
125.0114710000000002
21
-104.8442829999999901
0
LINE
8
User.Drawings
6
CONTINUOUS
10
125.0114710000000002
20
-104.8442829999999901
11
124.8915669999999949
21
-104.6792489999999987
0
LINE
8
User.Drawings
6
CONTINUOUS
10
124.8915669999999949
20
-104.6792489999999987
11
124.7989559999999898
21
-104.4974890000000016
0
LINE
8
User.Drawings
6
CONTINUOUS
10
124.7989559999999898
20
-104.4974890000000016
11
124.7359179999999981
21
-104.3034799999999933
0
LINE
8
User.Drawings
6
CONTINUOUS
10
124.7359179999999981
20
-104.3034799999999933
11
124.7040059999999926
21
-104.1019979999999947
0
LINE
8
User.Drawings
6
CONTINUOUS
10
124.7040059999999926
20
-104.1019979999999947
11
124.7040059999999926
21
-103.9055589999999967
0
LINE
8
User.Drawings
6
CONTINUOUS
10
124.7040059999999926
20
-103.9055589999999967
11
124.7040059999999926
21
-103.8980040000000002
0
LINE
8
User.Drawings
6
CONTINUOUS
10
124.7040059999999926
20
-103.8980040000000002
11
124.7359179999999981
21
-103.6965220000000016
0
LINE
8
User.Drawings
6
CONTINUOUS
10
124.7359179999999981
20
-103.6965220000000016
11
124.7989559999999898
21
-103.5025129999999933
0
LINE
8
User.Drawings
6
CONTINUOUS
10
124.7989559999999898
20
-103.5025129999999933
11
124.8915669999999949
21
-103.3207529999999963
0
LINE
8
User.Drawings
6
CONTINUOUS
10
124.8915669999999949
20
-103.3207529999999963
11
125.0114710000000002
21
-103.1557189999999906
0
LINE
8
User.Drawings
6
CONTINUOUS
10
125.0114710000000002
20
-103.1557189999999906
11
125.1557169999999957
21
-103.0114729999999952
0
LINE
8
User.Drawings
6
CONTINUOUS
10
125.1557169999999957
20
-103.0114729999999952
11
125.3207510000000013
21
-102.8915689999999898
0
LINE
8
User.Drawings
6
CONTINUOUS
10
125.3207510000000013
20
-102.8915689999999898
11
125.5025109999999984
21
-102.7989579999999989
0
LINE
8
User.Drawings
6
CONTINUOUS
10
125.5025109999999984
20
-102.7989579999999989
11
125.6965199999999925
21
-102.735919999999993
0
LINE
8
User.Drawings
6
CONTINUOUS
10
125.6965199999999925
20
-102.735919999999993
11
125.8980019999999911
21
-102.7040080000000017
0
LINE
8
User.Drawings
6
CONTINUOUS
10
125.8980019999999911
20
-102.7040080000000017
11
126.1019959999999998
21
-102.7040080000000017
0
LINE
8
User.Drawings
6
CONTINUOUS
10
126.1019959999999998
20
-102.7040080000000017
11
126.3034779999999984
21
-102.735919999999993
0
LINE
8
User.Drawings
6
CONTINUOUS
10
124.7999989999999997
20
-104.0944429999999983
11
124.8295469999999909
21
-104.2810020000000009
0
LINE
8
User.Drawings
6
CONTINUOUS
10
124.8295469999999909
20
-104.2810020000000009
11
124.8879149999999925
21
-104.4606409999999954
0
LINE
8
User.Drawings
6
CONTINUOUS
10
124.8879149999999925
20
-104.4606409999999954
11
124.9736669999999918
21
-104.6289379999999909
0
LINE
8
User.Drawings
6
CONTINUOUS
10
124.9736669999999918
20
-104.6289379999999909
11
125.0846899999999948
21
-104.7817489999999907
0
LINE
8
User.Drawings
6
CONTINUOUS
10
125.0846899999999948
20
-104.7817489999999907
11
125.2182509999999951
21
-104.915309999999991
0
LINE
8
User.Drawings
6
CONTINUOUS
10
125.2182509999999951
20
-104.915309999999991
11
125.3710619999999949
21
-105.0263329999999939
0
LINE
8
User.Drawings
6
CONTINUOUS
10
125.3710619999999949
20
-105.0263329999999939
11
125.5393589999999904
21
-105.1120849999999933
0
LINE
8
User.Drawings
6
CONTINUOUS
10
125.5393589999999904
20
-105.1120849999999933
11
125.7189979999999991
21
-105.1704529999999949
0
LINE
8
User.Drawings
6
CONTINUOUS
10
125.7189979999999991
20
-105.1704529999999949
11
125.9055569999999875
21
-105.2000010000000003
0
LINE
8
User.Drawings
6
CONTINUOUS
10
125.9055569999999875
20
-105.2000010000000003
11
126.0944409999999891
21
-105.2000010000000003
0
LINE
8
User.Drawings
6
CONTINUOUS
10
126.0944409999999891
20
-105.2000010000000003
11
126.2809999999999917
21
-105.1704529999999949
0
LINE
8
User.Drawings
6
CONTINUOUS
10
126.2809999999999917
20
-105.1704529999999949
11
126.4606390000000005
21
-105.1120849999999933
0
LINE
8
User.Drawings
6
CONTINUOUS
10
126.4606390000000005
20
-105.1120849999999933
11
126.6289359999999959
21
-105.0263329999999939
0
LINE
8
User.Drawings
6
CONTINUOUS
10
126.6289359999999959
20
-105.0263329999999939
11
126.7817469999999958
21
-104.915309999999991
0
LINE
8
User.Drawings
6
CONTINUOUS
10
126.7817469999999958
20
-104.915309999999991
11
126.915307999999996
21
-104.7817489999999907
0
LINE
8
User.Drawings
6
CONTINUOUS
10
126.915307999999996
20
-104.7817489999999907
11
127.026330999999999
21
-104.6289379999999909
0
LINE
8
User.Drawings
6
CONTINUOUS
10
127.026330999999999
20
-104.6289379999999909
11
127.1120829999999984
21
-104.4606409999999954
0
LINE
8
User.Drawings
6
CONTINUOUS
10
127.1120829999999984
20
-104.4606409999999954
11
127.1704509999999999
21
-104.2810020000000009
0
LINE
8
User.Drawings
6
CONTINUOUS
10
127.1704509999999999
20
-104.2810020000000009
11
127.1999989999999912
21
-104.0944429999999983
0
LINE
8
User.Drawings
6
CONTINUOUS
10
127.1999989999999912
20
-104.0944429999999983
11
127.1999989999999912
21
-103.9055589999999967
0
LINE
8
User.Drawings
6
CONTINUOUS
10
127.1999989999999912
20
-103.9055589999999967
11
127.1704509999999999
21
-103.7189999999999941
0
LINE
8
User.Drawings
6
CONTINUOUS
10
127.1704509999999999
20
-103.7189999999999941
11
127.1120829999999984
21
-103.5393609999999995
0
LINE
8
User.Drawings
6
CONTINUOUS
10
127.1120829999999984
20
-103.5393609999999995
11
127.026330999999999
21
-103.3710639999999898
0
LINE
8
User.Drawings
6
CONTINUOUS
10
127.026330999999999
20
-103.3710639999999898
11
126.915307999999996
21
-103.21825299999999
0
LINE
8
User.Drawings
6
CONTINUOUS
10
126.915307999999996
20
-103.21825299999999
11
126.7817469999999958
21
-103.0846919999999898
0
LINE
8
User.Drawings
6
CONTINUOUS
10
126.7817469999999958
20
-103.0846919999999898
11
126.6289359999999959
21
-102.973669000000001
0
LINE
8
User.Drawings
6
CONTINUOUS
10
126.6289359999999959
20
-102.973669000000001
11
126.4606390000000005
21
-102.8879170000000016
0
LINE
8
User.Drawings
6
CONTINUOUS
10
126.4606390000000005
20
-102.8879170000000016
11
126.2809999999999917
21
-102.8295490000000001
0
LINE
8
User.Drawings
6
CONTINUOUS
10
126.2809999999999917
20
-102.8295490000000001
11
126.0944409999999891
21
-102.8000009999999946
0
LINE
8
User.Drawings
6
CONTINUOUS
10
126.0944409999999891
20
-102.8000009999999946
11
125.9055569999999875
21
-102.8000009999999946
0
LINE
8
User.Drawings
6
CONTINUOUS
10
125.9055569999999875
20
-102.8000009999999946
11
125.7189979999999991
21
-102.8295490000000001
0
LINE
8
User.Drawings
6
CONTINUOUS
10
125.7189979999999991
20
-102.8295490000000001
11
125.5393589999999904
21
-102.8879170000000016
0
LINE
8
User.Drawings
6
CONTINUOUS
10
125.5393589999999904
20
-102.8879170000000016
11
125.3710619999999949
21
-102.973669000000001
0
LINE
8
User.Drawings
6
CONTINUOUS
10
125.3710619999999949
20
-102.973669000000001
11
125.2182509999999951
21
-103.0846919999999898
0
LINE
8
User.Drawings
6
CONTINUOUS
10
125.2182509999999951
20
-103.0846919999999898
11
125.0846899999999948
21
-103.21825299999999
0
LINE
8
User.Drawings
6
CONTINUOUS
10
125.0846899999999948
20
-103.21825299999999
11
124.9736669999999918
21
-103.3710639999999898
0
LINE
8
User.Drawings
6
CONTINUOUS
10
124.9736669999999918
20
-103.3710639999999898
11
124.8879149999999925
21
-103.5393609999999995
0
LINE
8
User.Drawings
6
CONTINUOUS
10
124.8879149999999925
20
-103.5393609999999995
11
124.8295469999999909
21
-103.7189999999999941
0
LINE
8
User.Drawings
6
CONTINUOUS
10
124.8295469999999909
20
-103.7189999999999941
11
124.7999989999999997
21
-103.9055589999999967
0
LINE
8
User.Drawings
6
CONTINUOUS
10
124.7999989999999997
20
-103.9055589999999967
11
124.7999989999999997
21
-104.0944429999999983
0
LINE
8
User.Drawings
6
CONTINUOUS
10
129.4034790000000044
20
-58.8859189999999941
11
129.5974879999999985
21
-58.9489570000000001
0
LINE
8
User.Drawings
6
CONTINUOUS
10
129.5974879999999985
20
-58.9489570000000001
11
129.7792479999999955
21
-59.0415679999999981
0
LINE
8
User.Drawings
6
CONTINUOUS
10
129.7792479999999955
20
-59.0415679999999981
11
129.944281999999987
21
-59.1614719999999963
0
LINE
8
User.Drawings
6
CONTINUOUS
10
129.944281999999987
20
-59.1614719999999963
11
130.0885279999999966
21
-59.3057179999999988
0
LINE
8
User.Drawings
6
CONTINUOUS
10
130.0885279999999966
20
-59.3057179999999988
11
130.2084319999999877
21
-59.4707519999999974
0
LINE
8
User.Drawings
6
CONTINUOUS
10
130.2084319999999877
20
-59.4707519999999974
11
130.3010429999999928
21
-59.6525119999999944
0
LINE
8
User.Drawings
6
CONTINUOUS
10
130.3010429999999928
20
-59.6525119999999944
11
130.3640809999999988
21
-59.8465209999999956
0
LINE
8
User.Drawings
6
CONTINUOUS
10
130.3640809999999988
20
-59.8465209999999956
11
130.3959930000000043
21
-60.0480029999999942
0
LINE
8
User.Drawings
6
CONTINUOUS
10
130.3959930000000043
20
-60.0480029999999942
11
130.3959930000000043
21
-60.2519969999999958
0
LINE
8
User.Drawings
6
CONTINUOUS
10
130.3959930000000043
20
-60.2519969999999958
11
130.3640809999999988
21
-60.4534789999999944
0
LINE
8
User.Drawings
6
CONTINUOUS
10
130.3640809999999988
20
-60.4534789999999944
11
130.3010429999999928
21
-60.6474879999999956
0
LINE
8
User.Drawings
6
CONTINUOUS
10
130.3010429999999928
20
-60.6474879999999956
11
130.2084319999999877
21
-60.8292479999999998
0
LINE
8
User.Drawings
6
CONTINUOUS
10
130.2084319999999877
20
-60.8292479999999998
11
130.0885279999999966
21
-60.9942819999999983
0
LINE
8
User.Drawings
6
CONTINUOUS
10
130.0885279999999966
20
-60.9942819999999983
11
129.944281999999987
21
-61.1385279999999938
0
LINE
8
User.Drawings
6
CONTINUOUS
10
129.944281999999987
20
-61.1385279999999938
11
129.7792479999999955
21
-61.2584319999999991
0
LINE
8
User.Drawings
6
CONTINUOUS
10
129.7792479999999955
20
-61.2584319999999991
11
129.5974879999999985
21
-61.3510429999999971
0
LINE
8
User.Drawings
6
CONTINUOUS
10
129.5974879999999985
20
-61.3510429999999971
11
129.4034790000000044
21
-61.4140809999999959
0
LINE
8
User.Drawings
6
CONTINUOUS
10
129.4034790000000044
20
-61.4140809999999959
11
129.2019970000000058
21
-61.4459929999999943
0
LINE
8
User.Drawings
6
CONTINUOUS
10
129.2019970000000058
20
-61.4459929999999943
11
128.9980029999999829
21
-61.4459929999999943
0
LINE
8
User.Drawings
6
CONTINUOUS
10
128.9980029999999829
20
-61.4459929999999943
11
128.7965209999999843
21
-61.4140809999999959
0
LINE
8
User.Drawings
6
CONTINUOUS
10
128.7965209999999843
20
-61.4140809999999959
11
128.6025119999999902
21
-61.3510429999999971
0
LINE
8
User.Drawings
6
CONTINUOUS
10
128.6025119999999902
20
-61.3510429999999971
11
128.4207519999999931
21
-61.2584319999999991
0
LINE
8
User.Drawings
6
CONTINUOUS
10
128.4207519999999931
20
-61.2584319999999991
11
128.2557180000000017
21
-61.1385279999999938
0
LINE
8
User.Drawings
6
CONTINUOUS
10
128.2557180000000017
20
-61.1385279999999938
11
128.111471999999992
21
-60.9942819999999983
0
LINE
8
User.Drawings
6
CONTINUOUS
10
128.111471999999992
20
-60.9942819999999983
11
127.9915680000000009
21
-60.8292479999999998
0
LINE
8
User.Drawings
6
CONTINUOUS
10
127.9915680000000009
20
-60.8292479999999998
11
127.8989569999999958
21
-60.6474879999999956
0
LINE
8
User.Drawings
6
CONTINUOUS
10
127.8989569999999958
20
-60.6474879999999956
11
127.8359189999999899
21
-60.4534789999999944
0
LINE
8
User.Drawings
6
CONTINUOUS
10
127.8359189999999899
20
-60.4534789999999944
11
127.8040069999999986
21
-60.2519969999999958
0
LINE
8
User.Drawings
6
CONTINUOUS
10
127.8040069999999986
20
-60.2519969999999958
11
127.8040069999999986
21
-60.0555579999999978
0
LINE
8
User.Drawings
6
CONTINUOUS
10
127.8040069999999986
20
-60.0555579999999978
11
127.8040069999999986
21
-60.0480029999999942
0
LINE
8
User.Drawings
6
CONTINUOUS
10
127.8040069999999986
20
-60.0480029999999942
11
127.8359189999999899
21
-59.8465209999999956
0
LINE
8
User.Drawings
6
CONTINUOUS
10
127.8359189999999899
20
-59.8465209999999956
11
127.8989569999999958
21
-59.6525119999999944
0
LINE
8
User.Drawings
6
CONTINUOUS
10
127.8989569999999958
20
-59.6525119999999944
11
127.9915680000000009
21
-59.4707519999999974
0
LINE
8
User.Drawings
6
CONTINUOUS
10
127.9915680000000009
20
-59.4707519999999974
11
128.111471999999992
21
-59.3057179999999988
0
LINE
8
User.Drawings
6
CONTINUOUS
10
128.111471999999992
20
-59.3057179999999988
11
128.2557180000000017
21
-59.1614719999999963
0
LINE
8
User.Drawings
6
CONTINUOUS
10
128.2557180000000017
20
-59.1614719999999963
11
128.4207519999999931
21
-59.0415679999999981
0
LINE
8
User.Drawings
6
CONTINUOUS
10
128.4207519999999931
20
-59.0415679999999981
11
128.6025119999999902
21
-58.9489570000000001
0
LINE
8
User.Drawings
6
CONTINUOUS
10
128.6025119999999902
20
-58.9489570000000001
11
128.7965209999999843
21
-58.8859189999999941
0
LINE
8
User.Drawings
6
CONTINUOUS
10
128.7965209999999843
20
-58.8859189999999941
11
128.9980029999999829
21
-58.8540069999999957
0
LINE
8
User.Drawings
6
CONTINUOUS
10
128.9980029999999829
20
-58.8540069999999957
11
129.2019970000000058
21
-58.8540069999999957
0
LINE
8
User.Drawings
6
CONTINUOUS
10
129.2019970000000058
20
-58.8540069999999957
11
129.4034790000000044
21
-58.8859189999999941
0
LINE
8
User.Drawings
6
CONTINUOUS
10
127.8999999999999915
20
-60.2444419999999994
11
127.9295479999999969
21
-60.4310009999999949
0
LINE
8
User.Drawings
6
CONTINUOUS
10
127.9295479999999969
20
-60.4310009999999949
11
127.9879159999999985
21
-60.6106399999999965
0
LINE
8
User.Drawings
6
CONTINUOUS
10
127.9879159999999985
20
-60.6106399999999965
11
128.0736679999999978
21
-60.7789369999999991
0
LINE
8
User.Drawings
6
CONTINUOUS
10
128.0736679999999978
20
-60.7789369999999991
11
128.1846909999999866
21
-60.9317479999999989
0
LINE
8
User.Drawings
6
CONTINUOUS
10
128.1846909999999866
20
-60.9317479999999989
11
128.3182520000000011
21
-61.0653089999999992
0
LINE
8
User.Drawings
6
CONTINUOUS
10
128.3182520000000011
20
-61.0653089999999992
11
128.4710629999999867
21
-61.176331999999995
0
LINE
8
User.Drawings
6
CONTINUOUS
10
128.4710629999999867
20
-61.176331999999995
11
128.6393599999999822
21
-61.2620839999999944
0
LINE
8
User.Drawings
6
CONTINUOUS
10
128.6393599999999822
20
-61.2620839999999944
11
128.8189989999999909
21
-61.320451999999996
0
LINE
8
User.Drawings
6
CONTINUOUS
10
128.8189989999999909
20
-61.320451999999996
11
129.0055580000000077
21
-61.3499999999999943
0
LINE
8
User.Drawings
6
CONTINUOUS
10
129.0055580000000077
20
-61.3499999999999943
11
129.1944419999999809
21
-61.3499999999999943
0
LINE
8
User.Drawings
6
CONTINUOUS
10
129.1944419999999809
20
-61.3499999999999943
11
129.3810009999999977
21
-61.320451999999996
0
LINE
8
User.Drawings
6
CONTINUOUS
10
129.3810009999999977
20
-61.320451999999996
11
129.5606400000000065
21
-61.2620839999999944
0
LINE
8
User.Drawings
6
CONTINUOUS
10
129.5606400000000065
20
-61.2620839999999944
11
129.7289370000000019
21
-61.176331999999995
0
LINE
8
User.Drawings
6
CONTINUOUS
10
129.7289370000000019
20
-61.176331999999995
11
129.8817479999999875
21
-61.0653089999999992
0
LINE
8
User.Drawings
6
CONTINUOUS
10
129.8817479999999875
20
-61.0653089999999992
11
130.015309000000002
21
-60.9317479999999989
0
LINE
8
User.Drawings
6
CONTINUOUS
10
130.015309000000002
20
-60.9317479999999989
11
130.1263319999999908
21
-60.7789369999999991
0
LINE
8
User.Drawings
6
CONTINUOUS
10
130.1263319999999908
20
-60.7789369999999991
11
130.2120840000000044
21
-60.6106399999999965
0
LINE
8
User.Drawings
6
CONTINUOUS
10
130.2120840000000044
20
-60.6106399999999965
11
130.2704520000000059
21
-60.4310009999999949
0
LINE
8
User.Drawings
6
CONTINUOUS
10
130.2704520000000059
20
-60.4310009999999949
11
130.2999999999999829
21
-60.2444419999999994
0
LINE
8
User.Drawings
6
CONTINUOUS
10
130.2999999999999829
20
-60.2444419999999994
11
130.2999999999999829
21
-60.0555579999999978
0
LINE
8
User.Drawings
6
CONTINUOUS
10
130.2999999999999829
20
-60.0555579999999978
11
130.2704520000000059
21
-59.8689989999999952
0
LINE
8
User.Drawings
6
CONTINUOUS
10
130.2704520000000059
20
-59.8689989999999952
11
130.2120840000000044
21
-59.6893600000000006
0
LINE
8
User.Drawings
6
CONTINUOUS
10
130.2120840000000044
20
-59.6893600000000006
11
130.1263319999999908
21
-59.5210629999999981
0
LINE
8
User.Drawings
6
CONTINUOUS
10
130.1263319999999908
20
-59.5210629999999981
11
130.015309000000002
21
-59.3682519999999982
0
LINE
8
User.Drawings
6
CONTINUOUS
10
130.015309000000002
20
-59.3682519999999982
11
129.8817479999999875
21
-59.234690999999998
0
LINE
8
User.Drawings
6
CONTINUOUS
10
129.8817479999999875
20
-59.234690999999998
11
129.7289370000000019
21
-59.123667999999995
0
LINE
8
User.Drawings
6
CONTINUOUS
10
129.7289370000000019
20
-59.123667999999995
11
129.5606400000000065
21
-59.0379159999999956
0
LINE
8
User.Drawings
6
CONTINUOUS
10
129.5606400000000065
20
-59.0379159999999956
11
129.3810009999999977
21
-58.9795479999999941
0
LINE
8
User.Drawings
6
CONTINUOUS
10
129.3810009999999977
20
-58.9795479999999941
11
129.1944419999999809
21
-58.9499999999999957
0
LINE
8
User.Drawings
6
CONTINUOUS
10
129.1944419999999809
20
-58.9499999999999957
11
129.0055580000000077
21
-58.9499999999999957
0
LINE
8
User.Drawings
6
CONTINUOUS
10
129.0055580000000077
20
-58.9499999999999957
11
128.8189989999999909
21
-58.9795479999999941
0
LINE
8
User.Drawings
6
CONTINUOUS
10
128.8189989999999909
20
-58.9795479999999941
11
128.6393599999999822
21
-59.0379159999999956
0
LINE
8
User.Drawings
6
CONTINUOUS
10
128.6393599999999822
20
-59.0379159999999956
11
128.4710629999999867
21
-59.123667999999995
0
LINE
8
User.Drawings
6
CONTINUOUS
10
128.4710629999999867
20
-59.123667999999995
11
128.3182520000000011
21
-59.234690999999998
0
LINE
8
User.Drawings
6
CONTINUOUS
10
128.3182520000000011
20
-59.234690999999998
11
128.1846909999999866
21
-59.3682519999999982
0
LINE
8
User.Drawings
6
CONTINUOUS
10
128.1846909999999866
20
-59.3682519999999982
11
128.0736679999999978
21
-59.5210629999999981
0
LINE
8
User.Drawings
6
CONTINUOUS
10
128.0736679999999978
20
-59.5210629999999981
11
127.9879159999999985
21
-59.6893600000000006
0
LINE
8
User.Drawings
6
CONTINUOUS
10
127.9879159999999985
20
-59.6893600000000006
11
127.9295479999999969
21
-59.8689989999999952
0
LINE
8
User.Drawings
6
CONTINUOUS
10
127.9295479999999969
20
-59.8689989999999952
11
127.8999999999999915
21
-60.0555579999999978
0
LINE
8
User.Drawings
6
CONTINUOUS
10
127.8999999999999915
20
-60.0555579999999978
11
127.8999999999999915
21
-60.2444419999999994
0
LINE
8
User.Drawings
6
CONTINUOUS
10
129.4034790000000044
20
-34.585918999999997
11
129.5974879999999985
21
-34.6489569999999958
0
LINE
8
User.Drawings
6
CONTINUOUS
10
129.5974879999999985
20
-34.6489569999999958
11
129.7792479999999955
21
-34.7415680000000009
0
LINE
8
User.Drawings
6
CONTINUOUS
10
129.7792479999999955
20
-34.7415680000000009
11
129.944281999999987
21
-34.8614719999999991
0
LINE
8
User.Drawings
6
CONTINUOUS
10
129.944281999999987
20
-34.8614719999999991
11
130.0885279999999966
21
-35.0057180000000017
0
LINE
8
User.Drawings
6
CONTINUOUS
10
130.0885279999999966
20
-35.0057180000000017
11
130.2084319999999877
21
-35.1707520000000002
0
LINE
8
User.Drawings
6
CONTINUOUS
10
130.2084319999999877
20
-35.1707520000000002
11
130.3010429999999928
21
-35.3525119999999973
0
LINE
8
User.Drawings
6
CONTINUOUS
10
130.3010429999999928
20
-35.3525119999999973
11
130.3640809999999988
21
-35.5465209999999985
0
LINE
8
User.Drawings
6
CONTINUOUS
10
130.3640809999999988
20
-35.5465209999999985
11
130.3959930000000043
21
-35.7480029999999971
0
LINE
8
User.Drawings
6
CONTINUOUS
10
130.3959930000000043
20
-35.7480029999999971
11
130.3959930000000043
21
-35.9519969999999986
0
LINE
8
User.Drawings
6
CONTINUOUS
10
130.3959930000000043
20
-35.9519969999999986
11
130.3640809999999988
21
-36.1534789999999973
0
LINE
8
User.Drawings
6
CONTINUOUS
10
130.3640809999999988
20
-36.1534789999999973
11
130.3010429999999928
21
-36.3474879999999985
0
LINE
8
User.Drawings
6
CONTINUOUS
10
130.3010429999999928
20
-36.3474879999999985
11
130.2084319999999877
21
-36.5292479999999955
0
LINE
8
User.Drawings
6
CONTINUOUS
10
130.2084319999999877
20
-36.5292479999999955
11
130.0885279999999966
21
-36.6942820000000012
0
LINE
8
User.Drawings
6
CONTINUOUS
10
130.0885279999999966
20
-36.6942820000000012
11
129.944281999999987
21
-36.8385279999999966
0
LINE
8
User.Drawings
6
CONTINUOUS
10
129.944281999999987
20
-36.8385279999999966
11
129.7792479999999955
21
-36.9584319999999948
0
LINE
8
User.Drawings
6
CONTINUOUS
10
129.7792479999999955
20
-36.9584319999999948
11
129.5974879999999985
21
-37.0510429999999999
0
LINE
8
User.Drawings
6
CONTINUOUS
10
129.5974879999999985
20
-37.0510429999999999
11
129.4034790000000044
21
-37.1140809999999988
0
LINE
8
User.Drawings
6
CONTINUOUS
10
129.4034790000000044
20
-37.1140809999999988
11
129.2019970000000058
21
-37.1459929999999972
0
LINE
8
User.Drawings
6
CONTINUOUS
10
129.2019970000000058
20
-37.1459929999999972
11
128.9980029999999829
21
-37.1459929999999972
0
LINE
8
User.Drawings
6
CONTINUOUS
10
128.9980029999999829
20
-37.1459929999999972
11
128.7965209999999843
21
-37.1140809999999988
0
LINE
8
User.Drawings
6
CONTINUOUS
10
128.7965209999999843
20
-37.1140809999999988
11
128.6025119999999902
21
-37.0510429999999999
0
LINE
8
User.Drawings
6
CONTINUOUS
10
128.6025119999999902
20
-37.0510429999999999
11
128.4207519999999931
21
-36.9584319999999948
0
LINE
8
User.Drawings
6
CONTINUOUS
10
128.4207519999999931
20
-36.9584319999999948
11
128.2557180000000017
21
-36.8385279999999966
0
LINE
8
User.Drawings
6
CONTINUOUS
10
128.2557180000000017
20
-36.8385279999999966
11
128.111471999999992
21
-36.6942820000000012
0
LINE
8
User.Drawings
6
CONTINUOUS
10
128.111471999999992
20
-36.6942820000000012
11
127.9915680000000009
21
-36.5292479999999955
0
LINE
8
User.Drawings
6
CONTINUOUS
10
127.9915680000000009
20
-36.5292479999999955
11
127.8989569999999958
21
-36.3474879999999985
0
LINE
8
User.Drawings
6
CONTINUOUS
10
127.8989569999999958
20
-36.3474879999999985
11
127.8359189999999899
21
-36.1534789999999973
0
LINE
8
User.Drawings
6
CONTINUOUS
10
127.8359189999999899
20
-36.1534789999999973
11
127.8040069999999986
21
-35.9519969999999986
0
LINE
8
User.Drawings
6
CONTINUOUS
10
127.8040069999999986
20
-35.9519969999999986
11
127.8040069999999986
21
-35.7555580000000006
0
LINE
8
User.Drawings
6
CONTINUOUS
10
127.8040069999999986
20
-35.7555580000000006
11
127.8040069999999986
21
-35.7480029999999971
0
LINE
8
User.Drawings
6
CONTINUOUS
10
127.8040069999999986
20
-35.7480029999999971
11
127.8359189999999899
21
-35.5465209999999985
0
LINE
8
User.Drawings
6
CONTINUOUS
10
127.8359189999999899
20
-35.5465209999999985
11
127.8989569999999958
21
-35.3525119999999973
0
LINE
8
User.Drawings
6
CONTINUOUS
10
127.8989569999999958
20
-35.3525119999999973
11
127.9915680000000009
21
-35.1707520000000002
0
LINE
8
User.Drawings
6
CONTINUOUS
10
127.9915680000000009
20
-35.1707520000000002
11
128.111471999999992
21
-35.0057180000000017
0
LINE
8
User.Drawings
6
CONTINUOUS
10
128.111471999999992
20
-35.0057180000000017
11
128.2557180000000017
21
-34.8614719999999991
0
LINE
8
User.Drawings
6
CONTINUOUS
10
128.2557180000000017
20
-34.8614719999999991
11
128.4207519999999931
21
-34.7415680000000009
0
LINE
8
User.Drawings
6
CONTINUOUS
10
128.4207519999999931
20
-34.7415680000000009
11
128.6025119999999902
21
-34.6489569999999958
0
LINE
8
User.Drawings
6
CONTINUOUS
10
128.6025119999999902
20
-34.6489569999999958
11
128.7965209999999843
21
-34.585918999999997
0
LINE
8
User.Drawings
6
CONTINUOUS
10
128.7965209999999843
20
-34.585918999999997
11
128.9980029999999829
21
-34.5540069999999986
0
LINE
8
User.Drawings
6
CONTINUOUS
10
128.9980029999999829
20
-34.5540069999999986
11
129.2019970000000058
21
-34.5540069999999986
0
LINE
8
User.Drawings
6
CONTINUOUS
10
129.2019970000000058
20
-34.5540069999999986
11
129.4034790000000044
21
-34.585918999999997
0
LINE
8
User.Drawings
6
CONTINUOUS
10
127.8999999999999915
20
-35.9444419999999951
11
127.9295479999999969
21
-36.1310009999999977
0
LINE
8
User.Drawings
6
CONTINUOUS
10
127.9295479999999969
20
-36.1310009999999977
11
127.9879159999999985
21
-36.3106399999999994
0
LINE
8
User.Drawings
6
CONTINUOUS
10
127.9879159999999985
20
-36.3106399999999994
11
128.0736679999999978
21
-36.4789369999999948
0
LINE
8
User.Drawings
6
CONTINUOUS
10
128.0736679999999978
20
-36.4789369999999948
11
128.1846909999999866
21
-36.6317480000000018
0
LINE
8
User.Drawings
6
CONTINUOUS
10
128.1846909999999866
20
-36.6317480000000018
11
128.3182520000000011
21
-36.7653089999999949
0
LINE
8
User.Drawings
6
CONTINUOUS
10
128.3182520000000011
20
-36.7653089999999949
11
128.4710629999999867
21
-36.8763319999999979
0
LINE
8
User.Drawings
6
CONTINUOUS
10
128.4710629999999867
20
-36.8763319999999979
11
128.6393599999999822
21
-36.9620839999999973
0
LINE
8
User.Drawings
6
CONTINUOUS
10
128.6393599999999822
20
-36.9620839999999973
11
128.8189989999999909
21
-37.0204519999999988
0
LINE
8
User.Drawings
6
CONTINUOUS
10
128.8189989999999909
20
-37.0204519999999988
11
129.0055580000000077
21
-37.0499999999999972
0
LINE
8
User.Drawings
6
CONTINUOUS
10
129.0055580000000077
20
-37.0499999999999972
11
129.1944419999999809
21
-37.0499999999999972
0
LINE
8
User.Drawings
6
CONTINUOUS
10
129.1944419999999809
20
-37.0499999999999972
11
129.3810009999999977
21
-37.0204519999999988
0
LINE
8
User.Drawings
6
CONTINUOUS
10
129.3810009999999977
20
-37.0204519999999988
11
129.5606400000000065
21
-36.9620839999999973
0
LINE
8
User.Drawings
6
CONTINUOUS
10
129.5606400000000065
20
-36.9620839999999973
11
129.7289370000000019
21
-36.8763319999999979
0
LINE
8
User.Drawings
6
CONTINUOUS
10
129.7289370000000019
20
-36.8763319999999979
11
129.8817479999999875
21
-36.7653089999999949
0
LINE
8
User.Drawings
6
CONTINUOUS
10
129.8817479999999875
20
-36.7653089999999949
11
130.015309000000002
21
-36.6317480000000018
0
LINE
8
User.Drawings
6
CONTINUOUS
10
130.015309000000002
20
-36.6317480000000018
11
130.1263319999999908
21
-36.4789369999999948
0
LINE
8
User.Drawings
6
CONTINUOUS
10
130.1263319999999908
20
-36.4789369999999948
11
130.2120840000000044
21
-36.3106399999999994
0
LINE
8
User.Drawings
6
CONTINUOUS
10
130.2120840000000044
20
-36.3106399999999994
11
130.2704520000000059
21
-36.1310009999999977
0
LINE
8
User.Drawings
6
CONTINUOUS
10
130.2704520000000059
20
-36.1310009999999977
11
130.2999999999999829
21
-35.9444419999999951
0
LINE
8
User.Drawings
6
CONTINUOUS
10
130.2999999999999829
20
-35.9444419999999951
11
130.2999999999999829
21
-35.7555580000000006
0
LINE
8
User.Drawings
6
CONTINUOUS
10
130.2999999999999829
20
-35.7555580000000006
11
130.2704520000000059
21
-35.568998999999998
0
LINE
8
User.Drawings
6
CONTINUOUS
10
130.2704520000000059
20
-35.568998999999998
11
130.2120840000000044
21
-35.3893599999999964
0
LINE
8
User.Drawings
6
CONTINUOUS
10
130.2120840000000044
20
-35.3893599999999964
11
130.1263319999999908
21
-35.2210630000000009
0
LINE
8
User.Drawings
6
CONTINUOUS
10
130.1263319999999908
20
-35.2210630000000009
11
130.015309000000002
21
-35.0682520000000011
0
LINE
8
User.Drawings
6
CONTINUOUS
10
130.015309000000002
20
-35.0682520000000011
11
129.8817479999999875
21
-34.9346910000000008
0
LINE
8
User.Drawings
6
CONTINUOUS
10
129.8817479999999875
20
-34.9346910000000008
11
129.7289370000000019
21
-34.8236679999999978
0
LINE
8
User.Drawings
6
CONTINUOUS
10
129.7289370000000019
20
-34.8236679999999978
11
129.5606400000000065
21
-34.7379159999999985
0
LINE
8
User.Drawings
6
CONTINUOUS
10
129.5606400000000065
20
-34.7379159999999985
11
129.3810009999999977
21
-34.6795479999999969
0
LINE
8
User.Drawings
6
CONTINUOUS
10
129.3810009999999977
20
-34.6795479999999969
11
129.1944419999999809
21
-34.6499999999999986
0
LINE
8
User.Drawings
6
CONTINUOUS
10
129.1944419999999809
20
-34.6499999999999986
11
129.0055580000000077
21
-34.6499999999999986
0
LINE
8
User.Drawings
6
CONTINUOUS
10
129.0055580000000077
20
-34.6499999999999986
11
128.8189989999999909
21
-34.6795479999999969
0
LINE
8
User.Drawings
6
CONTINUOUS
10
128.8189989999999909
20
-34.6795479999999969
11
128.6393599999999822
21
-34.7379159999999985
0
LINE
8
User.Drawings
6
CONTINUOUS
10
128.6393599999999822
20
-34.7379159999999985
11
128.4710629999999867
21
-34.8236679999999978
0
LINE
8
User.Drawings
6
CONTINUOUS
10
128.4710629999999867
20
-34.8236679999999978
11
128.3182520000000011
21
-34.9346910000000008
0
LINE
8
User.Drawings
6
CONTINUOUS
10
128.3182520000000011
20
-34.9346910000000008
11
128.1846909999999866
21
-35.0682520000000011
0
LINE
8
User.Drawings
6
CONTINUOUS
10
128.1846909999999866
20
-35.0682520000000011
11
128.0736679999999978
21
-35.2210630000000009
0
LINE
8
User.Drawings
6
CONTINUOUS
10
128.0736679999999978
20
-35.2210630000000009
11
127.9879159999999985
21
-35.3893599999999964
0
LINE
8
User.Drawings
6
CONTINUOUS
10
127.9879159999999985
20
-35.3893599999999964
11
127.9295479999999969
21
-35.568998999999998
0
LINE
8
User.Drawings
6
CONTINUOUS
10
127.9295479999999969
20
-35.568998999999998
11
127.8999999999999915
21
-35.7555580000000006
0
LINE
8
User.Drawings
6
CONTINUOUS
10
127.8999999999999915
20
-35.7555580000000006
11
127.8999999999999915
21
-35.9444419999999951
0
LINE
8
User.Drawings
6
CONTINUOUS
10
141.1111139999999864
20
-29.8337059999999994
11
141.1662939999999935
21
-29.8888859999999994
0
LINE
8
User.Drawings
6
CONTINUOUS
10
141.1662939999999935
20
-29.8888859999999994
11
141.1916080000000022
21
-29.9499989999999983
0
LINE
8
User.Drawings
6
CONTINUOUS
10
141.1916080000000022
20
-29.9499989999999983
11
141.25
21
-29.9499999999999993
0
LINE
8
User.Drawings
6
CONTINUOUS
10
141.25
20
-29.9499999999999993
11
141.2691339999999798
21
-29.9538060000000002
0
LINE
8
User.Drawings
6
CONTINUOUS
10
141.2691339999999798
20
-29.9538060000000002
11
141.2961939999999856
21
-29.9808659999999989
0
LINE
8
User.Drawings
6
CONTINUOUS
10
141.2961939999999856
20
-29.9808659999999989
11
141.2961939999999856
21
-30.0191339999999975
0
LINE
8
User.Drawings
6
CONTINUOUS
10
141.2961939999999856
20
-30.0191339999999975
11
141.2691339999999798
21
-30.0461939999999998
0
LINE
8
User.Drawings
6
CONTINUOUS
10
141.2691339999999798
20
-30.0461939999999998
11
141.25
21
-30.0499999999999972
0
LINE
8
User.Drawings
6
CONTINUOUS
10
141.25
20
-30.0499999999999972
11
141.1999999999999886
21
-30.0499989999999997
0
LINE
8
User.Drawings
6
CONTINUOUS
10
141.1999999999999886
20
-30.0499989999999997
11
141.1999999999999886
21
-35.9999989999999954
0
LINE
8
User.Drawings
6
CONTINUOUS
10
141.1999999999999886
20
-35.9999989999999954
11
141.1961569999999995
21
-36.0390170000000012
0
LINE
8
User.Drawings
6
CONTINUOUS
10
141.1961569999999995
20
-36.0390170000000012
11
141.1662939999999935
21
-36.111112999999996
0
LINE
8
User.Drawings
6
CONTINUOUS
10
141.1662939999999935
20
-36.111112999999996
11
141.1111139999999864
21
-36.166292999999996
0
LINE
8
User.Drawings
6
CONTINUOUS
10
141.1111139999999864
20
-36.166292999999996
11
141.0390179999999987
21
-36.1961559999999949
0
LINE
8
User.Drawings
6
CONTINUOUS
10
141.0390179999999987
20
-36.1961559999999949
11
141.
21
-36.1999989999999983
0
LINE
8
User.Drawings
6
CONTINUOUS
10
141.
20
-36.1999989999999983
11
135.192514999999986
21
-36.1999989999999983
0
LINE
8
User.Drawings
6
CONTINUOUS
10
135.192514999999986
20
-36.1999989999999983
11
135.1826629999999909
21
-36.463325999999995
0
LINE
8
User.Drawings
6
CONTINUOUS
10
135.1826629999999909
20
-36.463325999999995
11
135.1307500000000061
21
-36.9240610000000018
0
LINE
8
User.Drawings
6
CONTINUOUS
10
135.1307500000000061
20
-36.9240610000000018
11
135.0445519999999817
21
-37.3796290000000013
0
LINE
8
User.Drawings
6
CONTINUOUS
10
135.0445519999999817
20
-37.3796290000000013
11
134.9245509999999797
21
-37.8274809999999988
0
LINE
8
User.Drawings
6
CONTINUOUS
10
134.9245509999999797
20
-37.8274809999999988
11
134.7714169999999854
21
-38.2651129999999995
0
LINE
8
User.Drawings
6
CONTINUOUS
10
134.7714169999999854
20
-38.2651129999999995
11
134.5860059999999976
21
-38.6900779999999997
0
LINE
8
User.Drawings
6
CONTINUOUS
10
134.5860059999999976
20
-38.6900779999999997
11
134.3693570000000079
21
-39.0999989999999968
0
LINE
8
User.Drawings
6
CONTINUOUS
10
134.3693570000000079
20
-39.0999989999999968
11
134.1226800000000026
21
-39.4925840000000008
0
LINE
8
User.Drawings
6
CONTINUOUS
10
134.1226800000000026
20
-39.4925840000000008
11
133.8473549999999932
21
-39.865635999999995
0
LINE
8
User.Drawings
6
CONTINUOUS
10
133.8473549999999932
20
-39.865635999999995
11
133.544920999999988
21
-40.2170699999999997
0
LINE
8
User.Drawings
6
CONTINUOUS
10
133.544920999999988
20
-40.2170699999999997
11
133.2170700000000068
21
-40.5449209999999951
0
LINE
8
User.Drawings
6
CONTINUOUS
10
133.2170700000000068
20
-40.5449209999999951
11
132.865635999999995
21
-40.8473550000000003
0
LINE
8
User.Drawings
6
CONTINUOUS
10
132.865635999999995
20
-40.8473550000000003
11
132.4925839999999937
21
-41.1226799999999955
0
LINE
8
User.Drawings
6
CONTINUOUS
10
132.4925839999999937
20
-41.1226799999999955
11
132.0999989999999968
21
-41.3693570000000008
0
LINE
8
User.Drawings
6
CONTINUOUS
10
132.0999989999999968
20
-41.3693570000000008
11
131.6900779999999997
21
-41.5860059999999976
0
LINE
8
User.Drawings
6
CONTINUOUS
10
131.6900779999999997
20
-41.5860059999999976
11
131.2651129999999853
21
-41.7714169999999996
0
LINE
8
User.Drawings
6
CONTINUOUS
10
131.2651129999999853
20
-41.7714169999999996
11
130.8274810000000059
21
-41.924551000000001
0
LINE
8
User.Drawings
6
CONTINUOUS
10
130.8274810000000059
20
-41.924551000000001
11
130.3796289999999942
21
-42.0445519999999959
0
LINE
8
User.Drawings
6
CONTINUOUS
10
130.3796289999999942
20
-42.0445519999999959
11
129.9240609999999947
21
-42.130749999999999
0
LINE
8
User.Drawings
6
CONTINUOUS
10
129.9240609999999947
20
-42.130749999999999
11
129.463325999999995
21
-42.182662999999998
0
LINE
8
User.Drawings
6
CONTINUOUS
10
129.463325999999995
20
-42.182662999999998
11
128.9999990000000025
21
-42.1999989999999983
0
LINE
8
User.Drawings
6
CONTINUOUS
10
128.9999990000000025
20
-42.1999989999999983
11
128.8427539999999851
21
-42.1999989999999983
0
LINE
8
User.Drawings
6
CONTINUOUS
10
128.8427539999999851
20
-42.1999989999999983
11
128.5302429999999845
21
-42.2352109999999996
0
LINE
8
User.Drawings
6
CONTINUOUS
10
128.5302429999999845
20
-42.2352109999999996
11
128.223637999999994
21
-42.3051910000000007
0
LINE
8
User.Drawings
6
CONTINUOUS
10
128.223637999999994
20
-42.3051910000000007
11
127.9267969999999934
21
-42.4090599999999966
0
LINE
8
User.Drawings
6
CONTINUOUS
10
127.9267969999999934
20
-42.4090599999999966
11
127.6434519999999964
21
-42.5455119999999951
0
LINE
8
User.Drawings
6
CONTINUOUS
10
127.6434519999999964
20
-42.5455119999999951
11
127.377167
21
-42.7128310000000013
0
LINE
8
User.Drawings
6
CONTINUOUS
10
127.377167
20
-42.7128310000000013
11
127.1312889999999953
21
-42.9089120000000008
0
LINE
8
User.Drawings
6
CONTINUOUS
10
127.1312889999999953
20
-42.9089120000000008
11
126.9089120000000008
21
-43.1312889999999953
0
LINE
8
User.Drawings
6
CONTINUOUS
10
126.9089120000000008
20
-43.1312889999999953
11
126.7128309999999942
21
-43.377167
0
LINE
8
User.Drawings
6
CONTINUOUS
10
126.7128309999999942
20
-43.377167
11
126.545511999999988
21
-43.6434519999999964
0
LINE
8
User.Drawings
6
CONTINUOUS
10
126.545511999999988
20
-43.6434519999999964
11
126.4090599999999966
21
-43.9267970000000005
0
LINE
8
User.Drawings
6
CONTINUOUS
10
126.4090599999999966
20
-43.9267970000000005
11
126.3051909999999936
21
-44.2236380000000011
0
LINE
8
User.Drawings
6
CONTINUOUS
10
126.3051909999999936
20
-44.2236380000000011
11
126.2352109999999925
21
-44.5302429999999987
0
LINE
8
User.Drawings
6
CONTINUOUS
10
126.2352109999999925
20
-44.5302429999999987
11
126.1999989999999912
21
-44.8427539999999993
0
LINE
8
User.Drawings
6
CONTINUOUS
10
126.1999989999999912
20
-44.8427539999999993
11
126.1999989999999912
21
-44.9999989999999954
0
LINE
8
User.Drawings
6
CONTINUOUS
10
126.1999989999999912
20
-44.9999989999999954
11
126.1999989999999912
21
-50.9999989999999954
0
LINE
8
User.Drawings
6
CONTINUOUS
10
126.1999989999999912
20
-50.9999989999999954
11
126.1999989999999912
21
-51.1572439999999986
0
LINE
8
User.Drawings
6
CONTINUOUS
10
126.1999989999999912
20
-51.1572439999999986
11
126.2352109999999925
21
-51.4697549999999993
0
LINE
8
User.Drawings
6
CONTINUOUS
10
126.2352109999999925
20
-51.4697549999999993
11
126.3051909999999936
21
-51.7763599999999968
0
LINE
8
User.Drawings
6
CONTINUOUS
10
126.3051909999999936
20
-51.7763599999999968
11
126.4090599999999966
21
-52.0732009999999974
0
LINE
8
User.Drawings
6
CONTINUOUS
10
126.4090599999999966
20
-52.0732009999999974
11
126.545511999999988
21
-52.3565459999999945
0
LINE
8
User.Drawings
6
CONTINUOUS
10
126.545511999999988
20
-52.3565459999999945
11
126.7128309999999942
21
-52.6228309999999979
0
LINE
8
User.Drawings
6
CONTINUOUS
10
126.7128309999999942
20
-52.6228309999999979
11
126.9089120000000008
21
-52.8687089999999955
0
LINE
8
User.Drawings
6
CONTINUOUS
10
126.9089120000000008
20
-52.8687089999999955
11
127.1312889999999953
21
-53.0910859999999971
0
LINE
8
User.Drawings
6
CONTINUOUS
10
127.1312889999999953
20
-53.0910859999999971
11
127.377167
21
-53.2871669999999966
0
LINE
8
User.Drawings
6
CONTINUOUS
10
127.377167
20
-53.2871669999999966
11
127.6434519999999964
21
-53.4544859999999957
0
LINE
8
User.Drawings
6
CONTINUOUS
10
127.6434519999999964
20
-53.4544859999999957
11
127.9267969999999934
21
-53.5909379999999942
0
LINE
8
User.Drawings
6
CONTINUOUS
10
127.9267969999999934
20
-53.5909379999999942
11
128.223637999999994
21
-53.6948069999999973
0
LINE
8
User.Drawings
6
CONTINUOUS
10
128.223637999999994
20
-53.6948069999999973
11
128.5302429999999845
21
-53.7647869999999983
0
LINE
8
User.Drawings
6
CONTINUOUS
10
128.5302429999999845
20
-53.7647869999999983
11
128.8427539999999851
21
-53.7999989999999997
0
LINE
8
User.Drawings
6
CONTINUOUS
10
128.8427539999999851
20
-53.7999989999999997
11
128.9999990000000025
21
-53.7999989999999997
0
LINE
8
User.Drawings
6
CONTINUOUS
10
128.9999990000000025
20
-53.7999989999999997
11
129.4864450000000033
21
-53.819111999999997
0
LINE
8
User.Drawings
6
CONTINUOUS
10
129.4864450000000033
20
-53.819111999999997
11
129.9698929999999848
21
-53.8763310000000004
0
LINE
8
User.Drawings
6
CONTINUOUS
10
129.9698929999999848
20
-53.8763310000000004
11
130.4473600000000033
21
-53.971305000000001
0
LINE
8
User.Drawings
6
CONTINUOUS
10
130.4473600000000033
20
-53.971305000000001
11
130.9159039999999834
21
-54.1034489999999977
0
LINE
8
User.Drawings
6
CONTINUOUS
10
130.9159039999999834
20
-54.1034489999999977
11
131.372636
21
-54.2719459999999998
0
LINE
8
User.Drawings
6
CONTINUOUS
10
131.372636
20
-54.2719459999999998
11
131.8147400000000005
21
-54.4757589999999965
0
LINE
8
User.Drawings
6
CONTINUOUS
10
131.8147400000000005
20
-54.4757589999999965
11
132.2394899999999893
21
-54.7136299999999949
0
LINE
8
User.Drawings
6
CONTINUOUS
10
132.2394899999999893
20
-54.7136299999999949
11
132.6442679999999825
21
-54.9840939999999989
0
LINE
8
User.Drawings
6
CONTINUOUS
10
132.6442679999999825
20
-54.9840939999999989
11
133.0265770000000032
21
-55.2854819999999947
0
LINE
8
User.Drawings
6
CONTINUOUS
10
133.0265770000000032
20
-55.2854819999999947
11
133.3840610000000027
21
-55.6159369999999953
0
LINE
8
User.Drawings
6
CONTINUOUS
10
133.3840610000000027
20
-55.6159369999999953
11
133.7145160000000033
21
-55.9734209999999948
0
LINE
8
User.Drawings
6
CONTINUOUS
10
133.7145160000000033
20
-55.9734209999999948
11
134.0159040000000061
21
-56.3557299999999941
0
LINE
8
User.Drawings
6
CONTINUOUS
10
134.0159040000000061
20
-56.3557299999999941
11
134.2863679999999817
21
-56.7605079999999944
0
LINE
8
User.Drawings
6
CONTINUOUS
10
134.2863679999999817
20
-56.7605079999999944
11
134.5242389999999943
21
-57.1852579999999975
0
LINE
8
User.Drawings
6
CONTINUOUS
10
134.5242389999999943
20
-57.1852579999999975
11
134.728051999999991
21
-57.627361999999998
0
LINE
8
User.Drawings
6
CONTINUOUS
10
134.728051999999991
20
-57.627361999999998
11
134.8965489999999932
21
-58.0840940000000003
0
LINE
8
User.Drawings
6
CONTINUOUS
10
134.8965489999999932
20
-58.0840940000000003
11
135.0286930000000041
21
-58.5526379999999946
0
LINE
8
User.Drawings
6
CONTINUOUS
10
135.0286930000000041
20
-58.5526379999999946
11
135.1236669999999833
21
-59.0301049999999989
0
LINE
8
User.Drawings
6
CONTINUOUS
10
135.1236669999999833
20
-59.0301049999999989
11
135.1808859999999868
21
-59.5135529999999946
0
LINE
8
User.Drawings
6
CONTINUOUS
10
135.1808859999999868
20
-59.5135529999999946
11
135.1999989999999912
21
-59.9999989999999954
0
LINE
8
User.Drawings
6
CONTINUOUS
10
135.1999989999999912
20
-59.9999989999999954
11
135.1808859999999868
21
-60.4864449999999962
0
LINE
8
User.Drawings
6
CONTINUOUS
10
135.1808859999999868
20
-60.4864449999999962
11
135.1236669999999833
21
-60.969892999999999
0
LINE
8
User.Drawings
6
CONTINUOUS
10
135.1236669999999833
20
-60.969892999999999
11
135.0286930000000041
21
-61.4473599999999962
0
LINE
8
User.Drawings
6
CONTINUOUS
10
135.0286930000000041
20
-61.4473599999999962
11
134.8965489999999932
21
-61.9159039999999976
0
LINE
8
User.Drawings
6
CONTINUOUS
10
134.8965489999999932
20
-61.9159039999999976
11
134.728051999999991
21
-62.372636
0
LINE
8
User.Drawings
6
CONTINUOUS
10
134.728051999999991
20
-62.372636
11
134.5242389999999943
21
-62.8147400000000005
0
LINE
8
User.Drawings
6
CONTINUOUS
10
134.5242389999999943
20
-62.8147400000000005
11
134.2863679999999817
21
-63.2394899999999964
0
LINE
8
User.Drawings
6
CONTINUOUS
10
134.2863679999999817
20
-63.2394899999999964
11
134.0159040000000061
21
-63.6442679999999967
0
LINE
8
User.Drawings
6
CONTINUOUS
10
134.0159040000000061
20
-63.6442679999999967
11
133.7145160000000033
21
-64.0265770000000032
0
LINE
8
User.Drawings
6
CONTINUOUS
10
133.7145160000000033
20
-64.0265770000000032
11
133.3840610000000027
21
-64.3840610000000027
0
LINE
8
User.Drawings
6
CONTINUOUS
10
133.3840610000000027
20
-64.3840610000000027
11
133.0265770000000032
21
-64.7145160000000033
0
LINE
8
User.Drawings
6
CONTINUOUS
10
133.0265770000000032
20
-64.7145160000000033
11
132.6442679999999825
21
-65.0159039999999919
0
LINE
8
User.Drawings
6
CONTINUOUS
10
132.6442679999999825
20
-65.0159039999999919
11
132.2394899999999893
21
-65.286367999999996
0
LINE
8
User.Drawings
6
CONTINUOUS
10
132.2394899999999893
20
-65.286367999999996
11
131.8147400000000005
21
-65.5242389999999943
0
LINE
8
User.Drawings
6
CONTINUOUS
10
131.8147400000000005
20
-65.5242389999999943
11
131.372636
21
-65.728051999999991
0
LINE
8
User.Drawings
6
CONTINUOUS
10
131.372636
20
-65.728051999999991
11
130.9159039999999834
21
-65.8965489999999932
0
LINE
8
User.Drawings
6
CONTINUOUS
10
130.9159039999999834
20
-65.8965489999999932
11
130.4473600000000033
21
-66.0286930000000041
0
LINE
8
User.Drawings
6
CONTINUOUS
10
130.4473600000000033
20
-66.0286930000000041
11
129.9698929999999848
21
-66.1236669999999975
0
LINE
8
User.Drawings
6
CONTINUOUS
10
129.9698929999999848
20
-66.1236669999999975
11
129.4864450000000033
21
-66.180886000000001
0
LINE
8
User.Drawings
6
CONTINUOUS
10
129.4864450000000033
20
-66.180886000000001
11
128.9999990000000025
21
-66.1999989999999912
0
LINE
8
User.Drawings
6
CONTINUOUS
10
128.9999990000000025
20
-66.1999989999999912
11
128.8427539999999851
21
-66.1999989999999912
0
LINE
8
User.Drawings
6
CONTINUOUS
10
128.8427539999999851
20
-66.1999989999999912
11
128.5302429999999845
21
-66.2352109999999925
0
LINE
8
User.Drawings
6
CONTINUOUS
10
128.5302429999999845
20
-66.2352109999999925
11
128.223637999999994
21
-66.3051909999999936
0
LINE
8
User.Drawings
6
CONTINUOUS
10
128.223637999999994
20
-66.3051909999999936
11
127.9267969999999934
21
-66.4090599999999966
0
LINE
8
User.Drawings
6
CONTINUOUS
10
127.9267969999999934
20
-66.4090599999999966
11
127.6434519999999964
21
-66.5455120000000022
0
LINE
8
User.Drawings
6
CONTINUOUS
10
127.6434519999999964
20
-66.5455120000000022
11
127.377167
21
-66.7128309999999942
0
LINE
8
User.Drawings
6
CONTINUOUS
10
127.377167
20
-66.7128309999999942
11
127.1312889999999953
21
-66.9089120000000008
0
LINE
8
User.Drawings
6
CONTINUOUS
10
127.1312889999999953
20
-66.9089120000000008
11
126.9089120000000008
21
-67.1312889999999953
0
LINE
8
User.Drawings
6
CONTINUOUS
10
126.9089120000000008
20
-67.1312889999999953
11
126.7128309999999942
21
-67.377167
0
LINE
8
User.Drawings
6
CONTINUOUS
10
126.7128309999999942
20
-67.377167
11
126.545511999999988
21
-67.6434519999999964
0
LINE
8
User.Drawings
6
CONTINUOUS
10
126.545511999999988
20
-67.6434519999999964
11
126.4090599999999966
21
-67.9267969999999934
0
LINE
8
User.Drawings
6
CONTINUOUS
10
126.4090599999999966
20
-67.9267969999999934
11
126.3051909999999936
21
-68.223637999999994
0
LINE
8
User.Drawings
6
CONTINUOUS
10
126.3051909999999936
20
-68.223637999999994
11
126.2352109999999925
21
-68.5302429999999987
0
LINE
8
User.Drawings
6
CONTINUOUS
10
126.2352109999999925
20
-68.5302429999999987
11
126.1999989999999912
21
-68.8427539999999993
0
LINE
8
User.Drawings
6
CONTINUOUS
10
126.1999989999999912
20
-68.8427539999999993
11
126.1999989999999912
21
-68.9999990000000025
0
LINE
8
User.Drawings
6
CONTINUOUS
10
126.1999989999999912
20
-68.9999990000000025
11
126.1999989999999912
21
-97.8074819999999931
0
LINE
8
User.Drawings
6
CONTINUOUS
10
126.1999989999999912
20
-97.8074819999999931
11
126.463325999999995
21
-97.8173349999999999
0
LINE
8
User.Drawings
6
CONTINUOUS
10
126.463325999999995
20
-97.8173349999999999
11
126.9240609999999947
21
-97.8692479999999989
0
LINE
8
User.Drawings
6
CONTINUOUS
10
126.9240609999999947
20
-97.8692479999999989
11
127.3796289999999942
21
-97.9554459999999949
0
LINE
8
User.Drawings
6
CONTINUOUS
10
127.3796289999999942
20
-97.9554459999999949
11
127.8274809999999917
21
-98.0754469999999969
0
LINE
8
User.Drawings
6
CONTINUOUS
10
127.8274809999999917
20
-98.0754469999999969
11
128.2651129999999853
21
-98.2285809999999913
0
LINE
8
User.Drawings
6
CONTINUOUS
10
128.2651129999999853
20
-98.2285809999999913
11
128.6900779999999997
21
-98.4139919999999933
0
LINE
8
User.Drawings
6
CONTINUOUS
10
128.6900779999999997
20
-98.4139919999999933
11
129.0999989999999968
21
-98.6306409999999971
0
LINE
8
User.Drawings
6
CONTINUOUS
10
129.0999989999999968
20
-98.6306409999999971
11
129.4925839999999937
21
-98.8773180000000025
0
LINE
8
User.Drawings
6
CONTINUOUS
10
129.4925839999999937
20
-98.8773180000000025
11
129.865635999999995
21
-99.1526429999999976
0
LINE
8
User.Drawings
6
CONTINUOUS
10
129.865635999999995
20
-99.1526429999999976
11
130.2170700000000068
21
-99.4550769999999886
0
LINE
8
User.Drawings
6
CONTINUOUS
10
130.2170700000000068
20
-99.4550769999999886
11
130.544920999999988
21
-99.7829279999999983
0
LINE
8
User.Drawings
6
CONTINUOUS
10
130.544920999999988
20
-99.7829279999999983
11
130.8473549999999932
21
-100.1343619999999959
0
LINE
8
User.Drawings
6
CONTINUOUS
10
130.8473549999999932
20
-100.1343619999999959
11
131.1226800000000026
21
-100.5074139999999971
0
LINE
8
User.Drawings
6
CONTINUOUS
10
131.1226800000000026
20
-100.5074139999999971
11
131.3693570000000079
21
-100.899998999999994
0
LINE
8
User.Drawings
6
CONTINUOUS
10
131.3693570000000079
20
-100.899998999999994
11
131.5860059999999976
21
-101.3099199999999911
0
LINE
8
User.Drawings
6
CONTINUOUS
10
131.5860059999999976
20
-101.3099199999999911
11
131.7714169999999854
21
-101.7348849999999914
0
LINE
8
User.Drawings
6
CONTINUOUS
10
131.7714169999999854
20
-101.7348849999999914
11
131.9245510000000081
21
-102.1725169999999991
0
LINE
8
User.Drawings
6
CONTINUOUS
10
131.9245510000000081
20
-102.1725169999999991
11
132.0445519999999817
21
-102.6203689999999966
0
LINE
8
User.Drawings
6
CONTINUOUS
10
132.0445519999999817
20
-102.6203689999999966
11
132.1307500000000061
21
-103.0759369999999961
0
LINE
8
User.Drawings
6
CONTINUOUS
10
132.1307500000000061
20
-103.0759369999999961
11
132.1826629999999909
21
-103.5366719999999958
0
LINE
8
User.Drawings
6
CONTINUOUS
10
132.1826629999999909
20
-103.5366719999999958
11
132.1925159999999835
21
-103.7999989999999997
0
LINE
8
User.Drawings
6
CONTINUOUS
10
132.1925159999999835
20
-103.7999989999999997
11
134.9999990000000025
21
-103.7999989999999997
0
LINE
8
User.Drawings
6
CONTINUOUS
10
134.9999990000000025
20
-103.7999989999999997
11
135.0390170000000012
21
-103.8038419999999888
0
LINE
8
User.Drawings
6
CONTINUOUS
10
135.0390170000000012
20
-103.8038419999999888
11
135.1111129999999889
21
-103.8337049999999948
0
LINE
8
User.Drawings
6
CONTINUOUS
10
135.1111129999999889
20
-103.8337049999999948
11
135.166292999999996
21
-103.8888850000000019
0
LINE
8
User.Drawings
6
CONTINUOUS
10
135.166292999999996
20
-103.8888850000000019
11
135.196156000000002
21
-103.9609809999999896
0
LINE
8
User.Drawings
6
CONTINUOUS
10
135.196156000000002
20
-103.9609809999999896
11
135.1999989999999912
21
-103.9999989999999883
0
LINE
8
User.Drawings
6
CONTINUOUS
10
135.1999989999999912
20
-103.9999989999999883
11
135.1999989999999912
21
-109.9999989999999883
0
LINE
8
User.Drawings
6
CONTINUOUS
10
135.1999989999999912
20
-109.9999989999999883
11
135.196156000000002
21
-110.0390170000000012
0
LINE
8
User.Drawings
6
CONTINUOUS
10
135.196156000000002
20
-110.0390170000000012
11
135.166292999999996
21
-110.1111129999999889
0
LINE
8
User.Drawings
6
CONTINUOUS
10
135.166292999999996
20
-110.1111129999999889
11
135.1111129999999889
21
-110.166292999999996
0
LINE
8
User.Drawings
6
CONTINUOUS
10
135.1111129999999889
20
-110.166292999999996
11
135.0390170000000012
21
-110.196156000000002
0
LINE
8
User.Drawings
6
CONTINUOUS
10
135.0390170000000012
20
-110.196156000000002
11
134.9609810000000039
21
-110.196156000000002
0
LINE
8
User.Drawings
6
CONTINUOUS
10
134.9609810000000039
20
-110.196156000000002
11
134.8888849999999877
21
-110.166292999999996
0
LINE
8
User.Drawings
6
CONTINUOUS
10
134.8888849999999877
20
-110.166292999999996
11
134.8337049999999806
21
-110.1111129999999889
0
LINE
8
User.Drawings
6
CONTINUOUS
10
134.8337049999999806
20
-110.1111129999999889
11
134.8083900000000028
21
-110.0499989999999997
0
LINE
8
User.Drawings
6
CONTINUOUS
10
134.8083900000000028
20
-110.0499989999999997
11
126.
21
-110.0499999999999972
0
LINE
8
User.Drawings
6
CONTINUOUS
10
126.
20
-110.0499999999999972
11
125.5253219999999885
21
-110.0313499999999891
0
LINE
8
User.Drawings
6
CONTINUOUS
10
125.5253219999999885
20
-110.0313499999999891
11
125.0535709999999909
21
-109.9755150000000015
0
LINE
8
User.Drawings
6
CONTINUOUS
10
125.0535709999999909
20
-109.9755150000000015
11
124.587654999999998
21
-109.8828379999999925
0
LINE
8
User.Drawings
6
CONTINUOUS
10
124.587654999999998
20
-109.8828379999999925
11
124.1304469999999895
21
-109.7538919999999933
0
LINE
8
User.Drawings
6
CONTINUOUS
10
124.1304469999999895
20
-109.7538919999999933
11
123.6847649999999987
21
-109.589470999999989
0
LINE
8
User.Drawings
6
CONTINUOUS
10
123.6847649999999987
20
-109.589470999999989
11
123.2533569999999941
21
-109.3905899999999889
0
LINE
8
User.Drawings
6
CONTINUOUS
10
123.2533569999999941
20
-109.3905899999999889
11
122.8388829999999956
21
-109.1584730000000008
0
LINE
8
User.Drawings
6
CONTINUOUS
10
122.8388829999999956
20
-109.1584730000000008
11
122.4438989999999876
21
-108.8945530000000019
0
LINE
8
User.Drawings
6
CONTINUOUS
10
122.4438989999999876
20
-108.8945530000000019
11
122.0708389999999923
21
-108.6004559999999941
0
LINE
8
User.Drawings
6
CONTINUOUS
10
122.0708389999999923
20
-108.6004559999999941
11
121.7220039999999983
21
-108.2779960000000017
0
LINE
8
User.Drawings
6
CONTINUOUS
10
121.7220039999999983
20
-108.2779960000000017
11
121.3995439999999917
21
-107.9291609999999935
0
LINE
8
User.Drawings
6
CONTINUOUS
10
121.3995439999999917
20
-107.9291609999999935
11
121.1054469999999981
21
-107.5561009999999982
0
LINE
8
User.Drawings
6
CONTINUOUS
10
121.1054469999999981
20
-107.5561009999999982
11
120.8415269999999992
21
-107.1611169999999902
0
LINE
8
User.Drawings
6
CONTINUOUS
10
120.8415269999999992
20
-107.1611169999999902
11
120.6094099999999969
21
-106.7466429999999917
0
LINE
8
User.Drawings
6
CONTINUOUS
10
120.6094099999999969
20
-106.7466429999999917
11
120.4105289999999968
21
-106.3152350000000013
0
LINE
8
User.Drawings
6
CONTINUOUS
10
120.4105289999999968
20
-106.3152350000000013
11
120.2461079999999924
21
-105.8695529999999962
0
LINE
8
User.Drawings
6
CONTINUOUS
10
120.2461079999999924
20
-105.8695529999999962
11
120.1171619999999933
21
-105.412345000000002
0
LINE
8
User.Drawings
6
CONTINUOUS
10
120.1171619999999933
20
-105.412345000000002
11
120.0244849999999985
21
-104.9464289999999949
0
LINE
8
User.Drawings
6
CONTINUOUS
10
120.0244849999999985
20
-104.9464289999999949
11
119.9686499999999967
21
-104.4746779999999973
0
LINE
8
User.Drawings
6
CONTINUOUS
10
119.9686499999999967
20
-104.4746779999999973
11
119.9499999999999886
21
-104.
0
LINE
8
User.Drawings
6
CONTINUOUS
10
119.9499999999999886
20
-104.
11
119.9499999999999886
21
-103.9999989999999883
0
LINE
8
User.Drawings
6
CONTINUOUS
10
119.9499999999999886
20
-103.9999989999999883
11
119.9499999999999886
21
-36.
0
LINE
8
User.Drawings
6
CONTINUOUS
10
119.9499999999999886
20
-36.
11
119.9499999999999886
21
-35.9999989999999954
0
LINE
8
User.Drawings
6
CONTINUOUS
10
119.9499999999999886
20
-35.9999989999999954
11
119.9686499999999967
21
-35.5253219999999956
0
LINE
8
User.Drawings
6
CONTINUOUS
10
119.9686499999999967
20
-35.5253219999999956
11
120.0244849999999985
21
-35.053570999999998
0
LINE
8
User.Drawings
6
CONTINUOUS
10
120.0244849999999985
20
-35.053570999999998
11
120.1171619999999933
21
-34.587654999999998
0
LINE
8
User.Drawings
6
CONTINUOUS
10
120.1171619999999933
20
-34.587654999999998
11
120.2461079999999924
21
-34.1304469999999966
0
LINE
8
User.Drawings
6
CONTINUOUS
10
120.2461079999999924
20
-34.1304469999999966
11
120.4105289999999968
21
-33.6847649999999987
0
LINE
8
User.Drawings
6
CONTINUOUS
10
120.4105289999999968
20
-33.6847649999999987
11
120.6094099999999969
21
-33.2533570000000012
0
LINE
8
User.Drawings
6
CONTINUOUS
10
120.6094099999999969
20
-33.2533570000000012
11
120.8415269999999992
21
-32.8388829999999956
0
LINE
8
User.Drawings
6
CONTINUOUS
10
120.8415269999999992
20
-32.8388829999999956
11
121.1054469999999981
21
-32.4438990000000018
0
LINE
8
User.Drawings
6
CONTINUOUS
10
121.1054469999999981
20
-32.4438990000000018
11
121.3995439999999917
21
-32.0708389999999994
0
LINE
8
User.Drawings
6
CONTINUOUS
10
121.3995439999999917
20
-32.0708389999999994
11
121.7220039999999983
21
-31.7220039999999983
0
LINE
8
User.Drawings
6
CONTINUOUS
10
121.7220039999999983
20
-31.7220039999999983
11
122.0708389999999923
21
-31.3995439999999988
0
LINE
8
User.Drawings
6
CONTINUOUS
10
122.0708389999999923
20
-31.3995439999999988
11
122.4438989999999876
21
-31.1054469999999981
0
LINE
8
User.Drawings
6
CONTINUOUS
10
122.4438989999999876
20
-31.1054469999999981
11
122.8388829999999956
21
-30.8415269999999992
0
LINE
8
User.Drawings
6
CONTINUOUS
10
122.8388829999999956
20
-30.8415269999999992
11
123.2533569999999941
21
-30.6094099999999969
0
LINE
8
User.Drawings
6
CONTINUOUS
10
123.2533569999999941
20
-30.6094099999999969
11
123.6847649999999987
21
-30.4105290000000004
0
LINE
8
User.Drawings
6
CONTINUOUS
10
123.6847649999999987
20
-30.4105290000000004
11
124.1304469999999895
21
-30.2461079999999995
0
LINE
8
User.Drawings
6
CONTINUOUS
10
124.1304469999999895
20
-30.2461079999999995
11
124.587654999999998
21
-30.1171619999999969
0
LINE
8
User.Drawings
6
CONTINUOUS
10
124.587654999999998
20
-30.1171619999999969
11
125.0535709999999909
21
-30.0244849999999985
0
LINE
8
User.Drawings
6
CONTINUOUS
10
125.0535709999999909
20
-30.0244849999999985
11
125.5253219999999885
21
-29.9686500000000002
0
LINE
8
User.Drawings
6
CONTINUOUS
10
125.5253219999999885
20
-29.9686500000000002
11
125.9999859999999927
21
-29.9499999999999993
0
LINE
8
User.Drawings
6
CONTINUOUS
10
125.9999859999999927
20
-29.9499999999999993
11
125.9999989999999883
21
-29.9499979999999972
0
LINE
8
User.Drawings
6
CONTINUOUS
10
125.9999989999999883
20
-29.9499979999999972
11
140.8083910000000003
21
-29.9499989999999983
0
LINE
8
User.Drawings
6
CONTINUOUS
10
140.8083910000000003
20
-29.9499989999999983
11
140.8337060000000065
21
-29.8888859999999994
0
LINE
8
User.Drawings
6
CONTINUOUS
10
140.8337060000000065
20
-29.8888859999999994
11
140.8888859999999852
21
-29.8337059999999994
0
LINE
8
User.Drawings
6
CONTINUOUS
10
140.8888859999999852
20
-29.8337059999999994
11
140.9609820000000013
21
-29.803842999999997
0
LINE
8
User.Drawings
6
CONTINUOUS
10
140.9609820000000013
20
-29.803842999999997
11
141.0390179999999987
21
-29.803842999999997
0
LINE
8
User.Drawings
6
CONTINUOUS
10
141.0390179999999987
20
-29.803842999999997
11
141.1111139999999864
21
-29.8337059999999994
0
LINE
8
User.Drawings
6
CONTINUOUS
10
126.
20
-30.0499999999999972
11
125.766223999999994
21
-30.0499999999999972
0
LINE
8
User.Drawings
6
CONTINUOUS
10
125.766223999999994
20
-30.0499999999999972
11
125.3001129999999961
21
-30.0866829999999972
0
LINE
8
User.Drawings
6
CONTINUOUS
10
125.3001129999999961
20
-30.0866829999999972
11
124.8383169999999893
21
-30.1598249999999979
0
LINE
8
User.Drawings
6
CONTINUOUS
10
124.8383169999999893
20
-30.1598249999999979
11
124.3836829999999907
21
-30.268971999999998
0
LINE
8
User.Drawings
6
CONTINUOUS
10
124.3836829999999907
20
-30.268971999999998
11
123.9390140000000002
21
-30.413453999999998
0
LINE
8
User.Drawings
6
CONTINUOUS
10
123.9390140000000002
20
-30.413453999999998
11
123.5070519999999874
21
-30.5923789999999975
0
LINE
8
User.Drawings
6
CONTINUOUS
10
123.5070519999999874
20
-30.5923789999999975
11
123.0904599999999931
21
-30.8046429999999987
0
LINE
8
User.Drawings
6
CONTINUOUS
10
123.0904599999999931
20
-30.8046429999999987
11
122.6918059999999997
21
-31.0489379999999997
0
LINE
8
User.Drawings
6
CONTINUOUS
10
122.6918059999999997
20
-31.0489379999999997
11
122.3135479999999973
21
-31.323758999999999
0
LINE
8
User.Drawings
6
CONTINUOUS
10
122.3135479999999973
20
-31.323758999999999
11
121.9580189999999931
21
-31.6274090000000001
0
LINE
8
User.Drawings
6
CONTINUOUS
10
121.9580189999999931
20
-31.6274090000000001
11
121.6274090000000001
21
-31.9580190000000002
0
LINE
8
User.Drawings
6
CONTINUOUS
10
121.6274090000000001
20
-31.9580190000000002
11
121.3237589999999955
21
-32.3135479999999973
0
LINE
8
User.Drawings
6
CONTINUOUS
10
121.3237589999999955
20
-32.3135479999999973
11
121.0489379999999926
21
-32.6918059999999997
0
LINE
8
User.Drawings
6
CONTINUOUS
10
121.0489379999999926
20
-32.6918059999999997
11
120.8046429999999987
21
-33.0904600000000002
0
LINE
8
User.Drawings
6
CONTINUOUS
10
120.8046429999999987
20
-33.0904600000000002
11
120.592378999999994
21
-33.5070520000000016
0
LINE
8
User.Drawings
6
CONTINUOUS
10
120.592378999999994
20
-33.5070520000000016
11
120.4134540000000015
21
-33.9390140000000002
0
LINE
8
User.Drawings
6
CONTINUOUS
10
120.4134540000000015
20
-33.9390140000000002
11
120.2689719999999909
21
-34.3836829999999978
0
LINE
8
User.Drawings
6
CONTINUOUS
10
120.2689719999999909
20
-34.3836829999999978
11
120.1598249999999979
21
-34.8383169999999964
0
LINE
8
User.Drawings
6
CONTINUOUS
10
120.1598249999999979
20
-34.8383169999999964
11
120.0866829999999936
21
-35.3001129999999961
0
LINE
8
User.Drawings
6
CONTINUOUS
10
120.0866829999999936
20
-35.3001129999999961
11
120.0499999999999972
21
-35.7662240000000011
0
LINE
8
User.Drawings
6
CONTINUOUS
10
120.0499999999999972
20
-35.7662240000000011
11
120.0499999999999972
21
-35.9999989999999954
0
LINE
8
User.Drawings
6
CONTINUOUS
10
120.0499999999999972
20
-35.9999989999999954
11
120.0499999999999972
21
-36.
0
LINE
8
User.Drawings
6
CONTINUOUS
10
120.0499999999999972
20
-36.
11
120.0499999999999972
21
-103.9999989999999883
0
LINE
8
User.Drawings
6
CONTINUOUS
10
120.0499999999999972
20
-103.9999989999999883
11
120.0499999999999972
21
-104.
0
LINE
8
User.Drawings
6
CONTINUOUS
10
120.0499999999999972
20
-104.
11
120.0499999999999972
21
-104.2337759999999918
0
LINE
8
User.Drawings
6
CONTINUOUS
10
120.0499999999999972
20
-104.2337759999999918
11
120.0866829999999936
21
-104.6998869999999897
0
LINE
8
User.Drawings
6
CONTINUOUS
10
120.0866829999999936
20
-104.6998869999999897
11
120.1598249999999979
21
-105.1616829999999965
0
LINE
8
User.Drawings
6
CONTINUOUS
10
120.1598249999999979
20
-105.1616829999999965
11
120.2689719999999909
21
-105.6163169999999951
0
LINE
8
User.Drawings
6
CONTINUOUS
10
120.2689719999999909
20
-105.6163169999999951
11
120.4134540000000015
21
-106.0609859999999998
0
LINE
8
User.Drawings
6
CONTINUOUS
10
120.4134540000000015
20
-106.0609859999999998
11
120.592378999999994
21
-106.4929479999999984
0
LINE
8
User.Drawings
6
CONTINUOUS
10
120.592378999999994
20
-106.4929479999999984
11
120.8046429999999987
21
-106.9095399999999927
0
LINE
8
User.Drawings
6
CONTINUOUS
10
120.8046429999999987
20
-106.9095399999999927
11
121.0489379999999926
21
-107.3081940000000003
0
LINE
8
User.Drawings
6
CONTINUOUS
10
121.0489379999999926
20
-107.3081940000000003
11
121.3237589999999955
21
-107.6864519999999885
0
LINE
8
User.Drawings
6
CONTINUOUS
10
121.3237589999999955
20
-107.6864519999999885
11
121.6274090000000001
21
-108.0419809999999927
0
LINE
8
User.Drawings
6
CONTINUOUS
10
121.6274090000000001
20
-108.0419809999999927
11
121.9580189999999931
21
-108.3725909999999999
0
LINE
8
User.Drawings
6
CONTINUOUS
10
121.9580189999999931
20
-108.3725909999999999
11
122.3135479999999973
21
-108.6762409999999903
0
LINE
8
User.Drawings
6
CONTINUOUS
10
122.3135479999999973
20
-108.6762409999999903
11
122.6918059999999997
21
-108.9510619999999932
0
LINE
8
User.Drawings
6
CONTINUOUS
10
122.6918059999999997
20
-108.9510619999999932
11
123.0904599999999931
21
-109.1953570000000013
0
LINE
8
User.Drawings
6
CONTINUOUS
10
123.0904599999999931
20
-109.1953570000000013
11
123.5070519999999874
21
-109.4076209999999918
0
LINE
8
User.Drawings
6
CONTINUOUS
10
123.5070519999999874
20
-109.4076209999999918
11
123.9390140000000002
21
-109.5865459999999985
0
LINE
8
User.Drawings
6
CONTINUOUS
10
123.9390140000000002
20
-109.5865459999999985
11
124.3836829999999907
21
-109.7310279999999949
0
LINE
8
User.Drawings
6
CONTINUOUS
10
124.3836829999999907
20
-109.7310279999999949
11
124.8383169999999893
21
-109.8401750000000021
0
LINE
8
User.Drawings
6
CONTINUOUS
10
124.8383169999999893
20
-109.8401750000000021
11
125.3001129999999961
21
-109.9133169999999922
0
LINE
8
User.Drawings
6
CONTINUOUS
10
125.3001129999999961
20
-109.9133169999999922
11
125.766223999999994
21
-109.9499999999999886
0
LINE
8
User.Drawings
6
CONTINUOUS
10
125.766223999999994
20
-109.9499999999999886
11
126.
21
-109.9499999999999886
0
LINE
8
User.Drawings
6
CONTINUOUS
10
126.
20
-109.9499999999999886
11
134.7999989999999855
21
-109.9499989999999912
0
LINE
8
User.Drawings
6
CONTINUOUS
10
134.7999989999999855
20
-109.9499989999999912
11
134.7999989999999855
21
-104.1999989999999912
0
LINE
8
User.Drawings
6
CONTINUOUS
10
134.7999989999999855
20
-104.1999989999999912
11
131.9999990000000025
21
-104.1999989999999912
0
LINE
8
User.Drawings
6
CONTINUOUS
10
131.9999990000000025
20
-104.1999989999999912
11
131.9609810000000039
21
-104.196156000000002
0
LINE
8
User.Drawings
6
CONTINUOUS
10
131.9609810000000039
20
-104.196156000000002
11
131.942781999999994
21
-104.1886179999999911
0
LINE
8
User.Drawings
6
CONTINUOUS
10
131.942781999999994
20
-104.1886179999999911
11
131.9234620000000007
21
-104.1847750000000019
0
LINE
8
User.Drawings
6
CONTINUOUS
10
131.9234620000000007
20
-104.1847750000000019
11
131.9070830000000001
21
-104.1738309999999927
0
LINE
8
User.Drawings
6
CONTINUOUS
10
131.9070830000000001
20
-104.1738309999999927
11
131.8888849999999877
21
-104.166292999999996
0
LINE
8
User.Drawings
6
CONTINUOUS
10
131.8888849999999877
20
-104.166292999999996
11
131.8749540000000025
21
-104.1523619999999966
0
LINE
8
User.Drawings
6
CONTINUOUS
10
131.8749540000000025
20
-104.1523619999999966
11
131.8585779999999943
21
-104.1414199999999965
0
LINE
8
User.Drawings
6
CONTINUOUS
10
131.8585779999999943
20
-104.1414199999999965
11
131.8476349999999968
21
-104.1250429999999909
0
LINE
8
User.Drawings
6
CONTINUOUS
10
131.8476349999999968
20
-104.1250429999999909
11
131.8337049999999806
21
-104.1111129999999889
0
LINE
8
User.Drawings
6
CONTINUOUS
10
131.8337049999999806
20
-104.1111129999999889
11
131.8261660000000006
21
-104.0929139999999933
0
LINE
8
User.Drawings
6
CONTINUOUS
10
131.8261660000000006
20
-104.0929139999999933
11
131.8152230000000031
21
-104.0765359999999902
0
LINE
8
User.Drawings
6
CONTINUOUS
10
131.8152230000000031
20
-104.0765359999999902
11
131.8113789999999881
21
-104.0572149999999993
0
LINE
8
User.Drawings
6
CONTINUOUS
10
131.8113789999999881
20
-104.0572149999999993
11
131.8038420000000031
21
-104.0390170000000012
0
LINE
8
User.Drawings
6
CONTINUOUS
10
131.8038420000000031
20
-104.0390170000000012
11
131.8038420000000031
21
-104.0193189999999959
0
LINE
8
User.Drawings
6
CONTINUOUS
10
131.8038420000000031
20
-104.0193189999999959
11
131.7999989999999855
21
-103.9999989999999883
0
LINE
8
User.Drawings
6
CONTINUOUS
10
131.7999989999999855
20
-103.9999989999999883
11
131.7999989999999855
21
-103.7721159999999969
0
LINE
8
User.Drawings
6
CONTINUOUS
10
131.7999989999999855
20
-103.7721159999999969
11
131.7642400000000009
21
-103.3177559999999886
0
LINE
8
User.Drawings
6
CONTINUOUS
10
131.7642400000000009
20
-103.3177559999999886
11
131.6929429999999854
21
-102.8676019999999909
0
LINE
8
User.Drawings
6
CONTINUOUS
10
131.6929429999999854
20
-102.8676019999999909
11
131.5865469999999959
21
-102.424430000000001
0
LINE
8
User.Drawings
6
CONTINUOUS
10
131.5865469999999959
20
-102.424430000000001
11
131.4457069999999987
21
-101.9909710000000018
0
LINE
8
User.Drawings
6
CONTINUOUS
10
131.4457069999999987
20
-101.9909710000000018
11
131.2712939999999833
21
-101.5698989999999924
0
LINE
8
User.Drawings
6
CONTINUOUS
10
131.2712939999999833
20
-101.5698989999999924
11
131.0643809999999974
21
-101.1638090000000005
0
LINE
8
User.Drawings
6
CONTINUOUS
10
131.0643809999999974
20
-101.1638090000000005
11
130.8262440000000026
21
-100.7752049999999997
0
LINE
8
User.Drawings
6
CONTINUOUS
10
130.8262440000000026
20
-100.7752049999999997
11
130.5583519999999851
21
-100.4064829999999944
0
LINE
8
User.Drawings
6
CONTINUOUS
10
130.5583519999999851
20
-100.4064829999999944
11
130.2623559999999827
21
-100.0599169999999987
0
LINE
8
User.Drawings
6
CONTINUOUS
10
130.2623559999999827
20
-100.0599169999999987
11
129.9400809999999922
21
-99.7376419999999939
0
LINE
8
User.Drawings
6
CONTINUOUS
10
129.9400809999999922
20
-99.7376419999999939
11
129.5935149999999965
21
-99.4416459999999915
0
LINE
8
User.Drawings
6
CONTINUOUS
10
129.5935149999999965
20
-99.4416459999999915
11
129.2247930000000053
21
-99.1737540000000024
0
LINE
8
User.Drawings
6
CONTINUOUS
10
129.2247930000000053
20
-99.1737540000000024
11
128.8361889999999903
21
-98.9356169999999935
0
LINE
8
User.Drawings
6
CONTINUOUS
10
128.8361889999999903
20
-98.9356169999999935
11
128.4300989999999842
21
-98.7287039999999934
0
LINE
8
User.Drawings
6
CONTINUOUS
10
128.4300989999999842
20
-98.7287039999999934
11
128.0090270000000032
21
-98.5542909999999921
0
LINE
8
User.Drawings
6
CONTINUOUS
10
128.0090270000000032
20
-98.5542909999999921
11
127.5755679999999899
21
-98.4134509999999949
0
LINE
8
User.Drawings
6
CONTINUOUS
10
127.5755679999999899
20
-98.4134509999999949
11
127.132396
21
-98.3070549999999912
0
LINE
8
User.Drawings
6
CONTINUOUS
10
127.132396
20
-98.3070549999999912
11
126.682241999999988
21
-98.2357579999999899
0
LINE
8
User.Drawings
6
CONTINUOUS
10
126.682241999999988
20
-98.2357579999999899
11
126.2278819999999939
21
-98.1999989999999912
0
LINE
8
User.Drawings
6
CONTINUOUS
10
126.2278819999999939
20
-98.1999989999999912
11
125.9999989999999883
21
-98.1999989999999912
0
LINE
8
User.Drawings
6
CONTINUOUS
10
125.9999989999999883
20
-98.1999989999999912
11
125.980678999999995
21
-98.196156000000002
0
LINE
8
User.Drawings
6
CONTINUOUS
10
125.980678999999995
20
-98.196156000000002
11
125.9609809999999896
21
-98.196156000000002
0
LINE
8
User.Drawings
6
CONTINUOUS
10
125.9609809999999896
20
-98.196156000000002
11
125.942781999999994
21
-98.1886179999999911
0
LINE
8
User.Drawings
6
CONTINUOUS
10
125.942781999999994
20
-98.1886179999999911
11
125.9234620000000007
21
-98.1847750000000019
0
LINE
8
User.Drawings
6
CONTINUOUS
10
125.9234620000000007
20
-98.1847750000000019
11
125.9070830000000001
21
-98.1738309999999927
0
LINE
8
User.Drawings
6
CONTINUOUS
10
125.9070830000000001
20
-98.1738309999999927
11
125.8888849999999877
21
-98.166292999999996
0
LINE
8
User.Drawings
6
CONTINUOUS
10
125.8888849999999877
20
-98.166292999999996
11
125.8749539999999882
21
-98.1523619999999966
0
LINE
8
User.Drawings
6
CONTINUOUS
10
125.8749539999999882
20
-98.1523619999999966
11
125.8585779999999943
21
-98.1414199999999965
0
LINE
8
User.Drawings
6
CONTINUOUS
10
125.8585779999999943
20
-98.1414199999999965
11
125.8476349999999968
21
-98.1250429999999909
0
LINE
8
User.Drawings
6
CONTINUOUS
10
125.8476349999999968
20
-98.1250429999999909
11
125.8337049999999948
21
-98.1111129999999889
0
LINE
8
User.Drawings
6
CONTINUOUS
10
125.8337049999999948
20
-98.1111129999999889
11
125.8261660000000006
21
-98.0929139999999933
0
LINE
8
User.Drawings
6
CONTINUOUS
10
125.8261660000000006
20
-98.0929139999999933
11
125.8152229999999889
21
-98.0765359999999902
0
LINE
8
User.Drawings
6
CONTINUOUS
10
125.8152229999999889
20
-98.0765359999999902
11
125.8113789999999881
21
-98.0572149999999993
0
LINE
8
User.Drawings
6
CONTINUOUS
10
125.8113789999999881
20
-98.0572149999999993
11
125.8038419999999888
21
-98.0390170000000012
0
LINE
8
User.Drawings
6
CONTINUOUS
10
125.8038419999999888
20
-98.0390170000000012
11
125.7999989999999997
21
-97.9999990000000025
0
LINE
8
User.Drawings
6
CONTINUOUS
10
125.7999989999999997
20
-97.9999990000000025
11
125.7999989999999997
21
-68.9999990000000025
0
LINE
8
User.Drawings
6
CONTINUOUS
10
125.7999989999999997
20
-68.9999990000000025
11
125.8175289999999933
21
-68.6655080000000027
0
LINE
8
User.Drawings
6
CONTINUOUS
10
125.8175289999999933
20
-68.6655080000000027
11
125.8699269999999899
21
-68.3346820000000008
0
LINE
8
User.Drawings
6
CONTINUOUS
10
125.8699269999999899
20
-68.3346820000000008
11
125.9566179999999918
21
-68.0111449999999991
0
LINE
8
User.Drawings
6
CONTINUOUS
10
125.9566179999999918
20
-68.0111449999999991
11
126.0766539999999907
21
-67.698442
0
LINE
8
User.Drawings
6
CONTINUOUS
10
126.0766539999999907
20
-67.698442
11
126.2287180000000006
21
-67.399998999999994
0
LINE
8
User.Drawings
6
CONTINUOUS
10
126.2287180000000006
20
-67.399998999999994
11
126.4111449999999905
21
-67.1190859999999958
0
LINE
8
User.Drawings
6
CONTINUOUS
10
126.4111449999999905
20
-67.1190859999999958
11
126.6219359999999909
21
-66.8587809999999934
0
LINE
8
User.Drawings
6
CONTINUOUS
10
126.6219359999999909
20
-66.8587809999999934
11
126.8587809999999934
21
-66.6219359999999909
0
LINE
8
User.Drawings
6
CONTINUOUS
10
126.8587809999999934
20
-66.6219359999999909
11
127.1190859999999958
21
-66.4111449999999905
0
LINE
8
User.Drawings
6
CONTINUOUS
10
127.1190859999999958
20
-66.4111449999999905
11
127.399998999999994
21
-66.2287180000000006
0
LINE
8
User.Drawings
6
CONTINUOUS
10
127.399998999999994
20
-66.2287180000000006
11
127.698442
21
-66.0766539999999907
0
LINE
8
User.Drawings
6
CONTINUOUS
10
127.698442
20
-66.0766539999999907
11
128.0111449999999991
21
-65.9566179999999918
0
LINE
8
User.Drawings
6
CONTINUOUS
10
128.0111449999999991
20
-65.9566179999999918
11
128.3346819999999866
21
-65.8699270000000041
0
LINE
8
User.Drawings
6
CONTINUOUS
10
128.3346819999999866
20
-65.8699270000000041
11
128.6655079999999884
21
-65.8175289999999933
0
LINE
8
User.Drawings
6
CONTINUOUS
10
128.6655079999999884
20
-65.8175289999999933
11
128.9999990000000025
21
-65.7999989999999997
0
LINE
8
User.Drawings
6
CONTINUOUS
10
128.9999990000000025
20
-65.7999989999999997
11
129.2337310000000059
21
-65.7999989999999997
0
LINE
8
User.Drawings
6
CONTINUOUS
10
129.2337310000000059
20
-65.7999989999999997
11
129.6996790000000033
21
-65.7623839999999973
0
LINE
8
User.Drawings
6
CONTINUOUS
10
129.6996790000000033
20
-65.7623839999999973
11
130.1610900000000015
21
-65.6873980000000017
0
LINE
8
User.Drawings
6
CONTINUOUS
10
130.1610900000000015
20
-65.6873980000000017
11
130.6149699999999996
21
-65.5755259999999964
0
LINE
8
User.Drawings
6
CONTINUOUS
10
130.6149699999999996
20
-65.5755259999999964
11
131.0583770000000072
21
-65.4274949999999933
0
LINE
8
User.Drawings
6
CONTINUOUS
10
131.0583770000000072
20
-65.4274949999999933
11
131.4884339999999838
21
-65.2442649999999986
0
LINE
8
User.Drawings
6
CONTINUOUS
10
131.4884339999999838
20
-65.2442649999999986
11
131.9023530000000051
21
-65.0270239999999973
0
LINE
8
User.Drawings
6
CONTINUOUS
10
131.9023530000000051
20
-65.0270239999999973
11
132.2974490000000003
21
-64.7771800000000013
0
LINE
8
User.Drawings
6
CONTINUOUS
10
132.2974490000000003
20
-64.7771800000000013
11
132.6711599999999862
21
-64.4963549999999941
0
LINE
8
User.Drawings
6
CONTINUOUS
10
132.6711599999999862
20
-64.4963549999999941
11
133.0210620000000006
21
-64.1863689999999991
0
LINE
8
User.Drawings
6
CONTINUOUS
10
133.0210620000000006
20
-64.1863689999999991
11
133.344885000000005
21
-63.8492320000000007
0
LINE
8
User.Drawings
6
CONTINUOUS
10
133.344885000000005
20
-63.8492320000000007
11
133.6405309999999815
21
-63.4871319999999955
0
LINE
8
User.Drawings
6
CONTINUOUS
10
133.6405309999999815
20
-63.4871319999999955
11
133.9060810000000004
21
-63.1024169999999955
0
LINE
8
User.Drawings
6
CONTINUOUS
10
133.9060810000000004
20
-63.1024169999999955
11
134.1398130000000037
21
-62.6975809999999996
0
LINE
8
User.Drawings
6
CONTINUOUS
10
134.1398130000000037
20
-62.6975809999999996
11
134.3402109999999823
21
-62.2752509999999972
0
LINE
8
User.Drawings
6
CONTINUOUS
10
134.3402109999999823
20
-62.2752509999999972
11
134.505976000000004
21
-61.838163999999999
0
LINE
8
User.Drawings
6
CONTINUOUS
10
134.505976000000004
20
-61.838163999999999
11
134.6360329999999976
21
-61.3891569999999973
0
LINE
8
User.Drawings
6
CONTINUOUS
10
134.6360329999999976
20
-61.3891569999999973
11
134.7295379999999909
21
-60.9311399999999992
0
LINE
8
User.Drawings
6
CONTINUOUS
10
134.7295379999999909
20
-60.9311399999999992
11
134.7858839999999816
21
-60.4670839999999998
0
LINE
8
User.Drawings
6
CONTINUOUS
10
134.7858839999999816
20
-60.4670839999999998
11
134.8047070000000076
21
-59.9999989999999954
0
LINE
8
User.Drawings
6
CONTINUOUS
10
134.8047070000000076
20
-59.9999989999999954
11
134.7858839999999816
21
-59.5329139999999981
0
LINE
8
User.Drawings
6
CONTINUOUS
10
134.7858839999999816
20
-59.5329139999999981
11
134.7295379999999909
21
-59.0688579999999988
0
LINE
8
User.Drawings
6
CONTINUOUS
10
134.7295379999999909
20
-59.0688579999999988
11
134.6360329999999976
21
-58.6108410000000006
0
LINE
8
User.Drawings
6
CONTINUOUS
10
134.6360329999999976
20
-58.6108410000000006
11
134.505976000000004
21
-58.1618339999999989
0
LINE
8
User.Drawings
6
CONTINUOUS
10
134.505976000000004
20
-58.1618339999999989
11
134.3402109999999823
21
-57.7247470000000007
0
LINE
8
User.Drawings
6
CONTINUOUS
10
134.3402109999999823
20
-57.7247470000000007
11
134.1398130000000037
21
-57.3024169999999984
0
LINE
8
User.Drawings
6
CONTINUOUS
10
134.1398130000000037
20
-57.3024169999999984
11
133.9060810000000004
21
-56.8975809999999953
0
LINE
8
User.Drawings
6
CONTINUOUS
10
133.9060810000000004
20
-56.8975809999999953
11
133.6405309999999815
21
-56.5128659999999954
0
LINE
8
User.Drawings
6
CONTINUOUS
10
133.6405309999999815
20
-56.5128659999999954
11
133.344885000000005
21
-56.1507659999999973
0
LINE
8
User.Drawings
6
CONTINUOUS
10
133.344885000000005
20
-56.1507659999999973
11
133.0210620000000006
21
-55.8136289999999988
0
LINE
8
User.Drawings
6
CONTINUOUS
10
133.0210620000000006
20
-55.8136289999999988
11
132.6711599999999862
21
-55.5036429999999967
0
LINE
8
User.Drawings
6
CONTINUOUS
10
132.6711599999999862
20
-55.5036429999999967
11
132.2974490000000003
21
-55.2228179999999966
0
LINE
8
User.Drawings
6
CONTINUOUS
10
132.2974490000000003
20
-55.2228179999999966
11
131.9023530000000051
21
-54.9729740000000007
0
LINE
8
User.Drawings
6
CONTINUOUS
10
131.9023530000000051
20
-54.9729740000000007
11
131.4884339999999838
21
-54.7557329999999993
0
LINE
8
User.Drawings
6
CONTINUOUS
10
131.4884339999999838
20
-54.7557329999999993
11
131.0583770000000072
21
-54.5725029999999975
0
LINE
8
User.Drawings
6
CONTINUOUS
10
131.0583770000000072
20
-54.5725029999999975
11
130.6149699999999996
21
-54.4244719999999944
0
LINE
8
User.Drawings
6
CONTINUOUS
10
130.6149699999999996
20
-54.4244719999999944
11
130.1610900000000015
21
-54.3125999999999962
0
LINE
8
User.Drawings
6
CONTINUOUS
10
130.1610900000000015
20
-54.3125999999999962
11
129.6996790000000033
21
-54.2376140000000007
0
LINE
8
User.Drawings
6
CONTINUOUS
10
129.6996790000000033
20
-54.2376140000000007
11
129.2337310000000059
21
-54.1999989999999983
0
LINE
8
User.Drawings
6
CONTINUOUS
10
129.2337310000000059
20
-54.1999989999999983
11
128.9999990000000025
21
-54.1999989999999983
0
LINE
8
User.Drawings
6
CONTINUOUS
10
128.9999990000000025
20
-54.1999989999999983
11
128.6655079999999884
21
-54.1824689999999975
0
LINE
8
User.Drawings
6
CONTINUOUS
10
128.6655079999999884
20
-54.1824689999999975
11
128.3346819999999866
21
-54.1300710000000009
0
LINE
8
User.Drawings
6
CONTINUOUS
10
128.3346819999999866
20
-54.1300710000000009
11
128.0111449999999991
21
-54.0433799999999991
0
LINE
8
User.Drawings
6
CONTINUOUS
10
128.0111449999999991
20
-54.0433799999999991
11
127.698442
21
-53.9233440000000002
0
LINE
8
User.Drawings
6
CONTINUOUS
10
127.698442
20
-53.9233440000000002
11
127.399998999999994
21
-53.7712799999999973
0
LINE
8
User.Drawings
6
CONTINUOUS
10
127.399998999999994
20
-53.7712799999999973
11
127.1190859999999958
21
-53.5888530000000003
0
LINE
8
User.Drawings
6
CONTINUOUS
10
127.1190859999999958
20
-53.5888530000000003
11
126.8587809999999934
21
-53.3780619999999999
0
LINE
8
User.Drawings
6
CONTINUOUS
10
126.8587809999999934
20
-53.3780619999999999
11
126.6219359999999909
21
-53.1412169999999975
0
LINE
8
User.Drawings
6
CONTINUOUS
10
126.6219359999999909
20
-53.1412169999999975
11
126.4111449999999905
21
-52.880911999999995
0
LINE
8
User.Drawings
6
CONTINUOUS
10
126.4111449999999905
20
-52.880911999999995
11
126.2287180000000006
21
-52.5999989999999968
0
LINE
8
User.Drawings
6
CONTINUOUS
10
126.2287180000000006
20
-52.5999989999999968
11
126.0766539999999907
21
-52.3015559999999979
0
LINE
8
User.Drawings
6
CONTINUOUS
10
126.0766539999999907
20
-52.3015559999999979
11
125.9566179999999918
21
-51.9888529999999989
0
LINE
8
User.Drawings
6
CONTINUOUS
10
125.9566179999999918
20
-51.9888529999999989
11
125.8699269999999899
21
-51.6653159999999971
0
LINE
8
User.Drawings
6
CONTINUOUS
10
125.8699269999999899
20
-51.6653159999999971
11
125.8175289999999933
21
-51.3344899999999953
0
LINE
8
User.Drawings
6
CONTINUOUS
10
125.8175289999999933
20
-51.3344899999999953
11
125.7999989999999997
21
-50.9999989999999954
0
LINE
8
User.Drawings
6
CONTINUOUS
10
125.7999989999999997
20
-50.9999989999999954
11
125.7999989999999997
21
-44.9999989999999954
0
LINE
8
User.Drawings
6
CONTINUOUS
10
125.7999989999999997
20
-44.9999989999999954
11
125.8175289999999933
21
-44.6655079999999955
0
LINE
8
User.Drawings
6
CONTINUOUS
10
125.8175289999999933
20
-44.6655079999999955
11
125.8699269999999899
21
-44.3346820000000008
0
LINE
8
User.Drawings
6
CONTINUOUS
10
125.8699269999999899
20
-44.3346820000000008
11
125.9566179999999918
21
-44.0111449999999991
0
LINE
8
User.Drawings
6
CONTINUOUS
10
125.9566179999999918
20
-44.0111449999999991
11
126.0766539999999907
21
-43.698442
0
LINE
8
User.Drawings
6
CONTINUOUS
10
126.0766539999999907
20
-43.698442
11
126.2287180000000006
21
-43.3999990000000011
0
LINE
8
User.Drawings
6
CONTINUOUS
10
126.2287180000000006
20
-43.3999990000000011
11
126.4111449999999905
21
-43.1190859999999958
0
LINE
8
User.Drawings
6
CONTINUOUS
10
126.4111449999999905
20
-43.1190859999999958
11
126.6219359999999909
21
-42.8587810000000005
0
LINE
8
User.Drawings
6
CONTINUOUS
10
126.6219359999999909
20
-42.8587810000000005
11
126.8587809999999934
21
-42.621935999999998
0
LINE
8
User.Drawings
6
CONTINUOUS
10
126.8587809999999934
20
-42.621935999999998
11
127.1190859999999958
21
-42.4111449999999977
0
LINE
8
User.Drawings
6
CONTINUOUS
10
127.1190859999999958
20
-42.4111449999999977
11
127.399998999999994
21
-42.2287180000000006
0
LINE
8
User.Drawings
6
CONTINUOUS
10
127.399998999999994
20
-42.2287180000000006
11
127.698442
21
-42.0766539999999978
0
LINE
8
User.Drawings
6
CONTINUOUS
10
127.698442
20
-42.0766539999999978
11
128.0111449999999991
21
-41.9566179999999989
0
LINE
8
User.Drawings
6
CONTINUOUS
10
128.0111449999999991
20
-41.9566179999999989
11
128.3346819999999866
21
-41.869926999999997
0
LINE
8
User.Drawings
6
CONTINUOUS
10
128.3346819999999866
20
-41.869926999999997
11
128.6655079999999884
21
-41.8175290000000004
0
LINE
8
User.Drawings
6
CONTINUOUS
10
128.6655079999999884
20
-41.8175290000000004
11
128.9999990000000025
21
-41.7999989999999997
0
LINE
8
User.Drawings
6
CONTINUOUS
10
128.9999990000000025
20
-41.7999989999999997
11
129.2278819999999939
21
-41.7999989999999997
0
LINE
8
User.Drawings
6
CONTINUOUS
10
129.2278819999999939
20
-41.7999989999999997
11
129.6822420000000022
21
-41.7642400000000009
0
LINE
8
User.Drawings
6
CONTINUOUS
10
129.6822420000000022
20
-41.7642400000000009
11
130.132396
21
-41.6929429999999996
0
LINE
8
User.Drawings
6
CONTINUOUS
10
130.132396
20
-41.6929429999999996
11
130.5755680000000041
21
-41.5865469999999959
0
LINE
8
User.Drawings
6
CONTINUOUS
10
130.5755680000000041
20
-41.5865469999999959
11
131.0090270000000032
21
-41.4457069999999987
0
LINE
8
User.Drawings
6
CONTINUOUS
10
131.0090270000000032
20
-41.4457069999999987
11
131.4300989999999842
21
-41.2712939999999975
0
LINE
8
User.Drawings
6
CONTINUOUS
10
131.4300989999999842
20
-41.2712939999999975
11
131.8361889999999903
21
-41.0643809999999974
0
LINE
8
User.Drawings
6
CONTINUOUS
10
131.8361889999999903
20
-41.0643809999999974
11
132.2247930000000053
21
-40.8262439999999955
0
LINE
8
User.Drawings
6
CONTINUOUS
10
132.2247930000000053
20
-40.8262439999999955
11
132.5935149999999965
21
-40.5583519999999993
0
LINE
8
User.Drawings
6
CONTINUOUS
10
132.5935149999999965
20
-40.5583519999999993
11
132.9400809999999922
21
-40.2623559999999969
0
LINE
8
User.Drawings
6
CONTINUOUS
10
132.9400809999999922
20
-40.2623559999999969
11
133.2623559999999827
21
-39.9400809999999993
0
LINE
8
User.Drawings
6
CONTINUOUS
10
133.2623559999999827
20
-39.9400809999999993
11
133.5583519999999851
21
-39.5935149999999965
0
LINE
8
User.Drawings
6
CONTINUOUS
10
133.5583519999999851
20
-39.5935149999999965
11
133.8262440000000026
21
-39.2247929999999982
0
LINE
8
User.Drawings
6
CONTINUOUS
10
133.8262440000000026
20
-39.2247929999999982
11
134.0643809999999974
21
-38.8361889999999974
0
LINE
8
User.Drawings
6
CONTINUOUS
10
134.0643809999999974
20
-38.8361889999999974
11
134.2712939999999833
21
-38.4300989999999985
0
LINE
8
User.Drawings
6
CONTINUOUS
10
134.2712939999999833
20
-38.4300989999999985
11
134.4457069999999987
21
-38.0090269999999961
0
LINE
8
User.Drawings
6
CONTINUOUS
10
134.4457069999999987
20
-38.0090269999999961
11
134.5865469999999959
21
-37.575567999999997
0
LINE
8
User.Drawings
6
CONTINUOUS
10
134.5865469999999959
20
-37.575567999999997
11
134.6929429999999854
21
-37.132396
0
LINE
8
User.Drawings
6
CONTINUOUS
10
134.6929429999999854
20
-37.132396
11
134.7642400000000009
21
-36.6822419999999951
0
LINE
8
User.Drawings
6
CONTINUOUS
10
134.7642400000000009
20
-36.6822419999999951
11
134.7999989999999855
21
-36.227882000000001
0
LINE
8
User.Drawings
6
CONTINUOUS
10
134.7999989999999855
20
-36.227882000000001
11
134.7999989999999855
21
-35.9999989999999954
0
LINE
8
User.Drawings
6
CONTINUOUS
10
134.7999989999999855
20
-35.9999989999999954
11
134.8038430000000005
21
-35.9806729999999959
0
LINE
8
User.Drawings
6
CONTINUOUS
10
134.8038430000000005
20
-35.9806729999999959
11
134.8038430000000005
21
-35.9609820000000013
0
LINE
8
User.Drawings
6
CONTINUOUS
10
134.8038430000000005
20
-35.9609820000000013
11
134.8113779999999906
21
-35.9427889999999977
0
LINE
8
User.Drawings
6
CONTINUOUS
10
134.8113779999999906
20
-35.9427889999999977
11
134.8152230000000031
21
-35.9234620000000007
0
LINE
8
User.Drawings
6
CONTINUOUS
10
134.8152230000000031
20
-35.9234620000000007
11
134.8261699999999905
21
-35.9070779999999985
0
LINE
8
User.Drawings
6
CONTINUOUS
10
134.8261699999999905
20
-35.9070779999999985
11
134.8337060000000065
21
-35.8888859999999994
0
LINE
8
User.Drawings
6
CONTINUOUS
10
134.8337060000000065
20
-35.8888859999999994
11
134.8476310000000069
21
-35.8749600000000015
0
LINE
8
User.Drawings
6
CONTINUOUS
10
134.8476310000000069
20
-35.8749600000000015
11
134.8585779999999943
21
-35.8585780000000014
0
LINE
8
User.Drawings
6
CONTINUOUS
10
134.8585779999999943
20
-35.8585780000000014
11
134.8749599999999873
21
-35.8476309999999998
0
LINE
8
User.Drawings
6
CONTINUOUS
10
134.8749599999999873
20
-35.8476309999999998
11
134.8888859999999852
21
-35.8337059999999994
0
LINE
8
User.Drawings
6
CONTINUOUS
10
134.8888859999999852
20
-35.8337059999999994
11
134.9070779999999843
21
-35.8261699999999976
0
LINE
8
User.Drawings
6
CONTINUOUS
10
134.9070779999999843
20
-35.8261699999999976
11
134.9234620000000007
21
-35.815222999999996
0
LINE
8
User.Drawings
6
CONTINUOUS
10
134.9234620000000007
20
-35.815222999999996
11
134.9427890000000048
21
-35.8113779999999977
0
LINE
8
User.Drawings
6
CONTINUOUS
10
134.9427890000000048
20
-35.8113779999999977
11
134.9609820000000013
21
-35.8038430000000005
0
LINE
8
User.Drawings
6
CONTINUOUS
10
134.9609820000000013
20
-35.8038430000000005
11
134.9999880000000019
21
-35.8000010000000017
0
LINE
8
User.Drawings
6
CONTINUOUS
10
134.9999880000000019
20
-35.8000010000000017
11
134.9999990000000025
21
-35.7999989999999997
0
LINE
8
User.Drawings
6
CONTINUOUS
10
134.9999990000000025
20
-35.7999989999999997
11
135.0000039999999899
21
-35.7999989999999997
0
LINE
8
User.Drawings
6
CONTINUOUS
10
135.0000039999999899
20
-35.7999989999999997
11
140.7999999999999829
21
-35.7999989999999997
0
LINE
8
User.Drawings
6
CONTINUOUS
10
140.7999999999999829
20
-35.7999989999999997
11
140.7999999999999829
21
-30.0499989999999997
0
LINE
8
User.Drawings
6
CONTINUOUS
10
140.7999999999999829
20
-30.0499989999999997
11
126.0000059999999991
21
-30.0499979999999987
0
LINE
8
User.Drawings
6
CONTINUOUS
10
126.0000059999999991
20
-30.0499979999999987
11
126.
21
-30.0499999999999972
0
LINE
8
User.Drawings
6
CONTINUOUS
10
164.3034769999999867
20
-102.7359170000000006
11
164.4974859999999808
21
-102.7989549999999923
0
LINE
8
User.Drawings
6
CONTINUOUS
10
164.4974859999999808
20
-102.7989549999999923
11
164.6792460000000062
21
-102.8915659999999974
0
LINE
8
User.Drawings
6
CONTINUOUS
10
164.6792460000000062
20
-102.8915659999999974
11
164.8442799999999977
21
-103.0114699999999885
0
LINE
8
User.Drawings
6
CONTINUOUS
10
164.8442799999999977
20
-103.0114699999999885
11
164.9885259999999789
21
-103.1557159999999982
0
LINE
8
User.Drawings
6
CONTINUOUS
10
164.9885259999999789
20
-103.1557159999999982
11
165.1084299999999985
21
-103.3207499999999897
0
LINE
8
User.Drawings
6
CONTINUOUS
10
165.1084299999999985
20
-103.3207499999999897
11
165.2010410000000036
21
-103.5025100000000009
0
LINE
8
User.Drawings
6
CONTINUOUS
10
165.2010410000000036
20
-103.5025100000000009
11
165.2640789999999811
21
-103.696518999999995
0
LINE
8
User.Drawings
6
CONTINUOUS
10
165.2640789999999811
20
-103.696518999999995
11
165.2959909999999866
21
-103.8980009999999936
0
LINE
8
User.Drawings
6
CONTINUOUS
10
165.2959909999999866
20
-103.8980009999999936
11
165.2959909999999866
21
-104.1019950000000023
0
LINE
8
User.Drawings
6
CONTINUOUS
10
165.2959909999999866
20
-104.1019950000000023
11
165.2640789999999811
21
-104.3034770000000009
0
LINE
8
User.Drawings
6
CONTINUOUS
10
165.2640789999999811
20
-104.3034770000000009
11
165.2010410000000036
21
-104.497485999999995
0
LINE
8
User.Drawings
6
CONTINUOUS
10
165.2010410000000036
20
-104.497485999999995
11
165.1084299999999985
21
-104.679245999999992
0
LINE
8
User.Drawings
6
CONTINUOUS
10
165.1084299999999985
20
-104.679245999999992
11
164.9885259999999789
21
-104.8442799999999977
0
LINE
8
User.Drawings
6
CONTINUOUS
10
164.9885259999999789
20
-104.8442799999999977
11
164.8442799999999977
21
-104.9885259999999931
0
LINE
8
User.Drawings
6
CONTINUOUS
10
164.8442799999999977
20
-104.9885259999999931
11
164.6792460000000062
21
-105.1084299999999985
0
LINE
8
User.Drawings
6
CONTINUOUS
10
164.6792460000000062
20
-105.1084299999999985
11
164.4974859999999808
21
-105.2010409999999894
0
LINE
8
User.Drawings
6
CONTINUOUS
10
164.4974859999999808
20
-105.2010409999999894
11
164.3034769999999867
21
-105.2640789999999953
0
LINE
8
User.Drawings
6
CONTINUOUS
10
164.3034769999999867
20
-105.2640789999999953
11
164.1019949999999881
21
-105.2959910000000008
0
LINE
8
User.Drawings
6
CONTINUOUS
10
164.1019949999999881
20
-105.2959910000000008
11
163.8980009999999936
21
-105.2959910000000008
0
LINE
8
User.Drawings
6
CONTINUOUS
10
163.8980009999999936
20
-105.2959910000000008
11
163.696518999999995
21
-105.2640789999999953
0
LINE
8
User.Drawings
6
CONTINUOUS
10
163.696518999999995
20
-105.2640789999999953
11
163.5025100000000009
21
-105.2010409999999894
0
LINE
8
User.Drawings
6
CONTINUOUS
10
163.5025100000000009
20
-105.2010409999999894
11
163.3207500000000039
21
-105.1084299999999985
0
LINE
8
User.Drawings
6
CONTINUOUS
10
163.3207500000000039
20
-105.1084299999999985
11
163.155715999999984
21
-104.9885259999999931
0
LINE
8
User.Drawings
6
CONTINUOUS
10
163.155715999999984
20
-104.9885259999999931
11
163.0114700000000028
21
-104.8442799999999977
0
LINE
8
User.Drawings
6
CONTINUOUS
10
163.0114700000000028
20
-104.8442799999999977
11
162.8915659999999832
21
-104.679245999999992
0
LINE
8
User.Drawings
6
CONTINUOUS
10
162.8915659999999832
20
-104.679245999999992
11
162.7989550000000065
21
-104.497485999999995
0
LINE
8
User.Drawings
6
CONTINUOUS
10
162.7989550000000065
20
-104.497485999999995
11
162.7359170000000006
21
-104.3034770000000009
0
LINE
8
User.Drawings
6
CONTINUOUS
10
162.7359170000000006
20
-104.3034770000000009
11
162.7040049999999951
21
-104.1019950000000023
0
LINE
8
User.Drawings
6
CONTINUOUS
10
162.7040049999999951
20
-104.1019950000000023
11
162.7040049999999951
21
-103.90555599999999
0
LINE
8
User.Drawings
6
CONTINUOUS
10
162.7040049999999951
20
-103.90555599999999
11
162.7040049999999951
21
-103.8980009999999936
0
LINE
8
User.Drawings
6
CONTINUOUS
10
162.7040049999999951
20
-103.8980009999999936
11
162.7359170000000006
21
-103.696518999999995
0
LINE
8
User.Drawings
6
CONTINUOUS
10
162.7359170000000006
20
-103.696518999999995
11
162.7989550000000065
21
-103.5025100000000009
0
LINE
8
User.Drawings
6
CONTINUOUS
10
162.7989550000000065
20
-103.5025100000000009
11
162.8915659999999832
21
-103.3207499999999897
0
LINE
8
User.Drawings
6
CONTINUOUS
10
162.8915659999999832
20
-103.3207499999999897
11
163.0114700000000028
21
-103.1557159999999982
0
LINE
8
User.Drawings
6
CONTINUOUS
10
163.0114700000000028
20
-103.1557159999999982
11
163.155715999999984
21
-103.0114699999999885
0
LINE
8
User.Drawings
6
CONTINUOUS
10
163.155715999999984
20
-103.0114699999999885
11
163.3207500000000039
21
-102.8915659999999974
0
LINE
8
User.Drawings
6
CONTINUOUS
10
163.3207500000000039
20
-102.8915659999999974
11
163.5025100000000009
21
-102.7989549999999923
0
LINE
8
User.Drawings
6
CONTINUOUS
10
163.5025100000000009
20
-102.7989549999999923
11
163.696518999999995
21
-102.7359170000000006
0
LINE
8
User.Drawings
6
CONTINUOUS
10
163.696518999999995
20
-102.7359170000000006
11
163.8980009999999936
21
-102.7040049999999951
0
LINE
8
User.Drawings
6
CONTINUOUS
10
163.8980009999999936
20
-102.7040049999999951
11
164.1019949999999881
21
-102.7040049999999951
0
LINE
8
User.Drawings
6
CONTINUOUS
10
164.1019949999999881
20
-102.7040049999999951
11
164.3034769999999867
21
-102.7359170000000006
0
LINE
8
User.Drawings
6
CONTINUOUS
10
162.799997999999988
20
-104.0944399999999916
11
162.8295459999999935
21
-104.2809989999999942
0
LINE
8
User.Drawings
6
CONTINUOUS
10
162.8295459999999935
20
-104.2809989999999942
11
162.887913999999995
21
-104.4606379999999888
0
LINE
8
User.Drawings
6
CONTINUOUS
10
162.887913999999995
20
-104.4606379999999888
11
162.9736659999999802
21
-104.6289349999999985
0
LINE
8
User.Drawings
6
CONTINUOUS
10
162.9736659999999802
20
-104.6289349999999985
11
163.0846889999999973
21
-104.7817459999999983
0
LINE
8
User.Drawings
6
CONTINUOUS
10
163.0846889999999973
20
-104.7817459999999983
11
163.2182499999999834
21
-104.9153069999999985
0
LINE
8
User.Drawings
6
CONTINUOUS
10
163.2182499999999834
20
-104.9153069999999985
11
163.3710609999999974
21
-105.0263300000000015
0
LINE
8
User.Drawings
6
CONTINUOUS
10
163.3710609999999974
20
-105.0263300000000015
11
163.5393579999999929
21
-105.1120820000000009
0
LINE
8
User.Drawings
6
CONTINUOUS
10
163.5393579999999929
20
-105.1120820000000009
11
163.7189970000000017
21
-105.1704499999999882
0
LINE
8
User.Drawings
6
CONTINUOUS
10
163.7189970000000017
20
-105.1704499999999882
11
163.90555599999999
21
-105.1999979999999937
0
LINE
8
User.Drawings
6
CONTINUOUS
10
163.90555599999999
20
-105.1999979999999937
11
164.0944399999999916
21
-105.1999979999999937
0
LINE
8
User.Drawings
6
CONTINUOUS
10
164.0944399999999916
20
-105.1999979999999937
11
164.28099899999998
21
-105.1704499999999882
0
LINE
8
User.Drawings
6
CONTINUOUS
10
164.28099899999998
20
-105.1704499999999882
11
164.4606379999999888
21
-105.1120820000000009
0
LINE
8
User.Drawings
6
CONTINUOUS
10
164.4606379999999888
20
-105.1120820000000009
11
164.6289349999999843
21
-105.0263300000000015
0
LINE
8
User.Drawings
6
CONTINUOUS
10
164.6289349999999843
20
-105.0263300000000015
11
164.7817459999999983
21
-104.9153069999999985
0
LINE
8
User.Drawings
6
CONTINUOUS
10
164.7817459999999983
20
-104.9153069999999985
11
164.9153069999999843
21
-104.7817459999999983
0
LINE
8
User.Drawings
6
CONTINUOUS
10
164.9153069999999843
20
-104.7817459999999983
11
165.0263300000000015
21
-104.6289349999999985
0
LINE
8
User.Drawings
6
CONTINUOUS
10
165.0263300000000015
20
-104.6289349999999985
11
165.1120819999999867
21
-104.4606379999999888
0
LINE
8
User.Drawings
6
CONTINUOUS
10
165.1120819999999867
20
-104.4606379999999888
11
165.1704499999999882
21
-104.2809989999999942
0
LINE
8
User.Drawings
6
CONTINUOUS
10
165.1704499999999882
20
-104.2809989999999942
11
165.1999979999999937
21
-104.0944399999999916
0
LINE
8
User.Drawings
6
CONTINUOUS
10
165.1999979999999937
20
-104.0944399999999916
11
165.1999979999999937
21
-103.90555599999999
0
LINE
8
User.Drawings
6
CONTINUOUS
10
165.1999979999999937
20
-103.90555599999999
11
165.1704499999999882
21
-103.7189970000000017
0
LINE
8
User.Drawings
6
CONTINUOUS
10
165.1704499999999882
20
-103.7189970000000017
11
165.1120819999999867
21
-103.5393579999999929
0
LINE
8
User.Drawings
6
CONTINUOUS
10
165.1120819999999867
20
-103.5393579999999929
11
165.0263300000000015
21
-103.3710609999999974
0
LINE
8
User.Drawings
6
CONTINUOUS
10
165.0263300000000015
20
-103.3710609999999974
11
164.9153069999999843
21
-103.2182499999999976
0
LINE
8
User.Drawings
6
CONTINUOUS
10
164.9153069999999843
20
-103.2182499999999976
11
164.7817459999999983
21
-103.0846889999999973
0
LINE
8
User.Drawings
6
CONTINUOUS
10
164.7817459999999983
20
-103.0846889999999973
11
164.6289349999999843
21
-102.9736659999999944
0
LINE
8
User.Drawings
6
CONTINUOUS
10
164.6289349999999843
20
-102.9736659999999944
11
164.4606379999999888
21
-102.887913999999995
0
LINE
8
User.Drawings
6
CONTINUOUS
10
164.4606379999999888
20
-102.887913999999995
11
164.28099899999998
21
-102.8295459999999935
0
LINE
8
User.Drawings
6
CONTINUOUS
10
164.28099899999998
20
-102.8295459999999935
11
164.0944399999999916
21
-102.7999980000000022
0
LINE
8
User.Drawings
6
CONTINUOUS
10
164.0944399999999916
20
-102.7999980000000022
11
163.90555599999999
21
-102.7999980000000022
0
LINE
8
User.Drawings
6
CONTINUOUS
10
163.90555599999999
20
-102.7999980000000022
11
163.7189970000000017
21
-102.8295459999999935
0
LINE
8
User.Drawings
6
CONTINUOUS
10
163.7189970000000017
20
-102.8295459999999935
11
163.5393579999999929
21
-102.887913999999995
0
LINE
8
User.Drawings
6
CONTINUOUS
10
163.5393579999999929
20
-102.887913999999995
11
163.3710609999999974
21
-102.9736659999999944
0
LINE
8
User.Drawings
6
CONTINUOUS
10
163.3710609999999974
20
-102.9736659999999944
11
163.2182499999999834
21
-103.0846889999999973
0
LINE
8
User.Drawings
6
CONTINUOUS
10
163.2182499999999834
20
-103.0846889999999973
11
163.0846889999999973
21
-103.2182499999999976
0
LINE
8
User.Drawings
6
CONTINUOUS
10
163.0846889999999973
20
-103.2182499999999976
11
162.9736659999999802
21
-103.3710609999999974
0
LINE
8
User.Drawings
6
CONTINUOUS
10
162.9736659999999802
20
-103.3710609999999974
11
162.887913999999995
21
-103.5393579999999929
0
LINE
8
User.Drawings
6
CONTINUOUS
10
162.887913999999995
20
-103.5393579999999929
11
162.8295459999999935
21
-103.7189970000000017
0
LINE
8
User.Drawings
6
CONTINUOUS
10
162.8295459999999935
20
-103.7189970000000017
11
162.799997999999988
21
-103.90555599999999
0
LINE
8
User.Drawings
6
CONTINUOUS
10
162.799997999999988
20
-103.90555599999999
11
162.799997999999988
21
-104.0944399999999916
0
LINE
8
User.Drawings
6
CONTINUOUS
10
161.2034789999999873
20
-58.8859189999999941
11
161.3974879999999814
21
-58.9489570000000001
0
LINE
8
User.Drawings
6
CONTINUOUS
10
161.3974879999999814
20
-58.9489570000000001
11
161.5792480000000069
21
-59.0415679999999981
0
LINE
8
User.Drawings
6
CONTINUOUS
10
161.5792480000000069
20
-59.0415679999999981
11
161.7442819999999983
21
-59.1614719999999963
0
LINE
8
User.Drawings
6
CONTINUOUS
10
161.7442819999999983
20
-59.1614719999999963
11
161.8885279999999796
21
-59.3057179999999988
0
LINE
8
User.Drawings
6
CONTINUOUS
10
161.8885279999999796
20
-59.3057179999999988
11
162.0084319999999991
21
-59.4707519999999974
0
LINE
8
User.Drawings
6
CONTINUOUS
10
162.0084319999999991
20
-59.4707519999999974
11
162.1010430000000042
21
-59.6525119999999944
0
LINE
8
User.Drawings
6
CONTINUOUS
10
162.1010430000000042
20
-59.6525119999999944
11
162.1640809999999817
21
-59.8465209999999956
0
LINE
8
User.Drawings
6
CONTINUOUS
10
162.1640809999999817
20
-59.8465209999999956
11
162.1959929999999872
21
-60.0480029999999942
0
LINE
8
User.Drawings
6
CONTINUOUS
10
162.1959929999999872
20
-60.0480029999999942
11
162.1959929999999872
21
-60.2519969999999958
0
LINE
8
User.Drawings
6
CONTINUOUS
10
162.1959929999999872
20
-60.2519969999999958
11
162.1640809999999817
21
-60.4534789999999944
0
LINE
8
User.Drawings
6
CONTINUOUS
10
162.1640809999999817
20
-60.4534789999999944
11
162.1010430000000042
21
-60.6474879999999956
0
LINE
8
User.Drawings
6
CONTINUOUS
10
162.1010430000000042
20
-60.6474879999999956
11
162.0084319999999991
21
-60.8292479999999998
0
LINE
8
User.Drawings
6
CONTINUOUS
10
162.0084319999999991
20
-60.8292479999999998
11
161.8885279999999796
21
-60.9942819999999983
0
LINE
8
User.Drawings
6
CONTINUOUS
10
161.8885279999999796
20
-60.9942819999999983
11
161.7442819999999983
21
-61.1385279999999938
0
LINE
8
User.Drawings
6
CONTINUOUS
10
161.7442819999999983
20
-61.1385279999999938
11
161.5792480000000069
21
-61.2584319999999991
0
LINE
8
User.Drawings
6
CONTINUOUS
10
161.5792480000000069
20
-61.2584319999999991
11
161.3974879999999814
21
-61.3510429999999971
0
LINE
8
User.Drawings
6
CONTINUOUS
10
161.3974879999999814
20
-61.3510429999999971
11
161.2034789999999873
21
-61.4140809999999959
0
LINE
8
User.Drawings
6
CONTINUOUS
10
161.2034789999999873
20
-61.4140809999999959
11
161.0019969999999887
21
-61.4459929999999943
0
LINE
8
User.Drawings
6
CONTINUOUS
10
161.0019969999999887
20
-61.4459929999999943
11
160.7980029999999942
21
-61.4459929999999943
0
LINE
8
User.Drawings
6
CONTINUOUS
10
160.7980029999999942
20
-61.4459929999999943
11
160.5965209999999956
21
-61.4140809999999959
0
LINE
8
User.Drawings
6
CONTINUOUS
10
160.5965209999999956
20
-61.4140809999999959
11
160.4025120000000015
21
-61.3510429999999971
0
LINE
8
User.Drawings
6
CONTINUOUS
10
160.4025120000000015
20
-61.3510429999999971
11
160.2207520000000045
21
-61.2584319999999991
0
LINE
8
User.Drawings
6
CONTINUOUS
10
160.2207520000000045
20
-61.2584319999999991
11
160.0557179999999846
21
-61.1385279999999938
0
LINE
8
User.Drawings
6
CONTINUOUS
10
160.0557179999999846
20
-61.1385279999999938
11
159.9114720000000034
21
-60.9942819999999983
0
LINE
8
User.Drawings
6
CONTINUOUS
10
159.9114720000000034
20
-60.9942819999999983
11
159.7915679999999838
21
-60.8292479999999998
0
LINE
8
User.Drawings
6
CONTINUOUS
10
159.7915679999999838
20
-60.8292479999999998
11
159.6989569999999787
21
-60.6474879999999956
0
LINE
8
User.Drawings
6
CONTINUOUS
10
159.6989569999999787
20
-60.6474879999999956
11
159.6359190000000012
21
-60.4534789999999944
0
LINE
8
User.Drawings
6
CONTINUOUS
10
159.6359190000000012
20
-60.4534789999999944
11
159.6040069999999957
21
-60.2519969999999958
0
LINE
8
User.Drawings
6
CONTINUOUS
10
159.6040069999999957
20
-60.2519969999999958
11
159.6040069999999957
21
-60.0555579999999978
0
LINE
8
User.Drawings
6
CONTINUOUS
10
159.6040069999999957
20
-60.0555579999999978
11
159.6040069999999957
21
-60.0480029999999942
0
LINE
8
User.Drawings
6
CONTINUOUS
10
159.6040069999999957
20
-60.0480029999999942
11
159.6359190000000012
21
-59.8465209999999956
0
LINE
8
User.Drawings
6
CONTINUOUS
10
159.6359190000000012
20
-59.8465209999999956
11
159.6989569999999787
21
-59.6525119999999944
0
LINE
8
User.Drawings
6
CONTINUOUS
10
159.6989569999999787
20
-59.6525119999999944
11
159.7915679999999838
21
-59.4707519999999974
0
LINE
8
User.Drawings
6
CONTINUOUS
10
159.7915679999999838
20
-59.4707519999999974
11
159.9114720000000034
21
-59.3057179999999988
0
LINE
8
User.Drawings
6
CONTINUOUS
10
159.9114720000000034
20
-59.3057179999999988
11
160.0557179999999846
21
-59.1614719999999963
0
LINE
8
User.Drawings
6
CONTINUOUS
10
160.0557179999999846
20
-59.1614719999999963
11
160.2207520000000045
21
-59.0415679999999981
0
LINE
8
User.Drawings
6
CONTINUOUS
10
160.2207520000000045
20
-59.0415679999999981
11
160.4025120000000015
21
-58.9489570000000001
0
LINE
8
User.Drawings
6
CONTINUOUS
10
160.4025120000000015
20
-58.9489570000000001
11
160.5965209999999956
21
-58.8859189999999941
0
LINE
8
User.Drawings
6
CONTINUOUS
10
160.5965209999999956
20
-58.8859189999999941
11
160.7980029999999942
21
-58.8540069999999957
0
LINE
8
User.Drawings
6
CONTINUOUS
10
160.7980029999999942
20
-58.8540069999999957
11
161.0019969999999887
21
-58.8540069999999957
0
LINE
8
User.Drawings
6
CONTINUOUS
10
161.0019969999999887
20
-58.8540069999999957
11
161.2034789999999873
21
-58.8859189999999941
0
LINE
8
User.Drawings
6
CONTINUOUS
10
159.6999999999999886
20
-60.2444419999999994
11
159.7295479999999941
21
-60.4310009999999949
0
LINE
8
User.Drawings
6
CONTINUOUS
10
159.7295479999999941
20
-60.4310009999999949
11
159.7879159999999956
21
-60.6106399999999965
0
LINE
8
User.Drawings
6
CONTINUOUS
10
159.7879159999999956
20
-60.6106399999999965
11
159.8736679999999808
21
-60.7789369999999991
0
LINE
8
User.Drawings
6
CONTINUOUS
10
159.8736679999999808
20
-60.7789369999999991
11
159.984690999999998
21
-60.9317479999999989
0
LINE
8
User.Drawings
6
CONTINUOUS
10
159.984690999999998
20
-60.9317479999999989
11
160.118251999999984
21
-61.0653089999999992
0
LINE
8
User.Drawings
6
CONTINUOUS
10
160.118251999999984
20
-61.0653089999999992
11
160.2710629999999981
21
-61.176331999999995
0
LINE
8
User.Drawings
6
CONTINUOUS
10
160.2710629999999981
20
-61.176331999999995
11
160.4393599999999935
21
-61.2620839999999944
0
LINE
8
User.Drawings
6
CONTINUOUS
10
160.4393599999999935
20
-61.2620839999999944
11
160.6189990000000023
21
-61.320451999999996
0
LINE
8
User.Drawings
6
CONTINUOUS
10
160.6189990000000023
20
-61.320451999999996
11
160.8055579999999907
21
-61.3499999999999943
0
LINE
8
User.Drawings
6
CONTINUOUS
10
160.8055579999999907
20
-61.3499999999999943
11
160.9944419999999923
21
-61.3499999999999943
0
LINE
8
User.Drawings
6
CONTINUOUS
10
160.9944419999999923
20
-61.3499999999999943
11
161.1810009999999806
21
-61.320451999999996
0
LINE
8
User.Drawings
6
CONTINUOUS
10
161.1810009999999806
20
-61.320451999999996
11
161.3606399999999894
21
-61.2620839999999944
0
LINE
8
User.Drawings
6
CONTINUOUS
10
161.3606399999999894
20
-61.2620839999999944
11
161.5289369999999849
21
-61.176331999999995
0
LINE
8
User.Drawings
6
CONTINUOUS
10
161.5289369999999849
20
-61.176331999999995
11
161.6817479999999989
21
-61.0653089999999992
0
LINE
8
User.Drawings
6
CONTINUOUS
10
161.6817479999999989
20
-61.0653089999999992
11
161.815308999999985
21
-60.9317479999999989
0
LINE
8
User.Drawings
6
CONTINUOUS
10
161.815308999999985
20
-60.9317479999999989
11
161.9263320000000022
21
-60.7789369999999991
0
LINE
8
User.Drawings
6
CONTINUOUS
10
161.9263320000000022
20
-60.7789369999999991
11
162.0120839999999873
21
-60.6106399999999965
0
LINE
8
User.Drawings
6
CONTINUOUS
10
162.0120839999999873
20
-60.6106399999999965
11
162.0704519999999889
21
-60.4310009999999949
0
LINE
8
User.Drawings
6
CONTINUOUS
10
162.0704519999999889
20
-60.4310009999999949
11
162.0999999999999943
21
-60.2444419999999994
0
LINE
8
User.Drawings
6
CONTINUOUS
10
162.0999999999999943
20
-60.2444419999999994
11
162.0999999999999943
21
-60.0555579999999978
0
LINE
8
User.Drawings
6
CONTINUOUS
10
162.0999999999999943
20
-60.0555579999999978
11
162.0704519999999889
21
-59.8689989999999952
0
LINE
8
User.Drawings
6
CONTINUOUS
10
162.0704519999999889
20
-59.8689989999999952
11
162.0120839999999873
21
-59.6893600000000006
0
LINE
8
User.Drawings
6
CONTINUOUS
10
162.0120839999999873
20
-59.6893600000000006
11
161.9263320000000022
21
-59.5210629999999981
0
LINE
8
User.Drawings
6
CONTINUOUS
10
161.9263320000000022
20
-59.5210629999999981
11
161.815308999999985
21
-59.3682519999999982
0
LINE
8
User.Drawings
6
CONTINUOUS
10
161.815308999999985
20
-59.3682519999999982
11
161.6817479999999989
21
-59.234690999999998
0
LINE
8
User.Drawings
6
CONTINUOUS
10
161.6817479999999989
20
-59.234690999999998
11
161.5289369999999849
21
-59.123667999999995
0
LINE
8
User.Drawings
6
CONTINUOUS
10
161.5289369999999849
20
-59.123667999999995
11
161.3606399999999894
21
-59.0379159999999956
0
LINE
8
User.Drawings
6
CONTINUOUS
10
161.3606399999999894
20
-59.0379159999999956
11
161.1810009999999806
21
-58.9795479999999941
0
LINE
8
User.Drawings
6
CONTINUOUS
10
161.1810009999999806
20
-58.9795479999999941
11
160.9944419999999923
21
-58.9499999999999957
0
LINE
8
User.Drawings
6
CONTINUOUS
10
160.9944419999999923
20
-58.9499999999999957
11
160.8055579999999907
21
-58.9499999999999957
0
LINE
8
User.Drawings
6
CONTINUOUS
10
160.8055579999999907
20
-58.9499999999999957
11
160.6189990000000023
21
-58.9795479999999941
0
LINE
8
User.Drawings
6
CONTINUOUS
10
160.6189990000000023
20
-58.9795479999999941
11
160.4393599999999935
21
-59.0379159999999956
0
LINE
8
User.Drawings
6
CONTINUOUS
10
160.4393599999999935
20
-59.0379159999999956
11
160.2710629999999981
21
-59.123667999999995
0
LINE
8
User.Drawings
6
CONTINUOUS
10
160.2710629999999981
20
-59.123667999999995
11
160.118251999999984
21
-59.234690999999998
0
LINE
8
User.Drawings
6
CONTINUOUS
10
160.118251999999984
20
-59.234690999999998
11
159.984690999999998
21
-59.3682519999999982
0
LINE
8
User.Drawings
6
CONTINUOUS
10
159.984690999999998
20
-59.3682519999999982
11
159.8736679999999808
21
-59.5210629999999981
0
LINE
8
User.Drawings
6
CONTINUOUS
10
159.8736679999999808
20
-59.5210629999999981
11
159.7879159999999956
21
-59.6893600000000006
0
LINE
8
User.Drawings
6
CONTINUOUS
10
159.7879159999999956
20
-59.6893600000000006
11
159.7295479999999941
21
-59.8689989999999952
0
LINE
8
User.Drawings
6
CONTINUOUS
10
159.7295479999999941
20
-59.8689989999999952
11
159.6999999999999886
21
-60.0555579999999978
0
LINE
8
User.Drawings
6
CONTINUOUS
10
159.6999999999999886
20
-60.0555579999999978
11
159.6999999999999886
21
-60.2444419999999994
0
LINE
8
User.Drawings
6
CONTINUOUS
10
161.2034789999999873
20
-34.585918999999997
11
161.3974879999999814
21
-34.6489569999999958
0
LINE
8
User.Drawings
6
CONTINUOUS
10
161.3974879999999814
20
-34.6489569999999958
11
161.5792480000000069
21
-34.7415680000000009
0
LINE
8
User.Drawings
6
CONTINUOUS
10
161.5792480000000069
20
-34.7415680000000009
11
161.7442819999999983
21
-34.8614719999999991
0
LINE
8
User.Drawings
6
CONTINUOUS
10
161.7442819999999983
20
-34.8614719999999991
11
161.8885279999999796
21
-35.0057180000000017
0
LINE
8
User.Drawings
6
CONTINUOUS
10
161.8885279999999796
20
-35.0057180000000017
11
162.0084319999999991
21
-35.1707520000000002
0
LINE
8
User.Drawings
6
CONTINUOUS
10
162.0084319999999991
20
-35.1707520000000002
11
162.1010430000000042
21
-35.3525119999999973
0
LINE
8
User.Drawings
6
CONTINUOUS
10
162.1010430000000042
20
-35.3525119999999973
11
162.1640809999999817
21
-35.5465209999999985
0
LINE
8
User.Drawings
6
CONTINUOUS
10
162.1640809999999817
20
-35.5465209999999985
11
162.1959929999999872
21
-35.7480029999999971
0
LINE
8
User.Drawings
6
CONTINUOUS
10
162.1959929999999872
20
-35.7480029999999971
11
162.1959929999999872
21
-35.9519969999999986
0
LINE
8
User.Drawings
6
CONTINUOUS
10
162.1959929999999872
20
-35.9519969999999986
11
162.1640809999999817
21
-36.1534789999999973
0
LINE
8
User.Drawings
6
CONTINUOUS
10
162.1640809999999817
20
-36.1534789999999973
11
162.1010430000000042
21
-36.3474879999999985
0
LINE
8
User.Drawings
6
CONTINUOUS
10
162.1010430000000042
20
-36.3474879999999985
11
162.0084319999999991
21
-36.5292479999999955
0
LINE
8
User.Drawings
6
CONTINUOUS
10
162.0084319999999991
20
-36.5292479999999955
11
161.8885279999999796
21
-36.6942820000000012
0
LINE
8
User.Drawings
6
CONTINUOUS
10
161.8885279999999796
20
-36.6942820000000012
11
161.7442819999999983
21
-36.8385279999999966
0
LINE
8
User.Drawings
6
CONTINUOUS
10
161.7442819999999983
20
-36.8385279999999966
11
161.5792480000000069
21
-36.9584319999999948
0
LINE
8
User.Drawings
6
CONTINUOUS
10
161.5792480000000069
20
-36.9584319999999948
11
161.3974879999999814
21
-37.0510429999999999
0
LINE
8
User.Drawings
6
CONTINUOUS
10
161.3974879999999814
20
-37.0510429999999999
11
161.2034789999999873
21
-37.1140809999999988
0
LINE
8
User.Drawings
6
CONTINUOUS
10
161.2034789999999873
20
-37.1140809999999988
11
161.0019969999999887
21
-37.1459929999999972
0
LINE
8
User.Drawings
6
CONTINUOUS
10
161.0019969999999887
20
-37.1459929999999972
11
160.7980029999999942
21
-37.1459929999999972
0
LINE
8
User.Drawings
6
CONTINUOUS
10
160.7980029999999942
20
-37.1459929999999972
11
160.5965209999999956
21
-37.1140809999999988
0
LINE
8
User.Drawings
6
CONTINUOUS
10
160.5965209999999956
20
-37.1140809999999988
11
160.4025120000000015
21
-37.0510429999999999
0
LINE
8
User.Drawings
6
CONTINUOUS
10
160.4025120000000015
20
-37.0510429999999999
11
160.2207520000000045
21
-36.9584319999999948
0
LINE
8
User.Drawings
6
CONTINUOUS
10
160.2207520000000045
20
-36.9584319999999948
11
160.0557179999999846
21
-36.8385279999999966
0
LINE
8
User.Drawings
6
CONTINUOUS
10
160.0557179999999846
20
-36.8385279999999966
11
159.9114720000000034
21
-36.6942820000000012
0
LINE
8
User.Drawings
6
CONTINUOUS
10
159.9114720000000034
20
-36.6942820000000012
11
159.7915679999999838
21
-36.5292479999999955
0
LINE
8
User.Drawings
6
CONTINUOUS
10
159.7915679999999838
20
-36.5292479999999955
11
159.6989569999999787
21
-36.3474879999999985
0
LINE
8
User.Drawings
6
CONTINUOUS
10
159.6989569999999787
20
-36.3474879999999985
11
159.6359190000000012
21
-36.1534789999999973
0
LINE
8
User.Drawings
6
CONTINUOUS
10
159.6359190000000012
20
-36.1534789999999973
11
159.6040069999999957
21
-35.9519969999999986
0
LINE
8
User.Drawings
6
CONTINUOUS
10
159.6040069999999957
20
-35.9519969999999986
11
159.6040069999999957
21
-35.7555580000000006
0
LINE
8
User.Drawings
6
CONTINUOUS
10
159.6040069999999957
20
-35.7555580000000006
11
159.6040069999999957
21
-35.7480029999999971
0
LINE
8
User.Drawings
6
CONTINUOUS
10
159.6040069999999957
20
-35.7480029999999971
11
159.6359190000000012
21
-35.5465209999999985
0
LINE
8
User.Drawings
6
CONTINUOUS
10
159.6359190000000012
20
-35.5465209999999985
11
159.6989569999999787
21
-35.3525119999999973
0
LINE
8
User.Drawings
6
CONTINUOUS
10
159.6989569999999787
20
-35.3525119999999973
11
159.7915679999999838
21
-35.1707520000000002
0
LINE
8
User.Drawings
6
CONTINUOUS
10
159.7915679999999838
20
-35.1707520000000002
11
159.9114720000000034
21
-35.0057180000000017
0
LINE
8
User.Drawings
6
CONTINUOUS
10
159.9114720000000034
20
-35.0057180000000017
11
160.0557179999999846
21
-34.8614719999999991
0
LINE
8
User.Drawings
6
CONTINUOUS
10
160.0557179999999846
20
-34.8614719999999991
11
160.2207520000000045
21
-34.7415680000000009
0
LINE
8
User.Drawings
6
CONTINUOUS
10
160.2207520000000045
20
-34.7415680000000009
11
160.4025120000000015
21
-34.6489569999999958
0
LINE
8
User.Drawings
6
CONTINUOUS
10
160.4025120000000015
20
-34.6489569999999958
11
160.5965209999999956
21
-34.585918999999997
0
LINE
8
User.Drawings
6
CONTINUOUS
10
160.5965209999999956
20
-34.585918999999997
11
160.7980029999999942
21
-34.5540069999999986
0
LINE
8
User.Drawings
6
CONTINUOUS
10
160.7980029999999942
20
-34.5540069999999986
11
161.0019969999999887
21
-34.5540069999999986
0
LINE
8
User.Drawings
6
CONTINUOUS
10
161.0019969999999887
20
-34.5540069999999986
11
161.2034789999999873
21
-34.585918999999997
0
LINE
8
User.Drawings
6
CONTINUOUS
10
159.6999999999999886
20
-35.9444419999999951
11
159.7295479999999941
21
-36.1310009999999977
0
LINE
8
User.Drawings
6
CONTINUOUS
10
159.7295479999999941
20
-36.1310009999999977
11
159.7879159999999956
21
-36.3106399999999994
0
LINE
8
User.Drawings
6
CONTINUOUS
10
159.7879159999999956
20
-36.3106399999999994
11
159.8736679999999808
21
-36.4789369999999948
0
LINE
8
User.Drawings
6
CONTINUOUS
10
159.8736679999999808
20
-36.4789369999999948
11
159.984690999999998
21
-36.6317480000000018
0
LINE
8
User.Drawings
6
CONTINUOUS
10
159.984690999999998
20
-36.6317480000000018
11
160.118251999999984
21
-36.7653089999999949
0
LINE
8
User.Drawings
6
CONTINUOUS
10
160.118251999999984
20
-36.7653089999999949
11
160.2710629999999981
21
-36.8763319999999979
0
LINE
8
User.Drawings
6
CONTINUOUS
10
160.2710629999999981
20
-36.8763319999999979
11
160.4393599999999935
21
-36.9620839999999973
0
LINE
8
User.Drawings
6
CONTINUOUS
10
160.4393599999999935
20
-36.9620839999999973
11
160.6189990000000023
21
-37.0204519999999988
0
LINE
8
User.Drawings
6
CONTINUOUS
10
160.6189990000000023
20
-37.0204519999999988
11
160.8055579999999907
21
-37.0499999999999972
0
LINE
8
User.Drawings
6
CONTINUOUS
10
160.8055579999999907
20
-37.0499999999999972
11
160.9944419999999923
21
-37.0499999999999972
0
LINE
8
User.Drawings
6
CONTINUOUS
10
160.9944419999999923
20
-37.0499999999999972
11
161.1810009999999806
21
-37.0204519999999988
0
LINE
8
User.Drawings
6
CONTINUOUS
10
161.1810009999999806
20
-37.0204519999999988
11
161.3606399999999894
21
-36.9620839999999973
0
LINE
8
User.Drawings
6
CONTINUOUS
10
161.3606399999999894
20
-36.9620839999999973
11
161.5289369999999849
21
-36.8763319999999979
0
LINE
8
User.Drawings
6
CONTINUOUS
10
161.5289369999999849
20
-36.8763319999999979
11
161.6817479999999989
21
-36.7653089999999949
0
LINE
8
User.Drawings
6
CONTINUOUS
10
161.6817479999999989
20
-36.7653089999999949
11
161.815308999999985
21
-36.6317480000000018
0
LINE
8
User.Drawings
6
CONTINUOUS
10
161.815308999999985
20
-36.6317480000000018
11
161.9263320000000022
21
-36.4789369999999948
0
LINE
8
User.Drawings
6
CONTINUOUS
10
161.9263320000000022
20
-36.4789369999999948
11
162.0120839999999873
21
-36.3106399999999994
0
LINE
8
User.Drawings
6
CONTINUOUS
10
162.0120839999999873
20
-36.3106399999999994
11
162.0704519999999889
21
-36.1310009999999977
0
LINE
8
User.Drawings
6
CONTINUOUS
10
162.0704519999999889
20
-36.1310009999999977
11
162.0999999999999943
21
-35.9444419999999951
0
LINE
8
User.Drawings
6
CONTINUOUS
10
162.0999999999999943
20
-35.9444419999999951
11
162.0999999999999943
21
-35.7555580000000006
0
LINE
8
User.Drawings
6
CONTINUOUS
10
162.0999999999999943
20
-35.7555580000000006
11
162.0704519999999889
21
-35.568998999999998
0
LINE
8
User.Drawings
6
CONTINUOUS
10
162.0704519999999889
20
-35.568998999999998
11
162.0120839999999873
21
-35.3893599999999964
0
LINE
8
User.Drawings
6
CONTINUOUS
10
162.0120839999999873
20
-35.3893599999999964
11
161.9263320000000022
21
-35.2210630000000009
0
LINE
8
User.Drawings
6
CONTINUOUS
10
161.9263320000000022
20
-35.2210630000000009
11
161.815308999999985
21
-35.0682520000000011
0
LINE
8
User.Drawings
6
CONTINUOUS
10
161.815308999999985
20
-35.0682520000000011
11
161.6817479999999989
21
-34.9346910000000008
0
LINE
8
User.Drawings
6
CONTINUOUS
10
161.6817479999999989
20
-34.9346910000000008
11
161.5289369999999849
21
-34.8236679999999978
0
LINE
8
User.Drawings
6
CONTINUOUS
10
161.5289369999999849
20
-34.8236679999999978
11
161.3606399999999894
21
-34.7379159999999985
0
LINE
8
User.Drawings
6
CONTINUOUS
10
161.3606399999999894
20
-34.7379159999999985
11
161.1810009999999806
21
-34.6795479999999969
0
LINE
8
User.Drawings
6
CONTINUOUS
10
161.1810009999999806
20
-34.6795479999999969
11
160.9944419999999923
21
-34.6499999999999986
0
LINE
8
User.Drawings
6
CONTINUOUS
10
160.9944419999999923
20
-34.6499999999999986
11
160.8055579999999907
21
-34.6499999999999986
0
LINE
8
User.Drawings
6
CONTINUOUS
10
160.8055579999999907
20
-34.6499999999999986
11
160.6189990000000023
21
-34.6795479999999969
0
LINE
8
User.Drawings
6
CONTINUOUS
10
160.6189990000000023
20
-34.6795479999999969
11
160.4393599999999935
21
-34.7379159999999985
0
LINE
8
User.Drawings
6
CONTINUOUS
10
160.4393599999999935
20
-34.7379159999999985
11
160.2710629999999981
21
-34.8236679999999978
0
LINE
8
User.Drawings
6
CONTINUOUS
10
160.2710629999999981
20
-34.8236679999999978
11
160.118251999999984
21
-34.9346910000000008
0
LINE
8
User.Drawings
6
CONTINUOUS
10
160.118251999999984
20
-34.9346910000000008
11
159.984690999999998
21
-35.0682520000000011
0
LINE
8
User.Drawings
6
CONTINUOUS
10
159.984690999999998
20
-35.0682520000000011
11
159.8736679999999808
21
-35.2210630000000009
0
LINE
8
User.Drawings
6
CONTINUOUS
10
159.8736679999999808
20
-35.2210630000000009
11
159.7879159999999956
21
-35.3893599999999964
0
LINE
8
User.Drawings
6
CONTINUOUS
10
159.7879159999999956
20
-35.3893599999999964
11
159.7295479999999941
21
-35.568998999999998
0
LINE
8
User.Drawings
6
CONTINUOUS
10
159.7295479999999941
20
-35.568998999999998
11
159.6999999999999886
21
-35.7555580000000006
0
LINE
8
User.Drawings
6
CONTINUOUS
10
159.6999999999999886
20
-35.7555580000000006
11
159.6999999999999886
21
-35.9444419999999951
0
LINE
8
User.Drawings
6
CONTINUOUS
10
149.1111139999999864
20
-29.8337059999999994
11
149.1662939999999935
21
-29.8888859999999994
0
LINE
8
User.Drawings
6
CONTINUOUS
10
149.1662939999999935
20
-29.8888859999999994
11
149.1916080000000022
21
-29.9500010000000003
0
LINE
8
User.Drawings
6
CONTINUOUS
10
149.1916080000000022
20
-29.9500010000000003
11
164.
21
-29.9499999999999993
0
LINE
8
User.Drawings
6
CONTINUOUS
10
164.
20
-29.9499999999999993
11
164.4746779999999831
21
-29.9686500000000002
0
LINE
8
User.Drawings
6
CONTINUOUS
10
164.4746779999999831
20
-29.9686500000000002
11
164.9464289999999949
21
-30.0244849999999985
0
LINE
8
User.Drawings
6
CONTINUOUS
10
164.9464289999999949
20
-30.0244849999999985
11
165.4123449999999877
21
-30.1171619999999969
0
LINE
8
User.Drawings
6
CONTINUOUS
10
165.4123449999999877
20
-30.1171619999999969
11
165.8695529999999962
21
-30.2461079999999995
0
LINE
8
User.Drawings
6
CONTINUOUS
10
165.8695529999999962
20
-30.2461079999999995
11
166.3152350000000013
21
-30.4105290000000004
0
LINE
8
User.Drawings
6
CONTINUOUS
10
166.3152350000000013
20
-30.4105290000000004
11
166.7466430000000059
21
-30.6094099999999969
0
LINE
8
User.Drawings
6
CONTINUOUS
10
166.7466430000000059
20
-30.6094099999999969
11
167.1611169999999902
21
-30.8415269999999992
0
LINE
8
User.Drawings
6
CONTINUOUS
10
167.1611169999999902
20
-30.8415269999999992
11
167.556100999999984
21
-31.1054469999999981
0
LINE
8
User.Drawings
6
CONTINUOUS
10
167.556100999999984
20
-31.1054469999999981
11
167.9291609999999935
21
-31.3995439999999988
0
LINE
8
User.Drawings
6
CONTINUOUS
10
167.9291609999999935
20
-31.3995439999999988
11
168.2779960000000017
21
-31.7220039999999983
0
LINE
8
User.Drawings
6
CONTINUOUS
10
168.2779960000000017
20
-31.7220039999999983
11
168.6004559999999799
21
-32.0708389999999994
0
LINE
8
User.Drawings
6
CONTINUOUS
10
168.6004559999999799
20
-32.0708389999999994
11
168.8945530000000019
21
-32.4438990000000018
0
LINE
8
User.Drawings
6
CONTINUOUS
10
168.8945530000000019
20
-32.4438990000000018
11
169.1584729999999865
21
-32.8388829999999956
0
LINE
8
User.Drawings
6
CONTINUOUS
10
169.1584729999999865
20
-32.8388829999999956
11
169.3905900000000031
21
-33.2533570000000012
0
LINE
8
User.Drawings
6
CONTINUOUS
10
169.3905900000000031
20
-33.2533570000000012
11
169.5894710000000032
21
-33.6847649999999987
0
LINE
8
User.Drawings
6
CONTINUOUS
10
169.5894710000000032
20
-33.6847649999999987
11
169.7538919999999791
21
-34.1304469999999966
0
LINE
8
User.Drawings
6
CONTINUOUS
10
169.7538919999999791
20
-34.1304469999999966
11
169.8828379999999925
21
-34.587654999999998
0
LINE
8
User.Drawings
6
CONTINUOUS
10
169.8828379999999925
20
-34.587654999999998
11
169.9755150000000015
21
-35.053570999999998
0
LINE
8
User.Drawings
6
CONTINUOUS
10
169.9755150000000015
20
-35.053570999999998
11
170.0313500000000033
21
-35.5253219999999956
0
LINE
8
User.Drawings
6
CONTINUOUS
10
170.0313500000000033
20
-35.5253219999999956
11
170.0499989999999855
21
-35.9999929999999964
0
LINE
8
User.Drawings
6
CONTINUOUS
10
170.0499989999999855
20
-35.9999929999999964
11
170.0500009999999804
21
-36.
0
LINE
8
User.Drawings
6
CONTINUOUS
10
170.0500009999999804
20
-36.
11
170.0500009999999804
21
-104.
0
LINE
8
User.Drawings
6
CONTINUOUS
10
170.0500009999999804
20
-104.
11
170.0499989999999855
21
-104.0000059999999991
0
LINE
8
User.Drawings
6
CONTINUOUS
10
170.0499989999999855
20
-104.0000059999999991
11
170.0313500000000033
21
-104.4746779999999973
0
LINE
8
User.Drawings
6
CONTINUOUS
10
170.0313500000000033
20
-104.4746779999999973
11
169.9755150000000015
21
-104.9464289999999949
0
LINE
8
User.Drawings
6
CONTINUOUS
10
169.9755150000000015
20
-104.9464289999999949
11
169.8828379999999925
21
-105.412345000000002
0
LINE
8
User.Drawings
6
CONTINUOUS
10
169.8828379999999925
20
-105.412345000000002
11
169.7538919999999791
21
-105.8695529999999962
0
LINE
8
User.Drawings
6
CONTINUOUS
10
169.7538919999999791
20
-105.8695529999999962
11
169.5894710000000032
21
-106.3152350000000013
0
LINE
8
User.Drawings
6
CONTINUOUS
10
169.5894710000000032
20
-106.3152350000000013
11
169.3905900000000031
21
-106.7466429999999917
0
LINE
8
User.Drawings
6
CONTINUOUS
10
169.3905900000000031
20
-106.7466429999999917
11
169.1584729999999865
21
-107.1611169999999902
0
LINE
8
User.Drawings
6
CONTINUOUS
10
169.1584729999999865
20
-107.1611169999999902
11
168.8945530000000019
21
-107.5561009999999982
0
LINE
8
User.Drawings
6
CONTINUOUS
10
168.8945530000000019
20
-107.5561009999999982
11
168.6004559999999799
21
-107.9291609999999935
0
LINE
8
User.Drawings
6
CONTINUOUS
10
168.6004559999999799
20
-107.9291609999999935
11
168.2779960000000017
21
-108.2779960000000017
0
LINE
8
User.Drawings
6
CONTINUOUS
10
168.2779960000000017
20
-108.2779960000000017
11
167.9291609999999935
21
-108.6004559999999941
0
LINE
8
User.Drawings
6
CONTINUOUS
10
167.9291609999999935
20
-108.6004559999999941
11
167.556100999999984
21
-108.8945530000000019
0
LINE
8
User.Drawings
6
CONTINUOUS
10
167.556100999999984
20
-108.8945530000000019
11
167.1611169999999902
21
-109.1584730000000008
0
LINE
8
User.Drawings
6
CONTINUOUS
10
167.1611169999999902
20
-109.1584730000000008
11
166.7466430000000059
21
-109.3905899999999889
0
LINE
8
User.Drawings
6
CONTINUOUS
10
166.7466430000000059
20
-109.3905899999999889
11
166.3152350000000013
21
-109.589470999999989
0
LINE
8
User.Drawings
6
CONTINUOUS
10
166.3152350000000013
20
-109.589470999999989
11
165.8695529999999962
21
-109.7538919999999933
0
LINE
8
User.Drawings
6
CONTINUOUS
10
165.8695529999999962
20
-109.7538919999999933
11
165.4123449999999877
21
-109.8828379999999925
0
LINE
8
User.Drawings
6
CONTINUOUS
10
165.4123449999999877
20
-109.8828379999999925
11
164.9464289999999949
21
-109.9755150000000015
0
LINE
8
User.Drawings
6
CONTINUOUS
10
164.9464289999999949
20
-109.9755150000000015
11
164.4746779999999831
21
-110.0313499999999891
0
LINE
8
User.Drawings
6
CONTINUOUS
10
164.4746779999999831
20
-110.0313499999999891
11
164.
21
-110.0499999999999972
0
LINE
8
User.Drawings
6
CONTINUOUS
10
164.
20
-110.0499999999999972
11
155.1916070000000047
21
-110.0499999999999972
0
LINE
8
User.Drawings
6
CONTINUOUS
10
155.1916070000000047
20
-110.0499999999999972
11
155.166292999999996
21
-110.1111129999999889
0
LINE
8
User.Drawings
6
CONTINUOUS
10
155.166292999999996
20
-110.1111129999999889
11
155.1111129999999889
21
-110.166292999999996
0
LINE
8
User.Drawings
6
CONTINUOUS
10
155.1111129999999889
20
-110.166292999999996
11
155.0390170000000012
21
-110.196156000000002
0
LINE
8
User.Drawings
6
CONTINUOUS
10
155.0390170000000012
20
-110.196156000000002
11
154.9609810000000039
21
-110.196156000000002
0
LINE
8
User.Drawings
6
CONTINUOUS
10
154.9609810000000039
20
-110.196156000000002
11
154.8888849999999877
21
-110.166292999999996
0
LINE
8
User.Drawings
6
CONTINUOUS
10
154.8888849999999877
20
-110.166292999999996
11
154.8337049999999806
21
-110.1111129999999889
0
LINE
8
User.Drawings
6
CONTINUOUS
10
154.8337049999999806
20
-110.1111129999999889
11
154.8038420000000031
21
-110.0390170000000012
0
LINE
8
User.Drawings
6
CONTINUOUS
10
154.8038420000000031
20
-110.0390170000000012
11
154.7999989999999855
21
-109.9999989999999883
0
LINE
8
User.Drawings
6
CONTINUOUS
10
154.7999989999999855
20
-109.9999989999999883
11
154.7999989999999855
21
-103.9999989999999883
0
LINE
8
User.Drawings
6
CONTINUOUS
10
154.7999989999999855
20
-103.9999989999999883
11
154.8038420000000031
21
-103.9609809999999896
0
LINE
8
User.Drawings
6
CONTINUOUS
10
154.8038420000000031
20
-103.9609809999999896
11
154.8337049999999806
21
-103.8888850000000019
0
LINE
8
User.Drawings
6
CONTINUOUS
10
154.8337049999999806
20
-103.8888850000000019
11
154.8888849999999877
21
-103.8337049999999948
0
LINE
8
User.Drawings
6
CONTINUOUS
10
154.8888849999999877
20
-103.8337049999999948
11
154.9609810000000039
21
-103.8038419999999888
0
LINE
8
User.Drawings
6
CONTINUOUS
10
154.9609810000000039
20
-103.8038419999999888
11
154.9999990000000025
21
-103.7999989999999997
0
LINE
8
User.Drawings
6
CONTINUOUS
10
154.9999990000000025
20
-103.7999989999999997
11
157.8074819999999931
21
-103.7999989999999997
0
LINE
8
User.Drawings
6
CONTINUOUS
10
157.8074819999999931
20
-103.7999989999999997
11
157.8173349999999857
21
-103.5366719999999958
0
LINE
8
User.Drawings
6
CONTINUOUS
10
157.8173349999999857
20
-103.5366719999999958
11
157.8692479999999989
21
-103.0759369999999961
0
LINE
8
User.Drawings
6
CONTINUOUS
10
157.8692479999999989
20
-103.0759369999999961
11
157.9554459999999949
21
-102.6203689999999966
0
LINE
8
User.Drawings
6
CONTINUOUS
10
157.9554459999999949
20
-102.6203689999999966
11
158.0754469999999969
21
-102.1725169999999991
0
LINE
8
User.Drawings
6
CONTINUOUS
10
158.0754469999999969
20
-102.1725169999999991
11
158.2285809999999913
21
-101.7348849999999914
0
LINE
8
User.Drawings
6
CONTINUOUS
10
158.2285809999999913
20
-101.7348849999999914
11
158.413991999999979
21
-101.3099199999999911
0
LINE
8
User.Drawings
6
CONTINUOUS
10
158.413991999999979
20
-101.3099199999999911
11
158.6306409999999971
21
-100.899998999999994
0
LINE
8
User.Drawings
6
CONTINUOUS
10
158.6306409999999971
20
-100.899998999999994
11
158.8773180000000025
21
-100.5074139999999971
0
LINE
8
User.Drawings
6
CONTINUOUS
10
158.8773180000000025
20
-100.5074139999999971
11
159.1526429999999834
21
-100.1343619999999959
0
LINE
8
User.Drawings
6
CONTINUOUS
10
159.1526429999999834
20
-100.1343619999999959
11
159.4550769999999886
21
-99.7829279999999983
0
LINE
8
User.Drawings
6
CONTINUOUS
10
159.4550769999999886
20
-99.7829279999999983
11
159.7829279999999983
21
-99.4550769999999886
0
LINE
8
User.Drawings
6
CONTINUOUS
10
159.7829279999999983
20
-99.4550769999999886
11
160.1343619999999817
21
-99.1526429999999976
0
LINE
8
User.Drawings
6
CONTINUOUS
10
160.1343619999999817
20
-99.1526429999999976
11
160.5074139999999829
21
-98.8773180000000025
0
LINE
8
User.Drawings
6
CONTINUOUS
10
160.5074139999999829
20
-98.8773180000000025
11
160.8999989999999798
21
-98.6306409999999971
0
LINE
8
User.Drawings
6
CONTINUOUS
10
160.8999989999999798
20
-98.6306409999999971
11
161.3099200000000053
21
-98.4139919999999933
0
LINE
8
User.Drawings
6
CONTINUOUS
10
161.3099200000000053
20
-98.4139919999999933
11
161.7348849999999914
21
-98.2285809999999913
0
LINE
8
User.Drawings
6
CONTINUOUS
10
161.7348849999999914
20
-98.2285809999999913
11
162.1725169999999991
21
-98.0754469999999969
0
LINE
8
User.Drawings
6
CONTINUOUS
10
162.1725169999999991
20
-98.0754469999999969
11
162.6203689999999824
21
-97.9554459999999949
0
LINE
8
User.Drawings
6
CONTINUOUS
10
162.6203689999999824
20
-97.9554459999999949
11
163.0759369999999819
21
-97.8692479999999989
0
LINE
8
User.Drawings
6
CONTINUOUS
10
163.0759369999999819
20
-97.8692479999999989
11
163.5366719999999816
21
-97.8173349999999999
0
LINE
8
User.Drawings
6
CONTINUOUS
10
163.5366719999999816
20
-97.8173349999999999
11
163.7999989999999855
21
-97.8074819999999931
0
LINE
8
User.Drawings
6
CONTINUOUS
10
163.7999989999999855
20
-97.8074819999999931
11
163.7999989999999855
21
-68.9999990000000025
0
LINE
8
User.Drawings
6
CONTINUOUS
10
163.7999989999999855
20
-68.9999990000000025
11
163.7999989999999855
21
-68.8427539999999993
0
LINE
8
User.Drawings
6
CONTINUOUS
10
163.7999989999999855
20
-68.8427539999999993
11
163.7647869999999841
21
-68.5302429999999987
0
LINE
8
User.Drawings
6
CONTINUOUS
10
163.7647869999999841
20
-68.5302429999999987
11
163.6948069999999973
21
-68.223637999999994
0
LINE
8
User.Drawings
6
CONTINUOUS
10
163.6948069999999973
20
-68.223637999999994
11
163.5909379999999942
21
-67.9267969999999934
0
LINE
8
User.Drawings
6
CONTINUOUS
10
163.5909379999999942
20
-67.9267969999999934
11
163.4544860000000028
21
-67.6434519999999964
0
LINE
8
User.Drawings
6
CONTINUOUS
10
163.4544860000000028
20
-67.6434519999999964
11
163.2871669999999824
21
-67.377167
0
LINE
8
User.Drawings
6
CONTINUOUS
10
163.2871669999999824
20
-67.377167
11
163.09108599999999
21
-67.1312889999999953
0
LINE
8
User.Drawings
6
CONTINUOUS
10
163.09108599999999
20
-67.1312889999999953
11
162.8687089999999955
21
-66.9089120000000008
0
LINE
8
User.Drawings
6
CONTINUOUS
10
162.8687089999999955
20
-66.9089120000000008
11
162.6228309999999908
21
-66.7128309999999942
0
LINE
8
User.Drawings
6
CONTINUOUS
10
162.6228309999999908
20
-66.7128309999999942
11
162.3565459999999803
21
-66.5455120000000022
0
LINE
8
User.Drawings
6
CONTINUOUS
10
162.3565459999999803
20
-66.5455120000000022
11
162.0732009999999832
21
-66.4090599999999966
0
LINE
8
User.Drawings
6
CONTINUOUS
10
162.0732009999999832
20
-66.4090599999999966
11
161.7763599999999826
21
-66.3051909999999936
0
LINE
8
User.Drawings
6
CONTINUOUS
10
161.7763599999999826
20
-66.3051909999999936
11
161.4697549999999922
21
-66.2352109999999925
0
LINE
8
User.Drawings
6
CONTINUOUS
10
161.4697549999999922
20
-66.2352109999999925
11
161.1572439999999915
21
-66.1999989999999912
0
LINE
8
User.Drawings
6
CONTINUOUS
10
161.1572439999999915
20
-66.1999989999999912
11
160.9999990000000025
21
-66.1999989999999912
0
LINE
8
User.Drawings
6
CONTINUOUS
10
160.9999990000000025
20
-66.1999989999999912
11
160.5135530000000017
21
-66.180886000000001
0
LINE
8
User.Drawings
6
CONTINUOUS
10
160.5135530000000017
20
-66.180886000000001
11
160.0301049999999918
21
-66.1236669999999975
0
LINE
8
User.Drawings
6
CONTINUOUS
10
160.0301049999999918
20
-66.1236669999999975
11
159.5526380000000017
21
-66.0286930000000041
0
LINE
8
User.Drawings
6
CONTINUOUS
10
159.5526380000000017
20
-66.0286930000000041
11
159.0840939999999932
21
-65.8965489999999932
0
LINE
8
User.Drawings
6
CONTINUOUS
10
159.0840939999999932
20
-65.8965489999999932
11
158.6273620000000051
21
-65.728051999999991
0
LINE
8
User.Drawings
6
CONTINUOUS
10
158.6273620000000051
20
-65.728051999999991
11
158.1852580000000046
21
-65.5242389999999943
0
LINE
8
User.Drawings
6
CONTINUOUS
10
158.1852580000000046
20
-65.5242389999999943
11
157.7605079999999873
21
-65.286367999999996
0
LINE
8
User.Drawings
6
CONTINUOUS
10
157.7605079999999873
20
-65.286367999999996
11
157.3557299999999941
21
-65.0159039999999919
0
LINE
8
User.Drawings
6
CONTINUOUS
10
157.3557299999999941
20
-65.0159039999999919
11
156.9734210000000019
21
-64.7145160000000033
0
LINE
8
User.Drawings
6
CONTINUOUS
10
156.9734210000000019
20
-64.7145160000000033
11
156.6159370000000024
21
-64.3840610000000027
0
LINE
8
User.Drawings
6
CONTINUOUS
10
156.6159370000000024
20
-64.3840610000000027
11
156.2854820000000018
21
-64.0265770000000032
0
LINE
8
User.Drawings
6
CONTINUOUS
10
156.2854820000000018
20
-64.0265770000000032
11
155.9840939999999989
21
-63.6442679999999967
0
LINE
8
User.Drawings
6
CONTINUOUS
10
155.9840939999999989
20
-63.6442679999999967
11
155.7136299999999949
21
-63.2394899999999964
0
LINE
8
User.Drawings
6
CONTINUOUS
10
155.7136299999999949
20
-63.2394899999999964
11
155.4757589999999823
21
-62.8147400000000005
0
LINE
8
User.Drawings
6
CONTINUOUS
10
155.4757589999999823
20
-62.8147400000000005
11
155.2719459999999856
21
-62.372636
0
LINE
8
User.Drawings
6
CONTINUOUS
10
155.2719459999999856
20
-62.372636
11
155.1034489999999835
21
-61.9159039999999976
0
LINE
8
User.Drawings
6
CONTINUOUS
10
155.1034489999999835
20
-61.9159039999999976
11
154.971305000000001
21
-61.4473599999999962
0
LINE
8
User.Drawings
6
CONTINUOUS
10
154.971305000000001
20
-61.4473599999999962
11
154.8763309999999933
21
-60.969892999999999
0
LINE
8
User.Drawings
6
CONTINUOUS
10
154.8763309999999933
20
-60.969892999999999
11
154.8191119999999898
21
-60.4864449999999962
0
LINE
8
User.Drawings
6
CONTINUOUS
10
154.8191119999999898
20
-60.4864449999999962
11
154.7999989999999855
21
-59.9999989999999954
0
LINE
8
User.Drawings
6
CONTINUOUS
10
154.7999989999999855
20
-59.9999989999999954
11
154.8191119999999898
21
-59.5135529999999946
0
LINE
8
User.Drawings
6
CONTINUOUS
10
154.8191119999999898
20
-59.5135529999999946
11
154.8763309999999933
21
-59.0301049999999989
0
LINE
8
User.Drawings
6
CONTINUOUS
10
154.8763309999999933
20
-59.0301049999999989
11
154.971305000000001
21
-58.5526379999999946
0
LINE
8
User.Drawings
6
CONTINUOUS
10
154.971305000000001
20
-58.5526379999999946
11
155.1034489999999835
21
-58.0840940000000003
0
LINE
8
User.Drawings
6
CONTINUOUS
10
155.1034489999999835
20
-58.0840940000000003
11
155.2719459999999856
21
-57.627361999999998
0
LINE
8
User.Drawings
6
CONTINUOUS
10
155.2719459999999856
20
-57.627361999999998
11
155.4757589999999823
21
-57.1852579999999975
0
LINE
8
User.Drawings
6
CONTINUOUS
10
155.4757589999999823
20
-57.1852579999999975
11
155.7136299999999949
21
-56.7605079999999944
0
LINE
8
User.Drawings
6
CONTINUOUS
10
155.7136299999999949
20
-56.7605079999999944
11
155.9840939999999989
21
-56.3557299999999941
0
LINE
8
User.Drawings
6
CONTINUOUS
10
155.9840939999999989
20
-56.3557299999999941
11
156.2854820000000018
21
-55.9734209999999948
0
LINE
8
User.Drawings
6
CONTINUOUS
10
156.2854820000000018
20
-55.9734209999999948
11
156.6159370000000024
21
-55.6159369999999953
0
LINE
8
User.Drawings
6
CONTINUOUS
10
156.6159370000000024
20
-55.6159369999999953
11
156.9734210000000019
21
-55.2854819999999947
0
LINE
8
User.Drawings
6
CONTINUOUS
10
156.9734210000000019
20
-55.2854819999999947
11
157.3557299999999941
21
-54.9840939999999989
0
LINE
8
User.Drawings
6
CONTINUOUS
10
157.3557299999999941
20
-54.9840939999999989
11
157.7605079999999873
21
-54.7136299999999949
0
LINE
8
User.Drawings
6
CONTINUOUS
10
157.7605079999999873
20
-54.7136299999999949
11
158.1852580000000046
21
-54.4757589999999965
0
LINE
8
User.Drawings
6
CONTINUOUS
10
158.1852580000000046
20
-54.4757589999999965
11
158.6273620000000051
21
-54.2719459999999998
0
LINE
8
User.Drawings
6
CONTINUOUS
10
158.6273620000000051
20
-54.2719459999999998
11
159.0840939999999932
21
-54.1034489999999977
0
LINE
8
User.Drawings
6
CONTINUOUS
10
159.0840939999999932
20
-54.1034489999999977
11
159.5526380000000017
21
-53.971305000000001
0
LINE
8
User.Drawings
6
CONTINUOUS
10
159.5526380000000017
20
-53.971305000000001
11
160.0301049999999918
21
-53.8763310000000004
0
LINE
8
User.Drawings
6
CONTINUOUS
10
160.0301049999999918
20
-53.8763310000000004
11
160.5135530000000017
21
-53.819111999999997
0
LINE
8
User.Drawings
6
CONTINUOUS
10
160.5135530000000017
20
-53.819111999999997
11
160.9999990000000025
21
-53.7999989999999997
0
LINE
8
User.Drawings
6
CONTINUOUS
10
160.9999990000000025
20
-53.7999989999999997
11
161.1572439999999915
21
-53.7999989999999997
0
LINE
8
User.Drawings
6
CONTINUOUS
10
161.1572439999999915
20
-53.7999989999999997
11
161.4697549999999922
21
-53.7647869999999983
0
LINE
8
User.Drawings
6
CONTINUOUS
10
161.4697549999999922
20
-53.7647869999999983
11
161.7763599999999826
21
-53.6948069999999973
0
LINE
8
User.Drawings
6
CONTINUOUS
10
161.7763599999999826
20
-53.6948069999999973
11
162.0732009999999832
21
-53.5909379999999942
0
LINE
8
User.Drawings
6
CONTINUOUS
10
162.0732009999999832
20
-53.5909379999999942
11
162.3565459999999803
21
-53.4544859999999957
0
LINE
8
User.Drawings
6
CONTINUOUS
10
162.3565459999999803
20
-53.4544859999999957
11
162.6228309999999908
21
-53.2871669999999966
0
LINE
8
User.Drawings
6
CONTINUOUS
10
162.6228309999999908
20
-53.2871669999999966
11
162.8687089999999955
21
-53.0910859999999971
0
LINE
8
User.Drawings
6
CONTINUOUS
10
162.8687089999999955
20
-53.0910859999999971
11
163.09108599999999
21
-52.8687089999999955
0
LINE
8
User.Drawings
6
CONTINUOUS
10
163.09108599999999
20
-52.8687089999999955
11
163.2871669999999824
21
-52.6228309999999979
0
LINE
8
User.Drawings
6
CONTINUOUS
10
163.2871669999999824
20
-52.6228309999999979
11
163.4544860000000028
21
-52.3565459999999945
0
LINE
8
User.Drawings
6
CONTINUOUS
10
163.4544860000000028
20
-52.3565459999999945
11
163.5909379999999942
21
-52.0732009999999974
0
LINE
8
User.Drawings
6
CONTINUOUS
10
163.5909379999999942
20
-52.0732009999999974
11
163.6948069999999973
21
-51.7763599999999968
0
LINE
8
User.Drawings
6
CONTINUOUS
10
163.6948069999999973
20
-51.7763599999999968
11
163.7647869999999841
21
-51.4697549999999993
0
LINE
8
User.Drawings
6
CONTINUOUS
10
163.7647869999999841
20
-51.4697549999999993
11
163.7999989999999855
21
-51.1572439999999986
0
LINE
8
User.Drawings
6
CONTINUOUS
10
163.7999989999999855
20
-51.1572439999999986
11
163.7999989999999855
21
-50.9999989999999954
0
LINE
8
User.Drawings
6
CONTINUOUS
10
163.7999989999999855
20
-50.9999989999999954
11
163.7999989999999855
21
-44.9999989999999954
0
LINE
8
User.Drawings
6
CONTINUOUS
10
163.7999989999999855
20
-44.9999989999999954
11
163.7999989999999855
21
-44.8427539999999993
0
LINE
8
User.Drawings
6
CONTINUOUS
10
163.7999989999999855
20
-44.8427539999999993
11
163.7647869999999841
21
-44.5302429999999987
0
LINE
8
User.Drawings
6
CONTINUOUS
10
163.7647869999999841
20
-44.5302429999999987
11
163.6948069999999973
21
-44.2236380000000011
0
LINE
8
User.Drawings
6
CONTINUOUS
10
163.6948069999999973
20
-44.2236380000000011
11
163.5909379999999942
21
-43.9267970000000005
0
LINE
8
User.Drawings
6
CONTINUOUS
10
163.5909379999999942
20
-43.9267970000000005
11
163.4544860000000028
21
-43.6434519999999964
0
LINE
8
User.Drawings
6
CONTINUOUS
10
163.4544860000000028
20
-43.6434519999999964
11
163.2871669999999824
21
-43.377167
0
LINE
8
User.Drawings
6
CONTINUOUS
10
163.2871669999999824
20
-43.377167
11
163.09108599999999
21
-43.1312889999999953
0
LINE
8
User.Drawings
6
CONTINUOUS
10
163.09108599999999
20
-43.1312889999999953
11
162.8687089999999955
21
-42.9089120000000008
0
LINE
8
User.Drawings
6
CONTINUOUS
10
162.8687089999999955
20
-42.9089120000000008
11
162.6228309999999908
21
-42.7128310000000013
0
LINE
8
User.Drawings
6
CONTINUOUS
10
162.6228309999999908
20
-42.7128310000000013
11
162.3565459999999803
21
-42.5455119999999951
0
LINE
8
User.Drawings
6
CONTINUOUS
10
162.3565459999999803
20
-42.5455119999999951
11
162.0732009999999832
21
-42.4090599999999966
0
LINE
8
User.Drawings
6
CONTINUOUS
10
162.0732009999999832
20
-42.4090599999999966
11
161.7763599999999826
21
-42.3051910000000007
0
LINE
8
User.Drawings
6
CONTINUOUS
10
161.7763599999999826
20
-42.3051910000000007
11
161.4697549999999922
21
-42.2352109999999996
0
LINE
8
User.Drawings
6
CONTINUOUS
10
161.4697549999999922
20
-42.2352109999999996
11
161.1572439999999915
21
-42.1999989999999983
0
LINE
8
User.Drawings
6
CONTINUOUS
10
161.1572439999999915
20
-42.1999989999999983
11
160.9999990000000025
21
-42.1999989999999983
0
LINE
8
User.Drawings
6
CONTINUOUS
10
160.9999990000000025
20
-42.1999989999999983
11
160.5366719999999816
21
-42.182662999999998
0
LINE
8
User.Drawings
6
CONTINUOUS
10
160.5366719999999816
20
-42.182662999999998
11
160.0759369999999819
21
-42.130749999999999
0
LINE
8
User.Drawings
6
CONTINUOUS
10
160.0759369999999819
20
-42.130749999999999
11
159.6203689999999824
21
-42.0445519999999959
0
LINE
8
User.Drawings
6
CONTINUOUS
10
159.6203689999999824
20
-42.0445519999999959
11
159.1725169999999991
21
-41.924551000000001
0
LINE
8
User.Drawings
6
CONTINUOUS
10
159.1725169999999991
20
-41.924551000000001
11
158.7348849999999914
21
-41.7714169999999996
0
LINE
8
User.Drawings
6
CONTINUOUS
10
158.7348849999999914
20
-41.7714169999999996
11
158.3099200000000053
21
-41.5860059999999976
0
LINE
8
User.Drawings
6
CONTINUOUS
10
158.3099200000000053
20
-41.5860059999999976
11
157.8999989999999798
21
-41.3693570000000008
0
LINE
8
User.Drawings
6
CONTINUOUS
10
157.8999989999999798
20
-41.3693570000000008
11
157.5074139999999829
21
-41.1226799999999955
0
LINE
8
User.Drawings
6
CONTINUOUS
10
157.5074139999999829
20
-41.1226799999999955
11
157.1343619999999817
21
-40.8473550000000003
0
LINE
8
User.Drawings
6
CONTINUOUS
10
157.1343619999999817
20
-40.8473550000000003
11
156.7829279999999983
21
-40.5449209999999951
0
LINE
8
User.Drawings
6
CONTINUOUS
10
156.7829279999999983
20
-40.5449209999999951
11
156.4550769999999886
21
-40.2170699999999997
0
LINE
8
User.Drawings
6
CONTINUOUS
10
156.4550769999999886
20
-40.2170699999999997
11
156.1526429999999834
21
-39.865635999999995
0
LINE
8
User.Drawings
6
CONTINUOUS
10
156.1526429999999834
20
-39.865635999999995
11
155.8773180000000025
21
-39.4925840000000008
0
LINE
8
User.Drawings
6
CONTINUOUS
10
155.8773180000000025
20
-39.4925840000000008
11
155.6306409999999971
21
-39.0999989999999968
0
LINE
8
User.Drawings
6
CONTINUOUS
10
155.6306409999999971
20
-39.0999989999999968
11
155.413991999999979
21
-38.6900779999999997
0
LINE
8
User.Drawings
6
CONTINUOUS
10
155.413991999999979
20
-38.6900779999999997
11
155.2285809999999913
21
-38.2651129999999995
0
LINE
8
User.Drawings
6
CONTINUOUS
10
155.2285809999999913
20
-38.2651129999999995
11
155.0754469999999969
21
-37.8274809999999988
0
LINE
8
User.Drawings
6
CONTINUOUS
10
155.0754469999999969
20
-37.8274809999999988
11
154.9554459999999949
21
-37.3796290000000013
0
LINE
8
User.Drawings
6
CONTINUOUS
10
154.9554459999999949
20
-37.3796290000000013
11
154.8692479999999989
21
-36.9240610000000018
0
LINE
8
User.Drawings
6
CONTINUOUS
10
154.8692479999999989
20
-36.9240610000000018
11
154.8173349999999857
21
-36.463325999999995
0
LINE
8
User.Drawings
6
CONTINUOUS
10
154.8173349999999857
20
-36.463325999999995
11
154.8074819999999931
21
-36.1999989999999983
0
LINE
8
User.Drawings
6
CONTINUOUS
10
154.8074819999999931
20
-36.1999989999999983
11
149.
21
-36.1999999999999957
0
LINE
8
User.Drawings
6
CONTINUOUS
10
149.
20
-36.1999999999999957
11
148.9609820000000013
21
-36.1961569999999995
0
LINE
8
User.Drawings
6
CONTINUOUS
10
148.9609820000000013
20
-36.1961569999999995
11
148.8888859999999852
21
-36.1662940000000006
0
LINE
8
User.Drawings
6
CONTINUOUS
10
148.8888859999999852
20
-36.1662940000000006
11
148.8337060000000065
21
-36.1111140000000006
0
LINE
8
User.Drawings
6
CONTINUOUS
10
148.8337060000000065
20
-36.1111140000000006
11
148.8038430000000005
21
-36.0390179999999987
0
LINE
8
User.Drawings
6
CONTINUOUS
10
148.8038430000000005
20
-36.0390179999999987
11
148.8038430000000005
21
-36.0390170000000012
0
LINE
8
User.Drawings
6
CONTINUOUS
10
148.8038430000000005
20
-36.0390170000000012
11
148.7999999999999829
21
-36.
0
LINE
8
User.Drawings
6
CONTINUOUS
10
148.7999999999999829
20
-36.
11
148.7999999999999829
21
-30.0500009999999982
0
LINE
8
User.Drawings
6
CONTINUOUS
10
148.7999999999999829
20
-30.0500009999999982
11
148.7500009999999975
21
-30.0500019999999992
0
LINE
8
User.Drawings
6
CONTINUOUS
10
148.7500009999999975
20
-30.0500019999999992
11
148.7308669999999893
21
-30.0461959999999983
0
LINE
8
User.Drawings
6
CONTINUOUS
10
148.7308669999999893
20
-30.0461959999999983
11
148.7038069999999834
21
-30.0191359999999996
0
LINE
8
User.Drawings
6
CONTINUOUS
10
148.7038069999999834
20
-30.0191359999999996
11
148.7038069999999834
21
-29.9808679999999974
0
LINE
8
User.Drawings
6
CONTINUOUS
10
148.7038069999999834
20
-29.9808679999999974
11
148.7308669999999893
21
-29.9538079999999987
0
LINE
8
User.Drawings
6
CONTINUOUS
10
148.7308669999999893
20
-29.9538079999999987
11
148.7500009999999975
21
-29.9500019999999978
0
LINE
8
User.Drawings
6
CONTINUOUS
10
148.7500009999999975
20
-29.9500019999999978
11
148.8083910000000003
21
-29.9500010000000003
0
LINE
8
User.Drawings
6
CONTINUOUS
10
148.8083910000000003
20
-29.9500010000000003
11
148.8337060000000065
21
-29.8888859999999994
0
LINE
8
User.Drawings
6
CONTINUOUS
10
148.8337060000000065
20
-29.8888859999999994
11
148.8888859999999852
21
-29.8337059999999994
0
LINE
8
User.Drawings
6
CONTINUOUS
10
148.8888859999999852
20
-29.8337059999999994
11
148.9609820000000013
21
-29.803842999999997
0
LINE
8
User.Drawings
6
CONTINUOUS
10
148.9609820000000013
20
-29.803842999999997
11
149.0390179999999987
21
-29.803842999999997
0
LINE
8
User.Drawings
6
CONTINUOUS
10
149.0390179999999987
20
-29.803842999999997
11
149.1111139999999864
21
-29.8337059999999994
0
LINE
8
User.Drawings
6
CONTINUOUS
10
149.1999999999999886
20
-30.0500009999999982
11
149.1999999999999886
21
-35.7999989999999997
0
LINE
8
User.Drawings
6
CONTINUOUS
10
149.1999999999999886
20
-35.7999989999999997
11
154.9999990000000025
21
-35.7999989999999997
0
LINE
8
User.Drawings
6
CONTINUOUS
10
154.9999990000000025
20
-35.7999989999999997
11
155.0390170000000012
21
-35.8038419999999959
0
LINE
8
User.Drawings
6
CONTINUOUS
10
155.0390170000000012
20
-35.8038419999999959
11
155.0572149999999851
21
-35.8113789999999952
0
LINE
8
User.Drawings
6
CONTINUOUS
10
155.0572149999999851
20
-35.8113789999999952
11
155.0765360000000044
21
-35.815222999999996
0
LINE
8
User.Drawings
6
CONTINUOUS
10
155.0765360000000044
20
-35.815222999999996
11
155.0929139999999791
21
-35.8261660000000006
0
LINE
8
User.Drawings
6
CONTINUOUS
10
155.0929139999999791
20
-35.8261660000000006
11
155.1111129999999889
21
-35.8337050000000019
0
LINE
8
User.Drawings
6
CONTINUOUS
10
155.1111129999999889
20
-35.8337050000000019
11
155.1250430000000051
21
-35.8476349999999968
0
LINE
8
User.Drawings
6
CONTINUOUS
10
155.1250430000000051
20
-35.8476349999999968
11
155.1414199999999823
21
-35.8585780000000014
0
LINE
8
User.Drawings
6
CONTINUOUS
10
155.1414199999999823
20
-35.8585780000000014
11
155.1523619999999823
21
-35.8749539999999953
0
LINE
8
User.Drawings
6
CONTINUOUS
10
155.1523619999999823
20
-35.8749539999999953
11
155.166292999999996
21
-35.8888850000000019
0
LINE
8
User.Drawings
6
CONTINUOUS
10
155.166292999999996
20
-35.8888850000000019
11
155.173831000000007
21
-35.9070830000000001
0
LINE
8
User.Drawings
6
CONTINUOUS
10
155.173831000000007
20
-35.9070830000000001
11
155.1847750000000019
21
-35.9234620000000007
0
LINE
8
User.Drawings
6
CONTINUOUS
10
155.1847750000000019
20
-35.9234620000000007
11
155.1886179999999911
21
-35.9427820000000011
0
LINE
8
User.Drawings
6
CONTINUOUS
10
155.1886179999999911
20
-35.9427820000000011
11
155.196156000000002
21
-35.9609809999999968
0
LINE
8
User.Drawings
6
CONTINUOUS
10
155.196156000000002
20
-35.9609809999999968
11
155.196156000000002
21
-35.9806779999999975
0
LINE
8
User.Drawings
6
CONTINUOUS
10
155.196156000000002
20
-35.9806779999999975
11
155.1999989999999912
21
-35.9999989999999954
0
LINE
8
User.Drawings
6
CONTINUOUS
10
155.1999989999999912
20
-35.9999989999999954
11
155.1999989999999912
21
-36.227882000000001
0
LINE
8
User.Drawings
6
CONTINUOUS
10
155.1999989999999912
20
-36.227882000000001
11
155.2357580000000041
21
-36.6822419999999951
0
LINE
8
User.Drawings
6
CONTINUOUS
10
155.2357580000000041
20
-36.6822419999999951
11
155.3070549999999912
21
-37.132396
0
LINE
8
User.Drawings
6
CONTINUOUS
10
155.3070549999999912
20
-37.132396
11
155.4134509999999807
21
-37.575567999999997
0
LINE
8
User.Drawings
6
CONTINUOUS
10
155.4134509999999807
20
-37.575567999999997
11
155.5542910000000063
21
-38.0090269999999961
0
LINE
8
User.Drawings
6
CONTINUOUS
10
155.5542910000000063
20
-38.0090269999999961
11
155.7287039999999934
21
-38.4300989999999985
0
LINE
8
User.Drawings
6
CONTINUOUS
10
155.7287039999999934
20
-38.4300989999999985
11
155.9356169999999793
21
-38.8361889999999974
0
LINE
8
User.Drawings
6
CONTINUOUS
10
155.9356169999999793
20
-38.8361889999999974
11
156.1737540000000024
21
-39.2247929999999982
0
LINE
8
User.Drawings
6
CONTINUOUS
10
156.1737540000000024
20
-39.2247929999999982
11
156.4416459999999915
21
-39.5935149999999965
0
LINE
8
User.Drawings
6
CONTINUOUS
10
156.4416459999999915
20
-39.5935149999999965
11
156.7376419999999939
21
-39.9400809999999993
0
LINE
8
User.Drawings
6
CONTINUOUS
10
156.7376419999999939
20
-39.9400809999999993
11
157.0599169999999845
21
-40.2623559999999969
0
LINE
8
User.Drawings
6
CONTINUOUS
10
157.0599169999999845
20
-40.2623559999999969
11
157.4064829999999802
21
-40.5583519999999993
0
LINE
8
User.Drawings
6
CONTINUOUS
10
157.4064829999999802
20
-40.5583519999999993
11
157.7752049999999997
21
-40.8262439999999955
0
LINE
8
User.Drawings
6
CONTINUOUS
10
157.7752049999999997
20
-40.8262439999999955
11
158.1638089999999863
21
-41.0643809999999974
0
LINE
8
User.Drawings
6
CONTINUOUS
10
158.1638089999999863
20
-41.0643809999999974
11
158.5698989999999924
21
-41.2712939999999975
0
LINE
8
User.Drawings
6
CONTINUOUS
10
158.5698989999999924
20
-41.2712939999999975
11
158.9909710000000018
21
-41.4457069999999987
0
LINE
8
User.Drawings
6
CONTINUOUS
10
158.9909710000000018
20
-41.4457069999999987
11
159.424430000000001
21
-41.5865469999999959
0
LINE
8
User.Drawings
6
CONTINUOUS
10
159.424430000000001
20
-41.5865469999999959
11
159.8676020000000051
21
-41.6929429999999996
0
LINE
8
User.Drawings
6
CONTINUOUS
10
159.8676020000000051
20
-41.6929429999999996
11
160.3177560000000028
21
-41.7642400000000009
0
LINE
8
User.Drawings
6
CONTINUOUS
10
160.3177560000000028
20
-41.7642400000000009
11
160.7721159999999827
21
-41.7999989999999997
0
LINE
8
User.Drawings
6
CONTINUOUS
10
160.7721159999999827
20
-41.7999989999999997
11
160.9999990000000025
21
-41.7999989999999997
0
LINE
8
User.Drawings
6
CONTINUOUS
10
160.9999990000000025
20
-41.7999989999999997
11
161.3344899999999882
21
-41.8175290000000004
0
LINE
8
User.Drawings
6
CONTINUOUS
10
161.3344899999999882
20
-41.8175290000000004
11
161.66531599999999
21
-41.869926999999997
0
LINE
8
User.Drawings
6
CONTINUOUS
10
161.66531599999999
20
-41.869926999999997
11
161.988853000000006
21
-41.9566179999999989
0
LINE
8
User.Drawings
6
CONTINUOUS
10
161.988853000000006
20
-41.9566179999999989
11
162.301556000000005
21
-42.0766539999999978
0
LINE
8
User.Drawings
6
CONTINUOUS
10
162.301556000000005
20
-42.0766539999999978
11
162.5999989999999968
21
-42.2287180000000006
0
LINE
8
User.Drawings
6
CONTINUOUS
10
162.5999989999999968
20
-42.2287180000000006
11
162.880911999999995
21
-42.4111449999999977
0
LINE
8
User.Drawings
6
CONTINUOUS
10
162.880911999999995
20
-42.4111449999999977
11
163.1412169999999833
21
-42.621935999999998
0
LINE
8
User.Drawings
6
CONTINUOUS
10
163.1412169999999833
20
-42.621935999999998
11
163.3780619999999999
21
-42.8587810000000005
0
LINE
8
User.Drawings
6
CONTINUOUS
10
163.3780619999999999
20
-42.8587810000000005
11
163.5888530000000003
21
-43.1190859999999958
0
LINE
8
User.Drawings
6
CONTINUOUS
10
163.5888530000000003
20
-43.1190859999999958
11
163.7712799999999902
21
-43.3999990000000011
0
LINE
8
User.Drawings
6
CONTINUOUS
10
163.7712799999999902
20
-43.3999990000000011
11
163.923343999999986
21
-43.698442
0
LINE
8
User.Drawings
6
CONTINUOUS
10
163.923343999999986
20
-43.698442
11
164.0433799999999849
21
-44.0111449999999991
0
LINE
8
User.Drawings
6
CONTINUOUS
10
164.0433799999999849
20
-44.0111449999999991
11
164.1300709999999867
21
-44.3346820000000008
0
LINE
8
User.Drawings
6
CONTINUOUS
10
164.1300709999999867
20
-44.3346820000000008
11
164.1824689999999975
21
-44.6655079999999955
0
LINE
8
User.Drawings
6
CONTINUOUS
10
164.1824689999999975
20
-44.6655079999999955
11
164.1999989999999912
21
-44.9999989999999954
0
LINE
8
User.Drawings
6
CONTINUOUS
10
164.1999989999999912
20
-44.9999989999999954
11
164.1999989999999912
21
-50.9999989999999954
0
LINE
8
User.Drawings
6
CONTINUOUS
10
164.1999989999999912
20
-50.9999989999999954
11
164.1824689999999975
21
-51.3344899999999953
0
LINE
8
User.Drawings
6
CONTINUOUS
10
164.1824689999999975
20
-51.3344899999999953
11
164.1300709999999867
21
-51.6653159999999971
0
LINE
8
User.Drawings
6
CONTINUOUS
10
164.1300709999999867
20
-51.6653159999999971
11
164.0433799999999849
21
-51.9888529999999989
0
LINE
8
User.Drawings
6
CONTINUOUS
10
164.0433799999999849
20
-51.9888529999999989
11
163.923343999999986
21
-52.3015559999999979
0
LINE
8
User.Drawings
6
CONTINUOUS
10
163.923343999999986
20
-52.3015559999999979
11
163.7712799999999902
21
-52.5999989999999968
0
LINE
8
User.Drawings
6
CONTINUOUS
10
163.7712799999999902
20
-52.5999989999999968
11
163.5888530000000003
21
-52.880911999999995
0
LINE
8
User.Drawings
6
CONTINUOUS
10
163.5888530000000003
20
-52.880911999999995
11
163.3780619999999999
21
-53.1412169999999975
0
LINE
8
User.Drawings
6
CONTINUOUS
10
163.3780619999999999
20
-53.1412169999999975
11
163.1412169999999833
21
-53.3780619999999999
0
LINE
8
User.Drawings
6
CONTINUOUS
10
163.1412169999999833
20
-53.3780619999999999
11
162.880911999999995
21
-53.5888530000000003
0
LINE
8
User.Drawings
6
CONTINUOUS
10
162.880911999999995
20
-53.5888530000000003
11
162.5999989999999968
21
-53.7712799999999973
0
LINE
8
User.Drawings
6
CONTINUOUS
10
162.5999989999999968
20
-53.7712799999999973
11
162.301556000000005
21
-53.9233440000000002
0
LINE
8
User.Drawings
6
CONTINUOUS
10
162.301556000000005
20
-53.9233440000000002
11
161.988853000000006
21
-54.0433799999999991
0
LINE
8
User.Drawings
6
CONTINUOUS
10
161.988853000000006
20
-54.0433799999999991
11
161.66531599999999
21
-54.1300710000000009
0
LINE
8
User.Drawings
6
CONTINUOUS
10
161.66531599999999
20
-54.1300710000000009
11
161.3344899999999882
21
-54.1824689999999975
0
LINE
8
User.Drawings
6
CONTINUOUS
10
161.3344899999999882
20
-54.1824689999999975
11
160.9999990000000025
21
-54.1999989999999983
0
LINE
8
User.Drawings
6
CONTINUOUS
10
160.9999990000000025
20
-54.1999989999999983
11
160.7662669999999991
21
-54.1999989999999983
0
LINE
8
User.Drawings
6
CONTINUOUS
10
160.7662669999999991
20
-54.1999989999999983
11
160.3003190000000018
21
-54.2376140000000007
0
LINE
8
User.Drawings
6
CONTINUOUS
10
160.3003190000000018
20
-54.2376140000000007
11
159.8389080000000035
21
-54.3125999999999962
0
LINE
8
User.Drawings
6
CONTINUOUS
10
159.8389080000000035
20
-54.3125999999999962
11
159.3850280000000055
21
-54.4244719999999944
0
LINE
8
User.Drawings
6
CONTINUOUS
10
159.3850280000000055
20
-54.4244719999999944
11
158.9416209999999978
21
-54.5725029999999975
0
LINE
8
User.Drawings
6
CONTINUOUS
10
158.9416209999999978
20
-54.5725029999999975
11
158.5115639999999928
21
-54.7557329999999993
0
LINE
8
User.Drawings
6
CONTINUOUS
10
158.5115639999999928
20
-54.7557329999999993
11
158.097645
21
-54.9729740000000007
0
LINE
8
User.Drawings
6
CONTINUOUS
10
158.097645
20
-54.9729740000000007
11
157.7025490000000048
21
-55.2228179999999966
0
LINE
8
User.Drawings
6
CONTINUOUS
10
157.7025490000000048
20
-55.2228179999999966
11
157.3288379999999904
21
-55.5036429999999967
0
LINE
8
User.Drawings
6
CONTINUOUS
10
157.3288379999999904
20
-55.5036429999999967
11
156.9789360000000045
21
-55.8136289999999988
0
LINE
8
User.Drawings
6
CONTINUOUS
10
156.9789360000000045
20
-55.8136289999999988
11
156.6551130000000001
21
-56.1507659999999973
0
LINE
8
User.Drawings
6
CONTINUOUS
10
156.6551130000000001
20
-56.1507659999999973
11
156.3594669999999951
21
-56.5128659999999954
0
LINE
8
User.Drawings
6
CONTINUOUS
10
156.3594669999999951
20
-56.5128659999999954
11
156.0939170000000047
21
-56.8975809999999953
0
LINE
8
User.Drawings
6
CONTINUOUS
10
156.0939170000000047
20
-56.8975809999999953
11
155.8601850000000013
21
-57.3024169999999984
0
LINE
8
User.Drawings
6
CONTINUOUS
10
155.8601850000000013
20
-57.3024169999999984
11
155.6597869999999944
21
-57.7247470000000007
0
LINE
8
User.Drawings
6
CONTINUOUS
10
155.6597869999999944
20
-57.7247470000000007
11
155.4940220000000011
21
-58.1618339999999989
0
LINE
8
User.Drawings
6
CONTINUOUS
10
155.4940220000000011
20
-58.1618339999999989
11
155.363964999999979
21
-58.6108410000000006
0
LINE
8
User.Drawings
6
CONTINUOUS
10
155.363964999999979
20
-58.6108410000000006
11
155.2704599999999857
21
-59.0688579999999988
0
LINE
8
User.Drawings
6
CONTINUOUS
10
155.2704599999999857
20
-59.0688579999999988
11
155.214113999999995
21
-59.5329139999999981
0
LINE
8
User.Drawings
6
CONTINUOUS
10
155.214113999999995
20
-59.5329139999999981
11
155.1952909999999974
21
-59.9999989999999954
0
LINE
8
User.Drawings
6
CONTINUOUS
10
155.1952909999999974
20
-59.9999989999999954
11
155.214113999999995
21
-60.4670839999999998
0
LINE
8
User.Drawings
6
CONTINUOUS
10
155.214113999999995
20
-60.4670839999999998
11
155.2704599999999857
21
-60.9311399999999992
0
LINE
8
User.Drawings
6
CONTINUOUS
10
155.2704599999999857
20
-60.9311399999999992
11
155.363964999999979
21
-61.3891569999999973
0
LINE
8
User.Drawings
6
CONTINUOUS
10
155.363964999999979
20
-61.3891569999999973
11
155.4940220000000011
21
-61.838163999999999
0
LINE
8
User.Drawings
6
CONTINUOUS
10
155.4940220000000011
20
-61.838163999999999
11
155.6597869999999944
21
-62.2752509999999972
0
LINE
8
User.Drawings
6
CONTINUOUS
10
155.6597869999999944
20
-62.2752509999999972
11
155.8601850000000013
21
-62.6975809999999996
0
LINE
8
User.Drawings
6
CONTINUOUS
10
155.8601850000000013
20
-62.6975809999999996
11
156.0939170000000047
21
-63.1024169999999955
0
LINE
8
User.Drawings
6
CONTINUOUS
10
156.0939170000000047
20
-63.1024169999999955
11
156.3594669999999951
21
-63.4871319999999955
0
LINE
8
User.Drawings
6
CONTINUOUS
10
156.3594669999999951
20
-63.4871319999999955
11
156.6551130000000001
21
-63.8492320000000007
0
LINE
8
User.Drawings
6
CONTINUOUS
10
156.6551130000000001
20
-63.8492320000000007
11
156.9789360000000045
21
-64.1863689999999991
0
LINE
8
User.Drawings
6
CONTINUOUS
10
156.9789360000000045
20
-64.1863689999999991
11
157.3288379999999904
21
-64.4963549999999941
0
LINE
8
User.Drawings
6
CONTINUOUS
10
157.3288379999999904
20
-64.4963549999999941
11
157.7025490000000048
21
-64.7771800000000013
0
LINE
8
User.Drawings
6
CONTINUOUS
10
157.7025490000000048
20
-64.7771800000000013
11
158.097645
21
-65.0270239999999973
0
LINE
8
User.Drawings
6
CONTINUOUS
10
158.097645
20
-65.0270239999999973
11
158.5115639999999928
21
-65.2442649999999986
0
LINE
8
User.Drawings
6
CONTINUOUS
10
158.5115639999999928
20
-65.2442649999999986
11
158.9416209999999978
21
-65.4274949999999933
0
LINE
8
User.Drawings
6
CONTINUOUS
10
158.9416209999999978
20
-65.4274949999999933
11
159.3850280000000055
21
-65.5755259999999964
0
LINE
8
User.Drawings
6
CONTINUOUS
10
159.3850280000000055
20
-65.5755259999999964
11
159.8389080000000035
21
-65.6873980000000017
0
LINE
8
User.Drawings
6
CONTINUOUS
10
159.8389080000000035
20
-65.6873980000000017
11
160.3003190000000018
21
-65.7623839999999973
0
LINE
8
User.Drawings
6
CONTINUOUS
10
160.3003190000000018
20
-65.7623839999999973
11
160.7662669999999991
21
-65.7999989999999997
0
LINE
8
User.Drawings
6
CONTINUOUS
10
160.7662669999999991
20
-65.7999989999999997
11
160.9999990000000025
21
-65.7999989999999997
0
LINE
8
User.Drawings
6
CONTINUOUS
10
160.9999990000000025
20
-65.7999989999999997
11
161.3344899999999882
21
-65.8175289999999933
0
LINE
8
User.Drawings
6
CONTINUOUS
10
161.3344899999999882
20
-65.8175289999999933
11
161.66531599999999
21
-65.8699270000000041
0
LINE
8
User.Drawings
6
CONTINUOUS
10
161.66531599999999
20
-65.8699270000000041
11
161.988853000000006
21
-65.9566179999999918
0
LINE
8
User.Drawings
6
CONTINUOUS
10
161.988853000000006
20
-65.9566179999999918
11
162.301556000000005
21
-66.0766539999999907
0
LINE
8
User.Drawings
6
CONTINUOUS
10
162.301556000000005
20
-66.0766539999999907
11
162.5999989999999968
21
-66.2287180000000006
0
LINE
8
User.Drawings
6
CONTINUOUS
10
162.5999989999999968
20
-66.2287180000000006
11
162.880911999999995
21
-66.4111449999999905
0
LINE
8
User.Drawings
6
CONTINUOUS
10
162.880911999999995
20
-66.4111449999999905
11
163.1412169999999833
21
-66.6219359999999909
0
LINE
8
User.Drawings
6
CONTINUOUS
10
163.1412169999999833
20
-66.6219359999999909
11
163.3780619999999999
21
-66.8587809999999934
0
LINE
8
User.Drawings
6
CONTINUOUS
10
163.3780619999999999
20
-66.8587809999999934
11
163.5888530000000003
21
-67.1190859999999958
0
LINE
8
User.Drawings
6
CONTINUOUS
10
163.5888530000000003
20
-67.1190859999999958
11
163.7712799999999902
21
-67.399998999999994
0
LINE
8
User.Drawings
6
CONTINUOUS
10
163.7712799999999902
20
-67.399998999999994
11
163.923343999999986
21
-67.698442
0
LINE
8
User.Drawings
6
CONTINUOUS
10
163.923343999999986
20
-67.698442
11
164.0433799999999849
21
-68.0111449999999991
0
LINE
8
User.Drawings
6
CONTINUOUS
10
164.0433799999999849
20
-68.0111449999999991
11
164.1300709999999867
21
-68.3346820000000008
0
LINE
8
User.Drawings
6
CONTINUOUS
10
164.1300709999999867
20
-68.3346820000000008
11
164.1824689999999975
21
-68.6655080000000027
0
LINE
8
User.Drawings
6
CONTINUOUS
10
164.1824689999999975
20
-68.6655080000000027
11
164.1999989999999912
21
-68.9999990000000025
0
LINE
8
User.Drawings
6
CONTINUOUS
10
164.1999989999999912
20
-68.9999990000000025
11
164.1999989999999912
21
-97.9999990000000025
0
LINE
8
User.Drawings
6
CONTINUOUS
10
164.1999989999999912
20
-97.9999990000000025
11
164.196156000000002
21
-98.0390170000000012
0
LINE
8
User.Drawings
6
CONTINUOUS
10
164.196156000000002
20
-98.0390170000000012
11
164.1886179999999911
21
-98.0572149999999993
0
LINE
8
User.Drawings
6
CONTINUOUS
10
164.1886179999999911
20
-98.0572149999999993
11
164.1847750000000019
21
-98.0765359999999902
0
LINE
8
User.Drawings
6
CONTINUOUS
10
164.1847750000000019
20
-98.0765359999999902
11
164.1738309999999785
21
-98.0929139999999933
0
LINE
8
User.Drawings
6
CONTINUOUS
10
164.1738309999999785
20
-98.0929139999999933
11
164.166292999999996
21
-98.1111129999999889
0
LINE
8
User.Drawings
6
CONTINUOUS
10
164.166292999999996
20
-98.1111129999999889
11
164.1523619999999823
21
-98.1250429999999909
0
LINE
8
User.Drawings
6
CONTINUOUS
10
164.1523619999999823
20
-98.1250429999999909
11
164.1414199999999823
21
-98.1414199999999965
0
LINE
8
User.Drawings
6
CONTINUOUS
10
164.1414199999999823
20
-98.1414199999999965
11
164.1250430000000051
21
-98.1523619999999966
0
LINE
8
User.Drawings
6
CONTINUOUS
10
164.1250430000000051
20
-98.1523619999999966
11
164.1111129999999889
21
-98.166292999999996
0
LINE
8
User.Drawings
6
CONTINUOUS
10
164.1111129999999889
20
-98.166292999999996
11
164.0929139999999791
21
-98.1738309999999927
0
LINE
8
User.Drawings
6
CONTINUOUS
10
164.0929139999999791
20
-98.1738309999999927
11
164.0765360000000044
21
-98.1847750000000019
0
LINE
8
User.Drawings
6
CONTINUOUS
10
164.0765360000000044
20
-98.1847750000000019
11
164.0572149999999851
21
-98.1886179999999911
0
LINE
8
User.Drawings
6
CONTINUOUS
10
164.0572149999999851
20
-98.1886179999999911
11
164.0390170000000012
21
-98.196156000000002
0
LINE
8
User.Drawings
6
CONTINUOUS
10
164.0390170000000012
20
-98.196156000000002
11
164.0193189999999959
21
-98.196156000000002
0
LINE
8
User.Drawings
6
CONTINUOUS
10
164.0193189999999959
20
-98.196156000000002
11
163.9999990000000025
21
-98.1999989999999912
0
LINE
8
User.Drawings
6
CONTINUOUS
10
163.9999990000000025
20
-98.1999989999999912
11
163.7721159999999827
21
-98.1999989999999912
0
LINE
8
User.Drawings
6
CONTINUOUS
10
163.7721159999999827
20
-98.1999989999999912
11
163.3177560000000028
21
-98.2357579999999899
0
LINE
8
User.Drawings
6
CONTINUOUS
10
163.3177560000000028
20
-98.2357579999999899
11
162.8676020000000051
21
-98.3070549999999912
0
LINE
8
User.Drawings
6
CONTINUOUS
10
162.8676020000000051
20
-98.3070549999999912
11
162.424430000000001
21
-98.4134509999999949
0
LINE
8
User.Drawings
6
CONTINUOUS
10
162.424430000000001
20
-98.4134509999999949
11
161.9909710000000018
21
-98.5542909999999921
0
LINE
8
User.Drawings
6
CONTINUOUS
10
161.9909710000000018
20
-98.5542909999999921
11
161.5698989999999924
21
-98.7287039999999934
0
LINE
8
User.Drawings
6
CONTINUOUS
10
161.5698989999999924
20
-98.7287039999999934
11
161.1638089999999863
21
-98.9356169999999935
0
LINE
8
User.Drawings
6
CONTINUOUS
10
161.1638089999999863
20
-98.9356169999999935
11
160.7752049999999997
21
-99.1737540000000024
0
LINE
8
User.Drawings
6
CONTINUOUS
10
160.7752049999999997
20
-99.1737540000000024
11
160.4064829999999802
21
-99.4416459999999915
0
LINE
8
User.Drawings
6
CONTINUOUS
10
160.4064829999999802
20
-99.4416459999999915
11
160.0599169999999845
21
-99.7376419999999939
0
LINE
8
User.Drawings
6
CONTINUOUS
10
160.0599169999999845
20
-99.7376419999999939
11
159.7376419999999939
21
-100.0599169999999987
0
LINE
8
User.Drawings
6
CONTINUOUS
10
159.7376419999999939
20
-100.0599169999999987
11
159.4416459999999915
21
-100.4064829999999944
0
LINE
8
User.Drawings
6
CONTINUOUS
10
159.4416459999999915
20
-100.4064829999999944
11
159.1737540000000024
21
-100.7752049999999997
0
LINE
8
User.Drawings
6
CONTINUOUS
10
159.1737540000000024
20
-100.7752049999999997
11
158.9356169999999793
21
-101.1638090000000005
0
LINE
8
User.Drawings
6
CONTINUOUS
10
158.9356169999999793
20
-101.1638090000000005
11
158.7287039999999934
21
-101.5698989999999924
0
LINE
8
User.Drawings
6
CONTINUOUS
10
158.7287039999999934
20
-101.5698989999999924
11
158.5542910000000063
21
-101.9909710000000018
0
LINE
8
User.Drawings
6
CONTINUOUS
10
158.5542910000000063
20
-101.9909710000000018
11
158.4134509999999807
21
-102.424430000000001
0
LINE
8
User.Drawings
6
CONTINUOUS
10
158.4134509999999807
20
-102.424430000000001
11
158.3070549999999912
21
-102.8676019999999909
0
LINE
8
User.Drawings
6
CONTINUOUS
10
158.3070549999999912
20
-102.8676019999999909
11
158.2357580000000041
21
-103.3177559999999886
0
LINE
8
User.Drawings
6
CONTINUOUS
10
158.2357580000000041
20
-103.3177559999999886
11
158.1999989999999912
21
-103.7721159999999969
0
LINE
8
User.Drawings
6
CONTINUOUS
10
158.1999989999999912
20
-103.7721159999999969
11
158.1999989999999912
21
-103.9999989999999883
0
LINE
8
User.Drawings
6
CONTINUOUS
10
158.1999989999999912
20
-103.9999989999999883
11
158.196156000000002
21
-104.0193189999999959
0
LINE
8
User.Drawings
6
CONTINUOUS
10
158.196156000000002
20
-104.0193189999999959
11
158.196156000000002
21
-104.0390170000000012
0
LINE
8
User.Drawings
6
CONTINUOUS
10
158.196156000000002
20
-104.0390170000000012
11
158.1886179999999911
21
-104.0572149999999993
0
LINE
8
User.Drawings
6
CONTINUOUS
10
158.1886179999999911
20
-104.0572149999999993
11
158.1847750000000019
21
-104.0765359999999902
0
LINE
8
User.Drawings
6
CONTINUOUS
10
158.1847750000000019
20
-104.0765359999999902
11
158.173831000000007
21
-104.0929139999999933
0
LINE
8
User.Drawings
6
CONTINUOUS
10
158.173831000000007
20
-104.0929139999999933
11
158.166292999999996
21
-104.1111129999999889
0
LINE
8
User.Drawings
6
CONTINUOUS
10
158.166292999999996
20
-104.1111129999999889
11
158.1523619999999823
21
-104.1250429999999909
0
LINE
8
User.Drawings
6
CONTINUOUS
10
158.1523619999999823
20
-104.1250429999999909
11
158.1414199999999823
21
-104.1414199999999965
0
LINE
8
User.Drawings
6
CONTINUOUS
10
158.1414199999999823
20
-104.1414199999999965
11
158.1250430000000051
21
-104.1523619999999966
0
LINE
8
User.Drawings
6
CONTINUOUS
10
158.1250430000000051
20
-104.1523619999999966
11
158.1111129999999889
21
-104.166292999999996
0
LINE
8
User.Drawings
6
CONTINUOUS
10
158.1111129999999889
20
-104.166292999999996
11
158.0929139999999791
21
-104.1738309999999927
0
LINE
8
User.Drawings
6
CONTINUOUS
10
158.0929139999999791
20
-104.1738309999999927
11
158.0765360000000044
21
-104.1847750000000019
0
LINE
8
User.Drawings
6
CONTINUOUS
10
158.0765360000000044
20
-104.1847750000000019
11
158.0572149999999851
21
-104.1886179999999911
0
LINE
8
User.Drawings
6
CONTINUOUS
10
158.0572149999999851
20
-104.1886179999999911
11
158.0390170000000012
21
-104.196156000000002
0
LINE
8
User.Drawings
6
CONTINUOUS
10
158.0390170000000012
20
-104.196156000000002
11
157.9999990000000025
21
-104.1999989999999912
0
LINE
8
User.Drawings
6
CONTINUOUS
10
157.9999990000000025
20
-104.1999989999999912
11
155.1999989999999912
21
-104.1999989999999912
0
LINE
8
User.Drawings
6
CONTINUOUS
10
155.1999989999999912
20
-104.1999989999999912
11
155.1999989999999912
21
-109.9499999999999886
0
LINE
8
User.Drawings
6
CONTINUOUS
10
155.1999989999999912
20
-109.9499999999999886
11
164.
21
-109.9499999999999886
0
LINE
8
User.Drawings
6
CONTINUOUS
10
164.
20
-109.9499999999999886
11
164.233776000000006
21
-109.9499999999999886
0
LINE
8
User.Drawings
6
CONTINUOUS
10
164.233776000000006
20
-109.9499999999999886
11
164.6998869999999897
21
-109.9133169999999922
0
LINE
8
User.Drawings
6
CONTINUOUS
10
164.6998869999999897
20
-109.9133169999999922
11
165.1616829999999823
21
-109.8401750000000021
0
LINE
8
User.Drawings
6
CONTINUOUS
10
165.1616829999999823
20
-109.8401750000000021
11
165.6163169999999809
21
-109.7310279999999949
0
LINE
8
User.Drawings
6
CONTINUOUS
10
165.6163169999999809
20
-109.7310279999999949
11
166.0609859999999856
21
-109.5865459999999985
0
LINE
8
User.Drawings
6
CONTINUOUS
10
166.0609859999999856
20
-109.5865459999999985
11
166.4929479999999842
21
-109.4076209999999918
0
LINE
8
User.Drawings
6
CONTINUOUS
10
166.4929479999999842
20
-109.4076209999999918
11
166.9095399999999927
21
-109.1953570000000013
0
LINE
8
User.Drawings
6
CONTINUOUS
10
166.9095399999999927
20
-109.1953570000000013
11
167.3081939999999861
21
-108.9510619999999932
0
LINE
8
User.Drawings
6
CONTINUOUS
10
167.3081939999999861
20
-108.9510619999999932
11
167.6864520000000027
21
-108.6762409999999903
0
LINE
8
User.Drawings
6
CONTINUOUS
10
167.6864520000000027
20
-108.6762409999999903
11
168.0419809999999927
21
-108.3725909999999999
0
LINE
8
User.Drawings
6
CONTINUOUS
10
168.0419809999999927
20
-108.3725909999999999
11
168.3725909999999999
21
-108.0419809999999927
0
LINE
8
User.Drawings
6
CONTINUOUS
10
168.3725909999999999
20
-108.0419809999999927
11
168.6762410000000045
21
-107.6864519999999885
0
LINE
8
User.Drawings
6
CONTINUOUS
10
168.6762410000000045
20
-107.6864519999999885
11
168.951061999999979
21
-107.3081940000000003
0
LINE
8
User.Drawings
6
CONTINUOUS
10
168.951061999999979
20
-107.3081940000000003
11
169.1953570000000013
21
-106.9095399999999927
0
LINE
8
User.Drawings
6
CONTINUOUS
10
169.1953570000000013
20
-106.9095399999999927
11
169.407621000000006
21
-106.4929479999999984
0
LINE
8
User.Drawings
6
CONTINUOUS
10
169.407621000000006
20
-106.4929479999999984
11
169.5865459999999985
21
-106.0609859999999998
0
LINE
8
User.Drawings
6
CONTINUOUS
10
169.5865459999999985
20
-106.0609859999999998
11
169.7310279999999807
21
-105.6163169999999951
0
LINE
8
User.Drawings
6
CONTINUOUS
10
169.7310279999999807
20
-105.6163169999999951
11
169.8401749999999879
21
-105.1616829999999965
0
LINE
8
User.Drawings
6
CONTINUOUS
10
169.8401749999999879
20
-105.1616829999999965
11
169.9133170000000064
21
-104.6998869999999897
0
LINE
8
User.Drawings
6
CONTINUOUS
10
169.9133170000000064
20
-104.6998869999999897
11
169.9499999999999886
21
-104.2337759999999918
0
LINE
8
User.Drawings
6
CONTINUOUS
10
169.9499999999999886
20
-104.2337759999999918
11
169.9499999999999886
21
-104.
0
LINE
8
User.Drawings
6
CONTINUOUS
10
169.9499999999999886
20
-104.
11
169.9500009999999861
21
-103.9999959999999959
0
LINE
8
User.Drawings
6
CONTINUOUS
10
169.9500009999999861
20
-103.9999959999999959
11
169.9500009999999861
21
-36.0000029999999995
0
LINE
8
User.Drawings
6
CONTINUOUS
10
169.9500009999999861
20
-36.0000029999999995
11
169.9499999999999886
21
-36.
0
LINE
8
User.Drawings
6
CONTINUOUS
10
169.9499999999999886
20
-36.
11
169.9499999999999886
21
-35.7662240000000011
0
LINE
8
User.Drawings
6
CONTINUOUS
10
169.9499999999999886
20
-35.7662240000000011
11
169.9133170000000064
21
-35.3001129999999961
0
LINE
8
User.Drawings
6
CONTINUOUS
10
169.9133170000000064
20
-35.3001129999999961
11
169.8401749999999879
21
-34.8383169999999964
0
LINE
8
User.Drawings
6
CONTINUOUS
10
169.8401749999999879
20
-34.8383169999999964
11
169.7310279999999807
21
-34.3836829999999978
0
LINE
8
User.Drawings
6
CONTINUOUS
10
169.7310279999999807
20
-34.3836829999999978
11
169.5865459999999985
21
-33.9390140000000002
0
LINE
8
User.Drawings
6
CONTINUOUS
10
169.5865459999999985
20
-33.9390140000000002
11
169.407621000000006
21
-33.5070520000000016
0
LINE
8
User.Drawings
6
CONTINUOUS
10
169.407621000000006
20
-33.5070520000000016
11
169.1953570000000013
21
-33.0904600000000002
0
LINE
8
User.Drawings
6
CONTINUOUS
10
169.1953570000000013
20
-33.0904600000000002
11
168.951061999999979
21
-32.6918059999999997
0
LINE
8
User.Drawings
6
CONTINUOUS
10
168.951061999999979
20
-32.6918059999999997
11
168.6762410000000045
21
-32.3135479999999973
0
LINE
8
User.Drawings
6
CONTINUOUS
10
168.6762410000000045
20
-32.3135479999999973
11
168.3725909999999999
21
-31.9580190000000002
0
LINE
8
User.Drawings
6
CONTINUOUS
10
168.3725909999999999
20
-31.9580190000000002
11
168.0419809999999927
21
-31.6274090000000001
0
LINE
8
User.Drawings
6
CONTINUOUS
10
168.0419809999999927
20
-31.6274090000000001
11
167.6864520000000027
21
-31.323758999999999
0
LINE
8
User.Drawings
6
CONTINUOUS
10
167.6864520000000027
20
-31.323758999999999
11
167.3081939999999861
21
-31.0489379999999997
0
LINE
8
User.Drawings
6
CONTINUOUS
10
167.3081939999999861
20
-31.0489379999999997
11
166.9095399999999927
21
-30.8046429999999987
0
LINE
8
User.Drawings
6
CONTINUOUS
10
166.9095399999999927
20
-30.8046429999999987
11
166.4929479999999842
21
-30.5923789999999975
0
LINE
8
User.Drawings
6
CONTINUOUS
10
166.4929479999999842
20
-30.5923789999999975
11
166.0609859999999856
21
-30.413453999999998
0
LINE
8
User.Drawings
6
CONTINUOUS
10
166.0609859999999856
20
-30.413453999999998
11
165.6163169999999809
21
-30.268971999999998
0
LINE
8
User.Drawings
6
CONTINUOUS
10
165.6163169999999809
20
-30.268971999999998
11
165.1616829999999823
21
-30.1598249999999979
0
LINE
8
User.Drawings
6
CONTINUOUS
10
165.1616829999999823
20
-30.1598249999999979
11
164.6998869999999897
21
-30.0866829999999972
0
LINE
8
User.Drawings
6
CONTINUOUS
10
164.6998869999999897
20
-30.0866829999999972
11
164.233776000000006
21
-30.0499999999999972
0
LINE
8
User.Drawings
6
CONTINUOUS
10
164.233776000000006
20
-30.0499999999999972
11
164.
21
-30.0499999999999972
0
LINE
8
User.Drawings
6
CONTINUOUS
10
164.
20
-30.0499999999999972
11
149.1999999999999886
21
-30.0500009999999982
  0
ENDSEC
  0
EOF
